<?xml version="1.0" encoding="utf-8"?>
<!-- Generator: Adobe Illustrator 23.1.1, SVG Export Plug-In . SVG Version: 6.00 Build 0)  -->
<svg version="1.1" id="Ebene_1" xmlns="http://www.w3.org/2000/svg" xmlns:xlink="http://www.w3.org/1999/xlink" x="0px" y="0px"
	 viewBox="0 0 210 210" style="enable-background:new 0 0 210 210;" xml:space="preserve">
<style type="text/css">
	.st0{opacity:5.000000e-02;fill:none;stroke:#000000;stroke-width:2;stroke-miterlimit:10;}
	.st1{opacity:5.000000e-02;fill:none;stroke:#000000;stroke-width:2;stroke-miterlimit:10;enable-background:new    ;}
	
		.st2{opacity:5.000000e-02;fill:none;stroke:#000000;stroke-width:2;stroke-linecap:round;stroke-miterlimit:10;enable-background:new    ;}
	.st3{opacity:5.000000e-02;fill:none;stroke:#000000;stroke-width:2;stroke-miterlimit:9.9999;}
	.st4{opacity:5.000000e-02;fill:none;stroke:#000000;stroke-width:2;stroke-linejoin:round;}
	.st5{opacity:5.000000e-02;fill:none;stroke:#000000;stroke-width:2;stroke-linecap:round;stroke-linejoin:round;}
	.st6{opacity:5.000000e-02;fill:none;stroke:#000000;stroke-width:2.0001;stroke-miterlimit:10.0004;}
</style>
<title>pattern-chat</title>
<path class="st0" d="M73,69.6l6.4-4.3c0.4-0.3,0.9-0.2,1.2,0.2c0.1,0.2,0.2,0.4,0.1,0.6l-1.1,7.6L68.8,90.9
	c-1.1,1.8-3.5,2.4-5.3,1.2c-1.8-1.1-2.4-3.5-1.2-5.3L73,69.6z"/>
<line class="st0" x1="73" y1="69.6" x2="79.6" y2="73.7"/>
<line class="st0" x1="69.6" y1="89.6" x2="63.1" y2="85.5"/>
<line class="st0" x1="76.3" y1="71.7" x2="66.4" y2="87.6"/>
<line class="st0" x1="77.2" y1="66.8" x2="80.3" y2="68.7"/>
<path class="st0" d="M12.2,61c-0.4,0.1-0.7,0.5-0.6,0.9l2.1,9.1c0.1,0.4,0.5,0.7,0.9,0.6l34.8-7.9c0.4-0.1,0.7-0.5,0.6-0.9l-2-9.2
	c-0.1-0.4-0.5-0.7-0.9-0.6l0,0L12.2,61z"/>
<line class="st0" x1="42.5" y1="54.1" x2="43.5" y2="58.6"/>
<line class="st0" x1="36.4" y1="55.4" x2="37.5" y2="60"/>
<line class="st0" x1="30.4" y1="56.8" x2="31.4" y2="61.4"/>
<line class="st0" x1="24.3" y1="58.2" x2="25.4" y2="62.8"/>
<line class="st0" x1="18.3" y1="59.6" x2="19.3" y2="64.1"/>
<path class="st0" d="M55.1,20.6c-0.4-0.2-0.4-0.7-0.2-1.1c0.1-0.2,0.4-0.3,0.6-0.3h35.7c0.4,0,0.8,0.3,0.8,0.8l0,0v35.7
	c0,0.4-0.4,0.8-0.8,0.8c-0.2,0-0.4-0.1-0.5-0.2L55.1,20.6z M72.2,25.4L85.8,39V25.4H72.2z"/>
<line class="st0" x1="84.6" y1="50.1" x2="87.3" y2="47.4"/>
<line class="st0" x1="80.7" y1="46.2" x2="83.4" y2="43.6"/>
<line class="st0" x1="76.8" y1="42.3" x2="79.5" y2="39.6"/>
<line class="st0" x1="72.9" y1="38.4" x2="75.5" y2="35.7"/>
<line class="st0" x1="68.9" y1="34.4" x2="71.6" y2="31.8"/>
<line class="st0" x1="65" y1="30.5" x2="67.7" y2="27.9"/>
<line class="st0" x1="61.1" y1="26.6" x2="63.8" y2="23.9"/>
<path class="st1" d="M23.6,28.7c-0.8-2.7,0.7-5.5,3.3-6.3c2.7-0.8,5.5,0.7,6.3,3.3c0.8,2.7-0.7,5.9-2.9,7.8l0.5,1.8"/>
<path class="st0" d="M31.7,39.1c0.1,0.1,0.3,0,0.3-0.1c0.1-0.1,0-0.3-0.1-0.3c-0.1-0.1-0.3,0-0.3,0.1C31.6,38.9,31.6,39,31.7,39.1z"
	/>
<line class="st2" x1="44.9" y1="75.5" x2="52.4" y2="78.3"/>
<line class="st2" x1="47.2" y1="80.6" x2="50.1" y2="73.2"/>
<line class="st2" x1="14.4" y1="48.6" x2="17.7" y2="45.2"/>
<line class="st2" x1="17.7" y1="48.6" x2="14.4" y2="45.2"/>
<line class="st2" x1="62.7" y1="50.2" x2="59.4" y2="46.9"/>
<line class="st2" x1="84.5" y1="88.7" x2="80.2" y2="90.5"/>
<line class="st2" x1="67.2" y1="9.3" x2="62.9" y2="11.1"/>
<circle class="st2" cx="15" cy="13.7" r="3"/>
<circle class="st2" cx="35.7" cy="96.3" r="1.7"/>
<circle class="st2" cx="95.7" cy="6.3" r="1.7"/>
<line class="st2" x1="90.6" y1="76.6" x2="92.1" y2="73"/>
<line class="st2" x1="93.6" y1="77.8" x2="94.7" y2="75.2"/>
<path class="st2" d="M90.6,71c0,0,1.4-0.8,2.6-0.3s1.2,1.8,2.2,2.3c0.8,0.3,1.7,0.2,2.4-0.3"/>
<line class="st2" x1="9.2" y1="93.7" x2="7.9" y2="90.1"/>
<line class="st2" x1="12.3" y1="92.6" x2="11.3" y2="89.9"/>
<path class="st2" d="M5.4,89.6c0,0,0.5-1.5,1.7-1.9s2.1,0.6,3.2,0.2c0.8-0.3,1.4-1,1.6-1.9"/>
<path class="st0" d="M24.6,172.7l3.5,5.2c0.2,0.3,0.1,0.7-0.2,1c-0.1,0.1-0.3,0.1-0.5,0.1l-6.2-0.9l-14.1-8.9
	c-1.5-0.9-1.9-2.9-1-4.4s2.9-1.9,4.4-1L24.6,172.7z"/>
<line class="st0" x1="24.6" y1="172.7" x2="21.2" y2="178.1"/>
<line class="st0" x1="8.2" y1="169.9" x2="11.6" y2="164.5"/>
<line class="st0" x1="22.9" y1="175.4" x2="9.9" y2="167.2"/>
<line class="st0" x1="26.9" y1="176.1" x2="25.3" y2="178.6"/>
<path class="st0" d="M41.9,113.8c-0.1-0.4-0.5-0.7-0.9-0.6l-9.1,2.1c-0.4,0.1-0.7,0.5-0.6,0.9l7.9,34.8c0.1,0.4,0.5,0.7,0.9,0.6l0,0
	l9.1-2.1c0.4-0.1,0.7-0.5,0.6-0.9l0,0L41.9,113.8z"/>
<line class="st0" x1="48.9" y1="144.1" x2="44.3" y2="145.1"/>
<line class="st0" x1="47.5" y1="138" x2="42.9" y2="139.1"/>
<line class="st0" x1="46.1" y1="132" x2="41.6" y2="133"/>
<line class="st0" x1="44.7" y1="125.9" x2="40.2" y2="126.9"/>
<line class="st0" x1="43.3" y1="119.8" x2="38.8" y2="120.9"/>
<path class="st1" d="M71.5,131.3c2-2,5.2-2,7.2-0.1c2,2,2,5.2,0.1,7.2c0,0,0,0-0.1,0.1c-2,2-5.6,2.2-8.2,1.1l-1.4,1.4"/>
<path class="st0" d="M66.1,143.3c0,0.1,0.1,0.3,0.3,0.3s0.3-0.1,0.3-0.3s-0.1-0.3-0.3-0.3S66.1,143.1,66.1,143.3L66.1,143.3z"/>
<line class="st2" x1="27.5" y1="152.4" x2="24.6" y2="159.9"/>
<line class="st2" x1="22.3" y1="154.7" x2="29.8" y2="157.6"/>
<line class="st2" x1="54.4" y1="121.9" x2="57.7" y2="125.2"/>
<line class="st2" x1="54.4" y1="125.2" x2="57.7" y2="121.9"/>
<line class="st2" x1="36.5" y1="165.4" x2="39.8" y2="162.1"/>
<line class="st2" x1="9.9" y1="193.6" x2="8.1" y2="189.3"/>
<line class="st2" x1="93.6" y1="147.8" x2="91.8" y2="143.4"/>
<circle class="st2" cx="78.5" cy="116.6" r="3"/>
<circle class="st2" cx="6.7" cy="143.2" r="1.7"/>
<circle class="st2" cx="96.6" cy="203.2" r="1.7"/>
<line class="st2" x1="26.4" y1="198.1" x2="29.9" y2="199.6"/>
<line class="st2" x1="25.1" y1="201.1" x2="27.7" y2="202.2"/>
<path class="st2" d="M31.9,198.1c0,0,0.8,1.4,0.3,2.6c-0.5,1.2-1.8,1.2-2.3,2.2c-0.3,0.8-0.2,1.7,0.3,2.4"/>
<line class="st2" x1="9.2" y1="116.7" x2="12.9" y2="115.4"/>
<line class="st2" x1="10.3" y1="119.8" x2="13" y2="118.8"/>
<path class="st2" d="M13.4,113c0,0,1.5,0.5,1.9,1.7s-0.6,2.1-0.2,3.2c0.3,0.8,1,1.4,1.9,1.6"/>
<ellipse class="st3" cx="66.1" cy="183.5" rx="20" ry="20"/>
<ellipse class="st3" cx="66.1" cy="183.5" rx="17.2" ry="17.2"/>
<polyline class="st4" points="68.3,179.1 76.1,173.6 76.1,173.6 76.1,173.6 76.1,173.6 76.1,173.6 70.6,181.9 76.4,183.5 
	76.4,183.5 76.4,183.5 76.4,183.5 76.4,183.5 70.3,185.6 76.1,193.4 76.1,193.4 76.1,193.4 76.1,193.4 76.1,193.4 68.3,187.9 "/>
<polyline class="st4" points="63.9,187.9 56.2,193.4 56.2,193.4 56.2,193.4 56.2,193.4 56.2,193.4 61.7,185 55.9,183.5 55.9,183.5 
	55.9,183.5 55.9,183.5 55.9,183.5 61.9,181.5 56.2,173.6 56.2,173.6 56.2,173.6 56.2,173.6 56.2,173.6 63.9,179.1 "/>
<path class="st4" d="M66.1,168.6l2.4,11.3c1.9,1.3,2.4,3.9,1.1,5.9c-0.3,0.4-0.7,0.8-1.1,1.1l-2.4,11.5l-2.4-11.5
	c-1.9-1.3-2.4-3.9-1.1-5.9c0.3-0.4,0.7-0.8,1.1-1.1L66.1,168.6z"/>
<circle id="_Pfad_" class="st4" cx="66.1" cy="183.5" r="1.4"/>
<path class="st0" d="M78.6,167.8l2.9-2.8c0.9-0.9,1.5-0.1,2.4,0.8c0.9,0.9,1.7,1.5,0.8,2.4l-2.8,2.8"/>
<path class="st0" d="M80.5,165.9c-1.5-3.3-0.1-7.3,3.2-8.8c3.3-1.5,7.3-0.1,8.8,3.2s0.1,7.3-3.2,8.8c-1.8,0.8-3.8,0.8-5.5,0"/>
<line class="st2" x1="96.5" y1="125.5" x2="93.6" y2="132.9"/>
<line class="st2" x1="91.3" y1="127.8" x2="98.8" y2="130.6"/>
<path class="st0" d="M176.6,31l-4.3-6.4c-0.3-0.4-0.1-0.9,0.2-1.2c0.2-0.1,0.4-0.2,0.6-0.1l7.6,1.1l17.2,10.8
	c1.8,1.2,2.3,3.6,1.1,5.4c-1.1,1.7-3.4,2.2-5.2,1.2L176.6,31z"/>
<line class="st0" x1="176.6" y1="31" x2="180.7" y2="24.4"/>
<line class="st0" x1="196.6" y1="34.4" x2="192.5" y2="41"/>
<line class="st0" x1="178.7" y1="27.7" x2="194.6" y2="37.7"/>
<line class="st0" x1="173.8" y1="26.8" x2="175.7" y2="23.7"/>
<path class="st0" d="M169.1,86.4c0.1,0.4,0.5,0.7,0.9,0.6l9.1-2.1c0.4-0.1,0.7-0.5,0.6-0.9l-7.9-34.8c-0.1-0.4-0.5-0.6-0.9-0.5
	l-9.1,2c-0.4,0.1-0.7,0.5-0.6,0.9l0,0L169.1,86.4z"/>
<line class="st0" x1="162.1" y1="56.1" x2="166.7" y2="55.1"/>
<line class="st0" x1="163.5" y1="62.2" x2="168.1" y2="61.1"/>
<line class="st0" x1="164.9" y1="68.2" x2="169.5" y2="67.2"/>
<line class="st0" x1="166.3" y1="74.3" x2="170.8" y2="73.3"/>
<line class="st0" x1="167.7" y1="80.4" x2="172.2" y2="79.3"/>
<path class="st1" d="M147.6,26.5c-2,2-5.2,2-7.2,0.1s-2-5.2-0.1-7.2l0,0c2-2,5.6-2.2,8.2-1.1l1.3-1.4"/>
<path class="st0" d="M153,14.5c0-0.1-0.1-0.2-0.3-0.2c-0.1,0-0.2,0.1-0.2,0.2c0,0.1,0.1,0.2,0.3,0.2C152.8,14.7,152.9,14.6,153,14.5
	z"/>
<line class="st2" x1="182.5" y1="59.1" x2="185.3" y2="51.6"/>
<line class="st2" x1="187.6" y1="56.8" x2="180.2" y2="53.9"/>
<line class="st2" x1="148" y1="83.2" x2="144.7" y2="79.9"/>
<line class="st2" x1="148" y1="79.9" x2="144.7" y2="83.2"/>
<line class="st2" x1="161" y1="34.3" x2="157.7" y2="37.6"/>
<line class="st2" x1="200" y1="17.9" x2="201.8" y2="22.2"/>
<line class="st2" x1="116.3" y1="25.4" x2="118.2" y2="29.8"/>
<circle class="st2" cx="126.6" cy="83.1" r="3"/>
<circle class="st2" cx="203.3" cy="68.4" r="1.7"/>
<circle class="st2" cx="113.3" cy="8.3" r="1.7"/>
<line class="st2" x1="183.6" y1="13.4" x2="180" y2="12"/>
<line class="st2" x1="184.8" y1="10.4" x2="182.2" y2="9.3"/>
<path class="st2" d="M178,13.4c0,0-0.8-1.4-0.3-2.6s1.8-1.2,2.3-2.2c0.3-0.8,0.2-1.7-0.3-2.4"/>
<line class="st2" x1="200.7" y1="94.8" x2="197.1" y2="96.1"/>
<line class="st2" x1="199.6" y1="91.7" x2="196.9" y2="92.7"/>
<path class="st2" d="M196.6,98.6c0,0-1.5-0.5-1.9-1.7s0.6-2.1,0.2-3.2c-0.3-0.8-1-1.4-1.9-1.6"/>
<line class="st5" x1="131.9" y1="63.9" x2="131.9" y2="59.3"/>
<line class="st5" x1="131.8" y1="59.3" x2="134.2" y2="56.9"/>
<line class="st5" x1="131.9" y1="59.3" x2="129.5" y2="56.9"/>
<line class="st5" x1="131.9" y1="44.4" x2="131.9" y2="42.5"/>
<line class="st5" x1="140" y1="64" x2="141.4" y2="65.4"/>
<line class="st5" x1="140" y1="47.7" x2="141.4" y2="46.3"/>
<line class="st5" x1="143.4" y1="56" x2="145.3" y2="56"/>
<line class="st5" x1="123.7" y1="64" x2="122.4" y2="65.4"/>
<line class="st5" x1="123.8" y1="47.7" x2="122.4" y2="46.3"/>
<line class="st5" x1="120.4" y1="56" x2="118.4" y2="56"/>
<line class="st5" x1="134.3" y1="63.9" x2="129.4" y2="63.9"/>
<line class="st5" x1="134.3" y1="66.1" x2="129.4" y2="66.1"/>
<line class="st5" x1="134.3" y1="68.4" x2="129.4" y2="68.4"/>
<path class="st5" d="M129.4,68c-0.1,1.4,1,2.5,2.3,2.6c1.4,0.1,2.5-1,2.6-2.3c0-0.1,0-0.2,0-0.2v-3.4c0-2.1,4.3-3.5,4.3-8.8
	c0-3.7-3-6.7-6.7-6.8c-3.7,0.1-6.7,3.1-6.7,6.8c0,5.3,4.3,6.8,4.3,8.8L129.4,68z"/>
<path class="st5" d="M129.9,51.9c-0.9,0.5-1.7,1.2-2.1,2.1"/>
<line class="st2" x1="154.9" y1="98" x2="147.3" y2="105.6"/>
<circle class="st2" cx="154.2" cy="105.1" r="1.3"/>
<circle class="st2" cx="148.2" cy="98.6" r="1.3"/>
<path class="st0" d="M140.1,179.4l4.3,6.4c0.3,0.4,0.1,0.9-0.2,1.2c-0.2,0.1-0.4,0.2-0.6,0.1L136,186l-17.2-10.8
	c-1.8-1.2-2.2-3.6-1-5.4c1.1-1.6,3.3-2.2,5.1-1.2L140.1,179.4z"/>
<line class="st0" x1="140.1" y1="179.4" x2="135.9" y2="186"/>
<line class="st0" x1="120" y1="176" x2="124.2" y2="169.4"/>
<line class="st0" x1="138" y1="182.7" x2="122.1" y2="172.7"/>
<line class="st0" x1="142.9" y1="183.6" x2="140.9" y2="186.7"/>
<path class="st0" d="M187.4,175.8c0.3-0.3,0.2-0.8-0.2-1.1l-7.4-5.6c-0.3-0.3-0.8-0.2-1.1,0.1l-21.6,28.4c-0.3,0.3-0.2,0.8,0.2,1.1
	l7.4,5.6c0.3,0.3,0.8,0.2,1.1-0.2L187.4,175.8z"/>
<line class="st0" x1="168.7" y1="200.5" x2="164.9" y2="197.7"/>
<line class="st0" x1="172.4" y1="195.5" x2="168.7" y2="192.7"/>
<line class="st0" x1="176.2" y1="190.6" x2="172.5" y2="187.8"/>
<line class="st0" x1="179.9" y1="185.6" x2="176.2" y2="182.8"/>
<line class="st0" x1="183.7" y1="180.7" x2="180" y2="177.9"/>
<path class="st1" d="M178.2,130.1c1.9-2.1,5.1-2.2,7.1-0.3c2.1,1.9,2.2,5.1,0.3,7.1c-0.1,0.1-0.2,0.2-0.3,0.3c-2,2-5.6,2.2-8.2,1.1
	l-1.3,1.4"/>
<path class="st0" d="M172.9,142.1c0,0.1,0.1,0.3,0.3,0.3s0.3-0.1,0.3-0.3s-0.1-0.3-0.3-0.3S172.9,142,172.9,142.1z"/>
<line class="st2" x1="134.2" y1="151.3" x2="131.4" y2="158.7"/>
<line class="st2" x1="129.1" y1="153.6" x2="136.5" y2="156.4"/>
<line class="st2" x1="161.1" y1="120.7" x2="164.4" y2="124"/>
<line class="st2" x1="161.1" y1="124" x2="164.4" y2="120.7"/>
<line class="st2" x1="159.4" y1="169.1" x2="162.8" y2="165.8"/>
<line class="st2" x1="116.6" y1="192.5" x2="114.8" y2="188.1"/>
<line class="st2" x1="200.3" y1="173.6" x2="198.5" y2="169.2"/>
<circle class="st2" cx="196" cy="121.4" r="3"/>
<circle class="st2" cx="113.4" cy="142" r="1.7"/>
<circle class="st2" cx="203.3" cy="202" r="1.7"/>
<line class="st2" x1="133.1" y1="196.9" x2="136.7" y2="198.4"/>
<line class="st2" x1="131.8" y1="200" x2="134.5" y2="201.1"/>
<path class="st2" d="M138.7,196.9c0,0,0.8,1.4,0.3,2.6c-0.5,1.2-1.8,1.2-2.3,2.2c-0.3,0.8-0.2,1.7,0.3,2.4"/>
<line class="st2" x1="125.1" y1="119.9" x2="128.8" y2="118.6"/>
<line class="st2" x1="126.3" y1="123" x2="129" y2="122"/>
<path class="st2" d="M129.3,116.1c0,0,1.5,0.5,1.9,1.7s-0.6,2.1-0.2,3.2c0.3,0.8,1,1.4,1.9,1.6"/>
<path class="st0" d="M136.6,135.6c-1-5.5,2.2-8.9,6.4-9.6s8.5,1.6,9.5,6.8c1.1,6.2-5.5,14.9-5.5,14.9S137.8,142,136.6,135.6z"/>
<ellipse class="st6" cx="144.5" cy="134.1" rx="3.4" ry="3.4"/>
</svg>
