<svg xmlns="http://www.w3.org/2000/svg" width="73.596" height="74.326" viewBox="0 0 73.596 74.326">
  <g id="Gruppe_528" data-name="Gruppe 528" transform="translate(2 2)">
    <g id="Gruppe_415" data-name="Gruppe 415">
      <path id="Pfad_283" data-name="Pfad 283" d="M516.36,446.742h-7.445a7.328,7.328,0,0,1-7.328-7.328v-7.446" transform="translate(-501.587 -376.417)" fill="none" stroke="#276b97" stroke-linecap="round" stroke-linejoin="round" stroke-width="4"/>
      <path id="Pfad_284" data-name="Pfad 284" d="M501.587,382.886V375.44a7.328,7.328,0,0,1,7.328-7.328h7.445" transform="translate(-501.587 -368.112)" fill="none" stroke="#276b97" stroke-linecap="round" stroke-linejoin="round" stroke-width="4"/>
      <path id="Pfad_285" data-name="Pfad 285" d="M564.6,368.112h7.446a7.329,7.329,0,0,1,7.328,7.328v7.446" transform="translate(-509.782 -368.112)" fill="none" stroke="#276b97" stroke-linecap="round" stroke-linejoin="round" stroke-width="4"/>
      <path id="Pfad_286" data-name="Pfad 286" d="M579.378,431.968v7.446a7.329,7.329,0,0,1-7.328,7.328H564.6" transform="translate(-509.782 -376.417)" fill="none" stroke="#276b97" stroke-linecap="round" stroke-linejoin="round" stroke-width="4"/>
    </g>
    <g id="Gruppe_416" data-name="Gruppe 416" transform="translate(18.197 18.562)">
      <line id="Linie_143" data-name="Linie 143" y2="33.201" transform="translate(16.601)" fill="none" stroke="#276b97" stroke-linecap="round" stroke-linejoin="round" stroke-width="4"/>
      <line id="Linie_144" data-name="Linie 144" x2="33.201" transform="translate(0 16.601)" fill="none" stroke="#276b97" stroke-linecap="round" stroke-linejoin="round" stroke-width="4"/>
    </g>
  </g>
</svg>
