<?xml version="1.0" encoding="utf-8"?>
<!-- Generator: Adobe Illustrator 16.0.0, SVG Export Plug-In . SVG Version: 6.00 Build 0)  -->
<!DOCTYPE svg PUBLIC "-//W3C//DTD SVG 1.1//EN" "http://www.w3.org/Graphics/SVG/1.1/DTD/svg11.dtd">
<svg version="1.1" id="Ebene_1" xmlns="http://www.w3.org/2000/svg" xmlns:xlink="http://www.w3.org/1999/xlink" x="0px" y="0px"
	 width="24px" height="14px" viewBox="0 0 24 14" style="enable-background:new 0 0 24 14;" xml:space="preserve">
<style type="text/css">
<![CDATA[
	.st0{fill:none;stroke:#F3B100;stroke-width:10;stroke-linecap:round;stroke-miterlimit:10;}
	.st1{display:inline;fill:none;stroke:#FFFFFF;stroke-width:6;stroke-linecap:round;stroke-miterlimit:10;}
	.st2{display:inline;fill:none;stroke:#036D99;stroke-width:8;stroke-linecap:round;stroke-miterlimit:10;}
	.st3{fill:none;stroke:#FFFFFF;stroke-width:4;stroke-linecap:round;stroke-linejoin:round;stroke-miterlimit:10;}
	.st4{fill:none;stroke:#FFFFFF;stroke-width:5;stroke-linecap:round;stroke-linejoin:round;stroke-miterlimit:10;}
	.st5{fill:#FFFFFF;stroke:#FFFFFF;stroke-width:4;stroke-linecap:round;stroke-linejoin:round;stroke-miterlimit:10;}
	.st6{fill:#FFFFFF;stroke:#FFFFFF;stroke-width:6;stroke-linecap:round;stroke-linejoin:round;stroke-miterlimit:10;}
	.st7{display:inline;fill:none;stroke:#FFFFFF;stroke-width:4;stroke-linecap:round;stroke-linejoin:round;stroke-miterlimit:10;}
	.st8{display:inline;fill:none;stroke:#FFFFFF;stroke-width:6;stroke-linecap:round;stroke-linejoin:round;stroke-miterlimit:10;}
	.st9{display:none;fill:none;stroke:#FFFFFF;stroke-width:2;stroke-linecap:round;stroke-miterlimit:10;}
	
		.st10{display:inline;fill:#FFFFFF;stroke:#FFFFFF;stroke-width:4;stroke-linecap:round;stroke-linejoin:round;stroke-miterlimit:10;}
	.st11{fill:none;stroke:#FFFFFF;stroke-width:5;stroke-linecap:round;stroke-miterlimit:10;}
	.st12{fill:none;stroke:#FFFFFF;stroke-width:6;stroke-linecap:round;stroke-miterlimit:10;}
	.st13{fill:none;stroke:#036D99;stroke-width:8;stroke-linecap:round;stroke-miterlimit:10;}
	.st14{fill:none;stroke:#B2B2B2;stroke-width:4;stroke-linecap:round;stroke-miterlimit:10;stroke-dasharray:0,10;}
	.st15{opacity:0.5;}
	.st16{fill:#FFFFFF;}
	.st17{display:inline;}
	.st18{fill:none;stroke:#F35800;stroke-width:10;stroke-linecap:round;stroke-miterlimit:10;}
	.st19{fill:#1595C1;stroke:#1595C1;stroke-width:10;stroke-linejoin:round;stroke-miterlimit:10;}
	.st20{fill:none;stroke:#FFFFFF;stroke-width:1.84;stroke-linecap:round;stroke-miterlimit:10;}
	.st21{display:none;}
	.st22{fill:none;stroke:#444444;stroke-width:4;stroke-linecap:round;stroke-linejoin:round;stroke-miterlimit:10;}
	.st23{fill:none;stroke:#444444;stroke-width:6;stroke-linecap:round;stroke-linejoin:round;stroke-miterlimit:10;}
	.st24{fill:#444444;stroke:#444444;stroke-width:2;stroke-linecap:round;stroke-linejoin:round;stroke-miterlimit:10;}
	.st25{fill:#444444;stroke:#444444;stroke-width:4;stroke-linecap:round;stroke-linejoin:round;stroke-miterlimit:10;}
	.st26{fill:#FFFFFF;stroke:#444444;stroke-width:6;stroke-linecap:round;stroke-linejoin:round;stroke-miterlimit:10;}
]]>
</style>
<g id="XMLID_9_">
	<g>
		<g class="st21">
			<path class="st20" d="M-206.1,9.7c0,10.6-8.6,19.2-19.2,19.2c-10.6,0-19.2-8.6-19.2-19.2c0-10.6,8.6-19.2,19.2-19.2
				C-214.7-9.5-206.1-0.9-206.1,9.7z"/>
			<rect x="-225.3" y="21.6" class="st1" width="0" height="0"/>
			<path class="st8" d="M-232.1,3c0-3.8,3-6.8,6.8-6.8c3.8,0,6.8,3,6.8,6.8c0,3.8-3.3,7.3-6.8,8.9v1.5"/>
		</g>
		<g class="st21">
			<line class="st7" x1="-225.3" y1="12.6" x2="-225.3" y2="8.5"/>
			<line class="st7" x1="-225.2" y1="8.5" x2="-228.4" y2="5.3"/>
			<line class="st7" x1="-225.3" y1="8.5" x2="-222.1" y2="5.3"/>
		</g>
		<g class="st21">
			<g class="st17">
				<line class="st3" x1="-225.3" y1="-2.6" x2="-225.3" y2="-4.7"/>
				<line class="st3" x1="-233.7" y1="17.8" x2="-235.2" y2="19.3"/>
				<line class="st3" x1="-233.7" y1="0.8" x2="-235.2" y2="-0.7"/>
				<line class="st3" x1="-237.3" y1="9.5" x2="-239.3" y2="9.5"/>
			</g>
			<line class="st7" x1="-216.8" y1="17.8" x2="-215.3" y2="19.3"/>
			<line class="st7" x1="-216.8" y1="0.8" x2="-215.3" y2="-0.7"/>
			<line class="st7" x1="-213.2" y1="9.5" x2="-211.2" y2="9.5"/>
		</g>
		<g class="st21">
			<path class="st10" d="M-220.6,8.9c0-2.6-2.1-4.7-4.7-4.7c-2.6,0-4.7,2.1-4.7,4.7c0,5.1,3.5,5.7,3.5,7.3v2c0,0.7-0.1,1.3,0.4,1.6
				c0.1,0.4,1.7,0.4,1.7,0c0.4-0.4,0.4-0.9,0.4-1.6v-2C-224,14.7-220.6,13.9-220.6,8.9z"/>
			<rect x="-225.3" y="21.1" class="st10" width="0" height="0"/>
		</g>
		<g class="st15">
			<g>
				<line class="st22" x1="-225.3" y1="-2.6" x2="-225.3" y2="-4.7"/>
			</g>
			<g>
				<line class="st22" x1="-235.2" y1="3" x2="-237" y2="2"/>
			</g>
			<g>
				<line class="st22" x1="-235.1" y1="14.5" x2="-236.9" y2="15.5"/>
			</g>
			<g>
				<line class="st22" x1="-215.3" y1="3" x2="-213.6" y2="2"/>
			</g>
			<g>
				<line class="st22" x1="-215.4" y1="14.5" x2="-213.6" y2="15.5"/>
			</g>
			<path class="st25" d="M-220.4,8.9c0,3.3-2.9,7.6-4.7,7.6s-4.7-4-4.7-7.6c0-2.6,2.1-4.7,4.7-4.7C-222.5,4.2-220.4,6.3-220.4,8.9z"
				/>
			<line class="st26" x1="-225.3" y1="12.1" x2="-225.3" y2="20.5"/>
		</g>
	</g>
</g>
<g id="XMLID_5_">
	<g>
		<g id="detail-info_10_">
			<g class="st21">
				<path class="st20" d="M-260.1,9.7c0,10.6-8.6,19.2-19.2,19.2c-10.6,0-19.2-8.6-19.2-19.2c0-10.6,8.6-19.2,19.2-19.2
					C-268.7-9.5-260.1-0.9-260.1,9.7z"/>
				<rect x="-279.3" y="21.6" class="st1" width="0" height="0"/>
				<path class="st8" d="M-286.1,3c0-3.8,3-6.8,6.8-6.8c3.8,0,6.8,3,6.8,6.8c0,3.8-3.3,7.3-6.8,8.9v1.5"/>
			</g>
			<g class="st21">
				<line class="st7" x1="-279.3" y1="12.6" x2="-279.3" y2="8.5"/>
				<line class="st7" x1="-279.2" y1="8.5" x2="-282.4" y2="5.3"/>
				<line class="st7" x1="-279.3" y1="8.5" x2="-276.1" y2="5.3"/>
			</g>
			<g class="st21">
				<g class="st17">
					<line class="st3" x1="-279.3" y1="-2.6" x2="-279.3" y2="-4.7"/>
					<line class="st3" x1="-287.7" y1="17.8" x2="-289.2" y2="19.3"/>
					<line class="st3" x1="-287.7" y1="0.8" x2="-289.2" y2="-0.7"/>
					<line class="st3" x1="-291.3" y1="9.5" x2="-293.3" y2="9.5"/>
				</g>
				<line class="st7" x1="-270.8" y1="17.8" x2="-269.3" y2="19.3"/>
				<line class="st7" x1="-270.8" y1="0.8" x2="-269.3" y2="-0.7"/>
				<line class="st7" x1="-267.2" y1="9.5" x2="-265.2" y2="9.5"/>
			</g>
			<g class="st21">
				<path class="st10" d="M-274.6,8.9c0-2.6-2.1-4.7-4.7-4.7c-2.6,0-4.7,2.1-4.7,4.7c0,5.1,3.5,5.7,3.5,7.3v2c0,0.7-0.1,1.3,0.4,1.6
					c0.1,0.4,1.7,0.4,1.7,0c0.4-0.4,0.4-0.9,0.4-1.6v-2C-278,14.7-274.6,13.9-274.6,8.9z"/>
				<rect x="-279.3" y="21.1" class="st10" width="0" height="0"/>
			</g>
			<g class="st15">
				<g>
					<line class="st3" x1="-279.3" y1="-2.6" x2="-279.3" y2="-4.7"/>
				</g>
				<g>
					<line class="st3" x1="-289.2" y1="3" x2="-291" y2="2"/>
				</g>
				<g>
					<line class="st3" x1="-289.1" y1="14.5" x2="-290.9" y2="15.5"/>
				</g>
				<g>
					<line class="st3" x1="-269.3" y1="3" x2="-267.6" y2="2"/>
				</g>
				<g>
					<line class="st3" x1="-269.4" y1="14.5" x2="-267.6" y2="15.5"/>
				</g>
				<path class="st5" d="M-274.4,8.9c0,3.3-2.9,7.6-4.7,7.6s-4.7-4-4.7-7.6c0-2.6,2.1-4.7,4.7-4.7C-276.5,4.2-274.4,6.3-274.4,8.9z"
					/>
				<line class="st6" x1="-279.3" y1="12.1" x2="-279.3" y2="20.5"/>
			</g>
		</g>
	</g>
</g>
<g id="XMLID_4_">
	<g>
		<g id="detail-info_9_">
			<g class="st21">
				<path class="st20" d="M-313.1,9.7c0,10.6-8.6,19.2-19.2,19.2c-10.6,0-19.2-8.6-19.2-19.2c0-10.6,8.6-19.2,19.2-19.2
					C-321.7-9.5-313.1-0.9-313.1,9.7z"/>
				<rect x="-332.3" y="21.6" class="st1" width="0" height="0"/>
				<path class="st8" d="M-339.1,3c0-3.8,3-6.8,6.8-6.8c3.8,0,6.8,3,6.8,6.8c0,3.8-3.3,7.3-6.8,8.9v1.5"/>
			</g>
			<g class="st21">
				<line class="st7" x1="-332.3" y1="12.6" x2="-332.3" y2="8.5"/>
				<line class="st7" x1="-332.2" y1="8.5" x2="-335.4" y2="5.3"/>
				<line class="st7" x1="-332.3" y1="8.5" x2="-329.1" y2="5.3"/>
			</g>
			<g class="st21">
				<g class="st17">
					<line class="st3" x1="-332.3" y1="-2.6" x2="-332.3" y2="-4.7"/>
					<line class="st3" x1="-340.7" y1="17.8" x2="-342.2" y2="19.3"/>
					<line class="st3" x1="-340.7" y1="0.8" x2="-342.2" y2="-0.7"/>
					<line class="st3" x1="-344.3" y1="9.5" x2="-346.3" y2="9.5"/>
				</g>
				<line class="st7" x1="-323.8" y1="17.8" x2="-322.3" y2="19.3"/>
				<line class="st7" x1="-323.8" y1="0.8" x2="-322.3" y2="-0.7"/>
				<line class="st7" x1="-320.2" y1="9.5" x2="-318.2" y2="9.5"/>
			</g>
			<g class="st21">
				<path class="st10" d="M-327.6,8.9c0-2.6-2.1-4.7-4.7-4.7c-2.6,0-4.7,2.1-4.7,4.7c0,5.1,3.5,5.7,3.5,7.3v2c0,0.7-0.1,1.3,0.4,1.6
					c0.1,0.4,1.7,0.4,1.7,0c0.4-0.4,0.4-0.9,0.4-1.6v-2C-331,14.7-327.6,13.9-327.6,8.9z"/>
				<rect x="-332.3" y="21.1" class="st10" width="0" height="0"/>
			</g>
			<g>
				<g>
					<line class="st3" x1="-332.3" y1="-2.6" x2="-332.3" y2="-4.7"/>
				</g>
				<g>
					<line class="st3" x1="-342.2" y1="3" x2="-344" y2="2"/>
				</g>
				<g>
					<line class="st3" x1="-342.1" y1="14.5" x2="-343.9" y2="15.5"/>
				</g>
				<g>
					<line class="st3" x1="-322.3" y1="3" x2="-320.6" y2="2"/>
				</g>
				<g>
					<line class="st3" x1="-322.4" y1="14.5" x2="-320.6" y2="15.5"/>
				</g>
				<path class="st5" d="M-327.4,8.9c0,3.3-2.9,7.6-4.7,7.6s-4.7-4-4.7-7.6c0-2.6,2.1-4.7,4.7-4.7C-329.5,4.2-327.4,6.3-327.4,8.9z"
					/>
				<line class="st6" x1="-332.3" y1="12.1" x2="-332.3" y2="20.5"/>
			</g>
		</g>
	</g>
</g>
<g>
	<g>
		<line class="st11" x1="-479.1" y1="76.8" x2="-479.1" y2="106.7"/>
		<line class="st11" x1="-494.1" y1="91.7" x2="-464.2" y2="91.7"/>
	</g>
</g>
<g>
	<g>
		<line class="st11" x1="-407.9" y1="91.7" x2="-364.3" y2="91.7"/>
	</g>
</g>
<g id="XMLID_32_">
	<g>
		<line class="st11" x1="-203.1" y1="74.1" x2="-203.1" y2="95.4"/>
		<line class="st11" x1="-212.7" y1="108.1" x2="-193.5" y2="108.1"/>
		<polyline class="st11" points="-194.3,88.2 -203.1,95.4 -211.9,88.2 		"/>
	</g>
</g>
<g id="XMLID_7_">
	<polygon class="st4" points="-304.4,74.6 -273.5,91.6 -304.4,108.7 	"/>
</g>
<g>
	<circle class="st14" cx="-581.7" cy="-182" r="135"/>
	<g>
		<g>
			<line class="st18" x1="-544.2" y1="-220.6" x2="-621.4" y2="-143.4"/>
			<line class="st18" x1="-621.4" y1="-220.6" x2="-544.2" y2="-143.4"/>
		</g>
	</g>
</g>
<g>
	<circle class="st14" cx="-278.7" cy="-182" r="135"/>
	<g>
		<g>
			<line class="st13" x1="-277.2" y1="-153.8" x2="-277.2" y2="-176.9"/>
			<line class="st13" x1="-277.1" y1="-176.8" x2="-290.3" y2="-190"/>
			<line class="st13" x1="-277.2" y1="-176.9" x2="-264" y2="-190"/>
		</g>
		<g class="st21">
			<g class="st17">
				<line class="st13" x1="-277.2" y1="-262.1" x2="-277.2" y2="-273"/>
				<line class="st13" x1="-322.4" y1="-153" x2="-330.2" y2="-145.3"/>
				<line class="st13" x1="-322.4" y1="-243.7" x2="-330.1" y2="-251.5"/>
				<line class="st13" x1="-341.3" y1="-197.6" x2="-352.2" y2="-197.6"/>
			</g>
			<line class="st2" x1="-232" y1="-153" x2="-224.3" y2="-145.3"/>
			<line class="st2" x1="-232.1" y1="-243.7" x2="-224.4" y2="-251.5"/>
			<line class="st2" x1="-213.2" y1="-197.6" x2="-202.2" y2="-197.6"/>
		</g>
		<line class="st13" x1="-290.9" y1="-153.8" x2="-263.5" y2="-153.8"/>
		<line class="st13" x1="-290.9" y1="-141.5" x2="-263.5" y2="-141.5"/>
		<line class="st13" x1="-290.8" y1="-128.9" x2="-263.7" y2="-128.9"/>
		<path class="st13" d="M-263.5-131.1c0,7.6-5.3,13.7-13.7,13.7c-8.4,0-13.7-6.2-13.7-13.7l0-19c0-11.5-23.8-19.4-23.8-48.9
			c0-20.5,16.8-37.6,37.5-37.6c20.7,0,37.5,17.8,37.5,37.6c0,29.4-23.8,38-23.8,48.9V-131.1z"/>
		<path class="st13" d="M-267.4-219.6c5.1,2.5,9.2,6.6,11.8,11.6"/>
	</g>
</g>
<g>
	<g>
		<path class="st14" d="M170.4-182.2c0,14.6-14,26.7-18.3,39.9c-4.4,13.6-0.4,31.7-8.6,43c-8.3,11.5-26.8,13.2-38.3,21.5
			C93.9-69.6,86.6-52.5,73-48.1c-13.1,4.3-29-5.1-43.6-5.1c-14.6,0-30.4,9.4-43.6,5.1c-13.6-4.4-20.9-21.5-32.2-29.8
			c-11.4-8.3-29.9-10-38.3-21.5c-8.2-11.3-4.2-29.4-8.6-43c-4.3-13.1-18.3-25.3-18.3-39.9s14-26.7,18.3-39.9
			c4.4-13.6,0.4-31.7,8.6-43c8.3-11.5,26.8-13.2,38.3-21.5c11.3-8.2,18.6-25.3,32.2-29.8c13.1-4.3,29,5.1,43.6,5.1
			c14.6,0,30.4-9.4,43.6-5.1c13.6,4.4,20.9,21.5,32.2,29.8c11.5,8.3,29.9,10,38.3,21.5c8.2,11.3,4.2,29.4,8.6,43
			C156.4-208.9,170.4-196.8,170.4-182.2z"/>
	</g>
	<g>
		<line class="st0" x1="80.2" y1="-210.7" x2="13.5" y2="-144"/>
		<line class="st0" x1="-19.8" y1="-177.4" x2="13.6" y2="-144.1"/>
	</g>
</g>
<g>
	<line class="st12" x1="-182.9" y1="21.2" x2="-160.5" y2="-1.2"/>
	<line class="st12" x1="-160.5" y1="21.2" x2="-182.9" y2="-1.2"/>
</g>
<g>
	<line class="st11" x1="-376" y1="9.4" x2="-396.9" y2="9.4"/>
</g>
<g>
	<line class="st11" x1="-495.8" y1="-2.5" x2="-495.8" y2="10.8"/>
	<line class="st11" x1="-501.8" y1="18.7" x2="-489.8" y2="18.7"/>
	<polyline class="st11" points="-490.3,6.3 -495.8,10.8 -501.3,6.3 	"/>
</g>
<g>
	<line class="st11" x1="-47.8" y1="18.9" x2="-47.8" y2="-0.5"/>
	<g id="XMLID_1_">
		<polygon class="st4" points="-67.8,1.4 -53.6,9.2 -67.8,17.1 		"/>
	</g>
</g>
<g>
	<g>
		<path class="st9" d="M-421.4,8.7c0,11-9,20-20,20c-11,0-20-9-20-20s9-20,20-20C-430.4-11.3-421.4-2.3-421.4,8.7z"/>
		<line class="st11" x1="-446.4" y1="19.2" x2="-436.4" y2="19.2"/>
		<polyline class="st11" points="-446,7.9 -441.4,7.9 -441.4,19.2 		"/>
	</g>
	<circle class="st16" cx="-441.4" cy="-0.9" r="2.9"/>
</g>
<polyline class="st23" points="-102.7,5.3 -114.7,17.3 -126.6,5.3 "/>
<g>
	<g>
		<g>
			<g>
				<g>
					<g>
						<g>
							<polygon class="st19" points="-105.6,126.5 -77.6,117.4 -49.3,126.5 -77.6,64.4 							"/>
						</g>
					</g>
				</g>
			</g>
		</g>
	</g>
	<g>
		<g>
			<g>
				<g>
					<g>
						<g>
							<polygon class="st4" points="-90.5,111.8 -77.5,107.6 -64.5,111.8 -77.5,83.1 							"/>
						</g>
					</g>
				</g>
			</g>
		</g>
	</g>
</g>
<polygon class="st24" points="2,12 12,2 22,12 "/>
</svg>
