<svg id="Ebene_1" data-name="Ebene 1" xmlns="http://www.w3.org/2000/svg" viewBox="0 0 70 96"><defs><style>.cls-1{fill:#f3b100;}.cls-2{fill:none;stroke:#fff;stroke-linecap:round;stroke-linejoin:round;stroke-width:5px;}</style></defs><title>icon</title><path class="cls-1" d="M34.89,4.11C19.43,4.11,3.77,15.06,3.77,36c0,9.45,4.67,21.47,13.89,35.73A193.6,193.6,0,0,0,31.17,90.14,5.07,5.07,0,0,0,34.88,92h0a5.1,5.1,0,0,0,3.72-1.84A181.64,181.64,0,0,0,52,72C61.14,57.81,65.77,45.69,65.77,36,65.77,17.26,53.07,4.11,34.89,4.11Z"/><path class="cls-2" d="M46.69,33.88A11.45,11.45,0,1,1,35.24,22.43,11.45,11.45,0,0,1,46.69,33.88Z"/><line class="cls-2" x1="35.24" y1="45.32" x2="35.24" y2="68.01"/><line class="cls-2" x1="35.24" y1="54.12" x2="27.08" y2="54.13"/><line class="cls-2" x1="35.24" y1="63.29" x2="29.37" y2="63.29"/></svg>