<svg xmlns="http://www.w3.org/2000/svg" xmlns:xlink="http://www.w3.org/1999/xlink" width="37" height="51" viewBox="0 0 37 51">
  <defs>
    <style>
      .cls-1 {
        fill: #08bb27;
      }

      .cls-2, .cls-3 {
        fill: none;
        stroke-linecap: round;
        stroke-linejoin: round;
      }

      .cls-2 {
        stroke: #fff;
        stroke-width: 3px;
      }

      .cls-3 {
        stroke: #08bb27;
        stroke-width: 5px;
      }

      .cls-4 {
        filter: url(#Pfad_177);
      }
    </style>
    <filter id="Pfad_177" x="0" y="0" width="37" height="51" filterUnits="userSpaceOnUse">
      <feOffset dy="1" input="SourceAlpha"/>
      <feGaussianBlur stdDeviation="0.5" result="blur"/>
      <feFlood flood-opacity="0.549"/>
      <feComposite operator="in" in2="blur"/>
      <feComposite in="SourceGraphic"/>
    </filter>
  </defs>
  <g id="marker_-_task" data-name="marker - task" transform="translate(1.5 0.5)">
    <g class="cls-4" transform="matrix(1, 0, 0, 1, -1.5, -0.5)">
      <path id="Pfad_177-2" data-name="Pfad 177" class="cls-1" d="M-717.081,1567.17c-8.481,0-17.066,6-17.066,17.472,0,5.18,2.562,11.769,7.615,19.584a98.973,98.973,0,0,0,7.408,10.009,2.7,2.7,0,0,0,2.038.935h.005a2.7,2.7,0,0,0,2.037-.927,94.819,94.819,0,0,0,7.35-9.917c5.008-7.77,7.547-14.392,7.547-19.684C-700.147,1574.354-707.11,1567.17-717.081,1567.17Z" transform="translate(735.65 -1566.67)"/>
    </g>
    <g id="Gruppe_2961" data-name="Gruppe 2961" transform="translate(9 14.017)">
      <path id="Pfad_3625" data-name="Pfad 3625" class="cls-2" d="M10.769,0,3.389,7.38-.175,3.816" transform="translate(5.875)"/>
      <path id="Pfad_3624" data-name="Pfad 3624" class="cls-3" d="M10.769,0,3.389,7.38-.175,3.816" transform="translate(0.175)"/>
      <rect id="Rechteck_2133" data-name="Rechteck 2133" class="cls-1" width="2.661" height="2.661" transform="translate(3.105 1.774)"/>
      <path id="Pfad_3623" data-name="Pfad 3623" class="cls-2" d="M10.769,0,3.389,7.38-.175,3.816" transform="translate(0.175)"/>
    </g>
  </g>
</svg>
