<svg xmlns="http://www.w3.org/2000/svg" xmlns:xlink="http://www.w3.org/1999/xlink" width="91.68" height="94.5" viewBox="0 0 91.68 94.5"><defs><style>.cls-1{fill:#b4391d;}</style><symbol id="task-pirate" data-name="task-pirate" viewBox="0 0 91.68 94.5"><path class="cls-1" d="M62.16,15.4c.32.38,1,.49.62,1.07-1.19,1.66-3.48,1.46-4.66,3.12l.41.69c-1.38.76-2.88,1.47-4.36,2.27q-3.29,3.09-6.39,6.33c.25.17.45.35.3.62a26.56,26.56,0,0,1-3.67,3l-.5.62a1,1,0,0,0,.19.66,20.53,20.53,0,0,1-1.77,1.29C36.78,42,31.3,49.22,25.25,56.91a37.08,37.08,0,0,1-3.35,5.32c-2,2.14-5.13,4.18-7.32,6,2.18,1.84-2.12,7.41.79,8.65-1.46,1.19-3.66,3-3.24,3.68,1.24,2.09,1.95,5.12-.88,9.49C10,91.57,7.06,92.79,6.86,93.61c-.32,1.29,3-.4,2.71.89C21.12,85.57,31,75.57,42.09,66c2.94-4.23,28-26.77,34.86-32l.57-.55c3.66-3,7.84-6.91,10.15-10.34.94-1.71,1.82-3.54,2.71-5.34-1,.21-1.87.39-2.69.5,1.46-1.2,2.93-2.39,3.14-3.25,2.24-3.55-.4-3.12-2.83-3.54-1.39.09-1.1-1.86-3-1.36l2.44-2c-.41-.7-2.65,2.85-2.85,1.29,1.11-.56,1.81-1.82,2.79-2.62-1-.53-3.55,2.56-4.11,1.63.35-.63,3.62-1.23,2.93-2.39-.14-.23-1.11.56-1.6,1,2.65-2.85,3.43-5.21-.19-4,.95-.78,2.63-1.5,3.49-2.49,0,0,0,0,0,0-.52.4-1.54.92-2,1.3L87.61.34,87,.18A7,7,0,0,0,85.48,1L86.62.12A10.07,10.07,0,0,0,84.86,0c-1.88.5-4,.65-4.69,1.25C74,5.78,68,10.47,62.16,15.4Z"/><path class="cls-1" d="M70.78,54.9c-.38.31-.52.9-1,.65-1.47-.95-1.14-3.07-2.62-4l-.68.44c-.62-1.21-1.2-2.52-1.84-3.81-1.8-1.85-3.64-3.63-5.54-5.36-.17.24-.35.45-.6.33A19.78,19.78,0,0,1,55.87,40l-.55-.41a1.07,1.07,0,0,0-.63.23A17,17,0,0,1,53.6,38.3c-6.14-4.53-12.56-9-19.38-13.89a27.92,27.92,0,0,1-4.78-2.65c-1.87-1.65-3.59-4.36-5.13-6.22-1.85,2.15-6.8-1.34-8.15,1.43-1-1.24-2.56-3.11-3.24-2.68-2,1.31-4.92,2.22-8.84,0-1.36-1-2.32-3.62-3.08-3.74-1.19-.19.19,2.74-1,2.56C7.64,23,16.38,31.23,24.7,40.61,28.47,43,48,64.1,52.53,70c.15.16.31.32.47.47,2.56,3.12,6,6.63,9,8.47,1.54.73,3.2,1.38,4.83,2-.14-.86-.25-1.68-.3-2.42,1,1.24,2,2.49,2.85,2.61,3.18,1.77,2.94-.62,3.49-2.88,0-1.27,1.81-1.17,1.46-2.85.68.83,1,1.24,1.71,2.08.68-.44-2.5-2.21-1-2.52.46,1,1.59,1.52,2.28,2.35.56-1-2.17-3-1.27-3.63.57.26.92,3.21,2.05,2.49.23-.15-.46-1-.8-1.39,2.51,2.2,4.66,2.72,3.74-.5.67.81,1.23,2.29,2.1,3,0,0,0,0,0,0-.33-.44-.76-1.33-1.09-1.73L83.29,77c.07-.2.13-.4.19-.61a5,5,0,0,0-.72-1.28l.8,1a9.44,9.44,0,0,0,.22-1.62c-.35-1.68-.36-3.58-.88-4.2C79.05,65,75,59.81,70.78,54.9Z"/></symbol></defs><title>marker-task-open</title><g id="Ebene_2" data-name="Ebene 2"><g id="final-design"><use width="91.68" height="94.5" xlink:href="#task-pirate"/></g></g></svg>