<?xml version="1.0" encoding="utf-8"?>
<!-- Generator: Adobe Illustrator 22.0.1, SVG Export Plug-In . SVG Version: 6.00 Build 0)  -->
<svg version="1.1" id="Ebene_1" xmlns="http://www.w3.org/2000/svg" xmlns:xlink="http://www.w3.org/1999/xlink" x="0px" y="0px"
	 viewBox="0 0 284.4 319.1" style="enable-background:new 0 0 284.4 319.1;" xml:space="preserve">
<style type="text/css">
	.st0{opacity:0.9;}
	.st1{fill:#B7702E;}
	.st2{fill:#333333;}
	.st3{clip-path:url(#SVGID_2_);}
	.st4{fill:#45D800;}
	.st5{opacity:0.6;fill:#FFFFFF;enable-background:new    ;}
	.st6{fill:#22AD00;}
	.st7{fill:#FFFFFF;}
	.st8{fill:#32A4DD;}
	.st9{fill:#AA2000;}
	.st10{fill:#F7B531;}
	.st11{fill:#AC7B1E;}
	.st12{fill:#151515;}
	.st13{clip-path:url(#SVGID_4_);}
	.st14{fill:none;stroke:#F7B531;stroke-width:20.93;stroke-miterlimit:10;}
	.st15{fill:#FFFFFF;stroke:#FFFFFF;stroke-width:1.13;stroke-linecap:round;stroke-miterlimit:10;}
	.st16{fill:#FFFFFF;stroke:#FFFFFF;stroke-width:1.1;stroke-linecap:round;stroke-miterlimit:10;}
</style>
<title>modal-intro</title>
<g>
	<g>
		<g>
			<g id="_Gruppe_">
				<g class="st0">
					<circle class="st1" cx="142.2" cy="166.3" r="142.2"/>
				</g>
				<circle class="st2" cx="142.2" cy="176.8" r="142.2"/>
			</g>
			<circle class="st2" cx="142.2" cy="176.8" r="142.2"/>
			<g id="Ebene_2_1_">
				<g>
					<defs>
						<circle id="SVGID_1_" cx="142.2" cy="176.8" r="142.2"/>
					</defs>
					<clipPath id="SVGID_2_">
						<use xlink:href="#SVGID_1_"  style="overflow:visible;"/>
					</clipPath>
					<g id="final-design" class="st3">
						<path id="_Zuschneidungspfad_3" class="st4" d="M189,180.8c-6.8,10.7-7.3,29-18.3,28l0,0c21.3,16.4,32.5,54.7,16.6,103.7
							c-29,10.3-83.7,10.3-125.2-17C30.9,276,7.7,245.9-3.2,210.7c7.4-9.6,42.1-30.4,55.4-28.4c33.3-24.6,14-75.9,72.1-89.4
							c49.4-11.4,79.6,8.2,100,57.6C232.7,171.2,199.5,164.2,189,180.8z"/>
						<g>
							<g>
								<path class="st5" d="M106.5,281.5c-8.2,41.8,3.1,87,47.1,101.1c42.8,13.7,20.2-29.6,33.7-70c16-48,5.5-100.6-27-100.8
									C131.1,211.5,115.9,234,106.5,281.5z"/>
								<path class="st6" d="M55.4,182.7c-38.3-6.8-100.8,62.5-100.8,62.5s65,67.1,101.5,66.3c1.1,10.4,3.6,19,7.4,19.5
									c7.5,1.1,17.5-28.2,19.9-44.2c0.3-2.1,0.5-4.3,0.6-6.5c11.2,4.1,13.2-37.6,11.6-53.6C94.1,208.7,82,187.3,55.4,182.7z"/>
							</g>
							<path class="st4" d="M84.3,134c-21.5,1.9-42.1,20.6-41.6,22.7c0,0,6.3,0.8,9.9,3.7s3.6,8.5,3.6,8.5l31.9-16L84.3,134z"/>
							<path class="st4" d="M84.4,153.7c-20.4-4.5-42,11.2-41.7,14.9c0,0,5.7,1.7,8.6,4.9s2.1,8.3,2.1,8.3"/>
							<path class="st7" d="M135.7,126.2c8.7-0.8,16.6,8.4,17.6,19.3s-5.1,19.4-13.8,20.3s-16.6-6.4-17.6-17.3
								S127,127.1,135.7,126.2z"/>
							<circle class="st8" cx="138.5" cy="144.2" r="6.8"/>
							<circle class="st7" cx="142.8" cy="138.3" r="4.2"/>
							<path d="M157.9,126.4c-0.9,0.9-1.9,1.6-3,2.4c-1,0.7-2.1,1.2-3.2,1.6c-2.3,0.8-4.8,1.1-7.2,1c-4.1-0.1-8.1-1.1-11.7-2.9
								c-0.4-0.2-0.9-0.4-1.3-0.7l-1.4-0.8c-1-0.5-1.8-1.2-2.7-1.8s-1.7-1.3-2.5-2s-1.5-1.5-2.2-2.3c-1.4-1.6-2.7-3.4-3.7-5.3
								c-1.1-2.1-1.9-4.3-2.4-6.6l0.6-0.8c1.5,1.1,3.1,2.1,4.6,3.1s3.2,2,4.8,2.9c1.6,0.9,3.3,1.8,4.9,2.6s3.3,1.6,5.1,2.3
								c3.5,1.4,6.9,2.9,10.4,4.1c1.7,0.6,3.5,1.1,5.3,1.4s3.7,0.5,5.6,0.8L157.9,126.4z"/>
							<path class="st4" d="M159,167.6c-1.5,0.2-9.4-6.7-22.4-6.3c-9.2,0.3-18.5,6.2-18.5,6.2"/>
							<path class="st9" d="M207.1,210.9c-1.1,2.4-7.5,3.7-14.3,0.2s-11.2-10.5-10.2-12.8s7.3,0.8,14,4.3S208.2,208.6,207.1,210.9z"
								/>
							<path class="st10" d="M153.6,184.6c4-4.9,15.9-7.8,15.8-26.4c-0.1-17.1,10.6-26.2,27.7-30c10.9-2.4,25.1,2.6,33.3,8.6
								c13.4,10,26.1,25.6,23.5,60.8c-0.2,2.4-2,3.6-4.1,2.6c-7-3.4-9.6-14.5-25-11.6c-8.1,1.5-22.4,10.8-35.1,4.7
								c-2.9,9,1.6,16.4,7.5,21.6c4.8,4,10.1,7.4,15.8,10c1,0.5,1.5,1.8,0.9,2.8c-0.3,0.5-0.7,0.9-1.3,1.1
								c-16.4,3.7-33.3,1.5-45.3-6.6C145.3,207.3,149.1,190.1,153.6,184.6z"/>
							
								<ellipse transform="matrix(0.7537 -0.6572 0.6572 0.7537 -51.5119 158.9613)" class="st11" cx="186.3" cy="148.2" rx="7" ry="3.4"/>
							<g>
								<path class="st6" d="M101,164.1c2.1-0.3,4.2-0.4,6.3-0.1c2,0.2,4,0.7,5.9,1.2c1.9,0.6,3.8,1.3,5.6,2.3
									c1.9,1,3.6,2.2,5.1,3.6c-2.1,0.4-4.2,0.4-6.3,0.1c-2-0.2-4-0.7-5.9-1.2c-1.9-0.6-3.8-1.3-5.6-2.3
									C104.2,166.8,102.5,165.5,101,164.1z"/>
								<path class="st6" d="M110.9,178.1c-0.7-1.8-1.1-3.6-1.2-5.5c-0.1-1.8,0-3.6,0.2-5.3c0.2-1.8,0.7-3.5,1.3-5.2
									c0.6-1.8,1.5-3.5,2.7-5c0.7,1.8,1.1,3.6,1.2,5.5c0.1,1.8,0,3.6-0.2,5.3c-0.3,1.8-0.7,3.5-1.3,5.2
									C113,174.9,112.1,176.6,110.9,178.1z"/>
							</g>
						</g>
					</g>
				</g>
			</g>
		</g>
	</g>
</g>
<path id="_Zuschneidungspfad_4" class="st12" d="M185.7,0c-6.9,20.6-20.5,29.5-34.3,30.9c-17.5,1.8-34-8.4-40.1-24.9
	C84,17.9,54.3,40.2,43,50.1c-4.2,4-5.8,10-4,15.5c4.9,15.5,20.7,43.9,51.7,45.6c0,0,32-17.8,53.7-19.1c21.9-1.3,49.9,11.7,49.9,11.7
	c44.1-5.3,61.5-46.8,58.1-53.4C252.3,50.5,234.8,18.1,185.7,0z"/>
<g>
	<g>
		<defs>
			<path id="SVGID_3_" d="M185.7,0c-6.9,20.6-20.5,29.5-34.3,30.9c-17.5,1.8-34-8.4-40.1-24.9C84,17.9,54.3,40.2,43,50.1
				c-4.2,4-5.8,10-4,15.5c4.9,15.5,20.7,43.9,51.7,45.6c0,0,32-17.8,53.7-19.1c21.9-1.3,49.9,11.7,49.9,11.7
				c44.1-5.3,61.5-46.8,58.1-53.4C252.3,50.5,234.8,18.1,185.7,0z"/>
		</defs>
		<clipPath id="SVGID_4_">
			<use xlink:href="#SVGID_3_"  style="overflow:visible;"/>
		</clipPath>
		<g class="st13">
			<path id="_Pfad_" class="st14" d="M259.3,55.1c0,0-24.5-37.1-73.6-55.1c-6.9,20.6-20.5,29.5-34.3,30.9
				c-17.5,1.8-34-8.4-40.1-24.9C84,17.9,35.3,55.6,24,65.5"/>
			<path class="st15" d="M142.1,70.8c-0.9-1.7-2.7-2.5-4.5-2c-2.3,0.6-3.6,3-3,5.3c0.4,2.3,2.6,3.8,4.9,3.4l0.1,0"/>
			<path class="st15" d="M138.3,77.6c-0.3,1.4,0.1,2.9,1,4c1.4,1.5,3.7,1.6,5.1,0.2c0.1-0.1,0.2-0.2,0.3-0.2
				c1.2-1.4,1.4-3.3,0.5-4.8"/>
			<path class="st15" d="M166.4,61.5c0.9,1.5,2.6,2.2,4.3,1.7c2.2-0.7,3.3-3,2.6-5.1c-0.5-2.1-2.6-3.4-4.8-3l-0.1,0"/>
			<path class="st15" d="M171.1,55.6c0.4-1.5,0-3.2-1-4.4c-1.5-1.6-4-1.8-5.6-0.4c-0.1,0.1-0.2,0.1-0.2,0.2
				c-1.3,1.5-1.6,3.6-0.7,5.2"/>
			<polygon class="st15" points="142.5,77.7 149.4,72.1 168.1,60.5 168.1,56.3 165.7,55 157.7,61.8 140.1,72.2 140.2,76.8 			"/>
			<path class="st16" d="M161.1,76.6c-1,1.3-1,3.2-0.1,4.6c1.2,1.8,3.6,2.3,5.4,1.1c1.7-1.2,2.2-3.5,1.1-5.3c0,0,0-0.1-0.1-0.1"/>
			<path class="st16" d="M168.1,78c1.3-0.1,2.4-0.9,2.9-2.1c0.7-1.8-0.1-3.9-1.9-4.7c-1.5-0.7-3.2-0.3-4.2,0.9"/>
			<path class="st16" d="M146.1,56.7c0.9-1.3,0.9-3-0.1-4.3c-1.2-1.6-3.5-2-5.1-0.8s-1.9,3.4-0.7,5c0,0,0,0.1,0.1,0.1"/>
			<path class="st16" d="M139.6,54.3c-1.4,0.1-2.6,0.9-3.2,2.2c-0.9,2,0,4.3,1.9,5.2c1.6,0.8,3.4,0.5,4.6-0.8"/>
			<polygon class="st16" points="166.7,74.3 160.9,68.5 144.6,55.4 141.1,56.6 141,59.1 149.4,64.2 163,78 166.8,76.5 			"/>
		</g>
	</g>
</g>
</svg>
