<?xml version="1.0" encoding="utf-8"?>
<!-- Generator: Adobe Illustrator 22.0.1, SVG Export Plug-In . SVG Version: 6.00 Build 0)  -->
<svg version="1.1" id="Ebene_1" xmlns="http://www.w3.org/2000/svg" xmlns:xlink="http://www.w3.org/1999/xlink" x="0px" y="0px"
	 viewBox="0 0 270 280" style="enable-background:new 0 0 270 280;" xml:space="preserve">
<style type="text/css">
	.st0{opacity:0.9;}
	.st1{fill:#B7702E;}
	.st2{fill:#33CC00;}
	.st3{fill:#FFFFFF;}
</style>
<title>modal-rating-perfect</title>
<g>
	<g id="Ebene_2_1_">
		<g id="final-design">
			<g class="st0">
				<circle class="st1" cx="135" cy="135" r="135"/>
			</g>
			<circle class="st2" cx="135" cy="145" r="135"/>
			<path class="st3" d="M122.9,100.5l-4.6-0.1l-12.7-0.2l-11.2-0.1c-6,9.5-12.2,19.2-18.5,29.2l13.3,17.3c13.1,17.4,28.6,36.8,42,54
				l-55.2-71.4c3.1-4.8,6.2-9.7,9.3-14.5l5.1-8l2.6-4l1.2-1.8l0.4-0.6l23.6,0.5c-5,0.4-11,0.8-18,0.8c-2.2,0-6,0-5-0.1l-17.5,27.5
				l0.1,0.1l0,0l0.2,0.2l0.7,0.9l-0.6,0.4c10.1,12.6,19.8,25,29.3,37.4l26.2,34c1.4-1.7,2.7-3.4,4.1-5.2l6.5-8.3
				c4.3-5.6,8.7-11.2,13-17c-1.1,1.2-0.6,0.4-0.5,0c0.1-0.1,0.1-0.2,0.2-0.3c-0.1,0.1-0.1,0.2-0.2,0.3c0.1-0.3-0.1-0.2-1.9,2.1
				c1.8-2.3,2-2.4,1.9-2.1l-23.1,29.5l-25.4-32.5l-28.5-36.9l28.5,36.6c8.4,10.8,16.9,21.6,25.3,32.4l56.1-71.8l-9.7-15.6l-6.6-10.5
				l-0.5-0.9l-0.3-0.5l-0.1-0.2l0,0c0-0.1,0-0.2-0.1-0.3l-0.2-0.1h-0.7h-1l-4.1-0.1l-8.2-0.2c-5.5-0.1-11-0.1-16.5-0.1
				c3.1-0.9-9.3-2.7,15.5-2.3v-0.7c-24.9-0.9-34.2-3.4-9.3-4.1c4.1-0.1,8.4-0.2,12.9-0.2l6.8-0.1h9.4l22.9,36.6l-12.6,16l-10.7,13.6
				l-19.7,25.4l-9.9,12.6l-13.4,16.9l-6.3-8.2l-3.4-4.5c-8.6-11.4-17.6-23.1-26.7-34.9l-28.5-37.1l3.7-5.7l2.4-3.6l4.7-7.2
				c1.6-2.4,3.3-5.2,5.2-8.2c2.2-3.5,4.4-7.2,6.7-10.8h8h5.6c3.5,0,6.3,0.1,8,0.2c4.5,0.3,4.6,0.6,4,1.1L92,95.4l-21,33.3l-0.6,0.9
				c7.8,10.1,15.5,20.2,23.2,30.3l22.1,29.1c-7.2-9.6-14.5-19.2-22-29c-3.7-4.9-7.5-9.7-11.2-14.6l-12.2-15.8l0.6-0.9L92,95.6
				l24.1,0.2c-0.7,0.4-1.4,0.8-0.2,1.1h9.3c12.4,0.9,9.3,2.2,3.1,3.1L122.9,100.5z"/>
			<path class="st3" d="M151,130.2c-0.1-0.2-0.1-0.3-0.2-0.5c-1.1-2.8-2.9-5.3-4.3-8.3c-1.1-2.2-2.3-4.3-3.7-6.3
				c2.6,4.8,5.8,9.7,7.6,14.8c-0.7-0.2-1.3-0.6-1.7-1.2c-0.8-1.6-1.6-3.2-2.5-4.7l0.6-0.4c-3.1-3.9-4.4-8.6-7.8-12.4
				c0,0.2-0.2,0.2-0.3,0.2l0,0l0,0c-0.1,0-0.2,0.1,0,0.3c-0.2-0.3-0.1-0.3,0-0.3c2.7,4,5.1,8.1,7.3,12.4
				c-3.8-6.6-7.9-12.6-12.1-19.2l-0.7-1.1c-0.3-1.3-0.8-2.6-1.5-3.8c0.9-0.2,1.8-2.3,2.9,0.2l0.6-0.4c-0.6-2.7,1-4.9,3-3
				c2.2,2.2,3.7,5.9,6,8.8c1.6,2.1,3.1,4.4,4.2,6.8c1.5,3.4,3.8,6.7,5.1,10.1c0.6,1.2,2.2,2.9,2.1,3.8c0,0.4-0.3,0.8-0.7,0.9
				c-1.1-1.9-2.2-3.7-3.3-5.6c-1.2-2.3-2.4-4.7-3.5-7.1c1,2.5,2.2,4.8,3.5,7.1c1,1.9,2,3.8,3,5.7c-0.4,0.1-0.7,0.3-0.9,0.6l0.5,0.8
				c-0.1,1.6-1.3,2-2.4,1.9L151,130.2z"/>
			<path class="st3" d="M97,96.6c0,0.2,0.1,0.3,0.2,0.5c1.1,2.8,2.9,5.2,4.3,8.3c1.1,2.2,2.3,4.3,3.7,6.3c-2.6-4.8-5.8-9.7-7.6-14.8
				c0.7,0.2,1.3,0.6,1.7,1.2c0.8,1.6,1.7,3.2,2.5,4.7l-0.6,0.4c3.1,3.9,4.4,8.6,7.8,12.4c0-0.2,0.2-0.2,0.3-0.2l0,0l0,0
				c0.1,0,0.2-0.1,0-0.3c0.2,0.3,0.1,0.3,0,0.3c-2.7-4-5.1-8.1-7.3-12.4c3.8,6.6,7.9,12.6,12.1,19.2l0.7,1.1
				c0.3,1.3,0.8,2.6,1.5,3.8c-0.9,0.2-1.8,2.3-2.9-0.2l-0.6,0.4c0.7,2.7-1,4.9-3,3c-2.2-2.1-3.7-5.9-6-8.8c-1.6-2.1-3.1-4.4-4.2-6.8
				c-1.5-3.4-3.8-6.7-5.1-10.1c-0.6-1.2-2.2-2.9-2.1-3.8c0-0.5,0.3-0.8,0.7-0.9c1.1,1.9,2.2,3.7,3.3,5.6c1.2,2.3,2.4,4.7,3.6,7.1
				c-1-2.5-2.2-4.8-3.6-7.1c-1-1.9-2-3.8-3-5.7c0.4-0.1,0.7-0.3,1-0.6l-0.5-0.8c0.1-1.6,1.3-2,2.4-1.9C96.4,96.4,96.7,96.5,97,96.6z
				"/>
			<path class="st3" d="M111.3,126.8l0.4-0.3c2-2.2,3.5-4.9,5.6-7.5c1.5-1.9,2.8-4,4-6.1c-3.2,4.5-6.2,9.5-10.1,13.3
				c-0.1-0.7,0-1.4,0.4-2c1.1-1.4,2.1-2.9,3.1-4.3l0.6,0.4c2.2-4.5,5.9-7.7,7.8-12.4c-0.2,0.1-0.2-0.1-0.3-0.2l0,0l0,0
				c-0.1-0.1-0.2-0.1-0.3,0.2c0.2-0.3,0.2-0.2,0.3-0.2c-2.4,4.1-5.1,8.1-7.9,12c4.3-6.3,7.9-12.7,12.1-19.2c0.2-0.3,0.5-0.8,0.7-1.1
				c1.1-0.8,2-1.8,2.7-3c0.6,0.8,2.8,0.6,1.1,2.7l0.6,0.4c2.2-1.8,4.8-1.3,4,1.3c-1,2.9-3.7,5.9-5.4,9.2c-1.2,2.4-2.6,4.6-4.2,6.8
				c-2.4,2.8-4.4,6.3-6.9,9c-0.9,1-1.6,3.3-2.4,3.6c-0.4,0.2-0.9,0.1-1.1-0.2c1.2-1.8,2.4-3.7,3.6-5.4c1.6-2.1,3.2-4.2,4.9-6.3
				c-1.8,2-3.4,4.1-4.9,6.3c-1.3,1.7-2.6,3.5-3.8,5.2c-0.2-0.3-0.6-0.5-0.9-0.6l-0.5,0.9c-1.5,0.6-2.3-0.3-2.8-1.3
				C111.5,127.3,111.4,127.1,111.3,126.8z"/>
			<path class="st3" d="M176.3,100l-0.4,0.4c-2,2.2-3.5,4.9-5.6,7.5c-1.5,1.9-2.8,4-4,6.1c3.2-4.5,6.2-9.5,10-13.3
				c0.1,0.7,0,1.4-0.4,2c-1.1,1.4-2.1,2.9-3.1,4.3l-0.6-0.4c-2.2,4.5-5.9,7.7-7.8,12.4c0.2-0.1,0.2,0.1,0.3,0.2l0,0
				c0.1,0.1,0.1,0.1,0.3-0.2c-0.2,0.3-0.2,0.2-0.3,0.2c2.4-4.1,5.1-8.1,7.9-12c-4.3,6.3-7.9,12.7-12.1,19.3l-0.7,1.1
				c-1.1,0.8-2,1.8-2.7,3c-0.6-0.8-2.8-0.6-1.1-2.7l-0.6-0.4c-2.2,1.8-4.8,1.3-4-1.4c1-2.9,3.7-5.9,5.3-9.2c1.2-2.4,2.6-4.7,4.2-6.8
				c2.4-2.8,4.4-6.3,6.9-9c0.9-1,1.6-3.3,2.4-3.6c0.4-0.2,0.9-0.1,1.1,0.2c-1.2,1.8-2.4,3.7-3.6,5.4c-1.6,2.1-3.2,4.2-4.9,6.3
				c1.8-2,3.4-4.1,4.9-6.3c1.3-1.7,2.6-3.5,3.9-5.2c0.2,0.3,0.6,0.5,0.9,0.6l0.5-0.8c1.5-0.7,2.4,0.3,2.8,1.3
				C176.1,99.4,176.2,99.7,176.3,100z"/>
			<path class="st3" d="M76.5,126.2l1.6,0.1c9.6,0.5,19.2,0.4,29.9,0.7c7.5,0.4,16,0.2,23.5,0.2c-17.7-0.3-36.3-0.2-53.3-1.4
				c2-0.5,4.1-0.8,6.2-0.8c5.8,0.2,11.4,0.3,17.1,0.4v0.7c16-0.5,30.9,0.9,46.9,0c-0.6-0.1-0.2-0.2-0.1-0.4l0,0
				c0.1-0.1,0-0.2-0.9-0.2c1,0,1.1,0.1,0.9,0.2c-15.7,0.2-30.5,0-46.2-0.3c24.4,0.3,47.9,0,73,0h4.3c4.2,0.5,8.5,0.7,12.8,0.7
				c-1.1,0.9,3.2,2.7-5.3,2.3v0.7c8.5,0.9,11.7,3.4,3.2,4.1c-9.6,0.7-22.4,0-34.1,0.4c-8.5,0.2-17.1,0.4-25.6,0
				c-11.7-0.5-24.5-0.4-36.3-1.1c-4.3-0.2-11.7,0.4-13.9-0.2c-1.5-0.3-1.6-0.6-1.4-1.1c7,0.1,14,0.1,20.9,0.2
				c8.5,0.2,17,0.4,25.5,0.8c-8.3-0.5-16.8-0.7-25.4-0.8c-6.9-0.2-13.8-0.3-20.7-0.5c0.2-0.4,0.5-0.8,0.1-1.1h-3.2
				c-4.3-0.9-3.2-2.2-1.1-3.1C75.2,126.7,75.8,126.5,76.5,126.2z"/>
			<path class="st3" d="M155.8,134.6l-0.6,1.8c-3.7,10.8-6.8,21.9-10.7,34c-1.4,4.2-2.8,8.8-4.1,13.4c-1.9,6.6-3.8,13.2-5.6,19.4
				c2.1-7,4.2-14.1,6.4-21.2c1.6-5.1,3.1-10.3,4.7-15.4c3.2-10.2,6.4-20.3,9.8-29.9c-0.2,2.5-0.6,4.9-1.3,7.3
				c-2.1,6.5-4.1,13-6,19.4l-0.7-0.2c-1.7,6.4-3.5,12.6-5.4,18.7c-1.3,4.4-2.7,8.7-4,13l-4.6,15.4c-1.3-4.7-2.7-9.3-4-13.9l-2.1-7
				c-0.4-1.2-0.7-2.4-1.1-3.6l-0.7-2.2c0.1,0.7-0.2,0.3-0.3,0.2v-0.1v0.1c-0.1-0.1-0.2,0,0.2,1.1c-0.3-1.1-0.3-1.2-0.2-1.1
				c2.8,9.7,5.6,19.1,8.3,28.5c1.6-5.5,3.2-10.9,4.8-16.4c1.4-4.5,2.7-9.1,4.1-13.6l5.5-18.2c-1.8,6.1-3.6,12.2-5.4,18.2
				c-3,10.4-6,20.7-9.1,31c-5.8-19.7-11.5-39.5-17.5-60l-1.4-4.9c-0.9-5-2.1-10-3.6-14.9c1.2,1,1.5-4.4,4,5.5l0.7-0.2
				c-2-10-0.6-14.4,2.9-4.8c3.9,10.8,7.4,25.6,11.7,39l1.9,6.3l0.9,3.1l0.2,0.8l0.1,0.3l0,0c0,0,0-0.1,0,0.3c0,0.1,0,0.2,0.1,0.2
				c0.1,0.2,0.2,0,0.4-0.4c1.1-3.4,2.1-6.8,3.2-10.2c2.1-7,4.3-14,6.6-20.6c1.6-4.8,3.6-13.5,4.8-15.8c0.8-1.7,1.1-1.6,1.5-1.2
				c-2.4,8-4.8,16-7.1,23.9c-1.5,4.8-3,9.6-4.6,14.5c-0.8,2.4-1.5,4.8-2.3,7.2l-0.6,1.8l-0.3,0.9l-0.1,0.4l-0.5,1.2
				c0.2-0.3,0.3-0.8,0.5-1.2l0.1-0.4l0.3-0.8l0.6-1.8c0.8-2.4,1.6-4.8,2.3-7.2c1.5-4.8,3.1-9.7,4.5-14.6c2.5-7.8,4.9-15.7,7.4-23.5
				c0.3,0.4,0.6,0.8,1,0.4c0,0,0.7-2.4,1.1-3.7c2.3-4.6,3.1-3.1,3.3-0.4C155.9,133,155.9,133.8,155.8,134.6z"/>
		</g>
	</g>
</g>
</svg>
