<?xml version="1.0" encoding="utf-8"?>
<!-- Generator: Adobe Illustrator 22.0.1, SVG Export Plug-In . SVG Version: 6.00 Build 0)  -->
<svg version="1.1" id="Ebene_1" xmlns="http://www.w3.org/2000/svg" xmlns:xlink="http://www.w3.org/1999/xlink" x="0px" y="0px"
	 viewBox="0 0 270 280" style="enable-background:new 0 0 270 280;" xml:space="preserve">
<style type="text/css">
	.st0{opacity:0.9;}
	.st1{fill:#B7702E;}
	.st2{fill:#333333;}
	.st3{fill:#FFFFFF;}
	.st4{fill:#FFFFFF;stroke:#FFFFFF;stroke-linejoin:bevel;}
</style>
<title>modal-rating-failed</title>
<g>
	<g id="Ebene_2_1_">
		<g id="final-design">
			<g class="st0">
				<circle class="st1" cx="135" cy="135" r="135"/>
			</g>
			<circle class="st2" cx="135" cy="145" r="135"/>
			<path class="st3" d="M90,181.4L90,181.4z"/>
			<path class="st3" d="M175.5,184.6L175.5,184.6c0-0.1,0-0.2-0.1-0.3C175.5,184.5,175.5,184.5,175.5,184.6z"/>
			<path class="st3" d="M181.1,169.5l0.1-0.2C181.1,169.3,181.1,169.3,181.1,169.5z"/>
			<path class="st3" d="M147.1,205.4c-0.1,0-0.3,0-0.4,0C146.9,205.4,147,205.4,147.1,205.4z"/>
			<path class="st3" d="M77.5,145.7L77.5,145.7c0,0,0-0.1,0.1-0.1L77.5,145.7z"/>
			<path class="st3" d="M77.7,146.2c-0.1,0.5-0.2-0.1-0.2-0.4c-0.2,0.5-0.2,1.1-0.2,1.6C77.5,147.4,77.6,146.4,77.7,146.2z"/>
			<path class="st3" d="M114.8,95.1l-0.2,0.1C114.7,95.2,114.8,95.2,114.8,95.1z"/>
			<path class="st3" d="M148.9,213.8h-0.3C148.7,213.9,148.8,213.9,148.9,213.8z"/>
			<path class="st3" d="M104.8,98.6l0.1,0.2C104.9,98.7,104.9,98.6,104.8,98.6z"/>
			<path class="st3" d="M175.4,184.4v-0.1V184.4z"/>
			<path class="st3" d="M191.2,152c0.1,0,0.1,0,0.2,0.1l0,0L191.2,152z"/>
			<path class="st3" d="M135.4,91.3c0,0,0,0.1,0,0.1l0.4-0.1C135.7,91.3,135.5,91.3,135.4,91.3z"/>
			<path class="st3" d="M190.9,125.7c0,0-0.1-0.1-0.1-0.1c0,1.1,0,2.2,0.1,3.4l0.3,0.1L190.9,125.7z"/>
			<path class="st3" d="M180.4,98.4l1.8,2.5c-1.9-1.5-3.4-2.8-4.9-4.1l-4.9-4.3c-0.7-0.2-1.5-0.2-2.2-0.4l-1.5-0.2l-2.5-0.3
				c-1.7-0.2-3.5-0.4-5.6-0.5l0.5-0.1c-1.2-0.3-2,1-14.9-2.4v-0.1c-0.4,0-0.9-0.1-1.3-0.2l2.2,0.7c-1.5,0.1-2.9,0-4.4-0.1
				c-0.4-0.1-0.5-0.3-0.5-0.4l-4.5-0.5l-1.3-0.6c-1.4,0-0.9,1-4.4,0c1.3,0.8-1.9,0.1-1.4,0.5c-0.2-0.1-0.6-0.3-0.9-0.4
				c-2.4-0.3-4.9-0.4-7.3-0.4c0,0,2.1,0.6,4.4,1.3s4.9,1.5,6,2c-3-0.6-0.8,0-0.2,0.2l0.2-0.1c1.8,0.4,1.8,0.8,2.6,1c0,0,0-0.1,0-0.1
				h-0.1c-0.1-0.1,0-0.1,0.1-0.1s0.1-0.1,0.6,0h-0.1c0.8,0,2.1,0.3,2.6,0.4v0.3c1.4-0.4,8.9,2.2,10.7,2.5c1.8,0.7,4.1,0.5,6.3,1
				c3.6,0.6,1.7,0.7,3.5,1.3c2.2,0.5-0.4-0.4,0.5-0.3l2.6,0.8c-1.6-0.2-0.8,0.1-0.5,0.3c2.3,0.4,5.9,1.5,6.8,1l0.3,0.1h0.1l0.3,0.1
				l0.4,0.2c0.1,0.2,0.2,0.3,0.3,0.5l0.1,0.2c0.1,0.1,0.1,0.2,0.2,0.3c0.2,0.2,0.4,0.4,0.6,0.6c-0.3-0.4-0.9-1.1-0.7-1.1l0.1,0.1
				l0.1,0.1l0.1,0.2c0.1,0.1,0.1,0.1,0.1,0c0-0.1-0.1-0.2-0.1-0.2c-0.1-0.1-0.1-0.2-0.2-0.3c0.1,0.1,0.2,0.1,0.3,0.2l0.4,0.4
				c0.3,0.3,0.6,0.6,1,1c0.7,0.8,1.6,1.7,2.4,2.5c1.6,1.7,3.1,3.3,3.5,3.1l-0.1,0.1c0.7-0.1,0.5-1,1.7-0.3l0.5,0.8l1.2,0.7
				c0.6,0.7,0.1,0.6,0.1,0.6c2.1,1.7,4.1,3.5,6,5.4l-1.2-3c0.8,0.9,1.8,2.1,2.7,3.2c0.4,0.4,0.8,0.9,1.3,1.3
				c0.2,0.1,0.3,0.3,0.5,0.4c0.1,0.1,0.2,0.1,0.3,0.1c0.1,0.3,0.3,0.7,0.4,1l0.1,0.2l0.1,0.1v0.1c0,0.2-0.1,0.3-0.1,0.5
				c0,0.2,0,0.4-0.1,0.6c0,0.1,0,0.1,0,0.2c0,0.1,0,0.2,0.1,0.3c0,0.1,0.1,0.3,0.1,0.4c0.3,0.4,0.5,0.9,0.4,1.5l-0.4,2.3l-0.1-2.3
				c-0.1,2.3-0.3,3.2-0.5,5.1l0,0c0-0.1,0-0.2,0.1-0.2v0.3c0.5,0.9,0.7,2,0.6,3c0.1,2.3,0.6,4,0.2,7.7l0.6,0.9l-0.2,2.8h-0.4
				c-0.1-2.7-0.6-7.7-0.9-11.2l-0.2-0.1c0.1,2,0.5,4.4,0.5,5.7c0,0.7-0.4,2.4-0.8,1.2l0.5,1.2c0.4,4.7,0.6,9.3,0.5,14l0.2-0.6
				c0.1,0.4,0.1,0.7,0.2,1c0,0.2,0.1,0.2,0.1,0.3s-0.1,0.3-0.3,0.3l-0.1,0.2v0.1l-0.1,0.2l-0.2,0.4l-0.8,1.4
				c-0.6,0.9-1.1,1.8-1.7,2.6c-1,1.5-2,2.9-3.1,4.2l0.1,0.8c-0.5,0.8-1.8,1.6-1.4,2.3l-0.8,1.8c-0.3,0.5-0.5,1-0.8,1.5
				c-0.1,0.2-0.2,0.5-0.4,0.7s-0.2,0.2-0.2,0.4l-0.1,0.2c-0.1,0.1-0.2,0.2-0.2,0.3l0,0l-0.3,0.4h0.1c-0.3,0.4-0.5,0.8-0.7,1.2
				c0,0.3,0,0.6,0,0.7c0,0.3,0.1,0.3,0.1,0.4s0.1,0.1,0.1,0.5c0,0.2,0,0.6,0,0.8s0,0.5-0.1,0.9c-0.4,1,0.6,1.2,0.4,2.7l-0.2,0.4
				c-0.1,0.1-0.1,0.3-0.2,0.3c-0.1,0.1-0.2,0.1-0.4,0.1c0,0.1-0.1,0.1-0.2,0.1l-0.1,0.1c0,0,0,0-0.1,0.1c-0.2,0.4-0.4,0.9-0.6,1.3
				c-0.5,1.3-1.2,2.6-1.9,3.8c-1.2,1.6-2.2,2.1-2,0.7c-0.1,0.2-0.1,0.4-0.1,0.6s0.1,0.1,0.1,0.1c0,0,0.1,0.1,0.1,0.1
				c0,0,0,0.1,0,0.1c0,0.1,0,0.1,0,0.3c-0.1-0.2-0.2-0.4-0.3-0.6c0,0,0,0.1,0.1,0.2s0.1,0.3,0,0.2c0.1,0.4,0.1,0.8-0.1,1.1h-0.1
				c0,0,0,0.1,0.1,0.1l0.1,0.1h-0.1c-0.2-0.1-0.5-0.3-0.9-0.5l-2.4-1.3l0.1-0.1c-0.7-0.3-1.4-0.6-2.1-0.8l-0.1-0.2
				c-1.1-0.4-2.2-0.7-3.3-0.9l0.5,0.1c-0.8-0.1-1.6-0.2-2.4-0.2c-1.1,0.1-2.2,0.4-3.1,0.9v0c-0.3,0.2-0.6,0.3-0.9,0.5
				c-0.2,0.2-0.5,0.4-0.7,0.6l-1,1.1c-0.3,0.4-0.6,0.8-0.9,1.2c-0.3,0.4-0.6,0.8-0.8,1.3c-1.2,2-1.9,4.2-2.1,6.4
				c-0.1-0.2-0.2-0.5-0.2-0.7c-0.3,0.9-0.2,1-0.1,1.2s0.3,0.4,0.2,1.4l-0.4,0.1c0.6,1.8,0,2.4,0,3.8l0.4-0.7l0.1,1l0.1,0.4
				c0,0,0,0.1,0,0.1v0.1c0,0.1,0,0.2-0.1,0.2c-0.2,0.3-0.6,0-1-0.1c0.1,0,0.3,0.1,0.4,0.2l-0.1-0.1l0,0l0,0l0.1,0.1l-0.5-0.2
				c0.1,0,0,0.2,0,0.3c0,0.1,0,0.2-0.1,0.3c-0.1,0.2-0.2,0.3-0.3,0.5c-0.4,0.5-0.7,1-0.9,1.6c-0.2,0-0.1-0.4-0.5,0.1l-0.1,0.4
				l-0.1,0.2l0,0c0.1,0.1,0.1,0.1,0.1,0.2c0.1,0.2,0.1,0.3,0.2,0.5c0-0.2,0-0.4-0.1-0.5c0.2,0.2,0.4,0.3,0.6,0.5
				c0.1,0.3,0,0.6-0.2,0.8c0,0,0,0-0.1,0h-0.1l-0.1-0.1c-0.1,0-0.2,0-0.3,0c0.1-0.1,0.1-0.1,0.2-0.2c-0.2,0.1-0.4,0-0.6-0.1
				c0,0,0,0-0.1-0.1l-0.3-0.1c-0.3-0.1-0.5-0.2-0.8-0.2c0.4,0.2,1,0.4,0.1,0.5c-0.7,0-0.4-0.3-1-0.4c-0.2,0.5-1.9,0.7-3.4,0.3
				c0-0.1,0.1-0.2,0.2-0.2c-0.4,0.1-0.9,0.1-1.3,0l0.4-0.6l-1.3,0.5c-0.9-0.2-2.1,0.1-2-0.3l0.5-0.1c-2.2-0.2-4.4-0.4-6.6-0.5
				l-0.1-0.5c-0.7,0.6-3.6-0.3-3.4,0.6c-1.2-0.4-4.9,0.3-4.1-0.6c-1.9,0-3.8,0.1-5.6,0.3l-1.4,0.1h-0.7h-0.4c-0.1,0-0.2,0-0.3,0
				h-0.2c0,0,0,0-0.1,0v-0.1l0.2-0.6v-0.1l0,0l0,0l-0.1-0.2l-0.5-1.3c-0.4-0.9-0.8-1.8-1.1-2.7c-0.2-0.5-0.4-0.9-0.6-1.3l-0.3-0.6
				l-0.1-0.3h-0.3l0.2-0.1l0,0l0,0c0,0,0,0,0-0.1c0,0,0-0.1,0-0.1l0,0v-0.1l0.1-0.4c0-0.2,0.1-0.5,0.1-0.7c0-0.5,0.1-0.9,0.1-1.4
				c0-0.9-0.1-1.7-0.3-2.6c-0.4-1.6-1.1-3.1-2.1-4.3c-0.5-0.6-1-1.1-1.6-1.7c-0.6-0.5-1.2-1-1.9-1.5c-1.5-1-3.3-1.6-5.1-1.6
				c-1.3-0.1-2.6,0-3.8,0.4c-1.2,0.4-2.4,1-3.5,1.7c-1.1,0.7-2.2,1.4-3.2,2.2l-0.4,0.3l-0.2,0.1c-0.1,0.1,0,0.1,0,0.1
				s-0.1,0.1-0.2,0.1s-0.2,0.1-0.2,0.3s-0.1,0.1-0.2,0.1c-0.1,0.2-0.1,0.4-0.2,0.7c-0.1-0.3-0.1-0.7-0.2-0.9
				c-0.1-0.1-0.1-0.1-0.2-0.2c-0.2-0.1-0.3-0.3-0.4-0.5c-1.3-1.6-2.4-3.3-3.4-5.1l-0.5-0.5c0,0-0.1,0-0.2,0c-0.1,0-0.1,0-0.1-0.1
				c0,0,0,0.1-0.2,0.3c0-0.1-0.1-0.2-0.1-0.3c0-0.1,0-0.2,0-0.3s0-0.3,0-0.4c0-0.1,0-0.3,0-0.4c0-0.2,0.1-0.3,0.2-0.3l0.1,0.3
				c0.5,0.1-0.5-3.5-0.2-4.8l-0.5,0.8l0.1-2.1l0.2,0.6c-0.3-1.2-0.5-2.3-0.6-3.3c0-0.3-0.1-0.5-0.1-0.8s-0.1-0.6-0.1-1
				s-0.1-0.8-0.2-1.2c0-0.2-0.1-0.4-0.2-0.5l-0.3-0.5l-0.8-1.5c-0.2-0.4-0.4-0.8-0.7-1.2c-0.4-0.8-0.8-1.5-1.2-2.3
				c-1.6-3.4-3.6-6.5-5.8-9.5c1.1,0.7-1.2-1.4-0.6-1.8c0-0.3-0.1-0.6-0.2-0.8c0-0.1-0.1-0.3-0.2-0.4l-0.1-0.2v-0.1
				c0-0.1-0.2-0.2-0.3-0.3l-0.2-0.2l-0.1-0.1c0-0.1-0.1,0-0.1-0.2c-0.1-0.5-0.2-0.9-0.2-1.4c0,0-0.1,0-0.1-0.1l0.2-3.2
				c0.8,2-0.7-2.4,0-0.6c0.5-4.2,0.7-9,0.8-14.1l0.1-3.8l0.1-1.9V123l0.1-0.1l0.2-0.2l0.3-0.2l0.7-0.6l2.8-2.4l-0.5,0.1
				c1.9-1.6,4-3.8,5.7-4.8s2.7-3.2,3.2-3.7c1.3-1.7,3.2-2.3,2.5-1.8c1.6-1.5,2.6-3.5,5.1-5.3c0.6-0.1,2.1-1.6,3.4-3
				c0.7-0.7,1.3-1.4,1.8-1.9s0.9-0.8,1-0.6v-0.1l0.3-0.2l0.3-0.1h0.2l0.3-0.1l0.7-0.2c0.9-0.3,1.8-0.7,2.7-1.1
				c1.8-0.8,3.7-1.5,5.7-2c-0.1,0.1-0.1,0.1-0.2,0.2c2.4-1.7,4.9-3.4,7.3-5.1l-3.2-1.7l-7.7,0.3l-4.8,1.7l-2.4,0.8l-1.5,0.5
				c-0.4,0.1-0.7,0.3-1.1,0.4c-0.3,0.2-0.6,0.5-0.9,0.7l-7.7,7l-12.7,9.9l-7.5,6.7l-1.7,1.6l-0.9,0.8c-0.1,0.1-0.2,0.1-0.2,0.2v0.9
				l-0.2,4.2l-0.1,4.9l-0.5,19.5c0.1,0.4,0.1,0.7,0.1,1.1l0.1,1.3l0.1,0.6l0.4,0.5l0.8,1l0.3,0.6l0.1,0.3l0.1,0.2l0.3,0.7
				c0.2,0.4,0.4,0.9,0.7,1.4c0.5,0.9,1,1.8,1.5,2.8c1.1,1.9,2.2,3.7,3.4,5.6s2.4,3.8,3.5,5.7l0.2,0.4c0,0,0,0,0,0.1s0,0.1,0,0.1
				c0,0,0,0.1,0,0.1v0.2v0.4c0.1,1.1,0.1,2.1,0.1,3.2l0.5,0.1c0.2,0.9,0.2,1.9-0.1,2.8l0.7,6.3c0,0.4,0.3,0.8,0.5,1.1s0.5,0.7,0.8,1
				l1,1.3l1.8,2.2l4.4,5.5c0.5,0.7,1,1.2,1.6,1.8l1.6,1.7c0.4,0.4,0.8,0.7,1.4,1.4l0.5,0.5l0.7,0.7l0.3,0.4l0.4,0.5l1,1V201v-6.3
				l0,0l0.1-0.1c0.3-0.6,0.7-1.2,1-1.7l0.5-0.8c0.1-0.2,0.3-0.4,0.5-0.6l0.5-0.7c0.6-0.9,1.3-1.7,2.1-2.4c1.5-1.3,3.5-2.1,4.8-1.6
				c0.7,0.3,1.3,0.9,1.6,1.6c0.4,0.8,0.7,1.6,0.9,2.4c0.1,0.7,0.2,1.5,0.2,2.2c0,0.4,0,0.7-0.1,1c0,0.2,0,0.3-0.1,0.5
				c0,0.1,0,0.2-0.1,0.2c0,0.1,0,0.1-0.1,0.5c-0.1,0.6-0.1,1.2-0.2,1.8c0,0.3,0,0.6,0,0.9v0.9l0,0h0.2l0.3,1.3c0,0.1,0,0.2,0.1,0.2
				l0.1,0.2l0.1,0.4l0.5,1.4l1,2.8l0.5,1.4l0.3,1l0.5,1.3c0.3,0.8,0.6,1.7,1,2.5l0.5,1.2l0.1,0.3l0.1,0.2c0,0,0.1,0,0.1,0h0.7
				c0.8,0.1,2.1,0.2,3.7,0.2l3.5,0.1c1.5,0,2.9,0.1,4.3,0.3c3.1-0.3,6.4-0.4,9.6-0.5s6.5,0.3,9.6,0.4H146h3c0.1,0.1,0.1,0.1,0,0.1
				c1-0.1,1.9-0.1,2.9-0.1l2.9,0.1l1.5,0.1h0.8h0.4h0.2c0-0.1,0.1-0.1,0.1-0.2c0.5-0.9,1-1.8,1.5-2.6l1.4-2.7l1.6-2.9l-0.1,0.2
				l0.4-0.9l0.4-0.7l0.2-0.3l0.1-0.2v-0.1v-0.1l0,0l0,0l-0.2-0.1c0.1-0.7,0.2-1.3,0.2-2v-2c-0.1-0.3-0.2-0.6-0.3-0.9
				c0-0.1-0.1-0.2-0.1-0.4c0-0.2-0.1-0.5-0.2-0.7c-0.1-0.5-0.1-1-0.2-1.4c-0.1-1-0.2-2-0.1-2.9c0-2.1,0.5-4.3,1.5-6.1
				c0.2-0.6,0.8-1,1.4-1c1,0,1.9,0.2,2.8,0.7c1,0.5,1.9,1.2,2.8,2l0.6,0.6l0.2,0.1c0.1,0,0.1,0.1,0.1,0.2c0,0.1,0.1,0.1,0.2,0.2
				l0.7,0.6c0.2,0.2,0.4,0.6,0.7,0.9c0.1,0.2,0.2,0.3,0.3,0.5l0.4,0.6l0.4,0.6c0,0.1,0.1,0.1,0.1,0.2l0.1,0.4l0.2,0.9l0.4,1.7
				l0.2,0.9l0.3,1.1c0.4-0.5,0.8-1,1-1.4l0.8-1c0.4-0.6,0.8-1,1-1.3c0.7-1,1.5-2,2.2-3.1l2.1-3.3l1.1-1.9l2.3-3.7l0.6-0.9l0.5-0.8
				c0.2-0.3,0.4-0.6,0.5-0.9l0.2-0.4l0.1-0.2c0-0.1,0-0.2,0-0.2v-1l0.1-1.5c0.1-1.3,0.1-2.6,0.2-4c0-0.1,0-0.1,0.1-0.2
				c0,0,0-0.1,0.1-0.1l0.1-0.2l1.1-1.9c1.5-2.5,3.1-5.1,4.7-7.6c0.8-1.1,1.6-2.3,2.4-3.5l1.2-1.9l0.6-0.9c0.3-0.5,0.7-1.2,1.1-1.8
				c0.2-0.3,0.4-0.6,0.5-0.9l-0.1-1.1c0-0.7-0.1-1.3-0.1-2s-0.1-1.5-0.1-2.3c-0.1-1.5-0.2-3-0.3-4.6c-0.4-6.2-0.9-12.6-0.9-19
				c0.1-1.8,0.1-3.6-0.1-5.4c-0.1-0.9-0.1-1.8-0.1-2.8c-0.1-0.8-0.1-1.6-0.1-2.4v-0.6v-0.3c0-0.1-0.1-0.1-0.2-0.2
				c-0.3-0.3-0.6-0.5-0.9-0.8l-5.1-4.3C186.8,103.5,181.4,99.1,180.4,98.4z"/>
			<path class="st3" d="M142.2,88.5h0.1C142.4,88.2,142.2,88.3,142.2,88.5z"/>
			<polygon class="st3" points="187.3,113.8 187.2,113.7 187.5,114.4 			"/>
			<path class="st3" d="M160.3,97.4c1.5,0.3,1.6,0.2,1.4,0.1C161.2,97.4,160.8,97.4,160.3,97.4z"/>
			<path class="st3" d="M129.8,87.3c-0.8-0.1-0.5,0-0.1,0.2l1.4,0.1C130.6,87.6,130.2,87.4,129.8,87.3z"/>
			<path class="st3" d="M132.6,90.6l-0.3,0.1C132.8,90.8,132.8,90.7,132.6,90.6z"/>
			<path class="st4" d="M119.8,136.2c-0.1,0.2,0.5,0.3-0.5,0.4h-1.2h-0.9c-0.4,0-2.2-1.5-2.6-1.5c-0.8-0.1-1.6-0.2-2.4-0.1l-0.1,0.3
				l-4.1-0.4c-0.5,0,0.4,1.4-0.2,1.4l-2.5,0.1l-1.9,1l-1.1,0.5l-2.1,1.1c0.1,0.1,0.2,0.1-0.1,0.3c-1,0.5-2.3,1.1-3.8,1.8l-0.6,0.4
				c-0.1,0.1-0.1,0.2-0.1,0.3l-1.6,0.8l-1.5,0.7l-3.1,1.7c0.5,1.5,1.1,2.9,1.6,4.4l0.4,1.1l0.2,0.5l0.1,0.3v0.1l0,0v0.1l0.5,1.2
				c0.7,1.6,1.3,3.2,2,4.9s1.3,3.3,2,5l1,2.6l0.3,0.6l0.1,0.3l0.1,0.2l0.1,0.2l0.7,1.9l0.2,0.3l1.7,0.5l0.8,0.2h0.1h0.1h0.2l0.3,0.1
				c0.8,0.2,1.6,0.4,2.4,0.6c2.4,0.8,5.3,2.1,7.5,2.9c0-0.3,0.4-0.3,0.9-0.4c0.2,0,0.3,0,0.5,0h0.5l1,0.1c0.5-0.3,1-0.7,1.4-1.2
				c0.3-0.3,0.4-0.6,0-0.7c1.5-0.6,3.8-1.5,3.9-1.8s0.3-0.4,0.5-0.8c0.1-0.2,0.3-0.4,0.3-0.5l0.2-0.4v-0.4v-0.2l0,0l0,0l0.1-0.1
				l0.1-0.2c0.3-0.6,1.2-0.6,1.6-1.3c1-1.4,3.1-3,3.4-3.6c0.4-0.9-1.8,1.4-1.4,0.5c-0.8,1-1.8,1.7-2.6,2.6c-0.4,0.5-1.3,0.4-1.7,0.9
				l-0.3,0.4l-0.1,0.2l0,0l-0.9,0.4c-0.7,0.3-1.4,0.4-2.1,0.6l-2,0.8l-0.4,0.2l0,0l-0.2-0.1l-1.8-0.7l-3.4-1.3l-3.6-1.3l-1.8-0.7
				l0,0l0,0l0,0l-0.1-0.3l-0.2-0.7c-0.3-1-0.6-1.9-0.9-2.9s-1.1-2.8-2-5.4c-0.4-1.3-0.9-2.8-1.5-4.3c-0.1-0.4-0.3-0.8-0.4-1.2v-0.1
				v-0.1l0,0l0,0l0,0v-0.1l-0.1-0.3l0.3-0.2l2.9-1.4c1.8-0.9,2.3-3.2,4-4.1H116l1.5,1.4h0.2c0,0.1,0.1,0.2,0.1,0.3l0.4,1.2
				c0.2,0.4,0.3,0.9,0.5,1.3c0.6,1.7,0.9,2.5,1.5,3.8s-0.1,1,0.7,2.4c-0.1-0.8,1.4,0.4,1.3-0.2c0.5,1.5-0.6,1.2-0.2,1.8
				c1.5,3.1,1.3,1.1,1.5-0.4c0-1,0.6-0.8,0.3-2.3c0.3,1,0.5,1.5,0.8,2.6c0.3,0-1.2-3.1-0.6-2.5c0.2,1,0.8,2.1,1.1,3.1
				c0.2-0.5-1.1-3.6-0.7-3.6c0.3,0.5,0.5,3,1,3.1c-0.1-0.5-0.2-1-0.4-1.5c1.2,3.1,2.2,4.7,1.7,1.6c0.3,1,0.6,2.5,1,3.5l0,0
				c-0.2-0.5-0.4-1.5-0.5-2c0.2,0.6,0.4,1.2,0.6,1.8c0-0.1,0.1-0.3,0.1-0.4c-0.1-0.5-0.2-0.9-0.4-1.4l0.4,1.2c0-0.4,0-0.8,0-1.2
				c-0.1-1.3-0.3-2.5-0.5-3.8c-0.9-2.9,0.4-2.2-0.5-5.1c-0.4-1.4-0.9-2.8-1.4-4.2l-0.3-1.1l-0.6-1.7c-0.5-1.4-0.9-2.8-1.4-4.2
				L119.8,136.2z"/>
			<path class="st4" d="M152.6,142.7c0-0.1-0.1-0.2-0.1-0.2s0.7,0.1,0.7,0.1c0.1,0,0.2-0.1,0.2-0.1c1.6-0.1,2.9,0.4,4.5,0.3l0.1-0.3
				l3.9,0.4h0.4l0,0h0.1h0.1l1.2,0.8l2.4,1.5c0-0.1,0-0.2,0.2-0.1c0.9,0.5,2.1,1.4,3.3,2.2l0.6,0.3c0.1,0,0.2,0,0.3,0l0.4,0.3
				l0.2,0.1l0.1,0.1l0,0c0,0,0.1,0.1,0.1,0.1c0.2,0,0.4,0.1,0.6,0.2c0,0.1,0,0.3,0,0.4c0,0.1,0,0.2,0,0.3l-0.3,1.1l-1.3,4.5
				c-0.4,1.5-0.9,3-1.4,4.6l-0.7,2.3c-0.1,0.2-0.1,0.4-0.2,0.6l-0.1,0.3c0,0.1,0,0.1,0,0.1v0.1l-0.2,0.7v0.3l-0.5,0.3l-0.3,0.1
				l-0.2,0.1l-0.2,0.1c-0.7,0.2-1.3,0.5-2,0.7c-2.2,0.6-5.1,1.1-7.2,1.6c0.2,0.3-0.2,0.8-1.1,1.2c-0.3,0-0.7-0.1-1-0.1
				s-0.7-0.1-1-0.1c-0.6,0-0.9,0-0.7,0.4c-1.4-0.7-3.5-1.7-3.7-1.5c-0.2,0.2-0.5,0.3-0.7,0.4c-0.4,0-1,0.5-1.9,0.3
				c-0.2-0.2-0.5-0.5-0.9-0.8c-0.2-0.1-0.3-0.3-0.5-0.5l-0.1-0.1h-0.1l-0.1-0.1l-0.2-0.2c-0.5-0.5-1.5-1.2-2.2-1.9
				c-1-1.2-2.1-2.4-3.2-3.5c-0.8-0.6,0.8,2,0.1,1.4c0.7,1,1.9,1.7,2.6,2.7c0.4,0.5,1.2,1.2,1.5,1.7c0.6,0.8,1.2,1.7,1.8,2.5
				c1.6,0.8,3.2,1,4.9,1.7l5.2,2.4l3-0.7l1.6-0.4l3.2-0.8l3.2-0.8l5.1-1.2c0.9-2.3,1.8-4.7,2.7-7c0.2-0.8,0.8-2.5,1.6-4.7
				c0.4-1.1,0.9-2.4,1.3-3.7c0.1-0.3,0.2-0.7,0.4-1l0.7-1.9c0.5-1.3-1.8-2.9-1.3-4.3c-3-2-3.3-3.8-6.4-5.9l-3.3-2.2l-4-2.7l-4-0.1
				h-2.6c-1.6,0-3-0.1-3.9-0.1H153h-2.5h-2.8c-1,1.1-1.7,2.4-2.1,3.8l-0.3,0.8l-0.2,0.5c-0.1,0.4-0.2,0.7-0.3,1
				c-0.4,1.4-3.5,5.1-3.8,6.2c-0.3,1.4-0.5,2.9-0.8,4.4c0.4-0.6,0.7-1.1,1-1.5c-0.5,1.1-0.8,2.2-1.1,3.4c-0.7,3.1,0.3,1.6,1.3,0.8
				c0.6-0.7,0.6,0.6,1.3-0.6l-0.9,2.3c0.2,0.2,0.9-2.9,1.1-2.1c-0.4,0.9-0.6,1.9-1,2.8c0.4-0.2,1.3-3.1,1.6-2.8
				c-0.1,0.5-1.4,2.4-1.1,2.7c0.1,0.1,0.4-0.8,0.6-1.3c-0.9,2.9-1.1,4.6,0.3,2.2c-0.3,0.9-1,2.1-1.3,3.1l0,0
				c0.2-0.5,0.6-1.2,0.7-1.7c-0.2,0.5-0.4,1.1-0.6,1.6c0.1-0.1,0.2-0.1,0.3-0.2c0.2-0.4,0.4-0.8,0.6-1.2c-0.1,0.4-0.3,0.7-0.4,1.1
				c0.3-0.2,0.5-0.5,0.7-0.8c0.7-0.9,1.3-1.9,1.8-2.9c0.9-2.3,4.6-7,5.5-9.4c0.4-1.2,0.9-2.4,1.4-3.5l0.3-0.9l0.1-0.2l0,0l0,0l0,0
				L152.6,142.7L152.6,142.7z"/>
			<polygon class="st3" points="137.3,171.8 128.9,181.2 136.9,181.6 144.3,183 			"/>
			<path class="st3" d="M128.2,179c0.1,0,0.4-0.2,0.1,0.1c-0.7,0.9-1.8,1.8-2.6,2.7h0.2l-1.1,1.1l1.5,0.2l6,0.2
				c0-0.1-0.1-0.1,0.1-0.1h0.6h0.4l0.9,0.1h0.3c0,0,0.1,0,0.1-0.1c0.3,0,0.5,0,0.7,0.1h0.6h0.6c0.1,0,0.2,0,0.3,0h0.4l0.9,0.1
				l0.9,0.1l1.5,0.2l5.4,0.7l-0.4-0.6c-0.8-1-1.4-1.9-1.9-2.6c-0.4-0.6-0.7-1.1-1.1-1.8l-0.9-1.5c-0.3,0.4-1.7-1.5-1.9-0.9
				c-0.3-0.6-0.8-1.4-0.9-1.3c-0.4,0.1-1.1-0.1-2.1-1.4c-0.4-0.5-0.8-1.5-1-1.6s0.2,0.9-0.1,0.6c1.1,1.9,2.2,3.7,3.3,5.4l0.9,1.3
				c0.1,0.1,0,0,0.1,0l0.1,0.1l0,0c0,0,0,0.1,0,0.1H140l-0.8-0.1l-2-0.3l-3.9-0.2c-0.2,0-0.4,0-0.5,0c0.1-0.1,0.2-0.2,0.3-0.2l0,0
				c0.8-0.9,1.5-1.7,2.1-2.7c0.3-0.5,0.6-1.1,1-1.6l-0.7,0.4c0.4-0.4,0.7-0.7,1-1.2c0.8-1.1,0.1-0.7-0.5-0.5c-0.4,0.2-0.2-0.3-0.7,0
				l0.7-0.8c-0.1-0.1-0.8,1-0.8,0.7c0.3-0.3,0.6-0.7,0.8-1c-0.2,0-1,1.1-1.1,0.9c0.1-0.2,1-0.7,0.9-0.9c0,0-0.3,0.3-0.4,0.4
				c0.8-1,1.1-1.7,0.2-1c0.3-0.3,0.7-0.7,1-1l0,0c-0.1,0.1-0.4,0.4-0.6,0.6l0.5-0.6h-0.1c-0.1,0.1-0.3,0.3-0.4,0.4l0.3-0.4
				c-0.1,0-0.3,0.1-0.4,0.2c-0.4,0.3-0.8,0.5-1.2,0.9l-2.7,2.8l-1.3,1.4C129.7,177.2,129,178.1,128.2,179z"/>
		</g>
	</g>
</g>
</svg>
