<?xml version="1.0" encoding="utf-8"?>
<!-- Generator: Adobe Illustrator 22.0.1, SVG Export Plug-In . SVG Version: 6.00 Build 0)  -->
<svg version="1.1" id="Ebene_1" xmlns="http://www.w3.org/2000/svg" xmlns:xlink="http://www.w3.org/1999/xlink" x="0px" y="0px"
	 viewBox="0 0 270 280" style="enable-background:new 0 0 270 280;" xml:space="preserve">
<style type="text/css">
	.st0{opacity:0.9;}
	.st1{fill:#B7702E;}
	.st2{fill:#AA2000;}
	.st3{fill:#FFFFFF;}
</style>
<title>modal-hint</title>
<g>
	<g id="Ebene_2_1_">
		<g id="final-design">
			<g class="st0">
				<circle class="st1" cx="135" cy="135" r="135"/>
			</g>
			<circle class="st2" cx="135" cy="145" r="135"/>
			<path class="st3" d="M134.9,153.5L134.9,153.5z"/>
			<path class="st3" d="M134.1,155.4L134.1,155.4C134,155.4,134,155.4,134.1,155.4z"/>
			<path class="st3" d="M135.3,152.3L135.3,152.3C135.3,152.3,135.3,152.3,135.3,152.3L135.3,152.3z"/>
			<path class="st3" d="M133.1,159.5L133.1,159.5C133.1,159.5,133.1,159.5,133.1,159.5z"/>
			<path class="st3" d="M133.8,157.1C133.8,157.1,133.8,157.1,133.8,157.1C133.8,157.1,133.8,157.1,133.8,157.1z"/>
			<path class="st3" d="M138.1,151.7h-0.2C138,151.7,138,151.7,138.1,151.7z"/>
			<path class="st3" d="M137.3,150.5L137.3,150.5z"/>
			<path class="st3" d="M136.6,151L136.6,151C136.6,151,136.6,151,136.6,151z"/>
			<path class="st3" d="M136.7,151L136.7,151z"/>
			<path class="st3" d="M134.1,174.5c0,0,0.1,0.1,0.3,0.1L134.1,174.5z"/>
			<path class="st3" d="M133,163.3L133,163.3z"/>
			<path class="st3" d="M135.7,174.6L135.7,174.6C135.7,174.6,135.7,174.6,135.7,174.6z"/>
			<path class="st3" d="M138.6,152.3c0.2,0,0,0.1,0.1,0.1C138.7,152.4,138.9,152.3,138.6,152.3z"/>
			<path class="st3" d="M140.1,164.1L140.1,164.1z"/>
			<path class="st3" d="M135.7,174.6L135.7,174.6L135.7,174.6L135.7,174.6z"/>
			<path class="st3" d="M132.9,167.2"/>
			<path class="st3" d="M132.6,167.4L132.6,167.4C132.6,167.4,132.6,167.4,132.6,167.4z"/>
			<path class="st3" d="M134.3,174.6l0.1,0.1C134.4,174.7,134.4,174.6,134.3,174.6z"/>
			<path class="st3" d="M132.9,169.6L132.9,169.6z"/>
			<path class="st3" d="M133.9,156.9L133.9,156.9C133.9,156.9,133.8,156.9,133.9,156.9z"/>
			<polygon class="st3" points="138.8,158.5 138.8,158.5 138.8,158.5 			"/>
			<path class="st3" d="M138.6,158.4c0,0,0.1,0.1,0.2,0.1S138.8,158.4,138.6,158.4z"/>
			<path class="st3" d="M138.7,158.6L138.7,158.6z"/>
			<path class="st3" d="M139.1,157L139.1,157z"/>
			<path class="st3" d="M139.1,157.3L139.1,157.3L139.1,157.3z"/>
			<polygon class="st3" points="139.3,159.5 139.2,159.5 139.2,159.5 			"/>
			<path class="st3" d="M140.6,162.6c-0.1-0.3-0.5-0.7-0.4-1c-0.4-0.1-0.4-0.2-0.5-0.3h0.5l-0.2-0.1c0.1,0,0.1,0.1,0.3,0h-0.3
				c0.2,0,0.1-0.2,0.5-0.1v-0.3c0-0.1-0.4,0-0.3-0.1s0.1,0,0.3,0c0.4-0.2-1-0.3-0.8-0.5h0.1c-0.1,0-0.1-0.1-0.2-0.1
				c-0.5,0,0.3,0,0,0.1s-0.2-0.1-0.6-0.1c0.1-0.1-0.1-0.1-0.1-0.1c0.3-0.1,0.1-0.2,0.4-0.2c-0.1,0-0.6-0.1-0.6-0.2
				c0.3-0.1,0.3,0,0.4-0.1H139c0-0.1,0.1-0.1,0.2-0.1s-0.4-0.1-0.2-0.1l0.2,0.1c-0.1-0.1-0.1-0.1,0-0.2s0.1,0,0.1,0.1
				c0.4,0-0.2-0.1-0.1-0.1c-0.1,0-0.3,0-0.4,0c0,0-0.3-0.1,0-0.1l0.2,0.1c-0.2-0.1-0.3-0.1-0.2-0.1h0.1c-0.3-0.1,0-0.1,0-0.2h0.1
				c-0.1,0-0.3-0.1-0.3-0.1c-0.2,0-0.3,0-0.5,0c0.4-0.1-0.5-0.1-0.2-0.2s0.3,0,0.2,0.1c0.3,0,0.7,0,1,0.1c-0.1-0.1-0.2-0.1,0-0.1
				h-0.4c0,0,0-0.1,0-0.1c-0.2,0-0.4,0.1-0.6,0s0.4,0,0.2-0.1s-0.4,0-0.3-0.1s0.1,0,0.1,0c0.2-0.1-0.1-0.2,0.4-0.2
				c0.1,0,0.2,0,0.2,0h-0.1c0.4,0.1-0.1-0.1,0.3,0c-0.3,0-0.2-0.1-0.1-0.1h-0.3c-0.9-0.1,0.6,0,0.5-0.1s-0.1,0-0.3,0
				c0-0.1,0.3-0.1,0.2-0.2c0.2-0.1,0.4-0.1,0.6-0.1c-0.1-0.1,0.1-0.2-0.2-0.2s0.3,0.1-0.1,0.2h-0.3c0-0.1-0.1-0.2,0-0.2h-0.2
				c-0.1-0.1-0.4-0.1-0.3-0.2c0.3,0,0.2,0,0.3,0.1c0.2-0.1,0-0.1,0.1-0.2c0.3,0,0,0.1,0.2,0.1l-0.2,0h0.1c-0.4,0,0-0.1-0.1-0.2
				s-0.6-0.2-0.9-0.3c0.1,0,0.2,0,0.3,0c-0.2,0,0,0,0.1,0.1s0.4-0.1,0.6-0.1c-0.1-0.1-0.2,0-0.4,0v-0.1c-0.2,0-0.3,0.1-0.4,0
				s0-0.1,0-0.1s0.3,0,0.3,0s0.1-0.1-0.1-0.1s-0.2-0.1-0.5-0.1l0.2-0.1c0,0,0.1,0,0.1,0c0.3,0-0.1-0.1-0.1-0.1s0.1-0.1,0.2-0.1
				c-0.1,0,0-0.1,0.1-0.1c-0.1,0-0.2,0-0.3,0v-0.1c0.3,0,0.5,0,0.8,0c-0.2-0.1-0.5,0-0.5-0.1c0.4,0,0.3-0.1,0.7,0
				c0.3,0,0.2-0.2,0.1-0.2c-0.3,0-0.2,0.1-0.4,0.1c-0.1-0.2-0.9-0.2-0.8-0.3h-0.1c-0.1-0.1-0.2-0.1-0.4-0.1c0.4,0,1-0.1,0.9-0.2
				s-0.3,0.1-0.6,0.1v-0.1c0,0,0.1,0,0.1,0c-0.1-0.1,0.5-0.1,0.1-0.2l0.5-0.1h-0.2c-0.2,0-0.2-0.1-0.3-0.1s0-0.1,0.2-0.2
				c-0.1,0-0.5,0.1-0.5,0c0.6,0,0.2-0.1,0.5-0.1c0,0,0.2-0.1-0.1-0.1h0.4c-0.5,0-0.5-0.1-0.6-0.2c0.7,0-0.1-0.1,0.6-0.1
				c-0.5,0-0.2-0.1-0.6-0.2c0-0.1,0.4-0.1,0.6-0.1h-0.2c0.2,0,0.2-0.1,0.4-0.2l-0.4-0.1h0.2c-0.1,0-0.2-0.1-0.3,0l0,0
				c-0.4,0-0.1-0.1-0.3-0.1c0.1,0,0.2,0,0.2,0c0,0,0.2,0,0.4,0c-0.1,0-0.8-0.1-1,0s-0.3-0.1-0.2-0.1h0.4h-0.4
				c-0.1,0,0.2-0.1,0.2-0.1s0.8,0.1,0.8,0c0.1,0.1,0.3,0.1,0.4,0.1s0.1,0,0.2,0c-0.1-0.1-0.2,0-0.3-0.1c0.2,0,0.4,0,0.6-0.1
				l-0.3,0.1h-0.1c-0.1,0-0.2,0-0.2,0c0,0-0.4-0.1-0.2-0.1c-0.6,0.1-0.4-0.2-0.8-0.1c-0.1,0-0.1-0.1,0.1-0.1s0.4-0.1,0.7-0.1
				c-0.1,0-0.3,0.1-0.4,0s0.2-0.1,0.3-0.1h0.1l0.2-0.1c-0.2,0-0.3,0.1-0.4,0c0.1,0,0-0.1,0.1-0.1c0.2,0,0.4,0,0.6,0.1
				c0,0-0.1-0.2-0.4-0.1v-0.1c-0.1,0-0.4,0.1-0.5,0h0.2l-0.3-0.1h0.2c-0.1,0-0.2,0-0.2,0c0.1,0,0.2,0,0.3,0c0-0.1-0.2-0.1-0.3-0.1
				s0-0.1,0.3,0c0-0.1,0-0.2,0.2-0.2c-0.2-0.1-0.1,0-0.3,0c0.6-0.1,0.2-0.3,0.2-0.4c-0.6,0-0.1,0-0.6-0.1c0.2,0,0.4-0.1,0.6,0
				L138,151c0.3,0,0.2,0.1,0.6,0c0-0.1-0.6-0.1-0.4-0.2c0.4,0-0.1-0.1,0.3-0.1c0.1,0,0.1,0,0.1,0.1h0.1c0.1-0.2-0.5-0.1-0.7-0.1
				c0-0.1,0.3-0.1,0.5-0.1s0-0.1-0.1-0.1c0.2,0.1-0.2,0.1-0.5,0.1c0.4,0,0-0.1-0.1-0.2c-0.5,0.1,0,0.1-0.5,0.2c0.1,0,0.5,0,0.4,0.1
				c-0.1,0-0.2,0-0.3,0c0.2,0,0.1,0.1,0.2,0.1c-0.2,0-0.5-0.1-0.6,0h0.5c-0.1,0-0.4,0-0.3,0.1c-0.3,0-0.4,0-0.5-0.1
				c-0.5,0.1,0.2,0.2,0.4,0.3H137c0.1,0,0.1,0.1,0.2,0.1c-0.1,0.1-0.2-0.1-0.4,0v0.1l0,0c0.1,0,0.1,0.1,0,0.1l-0.5-0.1l0.4,0.1
				c-0.2,0-0.3,0.1-0.4,0l0.1,0.1h-0.4c0.1,0,0.1,0,0.2,0c-0.1,0.1,0.6,0.2-0.1,0.2c0.3,0.1,0.2,0.2,0.4,0.3c-0.3-0.1-0.4,0.1-0.6,0
				c-0.2,0.1,0.2,0.1,0.3,0.1c-0.2,0.1-0.4,0.1-0.6,0l0.2,0.1h-0.1l0.2,0.1c-0.2,0.1-0.4,0-0.4,0.1h0.3l-0.2,0.1
				c0.1,0,0.2,0,0.2,0.1h-0.1h0.1c-0.2,0-0.1,0.1-0.3,0c0,0,0,0,0.1,0.1h0.2c0.2,0.1-0.3,0-0.4,0.1h0.2c-0.4,0.1,0.2,0.2,0,0.3
				c-0.1-0.1-0.4,0-0.3,0s0,0.2,0.3,0.3c-0.2,0-0.4,0-0.6,0.1c0,0.1,0.1,0.1,0.3,0.1c-0.1,0.1,0.1,0.2-0.2,0.2c0.2,0,0,0.1,0.1,0.1
				h0.1c-0.6,0.1,0.3,0.2-0.2,0.3H135h0.1c-0.1,0-0.2,0-0.3,0v0.2h0.2c0,0,0.3,0.1,0.1,0.1c-0.4-0.1,0,0.1-0.3,0.1h-0.1
				c0,0.1,0,0.1,0.3,0.1c0.1,0.1-0.5,0.1-0.2,0.1l0,0c0.1,0,0.4,0,0.4,0.1c-0.1,0-0.1,0-0.2,0c0.1,0.1,0,0.1,0.1,0.2
				c-0.1,0-0.2,0-0.3,0c0.2,0.1-0.1,0.1,0.2,0.2h-0.1l0.2,0.1l-0.3,0.1h0.2c0,0,0.1,0.1,0,0.1h-0.2c0.1,0.1-0.4,0.1-0.1,0.3h-0.1
				c0.3,0.1-0.4,0.1,0,0.2h-0.2l0.1,0.1H134h0.4h-0.3h0.1c-0.6,0-0.1,0.1-0.6,0.2h0.3c0.8,0.2-0.4,0.4-0.1,0.6h-0.3l0.3,0.1
				c-0.2,0.1-0.2,0-0.4,0c0.1,0.1,0.4,0,0.5,0.1c-0.2,0.1-0.2,0-0.3-0.1c0.1,0.1,0.3,0.3,0.1,0.4h0.1c0.1,0.1,0,0.2,0,0.2
				c-0.1,0-0.1,0-0.2,0s-0.1,0.1,0,0.1h-0.2c-0.1,0.1,0.2,0.2-0.1,0.2c0.1,0,0.3,0,0.3,0.1c-0.4,0,0.2,0.1-0.1,0.2s-0.1-0.1-0.1-0.1
				s0.1,0.1,0.2,0.1h-0.2l0.2,0.2c-0.4,0,0.1,0.2-0.3,0.2c0,0.1,0.2-0.1,0.2,0c-0.2,0,0.1,0.1-0.2,0.1l0,0v0.1h-0.3
				c0.2,0.1,0.4,0.1,0.6,0.1c-0.1,0.1,0,0.1-0.3,0.1h-0.1c0.1,0.1-0.8,0.2-0.3,0.4h-0.1v0.1H133l0.3,0.1h-0.1c0,0.1,0,0.2,0.1,0.4
				h-0.1c0.2,0.1-0.1,0.1,0,0.2h-0.1v0.1H133c0.3,0.1-0.4,0.2-0.1,0.1c0.2,0.1,0.3,0.1,0.5,0.1c0,0.1-0.2,0-0.3,0.1s0.2,0.1,0.1,0.2
				H133c0,0,0.1,0.1,0.1,0.1h-0.1c0.3,0.1-0.4,0.1,0.2,0.2c-0.1,0,0,0.1-0.3,0.1c0.1,0.1,0.3,0.2,0.4,0.4c-0.5,0,0,0-0.2,0.1h0.2
				c0,0.2-0.6,0.4-0.5,0.6h-0.3h0.3c-0.1,0.2-0.2,0.4-0.2,0.6c0.1,0.1,0.4,0.1,0.3,0.2l0,0c0.1,0.1,0.2,0.3,0.1,0.5
				c-0.1,0-0.2,0-0.3,0c0.3,0,0,0.1,0,0.1h0.2c0.2,0,0,0.1-0.2,0.1l0.3,0.1l0,0h-0.3c0.1,0.1,0.3,0.1,0.5,0.1c-0.1,0-0.2,0.1-0.3,0
				l-0.1,0.3h0.1c0.3,0,0.4,0.1,0.3,0.1c-0.2,0-0.4,0-0.6,0c0.1,0,0.2,0,0.4,0s0.3,0.1,0.1,0.2h-0.1c0.1,0.1-0.4,0.1-0.3,0.1
				c0.2,0.1,0,0.1,0.5,0.1c0.1,0.1-0.3,0-0.3,0.1c0.2,0,0.1,0.1-0.1,0.2c0.6,0-0.2,0.2,0.3,0.2l-0.3,0.1c0.2,0,0.4,0,0.5,0.1
				c-0.2,0-0.4,0-0.6,0h0.5c-0.6,0.3-0.2,0.7-0.7,1c0.1,0.1,0.4,0.3,0.3,0.5h-0.1l-0.1,0.2l0.2-0.1c0.1,0,0.2,0.1,0.2,0.1
				c-0.2,0.2-0.5,0.4-0.2,0.6c0.6,0.1-0.6,0.1-0.1,0.2h-0.2c0.2,0.2,0.4,0.3,0.7,0.4c-0.6,0,0,0.1-0.3,0.1h0.2
				c-0.1,0-0.2,0.1-0.4,0.1l0.3,0.1h-0.3c0,0.1,0.2,0.3-0.3,0.3c0.4,0.2,0.3,0.6,0.2,0.8c0.2,0,0.2,0.1,0.2,0.2l-0.3,0.1
				c0.1,0.1,0.5,0.1,0.3,0.2h-0.1c0.1,0.1-0.1,0.1,0.2,0.2c0,0.1-0.2,0.1-0.5,0.1c0.5,0-0.1,0.1-0.1,0.1s-1.2,3.6,1.5,4.5
				c0.2,0.1,0.5,0.1,0.7,0.1c0.1,0.1-0.4,0.1-0.1,0.1s0.6,0,1-0.1l0.1,0.1c0.2,0-0.2-0.1,0.1-0.1h-0.5c0.1-0.1,0.2-0.1,0.3-0.1
				c-0.2,0-0.8-0.1-0.5-0.2l0,0c0-0.1,0.3-0.1,0.4-0.1l0,0l0.2-0.1c-0.2,0.1,0.2,0.1,0.2,0.1c0.1-0.1-0.1,0-0.2-0.1s0.2,0,0.4,0
				v-0.1c0.2,0,0,0.1,0.2,0l-0.2-0.1c0.6,0-0.3-0.1,0.2-0.2c0.1,0.1,0.2,0,0.4,0v-0.2c0.1,0,0.2,0,0.1,0c0.1,0-0.1-0.1-0.1-0.1
				c0.1,0,0-0.1,0.4-0.1s-0.5,0-0.2-0.2s0.1,0.1,0.3,0l-0.1-0.1c0.1,0,0.4,0,0.3,0.1c0.3-0.3,1.4-0.5,1.1-0.8c0.3,0,0.2,0,0.4,0.1
				c-0.4-0.2,0.6-0.3,0.6-0.5h-0.2c0.7-0.2,0.3-0.6,0.6-0.8h-0.1c-0.1,0-0.2-0.1-0.3-0.1c0.1,0,0.5,0,0.4,0c-0.1,0-0.2,0-0.3,0
				c0.6-0.2,0.4-0.8,0.7-1.1c-0.2-0.5,0.3-1.1,0.1-1.6c0,0.1-0.5,0.1-0.4,0c0.9-0.2-0.1-0.3,0.5-0.4c-0.3-0.3,0.5-0.6-0.2-0.9h0.3
				c0.1,0-0.1-0.1-0.1-0.1h0.1c0.1-0.1-0.2-0.2,0-0.3H140c0-0.1,0.2,0,0.1-0.1h0.1l-0.3-0.1c0.5,0,0-0.2,0.3-0.2
				c-0.1-0.1-0.3-0.2-0.2-0.4c0.3,0,0.2-0.2,0.4-0.3c-0.1-0.2-0.1-0.5-0.1-0.7H140v-0.1h0.1c0.4,0-0.1-0.1,0.1-0.2
				c-0.3,0-0.1,0-0.1,0.1s-0.5,0-0.3-0.1h0.1h-0.2c0.3,0,0.4-0.1,0.6-0.1c-0.1-0.2-0.5-0.4-0.4-0.6c0.3,0-0.1-0.1,0.4-0.1
				c-0.2-0.1-0.4,0-0.8,0c0,0-0.1-0.1,0-0.1s0.3,0,0.4,0v-0.1c0,0,0.1,0,0.1,0c-0.3-0.2,0.3-0.3,0-0.5s-0.1,0.1-0.2,0
				c-0.4-0.2,0.3-0.1,0.1-0.3h0.2c-0.2,0-0.4-0.1-0.2-0.1s0.2,0.1,0.4,0.1s-0.1-0.2-0.3-0.1c-0.1-0.1,0.2-0.1,0.2-0.1
				c-0.1,0-0.2,0-0.3,0c0.2-0.1,0.2-0.2,0.2-0.3c0.1,0,0.1,0,0.2,0C140.1,162.7,140.7,162.7,140.6,162.6z"/>
			<path class="st3" d="M139.1,157L139.1,157c0.1,0,0.1,0,0.2,0H139.1z"/>
			<path class="st3" d="M139,159L139,159L139,159z"/>
			<path class="st3" d="M139.5,159.4c-0.1,0-0.1,0-0.2,0C139.3,159.5,139.4,159.5,139.5,159.4z"/>
			<path class="st3" d="M138.4,155.8L138.4,155.8z"/>
			<path class="st3" d="M138.6,152.7L138.6,152.7L138.6,152.7z"/>
			<path class="st3" d="M138.1,152.9L138.1,152.9C138.1,152.9,138.2,152.9,138.1,152.9z"/>
			<path class="st3" d="M138.5,156.6L138.5,156.6C138.6,156.6,138.5,156.6,138.5,156.6z"/>
			<path class="st3" d="M138.2,152.9L138.2,152.9L138.2,152.9z"/>
			<path class="st3" d="M138.6,152.6L138.6,152.6C138.6,152.6,138.7,152.6,138.6,152.6z"/>
			<path class="st3" d="M138,154.7L138,154.7C138.1,154.7,138.1,154.7,138,154.7z"/>
			<polygon class="st3" points="138.7,153.1 138.7,153.1 138.8,153.1 			"/>
			<path class="st3" d="M138.7,152.4L138.7,152.4L138.7,152.4z"/>
			<path class="st3" d="M138.4,154c-0.1,0-0.2,0-0.2,0C138.2,154,138.3,154,138.4,154z"/>
			<path class="st3" d="M123.3,139.1L123.3,139.1L123.3,139.1z"/>
			<path class="st3" d="M123.8,140.9L123.8,140.9C123.8,140.9,123.8,140.9,123.8,140.9z"/>
			<path class="st3" d="M122.9,138.2L122.9,138.2C122.9,138.2,122.9,138.2,122.9,138.2L122.9,138.2z"/>
			<path class="st3" d="M125.5,143.9L125.5,143.9C125.5,143.9,125.5,143.9,125.5,143.9z"/>
			<path class="st3" d="M124.6,142C124.6,142,124.6,142,124.6,142C124.6,142,124.6,142,124.6,142z"/>
			<path class="st3" d="M124.6,135.9l-0.1,0.1C124.5,136,124.5,135.9,124.6,135.9z"/>
			<path class="st3" d="M123.3,135.8L123.3,135.8z"/>
			<path class="st3" d="M123.1,136.6L123.1,136.6C123.1,136.6,123.1,136.5,123.1,136.6z"/>
			<path class="st3" d="M123.2,136.5L123.2,136.5C123.2,136.5,123.2,136.5,123.2,136.5z"/>
			<path class="st3" d="M134.8,151.8c0,0,0.1-0.1,0.2-0.1L134.8,151.8z"/>
			<path class="st3" d="M127.6,146.1L127.6,146.1C127.5,146.1,127.6,146.1,127.6,146.1z"/>
			<path class="st3" d="M136,150.6L136,150.6L136,150.6z"/>
			<path class="st3" d="M125.3,135.9c0.2-0.1,0,0.1,0.2,0C125.4,135.8,125.4,135.7,125.3,135.9z"/>
			<path class="st3" d="M133,141.6L133,141.6z"/>
			<path class="st3" d="M136,150.6L136,150.6L136,150.6L136,150.6z"/>
			<path class="st3" d="M129.7,148.4L129.7,148.4L129.7,148.4z"/>
			<path class="st3" d="M129.6,148.7L129.6,148.7C129.6,148.7,129.6,148.7,129.6,148.7z"/>
			<path class="st3" d="M135,151.7l0.1-0.1C135.1,151.6,135,151.6,135,151.7z"/>
			<path class="st3" d="M131.1,149.8L131.1,149.8z"/>
			<path class="st3" d="M124.6,141.9L124.6,141.9C124.6,141.9,124.5,141.9,124.6,141.9z"/>
			<polygon class="st3" points="128.9,139.2 128.9,139.2 128.9,139.2 			"/>
			<path class="st3" d="M128.7,139.4c0,0.1,0.1,0,0.2-0.1S128.9,139.2,128.7,139.4z"/>
			<path class="st3" d="M129,139.4L129,139.4L129,139.4z"/>
			<path class="st3" d="M128.3,138.2L128.3,138.2z"/>
			<path class="st3" d="M128.5,138.4L128.5,138.4C128.5,138.4,128.5,138.4,128.5,138.4z"/>
			<polygon class="st3" points="129.8,139.5 129.8,139.5 129.8,139.5 			"/>
			<path class="st3" d="M132.6,140.3c-0.2-0.1-0.8-0.1-0.9-0.3c-0.3,0.2-0.4,0.2-0.5,0.2l0.4-0.4l-0.2,0.1c0.1-0.1,0.1,0,0.2-0.2
				l-0.2,0.2c0.1-0.1,0-0.2,0.3-0.4l-0.2-0.2c0-0.1-0.3,0.3-0.3,0.1s0.1-0.1,0.2-0.2c0.1-0.4-0.9,0.5-0.8,0.2h0.1
				c-0.1,0.1-0.1,0-0.2,0.1c-0.4,0.4,0.2-0.2,0,0.1s-0.2,0.1-0.4,0.4c0.1-0.1-0.1,0-0.2,0c0.1-0.2,0-0.2,0.2-0.4
				c-0.1,0.1-0.4,0.4-0.5,0.3c0.2-0.3,0.2-0.2,0.3-0.4l-0.2,0.2c0-0.1,0-0.1,0.1-0.2s-0.3,0.2-0.2,0.1l0.2-0.1c-0.1,0-0.1,0-0.1-0.1
				s0.1-0.1,0.1,0c0.2-0.3-0.2,0.1-0.1,0c-0.1,0.1-0.2,0.2-0.3,0.3c0-0.1-0.3,0.2-0.1,0l0.2-0.1c-0.2,0.1-0.2,0.2-0.2,0.1l0.1-0.1
				c-0.3,0.2-0.1-0.1-0.1-0.1h0.1c-0.1,0-0.2,0.2-0.2,0.2c-0.1,0.1-0.2,0.3-0.3,0.4c0.2-0.3-0.4,0.3-0.3,0s0.2-0.2,0.1-0.1
				c0.2-0.2,0.5-0.4,0.8-0.6c-0.1,0-0.2,0,0-0.1l-0.3,0.3l0,0c-0.2,0.2-0.2,0.3-0.4,0.4s0.3-0.3,0.1-0.2s-0.3,0.3-0.3,0.1
				s0.1-0.1,0.1,0c0.1-0.1-0.1,0,0.2-0.4c0.1-0.1,0.2-0.2,0.2-0.1l-0.1,0.1c0.3-0.2-0.1,0,0.2-0.3c-0.2,0.2-0.2,0.1-0.2,0l-0.2,0.2
				c-0.7,0.5,0.4-0.4,0.2-0.4s0,0.1-0.2,0.2c0-0.1,0.2-0.3,0-0.2c0.1-0.2,0.2-0.3,0.4-0.5c-0.1,0.1,0-0.2-0.2,0s0.3-0.2,0.1,0.2
				l-0.2,0.2c0,0-0.2,0-0.1-0.1l-0.1,0.2c-0.1,0-0.4,0.2-0.4,0.1c0.2-0.2,0.2-0.1,0.2-0.1c0.1-0.2,0-0.1,0-0.2
				c0.2-0.2,0,0.1,0.2-0.1h-0.1l0,0c-0.3,0.3,0-0.1-0.1,0c-0.1-0.1-0.5,0.3-0.8,0.5c0.1-0.1,0.1-0.2,0.2-0.2c-0.1,0.2,0,0.1,0.1,0
				c-0.1,0,0.2-0.4,0.4-0.5c-0.1,0-0.1,0.2-0.3,0.2v-0.1c-0.2,0.2-0.2,0.2-0.3,0.3s-0.1,0-0.1-0.1s0.2-0.2,0.2-0.2s0-0.1-0.1,0
				s-0.2,0.1-0.4,0.3l0.1-0.2c0,0,0.1-0.1,0.1,0c0.2-0.2-0.1,0-0.1,0s0-0.1,0.1-0.2c-0.1,0.1-0.1,0,0-0.2c-0.1,0-0.2,0.2-0.2,0.2
				v-0.1c0.1-0.1,0.5-0.5,0.5-0.5c-0.1,0.1-0.4,0.4-0.4,0.3c0.3-0.2,0.1-0.2,0.5-0.5c0.2-0.2,0.1-0.3,0-0.2s-0.1,0.1-0.3,0.4
				c-0.2,0-0.7,0.5-0.7,0.4v0.1c-0.1,0-0.2,0.1-0.3,0.2c0.3-0.2,0.6-0.7,0.5-0.8s-0.2,0.3-0.4,0.5h-0.1l0.1-0.1
				c-0.1,0,0.2-0.4-0.1-0.1l0.3-0.4l-0.1,0.2c-0.1,0.1-0.2,0.1-0.3,0.1c-0.2,0.1-0.1,0,0-0.2c-0.1,0.1-0.3,0.4-0.4,0.4
				c0.4-0.4,0.1-0.2,0.3-0.4c0,0,0.1-0.2-0.1,0l0.3-0.2c-0.4,0.4-0.4,0.3-0.5,0.3c0.5-0.5-0.1,0,0.3-0.5c-0.3,0.3-0.2,0.1-0.5,0.3
				c-0.1,0,0.3-0.3,0.4-0.4l-0.1,0.1c0.1-0.2,0.1-0.3,0.2-0.4l-0.3,0.3l0.1-0.1c-0.1,0.1-0.2,0.1-0.2,0.2l0,0
				c-0.3,0.3-0.1,0.1-0.3,0.2c0.1-0.1,0.1-0.1,0.2-0.2c0,0,0.2-0.2,0.2-0.3c-0.1,0.1-0.6,0.5-0.7,0.7s-0.3,0.2-0.2,0.1l0.3-0.3
				l-0.3,0.3c-0.1,0,0.1-0.2,0.1-0.2s0.6-0.5,0.5-0.6s0.2-0.1,0.3-0.2s0-0.1,0.2-0.2c-0.1,0-0.2,0.2-0.3,0.1
				c0.2-0.1,0.3-0.3,0.4-0.5l-0.2,0.2l-0.1,0.1c0,0.1-0.1,0.1-0.2,0.2c0,0-0.4,0.3-0.2,0.1c-0.3,0.4-0.4,0.2-0.6,0.5
				c-0.1,0.1-0.1,0,0-0.1s0.3-0.3,0.4-0.5c-0.1,0.1-0.2,0.2-0.3,0.3s0.1-0.2,0.2-0.3h0.1l0.1-0.2c-0.1,0.1-0.2,0.3-0.3,0.3
				s-0.1,0,0-0.1s0.4-0.4,0.5-0.4s-0.2-0.1-0.4,0.2l0,0c-0.1,0.1-0.2,0.4-0.3,0.4v-0.1l-0.2,0.1l0.1-0.1c-0.1,0.1-0.1,0.1-0.1,0.1
				c0.1-0.1,0.1-0.2,0.2-0.2c-0.1,0-0.2,0.1-0.3,0.2s0-0.1,0.2-0.2c0-0.1-0.1-0.1,0-0.3c-0.2,0.1-0.1,0.1-0.2,0.2
				c0.4-0.5,0-0.3-0.1-0.3c-0.4,0.4-0.1,0-0.4,0.4c0.1-0.1,0.2-0.4,0.4-0.4h-0.1c0.2-0.2,0.2-0.1,0.5-0.4c-0.1,0-0.5,0.4-0.4,0.2
				c0.3-0.3-0.1,0.1,0.2-0.2c0.1-0.1,0.1,0,0.1,0v-0.1c0-0.2-0.4,0.3-0.6,0.4c-0.1,0,0.2-0.3,0.3-0.4s0-0.1-0.1,0
				c0.2-0.1-0.1,0.2-0.3,0.4c0.3-0.3-0.1-0.1-0.2,0c-0.2,0.4,0,0.1-0.2,0.5c0.1-0.1,0.4-0.4,0.3-0.2c-0.1,0-0.2,0.1-0.2,0.2
				c0.2-0.2,0.1,0,0.2-0.1c-0.1,0.1-0.4,0.4-0.4,0.5l0.4-0.4c0,0.1-0.3,0.3-0.2,0.2c-0.2,0.2-0.3,0.3-0.4,0.3
				c-0.3,0.4,0.3-0.1,0.5-0.2c0,0-0.1,0.1-0.1,0.1c0.1-0.1,0.1-0.1,0.2-0.1s-0.2,0.1-0.3,0.3l0.1,0.1l0,0c0.1,0,0.1-0.1,0,0
				l-0.4,0.3l0.3-0.2c-0.1,0.1-0.2,0.3-0.3,0.3h0.1l-0.2,0.3c0.1,0,0.1-0.1,0.1-0.1c0,0.1,0.6-0.3,0.1,0.2c0.3-0.1,0.2,0,0.4-0.1
				c-0.3,0.2-0.2,0.4-0.4,0.4s0.2-0.1,0.3-0.1c-0.1,0.2-0.3,0.3-0.5,0.4l0.2-0.1h-0.1l0.2-0.1c-0.1,0.2-0.2,0.3-0.2,0.3l0.2-0.2
				l-0.1,0.2c0.1-0.1,0.2-0.1,0.2-0.1v0.1h0.1c-0.2,0.1,0,0.1-0.2,0.2c0,0,0,0,0.1,0l0.2-0.2c0.2-0.1-0.2,0.2-0.2,0.3l0.2-0.2
				c-0.2,0.4,0.3-0.1,0.2,0.2c-0.1,0-0.3,0.2-0.2,0.2s0.1,0.1,0.4-0.1c-0.2,0.2-0.3,0.3-0.4,0.5c0,0,0.1,0,0.2-0.1
				c-0.1,0.1,0.2,0.1,0,0.2c0.2-0.1,0,0.1,0.2-0.1l-0.1,0.1l0.2-0.2c-0.3,0.5,0.3-0.1,0,0.3h-0.1l0.1-0.1c-0.1,0.1-0.2,0.2-0.2,0.2
				l0.1,0.1l0.1-0.2c0,0,0.2-0.1,0.2,0c-0.3,0.2,0,0-0.2,0.3h-0.1c0.1,0,0.1,0,0.2-0.2c0.1,0-0.3,0.4-0.1,0.2l0,0
				c0.1-0.1,0.3-0.2,0.3-0.2s-0.1,0.1-0.1,0.1c0.1,0,0.1,0.1,0.2,0.1c-0.1,0.1-0.1,0.2-0.2,0.2c0.2-0.1,0,0.1,0.2,0l-0.1,0.1
				l0.1-0.1l-0.2,0.3l0.1-0.1c0,0,0.1,0,0.1,0l-0.2,0.1c0.2,0-0.2,0.3,0.1,0.2c0,0-0.1,0.1-0.1,0.1c0.3-0.2-0.2,0.3,0.1,0.1
				c0,0.1-0.1,0.1-0.2,0.2l0.1-0.1l-0.2,0.2l0.3-0.3l-0.2,0.2l0.1-0.1c-0.4,0.4,0,0.2-0.3,0.5l0.2-0.3c0.6-0.4-0.1,0.6,0.3,0.4
				l-0.2,0.2l0.3-0.2c-0.1,0.2-0.2,0.2-0.3,0.3c0.2-0.1,0.3-0.3,0.4-0.3c-0.1,0.2-0.2,0.1-0.2,0.2c0.2,0,0.4-0.1,0.3,0.1l0.1-0.1
				c0.1,0,0.1,0.1,0.2,0.1c-0.1,0.1-0.1,0.1-0.2,0.1s0,0.1,0.1,0l-0.2,0.2c0,0.1,0.2,0,0,0.2c0.1-0.1,0.2-0.2,0.2-0.2
				c-0.3,0.3,0.2-0.1,0.1,0.2c-0.1,0.1-0.1,0.1-0.1,0.1s0.1,0,0.2-0.1l-0.1,0.1l0.3-0.1c-0.3,0.3,0.2,0.1-0.1,0.3
				c0,0.1,0.1-0.2,0.2-0.2c-0.1,0.1,0.1,0-0.1,0.2l0,0h0.1L125,143c0.2-0.1,0.3-0.2,0.4-0.3c-0.1,0.1,0,0.1-0.1,0.3h-0.1
				c0.2,0-0.4,0.7,0,0.4c0,0-0.1,0.1-0.1,0.1v0.1l-0.2,0.1l0.3-0.1l-0.1,0.1c0,0.1,0.2,0.1,0.2,0.2h-0.1c0.2-0.1,0,0.2,0.1,0.1l0,0
				v0.1l-0.1,0.1c0.3-0.2-0.2,0.4,0,0.2c0.1-0.1,0.3-0.2,0.4-0.3c0.1,0-0.1,0.1-0.2,0.3s0.2-0.1,0.2,0l-0.1,0.1c0,0,0.1,0,0.2,0
				h-0.1c0.3-0.1-0.2,0.4,0.3,0c0,0.1,0.1,0.1-0.2,0.3c0.2,0,0.3-0.1,0.5-0.1c-0.3,0.4,0,0-0.1,0.2l0.2-0.2c0.1,0.1-0.2,0.6,0,0.7
				l-0.2,0.2l0.2-0.2c0,0.2,0.1,0.4,0.2,0.5c0.1-0.1,0.4-0.2,0.4-0.1l0,0c0.2,0,0.3,0,0.3,0.2s-0.1,0.1-0.2,0.2
				c0.2-0.2,0.1,0,0.1,0.1l0.1-0.2c0.2-0.1,0.1,0.1,0,0.2l0.2-0.1l-0.1,0.1l0.1-0.1l-0.2,0.3c0.2-0.1,0.3-0.1,0.4-0.2
				c-0.1,0.1-0.1,0.2-0.2,0.2l0.1,0.2l0.1-0.1c0.2-0.2,0.3-0.3,0.3-0.1c-0.2,0.1-0.3,0.2-0.4,0.4c0.1-0.1,0.1-0.2,0.3-0.3
				c0.1-0.1,0.3-0.1,0.2,0l-0.1,0.1c0.1,0-0.2,0.3-0.1,0.3s0.1,0,0.4-0.3c0.1,0-0.2,0.2-0.2,0.3c0.2-0.1,0.1,0,0,0.2
				c0.5-0.4,0,0.3,0.4-0.1l-0.2,0.3c0.1-0.1,0.3-0.2,0.4-0.3c-0.1,0.2-0.2,0.3-0.4,0.4l0.4-0.4c-0.2,0.6,0.2,0.5,0.1,1
				c0.2,0,0.4-0.1,0.5,0.1h-0.1v0.2l0.1-0.2c0.1,0,0.2-0.1,0.2-0.1c-0.1,0.3-0.1,0.6,0.2,0.5c0.5-0.4-0.3,0.4,0.1,0.2
				c-0.1,0-0.1,0.1-0.2,0.1c0.2-0.1,0.5-0.1,0.7-0.3c-0.4,0.4,0.1,0-0.2,0.3l0.2-0.2c-0.1,0.1-0.1,0.2-0.2,0.3l0.3-0.2l-0.2,0.2
				c0,0.1,0.3,0-0.1,0.4c0.4-0.1,0.5,0.1,0.6,0.4c0.2-0.1,0.2-0.1,0.3-0.1l-0.2,0.2c0.1,0,0.4-0.3,0.3-0.1s0,0-0.1,0s0,0.1,0.2,0
				c0,0,0,0.2-0.3,0.4c0.4-0.4,0,0.1,0,0.1s1.2,2.9,3.6,1.5c0.2-0.1,0.4-0.3,0.5-0.5c0.1,0-0.2,0.3,0,0.1s0.5-0.4,0.6-0.7h0
				c0.1-0.1-0.2,0.1,0.1-0.1l-0.3,0.3c0-0.1,0.1-0.2,0.2-0.3c-0.2,0.1-0.6,0.5-0.5,0.3l0,0c-0.1,0,0.2-0.2,0.2-0.3l0,0l0.1-0.2
				c-0.1,0.1,0.2-0.1,0.2-0.1s-0.1,0.1-0.1,0.1s0.1-0.2,0.2-0.3H136c0.1-0.1,0,0,0.2-0.1L136,150c0.4-0.4-0.2,0.1,0.1-0.3
				c0.1,0,0.1-0.1,0.3-0.2l-0.1-0.1c0-0.1,0.1-0.1,0.1-0.1s-0.1,0.1-0.1,0s-0.1-0.1,0.2-0.3c0.1-0.2-0.4,0.3-0.3,0.1s0.1,0,0.2-0.2
				h-0.1c0.1-0.1,0.3-0.2,0.3-0.2c0-0.4,0.8-1.3,0.4-1.3c0.2-0.2,0.1-0.1,0.3-0.2c-0.4,0.1,0.2-0.6,0.1-0.7l-0.2,0.1
				c0.3-0.6-0.1-0.5-0.1-0.9l-0.1,0.1c-0.1,0.1-0.2,0.1-0.3,0.1c0.1-0.1,0.4-0.3,0.2-0.3c0,0.1-0.1,0.1-0.2,0.2
				c0.3-0.5-0.1-0.7-0.1-1.1c-0.4-0.2-0.4-0.8-0.8-1c0.1,0-0.3,0.4-0.3,0.3c0.6-0.7-0.3-0.1,0.1-0.6c-0.4,0,0-0.7-0.6-0.4l0.2-0.2
				c0.1-0.1-0.1,0-0.1,0l0,0c0-0.1-0.2,0-0.2-0.1l-0.2,0.2c-0.1,0,0.1-0.2,0-0.1l0.1-0.1l-0.2,0.1c0.4-0.4-0.1-0.1,0.1-0.3
				c-0.1,0-0.4,0.1-0.4-0.1c0.2-0.2,0.1-0.3,0.1-0.4c-0.1-0.1-0.4-0.1-0.4-0.4l-0.2,0.2h-0.1c0.1,0,0.1-0.1,0.1-0.1
				c0.2-0.3-0.2,0,0-0.2c-0.2,0.2,0,0.1,0,0.1s-0.3,0.3-0.3,0.2h0.1l-0.1,0.1c0.2-0.2,0.2-0.3,0.4-0.5c-0.2-0.1-0.6,0.2-0.6-0.1
				c0.2-0.2-0.1,0,0.2-0.4c-0.2,0.1-0.3,0.3-0.6,0.5c0,0-0.1,0,0-0.1s0.2-0.2,0.2-0.2h-0.1l0.1-0.1c-0.3,0.1,0.1-0.4-0.2-0.3
				s0,0.1-0.1,0.2c-0.3,0.2,0.1-0.3-0.1-0.2l0.2-0.2c-0.1,0.1-0.3,0.2-0.2,0.1s0.2-0.1,0.3-0.2s-0.1-0.1-0.3,0.1
				c-0.1,0,0.1-0.2,0.1-0.2c-0.1,0.1-0.1,0.2-0.2,0.2c0-0.1,0-0.2-0.1-0.3l0.1-0.1C132.2,140.8,132.7,140.3,132.6,140.3z"/>
			<path class="st3" d="M128.3,138.1L128.3,138.1c0,0,0.1,0,0.2-0.1L128.3,138.1z"/>
			<path class="st3" d="M129.3,139.4L129.3,139.4L129.3,139.4z"/>
			<path class="st3" d="M130,139.3c-0.1,0-0.1,0.1-0.1,0.2C129.9,139.5,130,139.4,130,139.3z"/>
			<path class="st3" d="M127.1,138L127.1,138L127.1,138z"/>
			<path class="st3" d="M125.5,136.1L125.5,136.1z"/>
			<path class="st3" d="M125.2,136.5L125.2,136.5C125.3,136.5,125.3,136.5,125.2,136.5z"/>
			<path class="st3" d="M127.6,138.4L127.6,138.4C127.7,138.3,127.7,138.4,127.6,138.4z"/>
			<path class="st3" d="M125.3,136.5L125.3,136.5L125.3,136.5L125.3,136.5z"/>
			<path class="st3" d="M125.4,136C125.5,136,125.5,136,125.4,136C125.5,136,125.5,136,125.4,136z"/>
			<path class="st3" d="M126.2,137.6L126.2,137.6C126.3,137.6,126.2,137.6,126.2,137.6z"/>
			<polygon class="st3" points="125.8,136.2 125.8,136.2 125.9,136.2 			"/>
			<path class="st3" d="M125.4,135.8C125.4,135.8,125.5,135.8,125.4,135.8L125.4,135.8L125.4,135.8z"/>
			<path class="st3" d="M126.1,136.9l-0.2,0.2C125.9,137.1,126,137.1,126.1,136.9z"/>
			<path class="st3" d="M147.5,136.9c0,0-0.1-0.1-0.1-0.1C147.5,136.8,147.5,136.9,147.5,136.9z"/>
			<path class="st3" d="M145.8,137.4L145.8,137.4C145.8,137.4,145.8,137.4,145.8,137.4z"/>
			<path class="st3" d="M148.4,136.5L148.4,136.5L148.4,136.5L148.4,136.5z"/>
			<path class="st3" d="M142.8,139.1L142.8,139.1C142.8,139.1,142.8,139.1,142.8,139.1z"/>
			<path class="st3" d="M144.6,138.2C144.7,138.2,144.7,138.2,144.6,138.2C144.7,138.2,144.7,138.2,144.6,138.2z"/>
			<path class="st3" d="M150.8,138.1l-0.1-0.1C150.7,138.1,150.7,138.1,150.8,138.1z"/>
			<path class="st3" d="M150.9,136.9L150.9,136.9z"/>
			<path class="st3" d="M150.1,136.6C150.1,136.7,150.1,136.7,150.1,136.6C150.1,136.7,150.2,136.7,150.1,136.6z"/>
			<path class="st3" d="M150.2,136.8L150.2,136.8C150.2,136.8,150.1,136.8,150.2,136.8z"/>
			<path class="st3" d="M134.9,148.4c0,0,0.1,0.1,0.1,0.2L134.9,148.4z"/>
			<path class="st3" d="M140.6,141.2L140.6,141.2L140.6,141.2z"/>
			<path class="st3" d="M136,149.6L136,149.6z"/>
			<path class="st3" d="M150.8,138.9c0.1,0.1-0.1,0,0.1,0.2C150.8,139,151,139.1,150.8,138.9z"/>
			<path class="st3" d="M145.1,146.6L145.1,146.6z"/>
			<path class="st3" d="M136,149.6L136,149.6L136,149.6C136,149.5,136,149.5,136,149.6z"/>
			<path class="st3" d="M138.3,143.3L138.3,143.3L138.3,143.3z"/>
			<path class="st3" d="M138,143.2C138,143.2,138,143.2,138,143.2C138,143.2,137.9,143.2,138,143.2z"/>
			<path class="st3" d="M135,148.6l0.1,0.1C135.1,148.7,135,148.6,135,148.6z"/>
			<path class="st3" d="M136.9,144.7L136.9,144.7C136.9,144.7,136.9,144.7,136.9,144.7z"/>
			<path class="st3" d="M144.8,138.1L144.8,138.1C144.8,138.1,144.8,138.1,144.8,138.1z"/>
			<polygon class="st3" points="147.4,142.5 147.4,142.5 147.4,142.6 			"/>
			<path class="st3" d="M147.3,142.3c0,0,0,0.1,0.1,0.2S147.4,142.5,147.3,142.3z"/>
			<path class="st3" d="M147.3,142.6L147.3,142.6z"/>
			<path class="st3" d="M148.5,141.9L148.5,141.9z"/>
			<path class="st3" d="M148.3,142.1C148.3,142.1,148.2,142.1,148.3,142.1L148.3,142.1z"/>
			<polygon class="st3" points="147.2,143.4 147.2,143.4 147.2,143.4 			"/>
			<path class="st3" d="M146.4,146.1c0.1-0.2,0.1-0.8,0.3-0.9c-0.2-0.3-0.2-0.4-0.2-0.5l0.4,0.4l-0.1-0.2c0.1,0.1,0,0.1,0.2,0.2
				l-0.2-0.2c0.1,0.1,0.2,0,0.4,0.3l0.2-0.2c0,0-0.3-0.3-0.1-0.3s0.1,0.1,0.2,0.2c0.4,0.1-0.6-0.9-0.3-0.8v0.1
				c-0.1-0.1,0-0.1-0.1-0.2c-0.4-0.4,0.2,0.2-0.1,0s-0.1-0.2-0.4-0.4c0.1,0.1,0-0.1,0-0.2c0.2,0.1,0.2-0.1,0.4,0.2
				c-0.1-0.1-0.4-0.4-0.3-0.5c0.3,0.2,0.2,0.2,0.4,0.3l-0.2-0.2c0.1,0,0.1,0,0.2,0.1s-0.2-0.3,0-0.2l0.1,0.2c0-0.1,0-0.1,0.1-0.1
				s0.1,0.1,0,0.1c0.3,0.2-0.1-0.2,0-0.1c-0.1,0-0.3-0.1-0.4-0.2c0.1,0-0.2-0.3,0-0.1l0.1,0.2c-0.1-0.2-0.2-0.2-0.1-0.2l0.1,0.1
				c-0.2-0.3,0.1-0.1,0.1-0.1v0.1c0-0.1-0.2-0.2-0.2-0.2c-0.1-0.1-0.2-0.2-0.4-0.3c0.3,0.2-0.3-0.4,0-0.3s0.2,0.2,0.1,0.1
				c0.2,0.2,0.4,0.5,0.6,0.8c0-0.1-0.1-0.2,0.1,0l-0.3-0.3c0,0,0,0,0.1,0c-0.2-0.2-0.3-0.2-0.4-0.4s0.3,0.3,0.2,0.1
				s-0.3-0.3-0.1-0.3s0,0.1,0,0.1c0.1,0.1,0-0.1,0.4,0.2c0.1,0.1,0.2,0.2,0.1,0.2v-0.1c0.2,0.3,0-0.1,0.3,0.2
				c-0.2-0.2-0.1-0.2,0-0.2l-0.2-0.2c-0.5-0.7,0.4,0.4,0.4,0.2s-0.1,0-0.2-0.2c0.1,0,0.3,0.2,0.2,0c0.2,0.1,0.3,0.2,0.5,0.4
				c-0.1-0.1,0.2,0,0-0.2s0.2,0.3-0.2,0.1l-0.2-0.2c0.1,0,0-0.2,0.1-0.1l-0.2-0.1c0-0.1-0.2-0.4-0.1-0.4c0.2,0.2,0.1,0.2,0.1,0.2
				c0.2,0.1,0,0,0.2,0c0.2,0.2,0,0,0.1,0.2v-0.1l0,0c-0.3-0.3,0.1,0,0-0.1c0.1-0.1-0.3-0.5-0.5-0.8c0.1,0.1,0.2,0.1,0.2,0.2
				c-0.2-0.1-0.1,0,0,0.1c0-0.1,0.4,0.2,0.5,0.4c0-0.1-0.2-0.1-0.2-0.3h0.1c-0.2-0.1-0.2-0.2-0.3-0.3s0-0.1,0.1-0.1s0.2,0.2,0.2,0.2
				s0.1,0,0-0.1s-0.1-0.2-0.3-0.4l0.2,0.1c0,0,0.1,0.1,0,0.1c0.2,0.2,0-0.1,0-0.1s0.1,0,0.2,0.1c0-0.1,0-0.1,0.2,0
				c0-0.1-0.1-0.2-0.2-0.2l0.1-0.1c0.1,0.1,0.5,0.5,0.5,0.5c-0.1-0.1-0.4-0.4-0.3-0.4c0.2,0.3,0.2,0.1,0.5,0.5
				c0.2,0.2,0.3,0.1,0.2,0c-0.2-0.2-0.2-0.1-0.4-0.3c0-0.2-0.5-0.7-0.4-0.7h-0.1c0-0.1-0.1-0.2-0.2-0.3c0.2,0.3,0.7,0.6,0.8,0.5
				s-0.3-0.2-0.5-0.4v-0.1c0,0,0.1,0.1,0.1,0.1c-0.1-0.1,0.4,0.2,0.1-0.1l0.4,0.3l-0.2-0.1c-0.1-0.1-0.1-0.2-0.1-0.3s0-0.1,0.2,0
				c-0.1-0.1-0.4-0.3-0.4-0.4c0.4,0.4,0.2,0.1,0.4,0.3c0,0,0.2,0.1,0-0.1l0.2,0.3c-0.4-0.4-0.3-0.4-0.3-0.5c0.5,0.5,0-0.1,0.5,0.3
				c-0.3-0.3-0.1-0.2-0.3-0.5c0-0.1,0.3,0.3,0.4,0.4l-0.1-0.1c0.2,0.1,0.3,0.1,0.4,0.2l-0.2-0.3l0.1,0.1c-0.1-0.1-0.1-0.2-0.2-0.2
				l0,0c-0.3-0.3,0-0.1-0.1-0.3c0.1,0.1,0.1,0.1,0.2,0.2c0.1,0.1,0.2,0.2,0.3,0.2c-0.1-0.1-0.5-0.6-0.7-0.7s-0.2-0.2-0.1-0.2
				l0.3,0.3l-0.3-0.3c0-0.1,0.2,0.1,0.2,0.1s0.5,0.6,0.6,0.5s0.1,0.2,0.2,0.3s0.1,0,0.2,0.2c0-0.1-0.2-0.2-0.1-0.3
				c0.3,0.3,0.4,0.3,0.5,0.4l-0.2-0.1l-0.1-0.1c0,0-0.1,0-0.2-0.1s-0.3-0.4-0.1-0.2c-0.4-0.4-0.2-0.4-0.5-0.6
				c-0.1-0.1-0.1-0.1,0.1,0s0.3,0.3,0.5,0.4c-0.1-0.1-0.2-0.1-0.3-0.3s0.2,0.1,0.3,0.2v0.1l0.1,0.1c-0.1-0.1-0.2-0.2-0.3-0.3
				s0-0.1,0.1,0s0.4,0.4,0.4,0.5s0.1-0.2-0.2-0.4l0,0c-0.1-0.1-0.4-0.2-0.3-0.3v0.1l-0.1-0.2l0.1,0.1c-0.1-0.1-0.1-0.1-0.1-0.1
				l0.2,0.2c0-0.1-0.1-0.2-0.2-0.3s0.1,0,0.2,0.2c0.1,0,0.1-0.1,0.2,0c-0.1-0.2-0.1-0.1-0.2-0.2c0.5,0.4,0.3,0,0.4-0.1
				c-0.4-0.4,0-0.1-0.4-0.4c0.1,0.1,0.4,0.2,0.4,0.4v-0.1c0.2,0.2,0.1,0.2,0.4,0.5c0-0.1-0.4-0.5-0.2-0.4c0.3,0.3,0-0.1,0.2,0.2
				c0.1,0.1,0,0.1,0.1,0.1h0.1c0.2,0-0.3-0.4-0.4-0.6c0-0.1,0.3,0.2,0.4,0.3s0,0,0-0.1c0.1,0.2-0.2-0.1-0.4-0.3
				c0.3,0.3,0.1-0.1,0-0.2c-0.4-0.2-0.1,0-0.5-0.2c0.1,0.1,0.4,0.4,0.2,0.3c0-0.1-0.1-0.2-0.2-0.2c0.2,0.1,0,0.1,0.1,0.2
				c-0.1-0.1-0.3-0.4-0.5-0.4l0.4,0.4c-0.1,0-0.3-0.3-0.2-0.1c-0.2-0.2-0.3-0.3-0.3-0.4c-0.4-0.3,0.1,0.3,0.2,0.5l-0.1-0.1
				c0.1,0.1,0.1,0.1,0.1,0.2s-0.1-0.2-0.3-0.3v0.1l0,0c0,0.1,0.1,0.1,0,0l-0.3-0.4l0.2,0.3c-0.1-0.1-0.3-0.2-0.3-0.3v0.1l-0.3-0.2
				c0,0.1,0.1,0.1,0.1,0.1c-0.1,0,0.3,0.6-0.2,0.1c0.1,0.3,0,0.2,0.1,0.4c-0.2-0.3-0.4-0.2-0.4-0.4s0.1,0.2,0.1,0.3
				c-0.2-0.1-0.3-0.3-0.4-0.5l0.1,0.1l-0.1-0.1l0.1,0.2c-0.2-0.1-0.3-0.2-0.3-0.2l0.2,0.2l-0.1-0.1c0.1,0.1,0.1,0.2,0.1,0.2h-0.1
				v0.1c-0.1-0.2-0.1,0-0.2-0.2c0,0,0,0,0,0.1l0.2,0.1c0.1,0.2-0.2-0.2-0.3-0.2l0.2,0.2c-0.4-0.2,0,0.3-0.2,0.1
				c0-0.1-0.2-0.3-0.2-0.2s-0.1,0.1,0.1,0.4c-0.2-0.2-0.3-0.3-0.5-0.4c0,0,0,0.1,0.1,0.2c-0.1-0.1,0,0.1-0.2,0c0.1,0.2-0.1,0,0,0.1
				l-0.1-0.1l0.2,0.2c-0.5-0.3,0.1,0.3-0.3,0v-0.1v0.1L147,137l-0.1,0.1l0.1,0.1c0,0,0.1,0.2,0,0.1c-0.2-0.3,0,0-0.3-0.2v-0.1
				c0,0.1,0,0.1,0.2,0.2c0,0.1-0.4-0.3-0.2-0.1l0,0c0.1,0.1,0.2,0.3,0.2,0.3s-0.1-0.1-0.1-0.1s-0.1,0.1-0.1,0.1
				c-0.1-0.1-0.2-0.1-0.2-0.2c0.1,0.2-0.1,0,0,0.2l-0.1-0.1l0.1,0.1l-0.2-0.2l0.1,0.1c0,0.1,0,0.1,0,0.1l-0.1-0.2
				c0,0.2-0.3-0.2-0.2,0.1c0,0-0.1-0.1-0.1-0.1c0.2,0.3-0.3-0.2-0.1,0.1c-0.1-0.1-0.1-0.1-0.2-0.2l0.1,0.1l-0.2-0.2l0.3,0.3
				l-0.2-0.2l0.1,0.1c-0.4-0.4-0.2,0-0.5-0.3l0.3,0.2c0.4,0.6-0.5-0.1-0.4,0.3l-0.2-0.2l0.2,0.3c-0.2-0.1-0.1-0.2-0.3-0.3
				c0.1,0.2,0.3,0.3,0.3,0.4c-0.2-0.1-0.1-0.2-0.2-0.2c0,0.2,0.1,0.4-0.1,0.3l0.1,0.1c0.1,0.1-0.1,0.1-0.1,0.2
				c-0.1-0.1-0.1-0.1-0.1-0.1s-0.1,0,0,0.1l-0.2-0.2c-0.1,0,0,0.2-0.2,0c0.1,0.1,0.2,0.2,0.2,0.2c-0.3-0.3,0.1,0.2-0.2,0.1
				s0-0.1-0.1-0.1s0,0.1,0.1,0.2l-0.1-0.1l0.1,0.3c-0.3-0.3-0.1,0.1-0.3-0.1c-0.1,0,0.2,0.1,0.1,0.2c-0.1-0.1,0,0.1-0.2-0.1l0,0v0.1
				l-0.2-0.2c0.1,0.2,0.2,0.3,0.3,0.4c-0.1-0.1-0.1,0.1-0.3-0.1v-0.1c0,0.2-0.7-0.4-0.4,0c0,0-0.1-0.1-0.1-0.1h-0.1l-0.1-0.2
				l0.1,0.3l-0.1-0.1c-0.1,0-0.1,0.1-0.2,0.3v-0.1c0.1,0.2-0.2,0-0.1,0.1l0,0l-0.1,0.1l-0.1-0.1c0.2,0.2-0.4-0.2-0.2,0
				c0.1,0.1,0.2,0.3,0.3,0.4c-0.1,0.1-0.1-0.1-0.3-0.2s0.1,0.2,0,0.2l-0.1-0.1c0,0,0,0.1,0,0.2v-0.1c0.2,0.3-0.4-0.2,0,0.3
				c-0.1-0.1-0.1,0.1-0.3-0.1c0,0.2,0.1,0.3,0.1,0.5c-0.3-0.3,0,0-0.2-0.1l0.2,0.2c-0.1,0.1-0.6-0.2-0.7,0l-0.2-0.2l0.2,0.2
				c-0.2,0-0.4,0.1-0.5,0.2c0.1,0.1,0.2,0.4,0.1,0.4l0,0c0,0.2,0,0.4-0.2,0.4s-0.1-0.1-0.2-0.2c0.2,0.2,0,0.1-0.1,0.1l0.2,0.1
				c0.1,0.2-0.1,0.1-0.2-0.1l0.2,0.2l-0.1-0.1l0.1,0.1l-0.3-0.2c0.1,0.2,0.1,0.3,0.2,0.4c-0.1-0.1-0.2-0.1-0.2-0.2l-0.2,0.1l0.1,0.1
				c0.2,0.2,0.2,0.3,0.1,0.3c-0.1-0.1-0.2-0.3-0.4-0.4c0.1,0.1,0.2,0.1,0.3,0.2s0.1,0.3,0,0.2l-0.1-0.1c0,0.1-0.3-0.2-0.3-0.1
				s-0.1,0.1,0.3,0.4c0,0.1-0.2-0.2-0.3-0.2c0.1,0.2,0,0.1-0.2,0c0.4,0.5-0.3,0,0.1,0.4l-0.2-0.2c0.1,0.1,0.2,0.3,0.3,0.4
				c-0.1-0.1-0.3-0.2-0.4-0.4l0.4,0.4c-0.6-0.2-0.5,0.2-1.1,0.1c0,0.2,0.1,0.4-0.1,0.5V143h-0.2l0.2,0.1c0,0.1,0.1,0.2,0.1,0.2
				c-0.3,0-0.6-0.1-0.5,0.2c0.4,0.5-0.4-0.3-0.2,0.1l-0.1-0.2c0.1,0.2,0.1,0.5,0.3,0.7c-0.4-0.4-0.1,0.1-0.3-0.2l0.2,0.2
				c-0.1-0.1-0.2-0.1-0.3-0.2l0.2,0.3L138,144c-0.1,0,0,0.3-0.4,0c0.1,0.4-0.1,0.5-0.4,0.6c0.1,0.2,0.1,0.2,0.1,0.3l-0.2-0.2
				c0,0.1,0.3,0.4,0.1,0.3l-0.1-0.1c0,0.1-0.1,0,0,0.2c0,0-0.2,0-0.4-0.3c0.4,0.4-0.1,0-0.1,0s-2.9,1.2-1.5,3.6
				c0.1,0.2,0.3,0.4,0.5,0.6c0,0.1-0.3-0.2-0.1,0s0.4,0.5,0.7,0.6v0.1c0.1,0.1-0.1-0.2,0.1,0l-0.3-0.3c0.1,0,0.2,0.1,0.3,0.2
				c-0.1-0.1-0.5-0.6-0.3-0.5l0,0c0-0.1,0.2,0.2,0.3,0.2l0,0l0.2,0.1c-0.1-0.1,0.1,0.2,0.1,0.2c0.1,0-0.1-0.1-0.1-0.1
				s0.2,0.1,0.3,0.2v-0.1c0.1,0.1,0,0,0.1,0.2l-0.1-0.2c0.4,0.4-0.1-0.2,0.3,0.1c0,0.1,0.1,0.1,0.3,0.3l0.1-0.1c0,0,0.1,0.1,0.1,0.1
				c0.1,0.1-0.1-0.1-0.1-0.1s0.1-0.1,0.3,0.2s-0.3-0.4-0.1-0.3s0,0.1,0.2,0.2v-0.1c0.1,0.1,0.2,0.3,0.2,0.3c0.4,0,1.3,0.8,1.3,0.4
				c0.2,0.2,0.1,0.1,0.2,0.3c-0.1-0.4,0.6,0.2,0.6,0.1l-0.1-0.2c0.6,0.3,0.5-0.1,0.9-0.1l-0.1-0.1c-0.1-0.1-0.1-0.2-0.1-0.3
				c0.1,0.1,0.3,0.3,0.3,0.2c-0.1,0-0.1-0.1-0.2-0.2c0.5,0.3,0.7-0.1,1.1-0.1c0.2-0.4,0.8-0.4,1-0.8c0,0.1-0.4-0.4-0.3-0.3
				c0.7,0.6,0.1-0.3,0.6,0.1c0-0.4,0.7,0,0.4-0.6l0.2,0.2c0.1,0.1,0-0.1,0-0.1v0.1c0.1,0,0-0.2,0.1-0.2l-0.2-0.2
				c0-0.1,0.2,0.1,0.1,0l0.1,0.1l-0.1-0.2c0.4,0.4,0.1-0.1,0.3,0.1c0-0.1-0.1-0.4,0.1-0.4c0.2,0.2,0.3,0.1,0.4,0.1
				c0-0.2,0.2-0.3,0.4-0.4l-0.2-0.2l0,0c0,0.1,0.1,0.1,0.1,0.1c0.3,0.2,0-0.2,0.2,0c-0.2-0.2-0.1,0-0.1,0s-0.3-0.3-0.2-0.3v0.1
				l-0.1-0.1c0.2,0.2,0.3,0.2,0.5,0.4c0.1-0.2-0.1-0.6,0-0.6c0.2,0.2,0-0.1,0.4,0.2c-0.1-0.2-0.3-0.3-0.5-0.6c0,0,0-0.1,0.1,0
				s0.2,0.2,0.2,0.2v-0.1l0.1,0.1c-0.1-0.3,0.4,0.1,0.3-0.2c-0.1-0.1-0.1,0-0.2-0.1c-0.2-0.3,0.3,0.1,0.2-0.1l0.2,0.2
				c-0.1-0.1-0.2-0.3,0-0.2s0.1,0.2,0.2,0.3s0.1-0.1-0.1-0.3c0-0.1,0.2,0.1,0.2,0.1s-0.2-0.1-0.2-0.2c0.2,0.1,0.2,0,0.3-0.1
				c0.1,0,0.1,0.1,0.1,0.1C145.9,145.8,146.4,146.3,146.4,146.1z"/>
			<path class="st3" d="M148.5,141.9L148.5,141.9c-0.1,0.1,0,0.1,0.1,0.2L148.5,141.9z"/>
			<path class="st3" d="M147.2,142.9L147.2,142.9C147.2,143,147.2,142.9,147.2,142.9z"/>
			<path class="st3" d="M147.3,143.6c0-0.1-0.1-0.1-0.2-0.1C147.2,143.5,147.3,143.5,147.3,143.6z"/>
			<path class="st3" d="M148.6,140.7L148.6,140.7C148.7,140.8,148.7,140.7,148.6,140.7z"/>
			<path class="st3" d="M150.6,139.1L150.6,139.1z"/>
			<path class="st3" d="M150.2,138.8L150.2,138.8C150.2,138.8,150.2,138.9,150.2,138.8z"/>
			<path class="st3" d="M148.3,141.2C148.3,141.2,148.3,141.2,148.3,141.2C148.3,141.3,148.3,141.2,148.3,141.2z"/>
			<path class="st3" d="M150.2,139L150.2,139L150.2,139L150.2,139z"/>
			<path class="st3" d="M150.6,139.1C150.6,139.1,150.6,139.1,150.6,139.1C150.6,139.1,150.7,139.1,150.6,139.1z"/>
			<path class="st3" d="M149,139.8L149,139.8C149.1,139.9,149.1,139.9,149,139.8z"/>
			<polygon class="st3" points="150.4,139.4 150.4,139.4 150.5,139.5 			"/>
			<path class="st3" d="M150.8,139L150.8,139L150.8,139z"/>
			<path class="st3" d="M149.7,139.7l-0.1-0.2C149.6,139.6,149.6,139.6,149.7,139.7z"/>
			<path class="st3" d="M147.1,173.2c0,0,0-0.1,0-0.1C147.1,173.1,147.1,173.1,147.1,173.2z"/>
			<path class="st3" d="M144.8,172.4L144.8,172.4C144.8,172.3,144.8,172.3,144.8,172.4z"/>
			<path class="st3" d="M148.5,173.5L148.5,173.5h0.1H148.5z"/>
			<path class="st3" d="M139.9,171.4L139.9,171.4C139.9,171.4,139.9,171.4,139.9,171.4z"/>
			<path class="st3" d="M142.8,172C142.8,172.1,142.8,172.1,142.8,172C142.8,172.1,142.8,172.1,142.8,172z"/>
			<path class="st3" d="M149.2,176.4v-0.2C149.2,176.2,149.2,176.3,149.2,176.4z"/>
			<path class="st3" d="M150.6,175.6L150.6,175.6z"/>
			<path class="st3" d="M150,174.8L150,174.8C150,174.9,150,174.9,150,174.8z"/>
			<path class="st3" d="M150,175L150,175C150,175,150,174.9,150,175z"/>
			<path class="st3" d="M122,172.3c0,0-0.1,0.1-0.1,0.2L122,172.3z"/>
			<path class="st3" d="M135.4,171.3L135.4,171.3C135.4,171.2,135.4,171.3,135.4,171.3z"/>
			<path class="st3" d="M122,174L122,174L122,174z"/>
			<path class="st3" d="M148.4,176.9c0,0.2-0.1,0-0.1,0.1C148.4,177,148.4,177.1,148.4,176.9z"/>
			<path class="st3" d="M134.5,178.3L134.5,178.3C134.5,178.3,134.5,178.3,134.5,178.3z"/>
			<path class="st3" d="M122,174L122,174C122,174,122,173.9,122,174C122,173.9,122,174,122,174z"/>
			<path class="st3" d="M130.8,171.2L130.8,171.2L130.8,171.2z"/>
			<path class="st3" d="M130.5,170.9L130.5,170.9C130.6,170.8,130.6,170.9,130.5,170.9z"/>
			<path class="st3" d="M121.9,172.6l-0.1,0.1C121.9,172.7,121.9,172.6,121.9,172.6z"/>
			<path class="st3" d="M127.9,171.2L127.9,171.2C127.9,171.2,127.9,171.2,127.9,171.2z"/>
			<path class="st3" d="M143,172.1L143,172.1C143,172.1,143,172.1,143,172.1z"/>
			<polygon class="st3" points="141.1,177.1 141.1,177.1 141.1,177.1 			"/>
			<path class="st3" d="M141.2,176.9c0,0-0.1,0.1-0.1,0.2S141.2,177.1,141.2,176.9z"/>
			<path class="st3" d="M140.9,177L140.9,177z"/>
			<path class="st3" d="M142.9,177.4L142.9,177.4L142.9,177.4z"/>
			<path class="st3" d="M142.5,177.4C142.5,177.4,142.5,177.4,142.5,177.4C142.5,177.4,142.5,177.4,142.5,177.4z"/>
			<polygon class="st3" points="140,177.5 140,177.5 140,177.5 			"/>
			<path class="st3" d="M136.3,178.9c0.4-0.1,0.8-0.5,1.2-0.4c0.1-0.4,0.2-0.4,0.3-0.5v0.5l0.1-0.2c0,0.1-0.1,0.1,0,0.3v-0.3
				c0,0.2,0.2,0.1,0.1,0.5h0.4c0.1,0,0-0.4,0.1-0.3s0,0.1,0,0.3c0.3,0.4,0.3-1,0.6-0.8v0.1c0-0.1,0.1-0.1,0.1-0.2
				c0-0.5-0.1,0.3-0.1,0s0.1-0.2,0.1-0.6c0.1,0.2,0.1-0.1,0.1-0.1c0.1,0.3,0.2,0.1,0.3,0.4c0-0.1,0.1-0.6,0.2-0.6
				c0.1,0.3,0,0.3,0.1,0.4v-0.2c0.1,0,0.1,0.1,0.1,0.2s0.1-0.3,0.2-0.2l-0.1,0.2c0.1-0.1,0.1-0.1,0.2,0s0,0.1-0.1,0.1
				c0,0.4,0.1-0.2,0.1-0.1c0-0.1,0-0.3,0-0.4c0.1,0,0.1-0.3,0.1,0l-0.1,0.2c0.1-0.2,0.1-0.3,0.2-0.2s0,0.1,0,0.1
				c0.1-0.3,0.2,0,0.3,0v0.1c0-0.1,0.1-0.3,0.1-0.3c-0.1-0.1-0.1-0.3-0.1-0.5c0.1,0.4,0.1-0.5,0.3-0.2s0,0.3-0.1,0.2
				c0,0.3-0.1,0.7-0.1,1c0.1-0.1,0.1-0.2,0.1,0v-0.4c0,0,0.1,0,0.1,0c0-0.2-0.1-0.4,0-0.6s0,0.4,0,0.2s0.1-0.4,0.2-0.3
				s0,0.1-0.1,0.1c0.1,0.2,0.2-0.1,0.2,0.4c0,0.1,0,0.2-0.1,0.2v-0.1c-0.1,0.3,0.1-0.1,0.1,0.3c0-0.2,0.1-0.2,0.2-0.1v-0.3
				c0.2-0.9,0,0.6,0.2,0.5s0-0.1,0-0.3c0.1,0,0.1,0.3,0.2,0.2c0.1,0.2,0.1,0.4,0.1,0.6c0.1-0.1,0.2,0.1,0.2-0.2s-0.1,0.3-0.2-0.1
				v-0.3c0.1,0,0.2-0.1,0.3,0c0-0.1,0-0.1,0-0.2c0.1-0.1,0.2-0.4,0.3-0.3c0,0.3-0.1,0.2-0.1,0.3c0.1,0.2,0.1,0,0.2,0.1
				c0,0.3-0.1,0-0.1,0.2l0.1-0.1v0.1c0-0.4,0.1,0,0.2-0.1s0.2-0.6,0.3-0.9c0,0.1,0,0.2,0,0.3c0-0.2,0,0-0.1,0.1
				c0.1-0.1,0.1,0.4,0.1,0.6c0.1-0.1,0-0.2,0-0.4h0.1c0-0.2-0.1-0.3,0-0.4s0.1,0,0.2,0s0,0.3,0,0.3s0.1,0.1,0.1-0.1s0.1-0.2,0.1-0.5
				l0.1,0.2c0,0,0,0.1-0.1,0.1c0,0.3,0.1-0.1,0.1-0.1s0.1,0.1,0.1,0.2c0-0.1,0.1,0,0.1,0.1c0-0.1,0-0.2,0-0.3h0.1c0,0.3,0,0.5,0,0.8
				c0.1-0.2,0-0.5,0.1-0.5c0,0.4,0.1,0.3,0,0.7c0,0.3,0.2,0.2,0.3,0.2c0.1-0.3-0.1-0.2-0.1-0.4c0.2-0.1,0.2-0.9,0.4-0.8v-0.1
				c0.1-0.1,0.1-0.2,0.1-0.4c0,0.4,0.1,1,0.3,0.9s-0.1-0.4-0.1-0.6l0.1-0.1c0,0,0,0.1,0,0.1c0.1-0.1,0.2,0.5,0.2,0.1l0.1,0.5v-0.2
				c0-0.2,0.1-0.2,0.1-0.3s0.1,0,0.2,0.2c0-0.1-0.1-0.5,0-0.5c0,0.6,0.2,0.2,0.2,0.5c0,0,0.1,0.2,0.1-0.1v0.4c0-0.5,0.1-0.5,0.2-0.6
				c0,0.7,0.1-0.1,0.1,0.6c0-0.5,0.2-0.2,0.2-0.6c0.1,0,0.1,0.4,0.1,0.6v-0.2c0,0.2,0.2,0.2,0.3,0.4l0.1-0.4v0.2
				c0-0.1,0.1-0.2,0-0.3l0,0c0-0.4,0.1-0.1,0.1-0.3c0,0.1,0,0.2,0,0.2c0,0,0,0.2,0,0.4c0-0.1,0.1-0.8,0-1s0.1-0.3,0.1-0.2v0.4v-0.4
				c0.1-0.1,0.1,0.2,0.1,0.2s-0.1,0.8,0,0.8c-0.1,0-0.1,0.3-0.1,0.4s0,0.1,0,0.2c0.1-0.1,0-0.2,0.1-0.3c0,0.4,0,0.5,0.1,0.6
				l-0.1-0.3c0,0,0-0.1,0-0.1c0-0.1,0-0.2,0-0.2c0,0,0.1-0.4,0.1-0.2c-0.1-0.6,0.2-0.4,0.1-0.8c0-0.1,0.1-0.1,0.1,0s0.1,0.4,0,0.7
				c0-0.1-0.1-0.3,0-0.4s0.1,0.2,0.1,0.3v0.1l0.1,0.2c0-0.2-0.1-0.3,0-0.4c0,0.1,0.1,0,0.1,0.1s0,0.6-0.1,0.6s0.2-0.1,0.2-0.4h0.1
				c0-0.1-0.1-0.4,0-0.5v0.1l0.1-0.3v0.2c0-0.1,0-0.2,0-0.2c0,0.1,0,0.2,0,0.3c0.1,0,0.1-0.2,0.1-0.3s0.1,0.1,0,0.3
				c0.1,0.1,0.2,0,0.2,0.2c0.1-0.2,0-0.1,0-0.3c0.1,0.6,0.3,0.2,0.5,0.2c-0.1-0.6,0-0.1,0.1-0.6c0,0.2,0.1,0.4,0,0.6l0.1-0.1
				c0.1,0.3-0.1,0.2-0.1,0.6c0.1,0,0.2-0.6,0.3-0.4c0,0.4,0.1-0.1,0.1,0.3c0,0.1-0.1,0.1-0.1,0.1v0.1c0.2,0.1,0.1-0.5,0.2-0.7
				c0.1-0.1,0.1,0.3,0.1,0.5s0.1,0,0.1-0.1c-0.1,0.2-0.1-0.2-0.1-0.5c0.1,0.4,0.2,0,0.2-0.1c-0.2-0.5-0.1,0-0.3-0.5
				c0,0.1,0,0.5-0.1,0.4c0.1-0.1,0.1-0.2,0-0.3c0,0.2-0.1,0.1-0.1,0.2c0-0.2,0.1-0.5,0-0.6v0.5c0-0.1,0-0.4-0.1-0.3
				c0-0.3,0-0.4,0.1-0.5c-0.1-0.5-0.2,0.2-0.3,0.4c0,0,0-0.1,0-0.1c0,0.1-0.1,0.1-0.1,0.2c-0.1-0.1,0.1-0.2,0-0.4h0.4l0,0
				c0,0.1-0.1,0.1-0.1,0s0-0.4,0.1-0.5l-0.1,0.4c0-0.2-0.1-0.3,0-0.4l-0.2,0.1v-0.4c0,0.1,0,0.1,0,0.2s-0.3,0.6-0.2-0.1
				c-0.1,0.3-0.2,0.2-0.4,0.4c0.1-0.3-0.1-0.4,0-0.6c-0.1-0.1-0.1,0.2-0.2,0.3c-0.1-0.2-0.1-0.4,0-0.6l-0.1,0.2v-0.1l-0.1,0.2
				c-0.1-0.2,0-0.4-0.1-0.4v0.3l-0.1-0.2c0,0.1,0,0.2-0.1,0.2v-0.1l-0.1,0.1c0.1-0.2-0.1-0.1,0-0.3c-0.1,0-0.1,0-0.2,0v0.2
				c-0.1,0.2,0-0.3-0.1-0.3v0.2c-0.1-0.4-0.3,0.2-0.4,0c0.1-0.1,0.1-0.4,0.1-0.3s-0.2,0-0.4,0.3c0-0.2,0-0.4-0.1-0.6
				c-0.1,0-0.1,0-0.1,0.3c-0.1-0.1-0.2,0.1-0.2-0.2c0,0.2-0.1,0-0.1,0.1v0.1c-0.1-0.6-0.2,0.3-0.4-0.2v-0.1l-0.1,0.1
				c0-0.1,0-0.2,0-0.3l-0.2-0.1v0.2c-0.1,0-0.1,0.3-0.1,0.1c0.1-0.4-0.1,0-0.1-0.3l0.1-0.1c-0.1,0-0.1,0-0.1,0.3
				c-0.1,0.1-0.1-0.5-0.1-0.2h0.1c0,0.1,0,0.4-0.1,0.4s0-0.1,0-0.2s-0.2,0-0.2,0.1c0-0.1,0-0.2,0-0.3c-0.2,0.2-0.1-0.1-0.2,0.2v-0.1
				l-0.1,0.2l-0.1-0.3v0.2c0,0-0.1,0.1-0.1,0.1v-0.2c-0.1,0.1-0.2-0.4-0.3-0.1c0,0,0-0.1,0-0.1c-0.1,0.3-0.1-0.4-0.2,0
				c0-0.1,0-0.1,0-0.2l-0.1,0.1v-0.3v0.4v-0.3v0.1c-0.1-0.6-0.2-0.1-0.2-0.6v0.4c-0.2,0.8-0.5-0.4-0.8-0.1v-0.3l-0.1,0.3
				c-0.1-0.2,0-0.2,0-0.4c-0.1,0.2-0.1,0.4-0.2,0.5c-0.1-0.2,0-0.2,0.1-0.3c-0.1,0.1-0.3,0.3-0.4,0.1c0,0,0,0.1,0,0.1s-0.2,0-0.3,0
				c0-0.1,0-0.2,0.1-0.2s-0.1-0.1-0.1,0v-0.2c-0.1-0.1-0.2,0.2-0.2-0.1c0,0.1,0,0.3-0.1,0.3c0-0.4-0.2,0.2-0.3,0s0.1-0.1,0.1-0.1
				s-0.1,0.1-0.1,0.2V172l-0.2,0.2c0-0.4-0.2,0.1-0.2-0.3c-0.1,0,0.1,0.2,0,0.2c0-0.2-0.1,0.1-0.1-0.2l0,0h-0.1l0.1-0.3
				c-0.1,0.2-0.1,0.4-0.1,0.6c-0.1-0.2-0.1,0-0.2-0.3v-0.1c-0.2,0.1-0.3-0.8-0.4-0.3v-0.1h-0.1v-0.2l-0.2,0.3v-0.1
				c-0.1-0.1-0.3,0-0.4,0.1v-0.1c-0.2,0.2-0.2-0.1-0.3,0c0,0,0-0.1,0-0.1h-0.1v-0.1c-0.1,0.3-0.2-0.4-0.2-0.1
				c-0.1,0.2-0.1,0.3-0.1,0.5c-0.1,0,0-0.2-0.1-0.3s-0.1,0.2-0.2,0.1v-0.1c0,0-0.1,0.1-0.2,0.1v-0.1c-0.1,0.3-0.1-0.4-0.2,0.2
				c0-0.1-0.1,0-0.1-0.3c-0.1,0.2-0.3,0.3-0.4,0.4c0-0.5,0,0-0.1-0.2v0.3c-0.2,0-0.4-0.6-0.7-0.5v-0.2l-0.1,0.3
				c-0.2-0.1-0.5-0.2-0.8-0.2c-0.1,0.1-0.2,0.4-0.3,0.4l0,0c-0.2,0.1-0.4,0.2-0.6,0.1c0-0.1,0-0.2,0-0.2c-0.1,0.3-0.1,0-0.2,0
				l0.1,0.2c-0.1,0.2-0.1,0-0.2-0.2l-0.1,0.3c0,0,0-0.1,0-0.1v0.1v-0.3c-0.1,0.1-0.2,0.3-0.2,0.5c0-0.1-0.1-0.2,0-0.3l-0.3-0.1v0.1
				c0,0.3-0.1,0.4-0.1,0.3c0.1-0.2,0.1-0.4,0-0.6c0,0.1,0,0.2,0,0.4s-0.2,0.2-0.2,0.1v-0.1c-0.1,0.1-0.1-0.4-0.2-0.3
				c-0.1,0.2-0.1,0-0.1,0.4c-0.1,0.1,0-0.3-0.1-0.3c0,0.2-0.2,0.1-0.2-0.1c-0.1,0.6-0.3-0.2-0.3,0.3l-0.1-0.3c0,0.2,0,0.4-0.1,0.5
				c0-0.2-0.1-0.4-0.1-0.6v0.5c-0.4-0.6-0.8-0.2-1.2-0.7c-0.2,0.1-0.4,0.4-0.6,0.3v-0.1l-0.2-0.1l0.1,0.2c0,0.1-0.1,0.2-0.1,0.2
				c-0.2-0.2-0.5-0.5-0.8-0.2c-0.2,0.6-0.1-0.6-0.3-0.1c0-0.1,0-0.1,0-0.2c-0.2,0.2-0.3,0.4-0.4,0.7c0-0.6-0.1,0-0.1-0.3v0.2
				c0-0.1-0.1-0.2-0.1-0.4l-0.1,0.3v-0.3c-0.1,0-0.3,0.2-0.4-0.3c-0.3,0.4-0.7,0.3-1,0.2c0,0.2-0.1,0.2-0.2,0.2l-0.1-0.3
				c-0.1,0.1-0.2,0.5-0.2,0.3c0,0,0-0.1,0-0.1c-0.1,0.1-0.2-0.1-0.2,0.2c-0.1,0-0.2-0.2-0.1-0.5c0,0.5-0.2-0.1-0.2-0.1
				s-4.3-1.2-5.3,1.5c-0.1,0.2-0.1,0.5-0.1,0.7c-0.1,0.1-0.1-0.4-0.1-0.1s0,0.6,0.1,1l-0.1,0.1c0,0.2,0.1-0.2,0.1,0.1v-0.5
				c0.1,0.1,0.1,0.2,0.1,0.3c0-0.2,0.1-0.8,0.2-0.5l0,0c0.1,0,0,0.3,0.1,0.4l0,0l0.1,0.2c-0.1-0.1-0.2,0.2-0.1,0.2
				c0.1,0.1,0-0.1,0.1-0.2s0,0.2,0,0.4h0.1c0,0.2-0.1,0,0,0.2l0.1-0.2c0,0.6,0.1-0.3,0.2,0.3c-0.1,0.1,0,0.2,0,0.4h0.2
				c0,0.1,0,0.2,0,0.1c0,0.1,0.1-0.1,0.1-0.1c0,0.1,0.2,0,0.2,0.4s0.1-0.5,0.2-0.3s-0.1,0.1,0,0.3l0.1-0.1c0,0.1,0,0.4-0.1,0.3
				c0.4,0.3,0.6,1.5,0.9,1.2c0,0.3,0,0.2-0.1,0.4c0.2-0.4,0.3,0.6,0.6,0.6v-0.2c0.3,0.7,0.6,0.3,1,0.6v-0.1c0-0.1,0.1-0.2,0.2-0.3
				c0,0.1,0,0.5,0,0.4c0-0.1,0-0.2,0-0.3c0.3,0.6,0.9,0.4,1.3,0.7c0.6-0.2,1.3,0.3,1.9,0.1c-0.1,0-0.1-0.5,0-0.4
				c0.2,0.9,0.3-0.1,0.5,0.5c0.4-0.3,0.7,0.5,1-0.2v0.2c0.1,0.1,0.1-0.1,0.1-0.1v0.1c0.1,0.1,0.3-0.2,0.3,0v-0.3
				c0.1,0,0,0.2,0.1,0.1v0.1l0.1-0.3c0,0.5,0.2,0,0.3,0.3c0.1-0.1,0.3-0.3,0.4-0.2c0,0.3,0.2,0.3,0.3,0.4c0.3-0.1,0.5-0.1,0.8-0.1
				v-0.3h0.1c0,0,0,0.1,0,0.1c0.1,0.4,0.2-0.1,0.2,0.1c0-0.3-0.1,0-0.1-0.1s0-0.5,0.1-0.3v0.1l0.1-0.2c0,0.3,0.1,0.4,0.1,0.6
				c0.2-0.1,0.4-0.5,0.7-0.4c0,0.3,0.2-0.1,0.1,0.4c0.1-0.2,0-0.4,0-0.8c0,0,0.1-0.1,0.1,0.1s0,0.3,0,0.3h0.1c0,0,0,0.1,0,0.1
				c0.2-0.3,0.4,0.3,0.5,0c0-0.2-0.1-0.1-0.1-0.2c0.2-0.4,0.2,0.3,0.3,0.1v0.2c0.1-0.2,0.1-0.4,0.2-0.2s-0.1,0.2-0.1,0.4
				s0.2-0.1,0.2-0.3c0.1-0.1,0.1,0.2,0.1,0.2c0-0.1,0-0.2,0-0.3c0.1,0.2,0.3,0.2,0.4,0.2c0,0.1,0,0.1,0,0.2
				C136.2,178.4,136.1,179,136.3,178.9z"/>
			<path class="st3" d="M142.9,177.4L142.9,177.4c0,0.1,0,0.1-0.1,0.2L142.9,177.4z"/>
			<path class="st3" d="M140.6,177.2C140.6,177.2,140.6,177.2,140.6,177.2C140.6,177.4,140.6,177.3,140.6,177.2z"/>
			<path class="st3" d="M140,177.8c0-0.1,0-0.1,0-0.2C140,177.6,140,177.7,140,177.8z"/>
			<path class="st3" d="M144.3,176.7c0,0,0,0.1,0,0.1C144.3,176.7,144.3,176.7,144.3,176.7z"/>
			<path class="st3" d="M148,176.9L148,176.9L148,176.9z"/>
			<path class="st3" d="M147.8,176.4L147.8,176.4C147.8,176.4,147.8,176.4,147.8,176.4z"/>
			<path class="st3" d="M143.4,176.8C143.4,176.8,143.4,176.8,143.4,176.8C143.4,176.9,143.4,176.8,143.4,176.8z"/>
			<path class="st3" d="M147.7,176.5L147.7,176.5L147.7,176.5L147.7,176.5z"/>
			<path class="st3" d="M148.1,176.9C148.1,176.9,148.1,176.9,148.1,176.9C148,176.9,148.1,177,148.1,176.9z"/>
			<path class="st3" d="M145.7,176.3L145.7,176.3C145.6,176.4,145.6,176.4,145.7,176.3z"/>
			<polygon class="st3" points="147.5,177 147.5,177 147.5,177.1 			"/>
			<path class="st3" d="M148.3,177C148.3,177,148.3,177,148.3,177L148.3,177L148.3,177z"/>
			<path class="st3" d="M146.4,176.7c0-0.1,0-0.2,0-0.2C146.4,176.5,146.4,176.6,146.4,176.7z"/>
			<path class="st3" d="M147.1,186.3c0,0,0-0.1,0-0.1C147.1,186.2,147.1,186.3,147.1,186.3z"/>
			<path class="st3" d="M144.8,185.5L144.8,185.5C144.8,185.4,144.8,185.4,144.8,185.5z"/>
			<path class="st3" d="M148.5,186.7L148.5,186.7h0.1H148.5z"/>
			<path class="st3" d="M139.9,184.5L139.9,184.5C139.9,184.5,139.9,184.5,139.9,184.5z"/>
			<path class="st3" d="M142.8,185.1c0,0,0,0.1,0,0.1C142.8,185.2,142.8,185.2,142.8,185.1z"/>
			<path class="st3" d="M149.2,189.5v-0.2C149.2,189.4,149.2,189.4,149.2,189.5z"/>
			<path class="st3" d="M150.6,188.7L150.6,188.7z"/>
			<path class="st3" d="M150,187.9L150,187.9C150,188,150,188,150,187.9z"/>
			<path class="st3" d="M150,188.1L150,188.1C150,188,150,188,150,188.1z"/>
			<path class="st3" d="M122,185.4c0,0-0.1,0.1-0.1,0.3L122,185.4z"/>
			<path class="st3" d="M135.4,184.4L135.4,184.4C135.4,184.3,135.4,184.4,135.4,184.4z"/>
			<path class="st3" d="M122,187.1L122,187.1L122,187.1z"/>
			<path class="st3" d="M148.4,190c0,0.2-0.1,0-0.1,0.1C148.4,190.1,148.4,190.2,148.4,190z"/>
			<path class="st3" d="M134.5,191.4L134.5,191.4z"/>
			<path class="st3" d="M122,187.1L122,187.1C122,187.1,122,187.1,122,187.1C122,187,122,187.1,122,187.1z"/>
			<path class="st3" d="M130.8,184.3L130.8,184.3L130.8,184.3z"/>
			<path class="st3" d="M130.5,184L130.5,184C130.6,183.9,130.6,184,130.5,184z"/>
			<path class="st3" d="M121.9,185.7l-0.1,0.1C121.9,185.8,121.9,185.8,121.9,185.7z"/>
			<path class="st3" d="M127.9,184.3L127.9,184.3C127.9,184.3,127.9,184.3,127.9,184.3z"/>
			<path class="st3" d="M143,185.2L143,185.2C143,185.2,143,185.2,143,185.2z"/>
			<polygon class="st3" points="141.1,190.2 141.1,190.2 141.1,190.2 			"/>
			<path class="st3" d="M141.2,190c0,0-0.1,0.1-0.1,0.2S141.2,190.2,141.2,190z"/>
			<path class="st3" d="M140.9,190.1L140.9,190.1z"/>
			<path class="st3" d="M142.9,190.5L142.9,190.5L142.9,190.5z"/>
			<path class="st3" d="M142.5,190.5C142.5,190.5,142.5,190.5,142.5,190.5C142.5,190.5,142.5,190.5,142.5,190.5z"/>
			<polygon class="st3" points="140,190.6 140,190.6 140,190.6 			"/>
			<path class="st3" d="M136.3,192c0.4-0.1,0.8-0.5,1.2-0.4c0.1-0.4,0.2-0.4,0.3-0.5v0.5l0.1-0.2c0,0.1-0.1,0.1,0,0.3v-0.3
				c0,0.2,0.2,0.1,0.1,0.5h0.4c0.1,0,0-0.4,0.1-0.3s0,0.1,0,0.3c0.3,0.4,0.3-1,0.6-0.8v0.1c0-0.1,0.1-0.1,0.1-0.2
				c0-0.5-0.1,0.3-0.1,0s0.1-0.2,0.1-0.6c0.1,0.2,0.1-0.1,0.1-0.1c0.1,0.3,0.2,0.1,0.3,0.4c0-0.1,0.1-0.6,0.2-0.6
				c0.1,0.3,0,0.3,0.1,0.4v-0.2c0.1,0,0.1,0.1,0.1,0.2s0.1-0.3,0.2-0.2l-0.1,0.2c0.1-0.1,0.1-0.1,0.2,0s0,0.1-0.1,0.1
				c0,0.4,0.1-0.2,0.1-0.1c0-0.1,0-0.3,0-0.4c0.1,0,0.1-0.3,0.1,0l-0.1,0.2c0.1-0.2,0.1-0.3,0.2-0.2s0,0.1,0,0.1
				c0.1-0.3,0.2,0,0.3,0v0.1c0-0.1,0.1-0.3,0.1-0.3c-0.1-0.1-0.1-0.3-0.1-0.5c0.1,0.4,0.1-0.5,0.3-0.2s0,0.3-0.1,0.2
				c0,0.3-0.1,0.7-0.1,1c0.1-0.1,0.1-0.2,0.1,0v-0.4c0,0,0.1,0,0.1,0c0-0.2-0.1-0.4,0-0.6s0,0.4,0,0.2s0.1-0.4,0.2-0.3
				s0,0.1-0.1,0.1c0.1,0.2,0.2-0.1,0.2,0.4c0,0.1,0,0.2-0.1,0.2v-0.1c-0.1,0.3,0.1-0.1,0.1,0.3c0-0.2,0.1-0.2,0.2-0.1v-0.3
				c0.2-0.9,0,0.6,0.2,0.5s0-0.1,0-0.3c0.1,0.1,0.1,0.3,0.2,0.2c0.1,0.2,0.1,0.4,0.1,0.6c0.1-0.1,0.2,0.1,0.2-0.2s-0.1,0.4-0.2-0.1
				v-0.3c0.1,0,0.2-0.1,0.3,0c0-0.1,0-0.1,0-0.2c0.1-0.1,0.2-0.4,0.3-0.3c0,0.3-0.1,0.2-0.1,0.3c0.1,0.2,0.1,0,0.2,0.1
				c0,0.3-0.1,0-0.1,0.2l0.1-0.1v0.1c0-0.4,0.1,0,0.2-0.1s0.2-0.6,0.3-0.9c0,0.1,0,0.2,0,0.3c0-0.2,0,0-0.1,0.1
				c0.1,0,0.1,0.4,0.1,0.6c0.1-0.1,0-0.2,0-0.4h0.1c0-0.2-0.1-0.3,0-0.4s0.1,0,0.2,0s0,0.3,0,0.3s0.1,0.1,0.1-0.1s0.1-0.2,0.1-0.5
				l0.1,0.2c0,0,0,0.1-0.1,0.1c0,0.3,0.1-0.1,0.1-0.1s0.1,0.1,0.1,0.2c0-0.1,0.1,0,0.1,0.1c0-0.1,0-0.2,0-0.3h0.1c0,0.3,0,0.5,0,0.8
				c0.1-0.2,0-0.5,0.1-0.5c0,0.4,0.1,0.3,0,0.7c0,0.3,0.2,0.3,0.3,0.2c0.1-0.3-0.1-0.2-0.1-0.4c0.2-0.1,0.2-0.9,0.4-0.8v-0.1
				c0.1-0.1,0.1-0.2,0.1-0.4c0,0.4,0.1,1,0.3,0.9s-0.1-0.4-0.1-0.6h0.1c0,0,0,0.1,0,0.1c0.1-0.1,0.2,0.5,0.2,0l0.1,0.5v-0.2
				c0-0.2,0.1-0.2,0.1-0.3s0.1,0,0.2,0.2c0-0.1-0.1-0.5,0-0.5c0,0.6,0.2,0.2,0.2,0.5c0,0,0.1,0.2,0.1-0.1v0.4c0-0.5,0.1-0.5,0.2-0.6
				c0,0.7,0.1-0.1,0.1,0.6c0-0.5,0.2-0.2,0.2-0.6c0.1,0,0.1,0.4,0.1,0.6v-0.2c0,0.2,0.2,0.2,0.3,0.4l0.1-0.4v0.2
				c0-0.1,0.1-0.2,0-0.3l0,0c0-0.4,0.1-0.1,0.1-0.3c0,0.1,0,0.2,0,0.2c0,0,0,0.2,0,0.4c0-0.1,0.1-0.8,0-1s0.1-0.3,0.1-0.2v0.4v-0.4
				c0.1-0.1,0.1,0.2,0.1,0.2s-0.1,0.8,0,0.8c-0.1,0.1-0.1,0.3-0.1,0.4s0,0.1,0,0.2c0.1-0.1,0-0.2,0.1-0.3c0,0.4,0,0.5,0.1,0.6
				l-0.1-0.3c0,0,0-0.1,0-0.1c0-0.1,0-0.2,0-0.2c0,0,0.1-0.4,0.1-0.2c-0.1-0.6,0.2-0.4,0.1-0.8c0-0.1,0.1-0.1,0.1,0.1s0.1,0.4,0,0.7
				c0-0.1-0.1-0.3,0-0.4s0.1,0.2,0.1,0.3v0.1l0.1,0.2c0-0.2-0.1-0.3,0-0.4c0,0.1,0.1,0,0.1,0.1s0,0.6-0.1,0.6s0.2-0.1,0.2-0.4h0.1
				c0-0.1-0.1-0.4,0-0.5v0.1l0.1-0.3v0.2c0-0.1,0-0.2,0-0.2c0,0.1,0,0.2,0,0.3c0.1,0,0.1-0.2,0.1-0.3s0.1,0,0,0.3
				c0.1,0,0.2,0,0.2,0.2c0.1-0.2,0-0.1,0-0.3c0.1,0.6,0.3,0.2,0.5,0.2c-0.1-0.6,0-0.1,0.1-0.6c0,0.2,0.1,0.4,0,0.6l0.1-0.1
				c0.1,0.3-0.1,0.2-0.1,0.6c0.1,0,0.2-0.6,0.3-0.4c0,0.4,0.1-0.1,0.1,0.3c0,0.1-0.1,0.1-0.1,0.1v0.1c0.2,0.1,0.1-0.5,0.2-0.7
				c0.1,0,0.1,0.3,0.1,0.5s0.1,0,0.1-0.1c-0.1,0.2-0.1-0.2-0.1-0.5c0.1,0.4,0.2,0,0.2-0.1c-0.2-0.5-0.1,0-0.3-0.5
				c0,0.1,0,0.5-0.1,0.4c0.1-0.1,0.1-0.2,0-0.3c0,0.2-0.1,0.1-0.1,0.2c0-0.2,0.1-0.5,0-0.6v0.5c0-0.1,0-0.4-0.1-0.3
				c0-0.3,0-0.4,0.1-0.5c-0.1-0.5-0.2,0.2-0.3,0.4c0,0,0-0.1,0-0.1c0,0.1-0.1,0.1-0.1,0.2c-0.1-0.1,0.1-0.2,0-0.4h0.4l0,0
				c0,0.1-0.1,0.1-0.1,0s0-0.4,0.1-0.5l-0.1,0.4c0-0.2-0.1-0.3,0-0.4l-0.2,0.1v-0.4c0,0.1,0,0.1,0,0.2c-0.1-0.1-0.3,0.6-0.2-0.1
				c-0.1,0.3-0.2,0.2-0.4,0.4c0.1-0.3-0.1-0.4,0-0.6c-0.1-0.2-0.1,0.2-0.2,0.3c-0.1-0.2-0.1-0.4,0-0.6l-0.1,0.2v-0.1l-0.1,0.2
				c-0.1-0.2,0-0.4-0.1-0.4v0.3l-0.1-0.2c0,0.1,0,0.2-0.1,0.2V187l-0.1,0.1c0.1-0.2-0.1-0.1,0-0.3c-0.1,0-0.1,0-0.2,0v0.2
				c-0.1,0.2,0-0.3-0.1-0.3v0.2c-0.1-0.4-0.3,0.2-0.4,0c0.1-0.1,0.1-0.4,0.1-0.3s-0.2,0-0.4,0.3c0-0.2,0-0.4-0.1-0.6
				c-0.1,0-0.1,0.1-0.1,0.3c-0.1-0.1-0.2,0.1-0.2-0.2c0,0.2-0.1,0-0.1,0.1v0.1c-0.1-0.6-0.2,0.3-0.4-0.2v-0.1l-0.1,0.1
				c0-0.1,0-0.2,0-0.3l-0.2-0.1v0.2c-0.1,0-0.1,0.3-0.1,0.1c0.1-0.4-0.1,0-0.1-0.3l0.1-0.1c-0.1,0-0.1,0-0.1,0.3
				c-0.1,0.1-0.1-0.5-0.1-0.2h0.1c0,0.1,0,0.4-0.1,0.4s0-0.1,0-0.2s-0.2,0-0.2,0.1c0-0.1,0-0.2,0-0.3c-0.2,0.2-0.1-0.1-0.2,0.2V186
				l-0.1,0.2l-0.1-0.3v0.2c0,0-0.1,0.1-0.1,0v-0.2c-0.1,0.1-0.2-0.4-0.3-0.1c0,0,0-0.1,0-0.1c-0.1,0.3-0.1-0.4-0.2,0
				c0-0.1,0-0.1,0-0.2l-0.1,0.1v-0.3v0.4v-0.3v0.1c-0.1-0.6-0.2-0.1-0.2-0.6v0.4c-0.2,0.8-0.5-0.4-0.8-0.1V185l-0.1,0.3
				c-0.1-0.2,0-0.2,0-0.4c-0.1,0.2-0.1,0.4-0.2,0.5c-0.1-0.2,0-0.2,0.1-0.3c-0.1,0.1-0.3,0.3-0.4,0.1c0,0,0,0.1,0,0.1s-0.2,0-0.3,0
				c0-0.1,0-0.2,0.1-0.2s-0.1-0.1-0.1,0V185c-0.1,0-0.2,0.2-0.2-0.1c0,0.1,0,0.3-0.1,0.3c0-0.4-0.2,0.2-0.3-0.1s0.1-0.1,0.1-0.1
				s-0.1,0.1-0.1,0.2V185l-0.2,0.2c0-0.4-0.2,0.1-0.2-0.3c-0.1,0,0.1,0.2,0,0.2c0-0.2-0.1,0.1-0.1-0.2l0,0h-0.1l0.1-0.3
				c-0.1,0.2-0.1,0.4-0.1,0.6c-0.1-0.2-0.1,0-0.2-0.3V185c-0.2,0.1-0.3-0.8-0.4-0.3v-0.1h-0.1v-0.2l-0.2,0.3v-0.1
				c-0.1-0.1-0.3,0-0.4,0.1v-0.1c-0.2,0.2-0.2-0.1-0.3,0c0,0,0,0,0-0.1h-0.1v-0.1c-0.1,0.3-0.2-0.4-0.2-0.1
				c-0.1,0.2-0.1,0.3-0.1,0.5c-0.1,0,0-0.2-0.1-0.3s-0.1,0.2-0.2,0.1v-0.1c0,0-0.1,0.1-0.2,0.1v-0.1c-0.1,0.3-0.1-0.4-0.2,0.2
				c0-0.1-0.1,0-0.1-0.3c-0.1,0.2-0.3,0.3-0.4,0.4c0-0.5,0,0-0.1-0.2v0.3c-0.2,0-0.4-0.6-0.7-0.5V184l-0.1,0.3
				c-0.2-0.1-0.5-0.2-0.8-0.2c-0.1,0.1-0.2,0.4-0.3,0.4l0,0c-0.2,0.1-0.4,0.2-0.6,0.1c0-0.1,0-0.2,0-0.2c-0.1,0.3-0.1,0-0.2,0
				l0.1,0.2c-0.1,0.2-0.1,0-0.2-0.2l-0.1,0.3c0,0,0-0.1,0-0.1v0.1v-0.3c-0.1,0.1-0.2,0.3-0.2,0.5c0-0.1-0.1-0.2,0-0.3l-0.3-0.1v0.1
				c0,0.3-0.1,0.4-0.1,0.3c0.1-0.2,0.1-0.4,0-0.6c0,0.1,0,0.2,0,0.4s-0.2,0.3-0.2,0.1v-0.1c-0.1,0.1-0.1-0.4-0.2-0.3
				c-0.1,0.2-0.1,0-0.1,0.4c-0.1,0.1,0-0.3-0.1-0.3c0,0.2-0.2,0.1-0.2-0.1c-0.1,0.6-0.3-0.2-0.3,0.3l-0.1-0.3c0,0.2,0,0.4-0.1,0.5
				c0-0.2-0.1-0.4-0.1-0.6v0.5c-0.4-0.6-0.8-0.2-1.2-0.7c-0.2,0.1-0.4,0.4-0.6,0.3v-0.1l-0.2-0.1l0.1,0.2c0,0.1-0.1,0.2-0.1,0.1
				c-0.2-0.2-0.5-0.5-0.8-0.2c-0.2,0.6-0.1-0.6-0.3-0.1c0-0.1,0-0.1,0-0.2c-0.2,0.2-0.3,0.4-0.4,0.7c0-0.6-0.1,0-0.1-0.3v0.2
				c0-0.1-0.1-0.2-0.1-0.4l-0.1,0.3v-0.3c-0.1,0-0.3,0.2-0.4-0.3c-0.3,0.4-0.7,0.3-1,0.2c0,0.2-0.1,0.2-0.2,0.2l-0.1-0.3
				c-0.1,0.1-0.2,0.5-0.2,0.3c0,0,0-0.1,0-0.1c-0.1,0.1-0.2-0.1-0.2,0.2c-0.1,0-0.2-0.2-0.1-0.5c0,0.5-0.2-0.1-0.2-0.1
				s-4.3-1.2-5.3,1.5c-0.1,0.2-0.1,0.5-0.1,0.7c-0.1,0.1-0.1-0.4-0.1-0.1s0,0.6,0.1,1l-0.1,0.1c0,0.2,0.1-0.2,0.1,0.1v-0.5
				c0.1,0.1,0.1,0.2,0.1,0.3c0-0.2,0.1-0.8,0.2-0.5l0,0c0.1,0,0,0.3,0.1,0.4l0,0l0.1,0.2c-0.1-0.2-0.2,0.2-0.1,0.2
				c0.1,0.1,0-0.1,0.1-0.2s0,0.2,0,0.4h0.1c0,0.2-0.1,0,0,0.2l0.1-0.2c0,0.6,0.1-0.3,0.2,0.3c-0.1,0.1,0,0.2,0,0.4h0.2
				c0,0.1,0,0.2,0,0.1c0,0.1,0.1-0.1,0.1-0.1s0.2,0,0.2,0.4s0.1-0.5,0.2-0.3s-0.1,0.1,0,0.3l0.1-0.1c0,0.1,0,0.4-0.1,0.3
				c0.4,0.3,0.6,1.5,0.9,1.2c0,0.3,0,0.2-0.1,0.4c0.2-0.4,0.3,0.6,0.6,0.6v-0.2c0.3,0.7,0.6,0.3,1,0.6V191c0-0.1,0.1-0.2,0.2-0.3
				c0,0.1,0,0.5,0,0.4c0-0.1,0-0.2,0-0.3c0.3,0.6,0.9,0.4,1.3,0.7c0.6-0.2,1.3,0.3,1.9,0.1c-0.1,0-0.1-0.5,0-0.4
				c0.2,0.9,0.3-0.1,0.5,0.5c0.4-0.3,0.7,0.5,1-0.2v0.2c0.1,0.1,0.1-0.1,0.1-0.1v0.1c0.1,0.1,0.3-0.2,0.3,0v-0.3
				c0.1,0,0,0.2,0.1,0.1v0.1l0.1-0.3c0,0.5,0.2,0,0.3,0.3c0.1-0.1,0.3-0.3,0.4-0.2c0,0.3,0.2,0.3,0.3,0.4c0.3-0.1,0.5-0.1,0.8-0.1
				v-0.3h0.1c0,0,0,0.1,0,0.1c0.1,0.4,0.2-0.1,0.2,0.1c0-0.3-0.1-0.1-0.1-0.1s0-0.5,0.1-0.3v0.1l0.1-0.2c0,0.3,0.1,0.4,0.1,0.6
				c0.2-0.1,0.4-0.5,0.7-0.4c0,0.3,0.2-0.1,0.1,0.4c0.1-0.2,0-0.4,0-0.8c0,0,0.1-0.1,0.1,0.1s0,0.3,0,0.4h0.1c0,0,0,0.1,0,0.1
				c0.2-0.3,0.4,0.3,0.5,0c0-0.2-0.1-0.1-0.1-0.2c0.2-0.4,0.2,0.3,0.3,0.1v0.2c0.1-0.2,0.1-0.4,0.2-0.2s-0.1,0.2-0.1,0.4
				s0.2-0.1,0.2-0.3c0.1-0.1,0.1,0.2,0.1,0.2c0-0.1,0-0.2,0-0.3c0.1,0.2,0.3,0.2,0.4,0.2c0,0.1,0,0.1,0,0.2
				C136.2,191.5,136.1,192.1,136.3,192z"/>
			<path class="st3" d="M142.9,190.5L142.9,190.5c0,0.1,0,0.1-0.1,0.2L142.9,190.5z"/>
			<path class="st3" d="M140.6,190.4C140.6,190.4,140.6,190.4,140.6,190.4C140.6,190.5,140.6,190.4,140.6,190.4z"/>
			<path class="st3" d="M140,190.9c0-0.1,0-0.1,0-0.2C140,190.7,140,190.8,140,190.9z"/>
			<path class="st3" d="M144.3,189.8c0,0,0,0.1,0,0.1C144.3,189.9,144.3,189.8,144.3,189.8z"/>
			<path class="st3" d="M148,190L148,190L148,190z"/>
			<path class="st3" d="M147.8,189.5L147.8,189.5C147.8,189.5,147.8,189.6,147.8,189.5z"/>
			<path class="st3" d="M143.4,189.9C143.4,189.9,143.4,189.9,143.4,189.9C143.4,190,143.4,189.9,143.4,189.9z"/>
			<path class="st3" d="M147.7,189.6L147.7,189.6L147.7,189.6L147.7,189.6z"/>
			<path class="st3" d="M148.1,190C148.1,190,148.1,190,148.1,190C148,190,148.1,190.1,148.1,190z"/>
			<path class="st3" d="M145.7,189.4L145.7,189.4C145.6,189.5,145.6,189.5,145.7,189.4z"/>
			<polygon class="st3" points="147.5,190.1 147.5,190.1 147.5,190.2 			"/>
			<path class="st3" d="M148.3,190.1C148.3,190.1,148.3,190.2,148.3,190.1L148.3,190.1L148.3,190.1z"/>
			<path class="st3" d="M146.4,189.9c0-0.1,0-0.2,0-0.2C146.4,189.6,146.4,189.7,146.4,189.9z"/>
			<path class="st3" d="M147,199.8L147,199.8z"/>
			<path class="st3" d="M144.7,199L144.7,199C144.7,198.9,144.7,198.9,144.7,199z"/>
			<path class="st3" d="M148.3,200.2L148.3,200.2h0.1H148.3z"/>
			<path class="st3" d="M139.8,198L139.8,198C139.8,198,139.8,198,139.8,198z"/>
			<path class="st3" d="M142.7,198.6c0,0,0,0.1,0,0.1C142.7,198.7,142.7,198.7,142.7,198.6z"/>
			<path class="st3" d="M149.1,203v-0.2C149,202.9,149,202.9,149.1,203z"/>
			<path class="st3" d="M150.4,202.2L150.4,202.2C150.4,202.2,150.4,202.2,150.4,202.2z"/>
			<path class="st3" d="M149.9,201.4L149.9,201.4C149.9,201.5,149.9,201.5,149.9,201.4z"/>
			<path class="st3" d="M149.8,201.6L149.8,201.6C149.8,201.5,149.8,201.5,149.8,201.6z"/>
			<path class="st3" d="M122.2,199c0,0-0.1,0.1-0.1,0.3L122.2,199z"/>
			<path class="st3" d="M135.4,197.9L135.4,197.9C135.4,197.8,135.4,197.9,135.4,197.9z"/>
			<path class="st3" d="M122.1,200.6L122.1,200.6C122.1,200.6,122.1,200.6,122.1,200.6z"/>
			<path class="st3" d="M148.3,203.5c0,0.2-0.1,0-0.1,0.1C148.2,203.6,148.3,203.8,148.3,203.5z"/>
			<path class="st3" d="M134.5,205L134.5,205z"/>
			<path class="st3" d="M122.1,200.6L122.1,200.6C122.1,200.6,122.1,200.5,122.1,200.6C122.1,200.5,122.1,200.6,122.1,200.6z"/>
			<path class="st3" d="M130.9,197.8L130.9,197.8L130.9,197.8z"/>
			<path class="st3" d="M130.6,197.5L130.6,197.5C130.6,197.5,130.6,197.5,130.6,197.5z"/>
			<path class="st3" d="M122.1,199.2l-0.1,0.1C122,199.3,122.1,199.3,122.1,199.2z"/>
			<path class="st3" d="M128,197.8L128,197.8C128,197.8,128,197.8,128,197.8z"/>
			<path class="st3" d="M142.9,198.8L142.9,198.8C142.9,198.8,142.9,198.7,142.9,198.8z"/>
			<polygon class="st3" points="141.1,203.7 141.1,203.7 141.1,203.7 			"/>
			<path class="st3" d="M141.2,203.5c0,0-0.1,0.1-0.1,0.2S141.1,203.7,141.2,203.5z"/>
			<path class="st3" d="M140.9,203.6L140.9,203.6L140.9,203.6z"/>
			<path class="st3" d="M142.8,204L142.8,204z"/>
			<path class="st3" d="M142.4,204C142.4,204,142.4,203.9,142.4,204C142.4,203.9,142.4,204,142.4,204z"/>
			<polygon class="st3" points="139.9,204.1 139.9,204.1 139.9,204.1 			"/>
			<path class="st3" d="M136.3,205.5c0.4-0.1,0.8-0.5,1.2-0.4c0.1-0.4,0.2-0.4,0.3-0.5v0.5l0.1-0.2c0,0.1-0.1,0.1,0,0.3V205
				c0,0.2,0.2,0.1,0.1,0.5h0.4c0.1,0,0.1-0.4,0.1-0.3s0,0.1,0,0.3c0.3,0.4,0.3-1,0.6-0.8v0.1c0-0.1,0.1-0.1,0.1-0.2
				c0-0.5-0.1,0.3-0.1,0s0.1-0.2,0.1-0.6c0.1,0.1,0.1-0.1,0.1-0.1c0.1,0.3,0.2,0.1,0.3,0.4c0-0.1,0.1-0.6,0.2-0.6
				c0.1,0.3,0,0.3,0.1,0.4v-0.2c0.1,0,0.1,0.1,0.1,0.2s0.1-0.4,0.2-0.2l-0.1,0.2c0.1-0.1,0.1-0.1,0.2,0s-0.1,0.1-0.1,0.1
				c0.1,0.4,0.1-0.2,0.1-0.1c0-0.1,0-0.3,0-0.4c0.1,0,0.1-0.3,0.1,0v0.2c0.1-0.2,0-0.3,0.2-0.2c0,0,0,0.1,0,0.1c0.1-0.3,0.2,0,0.3,0
				v0.1c0.1-0.1,0.1-0.3,0.1-0.3c-0.1-0.1-0.1-0.3-0.1-0.5c0.1,0.4,0.1-0.5,0.3-0.2s0,0.3-0.1,0.2c0,0.3-0.1,0.7-0.1,1
				c0.1-0.1,0.1-0.1,0.1,0v-0.4c0,0,0.1,0,0.1,0c0-0.2-0.1-0.4,0-0.6s0,0.4,0.1,0.2s0-0.4,0.2-0.3s0,0.1,0,0.1
				c0.1,0.2,0.2-0.1,0.2,0.4c0,0.1,0,0.2,0,0.2v-0.1c-0.1,0.3,0.1-0.1,0,0.3c0-0.2,0.1-0.2,0.2-0.1v-0.3c0.2-0.9,0,0.6,0.1,0.5
				s0-0.1,0-0.3c0.1,0.1,0.1,0.3,0.2,0.2c0.1,0.2,0.1,0.4,0.1,0.6c0.1-0.1,0.2,0.1,0.2-0.2s-0.1,0.4-0.2-0.1v-0.3
				c0.1,0,0.2-0.1,0.3,0c0-0.1,0-0.1,0-0.2c0.1-0.1,0.2-0.4,0.3-0.3c0,0.3-0.1,0.2-0.1,0.3c0.1,0.2,0.1,0,0.2,0.1
				c0,0.3-0.1,0-0.1,0.2l0.1-0.1l0,0c0-0.4,0.1,0,0.2-0.1s0.2-0.6,0.3-0.9c0,0.1,0,0.2,0,0.3c-0.1-0.2,0,0-0.1,0.1
				c0.1,0,0.1,0.4,0.1,0.6c0.1-0.1,0-0.2,0-0.4h0.1c0-0.2-0.1-0.3,0-0.4s0.1,0,0.2,0s0,0.3,0,0.3s0.1,0.1,0.1-0.1s0.1-0.2,0.1-0.5
				l0.1,0.2c0,0,0,0.1-0.1,0.1c0,0.3,0.1-0.1,0.1-0.1s0.1,0.1,0.1,0.2c0-0.1,0.1,0,0.1,0.1c0-0.1,0-0.2,0-0.3h0.1c0,0.3,0,0.5,0,0.8
				c0.1-0.2,0-0.5,0.1-0.5c0,0.4,0.1,0.3,0,0.7c0,0.3,0.2,0.3,0.3,0.2c0.1-0.3-0.1-0.2-0.1-0.4c0.2-0.1,0.2-0.9,0.4-0.8v-0.1
				c0.1-0.1,0.1-0.2,0.1-0.4c0,0.4,0.1,1,0.3,0.9s-0.1-0.4-0.1-0.6h0.1c0,0,0,0.1,0,0.1c0.1-0.1,0.2,0.5,0.2,0l0.1,0.5v-0.2
				c0-0.2,0.1-0.2,0.1-0.3s0.1,0,0.2,0.2c0-0.1-0.1-0.5,0-0.5c0,0.6,0.2,0.2,0.2,0.5c0,0,0.1,0.2,0.1-0.1v0.4c0-0.5,0.1-0.5,0.2-0.6
				c0,0.7,0.1-0.1,0.1,0.6c0-0.5,0.2-0.2,0.2-0.6c0.1,0,0.1,0.4,0.1,0.6v-0.2c0,0.2,0.2,0.2,0.3,0.4l0.1-0.4v0.2
				c0-0.1,0.1-0.2,0-0.3l0,0c0-0.4,0.1-0.1,0.1-0.3c0,0.1,0,0.2,0,0.2c0,0,0,0.2,0,0.4c0-0.1,0.1-0.8,0-1s0.1-0.3,0.1-0.2v0.4
				l0.1-0.4c0.1-0.1,0.1,0.2,0.1,0.2s-0.1,0.8,0,0.8c-0.1,0.1-0.1,0.3-0.1,0.4s0,0.1,0,0.2c0.1-0.1,0-0.2,0.1-0.3
				c0,0.4,0,0.5,0.1,0.6l-0.1-0.3c0,0,0-0.1,0-0.1c0-0.1,0-0.2,0-0.2c0,0,0.1-0.4,0.1-0.2c-0.1-0.6,0.2-0.4,0.1-0.8
				c0-0.1,0.1-0.1,0.1,0.1s0.1,0.4,0.1,0.7c0-0.1-0.1-0.3,0-0.4s0.1,0.2,0.1,0.3v0.1l0.1,0.2c0-0.2-0.1-0.3,0-0.4
				c0,0.1,0.1,0,0.1,0.1c0,0.2,0,0.4-0.1,0.6c0.1,0,0.2-0.1,0.1-0.4h0.1c0-0.1-0.1-0.4,0-0.5v0.1l0.1-0.3v0.2c0-0.1,0-0.2,0-0.2
				c0,0.1,0,0.2,0,0.3c0.1,0,0.1-0.2,0.1-0.3s0.1,0,0.1,0.3c0.1,0,0.2,0,0.2,0.2c0.1-0.2,0-0.1,0-0.3c0.1,0.6,0.3,0.2,0.5,0.2
				c0-0.6,0-0.1,0.1-0.6c0,0.2,0.1,0.4,0,0.6l0.1-0.1c0.1,0.3-0.1,0.2,0,0.6c0.1,0,0.2-0.6,0.3-0.4c0,0.4,0.1-0.1,0.1,0.3
				c0,0.1-0.1,0.1-0.1,0.1v0.1c0.2,0.1,0.1-0.5,0.2-0.7c0.1,0,0.1,0.3,0.1,0.5s0.1,0,0.1-0.1c-0.1,0.2-0.1-0.2-0.1-0.5
				c0.1,0.4,0.2,0,0.2-0.1c-0.2-0.5-0.1,0-0.3-0.5c0,0.1,0,0.5-0.1,0.4c0-0.1,0-0.2,0-0.3c0,0.2-0.1,0.1-0.1,0.2
				c0-0.2,0.1-0.5,0-0.6v0.5c0-0.1,0-0.4-0.1-0.3c0-0.3,0-0.4,0.1-0.5c-0.1-0.5-0.2,0.2-0.3,0.4c0,0,0-0.1,0-0.1
				c0,0.1-0.1,0.1-0.1,0.2c-0.1-0.1,0.1-0.2,0-0.4h-0.1l0,0c0,0.1-0.1,0.1-0.1,0s0-0.4,0.1-0.5l-0.1,0.4c0-0.2-0.1-0.3,0-0.4
				l-0.2,0.1v-0.4c0,0.1,0,0.1,0,0.2c-0.1-0.1-0.3,0.6-0.2-0.1c-0.1,0.3-0.2,0.2-0.4,0.4c0.1-0.3-0.1-0.4,0-0.6
				c-0.1-0.2-0.1,0.2-0.2,0.3c-0.1-0.2-0.1-0.4,0-0.6l-0.1,0.2v-0.1l-0.1,0.2c-0.1-0.2,0-0.4-0.1-0.4v0.3l-0.1-0.2
				c0,0.1,0,0.2-0.1,0.2v-0.1l-0.1,0.1c0.1-0.2-0.1-0.1,0-0.3c-0.1,0-0.1,0-0.1,0v0.2c-0.1,0.2,0-0.3-0.1-0.3v0.2
				c-0.1-0.4-0.2,0.2-0.4,0c0.1-0.1,0.1-0.4,0.1-0.3s-0.2,0-0.4,0.3c0-0.2,0-0.4-0.1-0.6c-0.1,0-0.1,0.1-0.1,0.3
				c-0.1-0.1-0.2,0.1-0.2-0.2c0,0.2-0.1,0-0.1,0.1v0.1c-0.1-0.6-0.2,0.3-0.3-0.2v-0.1l-0.1,0.1c0-0.1,0-0.2,0-0.3l-0.2-0.1l0.1,0.2
				c-0.1,0-0.1,0.3-0.1,0.1c0.1-0.4-0.1,0-0.1-0.3l0.1-0.1c-0.1,0-0.1,0-0.1,0.3c-0.1,0.1-0.1-0.5-0.1-0.2h0.3c0,0.1,0,0.4-0.1,0.4
				s0-0.1,0-0.2s-0.2,0-0.2,0.1c0-0.1,0-0.2,0-0.3c-0.2,0.2-0.1,0-0.2,0.2v-0.1l-0.1,0.2l-0.1-0.3v0.2c-0.1,0-0.1,0.1-0.1,0v-0.2
				c-0.1,0.1-0.2-0.4-0.3-0.1c0,0,0-0.1,0-0.1c-0.1,0.3-0.1-0.4-0.2,0c0-0.1,0-0.1,0-0.2l-0.1,0.1v-0.3v0.4v-0.3v0.1
				c-0.1-0.6-0.2-0.1-0.2-0.6v0.4c-0.2,0.8-0.5-0.4-0.8-0.1v-0.3l-0.1,0.3c-0.1-0.2,0-0.2,0-0.4c-0.1,0.2,0,0.4-0.2,0.5
				c-0.1-0.2,0-0.2,0-0.3c-0.1,0.1-0.3,0.3-0.4,0.1c0,0,0,0.1,0,0.1c-0.1,0.1-0.2,0-0.3,0c0-0.1,0-0.2,0-0.2s-0.1-0.1-0.1,0v-0.2
				c-0.1,0-0.2,0.2-0.2-0.1c0,0.1,0,0.3-0.1,0.3c0-0.4-0.2,0.2-0.3-0.1s0.1-0.1,0.1-0.1s-0.1,0.1-0.1,0.2v-0.2l-0.2,0.2
				c0-0.4-0.2,0.1-0.2-0.3c-0.1,0,0.1,0.2,0,0.2c0-0.2-0.1,0.1-0.1-0.2l0,0h-0.1v-0.3c-0.1,0.2-0.1,0.4-0.1,0.6
				c-0.1-0.2-0.1,0-0.2-0.3v-0.1c-0.2,0.1-0.3-0.8-0.4-0.3V198h-0.1v-0.2l-0.2,0.3V198c-0.1-0.1-0.3,0-0.4,0.1V198
				c-0.2,0.2-0.1-0.1-0.3,0c0,0,0,0,0-0.1h-0.1v-0.1c-0.1,0.3-0.2-0.4-0.2-0.1c-0.1,0.2-0.1,0.3-0.1,0.5c-0.1,0,0-0.2-0.1-0.3
				s-0.1,0.2-0.2,0.1v-0.1c0,0-0.1,0.1-0.2,0.2v-0.1c-0.1,0.3-0.1-0.4-0.2,0.2c0-0.1-0.1,0-0.1-0.3c-0.1,0.2-0.3,0.3-0.4,0.4
				c0-0.5,0,0-0.1-0.2v0.3c-0.2,0-0.4-0.6-0.7-0.5v-0.2v0.3c-0.2-0.1-0.5-0.2-0.8-0.2c-0.1,0.1-0.2,0.4-0.3,0.4l0,0
				c-0.2,0.1-0.4,0.2-0.6,0.1c0-0.1,0-0.2,0-0.2c-0.1,0.3-0.1,0-0.2,0v0.2c-0.1,0.2-0.1,0-0.2-0.2l-0.1,0.3c0,0,0-0.1,0-0.1v0.2
				v-0.3c-0.1,0.1-0.2,0.3-0.2,0.5c0-0.1-0.1-0.2,0-0.3l-0.3-0.1l0.1,0.1c0,0.3-0.1,0.4-0.1,0.3c0.1-0.2,0.1-0.4,0-0.6
				c-0.1,0.1,0,0.2,0,0.4s-0.2,0.3-0.2,0.1v-0.1c-0.1,0.1-0.1-0.4-0.2-0.3c-0.1,0.2-0.1,0-0.1,0.4c-0.1,0.1,0-0.3-0.1-0.3
				c-0.1,0.2-0.2,0.1-0.2-0.1c0,0.6-0.2-0.2-0.3,0.3l-0.1-0.3c0,0.2,0,0.4-0.1,0.5c0-0.2-0.1-0.4-0.1-0.6v0.5
				c-0.4-0.6-0.8-0.2-1.2-0.7c-0.2,0.1-0.4,0.4-0.6,0.3v-0.1l-0.2-0.1l0.1,0.2c0,0.1-0.1,0.2-0.1,0.1c-0.2-0.2-0.5-0.5-0.8-0.2
				c-0.2,0.6-0.1-0.6-0.3-0.1c0-0.1,0-0.1,0-0.2c-0.2,0.2-0.3,0.4-0.4,0.7c0-0.6-0.1,0-0.1-0.3v0.2c0-0.1-0.1-0.2-0.1-0.4l-0.1,0.3
				v-0.3c-0.1,0-0.3,0.2-0.4-0.3c-0.3,0.4-0.7,0.3-1,0.2c0,0.2-0.1,0.2-0.2,0.2l-0.1-0.3c-0.1,0.1-0.2,0.5-0.2,0.3c0,0,0-0.1,0-0.1
				c-0.1,0.1-0.2-0.1-0.2,0.2c-0.1,0-0.2-0.2-0.1-0.5c0,0.5-0.2-0.1-0.2-0.1s-4.2-1.2-5.3,1.5c-0.1,0.2-0.1,0.5-0.1,0.7
				c-0.1,0.1-0.1-0.4-0.1-0.1s0,0.6,0.1,1l-0.1,0.1c0,0.2,0.1-0.2,0.1,0.1v-0.5c0.1,0.1,0.1,0.2,0.1,0.3c0-0.2,0.1-0.8,0.2-0.5l0,0
				c0.1,0,0.1,0.3,0.1,0.4l0,0l0.1,0.2c-0.1-0.2-0.2,0.2-0.1,0.2c0.1,0.1,0-0.1,0.1-0.2s0,0.2,0,0.4h0.1c0,0.2-0.1,0,0,0.2l0.1-0.2
				c0,0.5,0.1-0.3,0.2,0.2c-0.1,0.1,0,0.2,0,0.4h0.2c0,0.1-0.1,0.2,0,0.1c0,0.1,0.1-0.1,0.1-0.1s0.2,0,0.2,0.4
				c0.1,0.2,0.1-0.5,0.2-0.3s-0.1,0.1,0,0.3l0.1-0.1c0,0.1,0,0.4-0.1,0.3c0.4,0.3,0.6,1.5,0.9,1.2c0,0.3,0,0.2-0.1,0.4
				c0.2-0.4,0.3,0.6,0.6,0.6v-0.2c0.3,0.7,0.6,0.3,1,0.6v-0.1c0-0.2,0.1-0.2,0.2-0.3c0,0.1,0,0.5,0.1,0.4c0-0.1,0-0.2,0-0.3
				c0.3,0.6,0.9,0.4,1.3,0.7c0.6-0.2,1.3,0.3,1.9,0.1c-0.1,0,0-0.5,0-0.4c0.2,0.9,0.3-0.1,0.5,0.5c0.4-0.3,0.7,0.5,1-0.2v0.2
				c0.1,0.1,0.1-0.1,0.1-0.1v0.1c0.1,0.1,0.3-0.2,0.3,0v-0.3c0.1,0,0,0.2,0.1,0.1v0.1l0.1-0.3c0,0.5,0.2,0,0.3,0.3
				c0.1-0.1,0.3-0.3,0.4-0.2c0,0.3,0.2,0.3,0.3,0.4c0.3-0.1,0.5-0.1,0.8,0V205h0.1c0,0.1,0,0.1,0,0.1c0.1,0.4,0.2-0.1,0.2,0.1
				c0-0.3-0.1-0.1-0.1-0.1s0-0.5,0.1-0.3v0.1l0.1-0.2c0,0.3,0.1,0.4,0.1,0.6c0.2-0.1,0.4-0.5,0.6-0.4c0,0.3,0.2-0.1,0.1,0.4
				c0.1-0.2,0-0.4,0-0.8c0,0,0.1-0.1,0.1,0.1s0,0.3,0,0.4h0.1c0,0,0,0.1,0,0.1c0.2-0.3,0.4,0.3,0.5,0c0-0.2-0.1-0.1-0.1-0.2
				c0.2-0.4,0.2,0.3,0.3,0.1v0.2c0.1-0.2,0.1-0.4,0.2-0.2s-0.1,0.2-0.1,0.4s0.2-0.1,0.2-0.3c0.1-0.1,0.1,0.2,0.1,0.2
				c0-0.1-0.1-0.2,0-0.3c0.1,0.2,0.3,0.2,0.4,0.2c0,0.1,0,0.1,0,0.2C136.2,205,136.1,205.6,136.3,205.5z"/>
			<path class="st3" d="M142.9,204L142.9,204c0,0.1,0,0.1-0.1,0.2L142.9,204z"/>
			<path class="st3" d="M140.5,203.9C140.5,203.9,140.5,203.9,140.5,203.9C140.5,203.9,140.5,203.9,140.5,203.9z"/>
			<path class="st3" d="M139.9,204.4c0-0.1,0-0.1,0-0.2C139.9,204.2,139.9,204.3,139.9,204.4z"/>
			<path class="st3" d="M144.2,203.3c0,0,0,0.1,0,0.1C144.2,203.4,144.2,203.3,144.2,203.3z"/>
			<path class="st3" d="M147.9,203.5L147.9,203.5C147.9,203.5,147.9,203.5,147.9,203.5z"/>
			<path class="st3" d="M147.7,203C147.7,203,147.7,203,147.7,203C147.6,203,147.7,203.1,147.7,203z"/>
			<path class="st3" d="M143.3,203.4C143.3,203.4,143.3,203.4,143.3,203.4C143.3,203.6,143.3,203.4,143.3,203.4z"/>
			<path class="st3" d="M147.6,203.1L147.6,203.1L147.6,203.1L147.6,203.1z"/>
			<path class="st3" d="M148,203.5C148,203.5,148,203.5,148,203.5C147.9,203.5,148,203.6,148,203.5z"/>
			<path class="st3" d="M145.6,202.9L145.6,202.9C145.5,203,145.6,203,145.6,202.9z"/>
			<polygon class="st3" points="147.4,203.6 147.4,203.6 147.4,203.7 			"/>
			<path class="st3" d="M148.2,203.6C148.2,203.6,148.2,203.7,148.2,203.6L148.2,203.6L148.2,203.6z"/>
			<path class="st3" d="M146.3,203.4c0-0.1,0-0.2,0-0.2C146.3,203.1,146.3,203.2,146.3,203.4z"/>
			<path class="st3" d="M165.9,159.8c0,0,0,0.1,0.1,0.1C166,159.9,165.9,159.9,165.9,159.8z"/>
			<path class="st3" d="M178,135.9v0.3C178,136.1,178,136,178,135.9z"/>
			<path class="st3" d="M155.4,171.5L155.4,171.5c-0.2,0.3-0.4,0.5-0.6,0.8C155,172,155.2,171.7,155.4,171.5z"/>
			<path class="st3" d="M153.2,86.6c0.1,0,0.2,0.1,0.3,0.2C153.4,86.7,153.3,86.7,153.2,86.6z"/>
			<path class="st3" d="M176.4,112.2c-0.1-0.1-0.2-0.3-0.2-0.4C176.3,112,176.3,112.1,176.4,112.2z"/>
			<path class="st3" d="M149.4,178l0.2-0.5C149.6,177.5,149.5,177.7,149.4,178z"/>
			<path class="st3" d="M150.2,194L150.2,194C150.2,194,150.2,194,150.2,194z"/>
			<path class="st3" d="M150.9,187.8c0-0.1-0.1-0.3-0.1-0.4C150.9,187.6,150.9,187.8,150.9,187.8z"/>
			<path class="st3" d="M150.8,187.2v0.2C150.8,187.3,150.8,187.2,150.8,187.2z"/>
			<path class="st3" d="M153.2,201.9c0.1-0.5,0-1-0.1-1.4C153.2,200.9,153.2,201.4,153.2,201.9z"/>
			<path class="st3" d="M103.4,98.4v-0.1C103.4,98.3,103.4,98.4,103.4,98.4z"/>
			<path class="st3" d="M151.6,201l0.1-0.3C151.7,200.8,151.7,200.9,151.6,201z"/>
			<path class="st3" d="M152.9,169.3c0.1-0.5,0.9-1.1,0.8-1.2C153.4,168.5,152.8,169,152.9,169.3z"/>
			<path class="st3" d="M103.5,111.1l-0.1,0.2C103.5,111.3,103.5,111.2,103.5,111.1z"/>
			<path class="st3" d="M151.6,201l-0.1,0.4l0.1-0.1C151.6,201.2,151.6,201.1,151.6,201z"/>
			<path class="st3" d="M99.1,151.6L99.1,151.6L99.1,151.6L99.1,151.6z"/>
			<path class="st3" d="M100.3,154.3c-0.1-0.2-0.3-0.3-0.4-0.5C100,154,100.2,154.2,100.3,154.3z"/>
			<path class="st3" d="M153.1,200.4l-0.1-0.8C153,199.9,153.1,200.1,153.1,200.4z"/>
			<path class="st3" d="M118,177.2c0-0.1,0-0.1-0.1-0.2C117.9,177.1,118,177.2,118,177.2z"/>
			<path class="st3" d="M177.1,114.3c0,0.1,0,0.2,0,0.3S177.2,114.6,177.1,114.3z"/>
			<polygon class="st3" points="162.1,99.4 162.1,99.4 162.1,99.4 			"/>
			<path class="st3" d="M163,99.9c-0.3-0.3-0.6-0.5-0.9-0.6C162.3,99.6,162.6,99.8,163,99.9z"/>
			<path class="st3" d="M160.5,97.8L160.5,97.8C160.6,97.9,160.5,97.8,160.5,97.8z"/>
			<path class="st3" d="M171.9,115.2L171.9,115.2z"/>
			<path class="st3" d="M170.3,111.3c0-0.1,0-0.2-0.1-0.3C170.2,111.1,170.2,111.2,170.3,111.3z"/>
			<path class="st3" d="M151.6,92.7L151.6,92.7z"/>
			<path class="st3" d="M115.7,97.4c0.8-0.6,1.6-1.2,2.4-1.7c0.4-0.3,0.9-0.6,1.3-0.9l1.4-0.8l1.4-0.8c0.5-0.2,1-0.4,1.5-0.6
				c0.9-0.4,1.9-0.7,2.8-0.9c0.4-0.3,0.9-0.5,1.3-0.7c0.5-0.2,1.1-0.4,1.7-0.5l0.2,0.5l0.9-0.3c0.4,0.1-0.7,0.2,0,0.3l0.3-0.4
				c0.1,0.2,2.5-0.3,0.9,0.3c0.6-0.1,1.3-0.2,1.9-0.2l1.9-0.1c0.8,0,0.5-0.4,1.4-0.3c0.2,0.2-0.3,0.1-0.3,0.3c1,0.2,2,0.2,3-0.2
				c1-0.2,2-0.2,2.9,0h-0.2c0.5-0.1,1.3,0.1,1.3,0.1c-0.2-0.6-0.5,0.2-1.3-0.3c0.1-0.4,1.1-0.1,1.1-0.4c0.6,0.3,1,0.2,1.5,0.3
				c0.8,0.5,2.2,0.6,2.8,1.3c0.7-0.1,1.4,0,2.1,0.2c0.5,0.6-0.3,0.2,0.6,0.7l0.2-0.2c0.7,0.4,0.6,0.4,0.5,0.5c0.8,0.4,0.8,0,1.7,0.6
				h-0.6c0.7,0.2,1.4,0.6,2,1c-0.1,0.1-0.4-0.2-0.7-0.3c0.3,0.6,0.9,0.4,1.2,0.6c0-0.2-0.6-0.6-0.2-0.6c0.4,0.3,1.2,0.3,1.4,0.8
				l-0.6-0.1c1.1,0.4,0.7,0.1,1.8,0.8c-0.1,0-0.1,0.1-0.1,0.1c0.9,0.2,1.6,1.2,2.5,1.9l-0.2-0.1c0.4,0.2,0.8,0.2,1,0.4
				c-0.4-0.6-0.3-0.5-0.2-0.7c0.5,0.9,1.4,0.6,2.4,1.8c-0.1,0.1-0.5,0-0.7-0.4c-0.7,0-1,0.2-1.8-0.3c0.5,0.3,1,0.7,0.8,0.8l0.4-0.2
				c0.3,0.2,0.4,0.4,0.6,0.6c0.3-0.1-0.2-0.8,0.5-0.3s0.1,0.6,0.3,0.6c1,0.8,0.7,0.1,1.4,1.1c-0.1-0.1-0.3-0.2-0.4-0.3
				c0.5,0.8,1.5,1.6,1.3,2.1c-0.2,0-0.3,0-0.5-0.2h0.1c-0.9-0.5,0.6,0.5,0.1,0.6c0.1-0.1,0.3,0.1,0.6,0.3s0.5,0.7,0.6,0.9l0.1-0.3
				c1.8,1-0.5,0.3,0.6,1.7c0.8,0.8-0.2-0.4,0.4,0c0.4,0.7,0.3,1.1,1,2c0.1,0.3,0.3,0.9,0,1.2c0.5,0.5,0.9,1.9,1.3,2.1
				c-0.3-1.2-0.8-0.9-1.1-2.3l0.5,0.2l0.4,0.6l0.4,0.7c0.2,0.4,0.4,0.8,0.5,1.2c0-0.2,0.1-0.2,0.1-0.2c0.3,0.5,0.6,0.9,0.9,1.3
				c0.3,0.4,0.5,0.9,0.6,1.4c-0.2,0.3-0.4-0.5-0.7-1c0.1,0.9,0.3,0.8,0.7,2.1c-0.2,0.2-0.3-0.8-0.6-0.9l0.6,1.3l0,0
				c0.2,0,0.3,0.3,0.4,0.7c0,0.4,0.1,0.8,0.2,1.2c0.2,0.7,0.5,1.4,0.9,2c0.3,0.4,0.6,0.9,0.8,1.3c-0.1,0.3-0.1,0.4-0.3,0.3
				c0.1-0.6,0-0.4-0.2-0.6c0.2,0.7-0.2,1.6-0.4,1.2c0.3,1.1,0.2-0.4,0.4,0.2c0.1,0.5,0.2,1,0.2,1.6c0.2-0.2,0.2-0.8,0.4,0
				c0.1,0.6,0.1,1.3,0.1,1.9c-0.1-0.1-0.3,0.3-0.3-0.4c-0.1,0.5,0,0.9,0.2,1.4c0.1-0.5,0.1-0.1,0.2,0.3s0.1,0.9,0.3,0.5l-0.2,1
				c0-0.2-0.1-0.3-0.1-0.6c-0.3,0.3,0.1,0.8,0.1,1.2s-0.1,1.3-0.3,1.3c0.1,0.4,0,0.8-0.2,1.2c0,0.5,0.2,0.1,0.3,0.2
				c0,0.5-0.1,1.1-0.2,1.6c-0.2,0.1-0.7,0.1-0.8-0.1c0.1,0.6,0.5,0.3,0.4,1.2c-0.3-0.6-0.4,1.1-0.8,0.3c-0.4,0.9-0.6,1.8-0.7,2.7
				c0.2,0.5,0.3-0.8,0.6-0.7c-0.1,0.8-0.1,1.6,0,2.3c0.1,0.6,0,1.3-0.2,1.9l0.2-0.4c-0.1,0.5-0.1,1.1-0.1,1.6
				c-0.3-0.4-1.3,0.9-1.8,2.5c0.1,0.2,0.7-0.8,0.9-0.4l-0.4,1.1c-0.1,0.1-0.1-0.1,0-0.2c-0.3,1-1.2,1.6-0.9,2l-0.9,0.7l0.4-0.3
				c0.1,0.2-0.4,1.3-0.4,1.5c-0.2,0.8-0.6,1.4-1.2,1.9c0.2-0.1,0.8-0.4,0.4,0.4c-0.5-0.3-1.2,1.6-1.5,1.4c-0.2,0.3-0.7,0.8-0.5,0.9
				l-0.3-0.2c0.4,0.4-0.4,1.5-1,2.4c-0.4-0.6-0.6,1-1.4,1c0.3,0.4-1,1.6-0.8,2c-0.5,0.6-0.8,0.3-1,0.4l-0.1,0.4
				c-0.8,0.6-1.5,1.2-2.2,1.9l-0.3,0.9l-0.4,0.1c0,0.2-0.4,0.8,0,0.5l-0.3,0.3c0.3,0.3-0.3,0.6-0.8,1.4c-0.2,0.1-0.2,0-0.1-0.2
				c-0.3,0.4-0.4,0.1-0.6,0.1c0.3-0.2-0.5,1.8,0.5,1c0.2,0.1-0.2,0.7-0.6,1l-0.5-0.1l-0.1,0.7c-0.4,0.6-0.8,0.7-1.2,1.1
				c0.4-0.5,0.3-1.5-0.7-0.3c0.3-0.5,0.6-1,0.8-1.5c-0.2,0.2-0.4,0.3-0.2-0.2c-0.7,1-0.1,0.5-0.9,1.4c-0.2-0.3-0.5-0.1-1.3,0.7
				l0.7-0.5c0,0.1,0,0.1,0,0.2c0.2-0.2,0.3-0.2,0.5-0.2c-0.2,0.2-0.6,1.4-0.9,1.4c1.2-0.6-1,2-0.2,1.6c0,0.2-0.5,0.9-0.7,0.9
				c0.4-1-0.8,0.4-0.9,0.2c-0.1,0.4,0.7-0.6,0.5,0c-0.3,0.4-0.6,0.8-1,1.1l0.1-0.3l-0.6,0.8c0.1,0.2,0.7-0.7,0.4,0.1
				c-0.2,0.2-0.5,1.1-0.6,1c0-0.5-0.5-0.4-0.2-1.1c-0.2,0.5-0.4,1-0.6,1.5c-0.1,0.6-0.1,0.9,0.2,0.5l-0.3,0.8c0.3-0.5,1-1.8,0.6-0.2
				h-0.1c0,0.4,0,0.8,0,1.2c-0.1,0.1-0.2,0.3-0.3,0.5c0.1,0,0.2,0.2,0.1,0.6c-0.1,0.1-0.2,0.5-0.3,0.5c0,1.1,0.2,1,0.3,1.1
				c0,0.6-0.1,0.8-0.3,0.6c0,0.9,0,1.9-0.2,2.8c0.2,1.1,0.1-0.2,0.3,0.4c-0.6,0.9-0.2,3.6-0.2,5.4c0.6-0.5,0.1,0.5,0.6,0.8
				c-0.2-0.4-0.4,1.7-0.6,0.1l0.1,1c-0.3,0.7-0.2-1.6-0.6-0.6c0,1.1,0.6,1.8,0.4,3c-0.4-0.4,0.1,1-0.3,0.7c-0.1-0.3-0.1-0.7-0.1-1
				l-0.1,0.2c-0.1,2.4,0.5,0.7,0.7,1.9c0.1,1.4-0.3,1.1-0.5,1.2c-0.1,0.4,0,0.9,0.1,1.3c-0.2-0.9,0.2-1.6,0.5-1.2
				c-0.4,0.6,0,2.1,0.1,2.5c0.5-2.1,0-1.4,0.5-3.4c-0.1-0.3-0.5-0.2-0.4-1.4c0.2,0.7,0.2,0,0.3-0.2c-0.2,0.2-0.1-0.8-0.2-1.2
				c0.2-0.3,0.5,0.7,0.6-0.5l-0.5-0.2c0.1-0.5,0.4,0.2,0.3-0.8c0.3,0.5,0.4-0.2,0.5,1.2c0.5-1.6-0.2-2.4-0.4-3.6
				c0,0.1,0.1,0.1,0.1,0.3c-0.1-0.4-0.2-0.7-0.2-1.1c0.1-0.8,0.2,0.6,0.4,0.4v-1.3l0,0c-0.1-0.3-0.1-0.7,0-0.8
				c0.1,0.3,0.3,0.5,0.5,0.8l-0.4-1.4c0.2,0.1,0.3-1.1,0.4-0.2l-0.1-2l0.4-0.2c-0.1-0.5-0.1-0.5-0.2,0.1c0.1-0.7-0.6-3.1,0.1-2.7
				c-0.1-0.6-0.2-1.3-0.2-1.9c0-0.7,0-1.4,0.1-2.1c0,0.8,0.2,0.4,0.4,0s0.4-0.7,0.2,0c0.4-0.8,0.1-1.1,0.3-1.7
				c0.4-0.5,0.6-0.1,0.5,0.6l0.2-0.8h0.1l0.2-0.7c0.5-0.6,0.4,0,0.8-0.6l-0.2-0.3l0.4-0.4c-0.2,0.1,0-0.3,0.3-0.8v0.1
				c0.1-0.2,0.2-0.4,0.4-0.6c-0.3,0.7,0.4-0.5,0.4-0.1c0.4-0.5,0.4-0.5,1-1.4h-0.3c0.8-1.2,0.3,0.2,1-0.7l-0.2-0.1
				c1.4-1,1.7-2.3,2.8-3.1c-0.4,0.6-0.1,0.6-0.1,0.6c0.9-1,1.7-2.1,2.4-3.2c0.5-0.1,0.7-0.1,1.6-0.9c0.5-0.7,0.6-0.8,0.6-1.1
				c0.6-0.5,1.4-1.9,1.7-1.7c0-0.3,0.5-0.6,0.6-1h0.1l-0.2-0.1c1.4-0.8,1.2-2.2,2.5-3.1l-0.1,0.2l0.3-0.6c0.1,0,0.1,0.2,0.2,0.3
				c0.6-0.8,1.1-1.6,1.6-2.4l-0.5,0.4c0.3-0.5,0.3-1,0.8-1.6c-0.3,1.2,0.5-0.8,0.9-0.9l-0.2,0.6c0.4-0.8,0.4-0.8,0.1-0.8
				c0.4-1,0.8-0.4,1-1.5l-0.4,0.6c-0.2,0.1-0.2-0.4,0.1-0.9c0.1-0.1,0.4-0.3,0.2,0c0.3-0.8,1-2,1-2.4c0.3-0.4,0.4-0.2,0.3,0.1
				c0.5-1.9,0.4-0.8,0.9-2.6l0.1,0.1l0.1-0.7l0.6-0.8l-0.3,0.3c0.1-0.6,0.3-1.1,0.5-1.7l0.1,0.3c0.4-1.7,0.9-1.9,1-3.6
				c0.1-0.1,0.1,0.2,0.1,0.3c0-1.6,0.6-1.1,0.5-2.7c0.1,0.1,0.2,0,0.2,0v-0.7l0.3,0.1l-0.4-0.6l0.4-0.4l-0.1-0.3
				c0.7-0.7,0.4-1.8,0.9-2.8l-0.4,0.1c-0.2-1.5-0.2-2.9,0.1-4.4c0.2-1.6,0.2-3.3-0.1-4.9h0.3l-0.6-1.3c0.1-0.7,0.3,0.4,0.4,0.2
				c-0.4-1.4-0.5-0.5-0.9-2.2c0.1-0.9,0.3,0.2,0.4,0.6c-0.1-0.4-0.2-0.8-0.3-1.2l-0.4-1.3c-0.2-0.7-0.4-1.5-0.6-2.2
				c0,0-0.1-0.1-0.1,0c-0.4-1-0.8-2.2-1.2-3.3c0.1,0,0.2,0.2,0.4,0.5c-0.1-0.4-0.3-0.9-0.5-1.2l0.4,0.3c-0.2-0.9-1.2-2.3-1-2.6
				c-0.1,0.1-0.3,0.2-0.6-0.5c0.1-0.3-0.2-0.7-0.5-1.2c-0.4-0.5-0.8-1-1.1-1.6c0.2,0.1,0.6,0.8,0.5,0.6c-0.2-0.5-0.6-1-1.1-1.3h0.2
				l-0.8-1.1l-0.9-1.1c0.1-0.6-1.6-2.1-1.3-2.2c-0.6-0.8,0.4,0.8-0.5-0.2c-0.1-0.4-0.8-0.8-0.6-1l0.1,0.1l-0.6-0.7l0.6,0.2
				c-0.6-0.5-1.1-0.8-1.3-0.7c-0.2-0.4-0.5-0.7-0.7-1c-0.3-0.2-0.5-0.4-0.6-0.6l0.2,0.1c-1.6-1.3-1.9-3-3.6-3.6
				c-0.1-0.1,0-0.2,0.2,0l-1-0.8h0.4c-0.6-0.3-1.2-0.7-1.9-1l0.1-0.1c-0.6-0.4-1.3-0.9-2.2-1.4l-1.2-0.7l-1.3-0.6l0.3,0.1
				c-1.9-0.7-1.6-1-3-1.4c0.1,0,0.1,0,0.2,0l-1.2-0.4h0.3c-1-0.1-2.4-1.4-2-0.9l-1-0.1c-0.2,0-0.5,0-0.7,0.1
				c-1.4-0.3-0.3-0.3-1.1-0.6c-0.8-0.2-1.7-0.3-2.5-0.6l0.1-0.1c-0.6-0.1-1.1,0-2-0.2h0.3c-1.5,0.1-1.8-0.8-3-0.2
				c-0.6-0.2-1.8-0.1-1.7-0.4c-0.9,0.1-1.8,0-2.6,0.1l-2.5,0.3c-0.3-0.5-0.4,0.1-1.5-0.2l0.1,0.2c-1.3,0.2-2.6,0.3-4.1,0.3
				c-1.4,0.2-2.9,0.4-4.2,0.8l-0.2-0.2c-0.2,0.1-0.3,0.3-0.5,0.4l-2.3,0.8c-0.8,0.3-1.6,0.6-2.4,0.9c-1.4,0.6-2.8,1.2-4.1,2
				c-0.8,0.8-1.7,1.5-2.6,2.1l0.1-0.1c-0.8,0.7-1.7,1.5-2.6,2.2s-1.7,1.6-2.7,2.3c0-0.2-0.2-0.1,0-0.3c-0.2,0.6-1,1-1.4,1.4l0.6-0.3
				c-0.3,0.6-0.9,1.1-1.5,1.4l-0.5,1c-0.1,0-0.2,0.1-0.2,0.1v0.2l-0.7,0.2c-0.4,0.6-0.7,1.3-0.9,2c-0.2,0-0.8,0.8-0.4,0.1
				c-0.4,0.5-0.8,1-1.2,1.6l-1.1,1.7l0.4-0.5c0.2,0.1-0.2,1.2-0.6,1.6c0.2-0.8-0.3-0.2-0.6,0c-0.2,0.5,0.4-0.3,0.4,0
				c-0.2,0.8-0.6,1.5-1,2.3l0.1-0.4c-0.3,0.9-0.9,1.1-1.3,1.9c-0.2,0.8-0.5,1.3-0.1,1.3c-0.3,1.1-0.4,0.3-0.6,0.7
				c-0.1,0.8-0.5,1.6-1,2.2c0.4,0.8-1,3-0.6,3.4l-0.5,0.9c0.1,0.1,0.4,0.3,0.3,1.1c-0.3,0.7-0.5,0.5-0.7,0.7l0.4,0.6
				c-0.6,2.3-0.9,4.6-0.9,7c0,2.5,0.1,5,0.2,7.3c0.4,2,1.1,4.5,1.7,6.9l-0.2-0.2l0.6,2.4c-0.1-0.6-0.2-1.2-0.3-1.8
				c0.2,0.4,0.4,0.9,0.6,1.3c0.7,3.1,1.8,6,3.5,8.7c1.6,1.5,0.2,1.5,1.6,3c-0.1-0.1-0.2-0.1-0.4-0.2c1.1,1.5,2.3,2.8,3.6,4.1
				c-0.6,0.2,0.8,1.1,0.5,1.1h0.3c0.2,0.5,0.8,1.4,0.6,1.4l0.8,0.5l-0.2,0.2c0.8,1,2.6,2.8,2.7,3.6c2.7,2.4,5.1,5.1,7.2,8.1
				c0.3,0.2,0.5,0.4,0.7,0.7c0.2,0.3,0.4,0.6,0.6,0.9v0.8c0.4,0.5,1,1,0.9,1.6c0,0-0.1,0-0.1,0c0.1,0.3,0.1,0.5,0.2,0.8
				c0,0.3,0.1,0.5,0.2,0.8c0,0.9-0.2,1.9-0.5,1.6c0.5,0.1-0.1,2-0.1,2s-0.1,3-0.2,7.8c0,2.4-0.1,5.2-0.1,8.2v0.6v0.7
				c0,0.5,0,1,0.1,1.5s0.1,1,0.2,1.5s0.2,1,0.3,1.5c0.5,2.1,1.4,4.1,2.7,5.9c2.6,3.8,6.5,6.4,10.9,7.2c2.1,0.4,4.2,0.5,6.2,0.3
				c2-0.2,4-0.7,5.9-1.6c1.7-0.8,3.3-1.9,4.7-3.2c1.2-1.2,2.2-2.5,3-4c1.1-2.2,1.7-4.6,1.6-7c-0.2-0.5-0.2-1.7-0.6-1.3
				c-0.1-0.9,0.4-1.4,0.2-1.6c-0.2,1.3-0.6-0.4-1,0.8V199c-0.2-0.2,0.2,1-0.2,0.8l0.5,0.2c0,0.4-0.2,0.8-0.4,1.1
				c0.1,0.3,0.2,0.6,0.3,0.9c0.1,0.5,0,1-0.2,1.5l0.1-0.4c-0.3,1.1-0.5,0.6-0.6,0.8l0.1-0.2l-0.5,0.8c0.2-0.3,0.3-0.7,0.3-1.1
				c0-0.3,0-0.5-0.1-0.2c-0.5,1.2,0.2-0.3,0,0.7c-0.2,0.6-0.4,0.4-0.5,0.3c-0.1,0.3-0.2,0.7-0.4,1c-0.2-0.1,0.3-0.7-0.1-0.3
				c-0.1,0.5-0.2,0.9-0.4,1.3c-0.3,0-0.4,0.3-0.6,0.7s-0.4,0.8-0.8,0.9c0.5-0.9-0.2,0-0.2-0.3c-0.2,0.3-0.5,0.6-0.7,0.9
				c-0.2,0.3-0.5,0.6-0.8,0.9c-0.2,0.1,0.3-0.5,0.1-0.3c-0.4,0.2-0.4,0.6-0.6,0.8c-0.2,0-1.4,1.1-1.6,0.7c-1.4,0.6-0.3,0.8-1.7,1.2
				c-0.3-0.1,1-0.5,0.3-0.5c-0.4,0.3-0.9,0.5-1.3,0.7c0.1-0.3,0.4-0.5,0.7-0.6c-1.6,0.5-3.3,0.6-4.9,0.3c-1.4-0.2-2.8-0.5-4.4-0.7
				c-0.4-0.4,0.4-0.1,0.7-0.2c-0.9-0.1-1.9-0.4-2.6-1c-0.6-0.5-1.1-1-1.9-1.5l-0.1,0.1c-0.9-1.1-1.8-2.2-2.5-3.4
				c-0.8-1.3-1.2-2.7-1.4-4.2c0,0.1-0.1,0.3-0.1,0.4c-0.3-0.5-0.4-1-0.5-1.6c0.1-0.1,0.5,0.3,0.3-0.5c-0.1,0.2-0.1,0.6-0.2,0.5
				s0.1-0.4,0.1-0.5s0-0.4,0.1-0.7c0.1-0.5,0.1-1,0.1-1.6c0.1-1.2,0.1-2.5,0.2-3.9c0.1-2.8,0.1-5.8,0.2-8.4c0-1.8-0.1-3.6,0-5.5
				c0-0.4,0-1.1-0.1-1.8c-0.1-0.6-0.2-1.3-0.3-1.9c-0.3-1.2-0.7-2.3-1.2-3.4c-1-1.9-2.1-3.7-3.5-5.3c-1.2-1.5-2.5-2.9-3.7-4.2
				c0.7,0.8,0,0.8-0.4,0.1c-0.8-2.2-2.7-2.7-3.6-4.8c-2.8-2.9-4.2-6-6.6-8.7l0.2-0.2c-0.2-0.5-0.4-0.5-0.7-1h0.1
				c-0.3-0.6-0.6-1.2-1-1.8c-0.3-0.5-0.5-0.9-0.7-1.4l-0.3,0.1c-0.3-0.7,0-0.5-0.4-1.1h0.1l-0.6-0.8c0.5-0.1-0.7-2.1-0.7-2.7
				c-0.6-1.4-1-2.8-1.3-4.2c0.2-0.3-0.2-2.1-0.1-3.4c-0.1-0.6-0.2-1.3-0.2-1.9c0-0.7-0.2-1.4-0.2-2.1s-0.1-1.5,0-2.3
				s0.1-1.5,0.2-2.2h-0.3v-0.8c0.1,0,0.1-0.1,0.1,0c0.3-0.6,0.1-1.8,0.4-2.3c-0.3,0.3-0.1,0.5-0.2,0.9c-0.2,0.6-0.5,0-0.2-0.8h0.1
				l-0.1-0.6c0.3,0,0.5-0.5,0.7-0.5c0-0.3,0.1-0.6,0.1-0.9s0.1-0.6,0.2-0.8c0.1-0.5,0.2-1.1,0.2-1.6c0.2-1.1,0.5-2.2,1-3.3
				c0.2,0.3,0.6-1.8,0.8-1.1c0.5-1.5-0.5,0.1-0.5-0.7c0.2-0.4,0.3-0.9,0.5-0.8c0,0.2,0.4-0.2,0.3,0.2l0.4-0.9c0.1-0.1,0,0.2,0,0.3
				c0.1-0.5,0.4-0.9,0.6-1.4c0.3-0.4,0.5-0.8,0.8-1.1c0.5-0.7,1-1.5,1.5-2.3c-0.1-0.2-0.5,0.6-0.6,0.4c0.8-1.7,1.2-1.2,2.1-2.7
				c0,0.1,0,0.3,0,0.4c0.1-0.6,0.5-1.1,1-1.4c0.3,0.1-0.4,0.8-0.6,1.2c0.4-0.5,1.5-1.7,1-1.5c0.3-0.3,0.6-0.6,0.9-0.8
				c0-0.1-0.6,0.4-0.4,0c0.9-0.6,2.1-1.7,3.1-2.5c0,0.1,0.2,0.1,0.1,0.2C114.3,97.7,114.6,98.3,115.7,97.4z"/>
			<path class="st3" d="M172,115.7l-0.1-0.5c-0.1,0-0.1,0-0.3-0.2L172,115.7z"/>
			<path class="st3" d="M157.2,95.5c-0.1,0-0.1,0-0.2,0C157.1,95.6,157.2,95.6,157.2,95.5z"/>
			<path class="st3" d="M151.6,92.9c0.4,0.1,0.1-0.1-0.1-0.3C151.6,92.7,151.5,92.8,151.6,92.9z"/>
			<path class="st3" d="M174.4,129.9c0-0.1,0-0.2-0.1-0.1S174.4,129.9,174.4,129.9z"/>
			<path class="st3" d="M156,165.6l0.1-0.1C156.1,165.5,156.1,165.6,156,165.6z"/>
			<path class="st3" d="M157.9,164.2c0.1-0.1,0.2-0.2,0.3-0.4C158.1,163.9,158,164,157.9,164.2z"/>
			<path class="st3" d="M173.8,120.1c0-0.1-0.1-0.3-0.1-0.4C173.6,119.9,173.7,120,173.8,120.1z"/>
			<path class="st3" d="M158.5,163.4l0.4-0.4l0,0L158.5,163.4z"/>
			<path class="st3" d="M155.5,166.2c0.2-0.2,0.4-0.4,0.5-0.6C155.8,165.8,155.6,165.9,155.5,166.2z"/>
			<path class="st3" d="M171.5,144.6L171.5,144.6C171.6,144.1,171.5,144.3,171.5,144.6z"/>
			<polygon class="st3" points="159.8,161.1 159.9,161.1 159.9,160.9 			"/>
			<path class="st3" d="M153.7,168.1c0.1-0.1,0.1-0.2,0.2-0.3L153.7,168.1C153.6,168.1,153.6,168.1,153.7,168.1z"/>
			<path class="st3" d="M167.2,152c0,0.2,0,0.3,0.1,0.3C167.3,152.1,167.4,152,167.2,152z"/>
			<path class="st3" d="M159.5,114.1l0.1-0.1L159.5,114.1z"/>
			<path class="st3" d="M159.4,112.3L159.4,112.3C159.4,112.3,159.4,112.3,159.4,112.3z"/>
			<path class="st3" d="M159.7,115L159.7,115L159.7,115L159.7,115z"/>
			<path class="st3" d="M158.1,109.1L158.1,109.1C158.1,109.1,158.1,109.1,158.1,109.1z"/>
			<path class="st3" d="M158.9,111.1L158.9,111.1C158.8,111.1,158.8,111.1,158.9,111.1z"/>
			<path class="st3" d="M157.5,116.8l0.2-0.1C157.6,116.7,157.5,116.7,157.5,116.8z"/>
			<path class="st3" d="M158.5,117.1L158.5,117.1z"/>
			<path class="st3" d="M159.1,116.5L159.1,116.5C159,116.5,159,116.5,159.1,116.5z"/>
			<path class="st3" d="M158.9,116.5L158.9,116.5C158.9,116.5,159,116.5,158.9,116.5z"/>
			<path class="st3" d="M148.1,102.5c0,0-0.1,0.1-0.2,0.2L148.1,102.5z"/>
			<path class="st3" d="M156.1,106.8L156.1,106.8L156.1,106.8z"/>
			<path class="st3" d="M147.3,103.9L147.3,103.9z"/>
			<path class="st3" d="M156.8,116.7c-0.2,0.1,0-0.1-0.2,0C156.7,116.7,156.6,116.8,156.8,116.7z"/>
			<path class="st3" d="M150.9,111.6L150.9,111.6z"/>
			<path class="st3" d="M147.3,103.9L147.3,103.9L147.3,103.9C147.3,103.9,147.3,103.9,147.3,103.9z"/>
			<path class="st3" d="M153.7,104.7L153.7,104.7L153.7,104.7z"/>
			<path class="st3" d="M153.7,104.4L153.7,104.4C153.8,104.4,153.8,104.3,153.7,104.4z"/>
			<path class="st3" d="M147.9,102.7l-0.1,0.1C147.8,102.8,147.9,102.7,147.9,102.7z"/>
			<path class="st3" d="M152.1,103.5L152.1,103.5C152.1,103.5,152.1,103.5,152.1,103.5z"/>
			<path class="st3" d="M158.9,111.2L158.9,111.2C158.9,111.2,158.9,111.2,158.9,111.2z"/>
			<polygon class="st3" points="154.2,113.4 154.2,113.4 154.2,113.4 			"/>
			<path class="st3" d="M154.5,113.3c0,0-0.1,0-0.2,0.1S154.3,113.4,154.5,113.3z"/>
			<path class="st3" d="M154.2,113.3L154.2,113.3L154.2,113.3z"/>
			<polygon class="st3" points="154.6,114.4 154.7,114.3 154.6,114.4 			"/>
			<path class="st3" d="M154.5,114.2L154.5,114.2C154.5,114.2,154.5,114.2,154.5,114.2z"/>
			<polygon class="st3" points="153.5,113.2 153.5,113.2 153.5,113.2 			"/>
			<path class="st3" d="M151.1,112.7c0.2,0,0.7,0,0.7,0.2c0.3-0.2,0.4-0.2,0.5-0.2L152,113l0.2-0.1c-0.1,0.1-0.1,0-0.2,0.2l0.2-0.2
				c-0.1,0.1,0,0.2-0.3,0.4l0.1,0.2c0,0,0.3-0.3,0.3-0.2s-0.1,0.1-0.2,0.2c-0.2,0.4,0.8-0.6,0.8-0.3h-0.1c0.1-0.1,0.1,0,0.2-0.1
				c0.4-0.4-0.2,0.2,0-0.1s0.2-0.1,0.4-0.3c-0.1,0.1,0.1,0,0.1,0c-0.2,0.2,0,0.2-0.2,0.4c0.1-0.1,0.4-0.3,0.5-0.3
				c-0.2,0.2-0.2,0.2-0.3,0.3l0.2-0.2c0,0.1-0.1,0.1-0.1,0.2s0.3-0.2,0.2,0l-0.2,0.1c0.1,0,0.1,0,0.1,0.1s-0.1,0.1-0.1,0
				c-0.3,0.3,0.2-0.1,0.1,0c0.1-0.1,0.2-0.2,0.3-0.3c0,0.1,0.3-0.2,0.1,0l-0.2,0.1c0.2-0.1,0.3-0.2,0.2-0.1l-0.1,0.1
				c0.3-0.2,0.1,0,0.1,0.1h-0.1c0.1,0,0.3-0.2,0.3-0.1c0.1-0.1,0.2-0.2,0.3-0.3c-0.3,0.3,0.4-0.2,0.3,0s-0.3,0.2-0.2,0.1
				c-0.3,0.2-0.5,0.4-0.8,0.6c0.1,0,0.2,0,0,0.1l0.3-0.2l0,0c0.1-0.1,0.3-0.3,0.4-0.4c0.1,0-0.3,0.3-0.1,0.2s0.3-0.2,0.3-0.1h-0.1
				c-0.1,0.1,0.1,0-0.2,0.3c-0.1,0.1-0.2,0.2-0.2,0.1l0,0c-0.3,0.2,0.1,0-0.2,0.2c0.2-0.2,0.2-0.1,0.2,0l0.2-0.2
				c0.8-0.5-0.4,0.4-0.3,0.4s0.1-0.1,0.2-0.2c0,0.1-0.2,0.2-0.1,0.2c-0.1,0.2-0.3,0.3-0.4,0.4c0.1-0.1,0,0.2,0.2,0s-0.3,0.2,0-0.2
				l0.3-0.2c0,0,0.2,0,0.1,0.1l0.2-0.1c0.1,0,0.4-0.2,0.4-0.1c-0.2,0.2-0.2,0.1-0.2,0.1c-0.2,0.2,0,0,0,0.2c-0.2,0.2,0,0-0.2,0.1
				h0.1l0,0c0.3-0.2,0,0.1,0.1,0s0.5-0.2,0.9-0.4c-0.1,0.1-0.2,0.1-0.3,0.2c0.1-0.1,0,0-0.1,0c0.1,0-0.3,0.3-0.4,0.4
				c0.1,0,0.2-0.2,0.3-0.2v0.1c0.1-0.1,0.2-0.2,0.4-0.3c0.1,0,0,0,0.1,0.1s-0.3,0.2-0.3,0.2s0,0.1,0.1,0s0.2,0,0.5-0.3l-0.1,0.2
				c0,0-0.1,0.1-0.1,0c-0.3,0.2,0.1,0,0.1,0s0,0.1-0.1,0.2c0.1,0,0,0-0.1,0.1c0.1-0.1,0.2-0.1,0.3-0.2v0.1c-0.1,0.1-0.6,0.4-0.6,0.4
				c0.2-0.1,0.4-0.3,0.5-0.2c-0.3,0.2-0.2,0.2-0.6,0.4c-0.2,0.2-0.1,0.2,0,0.2s0.1-0.1,0.3-0.3c0.2,0,0.8-0.4,0.8-0.3l0.1-0.1
				c0.1,0,0.2-0.1,0.4-0.2c-0.3,0.2-0.8,0.6-0.6,0.6s0.3-0.2,0.5-0.4h0.1l-0.1,0.1c0.1,0-0.3,0.3,0,0.1l-0.4,0.3l0.2-0.1
				c0.1,0,0.2-0.1,0.3-0.1c0.2,0,0.1,0-0.1,0.2c0.1-0.1,0.4-0.3,0.5-0.3c-0.5,0.3-0.1,0.2-0.4,0.4c0,0-0.1,0.1,0.1,0l-0.3,0.2
				c0.4-0.3,0.4-0.2,0.6-0.2c-0.6,0.4,0.1,0-0.4,0.4c0.4-0.2,0.2,0,0.6-0.2c0,0-0.3,0.2-0.4,0.3l0.2-0.1c-0.2,0.1-0.2,0.2-0.3,0.3
				l0.4-0.2l-0.1,0.1c0.1,0,0.2-0.1,0.3-0.2l0,0c0.4-0.2,0.1,0,0.3-0.1c-0.1,0.1-0.1,0.1-0.2,0.1c0,0-0.2,0.1-0.3,0.2
				c0.3-0.1,0.6-0.3,0.9-0.5c0.1-0.1,0.3-0.1,0.2-0.1l-0.3,0.2l0.4-0.2c0.1,0-0.1,0.2-0.2,0.2s-0.7,0.3-0.6,0.4
				c-0.1,0-0.2,0.1-0.4,0.1c0,0,0,0-0.2,0.1c0.1,0,0.2-0.1,0.3-0.1c-0.2,0.1-0.4,0.2-0.5,0.4l0.2-0.2h0.1l0.2-0.1c0,0,0.4-0.2,0.2,0
				c0.4-0.3,0.4-0.1,0.7-0.3c0.1,0,0.1,0,0,0.1s-0.3,0.2-0.6,0.4c0.1,0,0.2-0.2,0.4-0.2s-0.1,0.2-0.2,0.2h-0.1l-0.1,0.1
				c0.2-0.1,0.2-0.2,0.4-0.2c-0.1,0,0,0-0.1,0.1c-0.2,0.1-0.4,0.2-0.6,0.3c0,0,0.1,0.1,0.4-0.1l0,0c0.1-0.1,0.3-0.3,0.4-0.2h-0.1
				l0.3-0.1l-0.1,0.1c0.1,0,0.1-0.1,0.2-0.1c-0.1,0.1-0.2,0.1-0.2,0.2c0,0,0.2-0.1,0.3-0.1s0,0.1-0.2,0.2c0,0.1,0,0.1-0.1,0.2
				c0.2,0,0.1,0,0.3-0.1c-0.5,0.3-0.1,0.3,0,0.3c0.5-0.3,0.1,0,0.5-0.2c-0.2,0.1-0.3,0.3-0.5,0.3h0.1c-0.2,0.2-0.2,0-0.6,0.3
				c0,0,0.6-0.2,0.4-0.1c-0.4,0.2,0.1,0-0.2,0.2c-0.1,0.1-0.1,0-0.1,0l-0.1,0.1c0,0.2,0.4-0.2,0.7-0.3c0.1,0-0.2,0.2-0.4,0.3
				s0,0,0.1,0c-0.2,0.1,0.2-0.2,0.4-0.3c-0.4,0.2,0,0.1,0.2,0c0.4-0.3,0-0.1,0.4-0.4c-0.1,0.1-0.5,0.2-0.4,0.1
				c0.1,0,0.2-0.1,0.2-0.2c-0.2,0.1-0.1,0-0.2,0c0.2-0.1,0.5-0.2,0.5-0.3l-0.5,0.2c0.1,0,0.4-0.2,0.2-0.2c0.3-0.1,0.4-0.2,0.5-0.2
				c0.4-0.3-0.3,0-0.5,0l0.1-0.1c-0.1,0.1-0.1,0-0.2,0s0.2-0.1,0.4-0.2h-0.1l0,0c-0.1,0-0.1,0,0,0l0.4-0.2l-0.4,0.1
				c0.2-0.1,0.2-0.2,0.4-0.2l-0.1-0.1l0.3-0.2c-0.1,0-0.1,0-0.1,0.1c0-0.1-0.6,0.2,0-0.2c-0.3,0.1-0.2,0-0.4,0
				c0.3-0.1,0.3-0.3,0.5-0.3s-0.2,0.1-0.3,0.1c0.2-0.1,0.4-0.2,0.6-0.3h-0.2h0.1l-0.2,0.1c0.1-0.1,0.3-0.2,0.3-0.3l-0.3,0.2l0.1-0.1
				c-0.1,0.1-0.2,0.1-0.2,0.1h0.1h-0.1c0.2-0.1,0.1-0.1,0.2-0.2c0,0,0,0-0.1-0.1l-0.2,0.1c-0.2,0,0.3-0.2,0.3-0.2l-0.2,0.1
				c0.3-0.3-0.3,0-0.1-0.2c0.1,0,0.3-0.2,0.2-0.1s-0.1-0.1-0.4,0c0.2-0.1,0.4-0.3,0.5-0.4c0,0-0.1,0-0.3,0.1
				c0.1-0.1-0.1-0.1,0.1-0.2c-0.2,0.1,0-0.1-0.2,0l0.1-0.1l-0.2,0.1c0.4-0.4-0.3,0,0-0.3h0.1h-0.1c0.1-0.1,0.2-0.1,0.3-0.2l-0.1-0.2
				l-0.1,0.1c0,0-0.3,0.1-0.1,0c0.4-0.2,0,0,0.2-0.2h0.1c-0.1,0-0.1,0-0.3,0.1c-0.1,0,0.4-0.3,0.1-0.2l0,0c-0.1,0.1-0.3,0.2-0.3,0.2
				s0.1-0.1,0.1-0.1s0-0.1-0.1-0.1c0.1-0.1,0.2-0.1,0.3-0.2c-0.2,0,0-0.1-0.2,0l0.1-0.1l-0.2,0.1l0.2-0.2l-0.1,0.1c0,0-0.1,0-0.1,0
				l0.2-0.1c-0.1,0,0.2-0.3-0.1-0.2c0,0,0.1-0.1,0.1-0.1c-0.3,0.1,0.3-0.3-0.1-0.1l0.2-0.1l-0.1,0.1l0.2-0.2l-0.4,0.2l0.2-0.2
				l-0.1,0.1c0.4-0.4,0-0.2,0.4-0.4l-0.3,0.2c-0.7,0.3,0.1-0.5-0.2-0.5l0.2-0.2l-0.3,0.1c0.1-0.2,0.2-0.1,0.3-0.2
				c-0.2,0-0.4,0.2-0.5,0.2c0.1-0.2,0.2-0.1,0.3-0.2c-0.2,0-0.4,0-0.3-0.1l-0.1,0.1c-0.1,0-0.1-0.1-0.1-0.1s0.1-0.1,0.2-0.1
				s0-0.1-0.1,0l0.2-0.1c0-0.1-0.2,0,0-0.2c-0.1,0.1-0.3,0.2-0.3,0.2c0.3-0.3-0.2,0-0.1-0.2c0,0,0.1,0,0.1,0c0.1-0.1-0.1,0-0.2,0.1
				l0.1-0.1h-0.3c0.3-0.3-0.1-0.1,0.1-0.3c0,0-0.1,0.2-0.2,0.1c0.1-0.1-0.1,0,0.1-0.2l0,0l0,0l0.2-0.2c-0.2,0.1-0.3,0.2-0.5,0.3
				c0.1-0.1,0-0.1,0.1-0.3h0.1c-0.2,0,0.5-0.6,0-0.4c0,0,0.1-0.1,0.1-0.1v-0.1l0.2-0.1l-0.3,0.1l0.1-0.1c0-0.1-0.1-0.1-0.2-0.2h0.1
				c-0.2,0.1,0-0.2-0.1-0.1l0,0v-0.1l0.1-0.1c-0.3,0.2,0.2-0.4,0-0.2c-0.1,0.1-0.3,0.2-0.4,0.2c-0.1,0,0.1-0.1,0.2-0.3
				s-0.2,0.1-0.2,0l0.1-0.1c0,0-0.1,0-0.2,0h0.1c-0.3,0.1,0.2-0.4-0.3,0c0.1-0.1-0.1-0.1,0.2-0.3c-0.2,0-0.3,0.1-0.5,0.1
				c0.3-0.3,0,0,0.1-0.2l-0.2,0.2c-0.1-0.1,0.2-0.6,0-0.7l0.2-0.2l-0.2,0.2c0-0.2-0.1-0.4-0.2-0.5c-0.1,0.1-0.4,0.2-0.4,0.1l0,0
				c-0.2,0-0.4,0-0.4-0.2s0.1-0.1,0.2-0.2c-0.2,0.2-0.1,0-0.1-0.1l-0.1,0.2c-0.2,0.1-0.1-0.1,0-0.2l-0.2,0.2c0,0,0-0.1,0.1-0.1
				l-0.1,0.1l0.2-0.3c-0.2,0.1-0.3,0.1-0.4,0.3c0.1-0.1,0.1-0.2,0.2-0.2l-0.1-0.2l-0.1,0.1c-0.2,0.2-0.3,0.3-0.3,0.2
				c0.1-0.1,0.3-0.3,0.4-0.4c-0.1,0.1-0.1,0.2-0.2,0.3s-0.3,0.1-0.2,0l0.1-0.1c-0.1,0,0.2-0.3,0.1-0.3s-0.1,0-0.4,0.3
				c-0.1,0,0.2-0.2,0.2-0.3c-0.2,0.1-0.1,0,0-0.2c-0.5,0.4,0-0.3-0.4,0.1l0.2-0.3c-0.1,0.1-0.2,0.3-0.4,0.4c0.1-0.2,0.2-0.3,0.3-0.4
				l-0.4,0.4c0.2-0.6-0.3-0.5-0.2-1c-0.2,0-0.4,0.1-0.5,0h0.1v-0.2l-0.1,0.3c-0.1,0-0.1,0.1-0.2,0.1c0-0.3,0-0.6-0.3-0.5
				c-0.5,0.4,0.3-0.5-0.1-0.2l0.1-0.2c-0.2,0.1-0.5,0.2-0.7,0.3c0.4-0.5-0.1,0,0.1-0.3l-0.1,0.2c0.1-0.1,0.1-0.2,0.2-0.3l-0.2,0.2
				l0.1-0.2c0-0.1-0.3,0,0-0.4c-0.4,0.2-0.5,0-0.7-0.3c-0.1,0.2-0.2,0.1-0.3,0.1l0.1-0.3c-0.1,0-0.4,0.3-0.3,0.2l0.1-0.1
				c-0.1,0,0-0.1-0.2,0.1c0,0,0-0.2,0.2-0.4c-0.3,0.4-0.1-0.1-0.1-0.1c-0.3-0.4-0.7-0.8-1.2-1.1c-0.9-0.6-2.1-0.3-2.7,0.6
				c-0.1,0.2-0.3,0.4-0.4,0.6c-0.1,0.1,0.1-0.3,0-0.1s-0.3,0.6-0.4,0.9h-0.1c-0.1,0.2,0.1-0.2,0,0.1l0.2-0.4c0,0.1,0,0.2-0.1,0.3
				c0.1-0.1,0.4-0.7,0.4-0.4l0,0c0.1,0-0.1,0.3-0.1,0.4l0,0l-0.1,0.2c0-0.2-0.2,0.2-0.1,0.1c0,0.2,0-0.1,0.1-0.1s-0.1,0.2-0.1,0.3
				h0.1c-0.1,0.2,0,0-0.1,0.2l0.2-0.2c-0.2,0.5,0.2-0.2,0,0.3c-0.1,0.1-0.1,0.2-0.2,0.3h0.1c0,0.1-0.1,0.1-0.1,0.1s0.1-0.1,0.1-0.1
				s0.1,0-0.1,0.3s0.2-0.4,0.2-0.2s-0.1,0-0.2,0.2h0.1c-0.1,0.1-0.2,0.3-0.2,0.3c0.1,0.3-0.4,1.4-0.1,1.3c-0.1,0.2-0.1,0.1-0.2,0.3
				c0.3-0.2-0.1,0.6,0,0.6l0.1-0.2c-0.2,0.7,0.2,0.4,0.2,0.8l0.1-0.1c0.1-0.1,0.2-0.2,0.2-0.2c-0.1,0.1-0.3,0.4-0.2,0.3
				c0-0.1,0.1-0.2,0.1-0.2c-0.2,0.6,0.2,0.6,0.2,1c0.4,0,0.4,0.6,0.8,0.7c-0.1,0,0.3-0.4,0.2-0.3c-0.4,0.8,0.2,0-0.1,0.6
				c0.3-0.1,0,0.6,0.6,0.2l-0.1,0.2c0,0.1,0.1,0,0.1,0v0.1c0,0.1,0.2,0,0.2,0.1l0.2-0.2c0.1,0-0.1,0.2,0,0.1l-0.1,0.1l0.2-0.2
				c-0.3,0.4,0.1,0.1,0,0.3c0.1,0,0.3-0.2,0.3,0s-0.1,0.3-0.1,0.4c0.1,0,0.3,0.1,0.4,0.2l0.2-0.2l0,0l-0.1,0.1c-0.2,0.3,0.1,0,0,0.2
				c0.2-0.2,0,0,0-0.1s0.3-0.4,0.2-0.2l-0.1,0.1l0.1-0.1l-0.4,0.5c0.1,0,0.5-0.2,0.5-0.1c-0.2,0.2,0.1,0-0.2,0.4
				c0.2-0.1,0.3-0.3,0.5-0.5c0,0,0.1-0.1,0,0.1s-0.2,0.2-0.2,0.3h0.1c0,0-0.1,0.1-0.1,0.1c0.3-0.1-0.1,0.4,0.2,0.2s0-0.1,0.1-0.2
				c0.3-0.2-0.2,0.3,0.1,0.2l-0.2,0.2c0.1-0.1,0.3-0.2,0.2-0.1s-0.2,0.1-0.3,0.2s0.1,0,0.3-0.2c0.1,0-0.1,0.2-0.1,0.2
				c0.1-0.1,0.1-0.2,0.2-0.2c-0.1,0.1-0.1,0.2,0,0.3C151.3,112.6,151.2,112.7,151.1,112.7C151.5,112.2,151,112.7,151.1,112.7z"/>
			<path class="st3" d="M154.6,114.4L154.6,114.4c-0.1,0-0.1,0.1-0.2,0.1L154.6,114.4z"/>
			<path class="st3" d="M153.9,113.3L153.9,113.3C153.9,113.3,153.9,113.3,153.9,113.3z"/>
			<path class="st3" d="M153.4,113.3c0.1,0,0.1-0.1,0.1-0.2L153.4,113.3z"/>
			<path class="st3" d="M155.7,114.6l-0.1,0.1L155.7,114.6z"/>
			<path class="st3" d="M156.7,116.5L156.7,116.5z"/>
			<path class="st3" d="M157,116.1L157,116.1C157,116.1,157,116.1,157,116.1z"/>
			<path class="st3" d="M155.3,114.2L155.3,114.2C155.2,114.2,155.3,114.2,155.3,114.2z"/>
			<path class="st3" d="M156.9,116.2L156.9,116.2L156.9,116.2L156.9,116.2z"/>
			<path class="st3" d="M156.7,116.5L156.7,116.5C156.6,116.5,156.6,116.5,156.7,116.5z"/>
			<path class="st3" d="M156.5,115L156.5,115C156.3,115.1,156.4,115,156.5,115z"/>
			<polygon class="st3" points="156.4,116.3 156.4,116.3 156.4,116.3 			"/>
			<path class="st3" d="M156.7,116.7L156.7,116.7L156.7,116.7L156.7,116.7z"/>
			<path class="st3" d="M156.3,115.6l0.2-0.1C156.5,115.5,156.5,115.5,156.3,115.6z"/>
		</g>
	</g>
</g>
</svg>
