<svg xmlns="http://www.w3.org/2000/svg" width="29.155" height="23.018" viewBox="0 0 29.155 23.018">
  <g id="Gruppe_3698" data-name="Gruppe 3698" transform="translate(-53.5 -923.482)">
    <path id="Pfad_4004" data-name="Pfad 4004" d="M26.421,8.393,15.372,13.262a3.214,3.214,0,0,1-2.589,0L1.734,8.393a1.23,1.23,0,0,1,0-2.252L12.783,1.273a3.214,3.214,0,0,1,2.589,0L26.421,6.141A1.23,1.23,0,0,1,26.421,8.393Z" transform="translate(54 924)" fill="none" stroke="#fff" stroke-linecap="round" stroke-linejoin="round" stroke-width="3"/>
    <line id="Linie_845" data-name="Linie 845" y2="5.337" transform="translate(59.534 935.391)" fill="#fff" stroke="#fff" stroke-width="3"/>
    <line id="Linie_846" data-name="Linie 846" y2="5.337" transform="translate(59.534 935.391)" fill="none" stroke="#fff" stroke-linecap="round" stroke-linejoin="round" stroke-width="3"/>
    <line id="Linie_847" data-name="Linie 847" y2="5.337" transform="translate(76.621 935.391)" fill="#fff" stroke="#fff" stroke-width="3"/>
    <line id="Linie_848" data-name="Linie 848" y2="5.337" transform="translate(76.621 935.391)" fill="none" stroke="#fff" stroke-linecap="round" stroke-linejoin="round" stroke-width="3"/>
    <line id="Linie_849" data-name="Linie 849" y2="7.047" transform="translate(81.155 931.869)" fill="#fff" stroke="#fff" stroke-width="3"/>
    <line id="Linie_850" data-name="Linie 850" y2="7.047" transform="translate(81.155 931.869)" fill="none" stroke="#fff" stroke-linecap="round" stroke-linejoin="round" stroke-width="3"/>
    <path id="Pfad_4005" data-name="Pfad 4005" d="M21.26,12.01c0,2.359-3.824,4.272-8.543,4.272S4.174,14.369,4.174,12.01" transform="translate(55.36 928.719)" fill="none" stroke="#fff" stroke-linecap="round" stroke-linejoin="round" stroke-width="3"/>
  </g>
</svg>
