<?xml version="1.0" encoding="utf-8"?>
<!-- Generator: Adobe Illustrator 24.0.0, SVG Export Plug-In . SVG Version: 6.00 Build 0)  -->
<svg version="1.1" id="Ebene_1" xmlns="http://www.w3.org/2000/svg" xmlns:xlink="http://www.w3.org/1999/xlink" x="0px" y="0px"
	 viewBox="0 0 26.4 26.4" style="enable-background:new 0 0 26.4 26.4;" xml:space="preserve">
<style type="text/css">
	.st0{fill:none;stroke:#044866;stroke-width:2.8;}
	.st1{fill:none;stroke:#044866;stroke-width:2.8;stroke-linecap:round;stroke-linejoin:round;}
</style>
<path id="Pfad_336" class="st0" d="M11.8,2.1L5.2,9c-0.6,0.6-0.7,1.4-0.3,2.2c1.8,3.5,7.3,13.2,7.4,13.2c0.3,0.3,0.6,0.5,1,0.5h0
	c0.4,0,0.8-0.2,1-0.5c0.1-0.1,5.5-9.8,7.3-13.2c0.4-0.7,0.2-1.6-0.3-2.2l-6.6-7C13.9,1.3,12.6,1.3,11.8,2.1
	C11.8,2,11.8,2.1,11.8,2.1z"/>
<path id="Pfad_178" class="st1" d="M16.1,11.3c0,1.7-1.3,3-3,3c-1.7,0-3-1.3-3-3c0,0,0,0,0,0c0-1.7,1.3-3,3-3
	C14.7,8.2,16.1,9.6,16.1,11.3C16.1,11.3,16.1,11.3,16.1,11.3z"/>
</svg>
