<?xml version="1.0" encoding="utf-8"?>
<!-- Generator: Adobe Illustrator 24.0.0, SVG Export Plug-In . SVG Version: 6.00 Build 0)  -->
<svg version="1.1" id="Ebene_1" xmlns="http://www.w3.org/2000/svg" xmlns:xlink="http://www.w3.org/1999/xlink" x="0px" y="0px"
	 viewBox="0 0 26.4 26.4" style="enable-background:new 0 0 26.4 26.4;" xml:space="preserve">
<style type="text/css">
	.st0{fill:none;stroke:#045A87;stroke-width:2.8262;stroke-linecap:round;stroke-linejoin:round;}
</style>
<g id="Komponente_158_15" transform="translate(1 1)">
	<path id="Differenzmenge_2" class="st0" d="M12.2,23.6L12.2,23.6c-1.6-1.3-3-2.8-4.4-4.4c-1.2-1.4-2.2-2.9-3-4.5
		c-0.8-1.5-1.3-3.3-1.4-5c-0.1-4.8,3.8-8.7,8.6-8.8c4.8-0.1,8.7,3.8,8.8,8.6c0,0.1,0,0.1,0,0.2c-0.1,1.8-0.5,3.5-1.4,5
		c-0.8,1.6-1.8,3.1-3,4.5C15.2,20.7,13.8,22.2,12.2,23.6L12.2,23.6z M12.2,5.6c-1.9,0-3.5,1.6-3.5,3.5s1.6,3.5,3.5,3.5
		S15.7,11,15.7,9l0,0C15.7,7.1,14.1,5.6,12.2,5.6z"/>
</g>
</svg>
