<svg xmlns="http://www.w3.org/2000/svg" width="47" height="42.98" viewBox="0 0 47 42.98"><defs><style>.cls-1{fill:none;stroke:#fff;stroke-linecap:round;stroke-linejoin:round;stroke-width:5px;}.cls-2{fill:#fff;}</style></defs><title>chat</title><g id="Ebene_2" data-name="Ebene 2"><g id="final-design"><path class="cls-1" d="M21.66,35.52l-12,5V33.14h0C5.25,29.92,2.5,25.25,2.5,20.06c0-9.7,9.58-17.56,21.39-17.56S44.5,10,44.5,19.34,37.16,35.52,21.66,35.52Z"/><path class="cls-2" d="M14.38,22.81c3.86,0,3.86-6,0-6s-3.87,6,0,6Z"/><path class="cls-2" d="M23.09,22.81c3.86,0,3.87-6,0-6s-3.87,6,0,6Z"/><path class="cls-2" d="M31.8,22.81c3.86,0,3.87-6,0-6s-3.86,6,0,6Z"/></g></g></svg>