<?xml version="1.0" encoding="utf-8"?>
<!-- Generator: Adobe Illustrator 23.1.1, SVG Export Plug-In . SVG Version: 6.00 Build 0)  -->
<svg version="1.1" id="Ebene_1" xmlns="http://www.w3.org/2000/svg" xmlns:xlink="http://www.w3.org/1999/xlink" x="0px" y="0px"
	 viewBox="0 0 92.9 103.4" style="enable-background:new 0 0 92.9 103.4;" xml:space="preserve">
<style type="text/css">
	.st0{fill:none;stroke:#B2B2B2;stroke-width:4;}
	.st1{fill:none;stroke:#B2B2B2;stroke-width:4;stroke-linecap:round;stroke-miterlimit:10;}
	.st2{fill:none;stroke:#B2B2B2;stroke-width:4;stroke-linecap:round;stroke-linejoin:round;}
</style>
<g id="Gruppe_531" transform="translate(0 55.019)">
	<g id="Ellipse_59">
		<ellipse class="st0" cx="23.2" cy="25.2" rx="21.2" ry="21.2"/>
	</g>
	<g id="Gruppe_530" transform="translate(14.869 11.588)">
		<line id="Linie_46" class="st1" x1="0" y1="21.7" x2="15.9" y2="21.7"/>
		<g id="Gruppe_147" transform="translate(0.664)">
			<line id="Linie_45" class="st1" x1="7.3" y1="2" x2="7.3" y2="16.9"/>
			<path id="Pfad_127" class="st1" d="M14.6,10.9l-7.3,6l-7.3-6"/>
		</g>
	</g>
</g>
<path class="st2" d="M54.8,2C35.7,2,18.5,15.9,18.5,39.4c0,6.4,1.9,13.1,4.8,19.6c11.7,0,21.1,9.5,21.1,21.2c0,2.9-0.6,5.6-1.6,8.1
	c6.6,7.7,12,12.6,12,12.6s36-32.4,36-61.5C90.9,14.5,74,2,54.8,2z M54.7,52c-6.8,0-12.4-5.5-12.4-12.4s5.5-12.4,12.4-12.4
	s12.4,5.5,12.4,12.4S61.5,52,54.7,52z"/>
</svg>
