<?xml version="1.0" encoding="utf-8"?>
<!-- Generator: Adobe Illustrator 22.0.1, SVG Export Plug-In . SVG Version: 6.00 Build 0)  -->
<svg version="1.1" id="Ebene_1" xmlns="http://www.w3.org/2000/svg" xmlns:xlink="http://www.w3.org/1999/xlink" x="0px" y="0px"
	 viewBox="0 0 48 48" style="enable-background:new 0 0 48 48;" xml:space="preserve">
<style type="text/css">
	.st0{display:none;}
	.st1{fill:none;stroke:#FFFFFF;stroke-width:1.84;stroke-linecap:round;stroke-miterlimit:10;}
	.st2{display:inline;fill:none;stroke:#FFFFFF;stroke-width:6;stroke-linecap:round;stroke-miterlimit:10;}
	.st3{display:inline;fill:none;stroke:#FFFFFF;stroke-width:6;stroke-linecap:round;stroke-linejoin:round;stroke-miterlimit:10;}
	.st4{display:inline;fill:none;stroke:#FFFFFF;stroke-width:4;stroke-linecap:round;stroke-linejoin:round;stroke-miterlimit:10;}
	.st5{display:inline;}
	.st6{fill:none;stroke:#FFFFFF;stroke-width:4;stroke-linecap:round;stroke-linejoin:round;stroke-miterlimit:10;}
	
		.st7{display:inline;fill:#FFFFFF;stroke:#FFFFFF;stroke-width:4;stroke-linecap:round;stroke-linejoin:round;stroke-miterlimit:10;}
	.st8{opacity:0.5;}
	.st9{fill:none;stroke:#444444;stroke-width:4;stroke-linecap:round;stroke-linejoin:round;stroke-miterlimit:10;}
	.st10{fill:#444444;stroke:#444444;stroke-width:4;stroke-linecap:round;stroke-linejoin:round;stroke-miterlimit:10;}
	.st11{fill:#FFFFFF;stroke:#444444;stroke-width:6;stroke-linecap:round;stroke-linejoin:round;stroke-miterlimit:10;}
	.st12{fill:#FFFFFF;stroke:#FFFFFF;stroke-width:4;stroke-linecap:round;stroke-linejoin:round;stroke-miterlimit:10;}
	.st13{fill:#FFFFFF;stroke:#FFFFFF;stroke-width:6;stroke-linecap:round;stroke-linejoin:round;stroke-miterlimit:10;}
	.st14{fill:none;stroke:#FFFFFF;stroke-width:5;stroke-linecap:round;stroke-miterlimit:10;}
	.st15{fill:none;stroke:#FFFFFF;stroke-width:5;stroke-linecap:round;stroke-linejoin:round;stroke-miterlimit:10;}
	.st16{fill:none;stroke:#B2B2B2;stroke-width:4;stroke-linecap:round;stroke-miterlimit:10;stroke-dasharray:0,10;}
	.st17{fill:none;stroke:#F35800;stroke-width:10;stroke-linecap:round;stroke-miterlimit:10;}
	.st18{fill:none;stroke:#036D99;stroke-width:8;stroke-linecap:round;stroke-miterlimit:10;}
	.st19{display:inline;fill:none;stroke:#036D99;stroke-width:8;stroke-linecap:round;stroke-miterlimit:10;}
	.st20{fill:none;stroke:#F3B100;stroke-width:10;stroke-linecap:round;stroke-miterlimit:10;}
	.st21{fill:none;stroke:#FFFFFF;stroke-width:6;stroke-linecap:round;stroke-miterlimit:10;}
	.st22{display:none;fill:none;stroke:#FFFFFF;stroke-width:2;stroke-linecap:round;stroke-miterlimit:10;}
</style>
<g id="XMLID_4_">
	<g>
		<g id="detail-info_9_">
			<g class="st0">
				<path class="st1" d="M43.4,25c0,10.6-8.6,19.2-19.2,19.2C13.6,44.2,5,35.6,5,25C5,14.4,13.6,5.8,24.2,5.8
					C34.8,5.8,43.4,14.4,43.4,25z"/>
				<path class="st3" d="M17.4,18.3c0-3.8,3-6.8,6.8-6.8c3.8,0,6.8,3,6.8,6.8c0,3.8-3.3,7.3-6.8,8.9v1.5"/>
			</g>
			<g class="st0">
				<line class="st4" x1="24.2" y1="27.8" x2="24.2" y2="23.7"/>
				<line class="st4" x1="24.2" y1="23.7" x2="21" y2="20.5"/>
				<line class="st4" x1="24.2" y1="23.7" x2="27.3" y2="20.5"/>
			</g>
			<g class="st0">
				<g class="st5">
					<line class="st6" x1="24.2" y1="12.6" x2="24.2" y2="10.6"/>
					<line class="st6" x1="15.7" y1="33.1" x2="14.2" y2="34.5"/>
					<line class="st6" x1="15.7" y1="16.1" x2="14.2" y2="14.6"/>
					<line class="st6" x1="12.1" y1="24.7" x2="10.1" y2="24.7"/>
				</g>
				<line class="st4" x1="32.7" y1="33.1" x2="34.1" y2="34.5"/>
				<line class="st4" x1="32.6" y1="16.1" x2="34.1" y2="14.6"/>
				<line class="st4" x1="36.2" y1="24.7" x2="38.3" y2="24.7"/>
			</g>
			<g class="st0">
				<path class="st7" d="M28.9,24.2c0-2.6-2.1-4.7-4.7-4.7c-2.6,0-4.7,2.1-4.7,4.7c0,5.1,3.5,5.7,3.5,7.3v2c0,0.7-0.1,1.3,0.4,1.6
					c0.1,0.4,1.7,0.4,1.7,0c0.4-0.4,0.4-0.9,0.4-1.6v-2C25.4,29.9,28.9,29.2,28.9,24.2z"/>
				<polygon class="st7" points="24.2,36.3 24.2,36.3 24.2,36.3 24.2,36.3 				"/>
			</g>
			<g>
				<g>
					<line class="st6" x1="24.2" y1="12.6" x2="24.2" y2="10.6"/>
				</g>
				<g>
					<line class="st6" x1="14.3" y1="18.3" x2="12.5" y2="17.3"/>
				</g>
				<g>
					<line class="st6" x1="14.3" y1="29.7" x2="12.5" y2="30.8"/>
				</g>
				<g>
					<line class="st6" x1="34.1" y1="18.3" x2="35.9" y2="17.3"/>
				</g>
				<g>
					<line class="st6" x1="34.1" y1="29.7" x2="35.8" y2="30.8"/>
				</g>
				<path class="st12" d="M29,24.1c0,3.3-2.9,7.6-4.7,7.6c-1.8,0-4.7-4-4.7-7.6c0-2.6,2.1-4.7,4.7-4.7C26.9,19.4,29,21.5,29,24.1z"
					/>
				<line class="st13" x1="24.2" y1="27.3" x2="24.2" y2="35.7"/>
			</g>
		</g>
	</g>
</g>
</svg>
