<svg id="Ebene_1" data-name="Ebene 1" xmlns="http://www.w3.org/2000/svg" viewBox="0 0 66 92"><defs><style>.cls-1{fill:#f3b100;}.cls-2{fill:none;stroke:#fff;stroke-linecap:round;stroke-linejoin:round;stroke-width:5px;}</style></defs><title>icon</title><path class="cls-1" d="M33,2C17.57,2,2,12.87,2,33.74c0,9.43,4.66,21.42,13.85,35.64A213.55,213.55,0,0,0,29.28,88,5.27,5.27,0,0,0,33,90h0a5.29,5.29,0,0,0,3.7-2A186.9,186.9,0,0,0,50.07,69.74C59.18,55.6,63.8,43.46,63.8,33.83,63.8,15.11,51.13,2,33,2Z"/><polygon class="cls-2" points="33.1 20.62 37.35 29.23 46.86 30.61 39.98 37.31 41.6 46.77 33.1 42.31 24.6 46.77 26.23 37.31 19.35 30.61 28.85 29.23 33.1 20.62"/></svg>