<svg id="Ebene_1" data-name="Ebene 1" xmlns="http://www.w3.org/2000/svg" viewBox="0 0 66 92"><defs><style>.cls-1{fill:#f3b100;}.cls-2{fill:none;stroke:#fff;stroke-linecap:round;stroke-linejoin:round;stroke-width:5px;}</style></defs><title>icon</title><path class="cls-1" d="M32.89,2.11C17.43,2.11,1.77,13.06,1.77,34c0,9.45,4.67,21.47,13.89,35.73A193.6,193.6,0,0,0,29.17,88.14,5.07,5.07,0,0,0,32.88,90h0a5.1,5.1,0,0,0,3.72-1.84A181.64,181.64,0,0,0,50,70C59.14,55.81,63.77,43.69,63.77,34,63.77,15.26,51.07,2.11,32.89,2.11Z"/><path class="cls-2" d="M44.69,31.88A11.45,11.45,0,1,1,33.24,20.43,11.45,11.45,0,0,1,44.69,31.88Z"/><line class="cls-2" x1="33.24" y1="43.32" x2="33.24" y2="66.01"/><line class="cls-2" x1="33.24" y1="52.12" x2="25.08" y2="52.13"/><line class="cls-2" x1="33.24" y1="61.29" x2="27.37" y2="61.29"/></svg>