<svg id="Ebene_1" data-name="Ebene 1" xmlns="http://www.w3.org/2000/svg" viewBox="0 0 66 92"><defs><style>.cls-1{fill:#f3b100;}.cls-2{fill:none;stroke:#fff;stroke-linecap:round;stroke-linejoin:round;stroke-width:5px;}</style></defs><title>icon</title><path class="cls-1" d="M32.89,2.12C17.43,2.12,1.77,13.17,1.77,34.3c0,9.54,4.68,21.67,13.89,36.07A161.59,161.59,0,0,0,29.17,88.54,4.66,4.66,0,0,0,32.88,90h0a4.68,4.68,0,0,0,3.72-1.45A166.09,166.09,0,0,0,50,70.42C59.14,56.11,63.77,44,63.77,34.23,63.77,15.28,51.07,2.12,32.89,2.12Z"/><path class="cls-2" d="M44.69,32.29A11.45,11.45,0,1,1,33.24,20.85,11.45,11.45,0,0,1,44.69,32.29Z"/></svg>