<?xml version="1.0" encoding="utf-8"?>
<!-- Generator: Adobe Illustrator 22.0.1, SVG Export Plug-In . SVG Version: 6.00 Build 0)  -->
<svg version="1.1" id="Ebene_1" xmlns="http://www.w3.org/2000/svg" xmlns:xlink="http://www.w3.org/1999/xlink" x="0px" y="0px"
	 viewBox="0 0 280 280" style="enable-background:new 0 0 280 280;" xml:space="preserve">
<style type="text/css">
	.st0{display:none;}
	.st1{fill:none;stroke:#FFFFFF;stroke-width:1.84;stroke-linecap:round;stroke-miterlimit:10;}
	.st2{display:inline;fill:none;stroke:#FFFFFF;stroke-width:6;stroke-linecap:round;stroke-miterlimit:10;}
	.st3{display:inline;fill:none;stroke:#FFFFFF;stroke-width:6;stroke-linecap:round;stroke-linejoin:round;stroke-miterlimit:10;}
	.st4{display:inline;fill:none;stroke:#FFFFFF;stroke-width:4;stroke-linecap:round;stroke-linejoin:round;stroke-miterlimit:10;}
	.st5{display:inline;}
	.st6{fill:none;stroke:#FFFFFF;stroke-width:4;stroke-linecap:round;stroke-linejoin:round;stroke-miterlimit:10;}
	
		.st7{display:inline;fill:#FFFFFF;stroke:#FFFFFF;stroke-width:4;stroke-linecap:round;stroke-linejoin:round;stroke-miterlimit:10;}
	.st8{opacity:0.5;}
	.st9{fill:none;stroke:#444444;stroke-width:4;stroke-linecap:round;stroke-linejoin:round;stroke-miterlimit:10;}
	.st10{fill:#444444;stroke:#444444;stroke-width:4;stroke-linecap:round;stroke-linejoin:round;stroke-miterlimit:10;}
	.st11{fill:#FFFFFF;stroke:#444444;stroke-width:6;stroke-linecap:round;stroke-linejoin:round;stroke-miterlimit:10;}
	.st12{fill:#FFFFFF;stroke:#FFFFFF;stroke-width:4;stroke-linecap:round;stroke-linejoin:round;stroke-miterlimit:10;}
	.st13{fill:#FFFFFF;stroke:#FFFFFF;stroke-width:6;stroke-linecap:round;stroke-linejoin:round;stroke-miterlimit:10;}
	.st14{fill:none;stroke:#FFFFFF;stroke-width:5;stroke-linecap:round;stroke-miterlimit:10;}
	.st15{fill:none;stroke:#FFFFFF;stroke-width:5;stroke-linecap:round;stroke-linejoin:round;stroke-miterlimit:10;}
	.st16{fill:none;stroke:#B2B2B2;stroke-width:4;stroke-linecap:round;stroke-miterlimit:10;stroke-dasharray:0,10;}
	.st17{fill:none;stroke:#F35800;stroke-width:10;stroke-linecap:round;stroke-miterlimit:10;}
	.st18{fill:none;stroke:#036D99;stroke-width:8;stroke-linecap:round;stroke-miterlimit:10;}
	.st19{display:inline;fill:none;stroke:#036D99;stroke-width:8;stroke-linecap:round;stroke-miterlimit:10;}
	.st20{fill:none;stroke:#F3B100;stroke-width:10;stroke-linecap:round;stroke-miterlimit:10;}
	.st21{fill:none;stroke:#FFFFFF;stroke-width:6;stroke-linecap:round;stroke-miterlimit:10;}
	.st22{display:none;fill:none;stroke:#FFFFFF;stroke-width:2;stroke-linecap:round;stroke-miterlimit:10;}
</style>
<g>
	<circle class="st16" cx="140" cy="140" r="135"/>
	<g>
		<g>
			<line class="st18" x1="141.4" y1="168.2" x2="141.4" y2="145.1"/>
			<line class="st18" x1="141.5" y1="145.2" x2="128.4" y2="132"/>
			<line class="st18" x1="141.4" y1="145.1" x2="154.6" y2="132"/>
		</g>
		<g class="st0">
			<g class="st5">
				<line class="st18" x1="141.4" y1="59.9" x2="141.4" y2="49"/>
				<line class="st18" x1="96.2" y1="169" x2="88.5" y2="176.7"/>
				<line class="st18" x1="96.3" y1="78.3" x2="88.5" y2="70.5"/>
				<line class="st18" x1="77.4" y1="124.4" x2="66.4" y2="124.4"/>
			</g>
			<line class="st19" x1="186.6" y1="169" x2="194.4" y2="176.7"/>
			<line class="st19" x1="186.5" y1="78.3" x2="194.3" y2="70.5"/>
			<line class="st19" x1="205.5" y1="124.4" x2="216.4" y2="124.4"/>
		</g>
		<line class="st18" x1="127.7" y1="168.2" x2="155.1" y2="168.2"/>
		<line class="st18" x1="127.7" y1="180.5" x2="155.1" y2="180.5"/>
		<line class="st18" x1="127.9" y1="193.1" x2="155" y2="193.1"/>
		<path class="st18" d="M155.1,191c0,7.6-5.3,13.7-13.7,13.7c-8.4,0-13.7-6.2-13.7-13.7l0-19c0-11.5-23.8-19.4-23.8-48.9
			c0-20.5,16.8-37.6,37.5-37.6c20.7,0,37.5,17.8,37.5,37.6c0,29.4-23.8,38-23.8,48.9V191z"/>
		<path class="st18" d="M151.2,102.4c5.1,2.5,9.2,6.6,11.8,11.6"/>
	</g>
</g>
</svg>
