<svg id="Ebene_1" data-name="Ebene 1" xmlns="http://www.w3.org/2000/svg" viewBox="0 0 280 280"><defs><style>.cls-1,.cls-2{fill:none;stroke-linecap:round;stroke-miterlimit:10;}.cls-1{stroke:#b2b2b2;stroke-width:4px;stroke-dasharray:0 10;}.cls-2{stroke:#036d99;stroke-width:8px;}</style></defs><title>icon</title><circle class="cls-1" cx="139.99" cy="139.99" r="135"/><line class="cls-2" x1="141.44" y1="168.18" x2="141.44" y2="145.14"/><line class="cls-2" x1="141.54" y1="145.19" x2="128.37" y2="132.02"/><line class="cls-2" x1="141.44" y1="145.14" x2="154.62" y2="131.97"/><line class="cls-2" x1="127.72" y1="168.19" x2="155.11" y2="168.19"/><line class="cls-2" x1="127.72" y1="180.48" x2="155.11" y2="180.48"/><line class="cls-2" x1="127.86" y1="193.14" x2="154.96" y2="193.14"/><path class="cls-2" d="M155.11,191c0,7.56-5.31,13.75-13.7,13.75s-13.7-6.19-13.7-13.75v-19c0-11.49-23.81-19.43-23.81-48.9a37.73,37.73,0,0,1,37.5-37.63c20.71,0,37.5,17.8,37.5,37.63,0,29.39-23.8,38-23.8,48.9Z"/><path class="cls-2" d="M151.21,102.39A26.85,26.85,0,0,1,163,114"/></svg>