<svg id="Ebene_1" data-name="Ebene 1" xmlns="http://www.w3.org/2000/svg" xmlns:xlink="http://www.w3.org/1999/xlink" viewBox="0 0 48 48"><defs><style>.cls-1{fill:#036d99;}.cls-2,.cls-3{fill:none;stroke:#fff;stroke-linecap:round;stroke-miterlimit:10;}.cls-2{stroke-width:5px;}.cls-3{stroke-width:6px;}</style><symbol id="detail-info" data-name="detail-info" viewBox="0 0 50 50"><circle class="cls-1" cx="25" cy="25" r="20" transform="translate(-8.79 35.4) rotate(-62.1)"/><path class="cls-1" d="M25,10A15,15,0,1,1,10,25,15,15,0,0,1,25,10M25,0A25,25,0,1,0,50,25,25,25,0,0,0,25,0Z"/><line class="cls-2" x1="20" y1="35.44" x2="29.99" y2="35.44"/><polyline class="cls-2" points="20.45 24.12 25 24.12 25 35.44"/><polygon class="cls-3" points="25 15.4 25 15.4 25 15.4 25 15.4 25 15.4"/></symbol></defs><title>icon</title><use id="detail-info-3" data-name="detail-info" width="50" height="50" transform="translate(0.77 1.23) scale(0.92)" xlink:href="#detail-info"/></svg>