<svg id="Ebene_1" data-name="Ebene 1" xmlns="http://www.w3.org/2000/svg" viewBox="0 0 66 92"><defs><style>.cls-1{fill:#036d99;}.cls-2{fill:none;stroke:#fff;stroke-linecap:round;stroke-linejoin:round;stroke-width:5px;}</style></defs><title>icon</title><path class="cls-1" d="M30.84,1.78c-15.46,0-31.12,11-31.12,31.88,0,9.45,4.67,21.47,13.89,35.73A209.51,209.51,0,0,0,27.12,88a5.26,5.26,0,0,0,3.71,2h0a5.29,5.29,0,0,0,3.72-2A188.7,188.7,0,0,0,48,69.73c9.13-14.17,13.76-26.34,13.76-36C61.72,15,49,1.78,30.84,1.78Z"/><path class="cls-2" d="M42.63,31.54A11.45,11.45,0,1,1,31.19,20.09,11.45,11.45,0,0,1,42.63,31.54Z"/><line class="cls-2" x1="31.19" y1="42.99" x2="31.19" y2="65.68"/><line class="cls-2" x1="31.19" y1="51.79" x2="23.03" y2="51.79"/><line class="cls-2" x1="31.19" y1="60.95" x2="25.32" y2="60.95"/></svg>