<svg id="Ebene_1" data-name="Ebene 1" xmlns="http://www.w3.org/2000/svg" viewBox="0 0 70 96"><defs><style>.cls-1{fill:#f3b100;}.cls-2{fill:none;stroke:#fff;stroke-linecap:round;stroke-linejoin:round;stroke-width:5px;}</style></defs><title>icon</title><path class="cls-1" d="M34.89,4.12C19.43,4.12,3.77,15.17,3.77,36.3c0,9.54,4.68,21.67,13.89,36.07A161.59,161.59,0,0,0,31.17,90.54,4.66,4.66,0,0,0,34.88,92h0a4.68,4.68,0,0,0,3.72-1.45A166.09,166.09,0,0,0,52,72.42C61.14,58.11,65.77,46,65.77,36.23,65.77,17.28,53.07,4.12,34.89,4.12Z"/><path class="cls-2" d="M46.69,34.29A11.45,11.45,0,1,1,35.24,22.85,11.45,11.45,0,0,1,46.69,34.29Z"/></svg>