<svg id="Ebene_1" data-name="Ebene 1" xmlns="http://www.w3.org/2000/svg" viewBox="0 0 66 92"><defs><style>.cls-1{fill:#f3b100;}.cls-2{fill:none;stroke:#fff;stroke-linecap:round;stroke-miterlimit:10;stroke-width:5px;}</style></defs><title>icon</title><path class="cls-1" d="M33.33,2c-15.42,0-31,10.92-31,31.79,0,9.43,4.66,21.42,13.86,35.64A213.55,213.55,0,0,0,29.62,88a5.27,5.27,0,0,0,3.7,2h0A5.33,5.33,0,0,0,37,88,186.9,186.9,0,0,0,50.41,69.74C59.52,55.6,64.14,43.46,64.14,33.83,64.14,15.11,51.47,2,33.33,2Z"/><line class="cls-2" x1="46.7" y1="26.03" x2="29.67" y2="43.06"/><line class="cls-2" x1="21.17" y1="34.54" x2="29.68" y2="43.05"/></svg>