<svg id="Ebene_1" data-name="Ebene 1" xmlns="http://www.w3.org/2000/svg" viewBox="0 0 284 284"><defs><style>.cls-1,.cls-2{fill:none;stroke-linecap:round;stroke-miterlimit:10;}.cls-1{stroke:#b2b2b2;stroke-width:4px;stroke-dasharray:0 10;}.cls-2{stroke:#036d99;stroke-width:8px;}</style></defs><title>icon</title><circle class="cls-1" cx="141.99" cy="141.99" r="135"/><line class="cls-2" x1="143.44" y1="170.18" x2="143.44" y2="147.14"/><line class="cls-2" x1="143.54" y1="147.19" x2="130.37" y2="134.02"/><line class="cls-2" x1="143.44" y1="147.14" x2="156.62" y2="133.97"/><line class="cls-2" x1="129.72" y1="170.19" x2="157.11" y2="170.19"/><line class="cls-2" x1="129.72" y1="182.48" x2="157.11" y2="182.48"/><line class="cls-2" x1="129.86" y1="195.14" x2="156.96" y2="195.14"/><path class="cls-2" d="M157.11,193c0,7.56-5.31,13.75-13.7,13.75s-13.7-6.19-13.7-13.75v-19c0-11.49-23.81-19.43-23.81-48.9a37.73,37.73,0,0,1,37.5-37.63c20.71,0,37.5,17.8,37.5,37.63,0,29.39-23.8,38-23.8,48.9Z"/><path class="cls-2" d="M153.21,104.39A26.85,26.85,0,0,1,165,116"/></svg>