<svg id="Ebene_1" data-name="Ebene 1" xmlns="http://www.w3.org/2000/svg" viewBox="0 0 298 284"><defs><style>.cls-1,.cls-2{fill:none;stroke-linecap:round;stroke-miterlimit:10;}.cls-1{stroke:#b2b2b2;stroke-width:4px;stroke-dasharray:0 10;}.cls-2{stroke:#f3b100;stroke-width:10px;}</style></defs><title>icon</title><path class="cls-1" d="M290.28,141.83c0,14.56-14,26.73-18.28,39.87-4.43,13.62-.4,31.67-8.65,43s-26.8,13.16-38.25,21.49S206.48,271.54,192.86,276c-13.14,4.27-29-5.13-43.58-5.13s-30.44,9.4-43.58,5.13c-13.62-4.42-20.91-21.51-32.25-29.76s-29.92-10-38.25-21.49-4.22-29.39-8.64-43c-4.27-13.14-18.28-25.31-18.28-39.87s14-26.74,18.28-39.88c4.42-13.62.39-31.67,8.64-43S62,45.78,73.45,37.45,92.08,12.11,105.69,7.69c13.15-4.26,29,5.14,43.59,5.14s30.44-9.4,43.58-5.14c13.62,4.42,20.9,21.51,32.24,29.76s29.92,10,38.25,21.49,4.22,29.39,8.65,43C276.26,115.09,290.28,127.26,290.28,141.83Z"/><line class="cls-2" x1="200.11" y1="113.3" x2="133.42" y2="179.99"/><line class="cls-2" x1="100.11" y1="146.61" x2="133.45" y2="179.96"/></svg>