<svg id="Ebene_1" data-name="Ebene 1" xmlns="http://www.w3.org/2000/svg" viewBox="0 0 66 92"><defs><style>.cls-1{fill:#f35800;}.cls-2{fill:none;stroke:#fff;stroke-linecap:round;stroke-miterlimit:10;stroke-width:5px;}</style></defs><title>icon</title><path class="cls-1" d="M33.29,2c-15.43,0-31,10.92-31,31.79,0,9.43,4.66,21.42,13.86,35.64A213.55,213.55,0,0,0,29.57,88a5.27,5.27,0,0,0,3.71,2h0A5.29,5.29,0,0,0,37,88,186.9,186.9,0,0,0,50.36,69.74C59.47,55.6,64.09,43.46,64.09,33.83,64.09,15.11,51.42,2,33.29,2Z"/><line class="cls-2" x1="44.14" y1="22.45" x2="22.54" y2="44.06"/><line class="cls-2" x1="22.53" y1="22.45" x2="44.15" y2="44.06"/></svg>