<svg id="Ebene_1" data-name="Ebene 1" xmlns="http://www.w3.org/2000/svg" viewBox="0 0 66 92"><defs><style>.cls-1{fill:#036d99;}.cls-2{fill:none;stroke:#fff;stroke-linecap:round;stroke-linejoin:round;stroke-width:5px;}</style></defs><title>icon</title><path class="cls-1" d="M32.7,1.63c-15.52,0-31.23,11-31.23,32,0,9.48,4.69,21.54,13.94,35.85A201.94,201.94,0,0,0,29,88a5.18,5.18,0,0,0,3.73,2h0a5.2,5.2,0,0,0,3.73-1.94A185.44,185.44,0,0,0,49.88,69.78C59,55.56,63.69,43.37,63.69,33.68,63.69,14.84,51,1.63,32.7,1.63Z"/><polygon class="cls-2" points="32.5 54.44 32.5 54.44 32.5 54.44 32.5 54.44 32.5 54.44"/><path class="cls-2" d="M23,28.61a9.48,9.48,0,1,1,18.95,0C42,33.84,37.41,38.82,32.5,41v3.59"/></svg>