<svg id="Ebene_1" data-name="Ebene 1" xmlns="http://www.w3.org/2000/svg" viewBox="0 0 66 92"><defs><style>.cls-1{fill:#036d99;}.cls-2{fill:none;stroke:#fff;stroke-linecap:round;stroke-linejoin:round;stroke-width:5px;}</style></defs><title>icon</title><path class="cls-1" d="M33.07,2.09C17.6,2.09,2,13.15,2,34.29,2,43.83,6.62,56,15.84,70.38a161.13,161.13,0,0,0,13.5,18.17A4.68,4.68,0,0,0,33.06,90h0a4.67,4.67,0,0,0,3.71-1.43A164.63,164.63,0,0,0,50.19,70.43C59.32,56.11,64,44,64,34.22,64,15.26,51.25,2.09,33.07,2.09Z"/><path class="cls-2" d="M44.86,32.29A11.45,11.45,0,1,1,33.41,20.85,11.45,11.45,0,0,1,44.86,32.29Z"/></svg>