<svg id="Ebene_1" data-name="Ebene 1" xmlns="http://www.w3.org/2000/svg" viewBox="0 0 70 96"><defs><style>.cls-1{fill:#f3b100;}.cls-2{fill:none;stroke:#fff;stroke-linecap:round;stroke-linejoin:round;stroke-width:5px;}</style></defs><title>icon</title><path class="cls-1" d="M35,4C19.57,4,4,14.87,4,35.74c0,9.43,4.66,21.42,13.85,35.64A213.55,213.55,0,0,0,31.28,90,5.27,5.27,0,0,0,35,92h0a5.29,5.29,0,0,0,3.7-2A186.9,186.9,0,0,0,52.07,71.74C61.18,57.6,65.8,45.46,65.8,35.83,65.8,17.11,53.13,4,35,4Z"/><polygon class="cls-2" points="35.1 22.62 39.35 31.23 48.86 32.61 41.98 39.31 43.6 48.77 35.1 44.31 26.6 48.77 28.23 39.31 21.35 32.61 30.85 31.23 35.1 22.62"/></svg>