<svg id="Ebene_1" data-name="Ebene 1" xmlns="http://www.w3.org/2000/svg" viewBox="0 0 66 92"><defs><style>.cls-1{fill:#034562;}.cls-2{fill:none;stroke:#fff;stroke-linecap:round;stroke-linejoin:round;stroke-width:5px;}</style></defs><title>icon</title><path class="cls-1" d="M33.07,2.43C17.6,2.43,2,13.4,2,34.38,2,43.85,6.62,55.9,15.84,70.2a174.1,174.1,0,0,0,13.5,18.2A4.83,4.83,0,0,0,33.06,90h0a4.8,4.8,0,0,0,3.71-1.59A169.74,169.74,0,0,0,50.19,70.33C59.32,56.12,64,44,64,34.35,64,15.54,51.25,2.43,33.07,2.43Z"/><path class="cls-2" d="M44.86,32.29A11.45,11.45,0,1,1,33.41,20.85,11.45,11.45,0,0,1,44.86,32.29Z"/></svg>