<svg id="Ebene_1" data-name="Ebene 1" xmlns="http://www.w3.org/2000/svg" viewBox="0 0 70 96"><defs><style>.cls-1{fill:#034562;}.cls-2{fill:none;stroke:#fff;stroke-linecap:round;stroke-linejoin:round;stroke-width:5px;}</style></defs><title>icon</title><path class="cls-1" d="M35.07,4.43C19.6,4.43,4,15.4,4,36.38,4,45.85,8.62,57.9,17.84,72.2a174.1,174.1,0,0,0,13.5,18.2A4.83,4.83,0,0,0,35.06,92h0a4.8,4.8,0,0,0,3.71-1.59A169.74,169.74,0,0,0,52.19,72.33C61.32,58.12,66,46,66,36.35,66,17.54,53.25,4.43,35.07,4.43Z"/><path class="cls-2" d="M46.86,34.29A11.45,11.45,0,1,1,35.41,22.85,11.45,11.45,0,0,1,46.86,34.29Z"/></svg>