<svg id="Ebene_1" data-name="Ebene 1" xmlns="http://www.w3.org/2000/svg" viewBox="0 0 66 92"><defs><style>.cls-1{fill:#034562;}.cls-2{fill:none;stroke:#fff;stroke-linecap:round;stroke-linejoin:round;stroke-width:5px;}</style></defs><title>icon</title><path class="cls-1" d="M33.07,1.55C17.6,1.55,2,12.56,2,33.6c0,9.49,4.67,21.58,13.89,35.91a202.68,202.68,0,0,0,13.5,18.57A5.15,5.15,0,0,0,33.06,90h0a5.12,5.12,0,0,0,3.71-1.91A181.42,181.42,0,0,0,50.19,69.8C59.32,55.55,64,43.35,64,33.65,64,14.78,51.25,1.55,33.07,1.55Z"/><path class="cls-2" d="M44.86,31.54A11.45,11.45,0,1,1,33.41,20.09,11.45,11.45,0,0,1,44.86,31.54Z"/><line class="cls-2" x1="33.42" y1="42.99" x2="33.41" y2="65.68"/><line class="cls-2" x1="33.41" y1="51.79" x2="25.26" y2="51.79"/><line class="cls-2" x1="33.41" y1="60.95" x2="27.55" y2="60.95"/></svg>