<svg xmlns="http://www.w3.org/2000/svg" width="70" height="69.999" viewBox="0 0 70 69.999">
  <g id="Gruppe_447" data-name="Gruppe 447" transform="translate(-1540 -2284)">
    <ellipse id="Ellipse_47" data-name="Ellipse 47" cx="32.879" cy="32.879" rx="32.879" ry="32.879" transform="translate(1542.121 2286.121)" fill="#036d99"/>
    <g id="Gruppe_445" data-name="Gruppe 445" transform="translate(1540 2284)">
      <g id="Gruppe_444" data-name="Gruppe 444" transform="translate(10.394 10.316)">
        <path id="Pfad_297" data-name="Pfad 297" d="M127.517,103l-15.984-2.682,5.391-7.912a1.013,1.013,0,0,0-1.388-1.409l-8.018,4.213-2.586-14.953c-.077-.481-.488-.641-.973-.868a1.034,1.034,0,0,0-1.007.828L99.929,95.167l-7.652-4.346a1.017,1.017,0,0,0-1.4,1.329l4.142,8.079-14.752,2.519a1.042,1.042,0,0,0-.019,2.047l15.984,2.682-5.39,7.912a1.013,1.013,0,0,0,1.388,1.41l8.018-4.213,2.586,14.993c.077.481.488.682.973.909a1.066,1.066,0,0,0,1.007-.869l3.024-14.973,7.652,4.336a1.02,1.02,0,0,0,1.4-1.336l-4.142-8.08,14.752-2.52a1.012,1.012,0,0,0,.856-1.02c0-.011,0-.021,0-.032A1.008,1.008,0,0,0,127.517,103ZM106.66,106.5a3.64,3.64,0,1,1,0-5.154A3.627,3.627,0,0,1,106.66,106.5Z" transform="translate(-79.412 -79.386)" fill="#6da7bf"/>
      </g>
      <path id="Pfad_298" data-name="Pfad 298" d="M138.789,107.8c.142.143.282.282,0,0l0,0a1.674,1.674,0,0,0-2.142-.182l-12.42,8.732a7.114,7.114,0,0,0-8.127,7.551q.018.255.055.509l-8.9,12.577a1.672,1.672,0,0,0,2.331,2.329l12.589-8.893a7.114,7.114,0,0,0,8.117-7.59q-.018-.239-.053-.477l8.74-12.408A1.671,1.671,0,0,0,138.789,107.8Zm-13.233,17.856a3.2,3.2,0,1,1,0-4.527A3.2,3.2,0,0,1,125.556,125.654Z" transform="translate(-88.187 -88.488)" fill="#fff"/>
      <path id="Pfad_299" data-name="Pfad 299" d="M68.582,33.7a35,35,0,1,0,35,35A35.039,35.039,0,0,0,68.582,33.7Zm0,64.168A29.169,29.169,0,1,1,97.751,68.7,29.2,29.2,0,0,1,68.582,97.868Z" transform="translate(-33.582 -33.7)" fill="#fff"/>
    </g>
  </g>
</svg>
