<?xml version="1.0" encoding="UTF-8" standalone="no"?>
<!-- Generator: Adobe Illustrator 22.0.1, SVG Export Plug-In . SVG Version: 6.00 Build 0)  -->

<svg
   xmlns:dc="http://purl.org/dc/elements/1.1/"
   xmlns:cc="http://creativecommons.org/ns#"
   xmlns:rdf="http://www.w3.org/1999/02/22-rdf-syntax-ns#"
   xmlns:svg="http://www.w3.org/2000/svg"
   xmlns="http://www.w3.org/2000/svg"
   xmlns:sodipodi="http://sodipodi.sourceforge.net/DTD/sodipodi-0.dtd"
   xmlns:inkscape="http://www.inkscape.org/namespaces/inkscape"
   version="1.1"
   id="Ebene_1"
   x="0px"
   y="0px"
   viewBox="0 0 293.5 280"
   style="enable-background:new 0 0 293.5 280;"
   xml:space="preserve"
   sodipodi:docname="modal-trail-finished.svg"
   inkscape:version="0.92.2 5c3e80d, 2017-08-06"><metadata
     id="metadata21"><rdf:RDF><cc:Work
         rdf:about=""><dc:format>image/svg+xml</dc:format><dc:type
           rdf:resource="http://purl.org/dc/dcmitype/StillImage" /></cc:Work></rdf:RDF></metadata><defs
     id="defs19" /><sodipodi:namedview
     pagecolor="#ffffff"
     bordercolor="#666666"
     borderopacity="1"
     objecttolerance="10"
     gridtolerance="10"
     guidetolerance="10"
     inkscape:pageopacity="0"
     inkscape:pageshadow="2"
     inkscape:window-width="774"
     inkscape:window-height="480"
     id="namedview17"
     showgrid="false"
     inkscape:zoom="0.84285714"
     inkscape:cx="146.75"
     inkscape:cy="140"
     inkscape:window-x="396"
     inkscape:window-y="362"
     inkscape:window-maximized="0"
     inkscape:current-layer="g12" /><style
     type="text/css"
     id="style2">
	.st0{fill:none;stroke:#B2B2B2;stroke-width:4;stroke-linecap:round;stroke-miterlimit:10;stroke-dasharray:0,10;}
	.st1{fill:none;stroke:#4CAF50;stroke-width:10;stroke-linecap:round;stroke-miterlimit:10;}
</style><g
     id="g14"><g
       id="g6"><path
         class="st0"
         d="M288,139.8c0,14.6-14,26.7-18.3,39.9c-4.4,13.6-0.4,31.7-8.6,43c-8.3,11.5-26.8,13.2-38.3,21.5    c-11.3,8.2-18.6,25.3-32.2,29.8c-13.1,4.3-29-5.1-43.6-5.1s-30.4,9.4-43.6,5.1c-13.6-4.4-20.9-21.5-32.2-29.8    c-11.4-8.3-29.9-10-38.3-21.5c-8.2-11.3-4.2-29.4-8.6-43C20,166.6,6,154.4,6,139.8s14-26.7,18.3-39.9c4.4-13.6,0.4-31.7,8.6-43    c8.3-11.5,26.8-13.2,38.3-21.5c11.3-8.2,18.6-25.3,32.2-29.8c13.1-4.3,29,5.1,43.6,5.1s30.4-9.4,43.6-5.1    c13.6,4.4,20.9,21.5,32.2,29.8c11.5,8.3,29.9,10,38.3,21.5c8.2,11.3,4.2,29.4,8.6,43C274,113.1,288,125.3,288,139.8z"
         id="path4" /></g><g
       id="g12"
       style="fill:#000080"><line
         class="st1"
         x1="197.9"
         y1="111.3"
         x2="131.2"
         y2="178"
         id="line8"
         style="fill:#000080;stroke:#036d99;stroke-opacity:1" /><line
         class="st1"
         x1="97.9"
         y1="144.6"
         x2="131.2"
         y2="178"
         id="line10"
         style="fill:#000080;stroke:#036d99;stroke-opacity:1" /></g></g></svg>