<?xml version="1.0" encoding="utf-8"?>
<!-- Generator: Adobe Illustrator 23.0.3, SVG Export Plug-In . SVG Version: 6.00 Build 0)  -->
<svg version="1.1" id="Ebene_1" xmlns="http://www.w3.org/2000/svg" xmlns:xlink="http://www.w3.org/1999/xlink" x="0px" y="0px"
	 viewBox="0 0 219.9 220" style="enable-background:new 0 0 219.9 220;" xml:space="preserve">
<style type="text/css">
	.st0{fill:#949494;}
	.st1{fill:#FFFFFF;}
</style>
<g>
	<g>
		<path class="st0" d="M216.1,105.8l-71.8-12l24.2-35.5c2.7-4-2.2-9-6.2-6.3l-36,18.9l-11.6-67c-0.3-2.2-2.2-2.9-4.4-3.9
			c-2.2,0-4.1,1.6-4.5,3.7l-13.6,67L57.8,51.2c-3.8-2.1-8.2,2.1-6.3,6l18.6,36.2L3.8,104.7C1.6,105-0.1,107,0,109.2
			c-0.1,2.2,1.5,4.2,3.8,4.6l71.8,12l-24.2,35.4c-2.7,4,2.2,9,6.2,6.3l36-18.9l11.6,67.2c0.3,2.2,2.2,3.1,4.4,4.1
			c2.2,0,4.1-1.8,4.5-3.9l13.6-67.1l34.4,19.4c3.8,2.1,8.2-2.1,6.3-6l-18.6-36.2L216,115c2.2-0.3,3.9-2.3,3.8-4.6c0,0,0-0.1,0-0.1
			C219.9,108,218.3,106.2,216.1,105.8z M122.4,121.5c-6.4,6.4-16.7,6.4-23.1,0c-6.4-6.4-6.4-16.7,0-23.1c6.4-6.4,16.7-6.4,23.1,0
			C128.8,104.8,128.8,115.1,122.4,121.5z"/>
	</g>
	<path class="st1" d="M189.8,30.4C190.6,31.2,191.3,31.9,189.8,30.4C188.4,29,189.1,29.7,189.8,30.4c-3-2.9-7.6-3.3-10.9-1L115.6,74
		c-10.8-1.6-22,1.9-30,9.3c-8,7.5-12.3,18.3-11.5,29.2c0.1,0.9,0.2,1.7,0.3,2.6l-45.4,64.2c-2.2,3.1-2,7.4,0.4,10.3
		c2.8,3.4,7.9,4.1,11.5,1.6l64.2-45.4c10.9,1.6,22.1-2,30.2-9.6c7.9-7.5,12-18.3,11.2-29.1c-0.1-0.8-0.2-1.6-0.3-2.4l44.5-63.3
		C193.1,38,192.8,33.4,189.8,30.4z M122.4,121.5c-6.4,6.4-16.7,6.4-23.1,0c-6.4-6.4-6.4-16.7,0-23.1c6.4-6.4,16.7-6.4,23.1,0
		C128.8,104.8,128.8,115.1,122.4,121.5z"/>
</g>
</svg>
