<svg xmlns="http://www.w3.org/2000/svg" width="17.231" height="16" viewBox="0 0 17.231 16">
  <path id="Icon_ion-language-sharp" data-name="Icon ion-language-sharp" d="M14.981,8.3l-4.5,11.077H12.3l.942-2.231h3.482l.942,2.231h1.817Zm-1.027,7.154,1.027-3.16,1.027,3.16Zm-2.473-1.615A15.325,15.325,0,0,1,9.734,12.2,19.844,19.844,0,0,0,12.47,6.683h2.087V4.99H9.25V3.375H7.558V4.99H2.25V6.683h8.433A18.361,18.361,0,0,1,8.614,10.85a16.983,16.983,0,0,1-1.82-2.932l-.274-.544-1.462.846.264.533a18.867,18.867,0,0,0,2.1,3.33c.035.047.071.092.107.137a15.091,15.091,0,0,1-3.448,3.057l-.6.405.885,1.385.742-.441a16.426,16.426,0,0,0,3.538-3.107,15.746,15.746,0,0,0,1.7,1.6l.477.33Z" transform="translate(-2.25 -3.375)" fill="#444"/>
</svg>
