<?xml version="1.0" encoding="utf-8"?>
<!-- Generator: Adobe Illustrator 23.0.3, SVG Export Plug-In . SVG Version: 6.00 Build 0)  -->
<svg version="1.1" id="Ebene_1" xmlns="http://www.w3.org/2000/svg" xmlns:xlink="http://www.w3.org/1999/xlink" x="0px" y="0px"
	 viewBox="0 0 184.4 182.8" style="enable-background:new 0 0 184.4 182.8;" xml:space="preserve">
<style type="text/css">
	.st0{fill:none;}
	.st1{fill:#AF8D6F;}
	.st2{fill:#A57F5D;}
	.st3{fill:#333333;}
</style>
<title>image-frame</title>
<g>
	<g id="final-design">
		<path class="st0" d="M4.5,97.2c0.5,3.9,0.2,7.8,1.9,11.5c0.4,0.8,0.6,1.6,0.8,2.5c1.2,4.8,2.8,9.5,6,13.4c1.1,1.3,2.1,2.6,3,4.1
			c0.9,1.4,1.8,2.8,2.6,4.2c0.5,0.9,0.6,4.4,1.9,6.1l4.7,4.1c2,2.6,6,4,8.5,6.1c4.5,3.8,9,7.7,14.2,10.7c2.2,1.3,4,3.1,6.5,3.8
			c0.1,0.1,0.3,0.1,0.4,0.1c0.4-0.1,0.9,0.2,1,0.6c0,0.1,0,0.2,0,0.2c0.1,0.1,0.3,0.1,0.4,0.1c0.5-0.1,0.9,0.2,1,0.7
			c0,0.1,0,0.1,0,0.2c4.6,2.5,9.2,5,14,7.3c0.8,0.5,1.8,0.8,2.7,0.9c2.4,0.3,4.7,0.7,7,1.3c6.1,1.5,12.5,1.4,18.6-0.3
			c2.9-0.8,5.7-2.1,8.7-2.7c1.1,0.4,1.8-0.3,2.7-0.7c8.4-3.9,16.6-8.2,24.9-12.3c6.6-3.3,13.2-6.4,19.9-9.6c1.5-0.7,3.1-1.3,4.1-2.7
			c0.1-0.1,0.3-0.1,0.4-0.1c1.9,0.1,3.1-1.5,4.7-2.1c2.9-1,4.3-3.4,5.5-5.9c0-0.1,0.1-0.2,0.1-0.4c1.7-0.2,1.7-1.7,2-2.8l-0.4,0.1
			l0.4-0.1c0.1-0.4,0.1-0.7,0.5-0.9c0-0.2,0-0.3,0-0.5c0,0.2,0,0.3,0,0.5c2-0.7,3.4-2.4,3.7-4.4c0.9-4.5,1.6-9,2-13.6
			c0.5-4.9,0.8-9.8,1.2-14.7c0.2-2.9,0.1-5.8,0.1-8.7c0-0.8,0.1-1.6-0.7-2.1l0,0c-0.1-0.3-0.2-0.6-0.3-0.9l-0.9-0.1l0.9,0.1h0.2
			c1.4-0.2,1.3-1.5,1.3-2.2c0.2-4.7,0.3-9.3,0.1-13.9c-0.1-1.8-0.2-3.6-0.2-5.5c2.2-0.4,0.8-2.8,2.3-3.5c-0.3-1.4-2-1.3-2.3-2.7
			c1.2-0.9,1-2.4,0.5-3.5c-0.6-1.7-1.4-3.4-2.2-5c-2.1-3.2-4.9-6.3-4.9-10.4c-0.9-0.5-1.7,0.3-2.7-0.1c-1.3-0.7-2.2-2-2.5-3.5
			c-0.6-1.9-0.5-4.3-2.3-5.4c-0.8-0.4-1.3,0.5-1.9-0.2c0-0.6,0.5-0.9,1-1.2c0.6-0.2,0.9-0.8,0.7-1.4c0-0.1-0.1-0.1-0.1-0.2
			c-1.2-0.7-2.6,0.9-3.9,0c-0.9-2.3-2.8-3.6-4.9-4.4c0.4-1,2.1-0.7,1.6-2.2c-1.3-0.5-2.8-0.1-4.1-1.3c-3.3-2.7-7-4.9-10.5-7.4
			c-0.7-0.4-1.2-1.1-2.1-0.4l0,0c-0.3,0.1-0.6-0.1-0.7-0.4c-0.6,0-1.2-0.2-1.7-0.4l4,0.5c0,0-3.7-4.3-4.2-4.7
			c-0.3-0.2-14.8-9.5-31.2-9.9C91.1,0.7,73.6,3.2,72,3.7c-0.2,0-0.4,0.1-0.7,0.2C63.7,6.7,55.9,9.1,49,13.5
			c-2.6,1.6-5.6,2.9-7.9,4.9c-3.1,2.6-6,5.4-9,8.1c-5.8,5.2-10,11.6-14.3,17.9c-3.1,4.5-5.1,9.6-7.7,14.4C10,59,9.9,59.3,9.8,59.6
			C8.3,66,5.2,72,5,78.8c-0.1,3.1-0.9,6.2-0.9,9.3C4,91.1,4.1,94.2,4.5,97.2z"/>
		<path class="st1" d="M43.4,18.9c0.2-0.1,0.3-0.1,0.3-0.1l0.5-0.4L43.4,18.9z"/>
		<path class="st1" d="M14.3,65.8L14.3,65.8c0.1,0,0.2-0.1,0.2-0.1S14.5,65.5,14.3,65.8z"/>
		<path class="st1" d="M18.6,52.7c0.1-0.2,0.3-0.4,0.5-0.6C19,52.1,18.9,52.4,18.6,52.7z"/>
		<path class="st1" d="M37.3,23.8l1.7-1.2C38.4,22.9,37.8,23.3,37.3,23.8z"/>
		<path class="st1" d="M17.6,54.3l1-1.6C18.3,53.2,17.9,53.8,17.6,54.3z"/>
		<path class="st1" d="M10.3,91.2c0-0.4,0.1-0.8,0.1-1.2c0,0-0.1-0.1-0.1-0.1L10.3,91.2z"/>
		<path class="st1" d="M0,101c0.2,1.3,0.3,1.6,0.4,1.3C0.2,101.9,0.1,101.5,0,101z"/>
		<path class="st1" d="M12.8,132.4c-0.1-0.2-0.3-0.4-0.4-0.5C12.7,132.3,12.9,132.5,12.8,132.4z"/>
		<path class="st1" d="M5.3,114.6c0.1-0.1,0.1-0.2,0.1-0.3C5.3,114.2,5.3,114.3,5.3,114.6z"/>
		<path class="st1" d="M174.4,117.5l-0.2,0.7C174.3,118,174.4,117.8,174.4,117.5z"/>
		<path class="st1" d="M175.8,78.6L175.8,78.6z"/>
		<path class="st1" d="M175.8,77.4v0.8C175.8,77.8,175.8,77.5,175.8,77.4z"/>
		<path class="st1" d="M9.5,92.5c0.2,1,0.5,3.1,0.9,3.1c-0.1-1.4-0.1-2.8-0.1-4.4C10,92.9,9.7,93.7,9.5,92.5z"/>
		<path class="st1" d="M114.1,177.6c0.9-0.4,1.7-0.9,2.6-1.4l-2.7,1.4L114.1,177.6z"/>
		<path class="st1" d="M146.3,158.6l-0.1,0.1L146.3,158.6L146.3,158.6z"/>
		<path class="st1" d="M106.5,179.1l-0.8-0.2l3.8,0.4c-0.1,0-0.1,0.1-0.2,0.1l0.2-0.1l-3.9-0.4C107,179.3,107,179.2,106.5,179.1z"/>
		<path class="st1" d="M49.8,13.6l0.6-0.4C50.2,13.4,50,13.5,49.8,13.6z"/>
		<path class="st1" d="M143.9,159.2l2.4-0.7l0.9-0.7C147.4,157.4,144.9,158.6,143.9,159.2z"/>
		<path class="st1" d="M106.5,179.1c0.9,0.2,1.7,0.3,2.6,0.3c0.9,0,1.9-0.2,2.8-0.6c0.7-0.2,1.4-0.6,2.1-1.1l0,0h0
			c0-0.1-0.3,0-1.3,0.4c-0.6,0.3-1.1,0.5-1.8,0.6c-0.7,0.2-1.3,0.2-2,0.2c-1,0-1.9-0.2-2.9-0.6l3.6,0.4c-0.5,0.2-0.1,0.3,0.1,0.4
			l-3.8-0.4L106.5,179.1z"/>
		<path class="st1" d="M1.1,98.2c0,0.3-0.1,0.3-0.2,0.1c-0.1-0.3-0.2-0.6-0.3-0.9c-0.2-0.7-0.4-1.2-0.3,0.3c0.3,0.8,0.6,1.8,0.9,2.8
			c-0.3-0.5-0.5,1.3-0.7,1.7c0.3,0.7,0.4-0.4,0.6-1.2s0.4-1.1,0.9,0.7c0.2,0.8,0.4,1.6,0.5,2.4c0.1,1.1,0.3,2.3,0.5,3.1
			c-0.7-3.6,0.4,0,1.1,1.3c0.1,0.3,0.2,0.6,0.3,0.9l0.2,0.7c0.1,0.5,0.3,0.9,0.3,1.4c0.2,0.9,0.4,1.8,0.4,2.7c0.4,0.9,0.7,1.9,1,2.8
			l-0.1,0.2c1,2.3-0.1-0.8,0.3-0.3c0.7,2.5,1.7,4.8,3.1,7c-1.4-2.1-2.7-4.4-3.8-6.7c0.8,2.6,0.6,2.5-0.1,1.6s-1.5-2.7-1.9-3.2
			c0.6,1.7,1.3,3.3,2.2,4.8c0.8,1.4,1.7,2.7,2.7,3.9c1.1,2,0.9,2.1,0.1,1.6c-0.8-0.6-1.5-1.4-2.1-2.2c0.6,0.9,1.3,1.8,2,2.6
			c0.3,0.4,0.8,0.8,1.1,1.2l0.9,0.8c0.6,0.5,1.1,1,1.5,1.5c0.4,0.4,0.7,0.8,1.1,1.2c-0.2-0.2-0.4-0.4-0.6-0.5l-0.5-0.4
			c-0.2-0.2-0.5-0.3-0.8-0.4c-0.6-0.3-1.2-0.7-1.8-1.2c0.4,0.8,0.9,1.5,1.6,2.2c0.4,0.4,0.8,0.6,1.2,1.1l-0.7-1
			c-0.2-0.2-0.3-0.5-0.4-0.7c0.3,0.5,0.6,0.9,1,1.3c0.3,0.3,0.6,0.5,0.9,0.6c0.6,0.2,1.2,0.5,1.7,0.9c0.2,0.4,0.5,0.9,0.6,1.2
			c0.1,0.3,0.2,0.7,0.2,1c0,0.1,0,0.3,0,0.4s0,0.3,0.1,0.5c0,0.4,0.1,0.7,0.1,1c0.2,1.7,0.6,2.9,0.3,2.8l0.6-0.4
			c0.2,0.4,0.4,0.8,0.7,1.2c0.1,0.3,0.3,0.5,0.5,0.7c0.3,0.3,0.4,0.5,0.4,0.6s-0.4,0-0.2,0.4c0.8,0.4,1,0.2,1.6,0.4s1.5,0.6,3.5,2.2
			c-0.4,0.1-0.2,0.4,0.2,0.9l-0.5-0.6c0.7,0.9,1.4,1.7,2.3,2.4c0.8,0.6,1.3,1.1,1,1.4c0.9,0.5,1.9,1,2.9,1.4
			c0.8,0.3,1.6,0.7,2.3,1.2c0.3,0.4,0.2,0.6,0,0.6c-0.4,0-0.8-0.1-1.2-0.3c-1.3-0.5-2.5-1.1-3.7-1.9c-3.5-2.3,0.7,0-0.7-1
			c-1.4-0.7-2.6-1.7-3.7-2.9c0.5,0.7,1,1.3,1.6,1.9c0.6,0.6,1.2,1.1,1.7,1.5c1,0.9,1.7,1.4,1.3,1.5c0.8,0.4,1,0.5,1,0.4
			s-0.2-0.3-0.5-0.5s-0.5-0.4-0.5-0.5s0.4,0.1,1.2,0.5c0.6,0.4,1.2,0.9,1.6,1.2c1.2,0.7,1.1,0.4,1.2,0.2s0.1-0.1,0.3-0.1
			c0.2,0.1,0.4,0.2,0.6,0.3c0.3,0.2,0.6,0.5,1.1,0.9c-1.4-0.9-0.4,0,0.9,1.1s2.8,2.5,2.5,2.7c0.4-0.3,2.1,1.1,4,2.5s4,2.8,4.7,2.8
			c-0.7-0.5-1.5-1.1-2.1-1.6l0.3,0.7c-2.4-1.5-4.6-3.1-6.7-4.9c2,1.2-0.1-1.1,2.1,0.4c4.3,2.6,0.8,1.2,1.3,1.6
			c1.2,0.7,2.4,1.4,3.6,2c-0.7-0.6-1.4-1.3-2-1.9c1.3,0.9,2.9,1.9,4.6,2.9c0.8,0.5,1.6,1,2.4,1.5c0.8,0.6,1.7,1.2,2.8,1.9
			c0.9,0.6,1.8,1.1,2.7,1.5l-0.4-0.1c1.1,0.5,0.5,0.4-0.1,0.2l0.4,0.1c-0.4,0-0.8-0.1-0.1,0.3l-0.5-0.2c0.3,0.2,0.7,0.3,1,0.4
			l1.3,0.4l-0.2-2.1c0-0.3,0-0.6,0-0.9c0-0.1,0.1-0.2,0.1-0.4c-0.3,0.2-0.7,0.3-1.1,0.3l-7.5,0.4l7.8,2.7c0.3,0.1,0.7,0.2,1.1,0.3
			l1.2,0.3l-0.2-1.9c-0.1-0.4,0-0.8,0.1-1.2c0-0.1,0,0.2-1,0.3l-4.5,0.5l4.7,2.3c0.3,0.2,0.8,0.4,1.5,0.8c-0.4-0.3-0.9-0.6-1.4-0.9
			l-5-2.3l4.8-0.4c0.4,0,0.7-0.1,1.1-0.3c-0.2,0.4-0.2,0.8-0.1,1.2l0.2,1.8l-1.2-0.3c-0.3-0.1-0.7-0.2-1-0.3l-6.5-2.6l6.1-0.3
			l0.4-0.1c0.4-0.1,0.4-0.1,0.3-0.1c-0.2,0.1-0.5,0.1-0.8,0.2l-5.8,0.7l6.3,2c0.3,0.1,0.6,0.2,1,0.3l1.1,0.3l-0.2-1.4
			c-0.1-0.4,0-0.8,0.1-1.2c-0.3,0.2-0.6,0.3-1,0.3l-4,0.4l4.3,2.2c1.2,0.6,2.5,1.2,2.5,0.9c0.9,0.8,0.6,0.8-0.3,0.6
			c4.3,2.1,8.3,4.3,9.7,5.7l2.2,0.3c0.5,0.3,0.9,0.5,1.4,0.7c0.5,0.2,0.8,0.3,1.1,0.4c0.6,0.2,0.8,0.2,0.8,0.3
			c-0.8,0-1.5-0.1-2.2-0.4c-0.7-0.2-1.3-0.4-2-0.6c-0.1,0-0.1,0.1,0.2,0.3c0.6,0.4,1.1,0.7,1.8,1c0.9,0.4,1.8,0.6,2.7,0.7l2.7,0.4
			c0.6,0.1,1.3,0.2,1.9,0.2c-0.7-0.2-1.5-0.3-2.2-0.5c0.9,0,1.3-0.1,1.9-0.1c0.9,0,1.8,0,2.7,0.2c0.6,0.1,1.1,0.3,1.7,0.6
			c0.7,0.2,1.4,0.3,2.1,0.2c1.7,0.3,2.8,0.5,3.3,0.6s0.5,0.3,0.3,0.4c-0.5,0.3-2.1,0.5-2.7,0.8c2.7,0.4,2,0.7,1.1,0.9
			s-2.1,0.2-0.2,0.2l-1-0.2c1.9-0.1,3.8-0.3,5.6-0.7c-2.6-0.3-3.1-0.2-3.2-0.1s0.1,0.4-0.9-0.1c-1-0.1-2-0.2-3.1-0.4
			c0.5-0.1,2.5,0.1,4.5,0.2c1.4,0.1,2.8,0,4.2-0.4c0.1,0.2-0.6,0.9-3.9,0.9c0.6,0.3,1.3,0.6,2,0.9c1.9,0,3.1-0.7,4.2-0.4
			c1.4,0.1,0.4,0.5-0.1,0.7s-0.5,0.4,3,0c1.4-0.2,2.8-0.5,4.2-1c0.9-0.3,1.7-0.7,2.5-1.1c0.6-0.3,1.1-0.6,1.7-0.9
			c0.7-0.3,1.3-0.6,2.1-0.8c-0.9,0.1-1.7,0.3-2.5,0.6c1.2-0.7-1.1-0.2,0.9-1.1c1,0,2-0.1,2.9-0.3l-3.1-0.3c0.9,0.4,1.9,0.6,2.9,0.6
			c0.9,0,1.8-0.2,2.7-0.5c1.4-0.5,1.8-0.9,1.8-0.8l2.5-1.2c-0.7,0.7,1.5,0,0.6,0.6c1.3-0.6,2.5-1.4,3.6-2.2
			c-6.7,2.8,6.1-3.5,0.8-1.6c5.1-2.5,6.2-2.5,9.5-3.8c-0.1,0.3-5.6,3.2-1,1.2c4.8-3.1-1.3-0.3,2.3-2.9l-3.3,1.4
			c-0.7-0.5,5.4-3,6.2-3.5c2-0.8-2.6,1.6-0.5,1c3-1.3,4.2-2.5,6.3-3.1c-1.6,1.3-0.5,0.6-2.4,2c6.9-3.4-0.1,0.7,5.3-1.6
			c1.6-0.9,0.4-0.8,3.1-2c-1.8,0.3-1.7,0-6.1,2.1c1.2-1.4,5.8-2.6,8.7-4.5c-1.2,0.5-2.3,1-3.4,1.6c-0.6-0.4-1.7,0,0.5-1.8
			c-2.8,1.5-3.7,2.8-7.8,4.6c-1.4-0.1,4.8-2.9,4.4-3.7c1.8-1.4,6.9-3.4,9.3-4.2c1.5-0.9,3.1-1.9,4.7-2.8c0.7-0.4,1.6-0.9,2.5-1.5
			c1-0.6,1.9-1.5,2.6-2.5l-1.3,0.1l0,0l-0.3,0.7c1.1,0,2.1-0.4,3-1.1c0.5-0.2,1-0.5,1.4-0.8c0.4-0.3,0.8-0.5,1.2-0.7
			c1.5-0.6,2.9-1.6,3.9-2.9c1-1.3,1.8-2.7,2.4-4.2l0.1-0.1l0,0c0.1-0.2,0.1-0.5,0.2-0.7l-1.6,1.6c0.6-0.1,1.1-0.3,1.6-0.6
			c0.5-0.4,1-0.9,1.2-1.5c0.3-0.7,0.4-1.4,0.6-2.1l0.9-2.5l-2.8,0.3h-0.4l0.4,3.6h0.4l1.3-0.1l0.3-1.3c0-0.1,0-0.2,0.1-0.3l0,0
			l-0.3-0.1l-0.4-0.1c-0.1,0-0.3-0.1-0.4-0.1c-0.1-0.1-0.1-0.2,0,0.1l0.2,0.5l1.3-1.5c0,0,0-0.1,0.1-0.1l-4-0.3c0,0.3,0,0.6,0,0.8
			v2.4l2.6-0.7c0.7-0.2,1.4-0.5,2.1-0.9c0.5-0.4,1-0.8,1.5-1.3c0.3-0.4,0.5-0.6,0.5-0.4c-0.2,0.5-0.5,1-0.9,1.4
			c0.3-0.4,0.7-0.8,0.9-1.2c0.4-0.7,0.8-1.4,1-2.2c0.1-0.3,0.2-0.7,0.2-1c0-0.2,0-0.4,0.1-0.6c0-0.3-0.1-0.4-0.2-0.1
			c0,0.1,0,0.3,0,0.4c0,0.1-0.1,0.4-0.1,0.6c-0.2,0.5-0.3,1.1-0.6,1.6c0-0.4,0-0.9,0-1.3c0.2-0.8,0.4-1.5,0.5-2.3
			c0.1-0.8,0.2-1.5,0.3-2.3c0.1-1.5,0.4-2.9,0.7-4.4c0.5-0.8-0.6,5.2,0.2,3.4c-0.1-1.4,0.2-4.8,0.4-8.3s0.4-7.1,0.7-8.8
			c0.3-2.3,0.9-2.5,1-3.5l0.2-4c0.3-0.4,0.5-0.8,0.7-1.3c0.1-1.5,0.1-3-0.2-4.5c0-0.8,0.1-1.6,0.3-2.4c0.1-0.6,0.2-0.8,0.3-0.4
			c0.1,0.2,0.1,0.4,0.2,0.6c0.1,0.2,0.1,0.4,0.2,0.7c0.1,0.5,0.2,1.2,0.3,1.8l-0.2,2.9c0.1,1.1,0.2,2.3,0.1,3.4
			c0,0.9,0.1,1.2,0.4,0.3c0.1-0.7,0-1.5-0.3-2.2l0.3-1.8c-0.1-0.9-0.2-2.5-0.4-3.8l-0.1-0.9l-0.1-0.8c0-0.3-0.1-0.5-0.2-0.8
			c-0.1-0.2-0.1-0.1-0.1-0.1c0-0.2-0.1-0.5-0.3-0.7l0,0l-0.1-0.5l0,0l-0.4-0.1c0.2,0,0.3,0,0.5,0.1c0.2,0,0.3-0.1,0.4-0.2
			c0.1-0.1,0.1-0.1,0.1-0.2c0,0,0-0.1,0-0.1l0.1-0.2l0.1-0.3c0.1-0.5,0.2-1.1,0.2-1.7c0-1.1,0.1-2.3,0.3-3.4c-0.4,2.1-0.4-0.6-0.8,0
			l-0.3,3.7c0-3-0.2-7.3,0.1-10.1c0.3,0.3,0.4,0.5,0.6-1c-0.3,2-0.6-5.3-1-0.9c0.2,1.7,0.3,3.5,0.2,5.2c-0.6,1.4-0.6-1.9-0.9-3.8
			c-0.1-2.1-0.5-6.1-0.8-8.7l-0.1-0.4v-0.2c0,0,0.1,0,0.1-0.1c0.6-0.1,1.1-0.5,1.3-1.1c0.1-0.2,0.2-0.4,0.3-0.7
			c0-0.1,0.1-0.3,0.2-0.4l0.1-0.1l0,0l-0.2-0.3l0,0l0.1,0.1c0,0,0.1,0.1,0.1,0.1l0.9-1.7c-0.1-0.4-0.3-0.8-0.6-1.1
			c-0.3-0.3-0.6-0.6-0.9-0.8c0.3,0.3,0.6,0.6,0.8,0.9c0.1,0.2,0.2,0.4,0.2,0.6c0,0.2-0.1,0-0.5-0.3c-0.4-0.4-0.8-0.7-1.3-0.8
			c-0.4-0.1-0.8-0.4-1-0.8l-0.2,0.5c0.5-0.5,0.8-1.1,0.8-1.8c0-0.4-0.1-0.8-0.4-1.1c-0.2-0.7-0.4-1.4-0.7-2
			c-0.3-0.6-0.5-1.2-0.8-1.7c-0.5-1.1-1.2-2-1.7-3.2c0.8,0.9,1.5,2,2,3.2c0.3,0.7,0.6,1.4,0.9,2s0.6,1,0.8,1.3
			c0.2,0,0.4-0.3,0.7-0.1c0.3,0.3,0.5,0.7,0.5,1.1c0.1,0.5,0.1,1-0.1,1.5c-0.2,0.8-0.7,1.4-1.3,1.9L182,62c0.1,0-0.1,0-0.1,0l0,0
			c-0.1,0.1,0,0,0,0l0.2-0.1l-0.7,1.9c0.8-0.5,1.4-1.4,1.6-2.3c0.1-0.6,0.1-1.2,0-1.7c-0.1-0.5-0.3-0.9-0.5-1.3
			c-0.4-0.4-0.8-1-1-1.5l0.8,1.8c-0.3-0.5-0.3-0.2-0.4-0.1s-0.2,0.1-0.5-0.7c-0.5-1.4-1-2.7-1.6-4c-0.6-1.1-1.1-1.9-1.5-2.7
			c-0.8-1.5-1.5-3.1-2-4.7c0,0.5-0.2,0.3-0.5-0.1c-0.3-0.7-0.6-1.4-0.7-2.2c0-0.3,0-0.6,0-0.9c-0.4-1.7-0.6-1.5,0-1.6
			c0.2,0,0.3,0,0.4-0.1s-0.1-0.5-0.7-0.8c-0.5,0-1.1,0-1.6,0l-0.5-0.1l-0.2-0.1c-0.1,0-0.1,0-0.2,0.1l-0.2,0.1L172,41l-0.1-0.1
			c-0.3-0.1-0.4-0.3-0.4,0c-0.2-0.3-0.3-0.5-0.3-0.6c0-0.2,0-0.4-0.1-0.6c-0.2-0.2-0.3-0.4-0.4-0.6c-0.1-0.1-0.1-0.2-0.2-0.3
			c-0.1-0.2-0.1-0.4-0.2-0.7c-0.3-1.2-0.7-2.3-1.2-3.5c0.3,0.1,0.5,0.3,0.6,0.6c0.5,0.9,0.8,1.8,0.9,2.8c-0.3-1.7-0.5-2.9-0.6-3.6
			s0.1-0.8,0.6-0.2c0.4,1,0.7,2,0.9,3l0.2,1.4l0.1,0.3l0.1,0.4c0.2,0.3,0.3,0.2,0.2,0.1s-0.1-0.2-0.1-0.5s-0.1-0.3-0.1-0.5
			c-0.2-0.9-0.3-1.9-0.5-2.6s-0.3-1.2-0.2-1.2c0.5,1.2,0.8,2.4,1,3.7c0.1,0.4,0.2,0.9,0.4,1.2c0-0.3,0-0.6-0.1-0.9
			c-0.1-0.2-0.1-0.5-0.2-0.7c-0.1-0.5-0.2-1-0.4-1.5c-0.3-1-0.7-1.9-1.2-2.8c-0.5-0.8-1.1-1.5-1.8-2c-0.3-0.2-0.6-0.4-1-0.6
			c-0.4-0.1-0.7-0.2-1.1-0.3l-0.1,0l-0.1,0.2l-0.1,0.1l0,0l-1.6,3l0,0l0,0l0.1-0.1c0.1-0.1,0.2-0.2,0.3-0.3l0.5,0.8
			c-0.5,0-0.1,0,0,0l-0.5-0.8l0,0l0,0l0.5,0.8c-0.6,0-0.4-0.2-0.1,0.2c0.2,0.2,0.4,0.5,0.6,0.8c0.1,0.2,0.3,0.5,0.4,0.7
			s0.4,0.7,0.6,1v0.1l0,0l0,0c0,0,0,0,0-0.1s0-0.1,0-0.1H167l0,0l0,0l-0.1-0.2l-0.4-0.8l-0.3-0.5c-0.1-0.1-0.2-0.3-0.3-0.4
			c-0.2-0.3-0.4-0.5-0.6-0.7c-0.1,0,0,0,0.4,0l-0.5-0.8c-0.1,0.1-0.2,0.2-0.3,0.3c0,0-0.1,0.1-0.1,0.1l0,0l1.5-2.9l0,0l0,0v0
			l0.1-0.1c0.1-0.1,0.1-0.1,0.1,0h0.1l0.2,0.1c0.3,0.1,0.5,0.1,0.7,0.2c0.4,0.2,0.7,0.4,0.9,0.7c0.2,0.1,0.3,0.3,0.4,0.5
			c0,0.1-0.1,0.1-0.3-0.1c-0.4-0.3-0.9-0.5-1.4-0.6h-0.1l-0.7,0.1c-0.2,0-0.3,0-0.5,0l-0.2,0.2l0,0l0,0l-1.1,2.1l0,0l0,0v0
			c0.1-0.1,0.2-0.2,0.3-0.3l0.5,0.8c-0.4,0-0.5-0.2-0.1,0.2c0.1,0.1,0.1,0.1,0.2,0.2c0.1,0.1,0.1,0.2,0.2,0.3s0.2,0.3,0.3,0.5
			l0.2,0.3l0,0c0.1-0.1,0.2-0.1,0.3-0.2c0.3-0.2,0.6-0.4,0.9-0.6c0.4-0.4,0.8-0.8,1-1.3c0.2-0.6,0.3-1.2,0.3-1.8
			c0-0.4-0.2-0.9-0.3-1.3L168,30l-0.7-0.4c-0.2-0.1-0.5-0.2-0.7-0.3c-0.2-0.1-0.5-0.1-0.8-0.2h-0.3h-0.1h-0.2
			c-0.2,0.1-0.5,0.1-0.7,0.2c-0.2,0.1-0.5,0.1-0.7,0.1c-0.1,0-0.2-0.1-0.3-0.1c0-0.1-0.1-0.2-0.1-0.3c-0.1-0.2-0.3-0.4-0.4-0.6
			l-0.1-0.1c0,0,0,0.1,0,0.1c0.2,0.5,0.2,0.9,0.2,1s-0.2-0.1-0.6-0.4c-0.2-0.1-0.4-0.3-0.6-0.5c-0.9-0.8-2-1.4-3.1-1.9
			c0.8,0.4,1.5,0.8,2.1,1.4c0.2,0.2,0.5,0.5,0.7,0.8c0.1,0.3,0.3,0.6,0.5,0.8c0.2,0.3,0.4,0.5,0.5,0.8c0.1,0.1,0.1,0.4,0.3,0.5
			c0.2,0.1,0.5,0.1,0.7,0.1l-0.1,0.5c-0.2,0-0.5,0-0.7-0.1c-0.3-0.1-0.3-0.4-0.4-0.6c-0.1-0.3-0.3-0.6-0.5-0.9
			c-0.2-0.3-0.4-0.5-0.6-0.8c-1-1-2.1-1.8-3.4-2.3c0.6,0.1,0-0.2,0.9,0c-0.3-0.1-0.6-0.3-0.9-0.4l0.5,1.5l0,0l0.1,0.1l0.1,0.1l0,0
			c0.1-0.1,0.3-0.2,0.6-0.4c0.5-0.3,0.8-0.7,1-1.2c0.2-0.5,0.2-1,0-1.5l-0.1-0.6l-0.6-0.2c-0.6-0.2-1.2-0.3-1.8-0.3
			c-0.5,0-0.9-0.1-1.4-0.3c0.2,0,0.5,0,0.7-0.1c-0.6-0.2-1.1-0.5-1.6-0.9l-0.5-0.4l-0.6-0.5l-1.2-0.9c-0.8-0.6-1.6-1.2-2.3-1.7
			c-1.5-1.1-2.8-2-3.8-2.5c1.8,1.2,3.1,2.6,1.2,1.4c-0.6-0.3-1.4-0.7-2.3-1.2c-0.4-0.2-0.9-0.5-1.3-0.8c-0.3-0.2-0.5-0.4-0.9-0.5
			c-0.4-0.2-0.9-0.2-1.3,0c-0.2,0-0.4,0.1-0.6,0.2l1.1,0.1l0,0l3.9,3.9L142,15l0,0l0,0v0.1c0,0.1,0,0.1,0,0.2c0,0,0,0,0.1-0.1
			l0.1-0.1l0.1-0.1h0.1l0.6-0.3l-1.4-0.3c-0.5-0.1-0.9-0.3-1.4-0.5l-0.6,2.2c2,0.4,3.8,0.8,0.7,0.7c1.5,0.1,2.5,0.2,3.2,0.2l4.2,0.2
			l-2.8-2.8c-0.9-0.9-1.3-1.3-1.9-1.8l-1.1-1.1l-0.9-0.8c-0.4-0.4-0.8-0.8-1.4-1.1l0.5,0.3l0.4,0.4l0.8,0.8l1.4,1.5
			c0,0.7-2.7-1.4-0.4,1.7c-0.7-0.8-1.6-1.5-2.6-2c-0.3-0.2-0.7-0.4-1-0.6l-1-0.5l-1.6-0.9c-1-0.7-0.8-0.8,0.1-0.5
			c0.6,0.2,1.2,0.4,1.7,0.7l1,0.5c0.3,0.2,0.6,0.5,0.9,0.8c-0.2-0.3-0.5-0.6-0.8-0.9c-0.3-0.2-0.6-0.5-1-0.7
			c-0.7-0.5-1.5-0.8-2.3-1.1c-0.5-0.5,0.3-0.2,1.2,0.1c0.6,0.3,1.2,0.5,1.9,0.7c-2.7-1.6-0.1,0.2-2.7-1.1c-1.3-0.5-2.6-1.1-3.7-2
			c-1.1-0.9-2.3-1.6-3.6-1.9c1,0.4,2.7,1.3,1.5,0.9c-1.5-0.7-3.1-1.2-4.7-1.5c-1.2-0.1-2.4-0.3-3.5-0.7c-2.4-1.3-1.1-1.7-5.4-2.7
			c0.8,0.1,1.6,0.3,2.4,0.5c-1.7-0.7-3.5-1.2-5.3-1.4c-4.3-0.2-8.7,0-13,0.6c-4.2,0.5-8.4,1-13,1.7L91,2c1.1,0.1-2.8,0.5-2.7,0.7
			l-2.1-0.1c-0.5,0.5,4.7,0,3.5,0.6c-0.5,0-0.9,0-1.3,0.1h1.9c-4.3,0.2-7.7,1.3-11,1C83.5,3.7,83.8,3.3,84,3s0.5-0.8,4.7-1.2
			c-4.4,0.5-0.8-0.4-1.3-0.6c-2.3,0.1-1.1,0.4-3.7,0.5c0-0.4,5.6-1.1,3.1-1.1c-0.2,0.5-2.6,0.6-3.7,1.1c-1.9,0.1,0-0.3-0.8-0.4
			c-1.1,0.1-1.7,0.4-2.6,0.5l0.7-0.4c-2.7,0.1-3.1,0.3-3.6,0.5s-1,0.5-4.1,0.9c-0.1,0.4,1.8,0,4.3-0.5c0.4,0.2-0.2,0.5-1.2,0.8
			s-2.5,0.7-3.5,1.1H72c-0.5,0.2-1,0.5-1.4,0.8c-0.4,0.3-0.5,0.5-0.4,0.6c-5.4,2.1,1.3-0.9-3.4,0.6C64,6.7,70,4.5,71,3.7L66.1,5
			c0.8-0.7,1.8-1.3,2.8-1.7c0.5-0.2,1-0.5,1.4-0.7c0.2-0.1,0.4-0.2,0.6-0.4C71,2.1,71.3,2,71.5,1.8L70.9,2l-0.3,0.1l-0.1,0L70,2.3
			l-0.9,0.3c-0.5,0.2-0.9,0.4-1.3,0.5C67,3.6,66.3,4,64.5,4.8c6.1-1.5-2.4,1.4,1.2,0.9c-2,0.4-4,1-5.9,1.8c2.4-1.1-0.1-0.7,3.2-1.9
			c-2.7,1-3.6,1.4-4.6,1.9l-4.5,2.1c-1.3,1.2,5.5-1.8-0.5,1.5c-1.3,0.7-1.2,0.4-0.4,0c-4.4,2.1,1.2,0.1-1.3,1.8
			c-1.8,1.1-2.5,1.3-1.8,0.8c-2.6,1.9-0.9,1.3-2.7,2.5l0.9-0.4c-0.4,0.3,0.1,0.3,0.2,0.5s-0.4,0.7-2.3,1.8c-0.6,0.4-1.3,0.8-2,1
			c-0.2,0-0.1-0.2-0.2-0.3c-0.5,0.4-0.9,0.7-1.3,1l-1.2,1.1c-0.8,0.7-1.6,1.2-2.3,1.8c0.2,0,0.1,0.2-0.5,0.7
			c-3.2,3.1-2.2,1.3-3.5,2.4c-2.4,2-2.1,2-1.8,2.2s0.3,0.2,0,0.5c-0.6,0.8-1.2,1.5-1.9,2.2c0.9-0.9,1.8-1.8,2.9-2.6l3.1-2.6
			c-0.1,0.4,0.1,0.9,1.4-0.3c-0.2-0.4,1.8-2.6,3.8-4.4c0.9-0.1-5.1,5.3-1.3,2.6c-1.3,1-2.9,2.6-4.4,4c0.6-0.9-0.6,0.2-1.7,1.1
			c-0.6,0.5-1,0.9-1.2,1s-0.2,0,0.3-0.7c-2.2,2.1-4.2,4.3-6,6.6c-1.8,2.3-3.5,4.6-5,7.1c1.2-3.1,3-6,5.3-8.5l0.4-0.1
			c1.5-2.1,0.8-1.4-0.2-0.3s-2.5,2.7-2.4,2.2c-1.7,2.8-3.8,5.7-6.1,8.8c-0.6,0.8-1.1,1.5-1.7,2.3s-1,1.6-1.5,2.4
			c-1,1.7-1.9,3.5-2.7,5.3c0.9-1.2,0.3,0.3,0.4,0.8c1.4-2.9,1-2.5,2.3-4.4C17,51.3,16,53,15.8,54c0,0.9,1.1-2.2,1.8-3
			c-0.6,1.4-1.1,2.8-1.5,4.3c-0.6,0.8-1.3,1.5-2,2.2L13,59.6L12.8,60c0,0.1-0.1,0.2-0.1,0.3c-0.1,0.2-0.1,0.3-0.1,0.5
			c-0.4,2.9-1.1,5.8-2.1,8.5c1.1-3.2-0.9,1.4,0.4-2.1l-0.7,1.9c0.2-1.2,0.6-2.6,1-4.1c0.2-0.8,0.4-1.5,0.5-2.3
			c0.1-0.4,0.1-0.8,0.2-1.1l0.1-0.6c0-0.2,0.1-0.4,0.1-0.5c0-0.2,0.1-0.5,0.2-0.7l0.1-0.3l0.2-0.5c0.2-0.6,0.4-1.1,0.6-1.6
			c0.3-0.9,0.3-1.4,0-1.3l-1,2.3c-0.3,0.6-0.5,1.2-0.6,1.9l-0.1,0.4l-0.1,0.5l-0.2,0.9c-0.1,0.6-0.3,1.2-0.4,1.9
			c-0.3,1.3-0.7,2.6-1.2,4.1l-0.1-0.3c-1.2,3.6,0.2,0,0.1,0.9c-0.4,1.5-0.9,2.9-1.5,4.3c-0.5,1.1-0.7,2.2-0.6,3.4
			c0.2-1.4,0.5-2.7,0.9-4c-0.4,3.1,0.3-0.9,0.7,0c-0.2,1.3-0.5,2.9-0.6,4.5c-0.1,0.9,0,1.5-0.1,2.8s-0.2,2.3-0.4,3.4
			s-0.3,2.1-0.4,3.1c0,0.5-0.1,1-0.1,1.4v1.6c0,2,0.1,4.1,0.4,6.1c0.1-2.2,0.2-2.8,0.2-5.8C9.1,91,9,92.2,9.7,90.7v-1.8V88
			c0-0.2,0-0.4,0-0.7h0.8c0,0.4,0,0.8,0,1.2s-0.1,1-0.1,1.4c0.2,0.9,0.3,1.9,0.2,2.9c0,1.3,0.1,2.4,0.3,2.5
			c-0.1-0.9-0.2-1.8-0.2-2.8c0.4-1.4,0.4,2,0.8,3.7c0.1-1.4,0-2.7-0.1-4.1c-0.1-0.9-0.1-2-0.2-3.1c0-0.5,0-1-0.1-1.5s0-0.8,0.1-1.3
			c-0.3,0.3-0.4-3.8-0.9,0.1c-0.2,0-0.2-0.6-0.2-1.4s0.1-2,0.3-3c0,1.1,1.3-3.9,1,0.9c0.1-2.2,0.1-2.9,0.2-3.5c0-0.2,0-0.5,0.1-1
			s0-0.8,0.1-1.7c0.1,0.2,0.2-1.2,0.7-2.8s1.1-3.3,1.4-3c0.1-0.7-0.2-0.7-0.3-1.2s0-1.3,0.8-3.9c-0.9,1.2-2.6,6.4-2,2.7L11.9,71
			c-0.6,1.6-0.6,1.3-0.7,1.2s-0.2-0.1-0.8,1.9c0.3-1.2,0.8-3.7,1.3-4.2c-0.6,0.4-0.3-1.2,0.2-3.1s1.1-4,0.8-4.3
			c0.1-0.2,0.3-0.5,0.4-0.8l0.2-0.5c0.1-0.2,0.1-0.4,0.1-0.4c0.1-0.2,0.1-0.4,0.2-0.6l0.4-0.7c0.1-0.3,0.3-0.6,0.4-0.9
			c0.1,0.4,1-0.8,0.2,1.2l-0.5,0.8c-0.1,0.1-0.1,0.3-0.1,0.4l-0.1,0.4c0,0.2-0.1,0.4-0.2,0.6c-0.1,0.4-0.3,0.8-0.5,1.3
			c0.3-0.2,0.5-0.5,0.6-0.8c0.1-0.2,0.2-0.4,0.3-0.7l0.1-0.4l0.1-0.2v-0.1c0-0.1,0.1-0.2,0.1-0.3l0.2-0.5c0.3-0.6,0.6-1.3,1-2
			c0.7-1.4,1.3-2.8,2-4c-0.3,0.5-0.5,0.6-0.1-0.5c0.6-1.1,1.6-2.8,2.4-4s1.4-1.8,1.2-1.1c0.2-0.4,0.5-0.8,0.8-1.2l0.9-1.3l1.8-2.7
			c1.2-1.8,2.4-3.5,3.6-5.2c0.2,0.1-1,1.5-1.4,2.1c1.4-1.9,2.8-3.7,4.2-5.4c1.3-1-1.2,2-1.4,2.7c1-1.3,2-2.5,3.1-3.7l-0.2,0.7
			c0.8-1.1,1.6-2,2.6-2.9l0.9-0.8l1-0.8c0.5-0.4,1-0.7,1.5-1c1.4-1.4,2.8-2.8,4-4.4c0.5-0.6,1.1-1.3,2-2.1c0.2-0.2,0.3-0.3,0.5-0.4
			c0.2-0.2,0.4-0.3,0.6-0.4c0.6-0.4,1.2-0.7,1.9-1c0,0.3-0.8,0.8-1.6,1.3c-0.2,0.1-0.4,0.3-0.5,0.4c-0.1,0.1-0.2,0.1-0.2,0.2
			C45.1,23,45,23.1,45,23.2c-0.4,0.4-0.8,0.8-1.2,1.2c0.4-0.3,0.8-0.6,1.2-1l0.2-0.2l0.1-0.1l0.2-0.2c0.2-0.1,0.4-0.3,0.6-0.4
			c0.7-0.6,1.5-1,2.3-1.2c1-0.6,1.9-1.2,2.8-1.9c0.3-0.3,0.6-0.5,0.9-0.8c0.2-0.2,0.3-0.4,0.4-0.5c0.5-0.8,1-1.4,1.7-2
			c3.7-2,0.6,0.1,0.8,0.2c1.1-0.5,2.5-2.2,3.9-2.1c1.8-1.1,2.7-2-0.2-1c1.9-0.8,3.8-1.7,5.7-2.7c-1.6,1.4,2.7-0.7,3.1-0.2l2.7-0.9
			l1.6-0.6l0.8-0.3l0.2,0c-0.1,0-0.1,0-0.2,0.1h-0.2h-0.1c0,0,0,0,0-0.1l-0.1-0.7c-0.1-0.9-0.2-1.8-0.3-2.7L72,4l0.4,1.2
			C72.6,5.8,72.8,6.4,73,7l0.4,1.4l0,0h0.1l0.5-0.1L75.2,8l2.3-0.4c1.3-0.2,2.6-0.6,3.8-1l-0.9,0.9c1.4-0.2,2.8-0.4,4.2-0.5
			C87.9,7.1,81,7.8,79,8.1c5.6-0.6,9.5-1,14.6-1.3c-1.5-0.1-0.6-0.3-1.4-0.5c2-0.3,4-0.5,6-0.5C98.7,6,98.4,6.2,97,6.3
			c1.2-0.1,2.3-0.2,3.5-0.2c-0.3,0.5,1.4,0.4-2,0.9l3.2-0.2c3.6,0.1-0.2,0.4-1,0.6c1.9,0,3.8,0,5.6,0c1-0.1,0.7-0.2,0.7-0.3
			s0-0.1,0.3-0.1h0.6h1c5.5,0.6,10.9,1.9,16,3.9l-1.8-0.9L121.4,9c3.2,1.1,2.8,0.2,3.9,0.3c3.2,1.2,6.2,2.7,9.1,4.4
			c-2.9-1.1-2,0,0.2,1.6l0.6,0.4c0,0,0.1,0,0.1,0.1l0.1,0.1l0.4,0.4c0.4,0.4,0.9,0.8,1.4,1.2c0.8,0.5,1.5,1,2.2,1.6l4.7-8.7h-1
			c2.2-0.4-1.1-0.7-2.9-1L93.3,1.5l44.2,18.9c1.3,0.5,2.5,0.8,2,0.9c0.5,0.1,1,0.2,1.5,0.2l-5.3-3.8c0.3,0.6,0.6,1.2,1,1.7
			c0.6,0.7,1.3,1.3,2.1,1.7c0.8,0.4,1.6,0.7,2.5,0.7c0.6,0.1,1.2,0,1.8-0.1l-5.3-1.9l0.2,0.2l5.5-2.7c-0.2-0.3-0.4-0.5-0.5-0.9
			c-0.1-0.2-0.1-0.3-0.1-0.2c-0.1,0.3-0.2,0.6-0.4,0.9c-0.1,0.2-0.2,0.3-0.3,0.5s-0.3,0.5-0.5,0.8l-1,1.5l-0.3,0.4l-0.2,0.2l0,0l0,0
			l0.4,0.3l0.5,0.3l0.8,0.5L145,24c1,0.7,2,1.3,3,2l1.4,1l0.7,0.5l0.3,0.2l0.6,0.5c1.1,0.9,2.4,1.5,3.8,1.9c0.4,0.1,0.7,0.1,1.1,0.2
			l0.9,0.1h0.2c0.1-0.5,0.2-0.9,0.3-1.3l0.1-0.4l0.1-0.3l-1.1-2.8c0.5-0.2,1-0.3,1.6-0.2l0,0l0,0h-0.1l-0.1-0.1
			c-0.1-0.1-0.3-0.3-0.4-0.5l-0.1-0.2l-0.2-0.3c-0.2-0.2-0.3-0.5-0.4-0.7c-0.1-0.2,0,0-0.5-0.8l-0.8-1.4l0,0l-0.1,0.1l-0.3,0.2
			l-0.5,0.3c-0.2,0.2-0.4,0.3-0.6,0.5c-0.3,0.2-0.5,0.5-0.8,0.7c-0.5,0.6-1,1.4-1.3,2.1l-1.9,5.2l5.1,2.1c0.4,0.2,0.8,0.4,1.2,0.6
			c0-0.1-0.2-0.3-0.4-0.5s-0.3-0.3,0.1-0.2c0.2,0.1,0.4,0.2,0.6,0.3c0.1,0,0.1,0.1,0.2,0.2l0.1,0.1l0,0l-0.1-0.1
			c0.5,0.6,0.8,1.1,1.2,1.6c0.4,0.6,0.8,1.1,1.1,1.7c0.2,0.2,0.3,0.4,0.4,0.5l0.2,0.1c0.1,0,0.2,0.1,0.2,0.1
			c0.2,0.1,0.3,0.1,0.5,0.2c0.3,0.1,0.6,0.2,0.9,0.3c0.6,0.1,1.1,0.1,1.7,0.1c0.6,0,1.1-0.1,1.7-0.2h0.2c0,0,0.1,0,0,0l0,0l-0.1-0.1
			l-0.2-0.2l0,0l0,0l0.7-4.1l0,0c0,0,0-0.1,0,0c0,0,0,0.1,0,0.1l-1.4-0.4c0.4-0.2,0.8-0.3,1.2-0.3c0.2,0,0.2,0.1,0.1,0
			c-0.2-0.2-0.4-0.4-0.6-0.6c-0.1-0.2-0.3-0.4-0.4-0.6l-0.1-0.2l-0.1-0.1l-1.1-2.1l0,0l-0.1,0.1c-0.8,0.5-1.6,1.1-2.2,1.8
			c-0.5,0.6-0.9,1.3-1.1,2c-0.2,0.6-0.3,1.2-0.3,1.8v2.2l1.3,1.4c0.2,0.2,0.4,0.4,0.7,0.6c0.3,0.2,0.5,0.4,0.8,0.5
			c0.2,0.1,0.2,0.1,0.2,0.1h0.1c0.1,0,0,0,0.1,0s0,0-0.1,0h-0.1c-0.1-0.1-0.3-0.2-0.4-0.3c-0.1-0.1-0.3-0.2-0.4-0.3l-0.4-0.4
			c-0.2-0.2-0.3-0.3-0.5-0.5l-1.3-1.4v-2.1c0-1,0.3-1.9,0.7-2.8c0.3-0.6,0.8-1.2,1.3-1.6c0.4-0.3,0.8-0.6,1.2-0.8
			c0.3-0.1,0.3,0,0.1,0.3c-0.3,0.2-0.6,0.4-0.9,0.6c-0.4,0.4-0.8,0.8-1.1,1.2c-0.6,0.9-1,2-1,3.1v2l1.2,1.3c0.3,0.4,0.7,0.7,1.1,1
			c0.1,0.1,0.2,0.2,0.4,0.2h0.1h0.1h0.1c0.1,0,0.1,0,0.2,0c0.2,0.1,0.2,0.3,0.3,0.5s0.2,0.4,0.4,0.8c-0.2,0.3-0.3,0-0.5-0.3
			s-0.6-0.4-0.7-0.1c0.4,0.2,0.4,0.6,0.6,0.9l0.1,0.1l0,0v-0.1l0,0v0.1l0.1,0.2l0.1,0.4c0.1,0.3,0.2,0.5,0.3,0.7l0.3,0.6
			c0.5,1.2,1.2,2.3,2.1,3.2c0.4,0.7-0.7-0.4-1.1-1.2c-0.2-0.4-0.4-0.7-0.4-0.7s0,0.1,0.1,0.3c0.2,0.3,0.3,0.7,0.5,1
			c0.7,1,1.6,1.8,2.6,2.5c0.2,0.2,0.5,0.3,0.7,0.4l0.3,0.2l0,0c0.1,0,0.1,0,0.2,0c0.1-0.1,0.3-0.1,0.4-0.1c0.1,0,0.1,0.1,0.1,0.1
			c0,0.1,0,0.1,0.1,0.2c0,0.1,0.1,0.3,0.1,0.4l0.1,0.2c0.1,0.3,0.3,0.6,0.4,0.9c0.6,1.1,1.2,2.2,2,3.2c0.6,0.9,1.2,1.6,1.7,2.3
			l0.7,0.9l0.2,0.3c0.1,0.1,0.1,0.2,0.2,0.3l-0.1,0.9c0.2,0.5,0.4,1,0.7,1.6l0.4,0.8l0.2,0.4c0,0.1,0.1,0.2,0.1,0.3l0,0l0,0l0.4-0.1
			c0.4-0.1,0.9-0.2,1.3-0.2c0.4-0.1,0.8,0,1.2,0.1c0.1,0.1,0,0,0,0l0,0c0.1,0,0.1,0,0,0c-0.4-0.1-0.8-0.1-1.2,0
			c0.4-0.1,0.9-0.1,1.3,0.1c-0.2-0.1-0.4-0.3-0.5-0.5l-5.8-7.8l2.4,11.2c0.3,1.2,0.9,2.3,1.8,3.2c0.5,0.5,1,0.9,1.6,1.3l0.1,0.1l0,0
			c0,0,0,0,0-0.1l0.3-0.4l0.1-0.2c0.2-0.2,0.3-0.4,0.5-0.7l0.4-0.5c0.1-0.1,0.2-0.2,0.3-0.3l0.2-0.2c0.4-0.4,0.5-0.3,0.2-0.2l-0.5-5
			c-0.3,0.1-0.5,0.3-0.7,0.4c-0.2,0.2-0.6,0.3-0.4,0.7l0.1,1V63h-0.1l-0.2-0.1l-0.4-0.1l-0.4-0.1c-0.1,0-0.1-0.1-0.2,0v0.1l-0.1,0.2
			c-0.1,0.2-0.2,0.3-0.2,0.5c-0.3,0.6-0.5,1.3-0.6,2c-0.1,0.3-0.1,0.7-0.2,1c0,0.1,0,0.2,0,0.2l0.1,0.2l0.1,0.2l-0.1,0.1
			c-0.2,0.2-0.3,0.3-0.4,0.4s-0.2,0.2-0.3,0.3c0-0.1,0.1-0.2,0.3-0.3l0.3-0.4L177,67c0,0,0,0,0-0.1l-0.1-0.1c0-0.1-0.1-0.3-0.2-0.4
			c0.2-1,0.5-2,0.6-2.6c-0.2,0.5-0.3,0.9-0.4,1.4c-0.1,0.2-0.1,0.5-0.2,0.8c0,0.1-0.1,0.3-0.1,0.4l0.2,0.4c0.1,0.1,0,0.1,0,0.2
			l-0.1,0.1l-0.2,0.2c-0.1,0.1-0.2,0.2-0.3,0.3s-0.3,0.3-0.4,0.6l-0.4,0.7l0.1,1.2l0.1,1l0.1,1.5l0.3,2.8c0.2,1.5,0.1,2.9-0.1,4.4
			c-0.1-0.4-0.1-0.8-0.1-1.2c0,2.2,0,4.4,0,6.6c0,1.1,0,2.2,0,3.2c0,0-0.1,0,0.3,0h0.7l0.6,0.1l0.4,0.1h0.3h0.2h0.1l-2.5-0.6h0.1
			h0.1l0.2,0.1l2,0.5l0.5,0.1L179,89h0.1l0,0v0.1c-0.1,0.3-0.1,0.6-0.3,0.8c-0.1,0.1-0.2,0.3-0.3,0.3h-0.3h0.3l0,0v1l0,0
			c0.1,0.2,0.1,0.3,0.1,0.5c0,0.1,0,0.2,0,0.4l0,0h-0.1h-0.3l-0.6,0.1l-2.2,0.3l-0.6,0.1l0,0v0.1c0,0,0,0.1,0.1,0.1l0.2,0.1h0.1l0,0
			l1.9-0.2h-0.2c-0.3,0-0.5,0-1.1,0.1h-0.4h-0.2v0.7v2.9c-0.2,3.4-0.1,3.8,0.1,4.3c0.2,0.3,0.2,0.7,0.3,1.1c0,1.1,0,2.2-0.1,3.4
			c-1.2-0.1-0.8,9.4-1.3,12.2l0.3-0.9c0,3.4-0.6,6.8-1.7,10c-0.1,0.6-0.2,1.3-0.4,2l-0.2,1c0,0.1-0.1,0.3-0.1,0.4
			c-0.1,0.2-0.1,0.3-0.2,0.4c-0.1,0.1-0.2,0.2-0.3,0.2l3.8,3.9c0.1,0,0.1,0,0.2,0l-7-0.5c0,0.4,0,0.8,0,1.3l2.6-4.5
			c-0.6,0.3-1.2,0.7-1.6,1.1c-0.4,0.5-0.8,1-1,1.6c-0.1,0.3-0.2,0.7-0.3,1v0.2v0.1l0,0l0.4,0.1l0.8,0.2l2.6-3.7l-0.4,0.1l1,8.6
			l0.4-0.1l-4.7-5.4c-0.1,0.6-0.2,0.9-0.2,1.1v0.1l0,0l0,0l0.3,0.1c0.4,0.1,0.9,0.3,1,0.4c0.1,0,0.2,0.1,0.4,0.2l0.2,0.1
			c0.6,0.3,0.6,0.5,0.5,0.3c-0.2-0.5-0.4-1-0.4-1.5l-1.5,2.9l0,0l-1.9-1.1c-0.2,0.6-0.4,1.1-0.6,1.6l0.2-0.8
			c-0.3,0.8-0.7,1.6-1.3,2.2c-0.4,0.4-0.8,0.7-1.4,0.9c-0.5,0.2-0.9,0.4-1.3,0.6c-0.2,0.1-0.4,0.3-0.6,0.4l-0.5,0.3
			c-0.4,0.2-0.7,0.5-1,0.7c0-0.1,0-0.1,0-0.2c0,0,0-0.1,0-0.1s-0.1,0-0.1,0c0.4,0.9,0.2,1.1,0.3,0.8l0.1-1l-0.7,0.1
			c-0.5,0.1-1,0.2-1.5,0.4l-0.7,0.2l-1.1,1.1c-0.4,0.3-0.8,0.5-1.2,0.7l-3.1,1.4l-6.2,3l-12.3,6.1c-8.2,4.2-16.1,8.6-24.3,12.3
			c-0.3,0.2-0.7,0.4-0.8,0.4l-0.2,0.1l0,0c0.1,0.3,0.2,0.5,0.3,0.8c0.2,0.4,0.3,0.8,0.3,1.3c0-0.1,0.1-0.2,0.1-0.4l1-2.4l-2.5,0.4
			c-1,0.2-2,0.4-2.9,0.7c-1.4,0.4-2.7,0.9-3.8,1.3c-1.1,0.4-2.2,0.7-3.3,0.9c-2.3,0.5-4.7,0.8-7.2,0.9c-2.4,0-4.8-0.2-7.2-0.7
			c-1.1-0.2-2.6-0.6-4-1s-3-0.6-4.5-0.8c-0.2,0-0.3-0.1-0.5-0.1l-0.2-0.1l-0.3-0.1l-0.9-0.4l-1-0.5c-1.3-0.7-2.7-1.4-4.1-2.1
			c-2.7-1.2-5.4-2.6-8.2-4.2l2.2,3.2c-0.1-0.5-0.2-1.1-0.4-1.6c-0.7-1.5-2-2.6-3.7-2.9c-0.5-0.1-1-0.1-1.5,0l0.9,2c0,0,0,0,0,0.1
			l3.3,1.5c-0.1-0.5-0.2-1.1-0.4-1.6c-0.3-0.8-0.8-1.5-1.5-2c-0.6-0.5-1.4-0.8-2.2-1c-0.5-0.1-1-0.1-1.5-0.1l0.9,2.1l0,0l0.4-2.1
			c-1-0.4-1.9-0.9-2.8-1.6c-0.6-0.4-1.2-0.9-2-1.4l-2-1.2c-2.4-1.5-4.7-3.2-6.9-5c-1.1-0.9-2.3-1.8-3.4-2.8l-1.7-1.4l-0.4-0.4
			l-0.6-0.5c-0.4-0.3-0.8-0.6-1.2-0.8c-1.5-1-2.8-1.6-3.9-2.3c-0.9-0.5-1.6-1.1-2.3-1.8l-0.3-0.4l-0.3-0.2c-0.9-0.7-1.7-1.5-2.6-2.2
			l-1.1-0.9c-0.2-0.2-0.4-0.3-0.5-0.5c-0.1-0.2-0.2-0.4-0.3-0.7c0-0.1-0.1-0.2-0.1-0.4l-0.1-0.6c-0.1-0.6-0.2-1.2-0.4-1.8
			c-0.2-0.8-0.5-1.6-0.9-2.3c-0.6-0.9-1.2-1.8-1.8-2.8l-0.8-1.2c-0.3-0.5-0.6-0.9-0.9-1.4c-0.6-0.9-1.3-1.7-1.9-2.4l-0.9-1
			c-0.2-0.3-0.5-0.6-0.7-1c-1.8-2.7-3.2-5.7-4-8.8l-0.4-0.7l-0.4-0.8c-0.2-0.3-0.4-0.8-0.7-1.2c-0.3-0.5-0.6-0.9-0.9-1.3
			c-0.1-0.2-0.3-0.4-0.5-0.6c-0.2-0.2-0.3-0.3-0.4-0.5c-0.6-0.8-1.2-1.7-1.7-2.6c-1-1.9-1.9-4-2.8-5.2S1.5,97.6,1.1,98.2z"/>
		<path class="st1" d="M53,11.1l0.5-0.2C53.4,10.9,53.2,11,53,11.1z"/>
		<path class="st1" d="M140.7,12.8c-0.3-0.3-0.6-0.6-0.9-0.9C140.1,12.1,140.4,12.4,140.7,12.8z"/>
		<path class="st1" d="M181.5,57c-0.2-0.5-0.4-1-0.7-1.5L181.5,57z"/>
		<path class="st1" d="M149.4,156.8c0.7,0-1.9,2,0.7,1.1c4.3-2.1,5.1-2.8,5.9-3.6c0.5-0.5,1-0.9,1.6-1.3c0.4-0.2,0.9-0.5,1.7-1
			c1.3-0.7,2.5-1.7,3.4-2.8l-2.2-0.6l0,0l-0.4,1.8l0,0l0.4-1.8l0,0l2.2,0.5c-0.8,0.9-1.7,1.7-2.8,2.2c-0.8,0.4-1.6,0.7-2.4,1
			c0.6,0.4-2.5,2.3-6,4l-1.3,0.1c0.6-0.4,1.1-0.8,1.8-1.2C150.6,156,151.1,156.1,149.4,156.8z"/>
		<path class="st1" d="M152.3,155.2l-0.2,0.1l-0.1,0.1L152.3,155.2z"/>
		<path class="st2" d="M114.6,174.6c0,0-12.1,3.9-12.8,4.4s-11.6,1.9-12,1.9c-2.2,0.2-4.4,0.2-6.5-0.1c-2.7-0.4-18.4-2.7-18.8-2.7
			s-4-4.4-4-4.4s-4.3,1.3-4.8,0.8s-10.7-6.1-11.2-6.5s-4.2-4.8-4.2-4.8l39,5.1L114.6,174.6z"/>
		<path class="st2" d="M20.8,141.8c-2.8-0.9-4.5-3.6-4.2-6.5c0.4-0.7,1.1-0.8,1.7-1.3c0.1,0.6,0.4,1.1,1.1,1
			c1.2-0.2,1.8,0.5,2.4,1.6c0.8-1,2.2-1.1,3.2-0.3c0.1,0.1,0.1,0.1,0.2,0.2c-0.5,1.7-1.2,3.1-3.2,3.2c0.2,0.3,0.3,0.6,0.4,0.6
			c2.7-0.1,4.1,2.2,6.3,3.1c0.1,0,0,0.3,0.1,0.5l0,0c-0.6,0.2-1.5-0.4-1.9,0.8c1.9,0.2,2.9,1.5,3.7,2.8c1.9,3.1,4.7,5.1,7.6,7.1
			c4.8,3.4,9.8,6.6,13.9,10.8c1.3,1.3,2.7,2.9,4.5,3.6c5,1.7,9.7,3.9,14.9,4.9c6.1,1.1,12.2,2.7,18.5,2.3c1.7-0.1,3.4,0,5.1,0
			c1.1,0.1,2.3,0.1,3.4-0.1c4.9-1.2,9.9-2.5,14.8-3.9c4.4-1.3,8.8-2.8,13.2-3.8c-0.1,0.3-0.2,0.6-0.5,0.8c-2.9,1.2-5.8,2.3-8.7,3.5
			c-1.7,0.6-3.3,1.4-4.8,2.4h-0.9c-0.6-0.5-0.9-0.1-1,0.4c-1.3,0.3-2.7,0.7-4,0.9c-1,0.4-2.1,0.3-3.1-0.1c-1.1-0.5-1.2,0.3-1.3,1
			h-0.8c0-0.3-0.1-0.7-0.5-0.7s-0.5,0.3-0.6,0.6l-0.7-0.1c-1.1-0.1-2.3-0.8-3.2,0.5c-1.8-0.4-3.4,0.4-5.2,0.3
			c-0.6-0.2-1.1-0.1-1.2,0.6c-1.4,0.2-2.9,0.2-4.3,0.1c-0.9-0.6-2.1-0.6-3,0l-1.4-0.1c-0.2-0.5-0.4-1-1-0.4h-0.9
			c-0.2-0.6-0.6-0.8-1.2-0.7l-7.7-1.5c0-0.4,0-0.9-0.5-0.9c-0.4,0-0.5,0.3-0.5,0.7h-0.8c-0.1-0.4,0-0.9-0.6-1.2
			c-2.3-0.8-4.6-1.7-6.9-2.6c-4.4-1.9-8.9-3.4-13-5.9c-1.7-1.1-3.3-2.6-5.6-2.7c-0.1-0.3-0.4-0.5-0.8-0.4c-1.4-2-3.4-3.4-5.2-4.9
			c-1.5-1.3-2.9-2.7-4.6-3.9s-1.2-3.2-2.2-4.8c-2.5-0.7-3.6-4-6.7-3.7c-0.8-0.7-1.3-1.7-1.4-2.8c0.2-0.4,0.8-0.7,0.4-1.3
			c-0.3-0.3-0.8-0.3-1.1,0C20.8,141.6,20.8,141.7,20.8,141.8z"/>
		<path class="st2" d="M168.6,127.3c2-1.8,2.7-4.2,3.8-6.5c1.5-3.4,2.9-6.9,4.3-10.3c0.2-0.5,0.5-1,1.1-1.1c-1,3.7-1.6,7.5-3.5,11
			c-2,3.7-3.9,7.5-5.9,11.2c-0.6,1.1-1,2.3-2.4,2.8c0-1.6,1.6-2.7,1.5-4.3C168.2,129.4,168.6,128.4,168.6,127.3z"/>
		<path class="st2" d="M140.7,161.1c0.4-1.8,2.1-2.5,3.2-3.6c1.8-1.6,3.6-3.1,5.6-4.5c0.3-0.3,0.7-0.4,1.1-0.4
			c0,0.8-0.6,1.3-1.1,1.8c-1.7,1.6-3.4,3.2-5,4.8C143.5,160.2,142.1,160.9,140.7,161.1z"/>
		<path class="st2" d="M136.8,163.1c0.8-1.1,2.1-1.8,3.4-1.9C139.6,162.6,138.2,162.9,136.8,163.1z"/>
		<path class="st2" d="M133.8,164.9c0.5-1.4,1.8-1.6,3-1.8C136.3,164.5,135,164.6,133.8,164.9z"/>
		<path class="st2" d="M131.3,166.3c0-0.7,0.4-1,1.1-0.9C132.3,166.1,132,166.4,131.3,166.3z"/>
		<path class="st2" d="M28.6,143.8L28.6,143.8C28.7,143.9,28.6,143.8,28.6,143.8L28.6,143.8z"/>
		<path class="st2" d="M23.4,119.6C23.5,119.7,23.6,119.8,23.4,119.6C23.5,119.8,23.5,119.7,23.4,119.6L23.4,119.6z"/>
		<path class="st2" d="M4.2,87.1l-0.3-0.9l2.2-1.3c0.5-0.1,1.2,0.2,1.3-0.6c-0.3-0.5-0.8-0.4-1.3-0.4c-1-0.7-1.3-1.9-0.9-3
			c0.4-0.5,1.2-0.3,1.4-0.8c0.5-0.1,1.2,0.2,1.3-0.6C7.6,79,7.1,79.1,6.6,79c-0.4-0.4-0.4-1,0-1.4c0.4-0.1,0.5-0.5,0.6-0.9
			c0.4-0.4,1.2-0.4,1.2-1.3c-1.3-0.5-1.3,0.3-1.3,1.1c-0.1,0-0.3,0-0.4,0.1c-0.6-0.1-1.3,0.2-1.8-0.3c-0.2-0.5-0.2-1.1-0.2-1.6
			c0.7,0,1-0.3,1-1c0.6-0.2,1.1-0.5,1.5-1c0.1-0.4,0.1-0.9,0-1.3c-0.9-2.6-0.2-5,0.6-7.4c0.8-2.4,0.6-5.1-0.5-7.4
			c-0.6-1.3-0.6-2.9,0.2-4.1c0.8-1.3,1.6-2.5,2.5-3.8c0.4-0.1,0.9,0.2,1.2-0.4l-1.2,0l-0.5-0.5v-2.4c0.2-1.2,1.1-2.2,1-3.5
			c0.4-0.2,0.4-0.6,0.5-0.9c1.1,0,2.1-0.3,3.1-0.8c0.3,0,0.7,0,0.8-0.4c0.1-0.5-0.4-0.5-0.8-0.6c0-0.2,0-0.3-0.1-0.5l0.1-1
			c3.1-1.8,6.1-3.9,8.9-6.1c0.9-0.5,1.9,1,2.9,0c-0.6-0.7-1.7-0.5-1.9-1.5c0.6,0.1,1.3,0,1.9-0.2c1.8-0.9,3.7-1.6,5.6-2.2
			c1.9-0.7,3.7-1.6,5.8-1.4c0.8,1.1,1.1,0,1.5-0.4c1.1,0.2,2-0.6,2.9-0.9c0.3,1.7-0.7,3-1.3,4.1c-1.1,0.4-1.4-0.8-2.3-0.6
			C37.1,30,35.3,30,34.2,31c-0.5,1,0.3,2.2-1.1,3c-1.6-0.4-2.4-2.9-4.7-2.2l-0.6,1.6c0.6,1.5,2.1,1.4,3.1,2.1
			c0.5,1.3-0.7,2.5,0.1,3.7c-2.7,2.2-4.8,4.9-8.2,5.7c0.1,1.1,1.6,1,1.6,2.2c-2.8,1.5-4.9,4.1-8.3,5c0.2,1-0.3,2,0.4,2.8
			c4.4,0.3,4.4,0.3,5.8-3.5c0.9-0.5,1.9-1.2,2.8-1.8c0.7-0.5,1.4-1.5,2.5-1.1c-0.1,0.4-0.3,0.8-0.6,1c-2.3,1.3-4.1,3.2-5.3,5.4
			c-0.5,0.9-1,2.2-2.3,2.6c-1.7-2-2.2-2-5.2-0.1c0.8,4.1,0.7,4.4-2.5,6.3c-0.1,0.5-0.2,1,0.4,1.3c0.9,0.2,1.8-0.8,2.4-0.4
			c1.1,0.7,0.9,2.4,2.5,2c0.3,1.5,1.7,1.6,2.8,2.2c0.9,0.4,2.3,0.3,2.5,1.8c-0.8,0.1-1.4-0.3-2.1-0.5c-1.8-0.3-2.7,0.5-2.6,2.7
			c0.9,0.1,1.6,0.5,2.3,1.1c-3.4,1.7-2.1,5-2.5,6.9c-1.2,2.6-4.3,1.6-4.9,4C13,85.6,14,85,14.3,86c-0.2,0.6-1.1,1-0.8,1.9
			c0.7,0.8,1.8,0.9,2.7,1.7c-0.7,1.5-0.1,3.4-0.9,4.9c0.8,1.2,1.9,2.2,3.1,3c0.9,2-1.1,3.6-0.7,5.1c0.3,0.8,1.4,0.5,1.2,1.5
			c-1.4,0-2.8,1-4.4,0.3c-0.6-0.3-1.4,0.1-1.7,1.1c1.8,0.2,3.5,0.2,5,1.1c0.8,0.5,0.8-1.2,1.9-0.2c-0.3,2.6-1.3,5.3-0.6,8.2
			c-0.9,0-1.1-0.7-1.7-0.5c-0.5,0.4-1.4,0.6-1.7,1.5c0.6,0.8,1.6,1.1,1.7,2.1c1.5,0.3,3.1,0.1,4.4-0.7c0.8-0.4,1.6-0.7,2.5-0.9
			c0.3-0.1,0.4,0.1,0.5,0.4c-0.1,0.7-1.1,0.3-1.3,1.3v2l0,0c-1.5-0.3-2.4,0.6-3.2,1.7l1.5,1c-1.8,0.4-3,1.2-2.7,3.3
			c2,0.8,2,3.1,3.2,4.5c1,0,0.9-1.1,1.7-1.1c0.4,0.5,1,0.7,1.1,1.3c-0.2,0.6-1,0.2-1.1,1.2c0,0.3,1.1,0.4,0.4,1.3
			c-1.8,0.9-3.9,0.9-6,0.8c-0.5-0.9-1.3-1.5-2.3-1.7c-0.9-0.1-1.7-0.2-2.6-0.3v-1c0.7-0.3,0.5-0.9,0.4-1.4l0.1-1
			c0.7-0.2,1.8,0.5,1.9-0.9c-0.3-0.6,1.5-1.6-0.4-2c-0.7-1.8-1.9-0.9-2.9-0.4h-1c-0.7-0.7-0.5-1.4-0.3-2.1c0.5-0.5,1.2-0.1,1.7-0.7
			c0-1.1-0.7-2.1-1.8-2.5c-1.8-0.6-2.4-2-2.5-3.7c0-0.6,0.1-1.4-0.4-1.8c-2.4-1.7-2.1-4.3-2.5-6.7c-0.2-0.9-0.6-1.8,0.8-2.5
			c-2.4-1.9-2.2-4.3-2.1-6.7c0-3.3,0.1-6.7,0.5-10c0-0.4,0.9-0.3,0.7-0.9L4.2,87.1z"/>
		<path class="st3" d="M20.2,56.2c-1.3-0.1-2.6-0.5-3.9-1h-0.1l0-0.1c-0.4-0.6-0.5-1.2-0.4-1.9c0.1-0.4,0.1-0.7,0-1.1l-0.1-0.3
			l0.3-0.1c1.9-0.7,3.7-1.7,5.3-3c0.9-0.7,1.8-1.3,2.7-1.8c-0.1-0.3-0.3-0.5-0.7-0.7c-0.5-0.2-0.9-0.7-1-1.3v-0.2l0.2-0.1
			c2.5-0.6,4.2-2.2,6.1-4c0.6-0.5,1.1-1,1.7-1.5c-0.2-0.6-0.2-1.3,0-1.9c0.2-0.5,0.2-1,0.1-1.5c-0.3-0.2-0.7-0.3-1-0.4
			c-0.9-0.2-1.7-0.9-2.2-1.7v-0.1l0.7-1.9l0.1,0c0.3-0.1,0.6-0.1,0.9-0.1c1,0.1,1.9,0.6,2.5,1.3c0.4,0.4,0.8,0.7,1.3,1
			c0.7-0.4,0.7-0.9,0.7-1.6c0-0.4,0-0.8,0.2-1.2v0l0,0c0.5-0.4,1-0.7,1.6-0.9c0.8-0.2,1.5-0.8,1.9-1.5l0.1-0.1h0.2h0.2
			c0.4,0,0.7,0.2,1,0.4c0.2,0.2,0.5,0.3,0.7,0.3c0.1,0,0.2,0,0.2,0l0.2-0.4c0.7-1,1.1-2.2,1-3.5v-0.2l1.7-0.6c1.9-0.6,3.7-1.2,5.5-2
			c0.9-0.4,1.8-0.8,2.7-1.1c0.4-0.3,0.6-0.7,0.5-1.2c0-0.4,0.2-0.9,0.4-1.2l0.1-0.1h0.1c0.5-0.1,1-0.2,1.5-0.1h1c0.3,0,0.7,0,1,0
			c0.3,0,0.7,0,1,0c0.1-0.2,0.1-0.4,0-0.7c-0.2-0.5-0.1-1.1,0.3-1.5l0.1-0.1h0.1h0.4c1.4-0.1,2.7-0.8,3.4-2.1c1-1.2,2.4-2.1,3.9-2.5
			c0.4-0.2,0.8-0.3,1.2-0.5c3.1-1.4,6.3-2.7,9.3-3.9c2.1-0.9,4.2-1.8,6.3-2.7c1.5-0.7,3.1-1.1,4.8-1.2h0.2l0.1,0.2
			c0.2,1-0.3,1.5-1,1.8s-1.2,0.8-1.8,1.2c-1.3,1-2.8,1.8-4.4,2.4c0.1,0.6,0.5,0.8,1.1,1.1c0.5,0.2,0.9,0.4,1.3,0.8l0.3,0.3L82,11.4
			c-0.6,0.2-1.2,0.3-1.8,0.3c-0.8,0-1.7-0.1-2.5-0.4C77,11.1,76.2,11,75.5,11h-0.2c-0.2,0.4-0.1,0.8,0.1,1.4
			c0.4,0.8,0.3,1.7-0.1,2.4l-0.1,0.1H75l-0.7-0.1c-0.5-0.1-1.1-0.2-1.6-0.2c-0.7,0-1.3,0.2-1.8,0.7c-0.1,0.2,0,0.4,0.1,0.8
			c0.3,0.5,0.2,1.1-0.1,1.6l-0.1,0.1h-0.1c-0.2,0.1-0.5,0.1-0.8,0.1c-0.6,0-1.2-0.2-1.8-0.5S67,17,66.4,16.9c-0.5,0-1,0.2-1.4,0.4
			c-0.6,0.5-0.7,1.7-0.7,2.9v0.2L64,20.5c-0.4,0.2-0.8,0.5-1.2,0.8c-0.3,0.3-0.7,0.6-1.1,0.8h-0.1h-0.1c-1.3-0.1-2.5-0.5-3.7-1.1
			l-0.8-0.3C57,21,56.9,21.5,57,21.9c0.2,0.5,0.7,0.8,1.2,1l0.3,0.1l-0.2,0.3c-0.3,0.4-0.6,0.6-1,0.8c-0.7,0.4-1,0.6-0.8,1.4l0,0.1
			l-0.2,0.2h-0.1h-0.4c-0.8,0-1.6-0.2-2.4-0.6c-0.5-0.2-1.1-0.3-1.6-0.3c-0.7,0.5-1.3,0.9-2,1.4c-1.2,1-2.6,1.9-4.1,2.6
			c0,1.1,0,1.1,0.7,1.8c0.5,0.4,0.7,1,0.6,1.7c-0.1,0.5-0.6,0.9-1.1,1.1c-1.1,0.4-2,1.2-2.6,2.2l-0.1,0.2c-0.7,1.2-2,2-3.4,2.1
			c-0.3,0-0.5,0-0.8-0.1h-0.2c-0.2,0-0.4,0.1-0.6,0.3c-0.2,0.8-0.2,1.6,0,2.3L40,41l-8.8,5.5H31c-0.1,0-0.2,0-0.3,0
			c-0.4,0-0.9,0.1-1,1.1v0.1v0.1c-0.1,0.2-0.3,0.3-0.5,0.3H29c-0.4,0-0.8,1-0.8,1.8v0.1L28.1,50c-0.1,0.1-0.3,0.2-0.5,0.2h-0.1h-0.1
			C27.4,50.1,27.2,50,27,50c-0.5,0-0.9,0.2-1.2,0.6l-0.4,0.3c-0.3,0.3-0.6,0.6-0.9,0.9c-0.3,0.4-0.6,0.8-1,1.1
			C22.7,55.1,22,56.2,20.2,56.2z"/>
		<path class="st3" d="M86.6,3.7L86.6,3.7c0.2,0.8-0.2,1.1-0.8,1.5c-2.1,1.3-4,3-6.4,3.6c0,1.6,1.6,1.3,2.5,2.3
			c-0.5,0.2-1.1,0.3-1.7,0.3c-1.7,0-3.2-0.7-4.8-0.7h-0.4c-0.9,1.2,1,2.5-0.1,3.9c-0.8-0.2-1.6-0.3-2.4-0.4c-0.7,0-1.5,0.3-2,0.8
			c-0.5,0.8,0.7,1.5,0,2.4c-0.2,0.1-0.4,0.1-0.7,0.1c-1.2,0-2.3-0.9-3.6-0.9c-0.6,0-1.1,0.2-1.6,0.5c-0.7,0.5-0.8,1.8-0.9,3.1
			c-0.9,0.3-1.4,1.2-2.3,1.6C60,21.5,58.5,21,57,20.3c-0.9,1.4-0.4,2.3,1,2.9c-0.6,0.9-2.4,0.9-1.9,2.5l0,0c-0.1,0-0.2,0-0.4,0
			c-1.4,0-2.7-0.9-4.1-1c-2.1,1.4-3.9,3.2-6.2,4.1c-0.1,1.4-0.1,1.4,0.8,2.2s0.8,1.8-0.4,2.2c-1.2,0.5-2.2,1.4-2.8,2.5
			c-0.7,1.2-1.8,1.9-3.2,2c-0.2,0-0.5,0-0.7-0.1c-0.1,0-0.2,0-0.3,0c-0.3,0-0.6,0.2-0.8,0.5c-0.2,0.9-0.2,1.8,0,2.7l1.2,0.4
			l-8.2,5.2h-0.3c-0.8,0-1.2,0.5-1.3,1.3c-0.1,0.1-0.2,0.1-0.3,0.2h-0.1c-0.6,0-1,1.3-1.1,2.1c-0.1,0.1-0.2,0.1-0.3,0.2
			c-0.2-0.1-0.4-0.1-0.6-0.1c-0.8,0-1.2,0.5-1.8,0.9c-0.9,0.6-1,1.5-1.9,2c-0.9,2.3-1.6,3.2-3.1,3.2c-1.3-0.1-2.6-0.5-3.8-1
			c-0.7-0.8-0.1-1.8-0.4-2.8c3.4-0.9,5.5-3.5,8.3-5c-0.1-1.2-1.6-1-1.6-2.2c3.4-0.8,5.5-3.5,8.2-5.7c-0.8-1.2,0.4-2.4-0.1-3.7
			c-1-0.7-2.5-0.7-3.1-2.1l0.6-1.6c0.3-0.1,0.5-0.1,0.8-0.1c1.7,0,2.5,1.9,3.9,2.3c1.5-0.8,0.7-2,1.1-3c1.1-1,2.9-1,3.6-2.5h0.2
			c0.7,0,1,0.7,1.8,0.7c0.2,0,0.3,0,0.5-0.1c0.7-1.1,1.6-2.4,1.3-4.1l1.4-0.5c3-0.9,5.7-2.2,8.3-3.1c0.9-0.8,0.3-1.6,1-2.4
			c0.5-0.1,1-0.1,1.5-0.1c0.7,0,1.3,0,2,0c0.4,0,0.7,0,1.1-0.1c0.7-0.7-0.5-1.5,0.4-2.2h0.5c1.6-0.1,3-0.9,3.7-2.3
			c1.1-1.6,3.2-2.1,5-2.9c5.2-2.3,10.4-4.4,15.6-6.6C83.4,4.2,85,3.8,86.6,3.7 M86.6,3.1c-1.7,0.1-3.3,0.5-4.9,1.2L75.3,7
			c-3.1,1.3-6.2,2.6-9.3,4l-1.2,0.5c-1.5,0.6-3.1,1.2-4.1,2.6c-0.6,1.2-1.8,1.9-3.2,2h-0.4h-0.3l-0.2,0.2c-0.5,0.4-0.7,1.2-0.4,1.8
			c0,0.1,0.1,0.2,0.1,0.3c-0.2,0-0.5,0-0.8,0h-1h-1c-0.5,0-1.1,0-1.6,0.2h-0.2l-0.1,0.1c-0.3,0.4-0.5,0.8-0.5,1.3
			c0,0.3-0.1,0.6-0.3,0.9c-0.9,0.3-1.7,0.7-2.7,1.1c-1.8,0.8-3.6,1.4-5.5,2l-1.5,0.5l-0.5,0.2l0.1,0.5c0.1,1.2-0.3,2.3-1,3.2
			l-0.2,0.2l0,0c-0.2,0-0.4-0.1-0.6-0.3c-0.3-0.3-0.8-0.4-1.2-0.5c-0.1,0-0.2,0-0.2,0h-0.3l-0.1,0.3c-0.3,0.7-1,1-1.8,1.3
			c-0.6,0.2-1.2,0.6-1.7,1l-0.1,0.1l0,0.1c-0.2,0.4-0.3,0.9-0.2,1.3c0,0.6,0,1-0.4,1.2c-0.4-0.2-0.8-0.5-1.1-0.8
			c-0.7-0.8-1.7-1.3-2.8-1.4c-0.3,0-0.7,0.1-1,0.2l-0.3,0.1l-0.1,0.3l-0.2,0.6l-0.4,1l-0.1,0.2l0.1,0.2c0.5,0.9,1.3,1.6,2.3,1.9
			c0.3,0.1,0.6,0.2,0.8,0.4c0.1,0.4,0,0.8-0.1,1.2c-0.2,0.6-0.2,1.3,0,1.9c-0.5,0.5-1.1,1-1.6,1.4c-1.8,1.7-3.6,3.3-6,3.9l-0.5,0.1
			V45c0.1,0.7,0.5,1.2,1.1,1.5c0.2,0.1,0.3,0.2,0.4,0.3c-0.9,0.5-1.7,1.1-2.5,1.8c-1.5,1.3-3.3,2.3-5.2,3l-0.6,0.2l0.1,0.6
			c0,0.3,0,0.7,0,1c-0.1,0.7,0,1.5,0.4,2.1l0.1,0.1l0.2,0.1c1.3,0.5,2.6,0.9,4,1c1.9,0,2.7-1.2,3.6-3.4c0.4-0.3,0.7-0.7,1-1.1
			c0.2-0.3,0.5-0.6,0.8-0.9l0.4-0.3c0.2-0.3,0.6-0.5,1-0.6c0.1,0,0.3,0,0.4,0.1h0.1h0.1c0.3,0,0.5-0.1,0.7-0.3l0.2-0.2v-0.2
			c0-0.5,0.2-1.1,0.5-1.5h0.1l0,0c0.3,0,0.6-0.2,0.7-0.4l0.1-0.1v-0.2c0.1-0.7,0.4-0.8,0.7-0.8h0.3h0.2l0.2-0.1l7.2-4.5l1-0.6
			l1.1-0.7l-1.3-0.4h-0.2l-0.8-0.2c-0.1-0.6-0.1-1.3,0-1.9c0.1-0.1,0.2-0.1,0.3-0.1h0.2c0.3,0.1,0.6,0.1,0.8,0.1
			c1.5-0.1,2.9-0.9,3.7-2.2l0.1-0.2c0.5-1,1.4-1.7,2.4-2.1c0.6-0.2,1.1-0.7,1.3-1.3c0.1-0.7-0.1-1.5-0.7-1.9
			c-0.5-0.5-0.6-0.6-0.6-1.3c1.4-0.7,2.8-1.5,4-2.5c0.6-0.5,1.2-0.9,1.8-1.3c0.5,0.1,1,0.3,1.4,0.4c0.8,0.3,1.6,0.5,2.5,0.6h0.4h0.2
			l0.2-0.2l0.2-0.2l-0.1-0.3c-0.1-0.5,0-0.6,0.7-1c0.5-0.2,0.8-0.5,1.2-0.9L59,23l-0.7-0.3c-0.6-0.3-0.9-0.5-1-0.9
			c-0.1-0.2,0-0.5,0.1-0.7l0.5,0.2c1.2,0.6,2.4,1,3.8,1.1h0.2l0.2-0.1c0.4-0.2,0.8-0.5,1.1-0.9c0.3-0.3,0.7-0.6,1.1-0.7l0.4-0.1
			v-0.4c0.1-1,0.2-2.2,0.6-2.6c0.4-0.2,0.8-0.4,1.2-0.4c0.6,0,1.2,0.2,1.7,0.5c0.6,0.3,1.3,0.4,1.9,0.5c0.3,0,0.6,0,0.8-0.1L71,18
			l0.1-0.2c0.4-0.6,0.4-1.3,0.1-1.9c-0.1-0.3-0.2-0.4-0.1-0.6c0.4-0.4,1-0.6,1.5-0.5c0.5,0,1.1,0.1,1.6,0.2l0.7,0.1l0.4,0.1l0.2-0.3
			c0.5-0.8,0.6-1.8,0.2-2.7c-0.1-0.3-0.2-0.7-0.2-1c0.7,0,1.5,0.1,2.2,0.3c0.8,0.2,1.7,0.3,2.6,0.4c0.6,0,1.3-0.1,1.9-0.3l0.9-0.3
			l-0.7-0.7c-0.4-0.4-0.9-0.6-1.4-0.8c-0.5-0.2-0.8-0.3-0.9-0.6C81.5,8.7,83,8,84.2,7c0.6-0.4,1.2-0.8,1.8-1.2
			c0.9-0.4,1.4-1.3,1.1-2.2l-0.1-0.5L86.6,3.1L86.6,3.1z"/>
		<path class="st3" d="M17.2,67c-0.9,0-1.2-0.6-1.5-1.2c-0.2-0.5-0.5-0.8-0.9-1.1c-0.1-0.1-0.2-0.1-0.2-0.1c-0.3,0-0.6,0.1-0.8,0.2
			c-0.4,0.2-0.8,0.3-1.3,0.3c-0.1,0-0.2,0-0.3,0c-0.6-0.3-0.9-1-0.7-1.7v-0.2l0.1-0.2c3.5-2.1,3.6-2.3,2.7-6.9v-0.2l0.2-0.1
			c1.7-1.1,2.8-1.7,3.7-1.7s1.7,0.6,2.7,1.9l0,0v0c0.3,1.2,0,2.5-0.7,3.5c-0.2,0.4-0.4,0.7-0.5,1c-0.7,1.5-1.1,3.1-1.1,4.8
			c0.1,0.6-0.1,1.2-0.7,1.4C17.6,66.9,17.4,67,17.2,67z"/>
		<path class="st3" d="M18.1,54.5c0.8,0,1.5,0.6,2.4,1.8c0.5,1.7-0.7,2.9-1.2,4.3c-0.7,1.5-1.1,3.2-1.1,4.9c0,0.4,0,0.9-0.5,1.1
			c-0.2,0-0.3,0.1-0.5,0.1c-1.2,0-1.1-1.6-2.3-2.3c-0.1-0.1-0.3-0.1-0.4-0.1c-0.6,0-1.3,0.6-2.1,0.6c-0.1,0-0.2,0-0.3,0
			c-0.6-0.4-0.5-0.9-0.5-1.5c3.6-2.2,3.8-2.5,2.9-7.2C16.3,55.1,17.3,54.6,18.1,54.5 M18.1,54L18.1,54c-1,0-2.1,0.6-3.8,1.8
			l-0.3,0.2l0.1,0.4c0.9,4.5,0.8,4.5-2.6,6.6l-0.2,0.2v0.3v0.1c-0.2,0.8,0.1,1.6,0.8,2H12h0.1c0.1,0,0.3,0,0.4,0
			c0.5,0,1-0.1,1.4-0.4c0.2-0.1,0.4-0.2,0.7-0.2c0,0,0,0,0.1,0c0.4,0.2,0.7,0.6,0.8,1c0.3,0.6,0.8,1.4,1.8,1.4c0.2,0,0.4,0,0.6-0.1
			h0l0,0c0.6-0.3,1-1,0.9-1.7c0-1.6,0.4-3.2,1.1-4.7c0.1-0.3,0.3-0.7,0.5-1c0.8-1.1,1-2.4,0.7-3.7V56L21,55.9
			C20.1,54.8,19.3,53.9,18.1,54L18.1,54z"/>
		<path class="st3" d="M153.8,148.8c-0.7-4.4,1.8-7.4,4.3-9.9c1-1,1.9-2,2.8-3c0.5-0.6,1-1.2,1.6-1.8c0.9-0.8,1.4-2,1.4-3.2v-0.2
			l0.2-0.1c1.1-0.4,2.2-0.7,3.4-0.8h0.3v0.3c0,0.8-0.3,1.6-0.8,2.3c-0.4,0.6-0.7,1.2-0.7,1.9v0.1l-2.5,3.3c-2.2,2.9-4.5,5.8-6.8,8.7
			c-0.5,0.6-1.2,1.2-1.8,1.8c-0.3,0.2-0.6,0.5-0.9,0.8l-0.4,0.4L153.8,148.8z"/>
		<path class="st3" d="M167.5,130.2c0,1.6-1.5,2.7-1.5,4.3c-3.1,4-6.1,8-9.3,11.9c-0.8,0.9-1.7,1.7-2.7,2.5c-0.6-4.1,1.6-7,4.2-9.6
			c1.6-1.5,2.9-3.2,4.4-4.8c0.9-0.9,1.5-2.1,1.5-3.4C165.3,130.5,166.4,130.3,167.5,130.2 M168.1,129.5h-0.6
			c-1.2,0.1-2.4,0.4-3.5,0.8l-0.4,0.1v0.5c-0.1,1.1-0.5,2.2-1.4,3c-0.5,0.6-1.1,1.2-1.6,1.8c-0.9,1-1.8,2.1-2.8,3
			c-2.6,2.5-5.1,5.6-4.4,10.1l0.2,1.1l0.8-0.8c0.3-0.2,0.6-0.5,0.9-0.7c0.7-0.5,1.3-1.1,1.9-1.8c2.3-2.9,4.6-5.8,6.8-8.7
			c0.8-1.1,1.6-2.1,2.5-3.2l0.1-0.2v-0.2c0.1-0.7,0.3-1.3,0.7-1.8c0.5-0.7,0.8-1.6,0.8-2.5L168.1,129.5L168.1,129.5z"/>
		<path class="st3" d="M179.1,100c-0.1-0.5-0.2-0.9-0.3-1.4c-0.3-2-1-3.9-2.2-5.5c-0.5-0.5-1-1.1-1.5-1.5l-0.1-0.1v-0.2
			c0.1-0.6,0.5-1.1,0.9-1.4c0.3-0.2,0.5-0.5,0.6-0.8V89l0.1-0.1c0.2-0.1,0.4-0.2,0.6-0.2c0.2,0,0.4,0.1,0.6,0.1
			c0.1,0,0.2,0.1,0.3,0.1c0,0,0.1,0,0.1-0.1c0.1-0.1,0.1-0.3,0.1-0.4c0,0,0-0.1-0.2-0.2c-0.3-0.1-0.6-0.1-0.9-0.1H177
			c-0.8,0.1-1.6-0.3-1.9-1v-0.1V87c0.3-2.1,1.9-2.7,3.7-2.9c0.2-0.7,0.2-1.5,0.2-2.2c0-0.3,0-0.7,0-1s0.1-1.3,1.1-1.5l0.3-0.1v0.3
			c0.1,0.9,0.2,1.9,0.2,2.8c0.3,2.5,0.4,5.1,0.3,7.7c-0.2,2.3-0.5,4.6-0.8,6.8c-0.1,1-0.2,2-0.4,3l-0.2,1.6L179.1,100z"/>
		<path class="st3" d="M180,79.6c0.2,3.5,0.9,6.9,0.5,10.4c-0.3,3.3-0.8,6.6-1.1,9.8c-0.6-2.4-0.9-5-2.6-7c-0.5-0.6-1-1.1-1.5-1.6
			c0.2-1,1.3-1.4,1.5-2.2c0.1-0.1,0.2-0.1,0.4-0.2c0.3,0,0.6,0.2,0.9,0.2c0.1,0,0.3-0.1,0.4-0.2c0.2-0.5,0.2-0.9-0.3-1.1
			c-0.3-0.1-0.7-0.2-1-0.1H177c-0.7,0.1-1.3-0.2-1.7-0.8c0.3-2.1,1.9-2.5,3.6-2.7c0.2-1.1,0.3-2.3,0.2-3.5
			C179.2,80.3,179.3,79.8,180,79.6 M180.6,78.9l-0.6,0.1c-0.9,0.1-1.5,0.9-1.4,1.8c0,0.3,0,0.7,0,1c0,0.6,0,1.3-0.1,1.9
			c-1.3,0.2-3.4,0.7-3.7,3.2v0.2l0.1,0.2c0.4,0.7,1.2,1.2,2,1.1c-0.1,0-0.3,0.1-0.4,0.2l-0.1,0.1l-0.1,0.2c-0.1,0.3-0.3,0.5-0.5,0.7
			c-0.5,0.4-0.9,1-1,1.6l-0.1,0.3l0.3,0.2c0.5,0.5,1,1,1.4,1.5c1.2,1.6,1.9,3.5,2.2,5.4c0.1,0.5,0.2,0.9,0.3,1.4l0.8,3.2l0.3-3.2
			c0.1-1,0.2-2,0.4-3c0.3-2.2,0.6-4.6,0.8-6.8c0.2-2.6,0.1-5.2-0.2-7.7c-0.1-0.9-0.2-1.9-0.3-2.8L180.6,78.9L180.6,78.9z M178,88.5
			L178,88.5l-0.2-0.1C177.8,88.5,177.9,88.5,178,88.5L178,88.5L178,88.5L178,88.5z"/>
		<path class="st3" d="M179.2,74.2c-1-0.2-1.8-0.7-2.3-1.6l-0.3-0.4l-0.1-0.1V72c0-0.3,0-0.5,0.1-0.8c0.1-0.9,0.1-1.9-0.2-2.8
			c-0.3-0.4-0.7-0.6-1.1-0.8c-0.8-0.4-1.7-1-1.6-2.2l0,0l0,0c0.3-0.5,0.7-0.9,1.2-1.1c0.4-0.2,0.7-0.3,0.8-0.6l0.1-0.2l0.2,0.1
			c0.5,0,1,0.4,1.1,0.9l2.4,10L179.2,74.2z"/>
		<path class="st3" d="M176,63.7c0.4,0.1,0.8,0.2,0.9,0.7c0.8,3.2,1.6,6.4,2.3,9.6c-1.2-0.1-1.7-1.1-2.4-1.9
			c0.2-1.2,0.1-2.5-0.1-3.7c-0.8-1.2-2.8-1.2-2.8-2.9C174.4,64.4,175.6,64.5,176,63.7 M175.7,62.9l-0.2,0.5
			c-0.1,0.2-0.3,0.3-0.7,0.5c-0.6,0.2-1.1,0.7-1.4,1.3v0.1v0.1c0,1.1,0.7,2.1,1.8,2.5c0.4,0.2,0.7,0.4,1,0.8
			c0.2,0.8,0.3,1.7,0.1,2.6c0,0.3,0,0.5-0.1,0.8v0.2l0.1,0.2c0.1,0.1,0.2,0.3,0.3,0.4c0.5,0.9,1.4,1.6,2.5,1.7l0.9,0.1l-0.2-0.8
			l-0.6-2.3c-0.6-2.4-1.2-4.8-1.8-7.3c-0.2-0.6-0.7-1-1.3-1.1L175.7,62.9L175.7,62.9z"/>
		<path class="st3" d="M37.8,40.9v-0.1c-0.3-0.9-0.3-1.9-0.1-2.8v-0.1v-0.1c0.3-0.4,0.7-0.6,1.1-0.6c0.1,0,0.2,0,0.3,0
			c0.2,0,0.4,0.1,0.7,0.1c1.2-0.1,2.3-0.8,2.9-1.9l0.1-0.2c0.7-1.1,1.7-2,2.9-2.4c0.3-0.1,0.6-0.3,0.7-0.6c0-0.4-0.1-0.8-0.5-1
			c-0.9-0.9-0.9-0.9-0.8-2.4v-0.2l0.2-0.1c1.5-0.7,2.9-1.5,4.1-2.5c0.7-0.5,1.4-1,2.1-1.5l0.1-0.1h0.1c0.6,0.1,1.2,0.3,1.8,0.5
			c0.7,0.3,1.4,0.5,2.2,0.5l0,0c0.1,0,0.2,0,0.3,0h0.4l-0.1,0.4c0,0.3,0,0.7,0.1,1c0.1,0.4,0.2,0.8,0.2,1.1v0.3h-0.3
			c-1.5,0.1-3,0.5-4.4,1.1c-0.6,0.2-1.2,0.5-1.9,0.7l-1.3,1.1v4.2l-0.1,0.1l0.2,0.1v0.2c0.2,1.3-0.9,1.8-1.5,2.1l-1.9,0.9
			c-2,1-4,1.9-6.1,2.6h-0.1L37.8,40.9z"/>
		<path class="st3" d="M51.7,24.6c1.4,0.2,2.6,1,4.1,1c0.1,0,0.2,0,0.4,0c-0.2,0.7,0.3,1.4,0.3,2.3c-2.3,0-4.3,1.1-6.5,1.8L48.5,31
			c0,1.6,0,2.9,0,4.2c-0.3,0.2-0.2,0.4,0.1,0.5c0.1,1-0.6,1.4-1.3,1.8c-2.6,1.4-5.3,2.5-8,3.5L38,40.7c-0.2-0.9-0.2-1.8,0-2.7
			c0.2-0.3,0.5-0.4,0.9-0.5c0.1,0,0.2,0,0.3,0c0.2,0.1,0.5,0.1,0.7,0.1c1.3-0.1,2.5-0.8,3.2-2c0.6-1.1,1.6-2,2.8-2.5
			c1.1-0.4,1.2-1.4,0.4-2.2s-0.8-0.8-0.8-2.2C47.8,27.8,49.6,26.1,51.7,24.6 M51.6,24l-0.2,0.1c-0.7,0.5-1.4,1-2.1,1.5
			c-1.2,1-2.6,1.9-4,2.5l-0.4,0.1v0.4c-0.1,1.5,0,1.7,0.9,2.6c0.2,0.2,0.4,0.5,0.4,0.8c-0.1,0.2-0.3,0.4-0.5,0.4
			c-1.3,0.5-2.3,1.4-3,2.5l-0.1,0.2c-0.6,1-1.6,1.7-2.7,1.8c-0.2,0-0.4,0-0.6-0.1c-0.1,0-0.3,0-0.4,0c-0.5,0-1,0.3-1.4,0.7l-0.1,0.1
			v0.2c-0.2,1-0.2,2,0.1,3l0.1,0.3l0.3,0.1l1.2,0.3h0.1l0.2,0.1l0.2-0.1c2.1-0.7,4.1-1.6,6.1-2.6c0.6-0.3,1.3-0.6,1.9-0.9
			c1.1-0.3,1.8-1.3,1.7-2.4v-0.3l0,0v-0.1v-2.4v-1.6l1-0.9l0.1-0.1c0.6-0.2,1.2-0.4,1.8-0.6c1.4-0.6,2.8-1,4.3-1.1h0.6v-0.6
			c0-0.4-0.1-0.8-0.2-1.2c-0.1-0.3-0.2-0.6-0.1-0.9L57,25l-0.9,0.1h-0.3c-0.7,0-1.4-0.2-2.1-0.5c-0.6-0.3-1.2-0.4-1.9-0.5L51.6,24
			L51.6,24z"/>
		<path class="st2" d="M25.1,130.3c-0.2,0.6-1,0.2-1.1,1.2c0,0.3,1.1,0.4,0.4,1.3c-1.8,0.9-3.9,0.9-6,0.8l-0.1,0.4
			c0.1,0.6,0.4,1.1,1.1,1c1.2-0.2,1.8,0.5,2.4,1.6c0.8-1,2.2-1.1,3.2-0.3c0.1,0.1,0.1,0.1,0.2,0.2c-0.5,1.7-1.2,3.1-3.2,3.2
			c0.2,0.3,0.3,0.6,0.4,0.6c2.7-0.1,4.1,2.2,6.3,3.1c0.1,0,0,0.3,0.1,0.4c-0.6,0.2-1.5-0.4-1.9,0.8c1.9,0.2,2.9,1.5,3.7,2.8
			c1.9,3.1,4.7,5.1,7.7,7.1c4.8,3.4,9.8,6.6,13.9,10.8c1.3,1.3,2.7,2.9,4.5,3.6c5,1.7,9.7,3.9,14.9,4.9c6.1,1.1,12.2,2.7,18.5,2.3
			c1.7-0.1,3.4,0,5.1,0c1.1,0.1,2.3,0.1,3.4-0.1c4.9-1.2,9.9-2.5,14.8-3.9c4.4-1.3,8.8-2.8,13.2-3.8c1.8-0.3,3.2-1.3,4.8-2
			c0-0.7,0.4-1,1.1-0.9c0.3-0.6,0.9-0.5,1.4-0.6c0.5-1.4,1.8-1.6,3-1.8l0,0c0.8-1.1,2.1-1.8,3.4-1.9l0.4-0.1
			c0.4-1.8,2.1-2.5,3.2-3.6c1.8-1.6,3.6-3.1,5.6-4.5c0.3-0.3,0.7-0.4,1.1-0.4l0.4-1c-1.4,0.3-2.5-0.7-3.7-1
			c-2.4,1.1-2.7,3.7-4.1,5.4c-2.3,0.6-4.5,1.7-7,0.5l-1.2,4c-0.9,0.9-2,0.3-2.9,0.7c-1.5,0.9-1.4,2.8-2.5,4.1
			c-1.1-0.3-1.8-1.3-3-1.4c-0.9,0.3-1.2,2-2.9,1.1c-0.5-0.4,0.1-1.3-0.5-1.9c-0.2-0.1-0.4-0.2-0.6-0.2c-2.7-0.3-5.3,0.8-6.9,3
			c-1.3,1.8-3.1,3.2-5.7,3.1c-0.7,0-1.4,0.2-2.1,0.6c-1.3,0.6-2.7,1.2-3.9,1.9c-1.4,1-3.4,1-4.8,0c-1.7-1.2-4-1.5-6-0.8
			c-0.5,0.2-1.1,0.2-1.7,0.1c-2-0.2-3.7,0.1-4.7,2.1c-0.6,1.3-2.3,0.5-3.1,1.8c-0.9-1.3-0.2-2.6-0.8-3.8c-1.5,1.2-3.6,0.4-5.2,1.6
			c-0.9,0.6-2.3-0.4-3.5-0.7c-2-0.6-4-1.5-6.3-1.1c-0.2-1.8-3.2-2.7-1.3-5c-1.5-1-1.3,0.6-2,0.9c-0.9,0.2-1.9,0.1-2.8-0.1
			c-1.5-2.3-5.5-3.9-8.8-3.3c0.2-1.2,0.2-2.5-1.1-3.2c-2.2,0.4-2.1,0.4-2.5-1.8c-0.2-0.9-0.4-1.7-0.7-2.6c-0.5-0.7-1.8-0.8-1.8-2
			l0,0c0.1-0.7-0.3-1-1-0.9c-0.1,0-0.3,0-0.4-0.1c-2.2-1-2.8-3.1-3.2-5c-0.8-3.9-3.2-6.2-6.7-7.8c-0.4-0.2-0.7-0.4-1.1-0.5
			c-1.3-2.8-5.1-6.9-3.4-6.6c-0.5-0.9-1.2-1.6-2.1-2L25.1,130.3z M23.5,119.7L23.5,119.7z"/>
		<path class="st2" d="M133.1,16.8c0.9-0.4,1.7,0.5,2.6,0.3c2,0.4,3.1,1.9,4.6,3c3.7,2.8,7.4,5.7,11,8.6c3,2.4,8.6,7.6,8.6,7.6l0,0
			l1,0.9l1,1l0.7,0.7l0.8,1.3c0,0.2,0,0.3,0,0.5c-0.7,0.1-1.3-0.1-1.8-0.6c-2.8-2.8-6-5.2-8.8-7.9c-3.4-3.2-7.2-6-11.2-8.3
			c-2.7-1.6-5.5-3.1-7.6-5.6C133.6,17.9,133.2,17.4,133.1,16.8z"/>
		<path class="st3" d="M83.2,175c-0.5-0.7-0.7-1.6-0.6-2.5c0-0.3,0-0.5,0-0.8c-0.7,0.3-1.4,0.4-2.2,0.5c-0.8,0-1.6,0.2-2.3,0.6
			c-0.3,0.2-0.7,0.3-1.1,0.3c-0.7,0-1.4-0.2-2-0.6c-0.3-0.1-0.6-0.3-0.9-0.4c-0.4-0.1-0.9-0.3-1.3-0.4c-1.2-0.5-2.4-0.7-3.7-0.8
			c-0.3,0-0.7,0-1,0.1l-0.6,0.1l-0.1-0.6c-0.2-0.5-0.4-1-0.9-1.4c-0.7-0.7-1.1-1.6-1-2.6c-0.1,0.2-0.3,0.3-0.5,0.4H65h-0.1
			c-0.5,0.1-0.9,0.1-1.4,0.1c-0.6,0-1.1-0.1-1.6-0.2l-0.2-0.1l-0.1-0.2c-1.2-1.8-4.1-3.2-6.9-3.2c-0.4,0-0.9,0-1.3,0.1l-0.8,0.1
			l0.2-0.9c0.2-1.3,0.1-2-0.6-2.4c-0.4,0.1-0.9,0.1-1.3,0.1c-1.3,0-1.5-0.9-1.7-2.4c-0.1-0.6-0.3-1.2-0.4-1.8
			c-0.1-0.2-0.1-0.5-0.2-0.8c-0.2-0.1-0.3-0.3-0.5-0.4c-0.8-0.3-1.3-1.1-1.3-1.9v-0.5L47,153c0.3-0.1,0.7-0.1,1-0.1
			c1.6,0.1,3.1,0.6,4.4,1.4l2.1,1.1c6.7,3.3,13.7,6.8,21,9.2c3.5,1.2,7.2,2,10.9,2.2c2.2,0.1,4.4,0.3,6.6,0.7
			c0.8,0.2,1.7,0.3,2.5,0.3c0.8,0,1.5-0.1,2.3-0.3c1-0.3,2-0.4,3-0.6c0.8-0.1,1.7-0.3,2.5-0.5s1.9-0.4,2.9-0.6
			c3.1-0.5,6.2-1.4,9-2.9c1.7-1,3.5-1.9,5.2-2.9c4.7-2.4,9.2-5.2,13.6-8.2c1.1-0.8,2.2-1.5,3.4-2.3c2.2-1.4,4.3-2.9,6.2-4.7
			c1.9-1.9,3.9-3.8,5.8-5.7c4.4-4.2,8.9-8.6,13.1-13.1c0.2-0.2,0.4-0.4,0.6-0.6c0.7-0.6,1.2-1.3,1.6-2.1c0.4-1.2,1.5-2,2.8-2.1h0.6
			v0.6c0.1,0.7,0.4,1.3,0.8,1.8c0.2,0.3,0.4,0.6,0.6,1l0.1,0.2v0.2c-0.1,0.3-0.1,0.6-0.3,0.9c-0.2,0.5-0.3,0.8-0.2,1.2l0.1,0.2v0.2
			c0,1.2-0.5,2.3-1.3,3.2l-0.2,0.2h-0.2c-1,0.1-1.9,0.3-2.8,0.6c-0.2,1.3-0.8,2.5-1.7,3.4c-0.5,0.6-1,1.1-1.5,1.7
			c-0.9,1-1.8,2.1-2.9,3.1c-2.5,2.4-4.7,5.1-4.1,9.1v0.2l-0.1,0.2c-0.9,1.1-2,2.1-3.2,2.9l-0.1,0.1h-0.1c-0.2,0-0.5,0.1-0.7,0.1
			c-0.8,0-1.5-0.3-2.2-0.6c-0.3-0.1-0.6-0.3-0.9-0.4c-1.1,0.7-1.9,1.8-2.4,3c-0.3,0.8-0.8,1.5-1.3,2.2l-0.1,0.1l-0.2,0.1
			c-0.4,0.1-0.8,0.2-1.2,0.4c-1.2,0.4-2.4,0.7-3.6,0.7c-0.7,0-1.3-0.1-1.9-0.3l-1,3.5l-0.1,0.1c-0.5,0.5-1.3,0.8-2,0.7h-0.3
			c-0.3,0-0.6,0-0.8,0.1c-0.6,0.5-1.1,1.2-1.2,2c-0.2,0.7-0.6,1.4-1,1.9l-0.3,0.3l-0.4-0.1c-0.5-0.2-1-0.4-1.4-0.7
			c-0.4-0.3-0.9-0.5-1.3-0.6c-0.1,0.1-0.3,0.2-0.4,0.4c-0.4,0.6-1,0.9-1.7,1c-0.4,0-0.8-0.1-1.2-0.3c-0.4-0.3-0.6-0.9-0.6-1.4
			c0-0.2,0-0.4-0.1-0.6c-0.1,0-0.1-0.1-0.2-0.1h-0.5c-2.3-0.2-4.6,0.9-6,2.8c-1.7,2.2-3.6,3.3-5.9,3.3H110c-0.6,0-1.1,0.2-1.7,0.5
			l-0.1,0.1l-1.1,0.5c-1,0.4-1.9,0.9-2.8,1.4c-0.8,0.5-1.7,0.8-2.7,0.8c-1,0-1.9-0.3-2.7-0.9c-1-0.7-2.3-1.1-3.5-1.1
			c-0.7,0-1.4,0.1-2,0.4c-0.4,0.1-0.8,0.2-1.2,0.2c-0.3,0-0.5,0-0.8,0c-0.3,0-0.6,0-0.9,0c-1.3-0.2-2.6,0.6-3.2,1.8
			c-0.4,0.7-1.1,1.1-1.9,1.2c-0.6,0.1-1,0.2-1.2,0.6l-0.4,0.8L83.2,175z"/>
		<path class="st3" d="M167.5,121.9c0.1,1.2,0.9,2,1.5,3c-0.1,0.8-0.8,1.5-0.4,2.4c0,1-0.4,2.1-1.1,2.8c-1.1,0.1-2.3,0.4-3.3,0.8
			c-0.1,1.3-0.6,2.5-1.5,3.4c-1.5,1.6-2.8,3.3-4.4,4.8c-2.7,2.6-4.9,5.5-4.2,9.6c-0.9,1.1-1.9,2-3,2.8c-0.2,0-0.4,0.1-0.6,0.1
			c-1.1,0-2.1-0.8-3.2-1.1c-2.4,1.1-2.7,3.7-4.1,5.4c-1.5,0.6-3.1,0.9-4.7,1.1c-0.8,0-1.6-0.2-2.3-0.5l-1.2,4
			c-0.4,0.4-1,0.6-1.6,0.5h-0.3c-0.4,0-0.7,0-1.1,0.2c-1.5,0.9-1.4,2.8-2.5,4.1c-1.1-0.3-1.8-1.3-3-1.4c-0.7,0.2-1,1.4-2,1.4
			c-0.3,0-0.6-0.1-0.9-0.3c-0.5-0.4,0.1-1.3-0.5-1.9c-0.2-0.1-0.4-0.2-0.6-0.2h-0.5c-2.5-0.1-4.9,1-6.4,3c-1.2,1.8-3.2,3-5.4,3.1
			H110c-0.7,0-1.4,0.2-2,0.6c-1.3,0.6-2.7,1.2-3.9,1.9c-0.7,0.5-1.6,0.7-2.4,0.7c-0.9,0-1.7-0.3-2.4-0.8c-1.1-0.8-2.5-1.2-3.8-1.2
			c-0.7,0-1.5,0.1-2.2,0.4c-0.3,0.1-0.7,0.2-1,0.1c-0.2,0-0.5,0-0.7,0s-0.7,0-1,0c-1.6-0.1-3.1,0.7-3.8,2.1
			c-0.6,1.3-2.3,0.5-3.1,1.8c-0.9-1.3-0.2-2.6-0.8-3.8c-1.5,1.2-3.6,0.4-5.2,1.6c-0.2,0.1-0.5,0.2-0.7,0.2c-0.9-0.2-1.9-0.5-2.7-0.9
			c-1.7-0.6-3.4-1.1-5.2-1.2c-0.4,0-0.8,0-1.1,0.1c-0.2-1.8-3.2-2.7-1.3-5c-0.2-0.2-0.5-0.3-0.8-0.3c-0.7,0-0.7,0.9-1.1,1.2
			c-0.4,0.1-0.9,0.1-1.3,0.1c-0.5,0-1-0.1-1.5-0.2c-1.3-2-4.4-3.5-7.4-3.5c-0.5,0-0.9,0-1.4,0.1c0.2-1.2,0.2-2.5-1.1-3.2
			c-0.5,0.1-0.9,0.2-1.4,0.2c-0.8,0-0.9-0.4-1.2-2c-0.2-0.9-0.4-1.7-0.7-2.6c-0.5-0.7-1.8-0.8-1.8-2c0.3,0,0.6-0.1,0.8-0.1
			c1.7,0.2,3.3,0.7,4.7,1.6c7.4,3.7,14.7,7.4,22.7,10c3.6,1.3,7.3,2,11.1,2.3c2.2,0.1,4.4,0.3,6.5,0.7c0.9,0.2,1.7,0.3,2.6,0.3
			c0.8,0,1.6-0.1,2.4-0.3c1.8-0.5,3.7-0.6,5.5-1.1c4.1-1,8.3-1.4,12-3.6c6.4-3.6,13-6.8,19-11.1c3.2-2.3,6.8-4.2,9.7-7
			c6.3-6.2,12.9-12.3,18.9-18.8c1-0.8,1.8-1.8,2.3-3C165.6,122.6,166.5,122,167.5,121.9 M168.6,120.7h-1.2c-1.5,0.1-2.8,1-3.3,2.5
			c-0.3,0.7-0.8,1.4-1.4,1.9c-0.2,0.2-0.4,0.4-0.6,0.7c-4.2,4.5-8.7,8.8-13.1,13.1c-1.9,1.9-3.9,3.8-5.8,5.7c-1.9,1.7-4,3.3-6.1,4.6
			c-1.1,0.7-2.3,1.5-3.4,2.3c-4.3,3-8.9,5.7-13.6,8.1c-1.7,0.9-3.5,1.9-5.3,2.9c-2.7,1.6-5.7,2.2-8.8,2.8c-0.9,0.2-1.9,0.4-2.9,0.6
			c-0.8,0.2-1.6,0.3-2.4,0.5c-1,0.1-2.1,0.3-3.1,0.6c-0.7,0.2-1.4,0.3-2.1,0.3c-0.8,0-1.6-0.1-2.4-0.2c-2.2-0.4-4.4-0.6-6.7-0.7
			c-3.7-0.2-7.3-0.9-10.8-2.2c-7.3-2.4-14.2-5.8-20.9-9.1l-1.6-0.8l-0.5-0.3c-1.4-0.9-3-1.4-4.7-1.5c-0.4,0-0.7,0-1,0.1l-1,0.2v1
			c0,1.1,0.6,2,1.6,2.4l0.3,0.2c0,0.2,0.1,0.4,0.2,0.6c0.2,0.6,0.3,1.1,0.4,1.7l0,0c0.3,1.5,0.6,2.9,2.3,2.9c0.4,0,0.8-0.1,1.1-0.1
			c0.2,0.2,0.3,0.6,0.2,1.7l-0.3,1.7l1.7-0.3c0.4-0.1,0.8-0.1,1.2-0.1c2.5,0,5.3,1.3,6.3,2.9l0.2,0.4l0.4,0.1
			c0.6,0.2,1.2,0.2,1.8,0.2c0.5,0,1,0,1.5-0.1l0,0c0.2,0.7,0.6,1.4,1.1,1.9c0.3,0.3,0.6,0.7,0.7,1.1l0.2,1.2l1.2-0.2
			c0.3-0.1,0.6-0.1,0.9-0.1c1.2,0.1,2.4,0.3,3.5,0.8c0.4,0.1,0.9,0.3,1.3,0.4c0.3,0.1,0.6,0.2,0.9,0.3c0.7,0.3,1.4,0.5,2.2,0.6
			c0.5,0,1-0.1,1.4-0.4c0.6-0.4,1.3-0.5,2.1-0.5c0.5,0,1-0.1,1.5-0.2c-0.1,1,0.2,2,0.8,2.8l1.1,1.5l0.9-1.7c0.1-0.2,0.2-0.2,0.8-0.3
			c1-0.1,1.8-0.7,2.3-1.5c0.5-1,1.6-1.6,2.7-1.5c0.3,0,0.5,0,0.9,0.1s0.6,0,0.8,0c0.5,0,0.9-0.1,1.4-0.2c0.6-0.2,1.2-0.3,1.8-0.3
			c1.1,0,2.2,0.4,3.2,1c0.9,0.6,1.9,1,3,1c1.1,0,2.1-0.3,3-0.9c0.9-0.5,1.8-1,2.7-1.4l1.1-0.5l0.1-0.1c0.4-0.2,0.8-0.4,1.3-0.4h0.4
			c2.4,0,4.5-1.2,6.3-3.6c1.3-1.7,3.3-2.7,5.5-2.6h0.1v0.1c-0.1,0.7,0.2,1.5,0.8,1.9l0.1,0.1h0.1c0.4,0.3,0.9,0.4,1.4,0.4
			c0.9-0.1,1.6-0.5,2.2-1.2l0.1-0.1c0.3,0.1,0.6,0.3,0.9,0.5c0.5,0.3,1,0.6,1.6,0.8l0.8,0.2l0.5-0.6c0.5-0.6,0.9-1.4,1.1-2.1
			c0.2-0.6,0.5-1.2,1-1.6c0.2,0,0.4-0.1,0.5-0.1h0.3c0.9,0.1,1.8-0.3,2.4-0.9l0.2-0.2l0.1-0.3l0.4-1.2l0.5-1.6
			c0.5,0.1,1,0.2,1.5,0.2c1.3-0.1,2.6-0.3,3.8-0.8c0.4-0.1,0.8-0.2,1.2-0.4l0.4-0.1l0.2-0.3c0.5-0.7,1-1.5,1.4-2.3
			c0.4-1,1-1.9,1.9-2.6c0.2,0.1,0.4,0.2,0.6,0.3c0.8,0.4,1.6,0.6,2.4,0.7c0.3,0,0.5,0,0.8-0.1l0.2-0.1l0.2-0.1
			c1.2-0.8,2.3-1.8,3.3-3l0.3-0.4l-0.1-0.5c-0.6-3.7,1.5-6.3,3.9-8.6c1-1,2-2.1,2.9-3.1c0.5-0.6,1-1.2,1.5-1.7
			c0.9-0.9,1.5-2.1,1.8-3.3c0.7-0.3,1.5-0.4,2.3-0.5h0.5l0.3-0.3c0.9-1,1.4-2.2,1.4-3.6v-0.3l-0.1-0.3c-0.1-0.1,0-0.3,0.2-0.7
			c0.1-0.3,0.3-0.7,0.3-1.1l0.1-0.4l-0.2-0.3c-0.2-0.3-0.4-0.7-0.6-1c-0.4-0.4-0.6-1-0.7-1.5L168.6,120.7L168.6,120.7z"/>
		<path class="st3" d="M168.1,127.6c-0.3-0.7-0.2-1.5,0.1-2.1c0.1-0.2,0.1-0.3,0.2-0.4c-0.1-0.2-0.3-0.5-0.4-0.7
			c-0.5-0.7-0.9-1.5-1-2.4c0-0.2,0-0.4,0-0.5c-0.2-1.1,0.4-2.1,1.4-2.5l0.2-0.1l0.2,0.1c0.5,0.3,1,0.4,1.5,0.5
			c0.3,0,0.6-0.1,0.9-0.3c0-0.1,0-0.2-0.2-0.4c-0.2-0.3-0.4-0.6-0.5-0.9v-0.1v-0.1c0.9-2.6,2.2-5,3.9-7.1c0.4-0.6,0.8-1.1,1.2-1.7
			c0.4-0.8,1.1-1.3,2-1.4h0.3h0.4l0.1,0.3c0.2,0.5,0.2,1.1,0.1,1.6l-0.1,0.6l-0.4,0.1c-0.3,0.1-0.5,0.3-0.7,0.8l-1.4,3.5
			c-0.9,2.3-1.9,4.6-2.9,6.9l-0.5,1.3c-0.7,2-1.9,3.9-3.4,5.4l-0.6,0.6L168.1,127.6z"/>
		<path class="st3" d="M177.6,108h0.2c0.1,0.5,0.1,0.9,0,1.4c-0.7,0.1-0.9,0.6-1.1,1.1c-1.4,3.4-2.8,6.9-4.3,10.3
			c-1,2.3-1.8,4.7-3.8,6.5c-0.4-0.9,0.3-1.7,0.4-2.4c-0.6-1-1.4-1.8-1.5-3c0.1-0.9-0.2-2,1-2.4c0.5,0.3,1.2,0.5,1.8,0.6
			c0.5,0,1-0.2,1.4-0.6c0.4-0.9-0.6-1.2-0.6-1.8c0.9-3.3,3.1-5.9,5-8.6C176.5,108.5,176.8,108,177.6,108 M177.6,106.8
			c-1,0.1-2,0.7-2.4,1.6c-0.4,0.6-0.8,1.2-1.2,1.7c-1.8,2.2-3.1,4.7-4,7.3l-0.1,0.2v0.2c0,0.4,0.2,0.8,0.4,1.1l0,0
			c-0.4-0.1-0.9-0.2-1.3-0.4l-0.5-0.2l-0.5,0.2c-1.2,0.5-2,1.7-1.8,3c0,0.1,0,0.3,0,0.4v0.2c0.1,1,0.5,1.9,1.1,2.7l0.3,0.4l-0.1,0.2
			c-0.4,0.8-0.5,1.7-0.1,2.6l0.7,1.5l1.2-1.1c1.6-1.6,2.8-3.5,3.5-5.7l0.5-1.2c1-2.3,2-4.6,2.9-6.9c0.5-1.2,0.9-2.3,1.4-3.5
			c0.1-0.1,0.1-0.3,0.2-0.4l0.9-0.1l0.1-0.8v-0.1c0.2-0.6,0.1-1.3-0.1-1.9l-0.3-0.7l-0.7-0.1L177.6,106.8L177.6,106.8z"/>
		<path class="st3" d="M95.5,169c-0.9,0-1.8-0.1-2.7-0.3c-2.1-0.4-4.3-0.6-6.4-0.7h-0.7c-1.2,0-2.4,0.1-3.7,0.2s-2.7,0.2-4,0.2
			c-1.3,0-2.6-0.1-3.9-0.5c-1.8-0.7-3.4-1.5-5-2.6c-2.9-1.8-6-3.6-9.2-3.6c-2.7,0-3.7-1.6-4.7-3.2c-0.7-1.3-1.7-2.3-2.9-3l-0.5-0.3
			c-1.2-0.7-2.5-1.2-3.9-1.3c-0.2,0-0.5,0-0.7,0.1l-0.5,0.1l-0.2-0.6v-0.2c0-0.1,0-0.2,0-0.3h-0.1h-0.2H46c-0.2,0-0.4,0-0.5-0.1
			h-0.1h-0.1c-2.4-1.1-3.1-3.3-3.6-5.4c-0.8-3.5-2.8-5.8-6.4-7.3c-0.2-0.1-0.4-0.2-0.6-0.3c-0.2-0.1-0.3-0.2-0.5-0.3
			c-2.4-0.9-6.8-6.9-7.5-9.6c-0.2-0.6-0.2-1.3,0.2-1.8l0.5-0.6l0.5,0.6c0.9,1.1,2,2,3.1,2.8h0.1l0,0.1c0.6,0.8,1.4,1.4,2.2,2
			l0.4,0.2v0.3h0.1l0.3,0.1l2.9,1.6c2.3,1.3,4.6,2.7,7,3.9c1.5,0.8,3.3,2.1,2.8,4.8c-0.2,1.5,0.3,3,1.3,4c0.7,0.5,1.4,1,2,1.6
			c0.7,0.6,1.4,1.2,2.2,1.7c0.9,0.5,1.8,1.1,2.7,1.6c1.9,1.3,4,2.4,6.2,3.2c1.4,0.5,2.8,1,4.2,1.4c4.3,1.5,8.7,3,13.1,4.2
			c1.8,0.5,3.5,1,5.3,1.5s3.8,1.1,5.7,1.6c0.5,0.1,1,0.2,1.5,0.2c0.3,0,0.6,0,0.8-0.1l5.7-1.4c3.8-0.9,7.7-1.9,11.5-2.8
			c5.8-1.5,11.1-4.4,16.1-7.3c1-0.6,2-1.1,3-1.7c0.4-0.2,0.8-0.4,1.2-0.6c0.9-0.4,1.7-0.9,2.5-1.5c3.7-3,6.9-6.6,9.3-10.8
			c1-1.9,2.4-3.8,5-4.2c0.7-0.2,1.4-0.5,2-1c0.3-0.2,0.6-0.4,0.8-0.6c3.9-2.3,7.5-5,11-7.8c0.3-0.2,0.5-0.6,0.6-1
			c0.4-2.1,1.1-4.1,1.9-6.1c0.2-0.6,0.4-1.2,0.6-1.7c0.9-2,2.1-3.8,3.8-5.2c0.4-0.4,0.8-0.8,1.1-1.2c1.1-1.3,2.4-2.5,3.8-3.6
			c0.9-0.8,1.6-1.8,2-3c0.2-0.4,0.4-0.9,0.6-1.3c0.1-0.2,0.3-0.6-0.4-1.2c-0.9-0.2-1.7-0.8-2.1-1.7c-0.2-0.3-0.4-0.6-0.6-0.8
			c-0.6-0.6-1-1.2-1.4-1.9c-0.2-0.5-0.5-0.9-0.8-1.3c-0.7-0.8-0.6-1.9,0.1-3.2c0.5-0.7,0.6-1.6,0.2-2.4c-0.2-0.5-0.3-1.1-0.2-1.7
			c0.1-2,0.1-4.1-1-5.9c-0.5-0.9-0.6-2-0.3-3v-0.2l0.1-0.1c0.6-0.5,1.3-0.8,2-0.8c0.2,0,0.4-0.1,0.7-0.1l0,0
			c0.1-0.3,0.2-0.7,0.1-1.1V77v-0.1c-0.2-1.7-0.6-3.4-1.3-5c-0.9-0.7-1.3-1.9-1.1-3c-2.5-2.6-3.4-5.4-2.8-8.5
			c-0.2-3.2-0.2-6.4,0-9.6c-2.3-0.9-4.6-1.9-6.8-3c-2.3-0.6-4.5-1.4-6.5-2.4c-0.9-0.4-1.8-0.8-2.8-1.2c-1.7-0.8-3.2-2.1-4.3-3.6
			l-0.6-0.7c-2-2.3-4.2-4.5-6.5-6.5l-0.2-0.2v-4.3c-2.3-1.3-4.5-2.9-6.4-4.7c-1.1-1-2.3-2-3.5-2.9c-0.9-0.6-1.5-1.6-1.6-2.7
			c-0.1-1-0.6-1.5-1.6-1.9l-0.2-0.1c-0.2-0.1-0.5-0.2-0.7-0.3c-1.4-1.2-3.1-1.8-4.9-1.7c-1.6,0.1-3.1,0.3-4.6,0.7
			c-1.4,0.4-2.7,0.7-4.1,1s-2.9,0.7-4.4,1c-1.1,0.3-2.3,0.4-3.5,0.4c-0.5,0-1,0-1.4,0.1c-1.6,0.1-3.4,0.2-5.3,0.2
			c-1.7,0-3.3-0.1-5-0.3c-0.7,0.7-1.5,1.3-2.4,1.8c-0.8,0.4-1.4,0.9-2.1,1.5c-0.3,0.4-0.5,0.9-0.6,1.4c-0.1,0.7-0.4,1.3-0.8,1.9
			c-0.2,0.3-0.4,0.6-0.4,0.9c-0.3,1-1,1.8-2,2.2c-1.3,0.5-2.6,0.8-4,0.7c-1.4,0-2.8-0.1-4.2-0.3c-1.3-0.2-2.7-0.3-4-0.3
			c-0.6,0-1.1,0-1.7,0.1c-2.5,0.4-4.5,0.6-6.3,0.8c-2.8,0.3-5.6,0.8-8.4,1.6c-1.1,0.3-2.1,0.5-3.2,0.8h-0.1h-0.1
			c-0.3,0-0.6-0.2-0.8-0.5c0-0.1-0.1-0.3-0.1-0.4l0-0.6l0.5-0.1c0.6-0.2,1.3-0.4,1.9-0.7c1.3-0.6,2.7-0.9,4.1-1.1
			c0-0.1-0.1-0.2-0.1-0.3c-0.2-0.4-0.2-0.9-0.2-1.4c-0.2-1,0.4-1.9,1.3-2.2l0.2-0.1c-0.4-0.3-0.7-0.7-0.9-1.1
			c-0.2-0.7,0-1.5,0.4-2.1l0.3-0.4l0.5,0.2c0.3,0.1,0.7,0.3,1,0.4c1,0.5,2.1,0.8,3.2,1c0.3-0.2,0.5-0.4,0.7-0.6
			c0.3-0.3,0.7-0.6,1.1-0.8c0.1-1.2,0.2-2.5,1.1-3.1c0.6-0.4,1.2-0.6,1.9-0.6c0.7,0,1.5,0.2,2.2,0.5c0.5,0.2,1,0.4,1.5,0.4
			c0.1,0,0.2,0,0.2,0c0-0.2,0-0.4-0.1-0.6c-0.3-0.5-0.3-1.1,0-1.7v-0.1h0.1c0.6-0.6,1.5-1,2.4-0.9c0.6,0,1.2,0.1,1.8,0.2l0.3,0.1
			c0.1-0.4,0-0.9-0.2-1.3c-0.4-0.7-0.3-1.6,0.1-2.3l0.2-0.2H75h0.4c0.8,0,1.6,0.1,2.4,0.4c0.7,0.2,1.4,0.3,2.1,0.3
			c-0.8-0.3-1.3-1.1-1.2-1.9V8.4l0.5-0.1C80.7,7.8,82.2,7,83.5,6c0.6-0.4,1.2-0.9,1.9-1.3s0.7-0.6,0.6-0.9l-0.1-0.5l0.5-0.2
			c1.5-0.5,3-0.9,4.5-1.2l1.4-0.3c1.1-0.6,2.3-0.9,3.5-0.9c0.8,0,1.6,0.1,2.4,0.4c0.5,0.1,1,0.2,1.5,0.2h1.2
			c0.9-0.1,1.9,0.2,2.7,0.6h1.6h0.6c3.2-0.1,6.4,0.8,9.2,2.5c0.3,0.2,0.5,0.4,0.6,0.7l0,0l2,0.7c3,1,5.9,2,8.2,4.4
			c0.6,0.5,1.4,1,2.1,1.5c1.8,1.1,3.5,2.5,4.8,4.1l0.3,0.1c0.1,0,0.2,0.1,0.4,0.1l0.3,0.2v0.3c0.1,0.3,0.2,0.6,0.5,0.9l0.2,0.2
			c1.8,1.9,3.8,3.5,6.1,4.7l1.3,0.8c4.1,2.4,7.9,5.2,11.4,8.4c1.2,1.2,2.6,2.3,3.9,3.4c1.7,1.4,3.4,2.9,5,4.5c0.3,0.3,0.6,0.4,1,0.4
			h0.5l1.2,0.7l0.6,0.7v0.2c0,0.1,0,0.3,0,0.4c0,0.8,0.1,2.2-1.5,2.6c-0.1,0.2-0.2,0.4-0.3,0.5c1.8,1.1,3.4,2.5,4.6,4.2l0.6,0.6
			c0.7,0.6,1.4,1.2,2.2,1.6c1.6,0.7,2.2,2.2,2.6,3.5l0.2,0.7c0.9,2.5,1.9,5.2,2.6,7.8l0.1,0.2l-0.1,0.2c-0.3,0.5-0.7,0.9-1.2,1.1
			c-0.3,0.1-0.6,0.3-0.8,0.5c0,0.6,0.4,0.8,1.2,1.3c0.6,0.3,1.1,0.7,1.5,1.2v0.1v0.1c0.3,1,0.4,2.1,0.2,3.2c0,0.2,0,0.4,0,0.6
			l0.2,0.3c0.6,0.7,0.9,1.2,1.6,1.2l0.5,0.1l0.1,1.9l-1.1,0.3c0.4,0.5,0.6,1.2,0.5,1.8c0,0.2,0,0.4,0,0.6c0.2,0.1,0.3,0.1,0.5,0.1
			h0.2l0.5,0.1v1.9l-0.5,0.1c-0.2,0-0.3,0-0.4,0.7c0,0.3,0,0.6,0,1c0.1,0.9,0,1.8-0.3,2.7l-0.1,0.4H179c-1.7,0.2-2.8,0.6-3.1,2
			c0.2,0.3,0.5,0.3,1,0.3h0.2c0.4,0,0.8,0,1.2,0.2c0.3,0.1,0.6,0.4,0.7,0.7c0.1,0.4,0.1,0.8-0.1,1.2v0.1v0.1
			c-0.2,0.2-0.5,0.4-0.8,0.4c-0.2,0-0.4-0.1-0.6-0.1l-0.2-0.1c-0.2,0.3-0.4,0.6-0.7,0.9c-0.2,0.2-0.4,0.4-0.6,0.7
			c0.5,0.4,0.9,0.9,1.3,1.4c1.3,1.7,2.1,3.8,2.4,5.9c0.1,0.4,0.2,0.9,0.3,1.3v0.2l-0.1,0.2c-0.3,0.8-0.5,1.6-0.5,2.5
			c0,0.8-0.1,1.5-0.3,2.3c-0.1,0.5-0.2,1-0.4,1.5c-0.1,0.6-0.2,1.2-0.4,1.7l-0.1,0.5l-0.5-0.1h-0.1c-0.4,0-0.6,0.2-1,0.8
			s-0.8,1.2-1.2,1.8c-1.6,2-2.8,4.2-3.7,6.6c0,0.1,0.1,0.1,0.2,0.2c0.5,0.4,0.6,1.1,0.4,1.8l-0.1,0.1l-0.1,0.1
			c-0.5,0.5-1.1,0.8-1.8,0.8c-0.6,0-1.3-0.2-1.8-0.5c-0.3,0.2-0.4,0.5-0.4,1.3c0,0.2,0,0.3,0,0.5v0.5h-0.5c-0.8,0-1.4,0.5-1.6,1.3
			c-0.4,1-1.1,1.9-1.9,2.6c-0.2,0.2-0.4,0.4-0.6,0.6c-4.2,4.5-8.8,8.9-13.1,13.1c-1.9,1.9-3.9,3.8-5.8,5.6c-2,1.8-4.1,3.4-6.4,4.8
			c-1.1,0.7-2.2,1.4-3.3,2.2c-4.4,3.1-9,5.8-13.8,8.3c-1.8,1-3.5,1.9-5.2,2.9c-2.9,1.5-6.1,2.5-9.4,3c-1,0.2-1.9,0.4-2.8,0.6
			s-1.7,0.3-2.6,0.5c-1,0.1-1.9,0.3-2.9,0.6C97.2,168.9,96.3,169,95.5,169z"/>
		<path class="st3" d="M95.9,1.4c0.8,0,1.5,0.1,2.2,0.4C98.7,1.9,99.2,2,99.8,2h1.2c0.9-0.1,1.8,0.1,2.5,0.6h2.4
			c3.1-0.1,6.2,0.8,8.9,2.4c0.2,0.2,0.3,0.5,0.5,0.8l2.2,0.7c2.9,0.9,5.8,2,8,4.2c2.3,1.8,5.1,3.1,6.8,5.5c0.2,0.2,0.6,0.3,0.8,0.4
			c0.1,0.5,0.4,1,0.9,1.4c2,2.5,4.9,3.9,7.6,5.6c4,2.4,7.8,5.1,11.2,8.3c2.9,2.7,6.1,5.1,8.8,7.9c0.4,0.4,0.9,0.6,1.5,0.6h0.3
			l0.9,0.6l0.4,0.4c0,1.1,0.3,2.3-1.4,2.4c-0.1,0.5-0.4,0.9-0.8,1.2c2,1,3.8,2.6,5.1,4.4c0.9,0.9,1.9,1.7,3,2.3
			c1.5,0.7,1.9,2,2.4,3.4c1,2.7,2,5.5,2.8,8.2c-0.4,0.9-1.6,0.7-2.1,1.7c-0.1,1.8,2,1.8,2.8,2.9c0.3,1.2,0.3,2.5,0.1,3.7
			c0.7,0.8,1.2,1.8,2.4,1.9v0.9l-2.2,0.7c2.1,0.1,1.4,1.9,1.7,2.8c0.3,0.3,0.8,0.4,1.2,0.4v0.9c-0.7,0.1-0.8,0.6-0.9,1.2
			c0.1,1.2,0,2.3-0.2,3.5c-1.7,0.2-3.3,0.6-3.6,2.7c0.3,0.6,1,0.9,1.7,0.8h0.2c0.3,0,0.7,0,1,0.1c0.4,0.2,0.5,0.6,0.3,1.1
			c-0.1,0.1-0.2,0.2-0.4,0.2c-0.3,0-0.6-0.2-0.9-0.2c-0.1,0-0.3,0.1-0.4,0.2c-0.2,0.8-1.4,1.2-1.5,2.2c0.5,0.5,1.1,1,1.5,1.6
			c1.7,2.1,2,4.6,2.6,7c-0.8,1.5-0.3,3.3-0.8,4.9c-0.3,1-0.4,2.2-0.8,3.2h-0.2c-0.7,0-1.1,0.6-1.5,1.1c-1.9,2.8-4.1,5.3-5,8.6
			c0,0.6,1,0.9,0.6,1.8c-0.4,0.4-0.9,0.6-1.4,0.6c-0.6,0-1.3-0.2-1.8-0.6c-1.2,0.4-1,1.5-1,2.4c-1,0-1.9,0.7-2.2,1.7
			c-0.5,1.2-1.3,2.2-2.3,3c-6.1,6.5-12.6,12.5-18.9,18.8c-2.9,2.8-6.4,4.7-9.7,7c-6,4.3-12.6,7.5-19,11.1c-3.8,2.1-8,2.6-12,3.6
			c-1.8,0.4-3.7,0.6-5.5,1.1c-0.8,0.2-1.6,0.3-2.4,0.3c-0.9,0-1.7-0.1-2.6-0.3c-2.1-0.4-4.3-0.6-6.5-0.7h-0.7
			c-2.4,0-5.2,0.5-7.7,0.5c-1.2,0-2.5-0.1-3.7-0.5c-4.1-1.3-9-6.1-14.3-6.1h-0.1c-4,0-3.7-4.3-7.2-6.1c-1.4-0.9-3-1.4-4.7-1.6
			c-0.3,0-0.6,0-0.8,0.1l0,0c0.1-0.6-0.2-0.9-0.7-0.9h-0.3c-0.1,0-0.3,0-0.4-0.1c-2.2-1-2.8-3.1-3.2-5c-0.8-3.9-3.2-6.2-6.7-7.8
			c-0.4-0.2-0.7-0.4-1.1-0.5c-2.6-1-8.3-9-7-10.5c1,1.1,2.1,2.1,3.3,2.9c0.7,0.8,1.5,1.5,2.4,2.2c0,0.4,0.1,0.6,0.5,0.6H34
			c3.3,1.9,6.5,3.8,9.8,5.6c1.7,0.9,2.9,2.1,2.5,4.1c-0.2,1.7,0.3,3.3,1.5,4.5c1.6,1,2.8,2.5,4.4,3.4c3,1.6,5.7,3.7,8.9,4.8
			c5.8,1.9,11.5,4,17.3,5.7c3.7,1,7.3,2.1,11,3.2c0.5,0.1,1,0.2,1.6,0.3c0.3,0,0.7,0,1-0.1c5.7-1.4,11.4-2.8,17.2-4.2
			c7-1.8,13-5.6,19.2-9c1.3-0.6,2.6-1.3,3.8-2.2c3.8-3,7-6.7,9.4-10.9c1-1.9,2.2-3.5,4.6-3.9c1.1-0.4,2.2-0.9,3.1-1.7
			c3.9-2.4,7.6-5,11.1-7.9c0.4-0.3,0.7-0.9,0.8-1.4c0.6-2.6,1.4-5.2,2.5-7.7c0.9-2.5,3-4.3,4.8-6.2c1.1-1.3,2.3-2.5,3.7-3.5
			c1.6-1.2,2-3,2.8-4.6c0.4-0.8,0-1.7-0.7-2.1c-1.5,0-1.6-1.6-2.5-2.3s-1.3-2.2-2.1-3.2c-0.5-0.8-0.4-1.8,0.1-2.5
			c0.6-0.9,0.7-2,0.3-3c-0.2-0.5-0.2-0.9-0.2-1.4c0.1-2.2,0.1-4.3-1-6.2c-0.4-0.8-0.5-1.7-0.2-2.5c0.8-0.8,1.9-0.6,2.8-1
			c0.2-0.6,0.3-1.2,0.1-1.8c-0.2-1.8-0.7-3.6-1.5-5.2c-0.9-0.6-1.3-1.8-0.9-2.8c-2.4-2.3-3.6-5-2.8-8.3c-0.3-3.4-0.2-6.7,0.1-10.1
			c-2.5-0.9-4.9-2-7.2-3.2c-3.3-0.7-6.2-2.4-9.3-3.6c-2-0.8-3.3-2.6-4.7-4.2c-2.1-2.3-4.4-4.4-6.8-6.3c0-1.4,0-2.8,0-4.4
			c-4-1.9-6.8-5.2-10.2-7.7c-0.8-0.5-1.3-1.3-1.4-2.2c-0.1-1.4-0.9-2-2-2.4c-0.2-0.1-0.5-0.2-0.7-0.3c-1.5-1.2-3.3-1.9-5.2-1.9
			c-1.6,0.1-3.2,0.3-4.8,0.8c-2.8,0.7-5.7,1.3-8.5,2c-1.6,0.3-3.2,0.4-4.8,0.4c-1.7,0.1-3.5,0.2-5.3,0.2c-1.8,0-3.5-0.1-5.2-0.4
			c-1,1.5-3.4,2.1-4.8,3.6c-0.8,0.9-0.7,2.4-1.5,3.3s-0.3,2.1-2.2,2.9c-1.2,0.5-2.5,0.7-3.8,0.7c-2.6,0-5.5-0.6-8.1-0.6
			c-0.6,0-1.2,0-1.8,0.1c-2.1,0.3-4.2,0.6-6.2,0.8c-4,0.3-7.8,1.5-11.7,2.4l0,0c0,0-0.2-0.1-0.2-0.1c0-0.1,0-0.3,0-0.4
			c2.2-0.6,4.2-1.8,6.5-1.8c0-0.9-0.5-1.5-0.3-2.3l0,0c-0.5-1.5,1.3-1.5,1.9-2.5c-1.4-0.6-1.9-1.5-1-2.9c1.4,0.7,3,1.2,4.6,1.5
			c0.8-0.4,1.4-1.3,2.3-1.6c0.1-1.3,0.2-2.5,0.9-3.1c0.5-0.3,1-0.5,1.6-0.5c1.3,0,2.4,0.9,3.6,0.9c0.2,0,0.4,0,0.7-0.1
			c0.6-0.9-0.5-1.6,0-2.4c0.5-0.5,1.3-0.8,2-0.8c0.8,0.1,1.6,0.2,2.4,0.4c1-1.4-0.8-2.7,0.1-3.9h0.4c1.6,0,3.1,0.7,4.8,0.7
			c0.6,0,1.1-0.1,1.7-0.3c-1-0.9-2.5-0.6-2.5-2.3c2.4-0.6,4.3-2.4,6.4-3.6c0.6-0.4,1-0.8,0.8-1.5c2-0.6,4-1.1,6-1.4
			C93.6,1.7,94.8,1.4,95.9,1.4 M95.9,0.2L95.9,0.2c-1.3,0-2.6,0.4-3.7,1l-1.3,0.3c-1.6,0.3-3.1,0.7-4.6,1.1l-1,0.4L85.4,4
			c-0.1,0.1-0.2,0.1-0.3,0.2c-0.7,0.4-1.3,0.8-1.9,1.3c-1.2,1-2.6,1.7-4.1,2.2l-0.9,0.2v1c0,0.3,0.1,0.7,0.2,1L78,9.9
			c-0.8-0.2-1.7-0.3-2.6-0.4H75h-0.6L74.1,10c-0.5,0.9-0.6,2-0.1,2.9c0,0.1,0.1,0.2,0.1,0.3c-0.5-0.1-1-0.2-1.5-0.2
			c-1.1,0-2.1,0.4-2.8,1.1l-0.1,0.1l-0.1,0.1c-0.3,0.6-0.4,1.3-0.2,1.9c-0.2-0.1-0.4-0.2-0.7-0.2c-0.7-0.3-1.5-0.5-2.4-0.6
			c-0.8,0-1.5,0.2-2.2,0.6h-0.1l-0.1,0c-0.9,0.9-1.3,2-1.3,3.2c-0.3,0.2-0.6,0.5-0.9,0.7c-0.2,0.1-0.3,0.3-0.5,0.4
			c-1-0.2-1.9-0.5-2.8-0.9l-1.1-0.4l-0.9-0.4L56,19.6c-0.5,0.8-0.7,1.7-0.5,2.6c0.1,0.3,0.3,0.6,0.5,0.9c-0.9,0.5-1.3,1.5-1.1,2.5
			c0,0.4,0,0.8,0.1,1.2c-1.2,0.2-2.4,0.6-3.5,1.1c-0.6,0.2-1.2,0.5-1.8,0.6l-1,0.3l0.1,1v0.1c0,0.2,0,0.4,0.1,0.6
			c0.2,0.6,0.7,1,1.3,1h0.1h0.2c1.1-0.2,2.2-0.5,3.2-0.8c2.7-0.8,5.5-1.3,8.3-1.6c1.8-0.1,3.8-0.4,6.3-0.8c0.5-0.1,1.1-0.1,1.6-0.1
			c1.3,0,2.6,0.1,3.9,0.3c1.4,0.2,2.8,0.3,4.2,0.4c1.5,0,2.9-0.2,4.3-0.8c1.1-0.4,2-1.4,2.3-2.5c0.1-0.3,0.2-0.5,0.3-0.7
			c0.5-0.6,0.8-1.3,1-2.1c0.1-0.4,0.2-0.8,0.5-1.2c0.6-0.6,1.3-1,2-1.4c0.9-0.4,1.7-1,2.4-1.7c1.6,0.2,3.2,0.3,4.7,0.3
			c1.9,0,3.8-0.1,5.4-0.2c0.5,0,0.9,0,1.4-0.1c1.2,0,2.4-0.1,3.6-0.3c1.4-0.4,2.9-0.7,4.3-1s2.8-0.6,4.1-1c1.5-0.4,3-0.7,4.5-0.7
			c1.6,0,3.3,0.5,4.5,1.6c0.3,0.2,0.5,0.3,0.8,0.4l0.1,0c1,0.4,1.2,0.8,1.2,1.4c0.1,1.3,0.8,2.4,1.9,3.1c1.2,0.9,2.3,1.8,3.5,2.9
			c1.9,1.8,4,3.3,6.2,4.6v1.6v2.6l0.4,0.4c2.3,1.9,4.5,3.9,6.6,6.1l0.6,0.7c1.2,1.6,2.7,2.9,4.5,3.7c0.9,0.4,1.8,0.8,2.7,1.2
			c2.1,1,4.3,1.9,6.6,2.4c2.1,1.1,4.2,2.1,6.4,2.9c-0.2,3.1-0.2,6.1,0,9.2c-0.7,3.2,0.4,6.5,2.7,8.7c-0.2,1.2,0.3,2.4,1.2,3.2
			c0.6,1.5,1,3.1,1.2,4.7V77l0.1,0.2c0,0.1,0,0.2,0,0.3H170c-0.9,0.1-1.7,0.4-2.3,1l-0.3,0.2l-0.1,0.4c-0.3,1.1-0.2,2.4,0.4,3.4
			c1,1.7,0.9,3.7,0.9,5.6c-0.1,0.7,0,1.4,0.3,2c0.3,0.6,0.2,1.3-0.2,1.9c-1.1,1.9-0.6,3.1,0,3.8c0.3,0.4,0.5,0.8,0.8,1.2
			c0.4,0.8,0.9,1.5,1.5,2.1c0.2,0.2,0.4,0.4,0.5,0.7c0.4,1,1.3,1.7,2.4,1.9c0.2,0.2,0.1,0.3,0.1,0.4c-0.2,0.5-0.4,0.9-0.6,1.4
			c-0.3,1.1-1,2.1-1.8,2.8c-1.4,1.1-2.7,2.4-3.9,3.7c-0.4,0.4-0.8,0.8-1.1,1.2c-1.7,1.5-3,3.4-3.9,5.4l-0.6,1.7
			c-0.8,2-1.5,4.1-1.9,6.2c0,0.3-0.2,0.5-0.4,0.7c-3.5,2.9-7.2,5.5-11,7.8c-0.3,0.2-0.6,0.4-0.9,0.6c-0.5,0.4-1.1,0.7-1.8,0.9
			c-2.9,0.5-4.4,2.6-5.5,4.5c-2.3,4.1-5.5,7.7-9.1,10.6c-0.7,0.5-1.5,1-2.3,1.4c-0.4,0.2-0.8,0.4-1.3,0.6c-1,0.5-2,1.1-3,1.7
			c-5.2,3-10.2,5.8-16,7.2c-3.8,1-7.7,1.9-11.4,2.8l-5.8,1.4c-0.2,0-0.5,0.1-0.7,0.1c-0.5,0-0.9-0.1-1.4-0.2
			c-1.9-0.5-3.8-1.1-5.7-1.6s-3.5-1-5.3-1.5c-4.4-1.2-8.8-2.7-13-4.2l-4.2-1.4c-2.1-0.8-4.1-1.8-6-3.1c-0.9-0.5-1.8-1.1-2.7-1.6
			c-0.8-0.5-1.5-1-2.2-1.6c-0.6-0.6-1.3-1.1-2-1.6c-0.9-0.9-1.3-2.2-1.1-3.4c0.5-3-1.5-4.5-3.2-5.4c-2.3-1.3-4.7-2.6-6.9-3.9
			l-2.9-1.7l0,0v-0.3l-0.8-0.3c-0.7-0.5-1.4-1.2-2-1.9l-0.1-0.1l-0.1-0.1c-1.1-0.8-2.1-1.6-3-2.6l-0.9-1.2l-1,1.1
			c-0.5,0.7-0.6,1.5-0.3,2.3c0.7,2.9,5.3,9,7.9,10c0.2,0.1,0.3,0.1,0.4,0.2c0.2,0.1,0.4,0.2,0.6,0.3c3.4,1.4,5.3,3.6,6,6.9
			c0.5,2.2,1.3,4.6,3.9,5.8l0.1,0.1h0.1l0.5,0.1L46,154l0.4,0.9l1-0.1c0.2,0,0.4,0,0.6-0.1c1.3,0.1,2.5,0.5,3.6,1.2l0.5,0.3
			c1.1,0.7,2,1.7,2.5,2.8c1,1.6,2.2,3.4,5.1,3.4h0.1c3,0,6,1.8,8.9,3.5c1.6,1.1,3.3,1.9,5.1,2.6c1.3,0.4,2.6,0.6,4,0.6
			c1.3,0,2.7-0.1,4-0.3s2.5-0.2,3.7-0.2h0.7c2.1,0.1,4.2,0.3,6.3,0.7c0.9,0.2,1.9,0.3,2.8,0.3c0.9,0,1.8-0.1,2.7-0.4
			c0.9-0.2,1.9-0.4,2.8-0.6c0.8-0.1,1.7-0.3,2.6-0.5s1.9-0.4,2.8-0.6c3.4-0.5,6.6-1.6,9.6-3.1c1.7-1,3.5-1.9,5.2-2.9
			c4.8-2.5,9.4-5.2,13.8-8.3c1.1-0.8,2.2-1.5,3.3-2.2c2.3-1.4,4.5-3.1,6.5-4.9c1.9-1.9,3.9-3.8,5.8-5.6c4.4-4.2,8.9-8.6,13.2-13.2
			c0.2-0.2,0.4-0.4,0.6-0.6c0.9-0.8,1.6-1.8,2-2.9c0.2-0.5,0.6-0.8,1.1-0.8h1.1l0.1-1.1c0-0.2,0-0.4,0-0.6s0-0.3,0-0.5
			c0.5,0.2,1.1,0.3,1.6,0.3c0.9,0,1.7-0.4,2.3-1l0.2-0.2l0.1-0.2c0.3-0.8,0.1-1.7-0.4-2.3c0.8-2.2,2-4.3,3.5-6.1
			c0.4-0.6,0.8-1.2,1.2-1.7c0.1-0.2,0.3-0.4,0.5-0.6h0.1l1,0.1l0.3-1c0.2-0.6,0.3-1.2,0.4-1.8s0.2-1,0.3-1.4
			c0.2-0.8,0.3-1.6,0.3-2.4c0-0.8,0.1-1.5,0.4-2.2l0.2-0.4l-0.1-0.4c-0.1-0.4-0.2-0.9-0.3-1.3c-0.3-2.2-1.2-4.4-2.5-6.2
			c-0.3-0.4-0.6-0.7-0.9-1l0.2-0.2c0.2-0.2,0.4-0.4,0.6-0.6c0.2,0.1,0.4,0.1,0.6,0.1c0.5,0,1-0.2,1.3-0.6l0.1-0.1l0.1-0.1
			c0.3-0.5,0.4-1.1,0.2-1.7c-0.2-0.5-0.5-0.9-1-1.1c-0.5-0.2-0.9-0.3-1.4-0.2h-0.6c0.3-0.6,0.9-0.9,2.4-1.1l0.8-0.1l0.2-0.7
			c0.3-0.9,0.4-1.9,0.3-2.9c0-0.3,0-0.6,0-0.9v-0.1l0.8-0.1v-1v-1.9l-1-0.2h-0.3l0,0v-0.1c0-0.5,0-1-0.2-1.5l0.8-0.2v-0.9v-0.5V74
			v-1.1l-1.1-0.1c-0.4,0-0.7-0.3-1.2-1l-0.1-0.1c0-0.1,0-0.2,0-0.3c0.2-1.1,0.1-2.3-0.3-3.4v-0.1l-0.1-0.1c-0.4-0.6-1-1.1-1.7-1.4
			c-0.3-0.1-0.6-0.3-0.8-0.6l0.4-0.2c0.7-0.2,1.2-0.7,1.6-1.4l0.2-0.4l-0.1-0.4c-0.7-2.7-1.7-5.3-2.6-7.9l-0.2-0.5l-0.1-0.2
			c-0.5-1.4-1.1-3.1-3-3.9c-0.8-0.4-1.5-0.9-2.1-1.5c-0.2-0.2-0.4-0.4-0.6-0.5c-1.1-1.5-2.5-2.8-4.1-3.9c1.5-0.7,1.4-2.3,1.4-3
			c0-0.1,0-0.2,0-0.4v-0.5l-0.4-0.3l-0.3-0.2l-0.2-0.2l-0.1-0.1l-0.1-0.1l-0.9-0.6l-0.3-0.2h-0.4h-0.2c-0.2,0-0.5,0-0.6-0.2
			c-1.6-1.6-3.3-3.1-5-4.5c-1.3-1.1-2.6-2.2-3.8-3.4c-3.5-3.2-7.3-6.1-11.4-8.5c-0.4-0.3-0.9-0.5-1.3-0.8c-2.2-1.1-4.3-2.7-6-4.5
			c-0.1-0.1-0.1-0.2-0.2-0.3c-0.1-0.1-0.3-0.3-0.4-0.5l-0.1-0.7l-0.6-0.3l-0.4-0.2h-0.1c-1.3-1.6-3-3-4.8-4.1
			c-0.7-0.5-1.4-1-2.1-1.5c-2.4-2.4-5.3-3.5-8.4-4.5l-0.4-0.1l-1.3-0.4c-0.2-0.3-0.4-0.6-0.7-0.8c-2.8-1.8-6.2-2.7-9.5-2.6h-2
			c-0.9-0.5-1.9-0.8-3-0.7h-1.2c-0.4,0-0.9,0-1.3-0.1C97.6,0.3,96.8,0.2,95.9,0.2L95.9,0.2z"/>
		<path class="st3" d="M26.8,131.8c-0.2,0-0.4,0-0.6,0c-1.1-0.2-2-0.9-2.5-1.9c-0.3,0.5-0.8,0.8-1.4,0.8h-0.3l-0.2-0.2
			c-0.5-0.6-0.9-1.3-1.2-2c-0.4-1-0.8-1.9-1.8-2.3l-0.3-0.1v-0.4c-0.4-1.5,0.5-3,1.9-3.5l-1-0.6l0.4-0.5c0.8-1,1.6-2,3-2v-1.4v-0.1
			c0-0.2,0.1-0.4,0.2-0.6c-0.3,0.1-0.7,0.3-1,0.4c-1,0.6-2.1,0.9-3.3,0.9c-0.5,0-1-0.1-1.5-0.2l-0.5-0.1v-0.5c0-0.3-0.3-0.6-0.7-1
			c-0.3-0.2-0.6-0.5-0.8-0.8l-0.2-0.3l0.1-0.3c0.3-0.6,0.8-1.2,1.4-1.4c0.2-0.1,0.3-0.2,0.5-0.3l0.1-0.1h0.1c0.1,0,0.2,0,0.3,0
			c0.3,0,0.5,0.1,0.8,0.2c-0.1-1.7,0-3.5,0.4-5.2c0.1-0.6,0.2-1.2,0.3-1.7l0,0c-0.2,0.3-0.6,0.5-0.9,0.5c-0.2,0-0.4-0.1-0.6-0.2
			c-1.2-0.6-2.5-0.9-3.9-0.9l-0.8-0.1l-0.7-0.1l0.2-0.7c0.2-0.9,0.9-1.5,1.8-1.6c0.2,0,0.5,0.1,0.7,0.2c0.3,0.2,0.7,0.2,1,0.2
			c0.5,0,1-0.1,1.4-0.3l0.7-0.2c-0.3-0.2-0.6-0.5-0.7-0.8c-0.1-0.8,0-1.7,0.4-2.5c0.4-0.7,0.6-1.6,0.4-2.4c-1.3-0.8-2.3-1.8-3.2-3
			l-0.2-0.3l0.2-0.3c0.3-0.7,0.5-1.5,0.4-2.3c0-0.7,0.1-1.5,0.3-2.2c-0.3-0.2-0.7-0.4-1-0.5c-0.6-0.2-1.1-0.6-1.5-1l0-0.1v-0.1
			c-0.2-0.7,0-1.4,0.5-1.9l0.2-0.2h-0.3c-0.5,0-1-0.3-1.3-0.7l-0.2-0.2l0.1-0.3c0.3-1.5,1.5-2,2.6-2.4c1-0.2,1.8-0.8,2.3-1.7
			c0.1-0.5,0.1-1.1,0.1-1.6c0-1.6-0.1-3.8,2-5.2c-0.4-0.3-0.8-0.5-1.3-0.6h-0.5v-0.6c-0.1-1,0.2-2,0.8-2.7c0.5-0.4,1.1-0.7,1.7-0.6
			c0.3,0,0.6,0,0.8,0.1c0.3,0.1,0.6,0.1,0.9,0.3c0.3,0.1,0.6,0.2,0.9,0.2h0.2l0.3-0.1l0.2,0.2c2.1,2.3,2.3,3.6,0.8,6.2
			c-0.8,1.3-1.6,2.7-2.4,3.9l-0.8,1.2c-1.2,2-2.2,4.2-1.1,6.9c0.2,0.5,0.4,1.1,0.3,1.7c-0.2,3.2,1.6,5.1,3.8,7.3l0.7,0.7l1.6,1.7
			c3.2,3.3,6.6,6.8,8.9,11c1.3,2.3,2.3,5.3-0.8,7.7c-0.6,0.5-1.2,0.9-1.7,1.3c-2,1.4-3.2,2.3-3.9,4.4c-0.2,0.6-0.3,1.2-0.4,1.9v0.2
			c0.2,1.1,0.5,2.2,1,3.2c0.1,0.3,0.3,0.6,0.3,0.8l0.1,0.3l-0.2,0.3C28.7,131.4,27.7,131.8,26.8,131.8L26.8,131.8z"/>
		<path class="st3" d="M19.5,70c0.2,0,0.5,0,0.7,0.1c0.6,0.2,1.2,0.4,1.9,0.5c0.1,0,0.2,0,0.3,0c1.9,2.1,2.1,3.1,0.7,5.5
			c-1,1.7-2,3.4-3.1,5.1c-1.4,2.3-2.3,4.7-1.2,7.4c0.2,0.4,0.3,0.9,0.3,1.4c-0.2,3.8,2.3,6,4.6,8.5c3.7,3.9,7.7,7.7,10.4,12.6
			c1.5,2.7,1.9,5-0.6,6.9c-3.1,2.3-4.9,3-5.8,6c-0.2,0.7-0.3,1.4-0.4,2.1c-0.1,1,1.1,3.4,1.4,4.2c-0.5,0.6-1.2,0.9-2,0.9h-0.5
			c-1.1-0.2-2-1.1-2.3-2.1c-0.8,0-0.8,1.1-1.7,1.1c-1.2-1.3-1.2-3.7-3.2-4.5c-0.3-2.1,1-2.8,2.7-3.3l-1.5-1c0.7-0.9,1.4-1.8,2.5-1.8
			c0.2,0,0.4,0,0.6,0.1c0-0.8,0-1.6,0-2c0.2-1,1.2-0.7,1.3-1.3c0-0.2-0.2-0.4-0.4-0.4h-0.1c-0.9,0.2-1.7,0.5-2.5,0.9
			c-0.9,0.5-1.9,0.8-3,0.8c-0.5,0-0.9-0.1-1.4-0.1c0-1-1.1-1.3-1.7-2.1c0.3-0.9,1.2-1,1.7-1.5h0.2c0.5,0,0.8,0.5,1.5,0.5l0,0
			c-0.7-2.8,0.3-5.6,0.6-8.2c-0.2-0.2-0.4-0.3-0.6-0.3c-0.5,0-0.6,0.7-1,0.7c-0.1,0-0.2,0-0.3-0.1c-1.4-0.9-3.1-0.9-5-1.1
			c0.1-0.6,0.6-1.1,1.2-1.2c0.1,0,0.3,0,0.4,0.1c0.4,0.2,0.8,0.3,1.3,0.3c1.1,0,2.1-0.6,3.1-0.6l0,0c0.2-1.1-0.9-0.7-1.2-1.5
			c-0.4-1.5,1.6-3.1,0.7-5.1c-1.3-0.8-2.3-1.8-3.1-3c0.8-1.5,0.2-3.3,0.9-4.9c-0.9-0.9-2-1-2.7-1.7c-0.3-0.9,0.6-1.3,0.8-1.9
			c-0.2-0.9-1.2-0.3-1.7-1.1c0.5-2.4,3.7-1.4,4.9-4c0.5-1.9-0.9-5.2,2.5-6.9c-0.6-0.7-1.4-1.1-2.2-1.2c0-1.9,0.5-2.8,1.9-2.8
			 M19.4,68.7L19.4,68.7c-0.8,0-1.6,0.3-2.2,0.8c-0.7,0.9-1.1,2-0.9,3.2v1.1l1.1,0.1c0.1,0,0.2,0,0.2,0.1c-1.6,1.6-1.5,3.6-1.5,5.1
			c0,0.5,0,0.9,0,1.4c-0.4,0.7-1,1-1.9,1.3s-2.6,1-3,2.8l-0.1,0.5l0.3,0.4c0.2,0.4,0.6,0.6,1,0.8c-0.4,0.6-0.4,1.3-0.2,1.9l0.1,0.2
			l0.1,0.2c0.5,0.5,1.1,0.9,1.7,1.2c0.2,0.1,0.4,0.2,0.5,0.2c-0.1,0.7-0.1,1.3,0,2c0,0.7-0.1,1.4-0.4,2l-0.3,0.6l0.4,0.6
			c0.8,1.3,1.9,2.3,3.2,3.1c0.1,0.6-0.1,1.3-0.4,1.8c-0.5,0.8-0.6,1.8-0.5,2.8v0.1v0.1c0,0.1,0.1,0.2,0.1,0.3
			c-0.3,0.1-0.7,0.2-1,0.2c-0.3,0-0.5-0.1-0.7-0.2c-0.3-0.1-0.6-0.2-0.9-0.2c-1.2,0.1-2.2,0.9-2.4,2.1l-0.4,1.4l1.4,0.1l0.8,0.1
			c1.3,0,2.5,0.3,3.6,0.8c0.3,0.2,0.6,0.3,0.9,0.3h0.1c0,0.1,0,0.3-0.1,0.4c-0.3,1.5-0.5,2.9-0.5,4.4h-0.1c-0.1,0-0.3,0-0.4,0.1
			l-0.3,0.1l-0.2,0.2c-0.1,0.1-0.2,0.2-0.4,0.2c-0.7,0.4-1.2,1-1.6,1.7l-0.2,0.6l0.4,0.5c0.3,0.3,0.6,0.6,0.9,0.9
			c0.2,0.2,0.5,0.4,0.5,0.6l0,1l0.9,0.2c0.5,0.1,1.1,0.2,1.6,0.2c1.2,0,2.4-0.3,3.5-0.9v0.4c-1.2,0.3-2.3,1.1-2.9,2.2l-0.8,1
			l0.7,0.4c-1.1,0.8-1.7,2.3-1.4,3.6l0.1,0.7l0.7,0.3c0.7,0.3,1,0.9,1.5,2c0.3,0.8,0.7,1.5,1.3,2.2l0.4,0.4h0.5
			c0.5,0,0.9-0.2,1.3-0.4c0.6,0.8,1.5,1.4,2.5,1.5c0.2,0,0.5,0,0.7,0c1.2,0.1,2.3-0.5,3-1.4l0.3-0.5l-0.2-0.6
			c-0.1-0.2-0.2-0.5-0.4-0.8c-0.5-0.9-0.8-1.8-1-2.8v-0.2c0.1-0.6,0.2-1.2,0.3-1.8c0.6-2,1.6-2.7,3.6-4.1c0.5-0.4,1.1-0.8,1.8-1.3
			c3.5-2.7,2.2-6.1,0.9-8.4c-2.3-4.3-5.7-7.8-9-11.2l-1.6-1.7L24,97c-2-2.1-3.8-4-3.6-6.9c0-0.7-0.1-1.3-0.4-1.9
			c-0.8-1.9-0.5-3.7,1.1-6.3l0.8-1.2c0.8-1.3,1.6-2.6,2.4-4c1.6-2.9,1.4-4.4-0.9-6.9l-0.4-0.5l-0.7,0.1h-0.1c-0.2,0-0.5-0.1-0.7-0.2
			c-0.3-0.1-0.7-0.2-1-0.3c-0.3-0.1-0.6-0.1-0.9-0.1L19.4,68.7z"/>
		<path class="st3" d="M179.9,79.4h-0.2c-0.5,0-1-0.2-1.3-0.6l-0.1-0.1v-0.1c-0.1-0.3-0.1-0.7-0.1-1.1c0-0.9,0-1.3-1.1-1.4l-3.2-0.2
			l5.7-1.8l0.2,0.4c0.8,1.3,1.1,2.8,0.9,4.3l-0.1,0.7L179.9,79.4z"/>
		<path class="st3" d="M179.2,74.8c0.7,1.2,1,2.6,0.8,4c-0.4,0-0.9-0.1-1.2-0.4c-0.3-0.9,0.4-2.7-1.7-2.8L179.2,74.8 M179.8,73.4
			l-0.9,0.3l-1.1,0.3l-1.1,0.3l-6.1,1.9l6.4,0.4c0.2,0,0.3,0,0.4,0.1c0.1,0.2,0.1,0.5,0.1,0.7c0,0.4,0.1,0.8,0.2,1.2l0.1,0.3
			l0.2,0.2c0.5,0.4,1.1,0.7,1.7,0.7h0.2l1.3,0.2l0.1-1.3c0.2-1.6-0.2-3.3-1-4.7L179.8,73.4L179.8,73.4z"/>
	</g>
</g>
</svg>
