<?xml version="1.0" encoding="utf-8"?>
<!-- Generator: Adobe Illustrator 23.0.3, SVG Export Plug-In . SVG Version: 6.00 Build 0)  -->
<svg version="1.1" id="Ebene_1" xmlns="http://www.w3.org/2000/svg" xmlns:xlink="http://www.w3.org/1999/xlink" x="0px" y="0px"
	 width="715.9px" height="782.8px" viewBox="0 0 715.9 782.8" style="enable-background:new 0 0 715.9 782.8;" xml:space="preserve"
	>
<style type="text/css">
	.st0{fill:#FFE5B0;}
	.st1{fill:#CCA97A;}
	.st2{fill:#A57F5D;}
	.st3{fill:#EECE94;}
	.st4{fill-rule:evenodd;clip-rule:evenodd;fill:#EECE94;}
	.st5{opacity:0.5;fill-rule:evenodd;clip-rule:evenodd;fill:#EECE94;}
	.st6{opacity:0.5;}
	.st7{fill:none;}
	.st8{opacity:0.85;}
	.st9{fill:#F0D4A0;}
	.st10{opacity:0.3;fill:#FFFFFF;}
	.st11{opacity:0.3;fill:#F0D4A0;}
	.st12{opacity:0.6;}
	.st13{opacity:0.32;fill:#FFFFFF;}
	.st14{opacity:0.32;fill:#F0D4A0;}
	.st15{opacity:0.35;fill:#FFFFFF;}
	.st16{fill:none;stroke:#FCF6EC;stroke-width:2;stroke-miterlimit:10;}
</style>
<symbol  id="paper-scroll-modal" viewBox="-358 -391.4 715.9 782.8">
	<g>
		<path class="st0" d="M348.7,89.7l-17.2,289.1l-680.6-14.7l0.3-382.6l11.6-352.8c0,0,325.5-16.6,325.5-16l342.8,33.2L348.7,89.7z"
			/>
	</g>
	<path class="st1" d="M-350.4-301c4,0,7.9,0.5,11.5,2.6c0.3,1.9-1.7,3.6,0,5.5c2.8-0.8,5.9-1.2,9.3-3c-2.2-8.1,0.2-16.6-2-24.9
		c6.5,0.3,10.6-4.5,15.8-6.2c0.4-2.3-0.7-3-1.9-3.8c-3.6-2.6-5.1-8.5-3.2-12.7c2.1-4.6,4.7-9,7-13.5c0.9-1.7,2.3-2.2,4-2.6
		c6.7-1.7,13.4-3.3,20-5.3c2.7-0.8,5.1-2.4,7.3-3.5c2-3.1,1.4-6.6,3.3-9.3c1.1-1,3.2,0.2,3.8-1.8c-5.7-4-11.5-8-17.2-12
		c-7,0-14,0-21,0c-0.4,7.4-3.1,14.5-3.1,21.8c-0.7,1.2-1.4,2.2-2.5,2.7c-7.1,3.3-13.4,8-20.2,11.8c-2.9,1.6-5.5,3.8-9.1,3.8
		c-1.4,6.9-0.6,14.2-3.8,20.8c-0.2,0.4-0.3,1-0.3,1.5c-0.3,8.8-1.2,17.5,1.9,26.1C-350.5-302.3-350.5-301.6-350.4-301z"/>
	<path class="st1" d="M-348.5-351.3c3.5,0.1,6.2-2.2,9.1-3.8c6.8-3.8,13.1-8.5,20.2-11.8c1.1-0.5,1.8-1.4,2.5-2.7
		c0-7.3,2.7-14.4,3.1-21.8c-5.3,0-10.7,0-16,0c-0.6,3.3,1.3,5.8,3,8.2c-1.1,1.9-2.3,3.2-3.9,4.1c-1.9-0.8-3.7-1.4-6.2-0.2
		c0.5,2.8,1,5.8,1.6,8.6c0.8,3.6,0.2,4.9-3.2,6.1c-3.6,1.2-7.2,2.5-11,2C-349.7-358.8-347.9-355.2-348.5-351.3z"/>
	<path class="st2" d="M-349.4-362.7c3.9,0.5,7.5-0.8,11-2c3.5-1.2,4-2.5,3.2-6.1c-0.6-2.9-1.1-5.8-1.6-8.6c2.4-1.2,4.3-0.6,6.2,0.2
		c1.7-0.9,2.9-2.2,3.9-4.1c-1.7-2.4-3.6-4.8-3-8.2c-6,0-12,0-18,0c-0.6,1.1-1.8,0.6-2.8,1.2C-352.9-381-351-371.8-349.4-362.7z"/>
	<path class="st1" d="M244.2-375.2c0.1,1.2,0.2,2.4,0.3,3.7c3.4,2,6.8,4.1,10.3,6c7.1,3.9,14.4,7.6,21.5,11.7
		c6.2,3.6,12.7,6.6,18.7,10.5c1.9,1.3,4.2,1.8,6.3,2.8c2.5,1.2,5.3,2,5.9,5.7c1.1-1.9,3.2-2.8,3.2-5c-1-2.1-3.7-1.7-4.9-4.3
		c2.5,0.8,4.8,0.7,6.9,1.2c3.4,0.7,6.6,2.1,8.2,5.8c1.6,3.6,4.7,6.2,7.1,9.1c2.8,3.4,5.2,7,8.6,10.2c0,1.8,0.1,3.6,0,5.5
		c-0.6,17.6,2,35.1,0.8,52.8c2.1,1.2,4,2.2,6.1,3.4c0.2,4.7-0.9,9.4-1.3,14.1c-0.4,5-0.8,10.1-1.7,15.1c-1,5.2-0.5,10.4-1.8,15.6
		c-0.8,3.2-0.7,6.8-1,10.1c-0.7,9.8-2.3,19.5-2.5,29.4c-0.1,6.2-0.7,12.5-0.7,18.8c0,1.5-0.9,2.5-1,3.6c2.9,9.8,5.8,19.3,8.6,28.8
		c0.1,0.5,0.4,1,0.3,1.5c-0.6,6.2,0.8,12.2,1.1,18.3c0.4,6.7,0.4,13.5,1.8,20.2c0.1,0.3,0.1,0.7,0.1,1c-0.7,6.7,0.6,13.3,1.2,19.9
		c1.1,11.6-0.1,23.3,1,34.8c1.1,10.4-0.4,20.9,1,31.2c1.2,8.6-0.2,17.3,1.6,25.9c0.9,4.1,0.2,8.5,0.1,12.8c-0.1,2.8,0.3,5.4,1.8,7.9
		c0.6,0,1.2,0,1.9,0c0.2-3.3,2.2-6.5,0.4-9.9c-0.1-0.3-0.1-0.7,0-1c3.8-10.8-0.3-21.4-1-32.1c0-0.2,0-0.3,0-0.5
		c-0.4-11.9-1.8-23.9-1-35.8c0.4-6.2,0.4-12.4-0.9-18.5c-0.4-2.3,0.8-4.3,0.8-6.5c-0.1-12,0.2-24,0-36c-0.1-4.7-1.2-9.5-1-14.2
		c0-1.5-1.6-1.7-1.8-3c1.4-4.1,1.4-8.3-0.4-12.4c-0.7-1.7-0.8-3.3-0.7-5c0-6.6,0.7-13.3-1.9-19.6c-0.2-0.4-0.3-1.1-0.1-1.5
		c2.5-6.1-1.8-12.4,0.7-18.4c0.2-0.4-0.1-1-0.3-1.4c-2.2-6.5-0.9-13,0.4-19.4c0.1-0.3,0.1-0.7,0.1-1c-0.6-6.7,1.3-13.2,1-19.8
		c-0.1-2.2,0.4-4.4-1.5-6.2c-1-1-0.7-2.5,0-3.8c0.9-1.8,1.5-3.8,2.6-5.5c1.2-1.8,1.5-4,1.3-5.8c-1.1-10.3,0.2-20.5-0.3-30.7
		c-0.1-1.2-0.1-2.3,0.6-3.5c2-3.3,1.7-6.8,0.2-10.2c-0.3-0.4-0.8-0.8-0.9-1.1c-0.2-7.1-0.8-14.3-0.8-21.4c0-11.1-1.9-21.9-3.4-32.8
		c-1.8-12.6-4.2-25.2-6.4-38.1c-14-7.4-30.3-7-45.2-11.9c-0.9-3.5-4.6-5.7-4.1-9.8c0.7-1.4,2.7-1.5,3-3.2c-0.9-1.1-2.1-0.7-3.2-0.7
		c-6,0-11.9,0.1-17.9-0.1c-3-0.1-5.5,0.8-7.8,2.6c-1.6,1.3-3.3,2.4-4.7,3.8c-4,3.9-8.6,6.3-14.3,5.9
		C245-375.9,244.6-375.4,244.2-375.2z"/>
	<path class="st2" d="M293.4-387.4c-0.3,1.8-2.3,1.8-3,3.2c-0.5,4.1,3.2,6.2,4.1,9.8c14.9,4.9,31.2,4.5,45.2,11.9
		c2.2,13,4.6,25.5,6.4,38.1c1.5,10.9,3.4,21.7,3.4,32.8c0,7.1,0.6,14.3,0.8,21.4c0,0.4,0.6,0.8,0.9,1.1c1.1-7.6,0.5-15.2,0-22.8
		c-0.4-6.7,1.3-13.2,1.1-19.9c-0.1-2.7-0.8-5.5-0.7-8.1c0.2-5.7-1.2-11.6-0.1-17.1c0.9-4.3,0.2-8.4,0.4-12.4
		c0.1-3.1-0.3-6.7-1.3-9.9c-2.7-3.1-2.9-7.3-4.2-11c-1-2.9-2.4-4.4-5.4-4.9c-1.8-0.3-3.9-0.6-5.4-2.2c-0.8-2.4,0-5-0.6-7.5
		c-5.1,1.8-10.3,3.6-15.6,5.5c-1.2-2.7-2.4-5.3-3.7-8.1C308.3-387.4,300.8-387.4,293.4-387.4z"/>
	<path class="st2" d="M335.1-384.7c0.7,2.5-0.2,5.1,0.6,7.5c1.5,1.6,3.5,1.9,5.4,2.2c3,0.5,4.4,2,5.4,4.9c1.3,3.7,1.5,7.9,4.2,11
		c0.4-9.1,2.5-18.2,1.3-27.6C346.1-387.6,340.4-388.1,335.1-384.7z"/>
	<path class="st3" d="M317.4-93c-0.1-0.2-0.3-0.5-0.4-0.7C316.3-93.1,317.1-93.2,317.4-93L317.4-93z"/>
	<g>
		<path class="st4" d="M-324,180.8c3.9,2.4,2.4,10.5,9.3,9.8c-6,9.2,2.9,12.3-2.3,22c-1-0.5-2.1-1.1-3.8-0.9c1.3,5-1.2,7-0.5,11.5
			c-4.7-0.3-3.7,4.2-9.7,2.9c-11.8,0.2-13.6-11.5-16.4-24.3C-346,190.7-338,181.3-324,180.8z"/>
		<path class="st4" d="M-308.6,287.7c1.6,2,3.3,2.6,5.3,0.1c-0.1-1-0.2-2-1.2-2.9C-305.8,285.1-307.2,286.1-308.6,287.7z"/>
		<path class="st4" d="M-299.8,276c-1.1,0.9,0.1,2.1,0.5,3.2c-7.3,1.5-6.9,4.6-16,9.2c-0.8,6-1.6,20.9,8.9,18.7
			c2.2,3.2-0.3,7.7,5.3,10.6c10.7-3.3,26.1,4,35.2-8c-2.5-10.2-2.9-29.6-19.3-24.5C-284.6,276.2-293.6,270.6-299.8,276z"/>
		<path class="st4" d="M-311.7,233.1c-7.6-0.1-15.3-0.1-24,11c0.3,6.2,1.8,7.9,0.9,14.7c1.3-0.1,2.5,0.6,3.7,1.9
			c3.4-6.3,8.7,1.1,13.8-0.3c0.6,4.1-4,8.8,1.9,12.2c3.4-0.5,6.2-5.4,6.1-7.8c-3.8-0.3-3.1-5.6-6.6-3
			C-309.9,254-308.2,241.9-311.7,233.1z"/>
	</g>
	<path class="st5" d="M232.7-333.6c-7,3-14,6.1-17.5,19.8c2.8,5.6,4.9,6.5,6.8,13c1.1-0.6,2.5-0.5,4.1,0.2
		c0.6-7.2,8.4,17.4,12.5,14.1c2.2,3.5-0.1-10.3,6.7-9.6c2.8-1.8,3.5-7.5,2.4-9.6c-3.6,1.2-5.1-3.8-7.3-0.1
		C242.9-315.3,239.5-326.9,232.7-333.6z"/>
	<g>
		<polygon class="st3" points="317.4,-93 317.4,-93 317.4,-93 		"/>
		<path class="st3" d="M356.5,197.4c1.6,6.9,1.6,14,1.3,20.9c-0.3,7.2-1.5,14.5-1.6,21.8c0,3.1,0,6.3-0.9,9.3
			c-1,3.3-2.3,6.7-4.5,9.5c-1.5,1.8-1.6,3.6-1.1,5.6c3.7,1.7,5.5,4.5,4.5,7.9c-0.8,2.8-0.7,5.8-1.9,8.4c-1.5,3.1-1.5,6.6-0.6,9.5
			c1.8,5.9-0.4,11.6-0.1,17.3c0.1,2.8-1.4,5.3-1.2,8c-5-1.5-5-1.5,0,0c1.8,5.2,3.1,10.6,1.8,16c-0.8,3.2-0.4,5.5,1.3,7.8
			c-1,1.8-1.7,3.7-0.9,5.1c2.2,3.8-3.4,10.1,0.4,11.3c0.4,1.2,0.5,2.4,0.1,3.5c-2.4,5.6-1.7,11.3-0.8,17c0,5.9,0,13.9,0,13.9
			s-2.1,0-6.1-0.1c-4-2.1-9.8,4.4-17.3-0.3c-3.7-2.5-7.9-3-12.5-2.7c-4.5,0.3-9.5,1.5-14.6,2c-5.5,0.6-11.1,1.9-13.8-5.4
			c-9.2,8.3-15.5,7.9-23-3.2c-1.2,8.3-3.5,8.2-7.7,1.3c-0.3,6.5-2.6,6.3-6.8,2.1c-0.4,4-2.8,3.9-6.1,2.4c-1.4,1.5-3.8,1.7-6.3,2
			c-4.9,2.5-9.9,1.7-15,0.7c-5.1-1-10.3-2.4-15.6-1.1c-10.6,4.9-37.2-7.5-37.2-7.5l-0.8,8c0,0-51.6-2-62.8-2.1
			c-5.6,3.1-11.2,2.6-16.9,1.5c-5.7-1.1-11.4-5.2-17.1-2c-5.7,2.7-11.5,5.9-17.2-0.7c-5.8-7.9-11.6-4.8-17.4,0.1
			c-5.8,1.6-11.6,2.1-17.5-0.3c-5.8-0.1-11.7-0.2-17.5-0.3c-10.9-0.2-21.9-5.4-32.8-0.5c-10.9,12-21.8-4.7-32.6-0.5
			c-5.4-0.3-16.1-10.3-16.1-10.3l-16-0.3c0,0-21.1,12-31.4,9.5c-5.7-2-11.4,0-17-0.3c-5.6-0.3-11.2,5.9-16.7-0.3
			c-5.5-1.7-10.9-1.9-16.3-1.7c-2.7,0.1-5.3,0.4-8,0.6s-5.3,0.5-7.4,0.1c-5.7-2.4-13.7-5-13.7-5s-23.1-4.8-18-7.8
			c2.5-0.2-3.3,16.2-3.3,16.2s-19.2-5.7-25.2-6.1c-2.8,3.6-7.2,5.2-11.5,5.5c-4.1,0.5-8.2-0.4-12.2-3.7c-8,1.5-15.5,7.5-22.4-0.4
			c-6.9,3.4-13.3-1.5-19.1-0.3c-5.8,7.7-11,4.1-15.5-0.2c-4.5,5.5-8.4-4.4-11.5-0.2c-3.1,8.7-5.5-3.4-7.1-0.1
			c-1.6,5.6-2.5-2.3-2.5,0c0-2.1,0-4.2,0-8.5s0-8.5,0-8.5s0.4-5.8,0.8-13.7l-1-10c-0.1-1.9,0-3.7,0.5-5.5c0.6-2.1,0.8-4.4,0-6.5
			c-1.7-4.9-1.1-10.2-1.1-15.1c0-6.7,0.5-13.4-0.5-20.1c3.8,2.8,3.8,2.8,0,0c0.4-2.1,1-4.2,1.3-6.4c0.6-4.3,3-8.5,0.2-12.9
			c1.7-3.1,3-6.2,1.2-9.5c1.2-1.9,2.6-3.4,3.1-5.5c-0.4-3.2-1.5-6.2-3.3-8.8c-0.7-1.1-1.2-2.4-1.6-3.7c-1.6-6-0.6-12.1,0.1-18
			c0.7-6.2,1.9-12.4,1.9-18.6c-0.1-6.8,1-13.7-1-20.4c-1.8-5.9-1.7-12-2.8-18c-0.5-2.9-0.4-5.8,1.9-7.8c-0.3-2.1-1.9-3.8-0.4-5.7
			c0.5-0.6,0.1-1.3-0.4-1.8c-1.6-1.5-1.2-3.2-0.8-5.1c1-4.7,2.4-9.6,0.3-14.4c-1.1-2.7-1-5.3-0.8-8c1.4-2.5,0.8-5.3,0.9-8
			c0.1-1.7-0.6-3.7,0.4-5c3.2-4.2,2.9-8.3,0.4-12.4c0.9-1.6,1.8-2.8,2.4-4.2c1.1-2.3,1.4-4.8-0.1-6.8c-2.8-3.8-2.3-7.9-2-12.2
			c0-1.3,0-2.6,0-3.8c-0.1-1-0.1-2-0.2-3c-4-3.1-3.4-7.6-2.8-11.7c0.8-4.8,1.9-9.6,1.8-14.6c0-3.1,0.1-6.1,1-9.1c1-3,1-6,0.9-9.1
			c-0.2-6.3,0.6-12.4,2.4-18.6c1.3-4.4,1.6-9.4-0.8-14c-4.2-8.3-2.2-16.2,1.5-23.9c0-2.3-0.5-4.4-1.7-6.3c-0.5-0.9-0.5-1.6,0.5-2
			c0.6-0.1,0.9-0.5,1-1.1c-0.3-4.5-1.3-9-1-13.6c0-0.6-0.2-1.5-0.6-1.9c-2.3-2.1-1.3-4.3-0.2-6.5c1.4-2.9,3-5.7,3.8-9.3
			c-3.1-2.1-2.8-5.9-3.1-9.3c-1-0.9-1.9-1.7-2.7-2.5c-0.1-1.5,0.1-2.9-0.2-4.2c-2.2-9.9-0.8-19.4,2.1-28.8c1.1-3.5,2-7.1,2-10.9
			c-0.1-3.6,0.2-7.2,0.1-10.8c-0.2-6.1-0.5-12.4-2.7-18c-2.8-7.1-1.5-14.5-3.3-21.5c-0.2-0.9-0.1-2.2,0.3-3c1.1-2.3,0.8-4.8,0.6-7.1
			c-0.6-6.2-0.3-12.4-0.7-18.5c-0.8-13.1-0.3-26.4-0.3-39.5c0-1.2-0.3-2.5,0.7-3.4c1.6-1.5,1.6-3.4,1.4-5.2
			c-0.3-3.1,0.4-6.1,1.1-9.1c1.3-5.5,2.2-10.9,1.8-16.8c-1-1.8-3.1-3.4-2.7-6c0.2-1.7,2.1-1.6,2.6-2.7c0.4-4.4,2.5-8.5,0.5-12.7
			c4,0,7.9,0.5,11.5,2.6c0.3,1.9-1.7,3.6,0,5.5c2.8-0.8,5.9-1.2,9.3-3c-2.2-8.1,0.2-16.6-2-24.9c6.5,0.3,10.6-4.5,15.8-6.2
			c0.4-2.3-0.7-3-1.9-3.8c-3.6-2.6-5.1-8.5-3.2-12.7c2.1-4.6,4.7-9,7-13.5c0.9-1.7,2.3-2.2,4-2.6c6.7-1.7,13.4-3.3,20-5.3
			c2.7-0.8,5.1-2.4,7.3-3.5c2-3.1,1.4-6.6,3.3-9.3c1.1-1,3.2,0.2,3.8-1.8c0.5,0,1.1,0,1.6,0c1.3,2.2,2.6,1.3,3.9,0
			c0.9-0.9,2.2-1.9,0.1-3c2.2-2.3,5-3.6,7.7-5.1c0,0,0.1,0,0.1,0c1-1.5,3.1-2,3.5-4.1c12.2,0,24.3,0,36.5,0c0.5,0,0.9,0,1.4,0
			c0.5,1.3,1.6,1,2.6,1c3.3,0,6.7,0,10,0c1.5,0,2.9,0,4.2,1.1c2,1.7,4.8,1.6,6.6,0.5c5-2.8,9.9-1.9,14.8-0.8c4.5,1,9,2.2,13.4,3.6
			c1.7,0.5,3.1,0.4,4.8,0c5-1.2,9.8-3,14.9-3.9c3.8-0.7,7.7-0.8,11.4-0.4c3.1,0.4,6.3,0.6,9.4,0.6c34.5,0.1,68.9,0.1,103.4,0.1
			c2.2,0,4.3,0.1,6.5,0.1l7.1,0c11.9,0.2,23.9-0.8,35.8,0.8c6.5,0.9,13.1,1.9,19.6,2.8c6.2,0.9,12.4,1.7,18.4,2.4
			c2.5-1.9,4.7-3.6,6.7-5.1c13.2,0,26,0,38.7,0c1.8,3.5,2.8,7.1,5.1,10.2c3.8-0.2,7.3-1.2,10.7-2.2c4.4-1.2,6.8-5.1,9.5-8.1
			c11,0,21.5,0.1,31.9-0.1c5.4-0.1,10.5,0.3,15.4,3c2.1,1.2,4.7,1.7,7.1,2.2c8.7,2.1,17.4,4,26.2,5.4c10.2,1.6,20.3,3.2,30.6,2.6
			c0.1,1.2,0.2,2.4,0.3,3.7c3.4,2,6.8,4.1,10.3,6c7.1,3.9,14.4,7.6,21.5,11.7c6.2,3.6,12.7,6.6,18.7,10.5c1.9,1.3,4.2,1.8,6.3,2.8
			c2.5,1.2,5.3,2,5.9,5.7c1.1-1.9,3.2-2.8,3.2-5c-1-2.1-3.7-1.7-4.9-4.3c2.5,0.8,4.8,0.7,6.9,1.2c3.4,0.7,6.6,2.1,8.2,5.8
			c1.6,3.6,4.7,6.2,7.1,9.1c2.8,3.4,5.2,7,8.6,10.2c0,1.8,0.1,3.6,0,5.5c-0.6,17.6,2,35.1,0.8,52.8c2.1,1.2,4,2.2,6.1,3.4
			c0.2,4.7-0.9,9.4-1.3,14c-0.4,5-0.8,10.1-1.7,15.1c-1,5.2-0.5,10.4-1.8,15.6c-0.8,3.2-0.7,6.8-1,10.1c-0.7,9.8-2.3,19.5-2.5,29.4
			c-0.1,6.2-0.7,12.5-0.7,18.8c0,1.5-0.9,2.5-1,3.6c2.9,9.8,5.8,19.3,8.6,28.8c0.1,0.5,0.4,1,0.3,1.5c-0.6,6.2,0.8,12.2,1.1,18.3
			c0.4,6.7,0.4,13.5,1.8,20.2c0.1,0.3,0.1,0.7,0.1,1c-0.7,6.7,0.6,13.3,1.2,19.9c1.1,11.6-0.1,23.3,1,34.8c1.1,10.4-0.4,20.9,1,31.2
			c1.2,8.6-0.2,17.3,1.6,25.9c0.9,4.1,0.2,8.5,0.1,12.8c-0.1,2.8,0.3,5.4,1.8,7.9c0.6,0,1.2,0,1.9,0c0.3,1,0.3,2-0.1,3
			c-1,3-1,6.1-0.2,9c0.9,3.4,0.4,6.6,0.1,10c-0.6,6.4-2.7,13,0.5,19.3c-0.9,1.4-1.8,2.5-2.1,4.1c-1.2,5.3-2.9,10.3-2.1,16.2
			c1,7.4,0.2,15,0.2,22.5c0,2,0.5,4.1,0.6,6c0.2,4.7,3.2,9.7-0.6,13.8c0.3,3.3,2.8,4.9,4,7.3c-0.4,3.6,1.2,7.5-1.8,10.8
			c-0.4,0.5-0.3,1.7-0.1,2.5C353.8,184.2,354.9,190.9,356.5,197.4z M336.1,338.4C336.1,338.4,336.1,338.4,336.1,338.4
			C336.1,338.4,336.1,338.4,336.1,338.4L336.1,338.4z M-224.3-359l0.2,0.3l0.1-0.3L-224.3-359z M344.9,78.2
			c-5.1-9.8-7.8-21.7-20.1-25.5c-0.1,0-0.2-0.3-0.5-0.7c-0.2-5.2,5.2-6.5,7.8-10.1c-2.1-0.1-3.7-0.2-5.1-0.3
			c-0.7-1.1-0.8-1.8,0.1-2.8c2.5-0.6,5.9,0.8,8.1-2.1c0.2-1,0.2-2-0.3-3c-1.7-3.8-3.5-7.7-5.1-11.6c-1.8-4.2-3.3-8.3-3.7-13
			c-0.3-3.4-0.8-7-1.4-10.5c-0.8-4-0.8-8.3,1.1-12.5c2.1-4.4,3.1-9.2,4.9-13.8c0.6-1.7,0.8-3.3,0.5-5.1c-2.3-3.4-6.1-4.9-8.9-7.9
			c0.6-2.8,3.2-4.5,3.1-7.5c-0.1-8.2,0-16.4,0-24.4c-3.2-2.9-7.8-3.1-9.8-6.7c-0.4-2.6-0.1-4.7,0.7-6.8c0.9-2.2,1.3-4.6,1.1-7
			c2.1-0.5,2.8,2.5,5.3,1.8c0.5-1,1.7-2,1.6-4c-1-2.2-3-4.6-1.1-7.3c-2.2-2.2-5.8-1.9-6.7-4.9c2.7-3.2,7.4-0.4,9.7-3.8
			c-0.6-2.2-2.2-2.8-3.6-2.2c-3.4,1.4-7.5,1.5-10.2,4.6c0,1.5,1.9,2.8,0.2,4.3c-5.9-0.8-8.3-6.2-12.5-9.9c1.6-4.6-1.7-8.7-1.7-13.1
			c3-0.9,4.1,2.6,6.8,2.2c0-2.5,0-4.8,0-7.3c-4.3-1.6-10-0.8-12-7.8c0-5,0-10.9,0-16.6c-2.4-1.7-5.2-1.5-7.5-2.2
			c-0.2-3,4.1-2.3,3.3-5.3c-2-1.1-4.3,0.3-6.4-1.1c-0.5-3.8,2-6.9,2.2-10.4c2.5-0.7,3.9,1.6,6,1.6c1.5-1.6,1.3-4.1,3.3-5.8
			c-4.2-0.2-7.7-1.6-11.2-1.4c-1.7-4.1,3.8-3.6,3.4-7.5c-0.5-2.7-5.8-3.1-5.1-7.8c-4.1,1.1-6.3,4.5-9.7,6.1c-1.2-0.5-2.6-1-3.9-1.5
			c0.2-3.8,1.2-5.4,4.3-6.6c3.3-1.4,6.5-2.9,9.8-5.1c-3.4-1.4-6.2,2.5-9.1,0.3c0.4-5.9,3.1-10.4,7-14.6c-2.4-3.8-4.5-7.6-7.1-11.1
			c-3.3-4.4-3.6-9.2-2.7-14.6c2.5-0.1,4.8-0.2,7.2-0.3c0.8-2.8,3.9-3.8,4.4-6.2c-0.1-3-2.8-2.4-3.7-3.5c-1.5-4.2,3.9-6.2,2.4-10.1
			c-1.3-1.3-3.1,0-4.3-1.1c-1.7-4.9,0.8-9.7,0.4-14.9c-3,0-5.6,0-8.1,0c-1.3-2.5-3.4-4.2-3.7-6.9c-0.4-3.6,3.4-5.3,4.1-8.5
			c-1.6-3.2-5.9-3.3-7.1-6.3c0-3,2.8-3.4,4.3-5.8c-4.3,0.2-8.3,1.5-11.2-2c-0.3-5.7,5.6-4.4,7.8-7.6c-0.9-2.1,1.6-4.3,0.5-7.2
			c-2.4,1.1-2.6,4.1-4.8,5.1c-2.3-2.2-4.5-4-7.8-4.3c-2.3-0.2-3.6-2.2-3.9-4.6c-0.5-5-3.2-9.6-3.2-14.8c0-1.1-0.2-3.1-1.8-4
			c-2.7,0-3.5,3-5.6,3.9c-2.1,0.6-3.9,0-5.7-1c-1.3-0.7-2.6-1.5-4.1-1.9c-10.1-2.9-20.2-5.8-30.3-8.7c-7.6-2.1-15.1-4.9-22.9-5.7
			c-9.3-1-18.6-2.2-27.9-3.1c-9.2-0.9-18.3-2-27.4-3.1c-7.2-0.8-14.1-2.8-21.3-3.9c-7.9-1.2-15.7-3.3-23.6-4.6
			c-4.5-0.7-9.1-1.2-13.3-3.5c-0.9-0.5-1.8-0.8-2.6,0.3c0.4,3,4,4.5,3.6,7.8c-1.2,1-2.5,1-3.5,0.6c-4.6-1.9-9.5-0.8-14.2-1.7
			c-5.4-1.1-11.2-0.8-16.8-1c-8.6-0.3-17.2-1.6-25.8-1.3c-3.4,0.1-6.6-0.4-9-2.4c-1.3-2.9-3.9-7.8-4.2-10.7l-4.6,0.4
			c-4.7,1.4-6.7,8-10.6,10.6c-5.6-0.3-11.4,0.3-17.2-0.8c-4.7-0.9-9.6-0.4-14.5-0.1c-7.6,0.4-15.1-1.6-22.8-1.1
			c-5.6,0.4-11.1,0.9-16.6,2c-3.1,0.6-6.2,0.6-9.3,0.8c-4.4,0.4-8.8,1.2-13.3,1.5c-4.7,0.3-9.5,0.6-14.2,1.7c-3.2,0.7-6.5,0.5-9.8,1
			c-6.9,1-13.3,3.4-20,5.2c-10,2.6-19.9,5.6-29.9,8.4c-0.8,0.2-1.6,0.5-2.3,0.9c-3,1.5-6,1.6-9.1,0.3c-2.8-1.2-5.6-1.8-8.5,0.3
			c-1.4,1.1-3.3,1.4-5,2.2c-1.3,0.6-2.6,0.6-3.8-0.1c-1.6-1-0.6-2.9-1.5-4.2c-0.3-0.1-0.8-0.3-0.9-0.2c-2.3,2.2-5.4,2.6-8.1,3.5
			c-2.5,0.8-4,2.1-5,4.5c-0.6,1.4-1.6,2.7-1.9,4.1c-1.9,7.5-8.7,9.6-13.6,13.6c-5.2-1.7-9.9-3.7-15.2-4.4c-1.7,3-3.5,5.8-4.9,8.8
			c-1.1,2.3-2.7,3.7-4.9,4.7c-7.5,3.2-14.9,6.4-22.5,9.8c-0.8,2-1.7,4.3-2.6,6.7c3.5,2.8,7-1.1,10,0.3c2.5,4.6,1.2,11-3.3,14.7
			c1.2,1.3,3.1,1.1,4.3,2.1c0,2.6-2.4,2-3.7,3.2c0,2.4,0,5,0,7c-1.7,4-4.6,4.1-7.4,3.2c-2.3-0.8-4.5-0.6-7-0.6
			c-1.8,4.5-3.7,9-5.3,13.6c-1,2.8-0.3,5.6,0.5,8.5c2.8,9.9,5.4,19.8,9,30c-0.5,1.4-0.8,3.4-3,4.5c-2.6-1.4-2.6-4.3-3.5-6.3
			c-3.2-2-6.4-2.3-9.6-1.9c-2.2,2.2-2,4.7-1.7,7.1c1.4,3.6,6.6,4.7,5.8,9.5c-2.2,2.2-5.8,2.2-7.1,5.5c1.7,2.8,4,4.8,5.1,7.7
			c-1.1,3.9-4.5,6.9-3.8,11.4c1.3,2.1,3.8,1.6,6,2.7c-2.1,3.6-5.9,2.4-8.9,4c1,3,3.4,4.8,5.8,6.5c1.1,0.8,2.1,1.6,3,2.6
			c2,2.4,2.8,4.8,1.1,7.9c-2.7,5.1-5,10.4-7.7,15.5c-1.4,2.8-1.9,5.3-0.3,8.2c1.6,3,2.2,6.4,3.6,9.5c1.6,3.6-0.2,7.4-0.9,11
			c-0.4,2.4-0.6,4.7-0.1,7.7c-3.7,3.2-7.4,6.3-11.2,9.5c0.3,0.3,0.5,0.5,0.8,0.8c-1.2,3.8,1.7,7.3,0.5,11.2
			c-3.2,4.4-8.2,7.6-11.1,12.5c2.1,2.4,4.3,2.8,6.7,2.2c1.5-1.7-0.6-5.2,2.9-5.9c1.7-0.1,2.5,1.3,3.6,2.7c-0.1,3.3,0.7,6.8-1.1,10.3
			c-3.7,7.2-7.2,14.6-10.7,21.9c-0.2,0.4-0.4,0.8-0.6,1.2l-1.6,4.5l1.6,15c2,2.5,4,5.1,6.8,7c-2.4,2.8-3.3,5.9-5,8.6
			c-3.5,5.6-2.9,10.7,1.6,15.6c1.1,1.2,3,2.1,2.9,4.6c-2.3-0.3-4.5-1.9-6.6-0.1c2.6,3.7,7.6,4.7,9.1,9.6c-1.3,1.4-2.4,3.1-4,3.9
			c-2.1-0.7-0.3-3.4-2.4-3.7c-0.3,0.2-0.6,0.3-0.7,0.6c-0.4,0.7-0.8,1.5-1.1,2.3c-2.6,7.1-0.5,14.2,0.4,21.1
			c1.3,10,3.4,19.9,5.6,29.7c1.5,6.9-1.3,13.1,1.7,19.6c0.5,1.1,0.6,2.3-0.5,3.3c-2.9,0-4.5,8.6-7.3,8.6l-2.5,19.4l4.2,4.5
			c1.9,0.4,3.8,0.9,5.6,1.6c2.6,0.9,4.2,2.8,5.4,4.9c1.1,1.9-0.8,3.4-1.4,5c-1.3,3.6-3.4,7.1-2.7,12c2.3,1.7,4.6,3.4,6.3,4.7
			c0,2.8,0.4,4.5-0.4,6.3c-2.1,1.7-4.8,2.6-7.6,3.8c2.5,3.5,2.1,7.5,2.1,11.4c0,9.3,0,18.5,0,27.8c0,4.4,0,8.9,0,12.7
			c3,4.2,6.8,7.1,8.1,11.6c2.4,8.2,4.4,16.6,7,24.8c1.4,4.5,1.1,8.3-2.1,11.7c0.1,2.2-0.4,4.3,0.6,6.7c2.7,1.3,5.5,3.1,8.2,5.2
			c0.4,6.1,1,12.2,6,17.3c8.2,1.4,16.9,2.9,25.8,4.5c1.3,2.1,2.7,4.4,4.1,6.6c1.6,0.4,3.1,0.4,4.6,0.7c4.4,6.6,7.3,20.7,20.6,20.6
			c8.1,1.1,18.2-1.8,18.8,3.9c7,5,18,3,18.7,4c-1.6,0.7,0.2,0.9,5.3,0.9c7.7-1.9,17.1-0.8,18.4,3.7c-0.9-4.2,15.6-2.3,15.1,2.2
			c3.3,4.4,16.1,1.8,19,2.7c-0.3,3.7,6.4-1.7,17.1,2.5c1.7,5.1,13.8,6.2,21,2.5c11.1,3,13.8-10.9,13.2-4.3c1.4-6.9,7.8-7,6.6-2.3
			c7.8-3.5,12.4,7.3,19.2,9.7c6.2,0.6,12.5,2,18.8,1.3c0.5-0.1,1,0.1,1.5,0.2c5,1.4,10.1,1.3,15.2,1.7c5.3,0.4,10.5,1.1,15.8,1.5
			c3.9,0.3,8-0.1,11.8,1c4.7,1.3,9.5,1.3,14.2,1.6c7.9,0.5,15.8,2.1,23.8,1.3c0.5,0,1-0.1,1.5,0.1c7.6,2.1,15.4-3.1,23.2-2.3
			c7,0.7,14.1,2,21.3,1.3c-0.4,0-0.6,0.2,1,0.1c8.8-7,15.2,10.9,13.7,1.7c8.5-5.2-1,8.2,16.8,1.6c20.9-2.3,11.4-0.6,12.3,1
			c11.2,0.7,25.2-5.1,20.6,1.8c2.3,1.1,33.3-13.8,24.6-1.7c5.6-0.4,10.1,0.6,16.8-1.2c11.3-0.9,5.6-3.7,16.8-0.9
			c2.4,4.7,11.4-6.8,24.6-2.4c0.7,5.2,8.2-1.9,9.8-1c7.5-6.9-2,7.4,13.2-1.6c13.1-12.9,9-4.2,13.3-1.5c10.3-6.2,1,6.7,7.7-1.4
			c11.2-6.2,12.9-18,19.4-20.9c7.4-3.3,14.7-6.6,22.3-10c0-1.5,0.4-3.2-0.4-5.1c-4-3.8-10.4-2.4-14.4-6c-0.7-3.8,0.4-7,1.4-10.2
			c11.3-1.2,22.3-4.1,25.2-6.8c-1.6-1.8-4.2-1.9-5.7-3.9c3.6-9.5,6.7-19.3,14-27.1c-3-2.3-5-5.3-6.3-8.3c-3.7-2-7.1,1.2-10.4,0
			c-0.2-2.2,2.4-1.1,2.8-2.7c0-3.6,0-7.2,0-10.4c3.5-5.8,9.8-6.7,14.6-10.2c0.6-2.3,0.7-4.8,1.8-6.8c2.4-4.3,1.7-8.2-0.3-12.1
			c-1.8-3.6-1.7-7.5-0.9-11c1.6-7.4,2-15,3.6-22.4c0.5-2.2,0.7-4.9-0.8-7c-2.7-3.7-4.1-8.2-6.7-11.9c-1.7-2.5-3.1-5.4-2.3-8.6
			c0.5-2.3,1.2-4.6,2-6.8c2.9-7.9,5.9-15.8,8.9-23.7c2.1-5.5,4-11.1,7-16.2c1.3-2.1,3.6-3.6,3.9-6.6c-2-3.9-6.1-7.6-1.9-12.9
			c3.6,0.1,7.1-1.3,10.9-1.5C345.4,83.6,346.2,80.6,344.9,78.2z"/>
	</g>
	<path class="st1" d="M350.3,315.5c1.8,5.2,3.1,10.6,1.8,16c-0.8,3.2-0.4,5.5,1.3,7.8c-1,1.8-1.7,3.7-0.9,5.1
		c2.2,3.8,0.8,7.5,0.4,11.3c0,0,0,0,0,0c0.4,1.2,0.5,2.4,0.1,3.5c-2.4,5.6-1.7,11.3-0.8,17c0,5.9,0,13.9,0,13.9s-2.1,0-6.1-0.1
		c-4-2.1-9.8,4.4-17.3-0.3c-3.7-2.5-7.9-3-12.5-2.7c-4.5,0.3-9.5,1.5-14.6,2c-5.5,0.6-11.1,1.9-13.8-5.4c-6.5,5.9-11.6,7.4-16.7,3.8
		l17.4-12.3l10.2-19.5l11.8,1.4c4.3-1.8,11-2.8,12.5-4.1c6.2-5,8.7-8.5,13-14.5c1.3-7.9-3.9-14.9-1.1-22.2
		C340.3,314,345.2,314,350.3,315.5z"/>
	<path class="st1" d="M-285.7,365.4l8.5,5.2L-279,381c-6.6,2.1-12.8,5.2-18.6-1.4c-6.9,3.4-13.3-1.5-19.1-0.3
		c-5.8,7.7-11,4.1-15.5-0.2c-4.5,5.5-8.4-4.4-11.5-0.2c-3.1,8.7-5.5-3.4-7.1-0.1c-1.6,5.6-2.5-2.3-2.5,0c0-2.1,0-4.2,0-8.5
		s0-8.5,0-8.5s-0.6-15.8-0.2-23.7h0c-0.1-1.9,0-3.7,0.5-5.5c0.6-2.1,0.8-4.4,0-6.5c-1.7-4.9-1.1-10.2-1.1-15.1
		c0-6.5,0.4-12.9-0.4-19.3l8.8,10c0,0,9.8,1.2,9.8,6.5c0,5.3,13.2,23.6,13.2,23.6l13.2-3.1l15.6,38.5L-285.7,365.4z"/>
	<g class="st6">
		<g>
			<g>
				<g>
					
						<rect x="-142.2" y="-127.9" transform="matrix(0.3902 -0.9207 0.9207 0.3902 65.2272 93.7025)" class="st7" width="491.1" height="251.1"/>
					<g class="st8">
						<g>
							<path class="st9" d="M78.2,253.1c3.5,1.6,8.1,8.7,13.7,5.7c10.5,5.5,19.1-1.2,28.8-2.6c-1.3-4.5,4.2-2.7,6.6-5
								c2.2-0.6,5.2,1.2,7.3-0.3c0.2-3.2-5.9-0.6-3.9-4.9c3.3-7.6,13-2.4,18-6.7c-4.3-2.8-11.3,2-13.8-3.8c2.2-4.4,5.1-10,8.7-11.8
								c-0.2,2.6,0.1,6.2,2.5,7.4c1.9,0.1,2.5-2.3,1.9-3.6c-0.4-3.9-2.8-6-4-8.6c0.8-5.3,4.9-8.9,9.3-11.8c1,1.7,3.4,0.7,4.5-0.4
								c5.5-3.3,2.1-11.2,8.3-14.1c3.9-2.6,8-0.9,11.7-4c0.2-1.7,0.1-3.5-1.3-4.5c-5.5-2-8.4,5.1-14.1,0.7c-1-1.7,0.8-3.2,1.8-4.5
								c4.7,0.8,7.7-3.2,12-4.1c-2-0.4-0.5-2-0.6-2.9c-8.5,0.5-16.4,9.8-24.7,5.8c0-1.5,1.3-3.6-0.9-4.3c-1.4,0.3-3.7,0.9-5.6-0.1
								c-4.8-8.3,3.6-16.5,2.1-25.2c-1.9,8-9.8,15.1-13.5,20.4c3.4-5.2,0.8-12.8,0.5-16.4c-4.2,7.7-4.8,12.3-6.4,20.2
								c-7.5,2.9-16.1,3.1-23.9,2.4c-3.3-2.6-1.4-10.6-7.5-10.2c-2,4,4.6,6.5,4.2,11.3c-2,2.7-0.1,7.2-3.2,9.4
								c-0.6-0.7-1.8-2.7-2.6-1.1c-1.4,2.5,1.1,7.6-3.3,7c-1.4-0.3-3.3-1.1-3.7-2.2c-0.5,1.1-0.8,3.2-1.5,4.7
								c-6.6-0.9-0.2-7.1-3.6-10c-2.4,14.1-13.4,25-15.4,38.6C68.5,233.9,68.7,246.2,78.2,253.1z"/>
							<polygon class="st10" points="92.3,250.3 91.7,251.2 92.1,251.3 							"/>
							<path class="st9" d="M46.9,104.4c4.4-0.6,7.4-3.1,7.7-7.6c-0.2-4.3-3.1-8-6.2-9.5c-3.7-1.3-4.2,3.3-6.9,4.2
								C37.9,96.4,42.4,103.2,46.9,104.4z"/>
							<polygon class="st10" points="103.4,241.2 102,242.4 102.6,241.6 							"/>
							<polygon class="st10" points="106.8,249.4 105.3,249.4 106,249.7 							"/>
							<polygon class="st10" points="111.7,243.9 111.8,244.8 112.7,244.8 							"/>
							<polygon class="st10" points="115,243.8 113.9,243.9 114.3,244.1 							"/>
							<polygon class="st10" points="120.5,247.1 118.5,247.6 119.4,247.5 							"/>
							<polygon class="st10" points="116,237.1 114.6,236.8 114.8,236.7 							"/>
							<path class="st9" d="M69.1,124.3c1.2,5.7,5.2,10.9,8.3,15.8c2.3,0.3,2.4-1.6,2.4-3.2c-4.5-4.6-5.1-12.8-10.3-16.2
								C68.4,121.2,66.2,124.2,69.1,124.3z"/>
							<polygon class="st10" points="121.9,248.9 121,249 121.4,249.2 							"/>
							<path class="st10" d="M73.8,131c0.3,1.4,0.5-0.2,1.3,0.1c-3.1,0.1,0-1.5-1.6-3.1l-1.5,3.1C72.7,130.6,73.2,131,73.8,131z"/>
							<path class="st10" d="M71.6,127.9L73,127c-1.4-1.9-1,2-2.1,0.3C71.2,127.1,71.4,127.6,71.6,127.9z"/>
							<path class="st10" d="M75.7,135.5c0.7-0.6,1.9-0.8,1.8-1.7C76.8,134.4,75.4,134.7,75.7,135.5z"/>
							<path class="st10" d="M103.2,187.1c0.6-0.9,0.2-1-0.5-0.4C102.8,186.9,103.1,186.8,103.2,187.1z"/>
							<path class="st10" d="M128.2,239.4c-0.3-0.8-0.9-1.5-1.9-1.7C125.4,239.7,127,239.6,128.2,239.4z"/>
							
								<rect x="101.2" y="176.8" transform="matrix(0.3902 -0.9207 0.9207 0.3902 -101.596 201.6792)" class="st10" width="0.6" height="1.4"/>
							<path class="st10" d="M111,181.3l1.5-1.6l-2.9,0.6C109.8,180.6,110.9,180.4,111,181.3z"/>
							<path class="st9" d="M-10.6-172.5c5,1.6,8.9-2.5,12.8-3.6c-3.3-4.2,2.3-6.3,1.1-10.7c4.9-6.1,8.5-13,15.3-17.7
								c-2.1-1.9-5.5,3.9-9.9,2.3c-5.7-1.6-4.5-7.7-5.3-11.8c0.8-4.7,4.1-9.5,1-13.2c-0.5,14.2-18,15.7-20.3,28.5
								c-1.3,7.1-7.4,15.6-0.5,21.7C-16.2-173.2-13-173.7-10.6-172.5z"/>
							<path class="st10" d="M134.9,172.4c1.3,0.1-1-0.2-1.3-0.1L134.9,172.4z"/>
							<path class="st9" d="M124,146.5c0.2-1.7,3.4-1.5,3.3-3.9C127.8,145.2,123.4,144.3,124,146.5z"/>
							<path class="st10" d="M133.3,166.2c1.1-1.1-0.5-2,0.1-2.8C132.3,163.2,132.1,165.8,133.3,166.2z"/>
							<path class="st9" d="M123.9,144.1l0.6-1.5L123.9,144.1z"/>
							<path class="st9" d="M13.6-131.6c8.4,8,18.1,11.9,28.6,15.9c1.5-1.6,5,0.1,3.9-3.2c-0.2-2.7-3-3.4-4.3-5
								c-9.1-4.6-19.4-7.7-27.6-13.6c-2.4-1.2-5.4-4.6-8.2-0.9C3.4-133.6,10.9-132.1,13.6-131.6z"/>
							<path class="st9" d="M124.6,141.3l1.2-0.8L124.6,141.3z"/>
							<path class="st9" d="M128.4,139.3l-1.2,1.5C127.2,140.2,128.1,140.1,128.4,139.3z"/>
							<path class="st9" d="M128.3,138.4l0.1-1.3c-1-0.2-1.7,0.4-2,1.2C126.3,139.6,127.4,138.5,128.3,138.4z"/>
							<path class="st9" d="M90.8-20.7c5.4,0.2,7.6-6.3,12.5-6.5c3.2-2.6,3.8-7.9,4.6-11.9c-4.5-2.5,2.4-9.7-4.8-9.8
								c0.5-2.4-1.1-7,2.5-7.3c4.4,3.1,11.7,1.9,14.2,7.7c1.4,0.3,1.4-1.8,1.7-3.2c2.7-2.4,5.3,2.1,7.6,2.4l1.8-3.9l3.7,1.3
								c0.9-1.6,0.6-5.2,3.5-4.9c4-0.8,3.3,4.8,6.8,2.7c0.1-1.9-3-2.8-3-4.9c2-4,6.4-5.5,9.7-4.4c0.1-1.9-1.3-3.2-1.6-5.2
								c1.8-2.3,3.1-6,6.8-5.4c1.3-2.7-2.4-2.1-2.6-3.9c4.1-0.5,1.5-7.5,6.7-6.3c-1.7-2.4-4,0.8-5.8-1.3c-9.4-9.7,2.7-19.2-4-28.5
								c-5,3-12-1.1-16.2,3.7c-5.8-0.4-5-6-6.3-8.9c-2.9-0.3-6.2,2.3-8.5,2c1.6-5-5.4-6.8-3.5-11.9c0.2,10.8-9.8,21.6-9.1,33.7
								c-1.7,2-2,7.1-6.2,6c-4.6-1.2-7.9-3.2-10.3-6.6c-3.6-2.5-4.9,2.4-8.2-0.3c-0.7,4.3,6.9,3.9,6.5,8.8c3.4,1.4,8.1,1.5,10.6,5.2
								c3.8,5.3,1.7,11.4,4,16.7C102.5-60,102-54.5,99-49.8c-7.3-1.9,0.9-11-5.1-15.6c-1.9-1.4-4.4-0.9-5.1,1.2
								c-1.4,4,1,12-5.9,11.8c-2.3,0.4-6.4-1.9-6.9,2c-4.4,7.2-2.7,14.9,1.9,22.2C81.2-24.2,86.2-22.8,90.8-20.7z"/>
							<path class="st9" d="M59.4-110.2c-3.3-2.7-1.5,1.6-2.9,1.9C57.8-108,60.3-108.1,59.4-110.2z"/>
							<path class="st9" d="M131.7-4.4c1.6-0.7,3.6-1.8,4.6-3.8c0.8-2.5,1.7-4.8,0.4-7c-2.3-0.3-5.5,0.2-7.1,2.4c-1,2-1.9,3-1.6,5
								C128.5-5.9,129.7-4.5,131.7-4.4z"/>
							<path class="st10" d="M130.6-8.3c0.1,0.9,1.2,0.7,1.5,0l-0.3,0.1l0-1.5c-0.8,2.5-2.6-0.2-2.4-1.2
								C129.2-9.6,128.7-8.5,130.6-8.3z"/>
							<path class="st9" d="M198.2,143.1c8.4,3,14.6-5.2,22-7.7c-2.9-6.9,5.7-10.8,6-17.5c-1.7,0.4-2.5,2.9-4,3.9l1.9,0.8
								c-1.8,0.1-1.1,1.7-3,1.9l0.4,0.1c-1.2,0.8-1.3,4.9-3.1,2.2c-1.4,1.8-0.3,4.5,0.5,7c-3.8-2.4-1.7,3.2-4.9-0.4
								c-1,2,2.7,0.4,1.1,2.6c-3,4.1-9.1,5.1-14.2,5.4c0.7-1.2,3.4-0.8,3.1-2.9c-3.6,2.5-3.1-5.2-7-2.6c0.2-3.2,1.5-3.8,2.9-6.5
								c3.3,0.5,0.9,4.3,3.8,4.6c0.9-3.8,4.9-0.2,5.1-5c-1.4,3.4-2.8,2.1-5.5,3.9c1.7-2.6-1.9-3.8-0.7-5.3l2.2,1.6
								c-1.8-2,2.4-3.2,3.7-5.3l-0.4-0.2c0.1-1.3,1.3-0.6,1.9-0.8l-1.6-0.9c2.6-6.4,10.7-3.3,12.2-9.5c-3.2-0.2-4.7,5.1-8.4,2.3
								c-8.4,3.6-16.6,8.6-18.3,17.7C192.1,136.6,196.9,139.9,198.2,143.1z"/>
							
								<rect x="133.3" y="-10.6" transform="matrix(0.3902 -0.9207 0.9207 0.3902 90.546 116.9265)" class="st10" width="0.6" height="1.4"/>
							<path class="st10" d="M198.4,136.8c-0.2,1-1.6-0.9-1.2,0.8L198.4,136.8z"/>
							<path class="st9" d="M203,137.3c1.6,0-0.1-0.9,1-2c-1.3,1.5-2.6-0.2-3.7,0C201.6,135.7,202.8,135.5,203,137.3z"/>
							<path class="st9" d="M201.7,134.4l1.2-0.2L201.7,134.4z"/>
							<path class="st10" d="M200,127.4c0.8-1.9,1.6,0.9,0.3-1.4C200.4,126.9,199,126.5,200,127.4z"/>
							<path class="st9" d="M204.7,136.9c0.3-0.1,0.8-0.3,0.9-0.7C205,136.2,204.1,136.2,204.7,136.9z"/>
							<path class="st9" d="M208,138.9c-2.3-0.9,1.1-1.7,0.4-2c-1.7,1-2.3-0.3-2.7,1.8C206,140.1,207.4,138.3,208,138.9z"/>
							
								<rect x="206" y="128.6" transform="matrix(0.3902 -0.9207 0.9207 0.3902 6.1417 269.0398)" class="st9" width="0.3" height="2.6"/>
							<path class="st10" d="M206,125.4c-0.5-0.4-0.6,0.9-0.7,1.2C205.5,126.3,205.4,125.4,206,125.4z"/>
							<path class="st10" d="M205.2,123.6c0.2-1-0.7-0.3-1-0.2C204.6,123.5,205.1,124,205.2,123.6z"/>
							<polygon class="st9" points="211,135.8 209.9,136.9 211.6,137.1 							"/>
							<polygon class="st9" points="230.5,179.6 229.4,180.6 229.7,181.4 							"/>
							<path class="st9" d="M208.2,128.3c0.7-1.2,0.3-1.4-0.9-1.5C208,127.1,207.9,127.7,208.2,128.3z"/>
							<path class="st9" d="M170.5,28.4c6.6-2.2,8.8-9.3,9.1-15.4c-4.4-2.2-9.8-1.1-14,0c-2,1.8-2.9,5.6-2.8,8
								C164.4,25,165.7,29.5,170.5,28.4z"/>
							<path class="st9" d="M209.9,108.8c8.6-2.4,8.8-10.9,12.3-17.3c-1.1-1.1-3.8-1.5-2.9-3.8c-4.9,1.7-9.1-0.2-14.1-3.1
								c-3.2,0.4-6.5,2.4-7.4,6c-4.2,6.2,6.4,6.3,1.9,12.6C200.6,108.1,205.6,109.7,209.9,108.8z"/>
							<path class="st9" d="M213.4,126l1.5,0L213.4,126z"/>
							<path class="st9" d="M216.7,131.5l0.7,0.9L216.7,131.5z"/>
							<path class="st10" d="M203.9,98.3c1.3,0.1,0.7,0.9,0.3,1.4c3.4-1.5,8.1-8.1,9.7-4.4l-2.1,0.9c1.8,0.5,2.5,3.6,4.5,3.4
								l-1.1-2.6l-0.6,1.5c-1.7-0.2-0.4-2.3-1.2-2.9c1.6-2.2,4.4-0.6,3.6-4c-1.7-0.2-2.3,1.3-3.9,0.4c2.2-1.5,0.2-1-0.1-3.1
								l-0.6,1.5c0.3-0.1,0.4,0.2,0.6,0c-0.3,2.3-4,1.7-3.6,4.7c-0.7-2.5-4.5,0.4-6.6,0.6c2.5-0.7,2.3,1.8,0.8,3.4
								C203.8,99,204,98.6,203.9,98.3z"/>
							<path class="st10" d="M203.5,91.6c0.3-0.8-0.7-1.6-0.1-2.4C202.4,87.4,203.5,91.6,203.5,91.6z"/>
							<polygon class="st9" points="214.7,117.4 214.6,119.3 215.5,118.3 							"/>
							<polygon class="st9" points="240,176.2 238.8,176.3 239.4,176.4 							"/>
							<path class="st11" d="M208.6,96.9c-0.2-0.5-0.8-1.2-1.2-2l0.2,0.5l-2.1,0.3C206.2,97.3,208.8,95.9,208.6,96.9z"/>
							<path class="st10" d="M205.1,93.1l2.9-0.6L205.1,93.1z"/>
							<path class="st10" d="M209.7,99.6c-1.5-0.6-0.2-0.5-1.7,0.4L209.7,99.6z"/>
							<path class="st10" d="M173.7,14.5c-0.2-0.5,0-0.6-0.1-0.9l-1.6,0.7C172.6,14.3,173.1,14.8,173.7,14.5z"/>
							<path class="st10" d="M209,101.7l1-1.4L209,101.7z"/>
							<path class="st10" d="M206,90.9c-0.3-0.8-0.1-0.9,0.7-0.6c-0.6-0.7-1.4,0.3-1.8,0.1L206,90.9z"/>
							<polygon class="st10" points="211.8,102.4 210.6,102.3 210.8,102.9 							"/>
							<polygon class="st9" points="191.7,54.2 190.9,55.2 191.4,55.6 							"/>
							<polygon class="st10" points="211.5,100.1 210.9,100.3 211.5,101.6 							"/>
							<polygon class="st9" points="194.9,56.6 193.2,57.7 193.9,57.1 							"/>
							<path class="st9" d="M220.1,118.9l0.8-2.5C220.6,117.1,218.2,118.1,220.1,118.9z"/>
							<path class="st9" d="M260,171.1l0-1.5C259,170.3,259.6,170.3,260,171.1z"/>
							<path class="st9" d="M166.3-132.8c4.1,0.8,7.5-2.9,10-5.2c1.5-5.9,4.3-12.7-1.2-16.9c-1.8-1.4-4.1-2.3-6.8-2.7
								c-2.8,2.1-9.1,2-10.3,7.2C155.5-143.8,157.4-133.4,166.3-132.8z"/>
							<path class="st9" d="M227.8,5.6c4.8,0.2,6.2-4.5,8-6.8c1-3.5,1.2-8.3-2-10.7c-1.2-2-3.3-2-5.5-2c-3.1,0.7-7,3.3-7.9,7.1
								C217.7-1.3,221.9,6.3,227.8,5.6z"/>
						</g>
					</g>
				</g>
			</g>
		</g>
	</g>
	<g class="st12">
		<g>
			<g>
				<g>
					
						<rect x="-275.2" y="-17.5" transform="matrix(0.8907 -0.4546 0.4546 0.8907 -79.1168 -77.0995)" class="st7" width="150.6" height="287"/>
					<g class="st8">
						<g>
							<path class="st9" d="M-163-16.3c-0.2-1.6-2.9-2.7-3.8-0.9c2.7-0.9,1.8,1.4,1.7,2.6l-0.6-0.3c0.2,1.1,2,1.5,1.4,2.2
								c0.1-1.7,2.7-2.8,3.5-1c0.1,1.8-0.1,1.7-0.9,2.8l-0.5-1c0.7,0.6,0,3,1.6,2.8c-0.2,4.4-5.9,4.7-7.9,7.7c2-2,3.9-0.8,5.8-3
								c2.1-2.7,3.4-6.7,2.9-10C-161-15.3-162.8-19.2-163-16.3z"/>
							<path class="st9" d="M-172.1-12.2c-1,1.5-1.1,4.6,0,5.5c-3.3-2.9,4-3.9,1-6.4c1.2-1.4,2.6-2.6,3.7-4.3
								C-168.6-15.2-172.6-15.5-172.1-12.2z"/>
							<path class="st9" d="M-171.9-5.7c-0.7,0.4-1.1,1.2-1,2l1.8-2.1C-171.5-6-171.6-4.3-171.9-5.7z"/>
							<path class="st9" d="M-170.7-2.3c1.5-0.5,0.6-1.2,0.8-2.6L-170.7-2.3z"/>
							<path class="st9" d="M-199.3-6.7c-3.2,1.4-5.2,4.8-6,7.9l-0.1,5.2c1.7-0.4,3.1,0.3,1.9,1.7c-1.2,0.9-2.5,0.5-3.2-0.1
								c-0.1,1.2-2.1,1.7-1.1,3.2c-3.3-2.4-7.2-2.4-10.9-0.6l0.3,2.4c-5.8-1.2-4.8,4.5-9.1,6.6c-8.6,3.6,0.2,6.8-7.9,10.7
								c1.9-0.3,5.1-1.2,4.4,2c-0.8,2.1-4.3,1.1-5.3,3.5c2.3,2.4,8.6-4.6,7.7,2.4c-1.4,2.3-0.3,5.1-0.6,7.4
								c-5.4,4.2-4.2,13.1-11.9,15.6c3.1-1.7,3,2,4.3,3.2c-0.3,4.1-4,4.9-5.6,7.6c1.4,1.2-0.2,2.9,2.3,3.4c2.9-4.2,4.9-9.2,9-12.8
								c2.3,0.9,5.3-0.1,5.4,3c0.4,6.9,3.6,15.8,1.6,20.7c4.4-10.5,11-19.6,15.9-29.7c5.7,1.4-2.6,6.1,0.8,7.6c2.3-3.1,5-1,7.9-0.9
								l5.1-9.6c1.5-0.5,2,0.5,3.2,0.6c4.3-2.5-0.4-9.4,5.2-11.3c1-4-2-6.8-0.1-10.5c3.4-0.3-0.6,3.2,0.9,5.2c1.6-0.7,0.5-4,3-3.9
								c1.8,2.9-0.9,8,3.5,8.8c-0.3-2.9,3.4-1.3,3.9-3.7c2.4,0.2,1.5,2.5,0.7,3.6c2.4-0.3,1.1-3.7,2.7-4.3c1.6,0.8-0.6,4.2,2.2,2.6
								c-0.1-1.3,0.7-3.4,1.7-3.9c1.7,0.6,0,2.5,1.1,3.3c1.6-7.6,8.4-14.4,5.6-22.8c-1-3.5-3.8-6.7-6.7-7.9
								c-2.7,0.4-8.2-1.5-9.6,2.3c-2.6,0.7-4.5,3.4-6,5.4c-0.5-1.5-1.2-4.1-3.3-4.2c-2.2,4.3,2.7,8.4,0.6,13
								c-1.6-2.3-4.7-4.9-3.8-7.7c-2.2-2.6-7.2-1.4-6.6-5.6c-0.5,0.5-1.3,0.6-1.9,0.8c-1-1.5-0.7-2.1-1.6-3.8
								c4.6-1.2,9-6.9,7.2-12.2C-192.7-5.8-196.4-7.5-199.3-6.7z"/>
							<path class="st10" d="M-199.8-5.7c0,2.5-1.5,2-3,3.5l0.8-0.1c0.7,2.6-4,1-1.8,4.1c-0.1,0.7,0.5-1.5,1.5-0.5
								c0.4,1.2-1.5,0.5-0.8,1.6c0.5-0.5,1.9-1.3,2.8-1.6c1.1,1.3,2.5,1.5,4.1,2.6l-2,0c1.4-0.3,1.7,1.1,2.8,1.9
								c1.4-1.8,0.8-3.6,2.2-5.8c-1.4,2.3-0.3-1.4-2.2-1.6c1.7,0.6,2.4-1.3,1.4-1.8l-0.3,0.6l-1.3-1.4l-0.2,0.4
								c-2-3,0.1,2.3-2.2,0.4l1-2L-199.8-5.7z"/>
							<path class="st11" d="M-197.3-1.7c-0.8-0.4-0.1-0.8-1.2-1.1c0.3,0.9-0.4,0.3-0.8,0.1c0.5,2.5,2.1-0.2,2.9,1.7
								c0.8-0.6,1-1,1-2C-196.9-3-196.2-2.4-197.3-1.7z"/>
							<path class="st11" d="M-195.9,0.8c-0.1-0.3,0.6-2.2,1.3-1.6l-2.2,0.9L-195.9,0.8z"/>
							<path class="st10" d="M-164.7,18.2c0.1,2.8,1.2,3.1,1.3,6.7c-1.1,0.2-1.6-1.8-2.3,0.1l0.9-0.3c2.3,3.4-4.4,2.2-2.4,5.7
								l-0.5-0.5c-1,2,0.1,1.8-1.6,4.2c1.1-1.7,2-1,3.2,0.1c-0.4-2.2,3.4-3.2,1.3-5.5l-1.2,0.9c0.3-2.6,4.1-4.6,3.7-5.8l-0.7,0.4
								c0-2-1.6-5.6,0.5-5.5C-163.2,18.7-164.4,19.1-164.7,18.2z"/>
							<polygon class="st10" points="-196.6,5.6 -197.1,4.6 -197.9,5.7 							"/>
							<path class="st10" d="M-167.2,21.7l-0.2-0.6c-2.2,2.4,2.3,0.4,2.2,2.6C-165.7,22.2-165.3,21.4-167.2,21.7z"/>
							<polygon class="st10" points="-166.5,23.7 -166,24.7 -166,23.7 							"/>
							<polygon class="st10" points="-163.7,28.4 -162.7,27.4 -164,27.5 							"/>
							<polygon class="st10" points="-168.5,28.7 -167.8,27.8 -168.2,28.1 							"/>
							<polygon class="st10" points="-169.9,29 -168.8,27.3 -169.4,28 							"/>
							<path class="st11" d="M-166.3,31.1l-1-0.5L-166.3,31.1z"/>
							<polygon class="st10" points="-170.2,29.6 -170.7,30.1 -169,29.7 -170.2,30.1 							"/>
							<path class="st10" d="M-171.8,30.2l-1.2,1.9L-171.8,30.2z"/>
							<polygon class="st10" points="-165.7,34.9 -165.2,34.4 -165.4,34.3 							"/>
							<polygon class="st10" points="-170.5,34.4 -170.1,32.6 -170.2,32.5 							"/>
							<path class="st10" d="M-166.1,35.6c-0.5,1,0.4,0.2,0.7,0.1C-165.6,35.7-166,35.5-166.1,35.6z"/>
							<path class="st10" d="M-169.2,37.3l-1.3,0.1l0.8-1.6c-2.3,1.1-0.3,1.6,0.7,2.6c0.5-1.5,1.4-2.3,0.4-3.8
								C-168.6,35.6-168.5,36.4-169.2,37.3z"/>
							<path class="st10" d="M-171.7,34c-0.2,0.9,0.4,0.2,0.7,0.1C-171.3,34-171.4,34.2-171.7,34z"/>
							<path class="st10" d="M-173.5,36.4c-0.3,1.1,0.2,0.6,0.5,0C-173.2,36.3-173.2,36.3-173.5,36.4z"/>
							<polygon class="st9" points="-180,61.9 -179,61.9 -179.8,61.5 							"/>
							
								<rect x="-199.1" y="53.1" transform="matrix(0.8907 -0.4546 0.4546 0.8907 -46.0157 -84.6067)" class="st10" width="0.2" height="0.7"/>
							<path class="st10" d="M-227.6,60c0.1,0.3,0,0.5,0.2,0.6c0.5-0.5,1.3-1.1,1.1-1.7C-226.9,59.2-226.9,60.1-227.6,60z"/>
							<path class="st10" d="M-223.2,64.5c0.4-0.3,1.5,0.5,1.3,1.4C-220.8,64.8-222,64.7-223.2,64.5z"/>
							<path class="st10" d="M-222.9,68.9l-0.3,0.1L-222.9,68.9z"/>
							<path class="st9" d="M-230.2,92.9c-1,6.4-6.2,9.8-8.9,14.4c-3.7,0.4-7.1,4.6-7.2,8.3c0.9-0.8,1.1-4.2,3.1-3.1
								c-2.8,3.5,1.8,1.9-1.5,5.4l-1.8-0.9c1.5,4.8,4.2,8.9-0.1,13.9c-1.8,3.6-4.4,8.2-5.5,12.2c-0.8,2.1,0.9,1.7,2.3,1.9
								c6-6.9,6.3-18.2,13.4-22.8c4.6-3.6-1.6-7.1,0.8-10.8c0.6,0.3,0.1,0.8-0.1,1.2c0.4-2.3,3.3,1.4,2.7-1.4
								c-0.2,3.4,1.7,6.9-0.1,9.9c1.9-11.5,4.6-23.1,8.1-33.5C-227.4,88.3-227.2,92.4-230.2,92.9z"/>
							
								<rect x="-232.3" y="100.4" transform="matrix(0.8907 -0.4546 0.4546 0.8907 -71.2604 -94.517)" class="st13" width="0.2" height="1.1"/>
							<path class="st9" d="M-205.1,117.9c-3.3,3.5-0.8,7.8-1.1,11.9c1.8-0.1,2.4-2.3,4-2.4c-1,0.5-1.3,0.1-2.5-0.5l0.4,0.2
								c0.2,0.6-0.5,1-1,1c-1.2-1.6-1.9-4.5-1.3-5.7l1.8-0.6l-1.7-0.1c0.9-1.8,1.8-4.1,3.7-4.8c0.5,1.5,2.3,3.4,4,2.3
								C-199.8,116.8-203.1,114.9-205.1,117.9z"/>
							<path class="st13" d="M-235.5,104.3c2.1,0.8,0.4-1.8,2.4-1.8C-234.6,101.5-235.1,104.5-235.5,104.3z"/>
							<path class="st9" d="M-200.4,125.2c0.1-1.7,2.2-2.9,1.7-4.8C-198.3,123.1-201,122.5-200.4,125.2z"/>
							<path class="st13" d="M-235.4,107.6l0.9-0.3c-0.9,1.3,1.9,2.2-0.4,3.3c0-0.5-0.5-0.5-0.8-0.9c0,2.5,3.1,0.8,3.2-0.4
								c-1.3,0.1-0.7-2.1-0.8-2.9c1.1,0.3,2.8-0.1,1.8-2.1C-232.3,104.7-233.7,107-235.4,107.6z"/>
							<polygon class="st9" points="-201.7,126.8 -200.6,125.6 -201.4,125.7 							"/>
							<path class="st13" d="M-235.4,108.4l-0.9,0.3L-235.4,108.4z"/>
							<polygon class="st13" points="-240.2,112.4 -238.5,112 -239.2,111.9 							"/>
							<path class="st14" d="M-234.7,114.4c1.1,0.8-0.6,2.2,1.1,1.8C-233.1,114.8-235.3,115.1-234.7,114.4z"/>
							<path class="st13" d="M-238.4,116.3c1.8,0.4,0.7-0.4,1.8-2.1L-238.4,116.3z"/>
							<polygon class="st13" points="-242.9,112 -243.1,110.9 -243.1,111.4 							"/>
							<path class="st13" d="M-241,114l0.4,0.2l-1.8,1.6c2.7,2.1,1.6-1.7,2.7-2.4C-239.9,113.8-240.8,113.1-241,114z"/>
							<polygon class="st13" points="-237,118 -236.6,116.7 -237.4,117.3 							"/>
							<polygon class="st13" points="-244,118.4 -243.8,117.5 -244.6,118.1 							"/>
							<path class="st9" d="M-237,126.2c-1.6,3.2-3.5,6.4-1.4,10c1.1,0.8,1.3,2.9,3,3.3c2.7-1.4,5.5-2.4,6.8-6
								c0.6-2.7,1.1-5.2-0.8-7.6C-231.8,122.9-234.8,124.9-237,126.2z"/>
							<path class="st9" d="M-211.3,143.8c-0.8,1.1,0.2,2.6,1,3.5c1.3,0.4,2.4-0.3,3.4-1.3C-205.5,143.1-210,141.2-211.3,143.8z"/>
							<path class="st13" d="M-233.2,132.4l2.2,0.1C-232.5,132-231.9,129.8-233.2,132.4z"/>
							<polygon class="st13" points="-243.4,127.5 -243.1,126.1 -243.7,126.3 							"/>
							<path class="st13" d="M-234.7,131.9c-0.3-0.9-4,1-2.7-1.6c-1.4,0.8,0.1,3.3-0.4,3.3l1.4-1.3c0.9,1.7-1.2,1.9,0.3,3.4l1.8-0.6
								c-1.7-2.1-1.5-1-0.3-3.4L-234.7,131.9z"/>
							<path class="st13" d="M-233.6,135.7l-2.6,1.2c2.3,0.9,2.6-2.2,4.4-0.3c-1-1,1.1-3.2-1-3.5
								C-233.6,134.7-234.1,133.7-233.6,135.7z"/>
							<polygon class="st13" points="-245.7,130.5 -244.9,129.4 -245.7,130 							"/>
							
								<rect x="-244.9" y="131.5" transform="matrix(0.8907 -0.4546 0.4546 0.8907 -86.8034 -96.868)" class="st13" width="0.2" height="1.1"/>
							<path class="st9" d="M-178.3,179.1c-2.5,10.7,4.8,19.4,7.5,29.2c1.8,0.9,3-0.5,3.6-1.7c0.9-4.8-3.6-8.6-2-13.7
								c-0.6-5.6-1.4-11.4-6-15.5C-176.5,177-177.8,177.6-178.3,179.1z"/>
							<path class="st13" d="M-249,141c0.3-0.6-0.9-1.2-1.3-0.4c0.8,0.4,2.5,2.5,2.8-0.1L-249,141z"/>
							<path class="st13" d="M-251.3,143.1c0.6,2.8,1-1,2.4,0.7C-249,142.5-250.5,142-251.3,143.1z"/>
							<path class="st9" d="M-209.1,182.3c-2.3,1.6-1.3,5.1-0.6,6.9c1.4-2.8-0.1-4.3,0.4-5.8l-0.3,0.1c-0.1-0.8,0.4-1.3,0.8-1.1
								c1.7,0.1,0.2,2.1,1.8,2.4c0.3-1.6,1.7-0.4,1.8-2.1c2,0.5,0.6,3.3,1.1,4.3c-0.6-0.3-2.9,3.2-6,2.4l-0.1,3.2
								c2.3,0.4,1.6-2.7,4.3-2.5c1.6-2.2,3.2-5.3,1.8-8.3C-205.8,180.3-207.6,180.8-209.1,182.3z"/>
							<path class="st15" d="M-206.9,182.4c0.7,0.1,1.6,0.3,1.4-0.8L-206.9,182.4z"/>
							<path class="st9" d="M-208.6,242.3c-3.7,3.3-0.7,7.6-1,11.2c1.5-2.5,4.6-3.1,5.4-6.2c0.1-1.7,0.6-3.7-0.8-4.9
								C-206,241.2-207.5,242.1-208.6,242.3z"/>
							<path class="st10" d="M-208.3,243.7c-0.1,1.7-0.9,4.8-1.6,5.6c0.3,2.4,3.4-0.8,1.3,1.9c1-0.5,1.5-2.5,3.2-2.4
								c-1.9-1.7-0.4-3.7,0.6-4.7C-206,242.6-207.1,243.8-208.3,243.7z"/>
							<path class="st9" d="M-209.4,273.5c-1.8,2.6-1.4,5.7-0.2,8.6c2.1,0.3,3.5-2,4.9-3.7c-0.3-1.9,0.7-3.4-0.9-5.2
								C-206.8,272.3-208.2,272.6-209.4,273.5z"/>
							<path class="st10" d="M-205.7,275.1c-1.1,0.7-1.1-1.8-2.2-0.1l0.4,0.7c0.4-0.3,2.1-0.2,1.8-1.1
								C-205.7,274.6-205.6,274.9-205.7,275.1z"/>
							<path class="st10" d="M-206,278c0.5,0,1.4-0.8,0.6-1.2L-206,278z"/>
							<path class="st10" d="M-209.9,278.4c2.7-1.9,0,3,2.8,1.9l-1-1l0.3-0.1c0.2-1.4-1.4-1.7-2.3-1.9L-209.9,278.4z"/>
							<path class="st9" d="M-193.2,268.4c-0.9,1.8-1.8,6,1,6.3c1.8-0.1,3-2.5,3.2-4.3c-0.1-1.3-0.2-2.1-1-3
								C-191.2,266.4-192.5,267.5-193.2,268.4z"/>
							<path class="st10" d="M-190.1,271c-1.2,0.4-1.2-1.6-2.3-1.9l-1.1,2.2c2.4-2.3-0.4,2.3,2.2,2.1c1.2-0.4,1.4-1.3,1.6-3.2
								L-190.1,271z"/>
						</g>
					</g>
				</g>
			</g>
		</g>
	</g>
	<g>
		<g>
			<path class="st16" d="M53.6-38.9"/>
		</g>
	</g>
	<g>
		<g>
			<g>
				<g>
					<g class="st8">
						<g>
							<path class="st9" d="M-140.4-238.1c0,0.4-0.3,0.6-0.5,1l0.4,1.2c-0.4,0.4,0.3-2,1.2-2.4
								C-139.8-237.5-140.1-238.3-140.4-238.1z"/>
							<path class="st9" d="M-116.7-376.5l-0.3-0.1l-0.4,1.5C-116.9-374.8-116.2-376-116.7-376.5z"/>
							<path class="st9" d="M-118.8-375.9c-0.5-1.5,0,0,0.2,0.5l-0.8,1l-0.9-1.8l0.4-0.6l-0.4,0.6c-0.4-0.5,0.2-1.5,0.2-2.2
								c1-0.7,1.6,0.8,2.1,2.1l0.4-0.4c-0.9-2-2.5-1.7-4.4-1.7c-0.7,0.5-1,1.6-1.2,2.4c1.1,2.7,3.2,2.1,5.2,1.2L-118.8-375.9z"/>
							<polygon class="st10" points="-121,-374.4 -120.6,-374.7 -121,-376 							"/>
							<path class="st9" d="M-172.9-226.6c-1.4,0.6-1.8,3.5-1.7,5.5c0.7,0.4,0.8,2.2,1.5,2.5c0.1-0.4,0.6-3.7,1.4-2.4
								c-1,0.9,0,2.5,0.6,2.8l-0.4-1.2c0.8-1.4,1.2-0.2,2-1.1l-0.4-1.2l1.1-1.3C-170.1-224.5-170.9-227.1-172.9-226.6z"/>
							<path class="st9" d="M-149.8-337.9c-2-0.8-3.4-3.3-5.6,0.5c-0.7,2.3,0.6,4.1,1.4,4.9l2.8,0.5l-0.1-0.5l1.5-1.9l-0.1-0.5
								l1-0.9C-149.8-335.9-150.5-337.4-149.8-337.9z"/>
							<path class="st10" d="M-152.8-337.6c0.5-0.8,1.1,0,1.5-0.2c-0.1-0.7-0.5-1-0.9-1.3c-1.1,0.7-0.8,3-1.1,4
								c0.5,1.4,2.2,0.2,2.5,1.1C-152.4-335.1-150.5-337.4-152.8-337.6z"/>
							<path class="st11" d="M-153.1-335.9c0.2,0.3,0.4,0.5,0.2,0.9l-0.1,0.6l0.6,0.1l0.1-0.6l-0.4-0.1l0.9-1.4L-153.1-335.9z"/>
							<path class="st9" d="M-179.7-226.7c-0.4,0.4-0.4,1.7-0.6,2.6c0.3,2.1,1.4,1.8,2.4,2c-0.4-1-1,0-1.1-1.8l0.9-2.1
								c0.1,0.9,0.6,1.7,1,0.9C-177.7-226.4-178.5-227.9-179.7-226.7z"/>
							<path class="st9" d="M-158.2-356.7l-0.8,1.4l1.2,1.8c-0.2-0.3-0.4-0.5-0.2-0.9l0.5-0.6l0.7,2.4c0.4-1,0.9-0.3,1.3-0.4
								l-0.9-0.2l0.2-0.9l-0.4,0.4l-0.2-2.3l2.9,0.5C-155.3-355.9-156.5-357.7-158.2-356.7z"/>
							<path class="st9" d="M-275.3-237.4c-0.6-3.5,1.3-1.4,1.7-2.7c-0.5-1.1-1.4,1.4-1.9-1c0.3-1.1,1.3-2.3,2.1-1.2l0.2,0
								c-1.2-1.9-3.6,0.4-4.4-4c0.5,0,0.9-1.8,0.4-2.7c-1.7-0.1-2.5-3.4-4.1-4l0.6-1.1c-1.3-0.8-3-0.1-4.5-0.2
								c0.8-3.8-2.5-0.2-2.5-3.6c-0.6,2.5-1.7,3.9-2.4,2.4c-1.5,2.3-3.4,6.4-2.9,11.2c-0.5,2.7,0.6,3,1,6.3l0.2-0.7
								c0.2,1.1,1,2.1,0.5,3.3c0.8,0.4,1.6,1.2,2.1,2.9c0.2,2.2,1.2,4.3,1.9,3.6c0.3,0.4,0.3,1.1,0.3,1.5c0.5,0,0.9,0.2,1.2,1
								c2,1.4,4.1,1.4,6.2,5.3l-0.7-0.8l0.3-1.8l1.8,3.6c-0.3-2-1.6-3.6-1.2-5.7c0.6-1.4,1.3,0.1,2,0.3l-0.7-1.1
								c0.6-1.8,1.8,1.2,2.7-0.6c-1.3-3-0.4-4.8,0.5-6.4c0.8,0,1.5-0.1,2.3-0.1C-273.7-233.4-275-234.8-275.3-237.4z"/>
							<path class="st9" d="M-174.8-342.2c0.3,0.3,0.2,0.9,0.1,1.6c-0.7,1.5-1.5,0.9-2.2,1.2l-0.1-1.6c0.8-1.4,0.9,1,1.6-0.9
								c-0.2-2.5-2-0.3-3.1-0.4c-1.1,3,0.8,3.4,1.8,3.4c1.2,1,2.1-1,3.1-1.6C-173.8-340.7-174-342.8-174.8-342.2z"/>
							<path class="st9" d="M-194.9-336.4c-1.5,0.9-3.1,3.8-2.8,5.4c-0.4,1.3,0.3,2,0.3,2.7c-1.4,0.3-3.3,2.5-2.6,5.7
								c3.9,4.4,8.5-1.4,11-3.6l-0.6-1.6l1.3-0.9C-189.7-333.6-191.8-336.5-194.9-336.4z"/>
							<path class="st9" d="M-198.3-300.8l0.5,0.1c-0.7-0.5-1-2.1-1.5-3.3c0.4-0.6,0.7-1.2,1.2-1l0.2,0.5c-0.1-0.9-1.9-0.2-1-2.8
								l0.4-0.4c-2.5,0.4-2.5-4-4.8-3.6c-1.4-4.3-4.1,0.3-5.6-0.1c0,1.8-1.1,2.3-1.7,3.6l-0.8,9c0.8,1,1.1,2.8,1.7,4.8
								c-1.4,1.2-3,3.5-3.7,6.1c-1.4,4.9,1.2,5.6,1.5,9.2c1.2-1.2,2.3,0.2,3.1,1.4l0.4,0.9c-0.6-4,2.4-2.4,3.6-3.2l0.7,0.1
								c-0.3-0.9-1.2-0.8-1-2.3l1.8,0.2c-0.3-0.3-0.7-0.3-0.9-1.2l0.7-1.5c-0.4,0.2-0.5-0.7-0.6-1.2c0-0.7,0.4-1.1,0.7-1.5l-0.7-1.2
								c0.8-1.2,1.6-1.4,1.5-3.6c0.9-0.2,1.8-0.4,2.7-0.6l-0.6-1.2c0.4-0.8,0.9-1.2,1.4-0.9l0.2,0.5l-0.4-1.6l1.9-0.2
								C-197.6-297.6-200-298.6-198.3-300.8z"/>
							<path class="st9" d="M-209.9-214l0.6-1c-1.1-1.9-1.6-7.4-4.2-7.2c-1.5-0.4-2.5,1.3-4.1,2.7c-1.2,5.4-0.5,8.3,0.6,12.2
								c1.2-1,2.8,2.3,4.1,1.9l0.2,0.7l-0.5-1.6c1.1-0.6,2.1-1.3,3.2-1.9C-210.1-209.8-209.7-212.2-209.9-214z"/>
							<polygon class="st10" points="-203.5,-289.7 -203.4,-290.1 -204.2,-290.2 -204.2,-289.7 							"/>
							<path class="st9" d="M-217.2-305.2c0,0.4,0.2,0.9,0.2,1.1c-0.3-0.9,0.7-2.8,1.1-1.5C-216.1-306.2-217-306.7-217.2-305.2z"/>
							<path class="st9" d="M-226.8-303.6l0.3-0.6c0.3,0-1.3-1.2-0.6-2.7c-2.7-3.6-4.2,7-6.7,0.8c-1.7,3-4.1,1.4-4.8,6.2
								c-0.2,3.7,1.4,5.7,2.9,6.9l2.3,1.2c-0.1-0.9,0.5-1.3,0.8-1.1l1.1,0.1c-0.6-3.1,1.6-1,2.2-3l-0.3,0c0.4-3.3,2-1.4,2.8-4
								l0.9-0.6C-225.7-302-226.5-302.5-226.8-303.6z"/>
							<path class="st9" d="M-256.4-273.9c0.7-0.7-1.3-0.6-0.2-2.2c-1.1,0-1-2.6-1.8-3.1l0.2-0.4c-1.8,1.6-1.4-5.5-4.2-2.2
								c-1.3-3-2.2,2.6-3.3,1.6c-1.5,4-1.5,6-0.7,10.6c1.1,3.5,0.8,1.1,2.3,4.8l0.8,1.5c0.4-3.5,1.4,3.7,2.1,0
								c0.8,0.2,1.3,1.5,2.2,1.1c-0.3-0.4-0.3-1.1-0.3-1.5c0.5-1.1,1.2-0.4,1.7-0.7l-0.2-1.5l1.2-1.1c-0.3-0.2-0.3-0.9-0.3-1.5
								l0.8-0.5C-255.6-271.7-257.9-271.5-256.4-273.9z"/>
							<polygon class="st10" points="-261.6,-270.1 -259.8,-269.7 -260.8,-270.1 							"/>
						</g>
					</g>
				</g>
			</g>
		</g>
	</g>
	<g>
		<g>
			<g>
				
					<rect x="-355.7" y="-218.8" transform="matrix(0.9997 -2.454123e-02 2.454123e-02 0.9997 3.0183 -7.7494)" class="st7" width="83" height="183.9"/>
				<path class="st4" d="M-334.8-180c-3-12.1,13.3-11.1,5.6-26.8c-8.2,6.4-8.5-3.3-9.7-5.1c-8.6,6-10.5,20.1-15.5,31.5
					C-347.9-174.9-342.6-176-334.8-180z"/>
				<path class="st4" d="M-320-49.2c-3-12,13.3-11.1,5.6-26.8c-8.2,6.4-8.5-3.3-9.7-5.1c-8.6,6-10.5,20.1-15.5,31.5
					C-333.1-44.2-327.8-45.2-320-49.2z"/>
				<path class="st4" d="M-291-94.7c3.5,7.5,10.8-1.8,17.1,0.4c2-9.9-2-14-11.9-12.5C-290.1-105.5-285.9-95.3-291-94.7z"/>
				<path class="st4" d="M-330.4-130.4c-6.3-3-10.6,6.9-16,9.6C-340.3-119.1-335.4-124.9-330.4-130.4z"/>
				<path class="st4" d="M-332.6-110.7c-3.6-4-5.8,0.1-8.3,3.1c-2-0.9-1.3-2.1-0.5-3.4c-7.5-2.5-4,7.3-3.8,9.4
					C-339.7-99.9-331.8-106.2-332.6-110.7z"/>
				<path class="st4" d="M-327.7-100.1c4.4,0.4,5.2-2.9,9.9-2.2c2.1-11.7-7.7-10.4-9.5-12.5C-332.8-113.9-329.6-101.9-327.7-100.1z"
					/>
				<path class="st4" d="M-300.3-34.5c6.9-1.1,4.8-11.7,7.8-17C-298.5-49.4-299.2-41.8-300.3-34.5z"/>
				<path class="st4" d="M-309.7-51.9c5.2,1.3,4.8-3.4,5.1-7.2c2.1-0.4,2.3,1,2.4,2.5c7.6-2.2-0.9-8.3-2.2-9.9
					C-309.9-64.9-312.8-55.2-309.7-51.9z"/>
				<path class="st4" d="M-311.4-81.4c7.6,0.4,13.6-0.8,17.3-4.5c3-11.6-7.7-10.2-16.9-10.2C-311.2-91.2-311.3-86.3-311.4-81.4z"/>
				<path class="st4" d="M-295.9-112.8c-0.8-4.2,2-4.6,5-4.8c1.1-5.9-4.3-5.4-2.1-12.3c-7.2,2-7.6,2-14.7-0.4
					C-312.4-121.6-310.7-109.7-295.9-112.8z"/>
				<path class="st4" d="M-292.9-137.3c-4-5.1,15.8-52.8-8.4-56.6c10.3-10.4,2.3-26.2-14.1-24.9c-12.7,14.3,7.1,28.4-10.6,34.1
					C-324.8-160-317-144.7-292.9-137.3z"/>
				<path class="st4" d="M-349-140.7c16.6,7.3,30.5-9.8,42.1-16.1C-316.6-157-332.1-141.5-349-140.7z"/>
			</g>
		</g>
	</g>
	<g>
		<g>
			<g>
				
					<rect x="242.2" y="145" transform="matrix(0.9997 -2.454123e-02 2.454123e-02 0.9997 -6.1231 7.2023)" class="st7" width="96.4" height="216.2"/>
				<path class="st4" d="M307,294.3c2.3,5,7.2-1.2,11.4,0.3c1.3-6.6-1.3-9.4-8-8.4C307.6,287.2,310.4,294,307,294.3z"/>
				<path class="st4" d="M300.5,289.3c3.2-6,2.2-5.8,2-14.7c-9.4-4.4-15.4,2.1-18.3,12.6C289.3,283.2,291.7,291.9,300.5,289.3z"/>
				<path class="st4" d="M314.2,265.1c2.4-0.8,4.2-2.3,6.6-3.1c-0.2-1.9-2.9-1.5-4.9-1.8c-0.3-1.4,0.7-1.5,1.7-1.6
					c0.3-1.4-0.6-1.6-1.6-1.7c-1.1,0-2.2-0.1-3.3-0.1C311.3,261.5,315,261.2,314.2,265.1z"/>
				<path class="st4" d="M305.4,356.4c0.4-8,11.2-23.5-5.9-26.3c-1.2-4.7,2.4-4.2,1.8-8.1c-4.6,1.2-4.2-2.4-8.1-1.8
					c0.9,2.9-2.2,9.5,1.4,9.8c-4.9,4.9-11.1,8.5-18.3,11c2.1-5.6,5.1-7-3.1-8.2c5.7-5.4,0.8-21.2-7.6-23.1c1.3-1.4,1.8-3.6,1.8-6.5
					c-3.2-1.7-5.6-4.2-8-6.7c-6.4-1.1-4.3,6.6-8.4,8c-0.4,4.1,2.4,5.2,4.7,6.7c-0.5,2.9-2.9,3.7-6.6,3.1c-1.4,5.6,1.6,6.9,3,9.9
					c-5.3-1.1-7.6,0.9-11.5,1.4c-2.6,9.6,5.7,11.3-0.5,21.2c7.3,5.7,19.3,6.3,26.1,2.3C274.4,361.4,291.7,365.1,305.4,356.4z"/>
				<path class="st4" d="M313.1,242.2c-2.8,0-4.2-1.3-4.8-3.4c3.2-4.5,11-4.1,14.9-7.8c-2.1-3.5,0.9-4.8-1.4-9.8
					c5.7-1.2,6.2,2.6,11.4,1.9c-6.2-17.5,19-42.8-0.4-49.1c16-23.9-30.4-17.9-41.8-28.8c-9.5-1.6-13.4,2.6-19.7,4.4
					c0.3,10.3-10,12.3-10.4,25.9c2.7,2.2,6.3,3.6,6.3,8.3c6.9-2.6,18.3,6.1,16.4-2.9c3.8,1.2,6.8,3.1,6.3,8.3
					c-2.1,4.9-5.6-1.9-9.8-0.2c-2.3,4.9-7.3,8-3.6,14.6c20.6-1.1,10.2,18.9,14.1,26.5c-2.4,1.4-11.5,1.6-18-0.4
					c-5.7,11.4,5.4,17.4,10.9,23.1c0.1,6.3-7.7,4.2-6.8,11.3c-7.8-8.3-15.9,1.3-27.7-4c0.1,11.9,4.1,10.1,4.4,21.4
					c12.4-0.1,14.1-2.2,26.1,2.3c3.9-3.1,8.5-5.6,6.9-14.5c3.8,0.1,7.6,0.2,11.4,0.3c7.2-10.7,11.9-29.1,29.9-18.9
					c6.5-4.3,6-8.5,5.4-17.9C327.3,229.1,316.1,233.8,313.1,242.2z"/>
			</g>
		</g>
	</g>
</symbol>
<title>texture-paper-s</title>
<polygon class="st0" points="618.3,26.9 618.1,26.6 618.5,26.7 "/>
<use xlink:href="#paper-scroll-modal"  width="715.9" height="782.8" id="XMLID_289_" x="-358" y="-391.4" transform="matrix(1 0 0 -1 357.9617 391.4014)" style="overflow:visible;"/>
</svg>
