<?xml version="1.0" encoding="utf-8"?>
<!-- Generator: Adobe Illustrator 23.0.3, SVG Export Plug-In . SVG Version: 6.00 Build 0)  -->
<svg version="1.1" id="Ebene_1" xmlns="http://www.w3.org/2000/svg" xmlns:xlink="http://www.w3.org/1999/xlink" x="0px" y="0px"
	 viewBox="0 0 680 105.3" style="enable-background:new 0 0 680 105.3;" xml:space="preserve">
<style type="text/css">
	.st0{fill:#7C5E49;}
	.st1{fill:#FFE5B0;}
	.st2{fill:#CCA97A;}
	.st3{fill:#EECE94;}
</style>
<g id="final-design_4_">
	<path class="st0" d="M11,3.7c0,0-2,0-1.9,1c-3.3,1.7-4.9,4.6-6,10.7c-3.7,12.9-3.3,28.4-2.5,41.9c0.4,8.3,0.6,16.6,1.8,24.9
		c1.5,0.4,3.9-0.4,4.9-2.3c1.9-8.6,5.7-33.1,5.8-37.1C13,41.2,11,3.7,11,3.7z"/>
	<path class="st1" d="M659.8,3.5c0.6-0.9,0.2-2,0.4-2.9c-1.5,0-3.1-0.2-4.6-0.2c-18.6,0.1-37.1-0.9-55.7-0.1
		c-21.3,0.9-42.7,0.7-64,1.3c-26.4,0.5-52.8-2.1-79.3-1.4c-15.6,0.4-31.2-0.6-47,0c-20.1,0.8-40.2,1.9-60.3,2.7
		c-20.5,0.8-41.1-3.7-61.6-2.6c-15.1,0.8-49.2-0.4-64.4,0.4c-1.7,0.1-9.1,8.6-9.1,8.6s-2.4-4.6-8.5-8.3c-13.9,0.6-27.9,0.8-41.9,1.5
		c-17.6,0.9-35.3-2.2-52.9-1.2c-15.5,0.8-31-0.6-46.6,0.1C48.7,2.1,32.8,1,17,1.8c-2.2,0.1-4.2,0.3-6,1.9c-0.4,1-0.6,2.2-0.5,3.4
		c1.3,0.7,0.9,1.7,0.9,2.6c-0.5,5.8-0.6,11.5-0.2,17.2c0.2,3,6.9,59,6.9,59l333.6-9.2l201.8-3.6l101.9,0
		C655.4,73.2,658.6,4.6,659.8,3.5z"/>
	<path class="st0" d="M679.9,30.8c-1.9-1.9-0.2-4.1-0.9-6.2c-4.9-0.1-9.8,0.5-14.5,1.8l-15.4,18.5c-9.2,1.3-17.8,1.6-26.4,2.4
		c-4.7,0.5-9.4,1.3-14.1,0.8c-1.4,0-2.7-0.2-4.1-0.6c-2.2-0.7-4.6-0.7-6.8-0.2L571,51.8c-5.4,1-10.8,1.7-16.1,2.8
		c-1.3,0.2-2.7,0.4-4.1,0.3c-8.4,0.3-16.8,0.4-25.2,0.7c-6.6,0.3-13.2-0.5-19.6,0.5c-7.2,1.1-14.3-0.5-21.4,1.1c-2,0.4-4,0.3-6-0.1
		c-3.7-0.4-7.3,0.8-11,0.6c-5,0.1-9.8-0.3-14.7,0.7c-8-0.5-15.8,1.1-23.8,0.7c-2.2-0.2-4.4,1-6.8,0.7c-8-0.1-15.8,0.8-23.7,1.2
		c-5.2,0.3-10.4,1-15.5,0.8c-7.2-0.4-14.3,0.7-21.5,0.7c-4.5,0.1-9.2,0-13.6,0.6c-6.1,0.8-12.3,0-18.3,0.7
		c-6.2,0.7-12.3-0.3-18.3,0.7c-6.4,1.1-12.8-0.6-19.1,1.3c-0.2,0-0.3,0-0.5,0c-7.6-0.6-15.3,0.4-22.9,0.7
		c-5.6,0.2-11.2,0.1-16.8,1.2c-3.7,0.5-7.3,0.7-11,0.6c-4.9,0.2-9.8,0.6-14.5,1.1c-6.6,0.7-13.1,0.1-19.7,0.5
		c-8.6,0.5-17,1.1-25.6,1.3c-7.6,0.3-15.1,1-22.8,1.4c-8.4,0.4-16.7,1.2-25.1,1.4c-1.3,0.1-2.7,0.4-4,0.7c-3.8,0.2-7.7-0.8-11.4,0.9
		c-4.9,2.2-10.2,0.8-15,1.6c-5.1,0.8-10,0.1-15.1,0.6c-6.4,0.6-12.7,0.2-19,1.4c-0.3,0-0.6,0-0.9,0c-7.1-0.6-14,1.2-21.1,0.6
		c-7.4-0.6-14.6,1-22,0.6c-1.6,0-3.3,0.7-4.5-1.4c-1.6,1-2.8,1.6-2.8,1.6c1.3,7.4-1.2,11,1,24c3.9-0.2,17.4,0.6,21,0.3
		c4.1-0.3,8.2-0.8,12.2-1.4c5.9-0.7,11.8-1.3,17.5-2c5-0.7,9.9-1.4,14.9-1.9c6.8-0.7,13.5-2,20.2-2.7c4.7-0.6,9.3-1.1,14-1.9
		c6.4-1.1,13-1.4,19.4-2.1c5.9-0.7,11.4,1.9,17.3,1.4c3.3-0.3,22.9-2.5,29.5-3.4c5.4-0.7,10.9-1.3,16.2-1.9c5.7-0.7,11.5-1.2,17.1-2
		c5.2-0.7,10.6-1.3,15.8-1.9c8.8-0.8,17.6-1.1,26.5-1.5c4.7-0.2,9.5-0.1,14.1-0.6c9.5-0.8,18.9-0.9,28.3-1.4
		c8.1-0.4,16.1-1,24.2-1.4c7.6-0.4,15.2-0.8,22.8-1.5c9.6-0.9,19,0.1,28.5-0.2c26.6-1.2,53.1,0.1,79.7,0.4c2.5,0,5-0.8,7.2-2.4
		c3.5-2.3,6.9-2.5,11-0.4c2.5,1.2,5.5,0.1,8,0.2c4.9,0.3,9.7,0.9,14.5,1.5s9.6,0.4,14.5,1.7c3.3,0.6,6.6-1.5,9.9-1.6
		c6.3,0.4,18.1-2.2,24.3-2.3c8.6,0,12,2.7,19.1,2.9s18.1-2.1,26.6-1.9c5.3,0.2,10.5,0.8,15.8,1.8c3.2,0.6,6.4,0.6,9.5,0.9
		c4.3,0.3,8.5,0.9,12.7,1.5c6.8,0.8,13.6,1,20.3,2.7c0.8,0.1,1.5,0.2,2.3,0.2c3.8,0.1,8.5-0.2,12.1,0.9c0.7-9.2-1-16.6,1-24.7
		c0.3-0.9,0.3-2,0-2.9c-0.5-1.5-0.3-3.2,0.4-4.5c2.5-0.6,5.4-0.2,8.3-1.7c0.8-3.4,2.8-6.8,2.6-10.9c0-3,0.6-6,2-8.5L679.9,30.8z"/>
	<path class="st2" d="M675.1,7.4c-0.5-1.5-0.1-3-0.9-4.6c-0.8-1.7-2.3-2.7-3.8-2.2l-0.2,10.7c-3.6,0.7-6.2,2.9-8.9,5
		c-2.7,1.9-5.7,2.9-8.8,3.3c-6.6,0.8-13.2,1.9-19.7,2.9c-6.3,1-12.6,1.8-18.8,2.6c-7.3,1.1-14.7,2.2-21.9,3.4
		c-7.8,1.2-15.5,2.5-23.2,3.9c-9.4,1.6-18.8,3-28.1,4.7c-5.5,1-11.2,0.9-16.7,1.7c-6.2,0.8-12.4,1-18.4,2.1
		c-2.9,0.5-5.7,0.7-8.6,0.8c-7.3,0.3-14.5,1.6-21.8,1.8c-4.7,0.2-9.5,0.1-14.1,0.5c-10.1,0.8-20.1,0.8-30.2,1.5
		c-6.8,0.4-13.5-0.2-20.2,0.5c-10.5,1-20.9-0.3-31.2,0.5c-6.6,0.4-13.2-0.2-19.7,0.5c-4.4,0.5-8.9-0.1-13.2,1.3
		c-0.6,0.1-1.2,0.1-1.8,0.1c-6.6-0.1-13.1,1.1-19.5,1.3c-4.9,0.2-9.9,0.5-14.5,1c-5.5,0.6-11-0.3-16.3,1.2c-0.3,0-0.6,0-0.9,0
		c-6.5-0.6-12.8,0.5-19.2,0.6c-8.2,0.3-16.4,0.2-24.6,1.4c-0.3,0-0.6,0-0.9,0c-10.2-0.8-20.5,0.4-30.7,0.5
		c-49.4,0.9-98.7-0.9-148-1.3c-6.6-0.1-12.9-1.4-19.4-2.5c-3.2-0.6-6.4-0.7-9.4-1.2c-7.4-1-15-2.1-22.4-3.2
		c-1.8-2.9-3.7-5.7-5.5-8.6c-1.1-1.6-0.9-3.3-0.8-5.1c0.1-1.2-0.2-2-1.7-2c-2.2,2.7-1.3,6.2-0.9,8.9c0.3,3.7,0.5,7.4,0.4,11.1
		c-1.8,0-1.8,1.2-1.8,2.3c-0.1,3-0.1,6.1-0.2,9.1C8,67.6,8.3,73.5,6.4,79.9c-1,1.4-2.5,2.1-4,1.8c0.3,2.8,0,5.4,2.3,7.5
		c1.3-0.9,3.1-0.7,4.7-1.1c3.9-1.4,9.2-2.5,11.1-3.8c1.2,2.1,3,1.6,4.6,1.6c7.4,0.4,14.6-1.2,22-0.6c7.1,0.6,14-1.2,21.1-0.6
		c0.3,0,0.6,0,0.9,0c6.3-1.2,12.7-0.9,19-1.4c5-0.5,9.9,0.4,15.1-0.6c4.9-0.9,10.1,0.5,15-1.6c3.6-1.7,7.6-0.5,11.4-0.9
		c1.3-0.4,2.7-0.6,4-0.7c8.4-0.1,16.7-0.8,25.1-1.4c7.6-0.4,15.1-1.1,22.8-1.4c8.6-0.4,17-0.8,25.6-1.3c6.6-0.4,13.1,0.2,19.7-0.5
		c4.8-0.5,9.8-0.9,14.5-1.1c3.7,0.1,7.3-0.2,11-0.6c5.6-1.1,11.3-0.9,16.8-1.2c7.7-0.3,15.2-1.5,22.9-0.7c0.2,0,0.3,0,0.5,0
		c6.2-1.9,12.7-0.2,19.1-1.3c6-1,12.1,0.2,18.3-0.7c6-0.7,12.1,0.2,18.3-0.7c4.5-0.6,9.2-0.5,13.6-0.6c7.2-0.2,14.3-1.1,21.5-0.7
		c5.2,0.2,10.4-0.5,15.5-0.8c7.9-0.4,15.7-1.4,23.7-1.2c2.3,0.4,4.6-0.7,6.8-0.7c8,0.5,15.8-1.2,23.8-0.7c4.9-1,9.8-0.6,14.7-0.7
		c3.7,0.2,7.2-1.2,11-0.6c2,0.4,4,0.5,6,0.1c7.1-1.7,14.2-0.1,21.4-1.1c6.4-1,13-0.2,19.6-0.5c8.4-0.4,16.8-0.5,25.2-0.7
		c1.4,0,2.7-0.1,4.1-0.3c5.3-1.1,10.7-2,16.1-2.8l26.7-4.6c2.3-0.5,4.6-0.5,6.8,0.2c1.3,0.4,2.7,0.6,4.1,0.6
		c4.8,0.5,9.5-0.4,14.1-0.8c8.6-0.8,17.2-1.1,26.4-2.4l15.8-1.8c4.8-1.4,2.8,1.7,11.5-1c2-5.1,2.6-13.7,3.4-20.7
		C678.7,18.9,676.4,11.3,675.1,7.4z"/>
	<path class="st3" d="M11.9,36.3c-0.1,1.9-0.2,3.8,0.8,5.6c1.8,3.1,3.7,6.4,5.5,9.6c7.5,1.4,15,2.4,22.4,3.6
		c3.2,0.5,6.4,0.7,9.4,1.3c6.4,1.3,12.8,2.7,19.4,2.8c49.3,0.5,98.7,2.5,148,1.5c10.2-0.1,20.5-1.4,30.7-0.5c0.3,0,0.6,0,0.9,0
		c8.2-1.3,16.4-1.2,24.6-1.5c6.4-0.2,12.8-1.4,19.2-0.7c0.3,0,0.6,0,0.9,0c5.3-1.8,10.9-0.7,16.3-1.3c4.8-0.7,9.7-1,14.5-1.1
		c6.5-0.2,13-1.5,19.5-1.4c0.6,0,1.2,0,1.8-0.1c4.3-1.5,8.8-0.9,13.2-1.4c6.5-0.8,13-0.1,19.7-0.6c10.4-0.9,20.8,0.6,31.2-0.5
		c6.7-0.8,13.4,0.1,20.2-0.6c10.1-0.7,20.1-0.8,30.2-1.7c4.7-0.4,9.5-0.4,14.1-0.5c7.4-0.2,14.5-1.5,21.8-2c2.9-0.1,5.8-0.3,8.6-0.9
		c6.1-1.4,12.4-1.4,18.4-2.3c5.6-0.9,11.3-0.8,16.7-1.9c9.4-1.9,18.8-3.4,28.1-5.3c7.8-1.5,15.5-3,23.2-4.3
		c7.3-1.3,14.7-2.5,21.9-3.7c6.3-1.1,12.6-2,18.8-2.9c6.6-1.1,13.2-2.3,19.7-3.2c3.1-0.2,6.1-1.5,8.8-3.7c2.7-2.3,11.7-5.1,15.3-5.9
		c0,0-0.6-6.1-1.8-9s-2.8-2.9-2.8-2.9l-11.7,0.1c-0.2,1.2,0.2,2.3-0.4,3.2c-1.3,1-2.7,1.6-4.2,1.8c-9.9,3.1-20.3,5.7-30.3,9.5
		c-13.8,5-28.3,7-42.6,9.4c-8.7,1.5-17.4,2.8-25.9,4.3c-7.5,1.2-15.1,2.1-22.6,2.6c-4.1,0.2-8.3,0.6-12.3,1.1
		c-7.1,0.9-14.1,1.1-21.2,2.1c-6,0.9-12.1,1.3-18.1,1.6c-7.9,0.5-15.8,1.1-23.7,1.5s-15.8,1.1-23.7,1.7c-7.3,0.5-14.6-0.1-22,0.5
		c-8.9,0.9-17.7-0.6-26.6,0.5c-8.2,0.9-16.5-0.4-24.8,0.6c-6,0.8-12.1,0.2-18.3,0.6c-8.9,0.4-17.7,0.7-26.6,0.7
		c-4.8-0.1-9.5,0.7-14.1,1.1c-3.5,0.2-7.1,0-10.5,0.6c-5.9,0.9-11.8,1.3-17.7,1.5c-4,0.2-8,0.3-11.8,1c-5.8,1.1-11.6,0.7-17.3,1.2
		c-7.8,0.6-15.5,1.7-23.4,0.9c-0.3,0-0.6,0-0.9,0c-7.1,1.8-14.2,0.4-21.4,1.4c-5.4,0.8-10.9,0-16.4-1c-6.1-1-12.1-0.3-18.3-1.2
		c-7.3-1-14.9-0.7-22.5-1.4c-7.1-0.6-14-0.4-21.1,0.2c-10.7,0.9-21.4-0.5-32.1,0.5c-5.5,0.6-11,0.3-16.5-1c-6.5-1.6-13.1-2.7-19.6-4
		c-6.1-0.7-12.3-2-18.6-3.1c-5.2-1-10.4-2.1-15.6-3.2c-3.2-0.6-5.5-2.9-5.7-6.1c-0.5-6.4-2.2-12.6-1.7-19.1c0.1-1,0.5-2.5-0.9-3.1
		c-1.2,6.4-1.5,18-0.9,17.3c1,0.7,0.4,1.6,0.4,2.5l0.2,6.7C11.8,33.9,12.1,34.9,11.9,36.3z"/>
</g>
</svg>
