<?xml version="1.0" encoding="utf-8"?>
<!-- Generator: Adobe Illustrator 22.0.1, SVG Export Plug-In . SVG Version: 6.00 Build 0)  -->
<svg version="1.1" id="Ebene_1" xmlns="http://www.w3.org/2000/svg" xmlns:xlink="http://www.w3.org/1999/xlink" x="0px" y="0px"
	 viewBox="0 0 684.6 506.1" style="enable-background:new 0 0 684.6 506.1;" preserveAspectRatio="none"  xml:space="preserve">
<style type="text/css">
	.st0{fill:#FFE5B0;}
	.st1{fill:#BC9B6B;}
	.st2{fill:#EECE94;}
	.st3{display:none;}
	.st4{display:inline;fill:#7C6042;}
	.st5{display:inline;fill:#BC9B6B;}
	.st6{display:inline;fill:#EECE94;}
	.st7{display:inline;fill:#6E5639;}
	.st8{display:inline;}
	.st9{fill:#7C6042;}
	.st10{fill:#6E5639;}
</style>
<title>texture-paper-l_1</title>
<path class="st0" d="M665,196.9c-3.3-0.2-6.3-0.9-9.4-1v-7.1c0.4-0.4,0.7-0.8,1-1.2c-0.1-0.7-0.5-1.4-1-1.9L665.8,1H21.1l3.3,169
	c-1.3,0.2-3.6,0.4-4.9,0.5c-1.8,0.2-3.4,1.1-5.4,0.7c1.3,1.6,0.8,3.4,0.9,5.2c0.1,1.1-0.6,2.4,0.4,3.2c3,2.7,2.7,5.4,0.4,8
	c0.9,1,1.7,1.8,2.3,2.7c1,1.4,1.3,3.1-0.1,4.4c-2.6,2.4-2.1,5.1-1.8,7.9c0.4-0.1,1.1-0.2,1.2-0.4c2-3.3,0.9,3.1-1.3,2.9
	c-0.1,0.6-0.1,1.3-0.2,2c0.3,1.3-0.6,2.8,0.9,4.3c2.2-1.4,5.6,58.6,5.6,58.6c-0.9,0.8-0.8,1.6-1.7,2.3c-0.2,0.1-0.6,0-0.9,0.1
	c0,1.5-0.5,3-1.6,4.1c-0.5,0.5-0.5,1,0.5,1.3c0.5,0.1,0.9,0.3,1,0.7c1.4-0.1,2.5,0.4,2.7,1.4c0.2,0.8,0.6,1.5,1.1,2.1v21.1
	c-0.1,0.1-0.3,0.2-0.4,0.3c0.1,0.1,0.3,0.3,0.4,0.4v181.7c0,0,289.2,17,294.5,16.8c3.7,1.7,4.7-0.8,9.1,0v2.6h6.6
	c-0.6-2.9,5.5,0.4,7.4-2.4c2.2-1.3,314.6-17,314.6-17V230.9c0.2-0.5,0.3-1.1,0.1-1.7l-0.1-0.1v-14.8c4-3.4,6.1-8,9.2-12
	C665.9,200.8,665.1,198.9,665,196.9z"/>
<path class="st1" d="M92.7,498.3c-1.2-0.8-2.4-1.4-3.6,0c1.1,0.8,2.4,1.5,3.7,1.9C94.8,499.5,93.5,498.9,92.7,498.3z"/>
<path class="st2" d="M301,496.7c-4.3,0.6-9,0.2-13.4,0.1c-7.1-0.2-14.1,1.1-21.2,0.7c-5.2-0.2-10.3-0.6-15.4-1.3
	c-2.8-0.4-5.8-0.3-8.7-0.5c-4.1-0.3-8.2-0.8-12.3-0.9c-4.4-0.1-8.8-0.5-13.1-1.1c-3-0.5-6.1-0.3-9.1-0.7c-6.4-0.7-12.4-2.2-18.6-3.3
	c-9.3-1.7-18.5-3.6-27.7-5.5c-0.7-0.1-1.4-0.3-2.1-0.6c-2.7-1-5.7-1.1-8.4-0.2c-2.6,0.8-5.2,1.2-7.9-0.2c-1.5-0.6-3.1-1.1-4.6-1.4
	c-1.1-0.4-2.4-0.4-3.5,0.1c-1.5,0.6-0.6,1.9-1.4,2.7c-0.3,0-0.8,0.2-0.9,0.1c-2.1-1.4-5-1.7-7.6-2.2c-2.3-0.5-3.7-1.4-4.7-2.9
	c-0.7-0.8-1.3-1.7-1.8-2.7c-1.8-4.9-8-6.2-12.6-8.8c-4.8,1.1-9.2,2.4-14.1,2.8c-1.6-1.9-3.2-3.8-4.6-5.7c-1.1-1.5-2.7-2.6-4.6-3
	c-6.9-2-13.8-4.2-20.9-6.3l-2.4-4.3c3.3-1.8,6.5,0.7,9.3-0.2c2.3-3,1.1-7.2-3.1-9.5c1.1-0.8,2.8-0.7,4-1.4c0-1.7-2.2-1.3-3.4-2.1
	v-4.5c-1.6-2.6-4.3-2.7-6.8-2.1c-2.1,0.4-4.3,0.5-6.5,0.4c-1.7-2.9-3.4-5.8-5-8.8c-0.9-1.8-0.3-3.6,0.5-5.5
	c2.6-6.4,5.1-12.8,8.4-19.4c-0.5-0.9-0.8-2.2-2.8-2.9c-2.4,0.9-2.4,2.8-3.3,4c-2.8,1.2-5.9,1.6-8.9,1.2c-2-1.4-1.8-3-1.6-4.6
	c1.3-2.3,6.2-3,5.3-6.1c-2.1-1.4-5.4-1.4-6.6-3.5c1.6-1.8,3.7-3.1,4.8-5c-1-2.5-4.2-4.5-3.5-7.4c1.2-1.4,3.6-1,5.5-1.8
	c-2-2.3-5.5-1.6-8.3-2.6c1-1.9,3.2-3.1,5.3-4.2c1-0.5,1.9-1,2.8-1.7c1.8-1.5,2.6-3.1,1-5.1c-2.5-3.3-4.7-6.7-7.1-10
	c-1.3-1.8-1.7-3.5-0.3-5.3c1.5-1.9,2-4.1,3.3-6.1c1.5-2.4-0.2-4.8-0.8-7.1c-0.5-1.6-0.5-3.4-0.1-5c-3.5-2-6.9-4.1-10.4-6.1l0.8-0.5
	c-1.1-2.4,1.5-4.7,0.5-7.2c-3-2.9-7.6-4.9-10.4-8.1c1.8-1.4,4.1-1.9,6.3-1.4c1.4,1.1-0.5,3.3,2.7,3.8c1.6,0.1,2.3-0.8,3.4-1.7
	c-0.1-2.1,0.6-4.4-1-6.6c-3.5-4.7-6.7-9.4-10-14.2c-0.9-1-1.5-2.1-2-3.3c-0.2-1-1.3-1.4-2.7-1.4c-0.1-0.4-0.4-0.6-1-0.7
	c0.1,0.4,0.5,0.7,0.9,0.7c-0.3,2.9-1.2,5.9-0.9,8.8c0,0.5-0.2,0.9-0.5,1.2c-2.1,1.4-1.2,2.8-0.2,4.2c1.3,1.9,2.8,3.7,3.5,6
	c-2.8,1.4-2.6,3.8-2.9,6l-2.5,1.6c0,0.9,0,1.8-0.2,2.7c-2.1,6.4-0.7,12.5,2,18.7c1.1,2.2,1.7,4.6,1.8,7c-0.1,2.3,0.2,4.6,0,7
	c-0.2,3.9-0.5,8-2.5,11.6c-2.6,4.6-1.4,9.4-3,13.9c-0.2,0.7-0.1,1.4,0.2,2c1,1.5,0.8,3.1,0.6,4.6c-0.5,4-0.3,8-0.6,12
	c-0.7,8.5-0.2,17-0.2,25.6c0,0.8-0.3,1.6,0.6,2.2c1.5,0.9,1.4,2.2,1.3,3.4c-0.1,2,0.2,4,1,5.9c1.4,3.5,1.9,7.2,1.6,10.9
	c-0.9,1.2-2.9,2.2-2.5,3.9c0.2,1.1,2,1,2.4,1.8c0.4,2.8,2.3,5.5,0.4,8.2c-0.1,0.4-0.2,0.9-0.3,1.3c-2.8,5.5-2,11.2-1.7,16.8
	c0,0.4,0.1,0.7,0.3,1c2.9,4.3,2.2,9,3.5,13.5c0.6,2.5-1.1,4.8-0.8,7.3c-1.5,5.9-3.2,11.9-1,17.8c0.9,0.4,2,0,2.6,0.8h51.1l16-7.8
	h1.5c1.2-1.4,2.4-0.8,3.6,0c0.8,0.6,2.1,1.2,0.1,2c2.2,1.4,4.6,2.5,7.1,3.3c0.8,1,2.8,1.3,3.3,2.6h35.3c0.5-0.8,1.5-0.7,2.4-0.7
	c3.1,0,6.2,0,9.3,0c1.3,0.1,2.7-0.2,3.8-0.8c1.9-1,4.1-1.1,6.1-0.3c4.6,1.8,9.2,1.2,13.8,0.5c4.2-0.7,8.4-1.4,12.4-2.3
	c1.5-0.3,3-0.3,4.4,0c4.6,0.8,9.1,1.9,13.8,2.5c3.5,0.4,7,0.5,10.6,0.2c2.9-0.2,5.8-0.4,8.7-0.4l96.1-0.1c2,0,4,0,6-0.1v-2.6
	c-4.4-0.9-5.4-4.3-9.1-6C311.7,496.3,306.4,496,301,496.7z M135.2,485l0.1,0.2h-0.3L135.2,485z"/>
<path class="st2" d="M674.4,125.2c1.6-4.5,1.6-9.1,1.2-13.5c-0.3-4.7-1.4-9.4-1.5-14.1c0.1-2-0.2-4.1-0.9-6
	c-0.9-2.3-2.4-4.4-4.2-6.1c-1.2-0.8-1.6-2.3-1-3.6c3.4-1.1,5.1-2.9,4.2-5.1c-0.8-1.8-0.7-3.7-1.8-5.4c-1.3-1.8-1.5-4.1-0.6-6.2
	c1.6-3.8-0.3-7.5-0.1-11.2c0.1-1.8-1.3-3.4-1.1-5.2c-4.7,1-2.1-48.8-2.1-48.8H15.1c0,0,0,36.5,0.4,37.6c0.6,1.3,0.6,2.9,0,4.2
	c-1.6,3.2-1,6.6-1,9.8c0,4.3,0.4,8.7-0.4,13c0.5,1.4,0.9,2.7,1.2,4.1c0.5,2.8,2.8,5.5,0.2,8.4c1.6,2,2.8,4,1.1,6.1
	c1.1,1.2,2.4,2.2,2.9,3.5c-0.4,2.2-1.5,4.2-3.1,5.7c-0.6,0.7-1.1,1.5-1.5,2.4c-1.5,3.9-0.5,7.8,0.1,11.7c0.6,4,1.8,8,1.7,12
	c-0.1,4.4,1,8.9-1,13.2c-1.7,3.8-1.6,7.8-2.6,11.6c-0.5,1.9-0.3,3.8,1.8,5.1c-0.3,1.4-1.7,2.4-0.4,3.7c0.4,0.4,0.1,0.9-0.4,1.2
	c-1.5,1-1.1,2-0.7,3.3c0.9,3.1,2.2,6.2,0.3,9.3c-0.9,1.6-1.1,3.4-0.7,5.2c1.9,0.4,3.6-0.5,5.4-0.7c3.9-0.3,7.8-0.9,11.7-1.7
	c2-0.5,3.8-1.6,5.1-3.2c1-1.2-0.8-2.2-1.3-3.3c-1.2-2.3-3.2-4.6-2.5-7.8l5.9-3c0-1.8,0.3-2.9-0.4-4.1c-2.3-1.1-4.6-1.9-7.1-2.5
	c2.3-2.3,2-4.8,2-7.4c0-6,0-12,0-18v-8.2c2.8-2.7,6.3-4.6,7.6-7.5c2.2-5.3,4.1-10.7,6.5-16c1.3-2.9,1-5.4-1.9-7.5
	c0.1-1.4-0.4-2.8,0.5-4.3c2.6-0.9,5.2-2,7.6-3.4c0.4-3.9,0.9-7.9,5.6-11.2l24-2.9l3.8-4.2c1.5-0.3,2.9-0.2,4.2-0.5
	c6.3-1.1,12.7-2.1,19.2-3c11.7-1.5,23.2-3.5,34.8-5.1c7.3-1,14.6-2.2,22-3c4.7-0.5,9.4-0.8,14-1.4c5.9-0.8,11.8-1.1,17.6-1.8
	c5.3-0.6,10.6-0.9,15.9-1.6c6.5-0.8,13-1.3,19.5-1.7c6.3-0.3,12.5-1.2,18.9-0.8c0.5,0,0.9,0,1.4-0.1c5.2-1.2,10.6-0.8,15.9-1.1
	c5.8-0.3,11.6-1.3,17.5-0.8c0.5,0,0.9,0,1.4-0.1c4.6-0.9,9.4-0.8,14.1-1.1c4.9-0.3,9.8-0.7,14.6-1c3.6-0.2,7.5,0,11-0.6
	c4.4-0.8,8.9-0.8,13.2-1c7.4-0.3,14.7-1.3,22.1-0.8c0.5,0.1,0.9,0.1,1.4,0c7.1-1.3,14.3-0.6,21.5-1.1c6.5-0.5,13.1-1.3,19.8-0.9
	c0.3,0,0.6,0,0.9-0.1c4.1-1.3,8.5-0.8,12.7-1.1c5.1-0.4,10.4-0.9,15.6-1c3.8-0.1,7.7-0.3,11.4-0.6c6.4-0.6,12.8-1.6,19.2-1.2
	c7.6,0.5,15.3,0.7,22.9,1.1c10.4,0.6,20.8,1,31.2,1.4c7.7,0.3,15.2,1.2,22.8,1.6c3,0,6.1,0.2,9.1,0.7c4,0.8,8.2,0.7,12.2,1.1
	s8.2,0.8,12.3,1c2.4,0,4.8,0.3,7.2,0.9c6,1.9,12,3.9,18,5.8c6.8,2.2,13.7,4.3,20.7,6.5c0,1,0.3,2-0.3,3.3c-3.7,2.4-9.7,1.5-13.4,3.9
	c-0.7,2.5,0.4,4.5,1.3,6.6c10.5,0.8,20.7,2.7,23.4,4.4c-1.4,1.2-3.9,1.2-5.3,2.5c3.4,6.2,6.2,12.5,13,17.6c-2.4,1.2-4.4,3.1-5.8,5.4
	c-3.5,1.3-6.5-0.8-9.7,0c-0.1,1.4,2.3,0.7,2.6,1.8v6.7c3.3,3.7,9.1,4.4,13.5,6.6c0.5,1.5,0.6,3.1,1.7,4.4c2.3,2.8,1.6,5.3-0.3,7.8
	c-1.4,2.1-1.8,4.8-0.9,7.1c1.5,4.8,1.8,9.7,3.4,14.5c0.5,1.4,0.7,3.1-0.8,4.5c-2.5,2.4-3.8,5.3-6.2,7.7c-1.6,1.6-2.9,3.5-2.2,5.6
	c0.5,1.5,1.1,3,1.9,4.4c2.7,5.1,5.5,10.2,8.2,15.3c1.7,3.7,3.8,7.2,6.3,10.5c1.2,1.4,3.3,2.3,3.6,4.2c-1.9,2.5-5.7,4.9-1.8,8.3
	c3.3-0.1,6.6,0.8,10.2,1c0.1,2,0.9,3.9-0.2,5.4c-4.8,6.3-7.2,14.1-18.7,16.5c-0.1,0-0.2,0.2-0.5,0.4c-0.2,3.4,4.8,4.2,7.2,6.5
	l-4.7,0.2c-0.7,0.7-0.7,1.2,0.1,1.8c2.4,0.4,5.5-0.5,7.5,1.4c0.2,0.7,0.1,1.4-0.2,2c-1.6,2.5-3.2,5-4.8,7.5
	c-1.7,2.5-2.9,5.4-3.5,8.4c-0.3,2.3-0.7,4.6-1.3,6.8c-0.9,2.7-0.6,5.7,1,8.1c1.9,2.8,2.9,6,4.5,8.9c0.6,1,0.7,2.2,0.5,3.3
	c-2.1,2.2-5.7,3.2-8.3,5.1c0.5,1.8,3,2.9,2.9,4.8c-0.1,5.3,0,10.6,0,15.8c-3,1.9-7.3,2-9.1,4.3c-0.4,1.5-0.1,3.1,0.7,4.4
	c0.8,1.3,1.2,2.9,1,4.5c1.9,0.3,2.6-1.6,5-1.2c0.5,0.6,1.5,1.3,1.5,2.6c-0.9,1.4-2.8,3-1,4.8c-2,1.4-5.3,1.2-6.2,3.2
	c2.5,2.1,6.9,0.2,9,2.5c-0.6,1.3-2,1.9-3.4,1.4c-3.2-0.9-7-1-9.5-3c0-1,1.8-1.8,0.1-2.8c-5.5,0.5-7.7,4-11.6,6.4
	c1.5,3-1.5,5.6-1.6,8.5c2.8,0.6,3.8-1.7,6.3-1.4v4.7c-4,1-9.3,0.5-11.2,5.1v10.8c-2.3,1.1-4.8,1-7,1.4c-0.2,2,3.8,1.5,3.1,3.4
	c-1.8,0.7-4-0.2-6,0.7c-0.4,2.5,1.8,4.5,2.1,6.7c2.3,0.5,3.6-1,5.6-1c1.4,1,1.2,2.6,3.1,3.7c-3.9,0.1-7.1,1-10.4,0.9
	c-1.6,2.7,3.5,2.3,3.1,4.9c-0.5,1.7-5.4,2-4.8,5c-3.8-0.7-5.8-2.9-9-3.9l-3.6,0.9c0.2,2.5,1.1,3.5,4,4.3c3.1,0.8,6.1,1.9,9.1,3.3
	c-3.2,0.9-5.7-1.6-8.5-0.2c0.3,3.8,2.9,6.8,6.5,9.4c-2.2,2.5-4.2,4.9-6.6,7.2c-3.1,2.9-3.3,6-2.5,9.4l6.7,0.2c0.7,1.8,3.6,2.4,4.1,4
	c-0.1,2-2.6,1.6-3.4,2.2c-1.4,2.7,3.7,4,2.2,6.5c-1.2,0.8-2.9,0-4,0.7c-1.5,3.2,0.7,6.3,0.3,9.6h-7.5c-1.2,1.7-3.2,2.7-3.4,4.5
	c-0.3,2.3,3.1,3.4,3.8,5.5c-1.5,2.1-5.5,2.1-6.6,4.1c0,1.9,2.6,2.2,4,3.8c-4-0.1-7.7-1-10.4,1.3c-0.3,3.7,5.2,2.9,7.3,4.9
	c-0.8,1.4,1.5,2.8,0.5,4.6c-2.2-0.7-2.4-2.7-4.4-3.3c-2.1,1.6-4.6,2.6-7.2,2.8c-1.8,0-3.3,1.2-3.6,3c-0.5,3.3-3,6.2-3,9.6
	c0.1,1.1-0.6,2.2-1.7,2.6c-2.5,0-3.2-1.9-5.2-2.5c-1.8-0.3-3.6-0.1-5.3,0.6c-1.2,0.5-2.5,0.9-3.8,1.2c-9.4,1.9-18.8,3.8-28.1,5.6
	c-7,1.4-14,3.1-21.3,3.7c-8.6,0.6-17.3,1.4-25.9,2s-17,1.3-25.5,2c-6.7,0.5-13.1,1.8-19.8,2.5c-7.4,0.8-14.6,2.1-22,3
	c-4.2,0.5-8.5,0.8-12.3,2.3c-0.8,0.5-1.8,0.4-2.4-0.2c0.3-1.9,3.7-2.9,3.3-5.1c-1-0.5-2.1-0.7-3.2-0.4c-4.2,1.2-8.8,0.5-13.2,1.1
	c-5,0.7-10.4,0.5-15.6,0.6c-8,0.2-15.9,1.1-24,0.8c-3.2-0.1-6.1,0.3-8.4,1.6c-1.8,2.8-3,5.5-2.4,8.4c11.1-0.2,22.2,0.5,33.3-0.5
	c6.1-0.6,12.1-1.2,18.2-1.8c5.8-0.6,11.5-1.1,17.1-1.6l6.2,3.3h35.9c1.6-2.3,2.6-4.6,4.8-6.6c3.4,0.2,6.7,0.7,10,1.4
	c4.1,0.8,6.4,3.3,8.8,5.2c10.2,0,19.9-0.1,29.7,0c5,0,9.8-0.2,14.3-1.9c2.1-0.7,4.3-1.2,6.6-1.5c8-1.4,16.1-2.6,24.3-3.5
	c9.4-1,18.8-2.1,28.4-1.7c0.4,0.2,0.8,0.5,1.1,0.5c4.7-0.3,9.4,1.1,13.2,3.8c1.3,0.9,2.9,1.6,4.4,2.4c2.2,1.2,4.7,1.8,7.3,1.7
	c5.5-0.1,11.1,0,16.6-0.1c1,0,2.2,0.3,3-0.5h20.8l3.4-5.3l14.5,3.5c4.9,2.2,10.2,1.8,15.7,1.3c1.2-6.1-0.8-12-1.2-17.9
	c0.9-2,1.3-4.2,1.2-6.4c-0.2-2.6,0.5-5.3-0.4-8c-1.1-3.5,0.2-7.3,0-11c-0.1-1.6,0.5-3.5,0.6-5.2c0.3-4.3-1.4-8.5-1-12.9
	c0.5-4.9,1-9.8,0-14.8c1.3-2.2,1.7-4.5-0.2-6.6c-0.5-0.6-0.7-1.4-0.5-2.2c0.5-6.6-0.7-13.3,0.3-19.9c0.2-1.4-0.2-2.8-1.2-3.8
	c-0.9-1.1-1.7-2.3-2.4-3.5c-0.6-0.8-0.9-1.9,0-2.5c1.8-1.2,1.3-2.6,1.4-4c0.3-4.3-1.5-8.5-1-12.8c0-0.2,0-0.4-0.1-0.7
	c-1.3-4.2-2.4-8.3-0.4-12.6c0.1-0.3,0.4-0.7,0.3-0.9c-2.4-3.9,1.6-8-0.7-11.9c-0.2-0.3-0.1-0.7,0.1-1c2.4-4.1,1.8-8.4,1.7-12.7
	c-0.1-1.1,0.1-2.3,0.7-3.2c1.6-2.4,1.7-5.5,0.3-8c0.2-0.8,1.7-1,1.6-1.9c-0.2-3.1,0.9-6.1,1-9.2c0.2-7.8-0.1-15.5,0-23.3
	c0-1.5-1.2-2.8-0.7-4.2c1-3.9,1.3-8,0.8-12c-0.7-7.8,0.6-15.5,0.9-23.2c0-0.1,0-0.2,0-0.3c0.7-6.9,4.5-13.8,0.9-20.8
	c-0.1-0.2-0.1-0.5,0-0.7c1.7-2.2-0.2-4.3-0.4-6.4c0.3-0.6,0.3-1.3,0-1.9c-0.9-1.8-1-4-0.2-5.9c0.8-2.2,0.4-4.3,0.1-6.5
	c-0.5-4.2-2.5-8.4,0.5-12.5c-0.9-0.7-1.5-1.6-2-2.6c-1.1-3.4-2.7-6.6-2-10.5c1-4.8,0.2-9.7,0.2-14.6c0-1.3,0.5-2.6,0.5-3.9
	c0.2-3,3-6.2-0.5-8.9c0.3-2.1,2.6-3.2,3.7-4.7c-0.4-2.3,1.2-4.9-1.6-7c-0.4-0.3-0.2-1.1-0.1-1.6C671.9,133.7,673,129.5,674.4,125.2z
	"/>
<path class="st2" d="M15.1,230c0.8,1.9,1.1,3.9,0.8,5.9c-0.2,4.1,0.6,8.2,2.3,12c1.5,2.9,1.2,6.4-0.7,9c-3.9,5.4-2.1,10.5,1.4,15.5
	c0.3,0,0.7,0.1,0.9-0.1c3-2.4,5.4-5.2,9.4-7.1c-2.2-1.8-3.1-3.8-4.6-5.6c-3.3-3.6-2.7-6.9,1.5-10.1c1.1-0.8,2.8-1.4,2.7-3
	c-2.1,0.2-4.2,1.2-6.1,0.1c2.4-2.4,7-3,8.5-6.2c-1.2-0.9-2.2-2-3.7-2.5c-2,0.4-0.2,2.2-2.2,2.4c-0.3-0.1-0.5-0.2-0.7-0.4
	c-0.4-0.5-0.7-1-1-1.5c-2.4-4.6-0.5-9.2,0.4-13.6c1.4-6.5,3.1-12.9,5.3-19.2c1.4-4.5,1.6-9.1,4.3-13.3c0.5-0.6,0.4-1.5-0.2-2
	c-0.1-0.1-0.2-0.1-0.2-0.2h-9c-2.5,4.2-5,8.2-7.4,12.2c-0.1,0.2-0.8,0.2-1.2,0.4c0,0.8,0,1.7,0,2.5l8.8,1.1l-8.1,5.1
	c-1.5-1.5-0.6-2.9-0.9-4.3c-3.7,2-3.2,4.9-2.6,7.6c0.7,3.1,1.8,6.2,1.7,9.4C14,226.2,14.3,228.2,15.1,230z"/>
<path class="st2" d="M637.8,313.6l0.4-0.5C637.9,313.2,637.2,313.1,637.8,313.6z"/>
<polygon class="st2" points="638.1,313.1 638.1,313.1 638.1,313.1 638.1,313.1 "/>
<g class="st3">
	<path class="st4" d="M684.6-31.7c-1.9-1.4-0.3-3.1-1-4.7c-4.9,0-9.8,0.5-14.5,1.5l-15.2,14.2c-9.2,1.1-17.9,1.4-26.5,2.1
		c-4.7,0.4-9.4,1.1-14.2,0.8c-1.4,0-2.7-0.1-4.1-0.4c-2.2-0.5-4.6-0.5-6.8-0.1l-26.8,3.8c-5.4,0.8-10.8,1.4-16.1,2.3
		c-1.3,0.2-2.7,0.3-4.1,0.3c-8.4,0.3-16.9,0.5-25.3,0.8c-6.6,0.3-13.3-0.2-19.7,0.6c-7.2,0.9-14.4-0.2-21.5,1.1c-2,0.3-4,0.3-6,0
		c-3.7-0.3-7.3,0.7-11,0.6c-5,0.1-9.9-0.1-14.8,0.7c-8-0.3-15.9,1-23.9,0.8c-2.2-0.1-4.4,0.8-6.8,0.6c-8,0-15.9,0.8-23.8,1.2
		c-5.2,0.3-10.4,0.9-15.6,0.8c-7.2-0.2-14.4,0.7-21.6,0.8c-4.5,0.1-9.2,0.1-13.7,0.6c-6.1,0.7-12.4,0.1-18.4,0.7
		c-6.2,0.6-12.4-0.1-18.4,0.7c-6.4,0.9-12.9-0.3-19.2,1.2c-0.2,0-0.3,0-0.5,0c-7.7-0.4-15.4,0.5-23,0.8c-5.6,0.2-11.3,0.2-16.9,1.1
		c-3.7,0.4-7.3,0.6-11,0.6c-4.9,0.2-9.8,0.6-14.6,1c-6.6,0.6-13.2,0.2-19.8,0.6c-8.6,0.5-17.1,1-25.7,1.3
		c-7.6,0.3-15.2,0.9-22.9,1.3c-8.4,0.4-16.8,1.1-25.2,1.3c-1.3,0.1-2.7,0.3-4,0.6c-3.8,0.2-7.8-0.5-11.4,0.8
		c-4.9,1.7-10.2,0.7-15.1,1.4c-5.1,0.7-10.1,0.2-15.2,0.6c-6.4,0.5-12.8,0.3-19.1,1.3c-0.3,0-0.6,0-0.9,0
		c-7.1-0.4-14.1,1.1-21.2,0.7c-7.4-0.4-14.7,0.9-22.1,0.7c-1.6,0-3.5,0.4-4.7-1.2c0.6-2.6,1.9-4.9,3.6-6.9c-3-2.5-8.8-2.3-10.6-6.1
		C12.6,1,11.2,2.7,11.3,5c0,3.4,0,6.9,0.1,10.3c1.1,0.2,2.5-0.2,3.5,0.6c0.7,0.9,0.2,2,0.5,2.9l2.8,0.1c3.9,4.9,7.9,9.7,13.1,14
		c3.9-0.2,7.5-0.7,11.1-0.9c4.1-0.3,8.2-0.7,12.2-1.2c5.9-0.6,11.8-1.1,17.6-1.7c5-0.6,9.9-1.2,14.9-1.6c6.8-0.6,13.5-1.7,20.3-2.3
		c4.7-0.5,9.3-0.9,14-1.6c6.4-0.9,13-1.2,19.5-1.8c5.9-0.6,11.8-1.1,17.7-1.5c3.3-0.3,6.5-0.9,9.8-1.6c6.4-1.5,12.9-2.7,19.5-3.4
		c5.4-0.6,10.9-1.1,16.3-1.6c5.7-0.6,11.5-1,17.2-1.7c5.2-0.6,10.6-1.1,15.9-1.6c8.8-0.7,17.7-1,26.6-1.4c4.7-0.2,9.5-0.2,14.2-0.6
		c9.5-0.7,19-0.9,28.4-1.4c8.1-0.4,16.2-0.9,24.3-1.3c7.6-0.4,15.3-0.8,22.9-1.4c9.6-0.8,19.1-0.1,28.6-0.5
		c26.7-1.2,53.4-0.5,80.1-0.6c2.5,0,5-0.7,7.2-1.9c3.5-1.8,6.9-2.7,11-1.2c2.5,0.9,5.5,0.8,8.1,0.8c4.9,0.2,9.8,0.6,14.6,1
		s9.7,0.2,14.6,1.1c3.3,0.4,6.7,0.7,10,0.6c6.3,0.2,12.5,1,18.8,0.9c17.2-0.2,34.4-0.1,51.5-0.1c5.3,0.1,10.6,0.5,15.9,1.2
		c3.2,0.4,6.4,0.4,9.6,0.6c4.3,0.2,8.6,0.6,12.8,1c6.8,0.5,13.7,0.6,20.4,1.8C657.4,9,658.2,9,659,9c3.8,0,7.7-0.2,11.4,0.6
		c0.2-6.3-0.5-12.6,1.4-18.8c0.3-0.7,0.3-1.5,0-2.2c-0.5-1.1-0.4-2.4,0.3-3.4c2.5-0.5,5.4-0.2,8.3-1.4c0.7-2.6,2.7-5.2,2.4-8.3
		c-0.1-2.3,0.5-4.6,1.9-6.5L684.6-31.7z"/>
	<path class="st4" d="M11.4-28.3l-0.3-4.6h-0.6c-0.3,0-0.5,0.1-0.8,0c-0.1,0.5-0.1,1.1-0.2,1.7c-2.1,0.6-4.2,0.9-6.4,0.9
		c-3.3,1-3.1,2.8-3.1,4.4c0.1,7.6,0.7,15.2,1.7,22.7c0.5,4.7,0.9,9.4,2.2,14.1C5.4,11.2,7,10.7,8,9.6C9.8,4.7,9.4,0.2,9.4-4.3
		c0-2.3,0-4.6,0-6.9c0-0.9,0-1.8,1.8-1.8c0-2.8-0.1-5.6-0.6-8.4C10.2-23.7,9.2-26.2,11.4-28.3z"/>
	<path class="st5" d="M679.3-53.2c-0.5-1.1-0.2-2.3-1-3.5c-0.8-1.3-2.4-2-3.9-1.6v8.1c-3.6,0.6-6.2,2.3-8.9,3.9
		c-2.7,1.5-5.7,2.3-8.8,2.5c-6.6,0.7-13.2,1.6-19.8,2.4c-6.3,0.8-12.6,1.5-18.9,2.2c-7.3,0.9-14.7,1.8-22,2.8
		c-7.8,1-15.5,2.1-23.3,3.2c-9.4,1.3-18.8,2.5-28.2,3.9c-5.5,0.8-11.2,0.8-16.8,1.5c-6.2,0.7-12.4,0.9-18.5,1.8
		c-2.9,0.4-5.7,0.6-8.6,0.7c-7.3,0.3-14.5,1.4-21.9,1.6c-4.7,0.2-9.5,0.2-14.2,0.5c-10.1,0.7-20.2,0.8-30.3,1.5
		c-6.8,0.4-13.6,0-20.3,0.6c-10.5,0.9-21,0-31.4,0.7c-6.6,0.4-13.3,0-19.8,0.6c-4.4,0.4-8.9,0-13.2,1.1c-0.6,0.1-1.2,0.1-1.8,0.1
		c-6.6,0-13.1,1-19.6,1.2c-4.9,0.2-9.9,0.5-14.6,0.9c-5.5,0.5-11.1-0.1-16.4,1.1c-0.3,0-0.6,0-0.9,0c-6.5-0.4-12.9,0.5-19.3,0.7
		c-8.2,0.3-16.5,0.3-24.7,1.3c-0.3,0-0.6,0-0.9,0c-10.3-0.5-20.6,0.5-30.9,0.7C170.6-11.2,121-12,71.4-11.8c-6.6,0-13-0.9-19.5-1.7
		c-3.2-0.4-6.4-0.5-9.5-0.8c-7.5-0.7-15.1-1.4-22.6-2.2c-1.9-2.2-3.8-4.3-5.7-6.5c-1.1-1.2-1-2.5-0.9-3.9c0.1-0.9-0.2-1.5-1.7-1.5
		c-2.2,2.1-1.2,4.7-0.8,6.8c0.4,2.8,0.6,5.6,0.6,8.4c-1.8,0-1.8,0.9-1.8,1.8c0,2.3,0,4.6,0,6.9c0,4.5,0.4,9-1.4,13.9
		c-1,1.1-2.5,1.6-4,1.4c0.6,1.8,0.4,3.8,2.7,5.4c1.3-0.7,3.1-0.6,4.7-0.9c0-3.4,0-6.9-0.1-10.3c0-2.3,1.4-4.1,4.2-5.7
		c1.9,3.8,7.7,3.5,10.6,6.1c-1.8,2-3,4.3-3.6,6.9c1.2,1.6,3,1.2,4.7,1.2c7.4,0.2,14.7-1.1,22.1-0.7c7.1,0.4,14.1-1.1,21.2-0.7
		c0.3,0,0.6,0,0.9,0c6.3-1,12.8-0.8,19.1-1.3c5-0.4,10,0.2,15.2-0.6c4.9-0.7,10.2,0.3,15.1-1.4c3.6-1.3,7.6-0.5,11.4-0.8
		c1.3-0.3,2.7-0.5,4-0.6c8.4-0.2,16.8-0.8,25.2-1.3c7.6-0.4,15.2-1,22.9-1.3c8.6-0.4,17.1-0.8,25.7-1.3c6.6-0.4,13.2,0,19.8-0.6
		c4.8-0.4,9.8-0.8,14.6-1c3.7,0,7.3-0.2,11-0.6c5.6-0.9,11.3-0.8,16.9-1.1c7.7-0.3,15.3-1.3,23-0.8c0.2,0,0.3,0,0.5,0
		c6.2-1.5,12.8-0.3,19.2-1.2c6-0.8,12.2,0,18.4-0.7c6-0.6,12.2,0,18.4-0.7c4.5-0.5,9.2-0.5,13.7-0.6c7.2-0.2,14.4-1,21.6-0.8
		c5.2,0.1,10.4-0.5,15.6-0.8c7.9-0.4,15.8-1.2,23.8-1.2c2.3,0.3,4.6-0.6,6.8-0.6c8,0.3,15.9-1.1,23.9-0.8c4.9-0.8,9.8-0.6,14.8-0.7
		c3.7,0.1,7.2-1,11-0.6c2,0.3,4,0.3,6,0c7.1-1.4,14.3-0.2,21.5-1.1c6.4-0.8,13.1-0.3,19.7-0.6c8.4-0.4,16.9-0.6,25.3-0.8
		c1.4,0,2.7-0.1,4.1-0.3c5.3-0.9,10.7-1.6,16.1-2.3l26.8-3.8c2.3-0.4,4.6-0.4,6.8,0.1c1.3,0.3,2.7,0.4,4.1,0.4
		c4.8,0.3,9.5-0.4,14.2-0.8c8.6-0.7,17.3-1,26.5-2.1L669-34.7c4.8-1.1,9.6-1.6,14.5-1.6C683.1-42.1,681.7-47.8,679.3-53.2z"/>
	<path class="st5" d="M671.1,22.9c0.4-0.7,0.4-1.6,0-2.3c-2.2-3.6-1.5-7.3-0.8-11C666.7,8.7,662.8,9,659,9c-0.8,0-1.5,0-2.3-0.1
		c-6.7-1.2-13.6-1.3-20.4-1.8c-4.2-0.3-8.5-0.7-12.8-1c-3.2-0.2-6.4-0.2-9.6-0.6c-5.3-0.7-10.6-1.1-15.9-1.2
		c-17.2,0-34.4-0.1-51.5,0.1c-6.3,0.1-12.6-0.7-18.8-0.9c-3.3,0-6.7-0.2-10-0.6c-4.8-0.9-9.7-0.6-14.6-1.1s-9.7-0.8-14.6-1
		c-2.6-0.1-5.6,0-8.1-0.8c-4.2-1.5-7.5-0.7-11,1.2c-2.2,1.2-4.7,1.9-7.2,1.9c-26.7,0.2-53.5-0.5-80.1,0.6
		c-9.5,0.4-19.1-0.2-28.6,0.5c-7.6,0.6-15.2,1-22.9,1.4c-8.1,0.4-16.2,0.9-24.3,1.3c-9.5,0.5-19,0.7-28.4,1.4
		c-4.7,0.3-9.5,0.3-14.2,0.6c-8.9,0.4-17.7,0.7-26.6,1.4c-5.3,0.4-10.6,0.9-15.9,1.6c-5.7,0.7-11.4,1.1-17.2,1.7
		c-5.4,0.6-10.9,1-16.3,1.6c-6.5,0.8-13,1.9-19.5,3.4c-3.2,0.8-6.5,1.3-9.8,1.6c-5.9,0.5-11.8,1-17.7,1.5c-6.5,0.6-13,1-19.5,1.8
		c-4.6,0.7-9.3,1.1-14,1.6c-6.8,0.7-13.5,1.8-20.3,2.3c-5,0.4-9.9,1.1-14.9,1.6c-5.9,0.7-11.8,1.1-17.6,1.7
		c-4.1,0.4-8.2,0.8-12.2,1.2c-3.6,0.3-7.2,0.7-11.1,0.9c-5.2-4.3-9.2-9.1-13.1-14l-2.8-0.1c0,5.1-0.6,10.2-0.1,15.3h5.1
		c1.5,2,3.9,3.3,5,5.2c5,0.6,9.8-0.4,14.4-0.8c4.2-0.4,8.5-0.6,12.7-0.9c9.7-0.8,19.4-1.7,29-2.8c7.8-0.9,15.8-1.2,23.6-2.1
		c5.2-0.6,10.6-0.9,15.8-1.8c3.2-0.4,6.4-0.7,9.6-0.7c4.9-0.1,9.8-0.6,14.6-1s9.7-0.2,14.6-1.1c3.3-0.6,7-0.4,10.5-0.6
		c4.6-0.2,9.2-0.7,13.7-1c4.1-0.3,8.2-0.2,12.2-1c2.9-0.6,6.1-0.4,9.1-0.6c4.3-0.3,8.5-0.8,12.8-1c4.2-0.1,8.5-0.4,12.7-1.1
		c3-0.4,6-0.6,9.1-0.6c5.5-0.1,11-0.9,16.5-0.8c7.2,0.1,14.4-0.7,21.6-0.9c4.5-0.1,9.3,0.1,13.7-0.6c5.8-0.9,11.7,0.2,17.3-1.2
		c0.3,0,0.6,0,0.9,0c6.3,0.5,12.6-0.5,18.8-0.8c5.1-0.3,10.4,0.1,15.5-1.1c0.3,0,0.6,0,0.9,0c6.9,0.4,13.8-0.6,20.7-0.8
		c7.8-0.3,15.7,0,23.5-0.7c5.9-0.5,11.8,0.1,17.5-0.6c7.8-1,15.7,0.3,23.4-1.2c0.3,0,0.6,0,0.9,0c8,0.5,16-0.4,23.9-0.9
		c6.5-0.4,13.2,0.3,19.6-1.1c1.2-0.1,2.5-0.1,3.7,0c20.6,0,41.2,0.2,61.7-0.1c7.9,0.1,15.9-0.3,23.8-1.2c0.3,0,0.6,0,0.9,0
		c8,0.5,15.9-1.1,24-0.7c2.4,0.2,4.4-0.7,6.8-0.7c11.2-0.1,21.7,2.2,32.1,4.8c0.7,0.2,0.7,0.7,0.8,1.1l2.7,0.1
		c0.2,0.4,0.1,1,0.5,1.2c3.2,2.4,6.2,5,9.8,7c5.3,3,10.2,6.6,14.6,10.8c1.2,5.1-3.6,9.7-1,14.4c4.6,1.4,9.4,1.5,14.1,0.5
		c1.6-3.4,2.8-6.9,1.7-10.3c-0.8-1.8-0.3-3.9,1.2-5.1c-0.9-1.2-1.6-2.4-0.8-3.3C672.8,27.7,671.5,25.3,671.1,22.9z"/>
	<path class="st6" d="M13.1-26.8C13-25.5,13-24.2,14-23c1.9,2.1,3.8,4.3,5.7,6.5c7.6,0.9,15.1,1.5,22.6,2.2c3.2,0.3,6.4,0.4,9.5,0.8
		c6.5,0.8,12.9,1.7,19.5,1.7c49.6-0.2,99.2,0.6,148.8-0.6c10.3-0.2,20.6-1.2,30.9-0.7c0.3,0,0.6,0,0.9,0c8.2-1,16.5-1,24.7-1.3
		c6.4-0.2,12.8-1.1,19.3-0.7c0.3,0,0.6,0,0.9,0c5.3-1.3,10.9-0.6,16.4-1.1c4.8-0.5,9.7-0.8,14.6-0.9c6.5-0.2,13-1.2,19.6-1.2
		c0.6,0,1.2,0,1.8-0.1c4.3-1.1,8.8-0.7,13.2-1.1c6.5-0.6,13.1-0.2,19.8-0.6c10.4-0.7,20.9,0.2,31.4-0.7c6.7-0.6,13.5-0.1,20.3-0.6
		c10.1-0.6,20.2-0.8,30.3-1.5c4.7-0.3,9.5-0.4,14.2-0.5c7.4-0.2,14.6-1.2,21.9-1.6c2.9-0.1,5.8-0.3,8.6-0.7c6.1-1,12.4-1.1,18.5-1.8
		c5.6-0.7,11.3-0.7,16.8-1.5c9.4-1.4,18.8-2.5,28.2-3.9c7.8-1.1,15.5-2.2,23.3-3.2c7.3-1,14.7-1.9,22-2.8c6.3-0.8,12.6-1.5,18.9-2.2
		c6.6-0.8,13.2-1.7,19.8-2.4c3.1-0.2,6.1-1.1,8.8-2.5c2.7-1.6,5.3-3.3,8.9-3.9v-8.2h-10.2c-0.2,0.8,0.2,1.6-0.4,2.2
		c-1.3,0.7-2.7,1.1-4.2,1.3c-10.2,2.2-20.6,4.1-30.6,6.7c-13.8,3.6-28.3,5.1-42.7,6.9c-8.7,1.1-17.4,2.1-26,3.2
		c-7.5,0.9-15.1,1.7-22.7,2c-4.1,0.2-8.3,0.5-12.3,0.9c-7.1,0.7-14.2,0.9-21.3,1.7c-6,0.7-12.1,1-18.2,1.3
		c-7.9,0.4-15.9,0.9-23.8,1.3s-15.9,0.9-23.8,1.4c-7.3,0.4-14.7,0.1-22.1,0.6c-8.9,0.7-17.8-0.2-26.7,0.6
		c-8.2,0.7-16.6-0.1-24.9,0.7c-6,0.6-12.2,0.3-18.4,0.6c-8.9,0.4-17.8,0.7-26.7,0.8c-4.8,0-9.5,0.6-14.2,0.9
		c-3.5,0.2-7.1,0.1-10.5,0.5c-5.9,0.7-11.8,1-17.8,1.2c-4,0.2-8,0.3-11.8,0.8c-5.8,0.8-11.6,0.6-17.4,1c-7.8,0.5-15.6,1.3-23.5,0.9
		c-0.3,0-0.6,0-0.9,0c-7.1,1.3-14.3,0.4-21.5,1.2c-5.4,0.6-11,0.1-16.5-0.5c-6.1-0.6-12.2-0.1-18.4-0.6c-7.4-0.6-15-0.3-22.6-0.7
		c-7.1-0.3-14.1-0.1-21.2,0.4c-10.7,0.7-21.5-0.1-32.3,0.7c-5.5,0.5-11.1,0.3-16.6-0.5c-6.6-1-13.2-1.7-19.8-2.5
		C48.3-23.5,42-24.3,35.7-25c-5.2-0.6-10.5-1.3-15.7-2c-3.2-0.4-5.6-1.9-5.8-4.1c-0.6-4.4-2.4-8.6-2-13c0.1-0.7,0.5-1.6-0.9-2
		c-1.1,4.4-2.2,8.8-1.6,13.3c0.3,0,0.5,0,0.8,0c0-0.5-0.4-1.1,0.2-1.6c1,0.5,0.4,1.1,0.4,1.7l0.3,4.6C12.9-28.4,13.2-27.7,13.1-26.8
		z"/>
	<path class="st7" d="M11.1-32.9h-0.6c0-0.5-0.4-1.1,0.2-1.6C11.7-34.1,11.1-33.5,11.1-32.9z"/>
</g>
<g id="Ebene_2_2_" class="st3">
	<g id="final-design_1_" class="st8">
		<path class="st0" d="M663.8-56c0.6-0.7,0.2-1.5,0.4-2.2c-1.5,0-3.1-0.1-4.6-0.1c-18.7,0.3-37.3-0.3-56,0.5
			c-21.4,0.9-42.9,0-64.3,0.7c-26.5,0.7-53.1,0-79.7,0.8c-15.7,0.5-31.4-0.1-47.2,0.5c-20.2,0.8-40.4-0.1-60.6,0.7
			c-20.6,0.8-41.4-0.4-62,0.7c-15.2,0.8-30.5-0.2-45.8,0.7c-12.1,0.7-24.4,0.1-36.6,0.7c-14,0.6-28-0.1-42.1,0.6
			c-17.7,0.9-35.5-0.3-53.2,0.7c-15.5,0.8-31.1-0.1-46.7,0.6c-15.8,0.7-31.8,0-47.6,0.8c-2.2,0.1-4.2,0.3-6,1.5
			c-0.4,0.8-0.6,1.7-0.4,2.6c1.3,0.5,0.9,1.3,0.9,2c-0.4,4.4,1.5,8.7,2,13c0.3,2.3,8.3,65.1,8.3,65.1L468.9,6.2l185.7,2.7
			C654.6,8.9,662.6-55.2,663.8-56z"/>
		<path class="st9" d="M684.6-31.7c-1.9-1.4-0.3-3.1-1-4.7c-4.9,0-9.8,0.5-14.5,1.5l-15.2,14.2c-9.2,1.1-17.9,1.4-26.5,2.1
			c-4.7,0.4-9.4,1.1-14.2,0.8c-1.4,0-2.7-0.1-4.1-0.4c-2.2-0.5-4.6-0.5-6.8-0.1l-26.8,3.8c-5.4,0.8-10.8,1.4-16.1,2.3
			c-1.3,0.2-2.7,0.3-4.1,0.3c-8.4,0.3-16.9,0.5-25.3,0.8c-6.6,0.3-13.3-0.2-19.7,0.6c-7.2,0.9-14.4-0.2-21.5,1.1c-2,0.3-4,0.3-6,0
			c-3.7-0.3-7.3,0.7-11,0.6c-5,0.1-9.9-0.1-14.8,0.7c-8-0.3-15.9,1-23.9,0.8c-2.2-0.1-4.4,0.8-6.8,0.6c-8,0-15.9,0.8-23.8,1.2
			c-5.2,0.3-10.4,0.9-15.6,0.8c-7.2-0.2-14.4,0.7-21.6,0.8c-4.5,0.1-9.2,0.1-13.7,0.6c-6.1,0.7-12.4,0.1-18.4,0.7
			c-6.2,0.6-12.4-0.1-18.4,0.7c-6.4,0.9-12.9-0.3-19.2,1.2c-0.2,0-0.3,0-0.5,0c-7.7-0.4-15.4,0.5-23,0.8c-5.6,0.2-11.3,0.2-16.9,1.1
			c-3.7,0.4-7.3,0.6-11,0.6c-4.9,0.2-9.8,0.6-14.6,1c-6.6,0.6-13.2,0.2-19.8,0.6c-8.6,0.5-17.1,1-25.7,1.3
			c-7.6,0.3-15.2,0.9-22.9,1.3c-8.4,0.4-16.8,1.1-25.2,1.3c-1.3,0.1-2.7,0.3-4,0.6c-3.8,0.2-7.8-0.5-11.4,0.8
			c-4.9,1.7-10.2,0.7-15.1,1.4c-5.1,0.7-10.1,0.2-15.2,0.6c-6.4,0.5-12.8,0.3-19.1,1.3c-0.3,0-0.6,0-0.9,0
			c-7.1-0.4-14.1,1.1-21.2,0.7c-7.4-0.4-14.7,0.9-22.1,0.7c-1.6,0-3.5,0.4-4.7-1.2c0.6-2.6,1.9-4.9,3.6-6.9c-3-2.5-8.8-2.3-10.6-6.1
			C12.6,1,11.2,2.7,11.3,5c0,3.4,0,6.9,0.1,10.3c1.1,0.2,2.5-0.2,3.5,0.6c0.7,0.9,0.2,2,0.5,2.9l2.8,0.1c3.9,4.9,7.9,9.7,13.1,14
			c3.9-0.2,7.5-0.7,11.1-0.9c4.1-0.3,8.2-0.7,12.2-1.2c5.9-0.6,11.8-1.1,17.6-1.7c5-0.6,9.9-1.2,14.9-1.6c6.8-0.6,13.5-1.7,20.3-2.3
			c4.7-0.5,9.3-0.9,14-1.6c6.4-0.9,13-1.2,19.5-1.8c5.9-0.6,11.8-1.1,17.7-1.5c3.3-0.3,6.5-0.9,9.8-1.6c6.4-1.5,12.9-2.7,19.5-3.4
			c5.4-0.6,10.9-1.1,16.3-1.6c5.7-0.6,11.5-1,17.2-1.7c5.2-0.6,10.6-1.1,15.9-1.6c8.8-0.7,17.7-1,26.6-1.4c4.7-0.2,9.5-0.2,14.2-0.6
			c9.5-0.7,19-0.9,28.4-1.4c8.1-0.4,16.2-0.9,24.3-1.3c7.6-0.4,15.3-0.8,22.9-1.4c9.6-0.8,19.1-0.1,28.6-0.5
			c26.7-1.2,53.4-0.5,80.1-0.6c2.5,0,5-0.7,7.2-1.9c3.5-1.8,6.9-2.7,11-1.2c2.5,0.9,5.5,0.8,8.1,0.8c4.9,0.2,9.8,0.6,14.6,1
			s9.7,0.2,14.6,1.1c3.3,0.4,6.7,0.7,10,0.6c6.3,0.2,12.5,1,18.8,0.9c17.2-0.2,34.4-0.1,51.5-0.1c5.3,0.1,10.6,0.5,15.9,1.2
			c3.2,0.4,6.4,0.4,9.6,0.6c4.3,0.2,8.6,0.6,12.8,1c6.8,0.5,13.7,0.6,20.4,1.8C657.4,9,658.2,9,659,9c3.8,0,7.7-0.2,11.4,0.6
			c0.2-6.3-0.5-12.6,1.4-18.8c0.3-0.7,0.3-1.5,0-2.2c-0.5-1.1-0.4-2.4,0.3-3.4c2.5-0.5,5.4-0.2,8.3-1.4c0.7-2.6,2.7-5.2,2.4-8.3
			c-0.1-2.3,0.5-4.6,1.9-6.5L684.6-31.7z"/>
		<path class="st9" d="M11.4-28.3l-0.3-4.6h-0.6c-0.3,0-0.5,0.1-0.8,0c-0.1,0.5-0.1,1.1-0.2,1.7c-2.1,0.6-4.2,0.9-6.4,0.9
			c-3.3,1-3.1,2.8-3.1,4.4c0.1,7.6,0.7,15.2,1.7,22.7c0.5,4.7,0.9,9.4,2.2,14.1C5.4,11.2,7,10.7,8,9.6C9.8,4.7,9.4,0.2,9.4-4.3
			c0-2.3,0-4.6,0-6.9c0-0.9,0-1.8,1.8-1.8c0-2.8-0.1-5.6-0.6-8.4C10.2-23.7,9.2-26.2,11.4-28.3z"/>
		<path class="st1" d="M679.3-53.2c-0.5-1.1-0.2-2.3-1-3.5c-0.8-1.3-2.4-2-3.9-1.6v8.1c-3.6,0.6-6.2,2.3-8.9,3.9
			c-2.7,1.5-5.7,2.3-8.8,2.5c-6.6,0.7-13.2,1.6-19.8,2.4c-6.3,0.8-12.6,1.5-18.9,2.2c-7.3,0.9-14.7,1.8-22,2.8
			c-7.8,1-15.5,2.1-23.3,3.2c-9.4,1.3-18.8,2.5-28.2,3.9c-5.5,0.8-11.2,0.8-16.8,1.5c-6.2,0.7-12.4,0.9-18.5,1.8
			c-2.9,0.4-5.7,0.6-8.6,0.7c-7.3,0.3-14.5,1.4-21.9,1.6c-4.7,0.2-9.5,0.2-14.2,0.5c-10.1,0.7-20.2,0.8-30.3,1.5
			c-6.8,0.4-13.6,0-20.3,0.6c-10.5,0.9-21,0-31.4,0.7c-6.6,0.4-13.3,0-19.8,0.6c-4.4,0.4-8.9,0-13.2,1.1c-0.6,0.1-1.2,0.1-1.8,0.1
			c-6.6,0-13.1,1-19.6,1.2c-4.9,0.2-9.9,0.5-14.6,0.9c-5.5,0.5-11.1-0.1-16.4,1.1c-0.3,0-0.6,0-0.9,0c-6.5-0.4-12.9,0.5-19.3,0.7
			c-8.2,0.3-16.5,0.3-24.7,1.3c-0.3,0-0.6,0-0.9,0c-10.3-0.5-20.6,0.5-30.9,0.7C170.6-11.2,121-12,71.4-11.8c-6.6,0-13-0.9-19.5-1.7
			c-3.2-0.4-6.4-0.5-9.5-0.8c-7.5-0.7-15.1-1.4-22.6-2.2c-1.9-2.2-3.8-4.3-5.7-6.5c-1.1-1.2-1-2.5-0.9-3.9c0.1-0.9-0.2-1.5-1.7-1.5
			c-2.2,2.1-1.2,4.7-0.8,6.8c0.4,2.8,0.6,5.6,0.6,8.4c-1.8,0-1.8,0.9-1.8,1.8c0,2.3,0,4.6,0,6.9c0,4.5,0.4,9-1.4,13.9
			c-1,1.1-2.5,1.6-4,1.4c0.6,1.8,0.4,3.8,2.7,5.4c1.3-0.7,3.1-0.6,4.7-0.9c0-3.4,0-6.9-0.1-10.3c0-2.3,1.4-4.1,4.2-5.7
			c1.9,3.8,7.7,3.5,10.6,6.1c-1.8,2-3,4.3-3.6,6.9c1.2,1.6,3,1.2,4.7,1.2c7.4,0.2,14.7-1.1,22.1-0.7c7.1,0.4,14.1-1.1,21.2-0.7
			c0.3,0,0.6,0,0.9,0c6.3-1,12.8-0.8,19.1-1.3c5-0.4,10,0.2,15.2-0.6c4.9-0.7,10.2,0.3,15.1-1.4c3.6-1.3,7.6-0.5,11.4-0.8
			c1.3-0.3,2.7-0.5,4-0.6c8.4-0.2,16.8-0.8,25.2-1.3c7.6-0.4,15.2-1,22.9-1.3c8.6-0.4,17.1-0.8,25.7-1.3c6.6-0.4,13.2,0,19.8-0.6
			c4.8-0.4,9.8-0.8,14.6-1c3.7,0,7.3-0.2,11-0.6c5.6-0.9,11.3-0.8,16.9-1.1c7.7-0.3,15.3-1.3,23-0.8c0.2,0,0.3,0,0.5,0
			c6.2-1.5,12.8-0.3,19.2-1.2c6-0.8,12.2,0,18.4-0.7c6-0.6,12.2,0,18.4-0.7c4.5-0.5,9.2-0.5,13.7-0.6c7.2-0.2,14.4-1,21.6-0.8
			c5.2,0.1,10.4-0.5,15.6-0.8c7.9-0.4,15.8-1.2,23.8-1.2c2.3,0.3,4.6-0.6,6.8-0.6c8,0.3,15.9-1.1,23.9-0.8c4.9-0.8,9.8-0.6,14.8-0.7
			c3.7,0.1,7.2-1,11-0.6c2,0.3,4,0.3,6,0c7.1-1.4,14.3-0.2,21.5-1.1c6.4-0.8,13.1-0.3,19.7-0.6c8.4-0.4,16.9-0.6,25.3-0.8
			c1.4,0,2.7-0.1,4.1-0.3c5.3-0.9,10.7-1.6,16.1-2.3l26.8-3.8c2.3-0.4,4.6-0.4,6.8,0.1c1.3,0.3,2.7,0.4,4.1,0.4
			c4.8,0.3,9.5-0.4,14.2-0.8c8.6-0.7,17.3-1,26.5-2.1L669-34.7c4.8-1.1,9.6-1.6,14.5-1.6C683.1-42.1,681.7-47.8,679.3-53.2z"/>
		<path class="st1" d="M671.1,22.9c0.4-0.7,0.4-1.6,0-2.3c-2.2-3.6-1.5-7.3-0.8-11C666.7,8.7,662.8,9,659,9c-0.8,0-1.5,0-2.3-0.1
			c-6.7-1.2-13.6-1.3-20.4-1.8c-4.2-0.3-8.5-0.7-12.8-1c-3.2-0.2-6.4-0.2-9.6-0.6c-5.3-0.7-10.6-1.1-15.9-1.2
			c-17.2,0-34.4-0.1-51.5,0.1c-6.3,0.1-12.6-0.7-18.8-0.9c-3.3,0-6.7-0.2-10-0.6c-4.8-0.9-9.7-0.6-14.6-1.1s-9.7-0.8-14.6-1
			c-2.6-0.1-5.6,0-8.1-0.8c-4.2-1.5-7.5-0.7-11,1.2c-2.2,1.2-4.7,1.9-7.2,1.9c-26.7,0.2-53.5-0.5-80.1,0.6
			c-9.5,0.4-19.1-0.2-28.6,0.5c-7.6,0.6-15.2,1-22.9,1.4c-8.1,0.4-16.2,0.9-24.3,1.3c-9.5,0.5-19,0.7-28.4,1.4
			c-4.7,0.3-9.5,0.3-14.2,0.6c-8.9,0.4-17.7,0.7-26.6,1.4c-5.3,0.4-10.6,0.9-15.9,1.6c-5.7,0.7-11.4,1.1-17.2,1.7
			c-5.4,0.6-10.9,1-16.3,1.6c-6.5,0.8-13,1.9-19.5,3.4c-3.2,0.8-6.5,1.3-9.8,1.6c-5.9,0.5-11.8,1-17.7,1.5c-6.5,0.6-13,1-19.5,1.8
			c-4.6,0.7-9.3,1.1-14,1.6c-6.8,0.7-13.5,1.8-20.3,2.3c-5,0.4-9.9,1.1-14.9,1.6c-5.9,0.7-11.8,1.1-17.6,1.7
			c-4.1,0.4-8.2,0.8-12.2,1.2c-3.6,0.3-7.2,0.7-11.1,0.9c-5.2-4.3-9.2-9.1-13.1-14l-2.8-0.1c0,5.1-0.6,10.2-0.1,15.3h5.1
			c1.5,2,3.9,3.3,5,5.2c5,0.6,9.8-0.4,14.4-0.8c4.2-0.4,8.5-0.6,12.7-0.9c9.7-0.8,19.4-1.7,29-2.8c7.8-0.9,15.8-1.2,23.6-2.1
			c5.2-0.6,10.6-0.9,15.8-1.8c3.2-0.4,6.4-0.7,9.6-0.7c4.9-0.1,9.8-0.6,14.6-1s9.7-0.2,14.6-1.1c3.3-0.6,7-0.4,10.5-0.6
			c4.6-0.2,9.2-0.7,13.7-1c4.1-0.3,8.2-0.2,12.2-1c2.9-0.6,6.1-0.4,9.1-0.6c4.3-0.3,8.5-0.8,12.8-1c4.2-0.1,8.5-0.4,12.7-1.1
			c3-0.4,6-0.6,9.1-0.6c5.5-0.1,11-0.9,16.5-0.8c7.2,0.1,14.4-0.7,21.6-0.9c4.5-0.1,9.3,0.1,13.7-0.6c5.8-0.9,11.7,0.2,17.3-1.2
			c0.3,0,0.6,0,0.9,0c6.3,0.5,12.6-0.5,18.8-0.8c5.1-0.3,10.4,0.1,15.5-1.1c0.3,0,0.6,0,0.9,0c6.9,0.4,13.8-0.6,20.7-0.8
			c7.8-0.3,15.7,0,23.5-0.7c5.9-0.5,11.8,0.1,17.5-0.6c7.8-1,15.7,0.3,23.4-1.2c0.3,0,0.6,0,0.9,0c8,0.5,16-0.4,23.9-0.9
			c6.5-0.4,13.2,0.3,19.6-1.1c1.2-0.1,2.5-0.1,3.7,0c20.6,0,41.2,0.2,61.7-0.1c7.9,0.1,15.9-0.3,23.8-1.2c0.3,0,0.6,0,0.9,0
			c8,0.5,15.9-1.1,24-0.7c2.4,0.2,4.4-0.7,6.8-0.7c11.2-0.1,21.7,2.2,32.1,4.8c0.7,0.2,0.7,0.7,0.8,1.1l2.7,0.1
			c0.2,0.4,0.1,1,0.5,1.2c3.2,2.4,6.2,5,9.8,7c5.3,3,10.2,6.6,14.6,10.8c1.2,5.1-3.6,9.7-1,14.4c4.6,1.4,9.4,1.5,14.1,0.5
			c1.6-3.4,2.8-6.9,1.7-10.3c-0.8-1.8-0.3-3.9,1.2-5.1c-0.9-1.2-1.6-2.4-0.8-3.3C672.8,27.7,671.5,25.3,671.1,22.9z"/>
		<path class="st2" d="M13.1-26.8C13-25.5,13-24.2,14-23c1.9,2.1,3.8,4.3,5.7,6.5c7.6,0.9,15.1,1.5,22.6,2.2
			c3.2,0.3,6.4,0.4,9.5,0.8c6.5,0.8,12.9,1.7,19.5,1.7c49.6-0.2,99.2,0.6,148.8-0.6c10.3-0.2,20.6-1.2,30.9-0.7c0.3,0,0.6,0,0.9,0
			c8.2-1,16.5-1,24.7-1.3c6.4-0.2,12.8-1.1,19.3-0.7c0.3,0,0.6,0,0.9,0c5.3-1.3,10.9-0.6,16.4-1.1c4.8-0.5,9.7-0.8,14.6-0.9
			c6.5-0.2,13-1.2,19.6-1.2c0.6,0,1.2,0,1.8-0.1c4.3-1.1,8.8-0.7,13.2-1.1c6.5-0.6,13.1-0.2,19.8-0.6c10.4-0.7,20.9,0.2,31.4-0.7
			c6.7-0.6,13.5-0.1,20.3-0.6c10.1-0.6,20.2-0.8,30.3-1.5c4.7-0.3,9.5-0.4,14.2-0.5c7.4-0.2,14.6-1.2,21.9-1.6
			c2.9-0.1,5.8-0.3,8.6-0.7c6.1-1,12.4-1.1,18.5-1.8c5.6-0.7,11.3-0.7,16.8-1.5c9.4-1.4,18.8-2.5,28.2-3.9
			c7.8-1.1,15.5-2.2,23.3-3.2c7.3-1,14.7-1.9,22-2.8c6.3-0.8,12.6-1.5,18.9-2.2c6.6-0.8,13.2-1.7,19.8-2.4c3.1-0.2,6.1-1.1,8.8-2.5
			c2.7-1.6,5.3-3.3,8.9-3.9v-8.2h-10.2c-0.2,0.8,0.2,1.6-0.4,2.2c-1.3,0.7-2.7,1.1-4.2,1.3c-10.2,2.2-20.6,4.1-30.6,6.7
			c-13.8,3.6-28.3,5.1-42.7,6.9c-8.7,1.1-17.4,2.1-26,3.2c-7.5,0.9-15.1,1.7-22.7,2c-4.1,0.2-8.3,0.5-12.3,0.9
			c-7.1,0.7-14.2,0.9-21.3,1.7c-6,0.7-12.1,1-18.2,1.3c-7.9,0.4-15.9,0.9-23.8,1.3s-15.9,0.9-23.8,1.4c-7.3,0.4-14.7,0.1-22.1,0.6
			c-8.9,0.7-17.8-0.2-26.7,0.6c-8.2,0.7-16.6-0.1-24.9,0.7c-6,0.6-12.2,0.3-18.4,0.6c-8.9,0.4-17.8,0.7-26.7,0.8
			c-4.8,0-9.5,0.6-14.2,0.9c-3.5,0.2-7.1,0.1-10.5,0.5c-5.9,0.7-11.8,1-17.8,1.2c-4,0.2-8,0.3-11.8,0.8c-5.8,0.8-11.6,0.6-17.4,1
			c-7.8,0.5-15.6,1.3-23.5,0.9c-0.3,0-0.6,0-0.9,0c-7.1,1.3-14.3,0.4-21.5,1.2c-5.4,0.6-11,0.1-16.5-0.5c-6.1-0.6-12.2-0.1-18.4-0.6
			c-7.4-0.6-15-0.3-22.6-0.7c-7.1-0.3-14.1-0.1-21.2,0.4c-10.7,0.7-21.5-0.1-32.3,0.7c-5.5,0.5-11.1,0.3-16.6-0.5
			c-6.6-1-13.2-1.7-19.8-2.5C48.3-23.5,42-24.3,35.7-25c-5.2-0.6-10.5-1.3-15.7-2c-3.2-0.4-5.6-1.9-5.8-4.1c-0.6-4.4-2.4-8.6-2-13
			c0.1-0.7,0.5-1.6-0.9-2c-1.1,4.4-2.2,8.8-1.6,13.3c0.3,0,0.5,0,0.8,0c0-0.5-0.4-1.1,0.2-1.6c1,0.5,0.4,1.1,0.4,1.7l0.3,4.6
			C12.9-28.4,13.2-27.7,13.1-26.8z"/>
		<path class="st10" d="M11.1-32.9h-0.6c0-0.5-0.4-1.1,0.2-1.6C11.7-34.1,11.1-33.5,11.1-32.9z"/>
	</g>
</g>
</svg>
