<?xml version="1.0" encoding="utf-8"?>
<!-- Generator: Adobe Illustrator 22.0.1, SVG Export Plug-In . SVG Version: 6.00 Build 0)  -->
<svg version="1.1" id="Ebene_1" xmlns="http://www.w3.org/2000/svg" xmlns:xlink="http://www.w3.org/1999/xlink" x="0px" y="0px"
	 viewBox="0 0 568.5 748.1" style="enable-background:new 0 0 568.5 748.1;" xml:space="preserve">
<style type="text/css">
	.st0{opacity:0.8;}
	.st1{fill:#DA9945;}
</style>
<title>pirate-texture-wood-dark</title>
<g id="Ebene_2_1_" class="st0">
	<g id="final-design">
		<path class="st1" d="M514.5,384.8c1.8-4.1,3.3-8.4,4.5-12.8c0.5-1.3,1-2.8,1.5-4.4c0.9-2.9,1.6-5.9,1.9-8.9c2-9.1,3.1-18.7,4-28
			c1.3-13.2,2.1-26.5,2.7-39.8c0.6-13.9,1.2-27.6,0.6-41.5c-0.6-15.2-2.2-30.3-3.6-45.4c-1.7-18.1-2.9-36.2-5.4-54.2
			c-1.4-11.1-3.6-22.1-6.3-32.9c-1.9-7-4.4-16.1-9.7-19.9c-0.6-0.4-1.4-0.6-2.1-0.3c-0.7,0.3-1.3,0.8-1.5,1.5
			c-17.3,41.3-17.4,90.8-17,136.6c0.3,37.8-1.1,76.3,4.4,113.4c-0.7,0.9-0.9,2-0.6,3c0.6,2.4,1.5,5.2,2.5,8c0.9,4.9,2,9.7,3.2,14.5
			c0.1,0.2,0.2,0.4,0.3,0.6c0.2,0.3,0.6,0.4,0.9,0.3c0.7-0.2,1.1-0.9,0.9-1.6v-0.1c-0.2-0.8-0.4-1.7-0.6-2.5l0.2,0.5l0.3,1.2
			c0.4,2,1,4,1.8,5.9c0.7,2.1,1.5,4.2,2.3,6.3l0.6,1.5c1,2.6,2,5.3,2.8,8c0.1,0.4,0.3,0.7,0.6,1c0.2,0.2,0.4,0.2,0.6,0.2
			c1.6-0.3,3.8-1.8,5.2-2.9C511.8,390.8,513.3,387.5,514.5,384.8z M504,106l0.2-0.7c0.2,0.3,0.4,0.6,0.5,0.9
			C504.5,106.1,504.3,106,504,106z M501.9,111.7c0.2,0.3,0.5,0.7,0.8,0.9c-0.4,0.2-0.9,0.4-1.3,0.6L501.9,111.7z M505.6,116.8
			l0.2,0.7c-0.9,0.7-1.9,1.2-2.9,1.6C503.8,118.4,504.7,117.7,505.6,116.8L505.6,116.8z M498.2,123.8c0.1,0,0.2-0.1,0.2-0.2
			c0.6-0.9,1.2-1.7,2-2.4l0.4,0.2c-1.3,1.7-2.5,3.5-3.4,5.4L498.2,123.8z M509.4,364.5c-7.1-5.7-10.6-18.9-12.9-28.5
			c-2.9-11.6-4.5-23.6-4.7-35.5c0-1.9-1-3-2-3.2c-0.3-20.2-0.1-40.5-0.4-60.8c-0.2-21.4-0.4-43.6,1.3-65.4
			c1.7-8.1,3.5-16.3,5.6-24.2c0.9-3.6,5.8-20.2,10.4-21.9c1.4-0.5,2.9,0.4,4.1,3.8c0.1,0.8,0.6,1.5,1.3,1.9
			c0.9,4.4,1.7,8.9,2.4,13.3c2.7,17,4.1,34,5.6,51.2c1.3,15,3,30,3.9,45.1c0.8,14.3,0.9,28.7,0.2,43.1c-0.6,13.1-1.2,26.3-2.2,39.4
			c-0.7,8.8-1.5,17.9-3,26.7c-0.3,0.7-0.5,1.3-0.8,2l-0.1-0.1c-0.2-0.4-0.7-0.5-1-0.2c-0.1,0.1-0.2,0.1-0.2,0.2v0.1v0.1
			c-1.7,2.3-1.9,4.6-2.9,7.5c-0.9,2.3-2,4.5-3.5,6.5C510,365,509.7,364.8,509.4,364.5z M509.9,378.2c-0.2-0.1-0.3-0.3-0.5-0.3
			l-0.1-0.1c0.3-0.1,0.6-0.2,0.9-0.3c0.6-0.2,1.2-0.5,1.7-0.8c-0.1,0.4-0.2,0.7-0.4,1.1l-0.6,1.9C510.6,379,510.3,378.6,509.9,378.2
			L509.9,378.2z M501,384.1c0.4,0.5,0.8,1,1.2,1.5v0.1c-0.2,0.1-0.3,0.2-0.4,0.4C501.5,385.4,501.2,384.7,501,384.1z M507.2,386.4
			c0-0.2,0-0.4,0-0.6l0.1,0.1c0.3,0.3,0.8,0.1,1-0.2l0.4-0.5c-0.2,0.5-0.4,1-0.6,1.5c-0.2,0.4-0.5,0.8-0.8,1.1
			C507.2,387.4,507.2,386.9,507.2,386.4L507.2,386.4z M502.8,388c0.3,0.3,0.7,0.4,1.1,0.2c0.1,0,0.2-0.1,0.3-0.2
			c0.1,0.3,0.1,0.7,0.2,1c-0.1,0.6,0.1,1.2,0.6,1.6v0.1c-0.1,0.2-0.2,0.3-0.3,0.5C503.9,390.2,503.3,389.2,502.8,388L502.8,388z"/>
		<path class="st1" d="M528.7,398.7c3.5-13.2,5.5-27.1,7.2-40.9c4-31.4,5.8-63,7.2-94.7c1.2-27.2,2.8-54.4,3.1-81.6
			c0.3-33.5-8.5-65.2-21.6-93.5c-4.4-9.5-10.2-20.3-18.9-23.4c-1.2-0.4-2.5-0.6-3.8-0.5c-0.4,0-0.9,0.1-1.3,0.2
			c-1,0.2-1.9,0.7-2.9,0.4c-0.2-0.1-0.5-0.2-0.6-0.3c-1-0.7-2.1-1.1-3.3-1.3c-0.5,0-1,0-1.5,0c-3.5,0.3-6.6,2.8-9.6,5.3
			c-1.1,0.9-2.2,1.8-3.3,2.6c-0.1,0.1-0.2,0.2-0.2,0.4c0,4.4-1.7,8.6-2.6,12.9c-0.7,3.4-1.3,6.9-1.7,10.4c-0.3,2.3-0.5,4.5-0.7,6.8
			c-1.2,12.7-1,25.6-1.3,38.4c-0.3,12.4-1.2,24.7-2.4,37c-1.2,13.2-2,26.5-2.6,39.8c-1.4,27.2-1.1,54.4,0.8,81.5
			c1.9,26.1,6.8,51.9,14.5,76.9c1.1,3.6,2.3,7.2,3.6,10.7c0.1,0.3,0.3,0.6,0.5,0.8c0.1,0.1,0.1,0.1,0.2,0.1c0.2,0.1,0.5,0.2,0.8,0.1
			c0.2-0.1,0.4-0.2,0.6-0.3c2.5,12.5,6,25.4,12.8,34.2c0.4,0.6,0.9,1.1,1.4,1.6c1.8,2,4.3,3.2,7,3.5c3,0.2,5.9-1,7.9-3.2
			C523.5,417.1,526.5,407.2,528.7,398.7z M509.3,424.7c-0.7-0.1-1.4-0.2-2.1-0.5c-7.2-2.8-11.2-15-13.8-23.2
			c-1.5-4.9-2.8-9.9-3.9-15c0.3-0.6,0.3-1.3,0.1-2l-1.2-3.5c-0.4-1.8-0.7-3.7-1-5.5c-0.1-0.5-0.7-0.3-0.6,0.2l0.1,0.7
			c-14.7-47.9-15.1-101.4-14.5-152.4c0.4-25.8,2.1-51.5,2.4-77.3c0.1-12.8,0.1-25.6,0.7-38.4c0.3-6.3,0.7-12.6,1.4-18.8
			c0.3-2.7,0.8-5.4,1.3-8.1c0.4-2,1.6-4.6,1.6-6.7c0-2.8,0.8-2.8,2.7-4.2s3.4-2.8,5.2-4c1.2-0.8,2.6-1.3,4-1.5
			c1.1-0.1,2.3,0,3.4,0.4c-0.5-0.1,1.6,1.1,2.5,1.5c0.1,0.1,0.2,0.1,0.4,0.1c0.6,0,1.3-0.1,1.9-0.2c0.3-0.1,0.6-0.1,0.9-0.1
			c6.7,0.2,12.3,8.2,16,14.8c4.3,7.6,7.5,16.3,10.6,24.9c3.6,9.8,6.5,19.8,8.9,29.9c3,13.5,4.7,27.6,6.2,41.5
			c1.4,12.4,1.9,24.8,1.4,37.2c-0.5,8.4-0.6,16.8-1,25.2l-0.1,1.9c-0.3,6.2-0.6,12.4-0.9,18.6c-1.2,24.2-2.7,48.5-5,72.5
			c-1.5,15.6-3.5,31-6.2,46.3c-2,11.6-4.6,23.4-9,33.8C518.9,419,514.8,425.2,509.3,424.7z"/>
		<path class="st1" d="M535.3,656.9c0,2.3,0,4.5,0.1,6.7c0.3,7.5,1.2,15,2.7,22.4c1.2,5.8,2.8,11.5,4.3,17.2c1,3.7,2,7.4,3,11.1
			c0.1,0.4,0.6,0.7,0.5,0.3c2.9,10.7,5.6,21.7,6.9,33.1h0.1c-3.2-31.5-15.7-59.1-16.3-90.3C536.5,656.3,535.3,655.9,535.3,656.9z"/>
		<path class="st1" d="M488.8,3.3h0.1V3.1c0.1,0.1,0.2,0.2,0.3,0.3c0.4,1.6,0.8,3.2,1.2,4.9c0.3,1.4,0.7,2.7,1.1,4
			c0.3,2.3,0.8,4.6,1.5,6.9c0.5,2.2,1.2,4.5,2.1,6.6c0.2,0.5,0.4,1,0.7,1.5s0.4,0.8,0.5,1.2c0.8,2.1,1.4,4.3,1.9,6.5
			c0.9,3.3,3,4.4,5.2,4.6c0.1,0,0.2,0,0.3,0c0.5,0,0.9,0,1.4,0c0.3,0.2,0.7,0.4,1.2,0.4c0.1,0,0.1,0,0.2,0c0.4,0,0.9,0,1.3,0
			c0.8,0,1.5-0.4,1.9-1.1c0.1-0.1,0.2-0.3,0.2-0.4c2.5,0.7,4.9,1.9,6.9,3.5c3.8,3.2,5.9,10.1,8.2,15c5.7,12.1,10.8,24.6,15.2,37.2
			c4.6,13.2,7.8,27,9.4,40.9c1.7,15.1,1.5,30.4,1.4,45.6c0,3.5,0,7.1,0,10.6c0,3.6,0.9,7.3,1.2,10.9c0.5,7.9,0.6,15.9,0.7,23.8
			c0.3,15.4,0.4,30.8,0.2,46.2s-1,30.7-1.7,46s-1.8,30.4-3.9,45.4c-0.9,6.8-2.4,13.5-4.5,20c-2,5.7-4.1,11.4-5.9,17.2
			c-3.9,13.2-2.9,27.4-3.4,41.2c-0.6,15.2-2.6,30.3-3.5,45.5c-0.9,15.4-1.7,30.6-1.8,46.1c-0.2,21,0,42.1,1.3,63.1
			c0.9,14.4,2.2,28.8,3.4,43.1c0.5,5.5,0.9,11,1.3,16.4l0.3,3.5c0,0.5,0.6,0.5,0.6,0l-0.1-2.9c-1.4-29.9-1-60-1.6-89.9
			c-0.5-30.6-0.4-61.7,1.3-92.2c0.9-15.2,2.3-30.1,2.2-45.3c-0.2-7.2,0.3-14.5,1.6-21.6c1.3-6.7,3.8-13,6.1-19.2
			c4.4-12.2,6-25.2,7.3-38.5c1.4-14.6,2.2-29.3,2.9-43.9c1.5-31,1.2-61.9,0.5-92.9c-0.4-15.1,0.6-30.1,0.8-45.2
			c0.3-14.4-0.6-28.8-2.7-43c-4.3-27.3-15.1-52.2-26.2-75.7c-3.7-7.9-7.8-15.5-15.5-16.4c-1.1-0.1-2.2-0.2-3.2-0.2
			c-0.4-0.9-1.3-1.5-2.3-1.5c-0.2,0-0.5,0-0.7,0.1c-0.5,0-1,0-1.5,0c-3.5-0.2-6.1-1.9-8-5.4c0.8-0.1,1.3-0.9,1.2-1.7
			c0-0.2-0.1-0.3-0.2-0.4c-1.3-3.2-2.3-6.6-3-10c0.3-1.5,0.4-3,0.3-4.6c-0.2-1.6-0.4-3.2-0.8-4.8c0-1.1,0.1-2.2,0.2-3.3l0.1-0.5
			c0-0.1,0.1-0.1,0.1-0.2H488C487.9,1.5,488.2,2.5,488.8,3.3z"/>
		<path class="st1" d="M449,13.9l0.1,2.1c-0.2,1.4-0.2,2.8-0.2,4.2c0,0.6,0.2,1.2,0.4,1.8c0.1,2.5,0.3,4.9,0.6,7.4
			c0.6,6.9,2,13.8,4.4,20.3c0.9,2.4,3.1,3.2,4.9,4.3c2.8,1.8,5.3,3,7.8,5.5c-1.9,11.3-4.4,22.3-5.3,33.9c-1.2,13.6-1.3,27.4-1.4,41
			c-0.2,13.4-0.2,26.7-1.1,40c-1,15.1-2.8,29.9-3.3,45.1c-1,30.4,0.9,60.8,4.7,90.8c3.6,29.1,7.9,58.2,15.9,85.9
			c1.9,6.6,4.1,13,6.5,19.2c6.3,16.6,13.9,32.4,19.9,49.2c4.3,11.8,6.8,24.3,7.5,36.9c0,1,0,1.9,0,2.9c0,5.9-0.5,11.9-0.6,17.8
			c-0.1,8,0.1,15.9,0.4,23.9c0.5,14.4,1.4,29,2.6,43.4s1.8,28.9,3.2,43.3c2.8,27.1,10.4,52.6,15,79.1v0.1c0.3,1.2,1.7,0.6,1.5-0.7
			c-4.2-26.6-10.3-52.7-13.3-79.7c-1.7-15.1-2.4-30.5-3.5-45.7c-1.1-15.2-2.5-30.1-3.2-45.2c-0.6-14.6,0.1-29.2-1.2-43.8
			c-1.2-11.2-3.8-22.2-7.8-32.8c-4.1-11.5-9-22.4-13.6-33.6c-5.3-12.8-9.1-26.2-12.5-40c-6.7-27-11-54.9-14.5-82.9
			c-3.8-29.8-5.2-59.8-4.3-89.8c0.5-14.5,2.2-28.8,3.2-43.2c0.9-12.7,0.9-25.5,1-38.3c0.2-25.4-0.1-53,7.4-76.9c0.1-0.7,0-1.4-0.4-2
			c-1.5-2.5-3.3-4.7-5.5-6.7c-1.1-1-2.4-1.5-3.5-2.4c-0.3-0.2-2.3-2.3-1.9-1.3c-2.5-6.5-3.5-13.4-4.2-20.5c-0.1-1.5-0.2-3-0.3-4.5
			c0.1-0.5,0.2-1,0.2-1.5c-0.1-6.7,4.3-11.2,5.1-17.7c0.1-0.7,0.1-1.4-0.1-2h-6c-1.1,4.8-3.2,9.1-4.1,14
			C449.2,14.4,449.1,14,449,13.9z"/>
		<path class="st1" d="M547.9,26.2c-0.3,3-0.7,6.1-1.2,9.1c-0.4,2.6-1.2,7.6-2.9,6.8c-0.2-0.1-0.3-0.2-0.4-0.3
			c-0.4-0.4-0.7-0.9-1-1.4c-1.6-3.2-2.9-6.4-4.1-9.7c-2.9-8.1-4.8-16.5-5.7-25c0-0.1-0.1-0.1-0.1,0c1.2,12.5,4.9,26,10.6,36.4
			l0.4,0.8c0.3,0.5,0.6,1,0.9,1.5 M544.6,44.3c1.8-5.9,3-12,3.3-18.1L544.6,44.3z"/>
		<path class="st1" d="M558.8,620.6c-3.4-22.6-7.6-45.2-11.3-67.7c-2-12-2.5-23.8-2.6-36.1c0-3,0.2-6,0.2-9c0-1.2,0.2-2.4,0.2-3.5
			v-0.2c0-0.4-0.1-0.6,0-0.7c0.5-0.6,1.9,1.9,2.2,2.3c2.4,3.1,3.9,7.4,5.8,11.1l0.5,1.1c0.1,0.1,0.1,0.3,0.2,0.4
			c0.1,0.1,0.4,0.4,0.7,0.2c3.5-3.4,3-11,2.8-16c-0.3-9.4-1.6-18.7-2.4-28c-1-11.4,0.3-22.5,1.4-33.8c1.4-14.7,1.1-29.5,2.3-44.1
			c1.2-15,3.2-30,3.4-45.1c0.2-15-1.8-29.8-0.4-44.8c2.8-30.4,4.8-60.9,5.8-91.5c0.6-19.5,1.2-39.2,0.6-58.6
			c-0.6-18.8-2.5-37.5-4.4-56.2c-2.1-19.7-3.7-39.1-4.7-58.9c-0.7-14-2.9-27.8-4.8-41.2H553c2.6,7.8,3.2,16.3,3.6,24.8
			c0,0.4-0.1,0.8-0.4,1.1l-0.1,0.1c0.8,6.4,1.1,12.9,1.1,19.3c0,0.5-0.2,0.9-0.5,1.2c0.2,2.3,0.3,4.7,0.5,7
			c0.5,7.3,1.6,14.5,2.4,21.8l1.9,17.3c0.7,6.9,1.5,13.8,2.1,20.8c1.7,17.8,2.9,35.6,3,53.5c0.1,26.1-0.6,52.2-1.9,78.3
			c-0.2,4.4-0.5,8.9-0.7,13.3c-0.9,15.3-1.9,30.7-3.1,46c-0.7,9-0.8,18-0.8,27c0,5.9,0.1,11.8,0.2,17.8c0.1,20-3.9,39.6-4.8,59.5
			c-0.5,10.4-0.9,20.6-2,31c-0.9,8.7-1.8,17.5-1.4,26.3c0.4,8.6,2.1,17.1,3.2,25.6c0.4,3.1,0.8,6.2,1,9.4c0.3,4.7,0.9,11.5-1.6,15.4
			c0,0-0.1,0-0.2-0.2c-0.1-0.2-0.4-0.6-0.6-1.1c-1.3-2.2-3.6-6.8-3.9-7.4c-1.2-2.5-3-4.7-5.2-6.4c-0.2-0.2-0.5,0-0.5,0.4v1.2
			c0.1,16.4,0.6,32.7,1.7,49c0.3,4.3,0.6,8.6,1,12.9c1.8,20.7,6.5,41,9.3,61.5c3.1,21.9,3.8,44.2,3.2,66.3
			c-0.5,18-1.1,36.3-0.5,54.4h2.9c0-20,1.7-38.8,2.2-58C564.6,666.4,562.3,643.5,558.8,620.6z"/>
		<path class="st1" d="M547.9,26.2c0.7-7.4,1-15,1-22.6C548.4,11.1,548.5,18.7,547.9,26.2z"/>
		<path class="st1" d="M448.9,328.6c0.1-26.6-1-53.3-3.2-79.8c-1.2-13.5-2.1-27-2.2-40.6s0.3-27.6,0.7-41.3s0.8-27.5,0.7-41.3
			c0-13.5-1-27-2-40.4s-1.9-26.7-2.6-40.1c-0.7-13.6-0.7-27.3-1.8-40.9c0-0.3-0.3-0.3-0.3,0c-0.3,3.2-0.4,6.3-0.5,9.5
			c-0.3,12.3,0.7,24.7,1.4,36.8c0.9,15.2,2,30.3,3.1,45.5c0.5,7.4,0.9,14.8,1.2,22.2c0.3,8.1,0.5,16.2,0.5,24.3
			c0,15.7-0.7,31.3-1,47c-0.5,25.3,1.3,50.4,2.8,75.6c0.3,5.4,0.6,10.8,0.9,16.2c0.4,9.3,0.8,18.7,1,28c0.1,5.8,0.2,11.6,0.3,17.5
			c0,8.6-0.3,17.3-0.4,25.9c0,3.9,0,7.7,0.1,11.6c0,2.5,0.1,4.9,0.3,7.4c0.3,5.1,0.6,10.2,0.8,15.4c0.4,7.8,0.8,15.6,1.4,23.4
			c1,12.9,1.7,25.8,1.5,38.7c-0.3,25.2-6.3,49.7-6,75.1c0.2,26.6,1.9,53.3,3.4,79.9c0.7,12.1,0.4,24.2,0.3,36.2
			c-0.1,13.3,0.1,26.5,2.2,39.7c0,0.1,0.1,0,0.1,0c-2.7-14.7-1.4-30.1-0.5-44.9c0.9-14.8,1-29.1,0.5-44c-0.5-15.1-1.2-30.2-1.9-45.3
			c-0.7-14.6-1.6-28.8-0.5-43.4c1.1-13.8,3.1-27.3,4.2-41.1c1.1-14.5,0.6-29.2-0.4-43.7c-1-14.7-3-29.3-3.6-44.1
			C448.4,358.4,448.9,343.6,448.9,328.6z"/>
		<path class="st1" d="M466.4,647.5c0.8-13.7,0.6-27.4-0.7-41c-0.8-7.8-0.3-15.9,0-23.8c0.2-7.5,0.6-15,1-22.5
			c1.5-29.3,3.2-58.6,1.9-88c0-1.4-1.3-1.7-1.8-1c-0.2,0.3-0.3,0.6-0.3,1c1.2,29.4-0.6,58.7-2,88c-0.7,14.3-0.9,28.7-1.5,43.1
			c-0.2,3.7-0.8,7.5-1,11.2c-0.2,3.7-0.1,7.4-0.1,11c0,7.3-0.3,14.6-0.7,21.9c-1.4,28.6-5,57.4-6.6,85.9c-0.3,4.6-0.5,9.5-0.6,14.2
			h5.4c0.1-4.8,0.4-9.7,0.6-14.2C461.6,704.9,465,676.1,466.4,647.5z"/>
		<path class="st1" d="M490.6,680.5c0.1-10.9,6-18.7,6.6-29.3c0.7-13.4-2.6-26.9-5.1-39.7c-1.3-6.7-2.6-13.5-3.5-20.3
			c-1-8-1.3-16.1-1-24.1c0.4-15,0-30.3-1-45.2c-1.9-29.8-5.2-58.9-11.2-87.8c-1.2-5.8-3.1-11.3-4.5-17c-1.4-5.9-2.7-11.7-3.7-17.8
			c-2.1-12.8-4.2-25.5-5.1-38.5l0,0c0.6,9.7,1.1,19.4,2.1,29c0.4,4,0.9,7.9,1.5,11.9c1,6.6,2.4,13.2,3.7,19.8
			c1.5,7.5,2.4,15.3,3.8,22.9c2.7,14.6,4.8,29.5,6.8,44.3c2,15.2,4.2,30.7,5.1,46c0.5,9.1,0.8,18.3,1.2,27.4
			c0.2,5.8,0.5,11.6,0.9,17.4c0.9,13.8,4,27.2,5.6,40.9l0.5,4.3c0.6,5.8,1.2,11.7,1.2,17.5c0.1,6.4-2,11.5-4.2,16.9
			c-1.8,4.1-3.2,8.3-4.1,12.7c-1.3,6.8-0.9,14.1-0.3,21c1,11.9,3,23.7,2.9,35.8c-0.1,6.3-0.3,12.6-0.5,19.3h5.1
			c0.3-8.6,0.6-16.4,0.6-24.4C494.1,709,490.5,694.8,490.6,680.5z"/>
		<path class="st1" d="M507.6,598.8c-1-14-2.1-28.1-2.2-42.1c-0.1-13.3,0-26.6-0.7-39.9c-0.6-12.4-2-24.9-6.6-36
			c-0.1-0.2-0.2,0-0.2,0.1l0.5,4.6c1.3,11.5,2.4,23,2.9,34.5c0.5,12.7,0.4,25.5,1,38.2c0.6,13.6,2.7,26.9,3.9,40.3v0.2
			c1.3,14.8,2.7,29.5,3.7,44.3c1.8,26.8,3,53.5,3.7,80.3c-0.2-3.1-0.4-6.1-0.6-9.2c0-0.4-0.2-0.8-0.6-0.9c0.5,6.7,1.6,13.3,1.4,20
			c0,0.6-0.2,1.1-0.6,1.5c-0.1,0.1-0.3,0.2-0.5,0.3c0.1,1.2,0.2,2.5,0.2,3.8c0,0.6-0.3,1.1-0.7,1.5c0.1,2.3,0.1,4.5,0.2,7.4h2.7
			c-1.2-36.3-2.7-70.9-4.8-106C509.3,627.6,508.6,612.9,507.6,598.8z"/>
		<path class="st1" d="M512.5,280.5c0-2.6,0.1-5.3,0.1-7.9c0.1-0.1,0.2-0.3,0.2-0.4c1.3-5.2,2.3-9.3,2.4-14.8
			c0.1-6.1,0-12.1-0.3-18.2c-0.5-10.8-1.6-22-4.9-32c-0.3-1.2-1.4-1.9-2.6-1.6c-0.1,0-0.2,0-0.3,0.1c-1,0.4-1.8,1.3-1.9,2.4
			c-0.8,4.3-1.2,8.6-1.5,12.9c-0.5,0.7-0.8,1.5-0.8,2.3c-0.1,5.9,0.2,11.9,1,17.8c0.8,13.2,2.7,26.3,3.3,39.5
			c-0.1,1.4,0.7,2.6,2,3.2C510.7,284.1,512.5,283.1,512.5,280.5z"/>
		<path class="st1" d="M513.1,5.5c0.3,2.3,0.7,4.5,1.2,6.7c0,0.2,0.3,0,0.3-0.2c-0.3-2-0.6-5,0.2-6.9c0.5-1.5,0.8-3,0.9-4.6h-2.5
			C512.9,2.1,512.9,3.8,513.1,5.5z"/>
		<path class="st1" d="M561.8,24.8c0.8,3.5,1.6,7.1,2.3,10.6c1.4,6.7,2.2,13.5,2.4,20.3l0,0c0-3.8,0.5-8.2,0.1-12.3
			c-0.6-5-1.3-9.9-2-14.8c-0.5-3.9-1.2-7.8-1.8-11.6c-0.1-1.5-0.2-3.1-0.3-4.6c-0.1-3.1-0.2-6.3-0.5-9.4c0.2-1,0.3-1.7,0.4-2.6H559
			C558.3,8.1,559.9,16.6,561.8,24.8z"/>
		<path class="st1" d="M15.6,45.3c-0.2,17.3-1.7,34.5-2.3,51.8s-0.1,34.8,0.1,52.2c0.1,17.6,0.5,35.2,0.7,52.8h-2.4
			c-0.5,0-0.8,0.5-0.9,1.1c-0.2,5.9-1.1,11.9-1.5,17.8c-0.5,8-0.9,16-1.2,24c-0.5,15.6-0.6,31.3-0.6,47c0,31,1.3,61.8,2.4,92.7
			c1,30.7,1.1,61.4,0.6,92c-0.3,15.3-0.9,30.5-1.8,45.7c-0.9,15.2-1.5,31-3.2,46.1c-1.5,14.6-1.4,29.6-1.6,44.2
			c-0.2,15.8,0,31.6,0,47.4c0,15.8,0.3,31.5-1.7,47C1,716.8-0.2,726.9,0,736.8c0.1,3,0.2,6,0.6,8.9c0,0.5,0.5,0.4,0.5,0
			C1,731.2,4.5,717.3,6,703.1c1.6-14.8,1.1-30.1,1.1-45c0-31.6-0.1-63.1,1.7-94.6c0.5-9.1,1-18.2,1.4-27.4
			c0.5-9.7,0.9-19.4,1.2-29.2c1.5-42,1.8-84.1,0.3-126.1c-1.1-30.3-2.3-60.5-2.3-90.9c0-15,0.1-30.1,0.5-45.1
			c0.2-7.4,0.6-14.8,1.2-22.2c0.4-6,1.7-12.4,1.7-18.5l0,0c0,0,0.6,0,0.9,0c0.3,0,0.9,0,1.3,0c0.4,0,0.9-0.5,0.9-1.2
			c0.2-17.4,0.6-34.7,0.7-52.1c0.1-17.4-0.1-34.8,0.5-52.2s2.2-34.5,2.7-51.8c0.2-8.5,0.1-16.7-0.4-25.2c-0.5-7.3-2.1-14.8-2.8-21.5
			h-4.8c0.6,5.7,2,12.3,2.7,18.7C15.4,27.8,15.8,36.5,15.6,45.3z"/>
		<path class="st1" d="M45.5,717.1c0.4-2.2,0.8-4.4,1-6.6c0.8,0,1.3-1.1,1.4-2.1c0.3-5.4,1.6-10.8,2.5-16.1c1-6,2.3-11.9,3.6-17.8
			c2.8-12.5,6-24.9,8.3-37.5c4.6-25.6,2.9-51.1-0.1-76.8c-1.4-11.9-3.4-24-3.6-36c-0.2-9.1,0.3-18.2,0.4-27.3
			c0.2-16.3,0.6-37.3-8.6-50c-0.5-0.9-1.6-1.2-2.5-0.9c-1,0.4-1.7,1.3-1.9,2.4c-1.1,4.7-1.6,9.7-2.5,14.5s-1.6,10-2.2,15
			c-1.2,10.6-1.8,21.3-2.2,32c-0.9,21.7-1.8,43.3-3.3,64.9c-0.8,11.2-1.6,22.4-1.9,33.7c-0.3,11.6,1,22.9,1.9,34.4
			c1.6,19.7,4.4,39.2,8.6,58.5c0,1.7,0.1,3.5,0.2,5.3c-0.6,0.4-0.9,1-0.9,1.7c0.2,2,0.4,3.9,0.8,5.8c0.2,0.9,0.3,1.9,0.5,2.8
			c0,0.1,0.1,0.2,0.3,0.2C45.5,717.4,45.6,717.3,45.5,717.1L45.5,717.1z M44.2,689.8c-2.3-15.5-3.8-31.2-4.9-46.8
			c-1.5-22-0.1-44.3,1.6-66.2c1.6-21.1,2.6-42.2,3.4-63.3c0.4-10.4,0.9-20.8,1.9-31.2c0.5-5.3,1.2-10.6,2.1-15.8
			c0.3-2.1,0.7-4.2,1-6.4l0.4-2.7c5.3,12.4,4.2,30.4,4,43.5c-0.2,8.5-0.5,16.9-0.3,25.4c0.3,12,2.4,24.1,3.8,35.9
			c1.7,13.3,2.7,26.6,3,39.9c0,12.8-1.2,25.6-3.8,38.2c-2.3,12.1-5.4,23.9-8,35.8c-1.3,5.8-2.4,11.7-3.4,17.7l-0.1,0.6
			C44.7,692.9,44.5,691.3,44.2,689.8z"/>
		<path class="st1" d="M79.5,654.4c1.4-15,0.5-30.1-0.3-45.1c-0.8-15.3-0.8-30.6-0.1-45.8c2.7-61.6,0.1-123.5-1.9-185
			c-0.5-16.4-1.2-32.7-2.2-49c-1-15.5-2-31-1.3-46.5c0.2-3.7,0.5-7.5,0.9-11.2c0.3-2.9,1.8-7.1,1.6-10c-0.6-8.3-0.8-16.6-0.4-24.9
			c0.6-17.5,2.7-34.9,2.7-52.4c0-0.9-0.4-1.7-1.2-2.1c-0.9-0.4-2-0.6-3-0.4c-7.3,1.2-8.6,20.4-11.8,29.5c-0.1-1.4-0.2-2.8-0.2-4.2
			c-0.6-18.6,3.1-37.7-1.9-55.7c-1.8-6.4-6.5-9.2-9.5-14.3c-2.2-3.8-2.8-9-3.5-13.6c-0.7-5.3-1.1-10.6-1.1-16
			c-0.4-21.8,7-42,10.9-62.8c2-9.9,2.6-20.1,1.8-30.2c-0.6-1.8-1.1-3.7-1.7-5c-0.9-2.3-1.9-4.6-2.7-7c-0.1,1.2-0.1,2.6,0,3.9
			s0.2,2.7,0.5,4c2.5,11.5,1.1,23.5-0.9,34.9c-3.8,20.8-10.6,40.6-10.4,62.2c0.1,9.2,1,18.9,3.4,27.6c1.9,6.7,7.2,9.2,10,14.8
			c2.1,4.3,2.7,10.7,3.2,15.7c0.4,5.6,0.5,11.2,0.2,16.8c-0.3,11.3-1.3,22.6,0,33.8c0,0.3,0.2,0.6,0.4,0.9c0.4,0.4,1.1,0.4,1.5-0.1
			l0.1-0.1c3.2-4.3,4.4-9.1,5.8-14.8c0.8-3.5,2.3-13,5.5-15.4c0.4-0.3,0.9-0.5,1.4-0.6c-0.2,13.5-1.2,26.8-2,40.3
			c-0.4,6.8-0.7,13.6-0.7,20.5c0,3.3,0.1,6.6,0.3,9.9c0.1,3.7-0.1,7.4-0.7,11c-3.5,24.4-0.8,50.1,0.7,74.5
			c0.8,14.4,0.9,28.9,1.4,43.3c0.6,15.3,1.1,30.7,1.5,46c0.9,30.8,1.9,61.4,1.4,92.2c-0.3,18.8-1.5,37.5-2,56.3
			c-0.5,18,1.5,36,1.7,54c0.1,9.4-0.5,18.8-1.7,28.1c-1.2,8.3-2.7,16.4-3.5,24.7C70,705.9,71,725.5,72,744.3c0,0.7,0.3,1.4,0.9,1.8
			c0.9,0.6,2.2,0,2.3-1.8c0.8-15.4,1.3-30.9,0.7-46.3C75.4,683.1,78.1,669,79.5,654.4z"/>
		<path class="st1" d="M94.4,339.8c0.1-28.1,0.9-56.2,0.9-84.4c0-24.3,1.1-48.9-0.2-73.2c-0.9-17.2-4-35.9-15-46.6
			c-4.3-4.1-9.2-7-13-11.9c-4.6-5.9-4.5-13.8-2.8-21.4l0.1-0.5c1.1,0.5,2.2,0.9,3.3,1c2.9,0.3,5.4-1.1,6.8-5.8
			c2.5-8.2,0.8-18.8,1.3-27.4c0.4-4.9,1.1-9.8,2.3-14.5c1.6-6.5,2.6-13.1,3.1-19.8c0.1-1.7,0.2-3.4,0.2-5.2
			c-0.2-0.4-0.3-0.9-0.4-1.4c-0.6-3.4-1.3-6.7-2-10c0.1,2.6,0.3,5.2,0.3,7.8v1c0.1,6.4-0.4,12.8-1.4,19.2c-0.8,5-2.3,9.7-3.2,14.7
			c-1.4,7.9-1.1,16-1.1,24.1c0.1,3.6-0.2,7.3-1,10.8c-0.8,3.4-2.8,4.2-4.8,3.9c-1.2-0.2-2.4-0.7-3.5-1.3c-0.4-0.3-0.9-0.2-1.2,0.2
			c-0.2,0.2-0.3,0.4-0.3,0.6c-1.9,7.5-2.6,15.5,0.8,22.4c2.8,5.7,7.8,9.2,11.9,12.8c6.4,5.6,10.6,11.9,13.4,21.5
			c3.3,11.4,3.9,23.9,4.1,36c0.5,27.8-0.4,55.8-0.8,83.6c-0.5,31.2-1.1,62.5-1.6,93.7c-0.4,28-0.6,55.9,0.4,83.8
			c1,28.2,2.8,56.2,2.6,84.5c-0.2,27.6-2.1,55.1-2.2,82.7c-0.1,22,0.4,44.2-0.7,66.2c-0.3,6.2-0.8,12.3-1.4,18.5
			c-0.1,0.7,0.7,0.9,0.8,0.3c1.9-14.4,3.1-28.9,3.9-43.5c0.8-15,0.5-30.1,0.6-45.1c0.2-30.7,2.4-61.3,3.2-91.9
			c0.4-15.3-0.3-30.5-1.1-45.8c-0.8-15.4-1.2-30.8-1.5-46.3C94.5,402.1,94.3,370.9,94.4,339.8z"/>
		<path class="st1" d="M130.3,600.7c-0.3-30-0.1-60-0.7-90c-0.3-14.4-0.9-28.9-2-43.2c-1.1-14.3-3-28.4-3.9-42.7
			c-3.8-61.4-0.6-122.6,0.3-184.1c0.2-15.3,0.6-30.7,0.2-46c-0.4-15-2.1-30-3.2-45c-1.1-15.1-1.1-30.3-0.1-45.4
			c0.9-14.3,2.3-28.5,1.9-42.9c-0.3-13-1.9-25.9-3.4-38.7c-0.3,1.5-0.6,3-0.9,4.5l-0.4,1.9c1.3,11.9,2.8,23.8,3,35.9
			c0.2,14.4-1.3,28.6-2.2,42.9c-0.5,9.3-0.5,18.6-0.1,27.9c0.4,10.3,1.3,20.5,2.1,30.8c0.5,6,0.9,12,1.2,18c-0.5,0.1-0.8,0.5-0.8,1
			c-1.8,9.1-2.1,18.5-2.1,27.9c-0.5-0.7-1-1.3-1.4-2c-0.8-1-1.5-2.2-2-3.4c-0.1-0.5-0.6-0.8-1.1-0.7c-0.2,0.1-0.4,0.2-0.5,0.3
			c-0.3,0.3-0.4,0.7-0.4,1.1v1.4c-0.4-0.3-0.9-0.4-1.4-0.5c-0.2,0-0.5,0-0.7,0c-0.1,0-0.3,0-0.4,0.1c-0.7,0.4-1.1,1.1-1.1,1.9
			c-1.4,29.5-4.2,58.9-5.6,88.5c-1.4,30.4,2.2,60.8,4.2,91.1c2,30.8,2.9,61.4,2.4,92.3c-0.5,30.7,1.3,61.4,2.2,92.1
			c0.4,14,0.7,27.9,0.5,41.8c-0.2,14.6-1.4,28.6-2.9,43c-1.5,13.4-2.1,26.8-1.7,40.3c0.5,14.1,1.6,27.9,0.3,42c0,0.3,0,0.5,0.1,0.8
			c0.4,0.7,1.6,0.5,1.7-0.8c1.4-14.5,0.6-29.2,0.2-43.7s1-28.8,2.3-43.2c2.7-29.6,2.5-59.6,1.7-89.4c-0.8-30.8-1.9-61.5-1.4-92.3
			s-1.2-61.6-3.3-92.2c-1.9-28.5-4.4-56.8-3.7-85.5c0.6-26.8,3.7-53.5,5.5-80.3v-0.5c0.1,0.2,0.3,0.3,0.5,0.4
			c0.1,0.1,0.3,0.1,0.5,0.1c0.4,0,0.7-0.1,1.1-0.1c0.6-0.1,1.1-0.6,1.2-1.2c0-0.2,0-0.3,0-0.5l-0.1-1.5c1.3,1.6,2.4,3.3,3.3,5.1
			c0.1,0.1,0.1,0.2,0.2,0.3c0.6,0.8,1.8,0.3,1.8-1c0-3.1,0-6.2,0.1-9.2c0-5.4,0.4-10.8,1.1-16.2c0.1,2.1,0.2,4.1,0.2,6.2
			c0.6,30.5-1,61.2-1.9,91.7c-0.9,30.8-1.4,61.5-0.9,92.3c0.5,29.6,2.6,59.2,4.1,88.7c0.7,14.4,1.6,28.7,1.8,43.1
			c0.2,14.8,0.1,29.7,0.2,44.5c0.2,30.6,0.7,61.7,0.8,92.3c0.1,32.2-0.6,64.4-1.5,96.8h4.1c0.8-19.1,1-36.6,1.1-54.6
			C130.9,662.5,130.6,631.4,130.3,600.7z"/>
		<path class="st1" d="M126.8,0.8c-0.1-0.2-0.2-0.3-0.3-0.4h-0.1C126.5,0.4,126.6,0.7,126.8,0.8L126.8,0.8z"/>
		<path class="st1" d="M126.1,0.9v0.8c0,0.1,0,0.1,0,0.2c0.1,3.2,0.5,6.3,1.3,9.4l0.3,1.3c0,0.8,0.1,1.5,0.1,2.3
			c0,7.2-0.3,14.2-0.8,21.4c-0.9,14.4-1.8,28.7-2,43.2c-0.4,30.1,0.7,60.3,2.4,90.3c1.8,30.6,3.3,61.4,1.2,92
			c-0.4,6.6-1.1,13-1.8,19.6l-0.1-14.2v-4.7l0,0l-0.1,6l-0.2,16.5c-0.7,7.3-1.4,14.7-1.8,22c-0.7,12.1-0.4,24.2,0.9,36.3
			c0.2,1.4,0.3,2.8,0.5,4.2v5.6l0.1,6c0.2,10.9,0.5,21.7,1,32.6l0.2,3l0.1,2.9c0,0.5,0.6,0.7,0.7,0.1c2.7-11.7,1.2-24.1,0.2-36
			c-0.4-5.1-0.9-10.1-1.3-15.2c-0.2-15.3-0.2-30.5-0.2-45.8c0.7-8.6,1.6-17.2,2.5-25.8c1.6-14.8,2.3-29.8,2.3-44.7
			c0.2-30.7-2.4-61.4-3.5-92.1c-1.1-29.6-1.4-58.7,0.1-88.3c0.8-15.6,2.8-31.5,1-46.8h0.2c0.3,0,0.5-0.1,0.5-0.4
			c0-0.9,0-1.7-0.1-2.6H129l0,0c0,0.2,0,0.2-0.1,0.4L128.8,0h-2.1v0.7l0,0v0.2c-0.1-0.1-0.2-0.2-0.3-0.4l0,0l-0.1-0.2l0,0v0.2
			C126.2,0.6,126.1,0.7,126.1,0.9z M129,388.2c-0.1,1.9-0.4,3.7-0.7,5.5l-0.2,1.3l0,0c-0.1-1.6-0.1-3.1-0.2-4.7
			c-0.1-1.8-0.1-3.6-0.1-5.5v-1.7c-0.1-3.9-0.2-7.8-0.2-11.7l-0.1-4l-0.2-8v-4C128.6,366.3,129.8,377.2,129,388.2z M126,328.8
			c-0.1-2.4-0.1-4.7-0.1-7.1c0-2.6,0.1-5.2,0.2-7.8C126.1,318.9,126.1,323.8,126,328.8L126,328.8z"/>
		<path class="st1" d="M31.3,18.7c-1.6,30.8-3.1,61.3-4.1,92.1c-0.5,15.5-0.8,31.1-0.7,46.7c0.1,13.9,0.1,28.5,2.2,42.2
			c2.4,15,2.4,30.8,3.7,46.1c1.3,14.9,2.5,29.8,2.5,44.7v1.9c-0.3,26.5-5.3,52.4,1.8,78.2c0.9,3.3,1.7,6.7,2.3,10.1
			c1.1,5.9,1.8,11.8,2.1,17.8c0.2,4.6,0.2,9.3-0.1,13.9c-0.7,9.2-1.9,18.3-3.8,27.3c-0.9,4.8-1.9,9.6-3,14.3
			c-11,51.7-16.2,106.1-16.3,159.7c0,9.6,0.1,19.2,0.4,28.8c1,27.6,3.7,55.2,9.4,81.8c0.1,0.4,0.6,0.2,0.5-0.2
			c-11.2-52.4-9.3-107.7-5.7-161.4c0.9-13.4,2-26.7,3.4-40s2.3-26.9,4.5-40.1c4.3-26.5,12.2-52.4,12.3-79.8c0-6-0.5-12-1.4-17.9
			c-1.1-7.3-3.5-14.1-5-21.2c-2.8-13.3-2.4-27.2-1.5-40.8c0.9-14.3,2.1-28.5,1.7-42.9c-0.4-15-1.9-30-3.1-45
			c-0.5-7.3-0.9-14.7-1.3-22c-0.4-7.3,0.4-14.8,0.3-22.2c-0.3-14.7-0.8-29.5-0.7-44.2c0.1-31.1,1.8-62.2,3.1-93.2
			c0.3-7.2,0.7-14.4,0.8-21.6C35.1,21.3,34,10.9,32.2,0.6h-0.1l-0.3,7C31.7,11.2,31.5,15,31.3,18.7z"/>
		<path class="st1" d="M16,722c-0.1-0.4-0.3-0.8-0.5-1.2l-0.1-1.1c-0.8-14.8-1.7-29.5-2.7-44.3c-2.1-30.7-2.1-61.3-1.2-92.1
			c0.9-30.8,1.4-62,4.4-92.6c3-30.1,7.2-60,6.6-90.5c-0.6-30-0.6-60,0.1-90c0.3-15,0.6-30.1,0.9-45.1c0.1-6.9,0.3-13.9,0.4-20.8
			c0-6.2-0.8-12.3-2.4-18.3c0-0.1-0.1-0.1-0.1,0c0.4,3.2,0.6,6.3,0.6,9.5c0,4.1-0.3,8.2-0.4,12.1L21,270.8
			c-0.4,15.6-0.7,31.3-0.9,46.9s-0.4,31.2-0.3,46.8s0.6,31.2,0.6,46.8c0,30.3-4.6,60.3-7.2,90.3c-0.9,10.7-1.3,21.4-1.6,32.1
			c-0.1,4.7-0.2,9.4-0.4,14.1c-0.2,7.4-0.5,14.9-0.8,22.3c-0.3,8.2-0.7,16.4-0.9,24.6c-0.4,14.3-0.7,28.7-0.5,43s1.1,28.7,2.2,43
			c0.9,13.1,1.8,26.2,2.2,39.3c-0.9,0.2-1.8,1.7-1.8,3.2c0,8,0.2,15.9,0.6,24.4h4.7c-0.2-6.7-0.6-13.1-0.8-19.4
			C16.4,726.2,16.4,724.1,16,722z"/>
		<path class="st1" d="M101.6,5.3c-0.7,3.2-1.2,6.3-1.8,9.5c-0.2,1.2-0.4,2.3-0.5,3.5c-0.2,4.5-0.4,9-0.7,13.5
			c-0.9,14.6-2,28.4-1.3,43.1c0.7,13.5,2.5,26.9,4.3,40.2c2,14.2,3.9,28.5,4.9,42.9c0.8,14.1,0.4,28.2-1.2,42.2
			c-2.9,28.5-5.8,57-7.6,85.6c-1.5,23.5-2.2,46.9-1.7,70.3c0.5,23.1,2.3,46.1,5.4,69c0.1,0.3,0.4,0.2,0.4-0.1
			c-4.2-28.6-4.6-57.6-4.3-86.6s2.1-58.4,4.6-87.4c1.2-14.2,2.6-28.3,4-42.5s2.8-27.8,2.4-42c-0.8-28-6.4-55.4-8.9-83.1
			c-1.1-11.2-1.3-22.5-0.8-33.8c0.7-12.1,1.9-23.8,2.3-36C101.4,10.8,101.5,8,101.6,5.3z"/>
		<path class="st1" d="M68.4,500.9c0,0.1,0,0.3,0.1,0.4c0.3,0.9,1.5,0.8,1.5-0.4c0.3-15.6,0.7-31.1,0.1-46.7
			c-0.6-14.9-1.9-29.9-4-44.7c-3.8-27.8-14.3-53.4-15.5-81.9c-0.7-15.5-0.5-31-0.5-46.5c0-14.8-0.7-29.5-0.9-44.3
			c-0.2-12.9,0.2-25.9-1.2-38.7c-0.8-7-2.6-13.6-3.2-20.6c-0.7-8-1.2-16.1-1.6-24.2c-0.8-14.9-1.7-29.8-2.1-44.7
			c0-0.1-0.2-0.1-0.2,0c-0.2,7.1-0.4,14.2-0.4,21.4c0,8.4,0,16.8,0.4,25.2c0.3,7.4,0.7,14.9,1.1,22.3c0.2,3.8,0.2,7.5,0.3,11.3
			c0.1,3,1.2,6.3,1.6,9.2c1.9,13.2,1.1,27,1.3,40.4c0.2,14.9,0.8,29.7,0.8,44.5c0,15.5,0,30.9,0.6,46.4c0.6,13.7,3.5,27,6.5,40
			c3.2,13.3,6.7,26.4,8.9,40c2.5,15.5,4.1,31.1,4.8,46.7C67.7,471,68.1,486,68.4,500.9z"/>
		<path class="st1" d="M414.1,628.7c0.4-13.6-2-27.3-3.9-40.6c-2.3-15.4-3.4-31-3.4-46.6c0-15.4,1.3-30.7,1.5-46.1
			c0.3-30.7-3.4-61.2-3.2-91.9c0.1-16.2,0.1-32.7-1.5-48.7l0,0c1.3,14.6,0.4,29,0.1,43.5v1.5c-0.1,5,0,10,0.1,15v0.4l0.1,3.2
			c0.2,7.6,0.6,15.3,1,22.9l0.2,4.6c0.8,15.2,1,30.4,1,45.6s-1.3,30.7-1.6,46.1c-0.3,14.8,0.5,29.6,2.4,44.2
			c1.9,14.4,4.5,28.6,4.5,43.2c0,6.3-0.8,12.7-1.2,19c-0.4,6.8-0.5,13.6-0.6,20.5c-0.1,13.9,1,28.2,1.8,42.1
			c0.4,6.6,0.9,13.1,1.5,19.8c0.6,6.8,1.2,13.8,1.9,21h1.1c-2.2-26.7-3.6-52.8-3.5-79.1C412.2,655.3,413.7,641.9,414.1,628.7z"/>
		<path class="st1" d="M400.6,10.1c0,2.9-0.1,5.8-0.1,8.6c-0.3,15-1.4,29.6-0.4,44.6c1,14.1,3,28,3.9,42c1,14.8-0.4,29.5-1,44.3
			c-0.7,15.6-1.1,31.2-1.4,46.9s-0.5,31.3-0.5,47s-0.5,31.3,0.3,46.9c0.3,6.2,0.6,12.4,0.7,18.6c-0.1,0.7,0.3,1.4,0.9,1.8
			c1,0.6,2.3,0,2.3-1.8c0.1-15.6,1-31.1,1.1-46.7s0.3-31.3,0.5-47c0.5-31.1,1.9-62.1,3.1-93.2c1.1-28.6-6.5-56.2-4.7-84.8
			c0.3-4.3,0.5-8.8,0.6-13.2V24v-0.2l0.1-3.7c-0.1,0-0.2-0.1-0.3-0.2c-0.1-1.6-0.2-3.2-0.4-4.7c0-1.6,0-3.1,0-4.7
			c0.1-0.6-0.3-1.1-0.9-1.3c-0.5-2.6-1.5-5-2.9-7.2l-0.4-1.7h-0.3v1.1c-0.3,0-0.6,0.3-0.6,0.8v0.1v0.3c-0.3-0.5-0.6-0.9-0.9-1.3
			c-0.2-0.3-0.4-0.7-0.6-1.1h-1.4l0.1,0.3C398.2,3.9,399.5,6.9,400.6,10.1z M402.6,11.2l0.3,1.2c0,1.3,0,2.7,0,4
			c-0.1-0.4-0.2-0.8-0.2-1.3c-0.2-1.7-0.3-3.4-0.4-5.2C402.4,10.4,402.5,10.8,402.6,11.2L402.6,11.2z"/>
		<path class="st1" d="M375.3,37.8c-0.9,13.8-0.6,27.6,0.9,41.3c1.4,13.6,3,27,4.9,40.5c2.1,14.7,4.2,29.6,4.2,44.6
			c-0.1,13.5-2.9,27.4-5.5,40.4c-2.8,14.2-3.9,28.7-4.3,43.3c-0.4,14.9-0.4,30,0.2,44.9c0.4,10.4,1.2,20.8,2,31.2
			c0.4,5.1,0.8,10.2,1.1,15.3c1.9,30.5,4,60.9,5.3,91.5c0.6,15.5,0.9,30.9,1,46.4c0.1,15,0.4,30-0.8,45c-1.1,14.3-3.1,28.4-4,42.7
			c-0.1,2.1-0.2,4.1-0.2,6.2c0.2-4.4,0.5-8.8,0.8-12.9c1.1-14.3,3.1-28.4,4-42.7c0.9-15.1,0.4-30.6,0.3-45.8
			c-0.1-15.4-0.2-30.8-0.8-46.1s-1.2-30.4-2.2-45.6s-2.5-30.7-2.8-46c-0.1-7.4-0.4-14.9-0.4-22.3c0-8.1,0.5-16.2,0.5-24.3
			c0-14.8-0.3-29.6,0.3-44.5c0.6-15.3,3.1-29.7,5.8-44.5c2.3-12.8,3.3-25.8,2.8-38.8c-1.1-28.7-8.5-56.3-11.1-84.8
			c-2.2-24.4,0.2-48.5,2.8-72.3H380c-1.6,11.5-3.5,24.3-4.5,36.7L375.3,37.8z"/>
		<path class="st1" d="M381.9,677.8c-0.4-7-1.1-13.9-0.9-21s1.8-13.9,3-20.7c1.1-6,2.4-12,2.2-18.3c-0.2-6.3-2.3-11.9-3.9-17.5
			c-0.1-0.4-0.2-0.9-0.3-1.3l0.7,4.3c0.3,2.1,0.6,4.2,0.9,6.2c0.7,4.8,0.8,9.6,0.2,14.4c-1,6.9-2.4,13.6-3.6,20.4
			c-1.1,5.7-1.8,11.4-2.1,17.2c-0.4,7.8,0.5,16.3,0.8,24.2c1,20.5,2.1,41,2.8,62h1.9c0.1-7.6,0.1-15.2,0.3-22.6
			C384.2,709.6,382.8,693.2,381.9,677.8z"/>
		<path class="st1" d="M382,599c-1.4-9.2-2.1-18.5-2-27.9C379.5,580.6,379.7,590.5,382,599z"/>
		<path class="st1" d="M361.1,377.6c0.4,6.8,0.4,13.7,0.3,20.5c-0.2,8.2-2.1,15.9-2.6,24c-1.5,31-4.2,62-2.5,93
			c1.7,29.7-2.9,59.3-4.9,88.8c-0.4,6.3-1.5,14-0.5,20.2c0.3,2.2,0.5,4.4,0.6,6.6c0.3,6.2-0.1,12.3-0.5,18.6
			c-0.8,15.3-2,30.7-2.7,46c-0.3,6.7-0.5,13.5-0.5,20.2c0,0.4,0.4,0.4,0.4,0c0.1-15.4,1.4-30.7,2.6-46c0.5-7.3,1.1-14.7,1.5-22.1
			c0.2-3.7,0.4-7.3,0.5-11c0.1-1.8,0.1-3.7,0.1-5.5c0.1-2.7,0.9-4.8,1-7.3c0.5-15.3,2-30.4,3.6-45.6c1.6-14.5,3.7-28.5,4.1-43.2
			c0.5-15.3-0.9-30.5-0.8-45.8c0.1-15.5,1-31,1.9-46.5c0.4-7.5,0.9-14.9,1.2-22.3c0.2-3.8-0.4-7.4-0.7-11.2c-0.2-4.3-0.2-8.5,0-12.8
			c0.3-13.5-0.6-27-2.4-40.4c-0.9-6.7-1.7-13.7-4.1-19.8c-0.1-0.3-0.4-0.1-0.4,0.2c0,1.1,0.1,2.3,0.1,3.4c0.4,5.2,1.4,10.2,2.2,15.3
			C360,362.5,360.7,370,361.1,377.6z"/>
		<path class="st1" d="M351.4,107.1c-1.2-24.6-3.8-48.7-4.3-73.3c-0.1-6.1-0.2-12.3-0.2-18.5l-1.1-7.8c-0.2,3.3-0.3,6.7-0.4,10.2
			c-0.1,4.2-0.1,8.3-0.1,12.5c0.4,25.2,3.1,50.1,4.5,75.3c0.2,4.3,0.4,8.6,0.5,12.9v2.3v0.6c0.3,19.5-0.6,39.1-1.7,58.4
			c-1.5,25.3-3.5,51-3,76.3c0,0.5,0.5,0.5,0.5,0c0.6-24.9,2.1-49.7,3.6-74.5S352.6,132,351.4,107.1z"/>
		<path class="st1" d="M332.2,194.7c-0.9-30.2-2.2-60.6-1-90.8c1.2-29.2,3.8-58.2-0.5-87.2c-0.1-0.8-0.6-1.1-1-1
			c0,1.1-0.1,2.3-0.1,3.4l-0.2,5.1c2.5,27.2-1,54.1-2.5,81.4c-1.7,30.1,0.2,60.8,1,90.9c0.4,15.2,0.8,30.4,0.9,45.6
			c0.1,15.2-0.4,30.1-0.4,45.2c-0.1,30.5,2.3,61,3.1,91.5c0.6,23.6,0.5,47.2,0.3,70.8c-0.4,39.6-1.4,79.3-1,118.9
			c0.5,53.1,5.6,106.1,5.1,159.6c0,0.1,0.1,0.2,0.1,0.3c0.5,3.3,0.5,6.7,0,10c0.2,0.9,0.5,1.7,0.7,2.6c0.7-28.1-0.4-55.2-1.6-82.7
			c-1.3-30.6-2.6-61.3-3.2-91.9c-0.6-31.6,0.3-63.4,1-95c0.7-31.6,1.5-63,0.9-94.5c-0.7-30.5-1-61-0.9-91.5
			C332.8,255.2,333.1,225,332.2,194.7z"/>
		<path class="st1" d="M318,737.1c-1.7-30.4-0.7-61,0.2-91.4c1-30.8,1.4-61.4,1.1-92.2c-0.5-62.8-2.8-125.6-3.3-188.4
			c-0.3-31.1-0.5-62.1-0.4-93.2c0.1-30.3-1.1-60.6-0.3-90.9c0.5-15.8,2-31.4,3.6-47.1c1.5-14.6,1.9-29.5,2-44.3
			c0-15.4-0.5-30.7-0.2-46c0.1-3,0.2-6.1,0.4-9.1c-0.5-1-0.7-2.1-0.7-3.2c-0.1-6,0-12,0.1-18c-0.7,5.7-1.2,11.3-1.6,17
			c-1.6,22.8-1.4,45.5-1.6,68.6c-0.3,30.6-5,60.6-5.8,91.2c-0.8,30.4,1,60.7,2.3,91c0.1,2.9,0.2,5.7,0.3,8.5
			c1,28.3,1.1,56.6,1.5,84.9c0.4,31.5,1,63,1.6,94.5c1.2,61.9,1.6,123.8-0.6,185.7c-1.1,27.5-0.8,55,0.9,82.4
			C317.5,737.5,318,737.5,318,737.1z"/>
		<path class="st1" d="M306.1,619c-0.2-7.5-0.7-15-1.1-22.6c-0.2-3.8-0.4-7.5-0.5-11.3c-0.2-4.2,0.5-8.9,0.6-13.1
			c0.3-15.5-0.8-31.1-1-46.6s0.2-30.9,0.7-46.3c1-31,2.6-61.9,2.7-93c0.1-29.1-1.8-58.1-3.2-87.1s-2.6-57.8-3.2-86.7
			c-0.3-14.6-0.5-29.1-0.4-43.7c0.1-14.4,0.7-28.9,0.8-43.3c0.2-25.6,2.2-51.2,5.9-76.6c0.1-0.8-0.8-1.1-0.9-0.3
			c-2,13.1-3.6,26.3-4.9,39.6v0.5c-1.3,13.9-3,28-3.6,42c-1.3,29-1.2,58.1-0.6,87.1s1.9,57.7,3.3,86.5c1.4,29.2,3.1,58.3,3,87.5
			c-0.4,61.2-7.5,123.5-0.6,184.5c0.1,0.7,0.2,1.4,0.3,2.1c0.5,3.5,1.1,7,1.3,10.7s0.3,7.5,0.5,11.3c0.3,8.1,0.2,16.3,0.3,24.4
			c0,6.7,0,13.5-0.1,20.4c-0.1,9.1-0.2,18.2,0,27.2c0.3,25,1.3,49.8,1.8,75.6h3.5c-0.7-27.7-2.1-54.3-3.1-81.2
			C306.8,650.8,306.5,634.7,306.1,619z"/>
		<path class="st1" d="M390.5,249.6c2.2-30.7,4.2-61.5,2.8-92.3c-1.3-29.8-6-59.2-7.6-89c-0.4-6.9-0.6-13.7-0.7-20.5
			c-1-10.5-1.4-21-1-31.5c-0.4,9.3-0.7,18.6-0.8,28c-0.1,8.6,0.1,17.3,0.6,26c1.6,29.8,6.3,59.1,7.7,88.9c1.4,30.8-0.8,61.6-3,92.3
			c-1.1,15.3-2.4,30.6-3.1,46c-0.7,15.5-0.6,31.1-0.1,46.7c0.9,31.2,3.3,62.2,4.5,93.3c2.4,63.2,4.5,126.3,6.3,189.5l0.6,20.7
			c0.2,8.3,0.4,16.5,0.6,24.8c0.4,15.8,0.1,31.6,0.6,47.4c0,0.1,0.2,0.1,0.2,0c0.5-15.8,0.1-31.6,0.1-47.4c0-15.8,0-31.6-0.2-47.4
			c-0.4-31.6-1.1-63.2-2.1-94.8c-1.1-31.5-1.4-63.3-3.4-94.7c-2-31.1-4.3-62.1-5.2-93.3S388.3,280.5,390.5,249.6z"/>
		<path class="st1" d="M362.6,663.7c0.9-31.3,2.3-62.5,3.7-93.7s2.7-62.3,3.4-93.4c0.7-31,0-62-1.3-93c-2.1-53.1-6.2-106-8.3-159
			c0.8-8.5,1.2-17.6-0.8-25.8c-0.1-0.4-0.6-0.4-0.6,0.1v4.3v6.5l0.1,5.2l0.1,6.9c0.1,3.7,0.1,7.3,0.2,11l-0.1,1
			c-0.3,3.4-0.7,6.7-1,10.1c-0.3,3.4-0.7,6.8-0.9,10.2c-0.9,11.6-1.4,23.3-1.7,35c0.4-10.9,1-21.8,1.6-32.7c0.2-4.1,0.6-8.2,1-12.3
			c0.3-3.2,0.7-6.3,1-9.5l0.1-0.8l0.2,8c1.5,46.7,4.8,93.3,7,139.9c1.4,31,2.1,62,1.5,93c-0.6,31.2-2.1,62.3-3.4,93.4
			c-1.3,31.1-2.7,62.5-3.6,93.7c-0.5,15.6-0.8,31.7-0.9,47.3c0,4.9,0,9.8,0.1,14.7c0.2,7.8,0.5,15.7,0.8,23.9h0.3
			c0-12.4,0.5-24.6,0.6-36.7C361.9,695.4,362.2,679.3,362.6,663.7z M359.6,209.7c-0.1-2.6-0.1-5.2-0.2-7.8c0.3,1.4,0.4,2.8,0.6,4.2
			c0.4,5.1,0.4,10.2,0,15.2L359.6,209.7z"/>
		<path class="st1" d="M354.3,282c0.5-15.6,2.6-31,3.5-46.5c0.5-7.9,0.6-15.9,0.2-23.8 M357.9,211.7c0.3,6.1,0.1,12.2-0.2,18.4
			c-0.2,3.5-0.4,7-0.7,10.5c-0.1,0.8-0.1,1.6-0.2,2.4c-0.3,2.9-0.5,5.9-0.8,8.8l-0.2,2.5c-0.9,8.6-1.7,17.2-2,25.8
			c-0.4,9.3-0.4,18.6-0.2,27.9l0.1,6.7c0.3,12.9,0.8,25.8,0.9,38.7c0,0.4,0.5,0.4,0.5,0c0-6.3-0.1-12.5-0.2-18.8
			c0.3-15.2,0.4-30.4,0.8-45.6c-0.5,13.8-0.9,27.5-0.9,41.2c-0.4-16.1-0.9-32.1-0.3-48.2L357.9,211.7z"/>
		<path class="st1" d="M362,62.8c-0.4,9.5-0.7,18.8-0.7,28.2c0,4.3,0.1,8.7,0.3,13c0.3,5.7,0.8,11.3,1.6,17
			c2.7,19.3,6.1,38,4.7,57.8c0,0.2,0,0.4,0.1,0.6c0.3,0.8,1.5,0.6,1.6-0.6c1.4-18.3-1.5-35.8-4.2-53.7c-1.6-9.9-2.5-19.9-2.7-29.9
			c-0.1-10.3,0.4-20.6,0.8-30.8c0.4-10,0.5-19.9,0.5-29.8c-0.2-0.6-0.2-1.1-0.3-1.7c-0.2-8-1.5-15.8-2.1-23.7
			c0.4,7.9,0.6,15.9,0.7,24C362.4,43.1,362.3,53,362,62.8z"/>
		<path class="st1" d="M361.4,0.4h-0.2l0.2,3.9C361.4,3,361.4,1.7,361.4,0.4z"/>
		<path class="st1" d="M386.4,662.7c0.2,3,0.4,5.9,0.6,8.9v0.6c-0.4-4.6-0.7-9.2-1-13.8c-0.5-6.9,0,0,0,0c0,0.5,0,1,0,1.6
			C386.2,659.1,386.4,662.5,386.4,662.7z"/>
		<path class="st1" d="M386.2,662.7c0-0.9,0-1.9-0.1-2.8v0.3L386.2,662.7z"/>
		<path class="st1" d="M387.2,655.5L387.2,655.5c1.6,10.4,2.6,20.9,3.1,31.5c0.5,8.9,0.6,18,1.8,26.8c-0.7-4.3-1.4-8.5-2-12.8
			c-0.4-2.5-0.7-5.1-1-7.7c-0.6-4.8-1.1-9.6-1.5-14.3c0.5,5.3,1,10.6,1.6,15.9c0.4,3.8,0.9,7.5,1.4,11.3l0.5,3.7l0.2,1.2
			c1.4,10.8,2.7,21.7,4.8,32.2c0.3,1.3,0.5,2.5,0.8,4.4h1.9c-1-4.8-2-8.9-2.9-13.4c1,4.5,2.1,8.6,3.2,13.4h0.6
			c-2.2-10.5-4.3-19.9-6-29.7C390.2,697.6,390.8,675.9,387.2,655.5z"/>
		<path class="st1" d="M386.4,666.5c-0.1-1.2-0.1-2.5-0.2-3.8c0,1,0.1,2.1,0.1,3.1L386.4,666.5z"/>
		<path class="st1" d="M388.3,688.4c-0.8-7.3-1.5-14.6-1.9-21.9C386.8,673.8,387.5,681.1,388.3,688.4
			C388.3,688.5,388.3,688.4,388.3,688.4z"/>
		<path class="st1" d="M414.2,0.7c0,0.7,0,1.3,0.1,2V3v0.1v0.8c-0.5,7.6,1.1,15.2,2.3,22.6c0.7,4.6,1,9.2,1,13.8
			c0.1,4.4,0.1,8.7,0.2,13c0,0.1,0.1,0.1,0.1,0c0.4-8,1.9-15.7,1.3-23.8c-0.7-9-3.4-17.2-3.5-26.4V3c0.1-0.8,0.1-1.5,0.1-2.3
			c0-0.1,0-0.2-0.1-0.2h-1.5C414.2,0.4,414.2,0.5,414.2,0.7z"/>
		<path class="st1" d="M381.3,6.7c-0.7,6.5-1.4,13-2.2,19.5c0,0.2,0,0.5,0.1,0.7c0.3,0.8,1.3,1,1.5-0.1c0.4-1.9,0.8-3.9,1.1-5.8
			l0.9-4.1v-0.1c0.7-2.9,1.1-5.9,1.2-8.9c0.4-2.5,0.5-4.9,0.4-7.4h-1.4c0,0.1,0,0.5-0.1,0.8l0,0c-0.1-0.2-0.1-0.5-0.2-0.7H382
			C381.3,2.5,381.1,4.6,381.3,6.7z M382.3,16.8c0.2-2.1,0.4-4.1,0.5-6.2c0.2-0.5,0.4-0.9,0.6-1.4C383.2,11.7,382.9,14.3,382.3,16.8
			L382.3,16.8z"/>
		<path class="st1" d="M307.1,19.8c-0.2,3.4-0.2,7.1-0.3,10.7c-0.1,3.1-0.3,6.2-0.8,9.3c0,0,0,0.1,0,0c1.5-6.2,3.1-11.8,3.6-18.4
			c0.5-7,0.6-13.8,0.6-20.8c0-0.1,0-0.1,0-0.2h-2.5c0,0.1,0,0.1,0,0.2C307.6,7.1,307.4,13.3,307.1,19.8z"/>
		<path class="st1" d="M238.6,547c2.2-6.5,3.5-13.2,4-19.9V527c0.4-4.4,0.7-8.9,0.9-13.3c0.8-13.5,2.2-26.9,2.5-40.4
			c0.5-28.5-3.4-57.6-8.3-85.3c-2.5-14-5.4-27.9-9.1-41.5c-3.2-12-6.7-23.8-12.5-34c-3.2-5.5-8.4-13.8-14.2-13
			c-0.9,0.1-1.8,0.5-2.6,1c-5.6,3.5-6.4,16.8-7.2,23.5c-1.6,13.6-4,27-5.1,40.7c-1.2,15-1.5,30.1-1,45.1c0.5,14.8,1.7,29.5,3.8,44.1
			c1,7.4,2.3,14.7,3.7,22c0.6,3.4,2,6.4,2.8,9.8l0.3,1.2c-0.4,0.4-0.5,1-0.3,1.6c0.7,2.8,1.6,5.5,2.7,8.1l0.2,0.6
			c0.1,0.4,0.2,0.7,0.5,0.9c3.7,8.8,8.7,17,13.2,24.6c3.5,6,7.4,11.6,11.8,17c0.3,0.7,0.8,1.2,1.4,1.6c2.7,3.2,5.4,6.4,8.8,8.1
			l0.1,0.1c0.9,0.3,1.8-0.1,2.3-0.9C237.7,548.3,238.3,547.8,238.6,547z M237.7,523.5C237.7,523.5,237.6,523.5,237.7,523.5
			c-0.2-0.2-0.4-0.3-0.6-0.4c0.1-0.6,0.3-1.2,0.4-1.8l0.4-1.3C237.9,521.2,237.8,522.3,237.7,523.5L237.7,523.5z M223.8,534.9
			c-3.5-4.6-6.7-9.4-9.6-14.3c-4.2-6.9-8.8-14.7-12.3-22.9c0.2-0.5,0.3-1.1,0.2-1.7c-3.2-13.8-5.1-28.1-7.1-42.3
			c-2-14.6-3.3-29.3-3.8-44c-0.5-14.5-0.2-29,0.9-43.4c1.1-14.2,3.6-27.9,5.3-41.9c0.6-4.8,1.1-9.8,2.6-14.3c0.6-1.9,1.3-3,2.1-3.4
			c1.1-0.5,2.4,0.2,4,1.9c4.4,4.5,7.7,10.7,10.4,17.4c-0.2,0.7-0.2,1.5-0.1,2.2c1,4.4,2.1,8.7,2.9,13.1c1.6,9.5,4,18.8,5.9,28.3
			c2,9.7,3.6,19.5,4.8,29.3c0.6,5,1.1,10.1,1.4,15.1c0.3,4.2,0.1,8.7,0.9,12.8c1.5,7.7,2.1,15.7,3.2,23.5c1.2,9,1.9,18.1,2.4,27.2
			c0.1,2.5,0.2,5.1,0.3,7.7c-1,18-4.1,37.1-13.4,50.4l-0.2,0.3C224.3,535.6,224.1,535.3,223.8,534.9z"/>
		<path class="st1" d="M266.6,652.7c1.2,6.2,1.4,12.5,1.8,18.9c0.4,5.7,1.3,11.3,2.7,16.9c0,0.1,0.1,0,0.1,0
			c-3.3-11.3-1.9-24.2-4.2-35.8C266.9,652.3,266.5,652.4,266.6,652.7z"/>
		<path class="st1" d="M267.2,725.6c-0.8-8.7-0.4-18.1-0.2-26.9c0-1.7-1.2-2.1-2-1.5c-0.4,0.3-0.7,0.9-0.7,1.4
			c-0.5,6.5-0.1,12.9,1,19.3c0.2,1.3,0.5,2.6,0.7,3.9c0.9,4.4,0.9,10,1.2,14.5c0.3,3.8,0.4,7.6,0.2,11.4h0.8
			C268.4,740.3,268,732.9,267.2,725.6z"/>
		<path class="st1" d="M264.7,8.7l-0.2,2.8c0.1-1.1,0.2-2.2,0.3-3.3L264.7,8.7z"/>
		<path class="st1" d="M266.9,14c-0.4,2.9-1,5.7-1.5,8.5l-1.1,5.1c0.1,4.8,0.2,9.7,0.2,14.6c0.2,9.7-0.2,19.3-1.2,28.9
			c-0.8,6.1-2.2,15.8-7.7,17.1c-0.6,0.3-1,1-1,1.7c0,4.6-0.5,9.1-0.1,13.8c0.5,5.1,1.4,10.1,2.7,15c1.1,4.7,2.5,9.3,3.7,13.9
			c1.6,6.3,1.9,12.6,2.1,19.2c1.1,28.1-0.7,56.2-0.6,84.3c0,5.3,0.2,10.5,0.2,15.8c0,1.5,0,3-0.1,4.5c-0.2,6.9-0.8,13.8-1.3,20.7
			c-0.9,12-1.9,24-1.1,36.1c1.1,18.7,7.1,39.4,3.7,58.1c-0.2,0.9-0.4,1.8-0.5,2.7l-0.1,0.6c-0.1,0.5,0.4,0.9,0.7,0.5l0.2-0.3
			c0.4-0.5,0.8-1,1.2-1.5c1.4,9.4,1.3,19.5,1.5,29.1c0.2,10.7,0.9,21.4,0.8,32.1c-0.2,12.2-1.1,24.3-1.4,36.5
			c-0.4,13.3,0.6,26.3,1.6,39.5c1,12.8,2,25.7,1.9,38.6c0,12.5-1.4,25-2.5,37.3c-1.6,17.6-3.1,35.2-3.7,52.9
			c-0.3,7.7-0.3,15.4-0.2,23.2c0,0.4,0.4,0.4,0.4,0c0.6-25.5,4-50.8,6.4-76c1.2-12.4,2.5-24.8,2.7-37.3c0.2-13.5-1-27-2.1-40.4
			c-1.2-12.5-1.7-25.1-1.5-37.7c0.3-12.8,1.3-25.5,1.4-38.3c0.1-10.6-0.7-21.2-0.9-31.8c-0.2-10-0.6-19.9-3.5-29.3
			c-0.2-0.5-0.7-0.9-1-0.3l-0.4,0.6l-0.6,0.9l0.2-1.6c1.1-7.9,0.4-16-0.3-23.9c-0.9-10.6-2.5-21.1-3.3-31.7
			c-0.9-11.7,0.3-23.5,1.4-35.1c1.3-14.2,1.6-28.3,2.2-42.5c0.6-13.8,0.3-27.7,0.8-41.6c0.6-14.2,0.5-28.5,0-42.7
			c-0.2-5.7,0-12-1.2-17.5c-1-4.9-2.4-9.6-3.7-14.4c-1.4-5.3-2.5-10.6-3.3-16c-0.7-4.9-0.2-9.6-0.1-14.5c4.3-1.8,6.4-7.9,7.6-13.3
			c2.1-9.5,2.2-19.8,2.3-29.5c0.1-9.3-0.3-18.4-0.3-27.7C266.8,18.6,266.8,16.3,266.9,14z"/>
		<path class="st1" d="M242.9,555.1c5.8-18.8,8.3-38.6,9.8-59c1.9-26.3,0.1-52.8-2.6-78.8c-4-38.6-8-80.7-23.6-114.6
			c-3.6-7.8-8.1-15.8-14-20.8c-5.2-4.5-11.6-7.5-18.4-8.7c-0.2,0-0.4,0.1-0.6,0.2s-0.4,0.4-0.5,0.6c-1.5,4.7-3.2,9.3-4.9,13.8
			l-0.6,1.6c-0.7,0.1-1.4,0.5-1.6,1.3c-0.7,2.4-1.2,4.9-1.5,7.4c-0.9,2.6-1.8,5.2-2.7,7.8c-3.3,10.5-5.5,21.2-6.6,32.2
			c-3.2,29-3.6,58.3-1.3,87.4c1.1,14.4,3,28.8,5.8,43c1.2,6.4,2.7,12.8,4.3,19.1l0.5,1.7l0.2,0.9c6.8,25.1,16.8,48.6,31,68.1
			c1.6,2.2,3.3,4.2,5,6.2c1.5,1.7,3.9,3.2,4.8,5.5c1.4,3.5,4.2,7.1,7.4,7.5c0.1,0,0.2,0,0.3,0C241.7,578.2,242.8,563.8,242.9,555.1z
			 M194.8,282.2c0.4,0.3,0.7,0.6,1,1c-0.5,0-0.9,0-1.4,0L194.8,282.2z M175.5,412.4c0.2,1,0.4,2,0.5,3c0.3,3.9,0.3,7.7,0.1,11.6
			C175.8,422.2,175.6,417.3,175.5,412.4L175.5,412.4z M233.4,575.7c-2.7-0.5-5.3-3.6-6.8-6.9c-1.7-3.7-5.4-6.3-7.9-9.3
			c-3.3-4.1-6.3-8.4-9-12.9c-11.8-19.1-20.4-42.1-26-65.6c-2.2-9.5-4-19-5.2-28.7l-0.1-1l-0.3-2.6c0.5,1.2,1.1,2.4,1.8,3.5
			c0.1,0.2,0.3-0.1,0.2-0.3c-5.1-12-2.1-26.1-3.2-39.2c-0.6-6.8,0.5-13.4,0.5-20.2c0-8.6,0.7-17.2,1.1-25.8c0.4-8.6,1.3-17,2-25.5
			c0.7-8.3,1.6-16.9,3.7-24.8l0.2-0.6c0.4-0.9,0.8-1.9,1.1-2.8c1-1.4,2.1-2.7,3-4.2c1.6-2.7,3.1-5.5,4.4-8.4c1.5-1.9,3-3.7,4.6-5.5
			c2.5-2.7,4.4-4.4,7.6-4.5c2,0.1,4-0.1,6-0.5c0.4-0.1,0.8-0.2,1.2-0.4c4.4,5.9,8,12.4,10.9,19.2c7.4,16.8,11.6,35.9,14.7,54.7
			c3.5,21,5.9,42.6,7.9,64c2.4,26.1,3.8,53.2,2.4,79.5c-0.7,15.9-3,31.6-6.6,47.1l-0.3,1.1l-0.2,0.8c-0.9,3.6-1.9,7.1-3,10.6
			c-0.1,0.4,0.3,0.6,0.4,0.2c0.7-1.7,1.3-3.4,1.9-5.1l0.6-1.8c0.5-1.5,1-2.9,1.4-4.4c-0.4,5.9-1.2,12.9-4.2,17.3
			c-0.1,0.2-0.3,0.4-0.4,0.6C236.6,575.4,235,576,233.4,575.7z"/>
		<path class="st1" d="M202.5,109.8c0.1,20.5,2.8,41.4,6.6,61.3c3.1,16.1,7.8,31.5,12.5,47c0.5,2.5,0.9,5,1.4,7.5
			c0.1,1,0.7,1.9,1.6,2.3c1,3.3,2,6.7,2.9,10.1c0.1,0.6,0.5,1,1,1.2c0.1,0,0.1,0,0.2,0c0.4,0,0.7,0,1.1,0c0.7-0.1,1.2-0.6,1.2-1.2
			c3.3-18.7,10.9-35.6,10.8-55.2c0-9.8-1.7-19.5-3.3-29c-1.8-10.3-3-20.7-3.5-31.2c-0.9-21,0.8-42,0.4-63c-0.1-4-0.6-8.1-0.1-12
			c0.5-3.4-0.5-7-0.7-10.5c-0.2-4.7-0.1-9.5-0.5-14.2c-0.8-1-1.3-2.3-1.3-3.5c-0.1-1.4-0.2-2.8-0.2-4.2c-0.1-0.4-0.3-0.8-0.5-1.3
			c-0.2-0.9-1-1.5-1.9-1.7c-0.2-1.3-0.8-2.6-1.6-3.6c-0.3-0.6-1.1-0.7-1.6-0.4l-0.1,0.1c-0.1,0.1-0.2,0.2-0.3,0.3
			c-4.6,5.4-8,12.1-10.6,19.3c-4.9,11.2-8.5,23-10.5,35.1c-1.8,11.1-2.7,22.3-2.5,33.6C202.7,101,202.5,105.4,202.5,109.8z
			 M227.3,13.3l0.2-0.4l0.2,0.7l-0.1,0.3C227.5,13.8,227.4,13.6,227.3,13.3L227.3,13.3z M212.4,174.2c-1.5-7-2.7-14.1-3.8-21.3
			c1.7,10.1,3.7,20.2,5.8,30.2C213.7,180.1,213,177.2,212.4,174.2z M212.3,59.9c0.8-4.4,1.6-8.9,2.6-13.4
			c2.9-9.6,6.8-18.7,11.8-27.4c0.2-0.4,0.4-0.7,0.6-1.1c0.1-0.2,0.2-0.4,0.3-0.5c0.7,1.8,1.2,3.7,1.4,5.7c0.1,0.6,0.1,1.2,0.2,1.7
			v0.2c0.5,5.4,0.1,11.3,0.6,16.3c0.3,2.6,0.8,5,1.2,7.5c0.6,4.6,1,9.2,1.1,13.8c0.5,20.5-0.7,41.1,0.2,61.6
			c0.9,19.3,6.2,37.5,7.1,56.7c0.9,18.7-6,35.7-10.2,53.1l-0.8-2.7c-0.4-1.5-0.8-2.9-1.2-4.4c0.8-0.9,1.1-2.2,0.8-3.3
			c-8.4-45.8-22.8-97.2-19-144.8C210,72.5,211.2,66.2,212.3,59.9L212.3,59.9z"/>
		<path class="st1" d="M239.4,694.7c-2.8-28.6-6.6-58.3-13.7-85.7c-1.4-5.4-3-10.7-4.9-15.9c-2.1-5.8-4.5-12.8-7.9-17.4
			c-6.3-8.4-12.3-17.4-17.9-26.6c-12.5-20.6-18.6-45.9-24.2-70.9c-3.3-14.3-5.4-28.8-6.5-43.4c-0.7-11.5-0.7-23.1-0.9-34.6
			c-0.3-24.4,0-49.1,3.1-73.2c1.4-11.3,3.7-22.4,6.9-33.3c0.8-2.6,1.7-5.1,2.6-7.6c0.9-2.3,1.7-6,3.4-7.5c2.9-2.5,2.7-6.1,3.9-10.1
			c2.8-9.2,5.3-19,6.3-28.9c0.5-3.9,0.4-7.8-0.3-11.7c-0.4-1.7,0.8-5.1,1-7c0.2-3.2,0.3-6.5,0.1-9.7c-0.9-14.2-5.2-27.5-7-41.4
			c-2-15.5,1.2-31.4,2.9-46.8c0.7-0.4,1.1-1.1,1.3-1.9c2.9-11.7,1.3-24.4,1.9-36.5c0.2-7.4,1.5-14.7,3.8-21.7
			c2.3-6.5,5.6-12.5,8.5-18.6c4.4-9.2,8.5-18.6,12.2-28.4c0.9-1.4,1.7-2.9,2.4-4.4c0.6-1.3,2.1-6.8,3.4-6.9c0.5-0.1,0.8-0.6,0.7-1
			V3.5c-0.1-0.4,0.7-1.6,0.8-2.3c0,0,0-0.1,0,0c-0.8,0.2-1.5,0.8-1.8,1.6h-0.1c0,0,0,0-0.1,0c-0.3-0.3-0.8-0.3-1.1,0.1
			c0,0,0,0.1-0.1,0.1c-2.3,3.6-3.4,8.2-5.6,12c-0.4,0-0.8-0.2-1.2-0.3c-4.3,11-9.3,21.5-14,32.2c-2.6,5.4-4.8,11-6.8,16.7
			c-1.7,5.9-2.8,11.9-3.1,18c-1,12.4-0.8,24.2-3.6,36.1c-1,0.5-1.7,1.6-1.6,2.8c-1.2,14.4-3.3,28.3-2.8,42.9
			c0.4,12.2,3.8,23.9,6,35.7c1.2,5.9,1.9,12,1.9,18c0,3-0.3,6-0.9,9c-0.5,2.4,0.1,3.9,0.4,6.3c0.9,10.1-1.9,20.8-4.3,30.1
			c-0.8,3.1-1.9,9.5-4.2,11.3c-1.6,1.3-2.8,1.7-3.9,3.8c-1.3,2.5-2.4,5.1-3.4,7.8c-3.6,10.3-6.2,20.9-7.9,31.7
			c-3.9,23.5-4.7,47.9-4.7,72c0,25,0.1,50.1,4.2,74.6c2.3,14,5.8,27.6,9.3,41.1c3.2,12.2,6.6,24,11.7,35.1
			c4.2,8.8,9.4,17.2,15.4,24.9c3.2,4.3,6.8,7.9,10.1,12.1c4,5.2,6.8,11.9,9.3,18.5c4.9,12.6,7.7,26.3,10.4,40
			c2.9,14.5,5.3,29.6,7.3,44.3c2.8,20.9,4.6,41.7,5.4,63.8c0,1.5,0.1,3,0.2,4.5h1.4c0-2.9-0.1-5-0.2-7.2
			C242,725.3,240.8,709.7,239.4,694.7z"/>
		<path class="st1" d="M218.3,664.2c-2.4-17.5-8.6-33.6-15-49c-2.2-5.4-4.1-10.9-5.9-16.5c-0.2-1.5-0.7-3-1.3-4.3l-1.7-5.7
			c-1.2-4.1-2.6-8.1-4.3-12.1c-0.8-1.9-0.9-2.8-1.9-3.1c-2.9-7.4-5.8-14.6-8.8-21.9c-10.1-24.8-19.3-50.2-24.1-77.7
			c-2.6-14.7-2.7-29.4-3.1-44.5c-0.4-14.8-0.1-29.6-0.2-44.5c0-12.8-1.1-25.4-1.8-38.1c-0.7-13.1-0.5-26.3,0.7-39.4
			c0.5-6.2,1.4-12.4,2.8-18.4c0.7-2.8,3.2-5.3,4.6-7.7c1.7-3,3.1-6.1,4.2-9.3c3.6-10.2,4.6-21.5,4.9-32.6c0.2-5.7,0-11.5,0.3-17.3
			c0.3-6.7,1.6-13.3,1.6-20c-0.1-9.1-0.7-17,1-25.8c1.5-7.6,4-15.5,4.4-23.4c0.2-4.7,0.1-11.1-4-12.9c-0.6-0.2-1.7-7.2-1.9-8.3
			c-0.7-3.9-1.2-7.8-1.4-11.7c-0.1-1.4-0.8-6.2,0.2-6.7c0.7-0.4,1.4-1,2-1.6c3.3-3.3,5.1-9.2,6.6-14c5.5-17.8,7.6-37.6,9.3-56.5
			c0.5-5.5,1-11,1.1-16.5c-0.1-3.7-0.5-7.3-1.1-10.9c0,3.2,0,6.3-0.1,9.5c-0.3,10.4-1.3,20.7-2.5,30.9c-1.3,12.2-3.3,24.3-6,36.2
			c-1.3,5.6-3.4,15-7.4,19.7c-0.8,1-1.9,1.8-3.1,2.3c-0.3,0.1-0.4,0.4-0.4,0.7v0.4c0,5.8,0.4,11.7,1,17.5l0.1,1.5
			c0.4,3.3,0.8,6.5,1.4,9.8c0.2,1.2,1.4,1.2,1.9,2.2c1.1,2.1,0.3,5.7-0.1,7.9c-0.7,4.1-1.4,8.1-2.2,12.1c-1.6,7-3.6,14.1-4.1,21.5
			c-0.3,4.7,0.1,9.8,0.1,14.5c-0.1,6.8,0.2,13.6,0.5,20.4c0.5,12.2,0.8,24.6-0.8,36.6c-0.8,6-2.3,11.9-4.5,17.6
			c-1.2,3.2-2.9,6-4.3,9c-1.2,2.4-2,5-2.5,7.6c-3,19.2-3.4,38.9-3.6,58.5c-0.1,5.8-0.1,11.5-0.2,17.2c-0.3,20.1-0.3,40.3,0.1,60.4
			c0.5,20,3,40,7.7,59.5l0.5,2c7.2,29.7,19.7,56.5,30.4,84.3h-0.1c-0.1,0-0.2,0.1-0.3,0.2c-0.1,0.2-0.1,0.4,0,0.6
			c1.9,4.8,3.9,9.6,5.8,14.4l1.5,3.2l1.1,3.2l0.9,3.1c2.2,7.6,4.9,14.9,7.7,22.1c2,5.3,4.1,10.5,6,15.9c2,5.5,3.6,11.1,5,16.8
			c1.3,5.8,2.2,11.6,2.6,17.5c1.1,13.7,0.5,27.6,0.7,41.4c0,2,0.1,3.9,0.1,5.9c0.3,10,1,19.7,1.9,30.2h1.2
			c-0.6-8.6-1.1-16.7-1.5-24.9C219,703.5,221,683.3,218.3,664.2z"/>
		<path class="st1" d="M158,11.1c-0.3-2.7-0.7-5.4-1.3-8c-0.1,1.5-0.1,3.3-0.2,4.8l-0.1,2.1c-0.6,16.7-1.6,33.1-2.5,49.8
			s-1.4,33.2-1.8,49.9c-0.4,17.3-0.6,34.6-0.6,51.9c0,0.2,0.2,0.2,0.2,0c0.2-34,3-67.8,4.4-101.7c0.7-16.2,1.3-32.1,1.9-48.2V11.1z"
			/>
		<path class="st1" d="M221.5,267.5c-4-8.4-7.1-17.2-10.4-26c-1.5-4.1-3.1-8.1-4.8-12.1c-0.9-2-1.9-4-3.1-5.8
			c-1.2-2.1-1.6-5.4-2.1-7.9c-4.5-21.9-5.4-44.1-5.4-66.6c0-10.7,0.4-21.3,0.5-32c0.1-11-0.6-21.7-1.1-32.7c0-0.1-0.1-0.1-0.1,0
			c0,5.9-0.3,11.8-0.6,17.6c-0.2,5-0.6,10-0.8,15c-0.5,10.6-0.7,21.4-0.8,32c-0.2,21.3,1.1,43.2,5.2,63.9c0.8,4,1.3,9.2,3.4,12.4
			c2.6,4.2,4.8,8.6,6.6,13.1c1.2,2.8,2.4,5.6,3.5,8.5c2.3,5.6,4.7,11.3,7.4,16.6c3.6,7.2,7.3,14.5,10.8,22
			C227.1,279.4,224.4,273.4,221.5,267.5z"/>
		<path class="st1" d="M245.1,323.4l-0.6-1.8L245.1,323.4C245,323.5,245.1,323.4,245.1,323.4z"/>
		<path class="st1" d="M229.8,285.5c5.2,11.8,10.1,23.8,14.6,36.1C240.3,309.2,235.4,297.2,229.8,285.5z"/>
		<path class="st1" d="M241.4,4.7c0,0.1,0,0.3,0,0.4c0.6,4.5,0.9,9.1,0.8,13.7c0,1.1-0.3,2.2-0.8,3.1c0.2,5.4,0.5,10.8,0.7,16.2
			c1,30.1,1.4,60,2.4,90c0.5,15,1.7,30,1.9,45c0.1,15.1-0.6,30.1-2,45.1c-1.2,14.3-2.5,28.9-1.6,43.3c1,13.4,2.9,26.7,5.6,39.9
			c0.6,3.1,1.2,6.3,1.8,9.4c2.3,12.6,4.1,25.3,4.3,38.3c0,0.5,0.6,0.5,0.6,0c0.1-28.1-7.4-54.8-9.4-82.5c-1-14.2,0.3-28.9,1.1-43.1
			c0.8-15,2.1-29.8,2.3-44.9c0.2-15.1-1-30.1-1.5-45.1s-0.6-29.8-0.7-44.8c-0.2-22.2,0-44.9-0.9-67c-0.3-0.6-0.5-1.2-0.6-1.8
			c-1.1-6.6-2.4-12.9-2.7-19.6h-1.5C241.5,1.8,241.5,3.3,241.4,4.7z"/>
		<path class="st1" d="M219.9,489.9c0-6.2,0.2-12.4,0.1-18.7c-0.2-12.7-0.8-25.2-1.8-37.9c-1-12.2-2.3-24.3-3.9-36.4
			c-1.7-12.1-3.2-24.1-5.9-35.9c-0.5-2-1.9-2.7-3.2-2.3c-1.2,0.6-2,1.8-1.9,3.2v2.6c-0.4-1.3-0.7-2.7-1.2-4l-0.1-0.4
			c-0.3-0.8-1-0.2-0.9,0.5l0.2,1.7c0.7,6.5,1.6,12.9,2.1,19.4c0.2,6.3,0.5,12.5,0.9,18.8l0.2,6.5c0.3,13.1,0.9,26,2.2,38.9v0.4
			c1,9.8,1.9,19.4,3.4,29c1.1,7.4,2.7,15.7,6.7,21.4l0.4,0.5l0.6,0.8c0.1,0.1,0.2,0.1,0.3,0l0,0C220,496.1,219.9,493.2,219.9,489.9z
			 M209.2,396.7c-0.2-3.5-0.4-7.1-0.5-10.6c0.9,4.6,1.8,9.2,2.5,13.9c2,13.3,3.3,26.8,4.3,40.3c0.8,11.2,1.3,22.4,1.9,33.6
			c-1.1-8-1.7-16-2.7-24v-0.2c-1.2-9.9-2.4-19.8-3.5-29.8C210.3,412.3,209.6,404.5,209.2,396.7z M217.4,497.2
			c-0.2-0.1-0.3-0.3-0.4-0.4c-1.6-1.9-3.5-7.6-3.9-8.6c-3.8-12.4-4.4-26.3-4.8-39.9c-0.1-4.1-0.2-8.2-0.4-12.1
			c0.6,4.6,1.3,9.1,2,13.6c1.6,9.6,4.1,19,5.9,28.6c0,0.2,0.1,0.4,0.2,0.6l0,0c0.3,0.4,0.8,0.5,1.2,0.2c0.1-0.1,0.2-0.1,0.2-0.2v0.8
			c0.2,3.4,0.4,6.7,0.4,10.1c0,0.8,0.2,2.4,0.4,3.9c0.2,1.1,0.2,2.2-0.1,3.3C218,497.3,217.7,497.4,217.4,497.2L217.4,497.2
			L217.4,497.2z"/>
		<path class="st1" d="M199.7,721.7v-0.6c0,1.4,0,2.9-0.1,4.3C199.6,724.1,199.7,722.9,199.7,721.7z"/>
		<path class="st1" d="M169.9,560.8l-0.5,1.6l-0.4,1.3c-0.4,1.6-0.8,3.2-1.2,4.8l-0.2,0.9c-2.8,14.8-1.5,30.9,0.4,46.1
			c0.3,2.1,0.6,4.3,0.9,6.4l-0.1,1.6c-0.9,11.3-0.5,22.6,1,33.8c1.2,9.8,3,19.4,5.4,29c0.4,3.6,1,7.2,1.6,10.8l0.1,0.6
			c0.1,0.9,0.3,1.8,0.5,2.7c0.4,1.9,0.8,3.8,1.2,5.7c0.6,2.5,2.1,6.1,2.4,9c0,0.4,0.1,0.8,0.1,1.2s0.1,0.8,0.4,1.1
			c0.2,0.2,0.5,0.3,0.7,0.3c0.6,0,1.1-0.4,1.1-1.4v-1c0-0.6,0-1.2-0.1-1.7c-0.1-0.8-0.1-1.6-0.2-2.5c1.8,4.7,3.9,9.3,6.5,13.7
			c2.4,4,5.2,7.1,7,11.6l0.1,0.2c0.2,0.7,0.5,1.3,0.7,2.1c0,0.1,0.1,0.1,0.2,0c1.3-4.1,2-8.3,2.2-12.5c-0.1,1.3-0.2,2.7-0.4,4
			c-0.1,1.1-0.3,2.3-0.6,3.4c0-0.3-1,5.3-1.6,3.7l-0.4-1l-0.1-0.2c-1.3-3-2.9-5.9-4.9-8.5c-4.4-6.1-7.3-13.6-9.5-21.5
			c-0.5-2.6-0.9-5.1-1.3-7.5c-1.1-8.1-2.6-16.1-3.7-24.2c-1.6-11.4-3.1-22.9-4.7-34.3l-0.1-7l-0.2-13.3v-0.6
			c0.6-9.4,1.2-18.9,1.1-28.3c-0.1-7.7-1.5-15.4-4.2-22.6c0-0.1-0.2,0-0.2,0.1c0.2,1.9,0.4,3.8,0.5,5.7c0.7,7.9,1.2,15.7,1.5,23.6
			c-0.3,6.7-1.1,13.4-1.7,20.1c-0.3-2.3-0.5-4.5-0.8-6.8c-0.5-4.9-0.9-9.7-1.2-14.6c-0.3-5.6-0.2-11.2,0-16.9c0.1-2.5,0.3-5,0.6-7.4
			c0.1-0.5,0.1-0.9,0.2-1.4v-0.1v-0.2l0.1-0.4c0.3-1.8,0.9-3.5,1.2-5.2c0.1-0.4,0.2-0.9,0.2-1.3c0.1-0.6,0.1-1.2,0.1-1.9
			c0,2.5,1.1,2.8,2,4.7c0.6,1.5,1.2,3.1,1.5,4.8c0.6,2.2,1,4.6,1.4,6.8c0.4,2,0.7,4,1,5.9l-0.6-1.9l0.7,2.4c1.1,7.2,2,14.4,2.7,21.7
			c1.1,11.2,4,22.4,6.3,33.2c3,14.2,6.5,28,9.7,42c0.4,1.6,0.7,3.2,1,4.8c0.5,2.9,0.9,5.8,1.2,8.8l0.1,1c0.4,3.8,0.7,7.7,1,11.5
			c0.1,0.7,0.7,0.8,0.9,0.3c0.4,4.5,0.8,9.1,0.9,13.7c-0.1-9.8-1.8-19.8-1.2-29.8c0-0.1-0.1-0.1-0.1,0c-0.1,2.6-0.1,5.2,0,7.8
			c-1.9-23.3-5.8-46.1-10.2-68.7c-0.8-4.9-1.8-9.8-2.9-14.6l-1.1-5.3c-2-9.9-4.4-19.6-6.6-29.4c-1-4.2-2.2-8.4-3.6-12.5
			c-0.7-2.1-3.4-5.4-3.5-7.5C170.5,560.6,170,560.3,169.9,560.8z M178.9,699.3c0.2,1.2,0.4,2.3,0.5,3.5c-0.3-1.3-0.7-2.5-1-3.8
			s-0.6-2.7-0.9-4L178.9,699.3z M173.5,668.6c-0.2-1.9-0.3-3.7-0.4-5.6c-0.1-1.5-0.2-3.1-0.2-4.6c0.1,1.8,0.2,3.5,0.3,5.2
			c0.1,1.7,0.2,3.5,0.4,5.3l0.1,1.6L173.5,668.6z M175.3,669l0.9,6.9c-0.2-1.1-0.4-2.3-0.6-3.4l-0.6-3.2c-1-5.6-1.8-11.3-2.4-17
			v-0.8l-0.1-3.4C173.5,655.1,174.4,662.1,175.3,669L175.3,669z M172.3,646.5l0.1,3.9v0.4l-0.1-1.4c-0.1-1.3-0.3-2.7-0.4-4
			s-0.2-2.7-0.3-4.1L172.3,646.5z M172.1,637.5l-0.6-4c0.1-2.8,0.2-5.5,0.3-8.2L172.1,637.5z M170.5,577.5c-0.2-2-0.4-4.1-0.7-6.1
			c-0.6-4,0.1-0.2,0.3,0.4c0.3,1.7,0.6,3.3,0.7,5c0.1,0.9,0.1,1.8,0.2,2.6c0.1,1.9,0.2,3.9,0.2,5.8
			C170.9,582.7,170.7,580.1,170.5,577.5L170.5,577.5z M187.9,629.1l-1.6-8C186.8,623.7,187.3,626.4,187.9,629.1L187.9,629.1z"/>
		<path class="st1" d="M174.5,579.7l0.6,1.9L174.5,579.7C174.5,579.6,174.4,579.6,174.5,579.7z"/>
		<path class="st1" d="M258,531.7c-0.2,8.6-0.7,17.2-1.3,25.9c-0.5,7.1-1.3,14.2-2.1,21.3c-0.8,7.1-1.7,14.1-2.4,21.1
			c-1.4,14.3-2.5,28.4-2.6,42.9c0,5,0.1,9.9,0.4,14.8c0.6,9.3,1.6,18.7,2.7,27.9c0,0.1,0.1,0,0.1,0c-1.8-14.8-1.4-29.6-0.8-44.4
			c0.1-2.2,0.2-4.3,0.3-6.5c0.2-4.9,0.5-9.9,0.9-14.8c0.5-7.2,1-14.4,1.6-21.5c1-13.6,1.9-27.1,2.7-40.7
			C257.9,548.9,257.9,540.3,258,531.7z"/>
		<path class="st1" d="M258,515.2v3V515.2C258.1,515.1,258,515.1,258,515.2z"/>
		<path class="st1" d="M258.1,518.2c-0.1,4.5-0.1,9-0.1,13.5C258.1,527.2,258.1,522.7,258.1,518.2z"/>
		<path class="st1" d="M255.9,688.2c-2.6-30.4-2.5-61,0.2-91.4c0-0.2-0.3-0.3-0.3-0.1c-3.3,30.4-2.4,60.9-0.4,91.5
			c1,15.3,2.5,31,3.9,46.2c0.4,4.3,0.7,8.5,1.1,13.3h0.9c-0.4-4.8-0.9-9-1.3-13.2C258.5,719.2,257.1,703.5,255.9,688.2z"/>
		<path class="st1" d="M152.9,620.9c0.4,13.4,1.4,26.8,2.9,40c2.3,20.3,5.5,40.3,8.8,60.4c0.1,0.3,0.4,0.2,0.4-0.1
			c-5.6-33.1-8.9-66.6-10-100.2c-1-33.5,3.5-65.9,3.4-100.2h-0.1c-0.2,21-2.4,40.8-4,60.9C153.1,594.8,152.6,607.9,152.9,620.9z"/>
		<path class="st1" d="M161.9,727.6c0.2,2.3,0.3,4.5,0.4,6.8c0.2,4.2,0.2,8.4,0.3,13.4h1.8c-0.2-7.6-0.6-13.3-1.2-19.9
			C163.1,726.7,161.8,726.4,161.9,727.6z"/>
		<path class="st1" d="M259.8,4.4l0.2,0.5c-0.2,4.5,0,8.9-0.1,13.4v1.4c-0.1,5.1-1.7,9.9-2.4,14.9c-0.2,1.3-0.3,2.7-0.4,4
			c0,0.3,0.4,0.5,0.5,0.2c1.7-5,3.4-10.1,4-15.6c0.1-1.5,0.2-3.1,0.2-4.6c-0.5-0.3-0.9-0.9-0.8-1.5c-0.1-2.3,0.1-4.7,0.5-7
			c-0.1-2.3-0.2-4.7,0-7c0.1-0.6,0.1-1.2,0.1-1.7V0.5H259v0.9C259.1,2.4,259.3,3.5,259.8,4.4z"/>
		<path class="st1" d="M163.7,24c0.2,1.6,0.4,3.2,0.7,4.8c0.1,0.4,0.5,0.4,0.5,0c0.5-9.4,0.5-18.9-0.1-28.3h-2.3
			C162.2,8.3,162.5,16.2,163.7,24z"/>
	</g>
</g>
</svg>
