<?xml version="1.0" encoding="utf-8"?>
<!-- Generator: Adobe Illustrator 23.0.3, SVG Export Plug-In . SVG Version: 6.00 Build 0)  -->
<svg version="1.1" id="Ebene_1" xmlns="http://www.w3.org/2000/svg" xmlns:xlink="http://www.w3.org/1999/xlink" x="0px" y="0px"
	 viewBox="0 0 747.3 619.9" style="enable-background:new 0 0 747.3 619.9;" xml:space="preserve">
<style type="text/css">
	.st0{fill:#6B584E;}
	.st1{opacity:0.3;}
	.st2{fill:#AA9587;}
</style>
<symbol  id="wood" viewBox="-373.6 -310 747.3 619.9">
	<path class="st0" d="M48.8-255c2.4,2.6,3.4,5.6,3.2,8.6c-0.2,2.7-1.4,5.3-3.5,7.6c-0.5,0.5-1,1.1-1.6,1.6
		c-8.9,7.3-21.7,11.2-34.2,13.9c0.2,0.2,0.3,0.4,0.3,0.6c0.1,0.3,0.1,0.6-0.1,0.9c0,0.1-0.1,0.2-0.2,0.2c-0.2,0.2-0.4,0.4-0.8,0.6
		c-3.5,1.4-7.1,2.7-10.7,3.9c-24.7,8.3-50.4,13.6-76.9,15.8c-27,2.2-54.4,2.4-81.5,0.9c-13.3-0.7-26.6-1.5-39.8-2.9
		c-12.3-1.3-24.6-2.3-37-2.6c-12.8-0.3-25.7-0.1-38.4-1.4c-2.3-0.2-4.6-0.5-6.8-0.8c-3.5-0.5-7-1.1-10.4-1.9
		c-4.3-1-8.4-2.9-12.9-2.9c-0.1,0-0.3-0.1-0.4-0.2c-0.8-1.2-1.7-2.4-2.6-3.6c-2.5-3.3-5-6.6-5.3-10.4c0-0.5-0.1-1.1,0-1.6
		c0.1-1.2,0.6-2.6,1.3-3.6c0.2-0.2,0.2-0.5,0.3-0.7c0.3-1.1-0.2-2-0.4-3.1c-0.1-0.5-0.2-0.9-0.2-1.4c-0.1-1.4,0-2.9,0.5-4.2
		c3-9.4,13.9-15.7,23.4-20.6c28.3-14.4,60-23.9,93.5-23.6c27.2,0.2,54.4,2.1,81.6,3.4c31.7,1.5,63.4,3.4,94.7,7.8
		c13.8,1.9,27.6,4,40.9,7.9C33.1-264.3,43.1-261.1,48.8-255z M38.8-258.9c-10.4-4.9-22.2-7.6-33.8-9.9c-15.3-2.9-30.7-5.2-46.3-6.8
		c-24.1-2.5-48.3-4.1-72.6-5.5c-6.2-0.3-12.4-0.7-18.6-1c-0.6,0-1.3-0.1-1.9-0.1c-8.4-0.4-16.8-0.5-25.2-1
		c-12.5-0.7-24.9,0.1-37.2,1.5c-13.9,1.6-28.1,3.4-41.5,6.7c-10.4,2.6-20.1,5.9-29.9,9.7c-8.6,3.3-17.3,6.8-24.9,11.5
		c-6.6,4-14.5,10.1-14.8,17.4c0,0.3,0,0.6,0.1,1c0.1,0.7,0.2,1.4,0.2,2.1c0,0.1,0,0.2-0.1,0.4c-0.4,1-1.6,3.3-1.5,2.8
		c-0.4,1.3-0.5,2.5-0.4,3.7c0.1,1.5,0.6,2.9,1.5,4.3c1.2,1.9,2.6,3.8,4,5.7c1.4,2,1.4,2.9,4.2,2.9c2,0,4.6,1.3,6.7,1.7
		c2.7,0.6,5.4,1.1,8.1,1.4c6.3,0.8,12.5,1.2,18.8,1.5c12.8,0.6,25.6,0.6,38.4,0.7c25.8,0.3,51.5,2.2,77.3,2.6
		c50.9,0.8,104.5,0.2,152.4-15.8c-0.2,0-0.4,0.1-0.7,0.1c-0.5,0.1-0.7-0.5-0.2-0.6c1.8-0.3,3.7-0.7,5.5-1.1c1.2-0.4,2.4-0.8,3.5-1.3
		c0.7-0.3,1.4-0.2,2,0.1c5.1-1.2,10.1-2.6,15-4.3c8.3-2.8,20.4-7.2,23.2-15.1c0.3-0.8,0.4-1.5,0.5-2.2
		C51.2-251.6,44.9-256,38.8-258.9z"/>
	<path class="st0" d="M282.9-273.9c2.3,0,4.5,0,6.7-0.1c7.6-0.3,14.8-1.3,22.4-3c5.8-1.3,11.5-3,17.2-4.7c3.7-1.1,7.4-2.2,11.1-3.3
		c0.4-0.1,0.7-0.6,0.3-0.5c10.7-3.2,21.7-6.1,33.1-7.5v-0.1c-31.5,3.5-59.1,17.1-90.3,17.8C282.3-275.3,281.8-273.9,282.9-273.9z"/>
	<path class="st0" d="M-360.2-179.8c0.7,0,1.4,0,2.1-0.1c1.3,0.2,2.7,0.3,4.2,0.2c0.7,0,1.3-0.2,1.8-0.5c2.5-0.2,4.9-0.4,7.4-0.6
		c7-0.8,13.9-2.1,20.3-4.8c2.4-1,3.2-3.4,4.3-5.3c1.8-3.1,3-5.8,5.5-8.5c11.3,2,22.3,4.7,33.9,5.8c13.6,1.3,27.4,1.4,41,1.5
		c13.3,0.1,26.6,0.2,39.9,1.2c15.1,1.1,29.9,3.1,45.1,3.6c30.4,1.1,60.8-1,90.8-5.1c29.1-4,58.2-8.7,85.9-17.4
		c6.6-2.1,13-4.5,19.2-7.1c16.6-6.9,32.4-15.1,49.2-21.7c11.5-4.5,24.1-7.6,36.8-8.2c1,0,2-0.1,2.9-0.1c5.9,0,11.9,0.6,17.8,0.7
		c8,0.1,15.9-0.1,23.8-0.4c14.4-0.6,29-1.5,43.4-2.8c14.4-1.3,28.9-1.9,43.3-3.5c27.1-3,52.6-11.3,79.1-16.3c0,0,0.1,0,0.1,0
		c1.2-0.3,0.6-1.9-0.7-1.6c-26.6,4.6-52.7,11.2-79.7,14.6c-15.1,1.9-30.5,2.6-45.7,3.8c-15.1,1.2-30.1,2.8-45.3,3.5
		c-14.6,0.7-29.3-0.2-43.8,1.3c-11.4,1.2-22.4,4.4-32.8,8.5c-11.5,4.5-22.4,9.8-33.6,14.8c-12.8,5.8-26.2,9.9-40,13.7
		c-27,7.3-54.9,12-82.9,15.8c-29.7,4-59.8,5.8-89.8,4.7c-14.5-0.5-28.8-2.4-43.2-3.5c-12.7-1-25.5-1-38.3-1.1
		c-25.4-0.2-53,0.1-76.9-8c-0.7-0.2-1.5,0.1-2,0.4c-2.6,1.8-4.8,3.7-6.7,6c-0.9,1.2-1.5,2.6-2.4,3.9c-0.2,0.3-2.3,2.5-1.3,2.1
		c-6.5,2.7-13.4,3.9-20.5,4.5c-1.5,0.1-3,0.2-4.5,0.3c-0.4-0.1-0.9-0.2-1.4-0.2c-6.7,0.1-11.2-4.7-17.7-5.5c-0.8-0.1-1.9,0-2,0.1
		v6.6c4.8,1.2,9.1,3.5,14,4.5C-359.7-180-360-179.9-360.2-179.8z"/>
	<path class="st0" d="M-347.9-287.7c3,0.3,6.1,0.7,9.1,1.3c2.6,0.4,7.6,1.3,6.8,3.1c-0.1,0.1-0.2,0.3-0.3,0.5
		c-0.3,0.3-0.8,0.7-1.4,1.1c-3.1,1.7-6.4,3.1-9.7,4.5c-7.8,3.1-16.4,5.3-25,6.2c-0.1,0-0.1,0.1,0,0.1c12.6-1.3,26-5.3,36.4-11.6
		c0.3-0.2,0.5-0.3,0.8-0.5c0.5-0.3,1-0.6,1.5-1c0,0,0-0.1,0-0.1C-335.6-286.2-341.7-287.2-347.9-287.7z"/>
	<path class="st0" d="M246.6-299.6c-22.6,3.7-45.2,8.2-67.7,12.4c-12,2.2-23.8,2.7-36.1,2.8c-3,0-6-0.2-9-0.2
		c-1.2,0-2.3-0.2-3.5-0.2c-0.1,0-0.1,0-0.2,0c-0.4,0-0.6,0.1-0.7,0c-0.6-0.5,1.9-2,2.3-2.4c3.1-2.6,7.4-4.3,11.1-6.3
		c0.4-0.2,0.7-0.4,1.1-0.6c0.1-0.1,0.3-0.1,0.4-0.2c0.3-0.2,0.4-0.5,0.2-0.7c-3.4-3.8-11-3.3-16-3.1c-9.4,0.4-18.7,1.7-28,2.7
		c-11.4,1.1-22.5-0.4-33.8-1.5c-14.7-1.5-29.4-1.2-44.1-2.5c-15-1.3-30-3.4-45.1-3.7c-15-0.2-29.8,2-44.8,0.5
		c-30.4-3.1-60.9-5.2-91.5-6.3c-19.5-0.7-39.1-1.3-58.6-0.7c-18.8,0.6-37.5,2.7-56.2,4.8c-19.7,2.2-39.1,4-58.9,5.2
		c-13.9,0.8-27.8,3.1-41.2,5.2v1.3c7.8-2.9,16.3-3.6,24.8-3.9c0.5,0,0.9,0.2,1.1,0.4c0,0,0.1,0.1,0.1,0.1c6.4-0.8,12.8-1.3,19.3-1.2
		c0.6,0,1,0.2,1.2,0.6c2.3-0.2,4.7-0.3,7-0.5c7.3-0.6,14.5-1.7,21.8-2.6c5.8-0.7,11.5-1.4,17.3-2.1c6.9-0.8,13.9-1.6,20.8-2.3
		c17.8-1.8,35.6-3.2,53.5-3.3c26.1-0.1,52.2,0.6,78.3,2c4.4,0.2,8.9,0.5,13.3,0.8c15.3,1,30.7,2,46,3.4c9,0.8,18,0.9,27,0.9
		c5.9,0,11.8-0.1,17.8-0.2c20-0.2,39.6,4.2,59.5,5.3c10.4,0.6,20.6,1,31,2.2c8.7,1,17.5,2,26.3,1.5c8.6-0.5,17.1-2.2,25.6-3.5
		c3.1-0.5,6.2-0.8,9.4-1.1c4.7-0.3,11.5-0.9,15.4,1.8c0,0,0,0.1-0.2,0.2c-0.2,0.2-0.6,0.4-1.1,0.7c-2.2,1.4-6.8,3.9-7.4,4.3
		c-2.6,1.5-4.8,3.3-6.4,5.6c-0.2,0.3,0,0.6,0.4,0.6c0.1,0,0.2,0,0.3,0c0.3,0,0.6,0,0.9,0c16.4-0.1,32.7-0.7,49-1.9
		c4.3-0.3,8.6-0.7,12.9-1.1c20.7-2,41-7,61.5-10.2c21.9-3.4,44.2-4.1,66.3-3.5c18,0.5,36.3,1.2,54.4,0.6v-1.5v-1.6
		c-20,0-38.9-1.8-58-2.3C292.3-305.9,269.4-303.4,246.6-299.6z"/>
	<path class="st0" d="M-347.9-287.7c-7.4-0.8-15-1.1-22.6-1.1C-363-288.2-355.4-288.3-347.9-287.7z"/>
	<path class="st0" d="M-45.4-179.7c-26.6-0.1-53.3,1-79.8,3.5c-13.5,1.3-27,2.3-40.6,2.5c-13.8,0.1-27.6-0.3-41.3-0.7
		c-13.8-0.4-27.6-0.8-41.3-0.8c-13.5,0.1-27,1.1-40.4,2.1c-13.4,1-26.7,2.1-40.1,2.9c-13.6,0.8-27.3,0.7-40.9,2
		c-0.3,0-0.3,0.3,0,0.4c3.2,0.3,6.3,0.4,9.5,0.5c12.3,0.3,24.7-0.7,36.8-1.5c15.2-1,30.3-2.2,45.5-3.3c7.4-0.6,14.8-1,22.2-1.4
		c8.1-0.4,16.2-0.6,24.3-0.5c15.7,0,31.3,0.8,47,1.1c25.3,0.5,50.4-1.4,75.6-3c5.4-0.3,10.8-0.7,16.2-1c9.3-0.5,18.7-0.9,28-1.1
		c5.8-0.1,11.6-0.3,17.5-0.3c8.6,0,17.3,0.3,25.9,0.4c3.9,0,7.7,0,11.6-0.1c2.5-0.1,4.9-0.2,7.4-0.3c5.1-0.3,10.3-0.6,15.4-0.9
		c7.8-0.4,15.6-0.9,23.4-1.5c12.9-1,25.8-1.8,38.7-1.6c25.3,0.4,49.7,6.8,75,6.6c26.6-0.3,53.4-2.1,79.9-3.7
		c12.1-0.7,24.2-0.4,36.2-0.3c13.3,0.1,26.5-0.2,39.7-2.4c0.1,0,0-0.1,0-0.1c-14.7,2.9-30.1,1.5-44.9,0.6c-14.8-0.9-29.2-1.1-44-0.6
		c-15.1,0.6-30.2,1.3-45.3,2.1c-14.6,0.7-28.8,1.8-43.4,0.6c-13.7-1.2-27.3-3.4-41.1-4.5c-14.5-1.2-29.2-0.6-43.7,0.4
		c-14.7,1-29.3,3.3-44.1,3.9C-15.7-179.2-30.5-179.7-45.4-179.7z"/>
	<path class="st0" d="M273.4-198.8c-13.7-0.7-27.4-0.9-41,0.7c-7.8,0.9-15.9,0.3-23.8,0c-7.5-0.2-15-0.7-22.5-1.1
		c-29.3-1.6-58.6-3.4-88-2.1c-1.3,0.1-1.7,1.4-1,2c0.2,0.2,0.6,0.3,1,0.3c29.3-1.3,58.7,0.7,88,2.2c14.3,0.8,28.7,1,43.1,1.7
		c3.7,0.2,7.5,0.8,11.2,1.1c3.6,0.3,7.4,0.1,11.1,0.1c7.3,0,14.6,0.3,21.9,0.7c28.6,1.5,57.4,5.4,85.9,7.2c4.6,0.3,9.5,0.5,14.2,0.6
		v-4.3v-1.6c-4.8-0.2-9.7-0.4-14.2-0.7C330.8-193.5,302-197.3,273.4-198.8z"/>
	<path class="st0" d="M224.7-243.7c-14,1.1-28.1,2.3-42.1,2.4c-13.3,0.2-26.6,0.1-40,0.7c-12.4,0.6-24.9,2.2-36,7.2
		c-0.2,0.1,0,0.3,0.1,0.2c1.5-0.2,3.1-0.4,4.6-0.6c11.5-1.4,23-2.6,34.5-3.1c12.7-0.6,25.5-0.4,38.2-1.1c13.6-0.7,26.9-3,40.3-4.3
		c0.1,0,0.1,0,0.2,0c14.8-1.4,29.5-3,44.3-4.1c26.8-1.9,53.5-3.2,80.3-4c-3.1,0.2-6.1,0.4-9.2,0.7c-0.5,0-0.8,0.3-0.9,0.6
		c6.7-0.5,13.3-1.7,20-1.5c0.7,0,1.2,0.3,1.5,0.7c0.1,0.2,0.2,0.3,0.3,0.5c1.3-0.1,2.5-0.3,3.7-0.2c0.6,0,1.3,0.4,1.5,0.8
		c2.4-0.1,4.5-0.1,7.4-0.2v-1.3v-1.6c-36.3,1.3-70.9,2.9-106,5.3C253.5-245.6,238.9-244.8,224.7-243.7z"/>
	<path class="st0" d="M-93.6-249c-2.6,0-5.3-0.1-7.9-0.1c-0.1-0.1-0.2-0.2-0.4-0.2c-5.2-1.4-9.3-2.5-14.8-2.6
		c-6.1-0.1-12.1,0-18.2,0.3c-10.8,0.6-22,1.8-32,5.4c-1.5,0.5-1.9,1.9-1.6,3.1c0.3,1,1.2,1.9,2.4,2.1c4.3,0.8,8.6,1.3,12.9,1.6
		c0.6,0.5,1.4,0.8,2.3,0.8c6,0,12-0.1,17.8-1.1c13.2-0.9,26.3-2.9,39.5-3.6c1.8-0.1,2.8-1.1,3.2-2.2C-89.9-247.1-91-249-93.6-249z"
		/>
	<path class="st0" d="M-368.6-249.7c2.3-0.3,4.5-0.8,6.7-1.3c0.2-0.1,0-0.4-0.2-0.3c-2,0.4-5,0.7-6.9-0.2c-1.3-0.6-3.1-0.9-4.6-1
		v2.7C-372-249.5-370.3-249.5-368.6-249.7z"/>
	<path class="st0" d="M-349.3-302.8c3.5-0.9,7.1-1.8,10.6-2.5c6.7-1.5,13.6-2.6,20.3-2.6v0c-3.8,0-8.1-0.6-12.3-0.1
		c-5,0.6-9.9,1.5-14.8,2.2c-3.9,0.6-7.8,1.3-11.6,1.9c-1.5,0.1-3.1,0.3-4.6,0.3c-3.1,0.1-6.3,0.2-9.4,0.5c-0.9-0.2-1.7-0.3-2.6-0.4
		v3.7C-366-299-357.4-300.8-349.3-302.8z"/>
	<path class="st0" d="M-328.8,292.9c17.3,0.2,34.5,1.9,51.8,2.5c17.4,0.6,34.8,0.1,52.2-0.1c17.6-0.1,35.2-0.5,52.8-0.7
		c0,0.9,0,1.7,0,2.6c0,0.5,0.5,0.9,1.1,0.9c5.9,0.3,11.9,1.2,17.8,1.6c8,0.6,16,1,24,1.3c15.7,0.6,31.3,0.6,47,0.7
		c30.9,0,61.8-1.4,92.7-2.6c30.7-1.2,61.4-1.3,92.1-0.7c15.3,0.3,30.5,1,45.7,1.9c15.3,0.9,31,1.6,46.1,3.5
		c14.5,1.8,29.5,1.7,44.1,1.9c15.8,0.2,31.6,0,47.4,0c15.7,0,31.5-0.3,47,1.8c9.7,1.4,19.8,2.6,29.8,2.4c3-0.1,6-0.2,8.9-0.6
		c0.4,0,0.3-0.6-0.1-0.6c-14.5,0.1-28.4-3.7-42.6-5.3c-14.8-1.7-30-1.2-45-1.2c-31.6,0-63.1,0.1-94.6-1.8
		c-9.1-0.6-18.3-1.1-27.4-1.5c-9.7-0.5-19.4-0.9-29.2-1.3c-42-1.6-84.1-2-126.1-0.3c-30.3,1.2-60.5,2.5-90.9,2.6
		c-15,0-30.1-0.1-45.1-0.6c-7.4-0.3-14.8-0.7-22.2-1.3c-6-0.5-12.4-1.8-18.5-1.8c0,0,0,0,0,0c0,0,0-0.7,0-1c0-0.5,0-1,0-1.5
		c0-0.5-0.5-0.9-1.2-0.9c-17.4-0.2-34.7-0.6-52.1-0.7c-17.3-0.1-34.8,0.1-52.2-0.5c-17.3-0.6-34.5-2.4-51.8-2.9
		c-8.5-0.3-16.7-0.2-25.2,0.4c-7.3,0.5-14.8,2.3-21.5,3v5.2c5.7-0.6,12.3-2.1,18.7-3C-346.2,293-337.6,292.8-328.8,292.9z"/>
	<path class="st0" d="M-34.3,207c-28.1-0.1-56.2-1-84.4-1c-24.3,0-48.9-1.2-73.2,0.2c-17.2,1-35.9,4.3-46.6,16.4
		c-4.1,4.6-7,10-11.9,14.1c-5.9,5-13.8,4.9-21.4,3c-0.2,0-0.4-0.1-0.5-0.1c0.5-1.3,0.9-2.5,1-3.6c0.3-3.2-1.1-5.9-5.8-7.4
		c-8.2-2.7-18.8-0.9-27.4-1.4c-5-0.3-9.8-1.4-14.5-2.5c-6.7-1.6-12.8-2.9-19.8-3.4c-1.7-0.1-3.4-0.2-5.2-0.2
		c-0.4,0.2-0.9,0.3-1.4,0.4c-3.4,0.7-6.7,1.4-10,2.2c2.6-0.2,5.2-0.3,7.8-0.4c0.3,0,0.7,0,1,0c6.5-0.1,12.8,0.3,19.1,1.5
		c5,0.9,9.7,2.5,14.7,3.5c7.9,1.6,16,1.2,24.1,1.2c3.7,0,7.3,0.2,10.8,1.1c3.4,0.9,4.2,3,3.9,5.3c-0.2,1.3-0.7,2.6-1.3,3.8
		c-0.2,0.5-0.2,0.9,0.2,1.3c0.2,0.1,0.4,0.3,0.6,0.3c7.5,2.1,15.5,2.9,22.4-0.9c5.7-3,9.2-8.5,12.8-13c5.6-7,11.9-11.6,21.5-14.7
		c11.4-3.6,23.9-4.3,36-4.5c27.8-0.5,55.8,0.4,83.6,0.9c31.2,0.5,62.5,1.2,93.7,1.7c28,0.5,55.9,0.7,83.8-0.4
		c28.2-1.1,56.2-3.1,84.5-2.9c27.6,0.2,55.1,2.2,82.7,2.4c22,0.1,44.2-0.5,66.2,0.8c6.2,0.3,12.3,0.8,18.5,1.5
		c0.7,0.1,0.9-0.7,0.3-0.8c-14.4-2-28.9-3.4-43.5-4.2c-15-0.9-30.1-0.5-45.1-0.6c-30.7-0.2-61.3-2.6-91.9-3.5
		c-15.3-0.5-30.5,0.4-45.8,1.2c-15.4,0.8-30.8,1.3-46.3,1.7C28,206.8-3.2,207.1-34.3,207z"/>
	<path class="st0" d="M226.7,167.9c-30,0.3-60,0.1-90,0.8c-14.4,0.3-28.9,0.9-43.2,2.2c-14.2,1.3-28.4,3.3-42.7,4.2
		c-61.4,4.2-122.6,0.7-184.1-0.3c-15.3-0.2-30.7-0.6-46-0.2c-15.1,0.4-30,2.3-45,3.5c-15.2,1.2-30.2,1.2-45.4,0.1
		c-14.3-1-28.5-2.5-42.9-2.1c-13,0.4-25.9,2.1-38.7,3.7c1.5,0.3,3,0.7,4.5,1c0.6,0.1,1.2,0.3,1.9,0.4c11.9-1.4,23.8-3,35.9-3.3
		c14.4-0.3,28.6,1.4,42.9,2.3c9.4,0.6,18.7,0.5,27.9,0.1c10.3-0.5,20.5-1.4,30.8-2.3c6-0.5,12-1,18-1.4c0.1,0.4,0.4,0.8,1,0.9
		c9.1,2,18.5,2.3,27.9,2.3c-0.7,0.5-1.3,1-2,1.6c-1,0.8-2.1,1.6-3.4,2.2c-0.9,0.4-0.9,1.3-0.3,1.8c0.3,0.3,0.6,0.4,1.1,0.4
		c0.5,0,0.9,0,1.4,0c-0.3,0.4-0.4,0.9-0.5,1.6c0,0.2,0,0.5,0,0.7c0,0.2,0,0.3,0.1,0.5c0.2,0.7,1,1.1,1.9,1.2
		c29.5,1.5,58.9,4.6,88.5,6.1c30.4,1.5,60.8-2.4,91.1-4.6c30.8-2.2,61.4-3.2,92.3-2.6c30.7,0.5,61.4-1.4,92.1-2.4
		c14-0.5,27.9-0.8,41.8-0.6c14.6,0.2,28.6,1.6,43,3.2c13.4,1.6,26.7,2.3,40.3,1.8c14.1-0.5,27.9-1.8,42-0.3c0.3,0,0.6,0,0.8-0.2
		c0.7-0.5,0.5-1.8-0.8-1.9c-14.5-1.5-29.2-0.6-43.7-0.2c-14.5,0.4-28.8-1-43.2-2.5c-29.6-3-59.6-2.7-89.4-1.8
		c-30.8,0.9-61.5,2.1-92.3,1.5c-30.7-0.6-61.5,1.2-92.1,3.5c-28.5,2.1-56.8,4.8-85.5,4c-26.8-0.7-53.5-4-80.3-6c-0.2,0-0.3,0-0.5,0
		c0.2-0.1,0.3-0.3,0.4-0.5c0.1-0.2,0.1-0.3,0.1-0.5c0-0.4-0.1-0.8-0.1-1.2c-0.1-0.6-0.5-1.2-1.2-1.3c-0.2,0-0.3-0.1-0.5-0.1
		c-0.5,0-1,0-1.5,0.1c1.6-1.3,3.2-2.6,5.1-3.6c0.1-0.1,0.2-0.1,0.3-0.2c0.8-0.7,0.3-2-1-2c-3.1,0-6.2,0-9.2-0.1
		c-5.4-0.1-10.8-0.4-16.2-1.2c2.1-0.1,4.1-0.2,6.2-0.2c30.5-0.7,61.2,1,91.7,2c30.7,1,61.5,1.6,92.3,1c29.6-0.6,59.2-2.9,88.7-4.5
		c14.4-0.8,28.7-1.7,43.2-2c14.8-0.3,29.7-0.1,44.5-0.2c30.6-0.3,61.7-0.7,92.3-0.8c32.2-0.1,64.4,0.6,96.8,1.6v-2.9v-1.6
		c-19.1-0.8-36.6-1.1-54.6-1.2C288.4,167.2,257.3,167.5,226.7,167.9z"/>
	<path class="st0" d="M-373.2,171.7c-0.2,0.1-0.3,0.2-0.4,0.3v0.1C-373.6,172-373.4,171.8-373.2,171.7
		C-373.2,171.7-373.2,171.7-373.2,171.7z"/>
	<path class="st0" d="M-355.3,275.8c30.8,1.7,61.3,3.3,92.1,4.5c15.5,0.6,31.1,0.9,46.7,0.7c13.9-0.1,28.5-0.1,42.2-2.4
		c15-2.6,30.8-2.6,46.1-4c14.9-1.4,29.7-2.7,44.7-2.7c0.6,0,1.3,0,1.9,0c26.5,0.3,52.4,5.8,78.2-1.9c3.4-1,6.7-1.9,10.1-2.6
		c5.9-1.2,11.8-2,17.8-2.3c4.6-0.2,9.2-0.2,13.9,0.2c9.2,0.6,18.3,2.2,27.3,4.1c4.8,1,9.6,2.1,14.3,3.2
		c51.6,12.1,106.1,17.7,159.7,17.8c9.6,0,19.2-0.1,28.8-0.5c27.6-1.1,55.2-4,81.8-10.2c0.4-0.1,0.2-0.6-0.2-0.5
		c-52.5,12.2-107.7,10.2-161.5,6.3c-13.4-1-26.7-2.2-40-3.7c-13.4-1.5-26.9-2.5-40.1-4.9c-26.5-4.7-52.4-13.3-79.8-13.5
		c-6,0-12,0.5-17.9,1.5c-7.3,1.2-14.1,3.9-21.2,5.5c-13.3,3-27.2,2.6-40.8,1.7c-14.3-1-28.5-2.3-42.9-1.8c-15,0.4-30,2.1-45,3.3
		c-7.3,0.6-14.7,1-22.1,1.4c-7.4,0.4-14.8-0.5-22.3-0.3c-14.7,0.3-29.4,0.8-44.2,0.8c-31.1-0.1-62.2-1.9-93.2-3.4
		c-7.2-0.3-14.4-0.8-21.6-0.9c-10.6,0.5-20.9,1.7-31.2,3.7v0.1c2.3,0.1,4.6,0.2,7,0.3C-362.9,275.4-359.1,275.6-355.3,275.8z"/>
	<path class="st0" d="M-368.7,199.2c3.1,0.7,6.3,1.4,9.5,1.9c1.2,0.2,2.3,0.4,3.5,0.6c4.5,0.2,8.9,0.4,13.5,0.7
		c14.6,1,28.4,2.2,43.1,1.4c13.5-0.8,26.9-2.7,40.2-4.7c14.2-2.1,28.4-4.3,42.9-5.3c14.2-1,28-0.3,42.1,1.3
		c28.5,3.1,57,6.3,85.6,8.3c23.5,1.6,46.9,2.4,70.3,1.8c23.1-0.6,46.1-2.4,69.1-5.9c0.3-0.1,0.2-0.5-0.1-0.4
		c-28.6,4.6-57.6,5-86.6,4.7c-29.2-0.3-58.4-2.3-87.4-5c-14.2-1.3-28.3-2.8-42.5-4.3c-14.1-1.5-27.8-3.1-42-2.7
		c-28,0.8-55.4,7-83.1,9.7c-11.2,1.1-22.5,1.4-33.8,0.8c-12.1-0.7-23.8-2-36-2.5C-363.3,199.3-366.1,199.2-368.7,199.2z"/>
	<path class="st0" d="M126.8,235.3c0.2,0,0.3,0,0.4-0.1c0.9-0.3,0.8-1.6-0.4-1.7c-15.6-0.4-31.1-0.7-46.7-0.1
		c-15.1,0.6-29.8,2.1-44.7,4.4c-27.8,4.2-53.4,15.6-81.9,17c-15.5,0.7-31,0.6-46.6,0.6c-14.8,0-29.5,0.7-44.3,1
		c-12.9,0.2-25.9-0.3-38.7,1.3c-7,0.9-13.6,2.8-20.6,3.4c-8,0.7-16.1,1.3-24.2,1.8c-14.9,0.8-29.8,1.8-44.7,2.3
		c-0.1,0-0.1,0.2,0,0.2c7.1,0.2,14.2,0.4,21.4,0.4c8.4,0.1,16.8-0.1,25.2-0.4c7.4-0.3,14.9-0.7,22.3-1.2c3.8-0.2,7.5-0.2,11.3-0.3
		c3-0.1,6.3-1.3,9.2-1.8c13.2-2.1,27-1.2,40.4-1.4c14.9-0.2,29.7-0.9,44.6-0.9c15.5,0,30.9,0.1,46.4-0.7c13.7-0.6,27-3.8,40-7.1
		c13.3-3.4,26.4-7.3,40-9.7c15.3-2.7,31.1-4.5,46.8-5.3C96.9,236.1,111.9,235.7,126.8,235.3z"/>
	<path class="st0" d="M254.7-141.7c-13.6-0.5-27.3,2.2-40.6,4.3c-15.4,2.5-30.8,3.8-46.6,3.8c-15.4,0-30.7-1.4-46.1-1.6
		c-30.7-0.3-61.2,3.7-91.9,3.5c-16.2-0.1-32.7-0.2-48.7,1.6c0,0,0,0,0,0c14.6-1.4,29-0.4,43.5-0.1c0.5,0,1,0,1.5,0
		c5,0.1,10,0,15-0.1c0.1,0,0.3,0,0.4,0c1.1,0,2.1-0.1,3.2-0.1c7.7-0.2,15.3-0.7,22.9-1.1c1.5-0.1,3.1-0.2,4.6-0.3
		c15.2-0.8,30.4-1.1,45.6-1c15.4,0.1,30.7,1.4,46.1,1.7c14.9,0.3,29.6-0.6,44.2-2.7c14.4-2,28.6-5,43.2-4.9c6.4,0,12.7,0.9,19,1.3
		c6.8,0.4,13.6,0.6,20.5,0.6c13.9,0.1,28.3-1.1,42.1-2c6.6-0.4,13.1-1,19.7-1.6c6.8-0.6,13.8-1.3,21-2v-1.2
		c-26.7,2.4-52.8,3.9-79.1,3.8C281.3-139.7,267.8-141.3,254.7-141.7z"/>
	<path class="st0" d="M-336.2-99.4c13.9,1.1,27.5,0.6,41.3-0.9c13.6-1.5,27-3.3,40.5-5.4c14.7-2.2,29.6-4.6,44.6-4.5
		c13.5,0.1,27.4,3.2,40.4,6c14.2,3,28.7,4.2,43.3,4.6c14.9,0.4,30,0.4,44.9-0.2c10.4-0.4,20.8-1.3,31.2-2.2
		c5.1-0.4,10.2-0.8,15.3-1.2c30.5-2,60.9-4.4,91.5-5.7c15.5-0.7,30.9-1,46.4-1c15-0.1,30.1-0.4,45,0.9c14.3,1.2,28.4,3.4,42.7,4.3
		c2.1,0.1,4.1,0.2,6.2,0.3c-4.4-0.2-8.8-0.6-12.9-0.9c-14.3-1.2-28.4-3.4-42.7-4.3c-15.1-1-30.6-0.4-45.8-0.3
		c-15.4,0.1-30.8,0.3-46.1,0.9c-15.2,0.6-30.4,1.3-45.7,2.4c-15.3,1.1-30.7,2.7-46,3c-7.4,0.2-14.9,0.4-22.3,0.4
		c-8.1,0-16.2-0.5-24.3-0.5c-14.8,0-29.7,0.3-44.5-0.3c-15.3-0.7-29.7-3.4-44.5-6.3c-12.9-2.5-25.6-3.6-38.8-3
		c-28.7,1.2-56.3,9.3-84.8,12.1c-24.4,2.4-48.5-0.3-72.3-3v0.2c11.4,1.7,24.3,3.9,36.7,4.9C-336.7-99.4-336.5-99.4-336.2-99.4z"/>
	<path class="st0" d="M303.7-106.6c-7,0.5-13.9,1.3-21,1c-7-0.3-13.9-1.9-20.7-3.3c-6-1.2-12.1-2.7-18.3-2.5
		c-6.1,0.2-11.9,2.5-17.5,4.3c-0.4,0.1-0.9,0.2-1.3,0.4c1.4-0.2,2.9-0.5,4.3-0.7c2.1-0.4,4.2-0.7,6.2-1c4.7-0.6,9.5-0.9,14.4-0.2
		c6.9,1,13.6,2.6,20.4,3.9c5.7,1.1,11.4,1.9,17.2,2.3c7.8,0.5,16.3-0.5,24.2-0.9c20.5-1.1,41-2.3,62-3.1v-0.5v-1.6
		c-7.6-0.1-15.2-0.1-22.6-0.3C335.5-109.2,319.1-107.6,303.7-106.6z"/>
	<path class="st0" d="M224.9-106.7c-9.4,1.5-18.4,2.4-27.9,2.2C206.5-104,216.4-104.3,224.9-106.7z"/>
	<path class="st0" d="M3.5-84c6.8-0.4,13.7-0.5,20.5-0.3c8.2,0.2,15.9,2.3,24,2.8c31,1.7,62,4.6,93,2.7c29.7-1.8,59.3,3.1,88.8,5.3
		c6.3,0.5,14,1.6,20.2,0.6c2.2-0.3,4.4-0.6,6.6-0.7c6.1-0.3,12.3,0.1,18.6,0.5c15.4,0.9,30.7,2.1,46,3c6.7,0.4,13.5,0.5,20.2,0.6
		c0.4,0,0.4-0.5,0-0.5c-15.4-0.1-30.7-1.5-46-2.8c-7.4-0.6-14.7-1.2-22.1-1.6c-3.7-0.2-7.4-0.4-11-0.5c-1.8-0.1-3.7-0.1-5.5-0.2
		c-2.7-0.1-4.8-1-7.3-1.1c-15.3-0.5-30.4-2.2-45.6-4c-14.5-1.7-28.5-4-43.2-4.5c-15.3-0.5-30.5,1-45.7,0.9
		c-15.5-0.1-31-1.1-46.5-2.1c-7.4-0.5-14.9-1-22.3-1.4c-3.8-0.2-7.4,0.4-11.2,0.8c-4.3,0.4-8.5,0.1-12.8,0
		c-13.6-0.3-27.1,0.7-40.4,2.6c-6.7,1-13.7,1.8-19.8,4.4c-0.3,0.1-0.1,0.5,0.2,0.5c1.1,0,2.3-0.1,3.4-0.2c5.2-0.4,10.2-1.6,15.3-2.4
		C-11.6-82.7-4-83.5,3.5-84z"/>
	<path class="st0" d="M-267-73.3c-24.6,1.3-48.7,4.1-73.3,4.7c-6.1,0.1-12.4,0.3-18.5,0.3c-2.6,0.4-5.2,0.8-7.8,1.2
		c3.3,0.2,6.7,0.3,10.1,0.4c4.2,0.1,8.3,0.1,12.5,0.1c25.2-0.5,50.1-3.4,75.3-4.9c4.3-0.3,8.6-0.4,12.9-0.5c0.8,0,1.7,0,2.5-0.1
		c0.2,0,0.4,0,0.6,0c19.5-0.3,39.1,0.6,58.4,1.8c25.3,1.6,50.9,3.8,76.3,3.2c0.5,0,0.4-0.6,0-0.6c-24.9-0.6-49.7-2.3-74.5-3.9
		C-217.3-73.3-242.1-74.6-267-73.3z"/>
	<path class="st0" d="M-179.4-52.4c-30.2,1-60.6,2.4-90.8,1.1c-29.2-1.3-58.2-4.1-87.2,0.6c-0.8,0.1-1.1,0.6-1,1.1
		c1.1,0,2.3,0.1,3.4,0.1c1.7,0.1,3.4,0.1,5.1,0.2c27.2-2.8,54.1,1,81.4,2.7c30.1,1.9,60.8-0.2,90.9-1.1c15.2-0.4,30.4-0.9,45.6-1
		c15.1-0.1,30.1,0.4,45.2,0.4c30.5,0.1,61-2.5,91.5-3.4c23.6-0.6,47.2-0.6,70.8-0.3c39.6,0.5,79.3,1.5,118.9,1.1
		c53.2-0.6,106.1-6.1,159.6-5.6c0.1,0,0.2-0.1,0.3-0.1c3.4-0.4,6.7-0.7,10,0c0.9-0.3,1.7-0.5,2.6-0.7c-28.1-0.8-55.2,0.5-82.7,1.8
		c-30.6,1.5-61.3,2.9-91.9,3.5c-31.6,0.7-63.4-0.3-95-1.1c-31.5-0.8-63-1.6-94.5-0.9c-30.5,0.7-61,1.1-91.5,1
		C-118.9-53.1-149.1-53.4-179.4-52.4z"/>
	<path class="st0" d="M363-36.9c-30.4,1.8-61,0.8-91.4-0.2c-30.8-1-61.4-1.5-92.2-1.2c-62.8,0.5-125.6,3-188.4,3.6
		c-31.1,0.3-62.2,0.6-93.2,0.5c-30.3-0.1-60.6,1.2-90.8,0.3c-15.8-0.5-31.4-2.1-47.1-3.9c-14.6-1.6-29.5-2.1-44.3-2.1
		c-15.4,0-30.7,0.6-46.1,0.2c-3.1-0.1-6.1-0.2-9.1-0.4c-0.9,0.4-1.9,0.7-3.2,0.7c-6,0.1-12,0-18-0.2c5.7,0.7,11.3,1.3,17,1.7
		c22.8,1.8,45.5,1.5,68.6,1.7c30.6,0.3,60.6,5.5,91.2,6.3c30.4,0.9,60.7-1.1,91.1-2.5c2.8-0.1,5.7-0.2,8.5-0.4
		c28.3-1.1,56.6-1.2,84.9-1.6C32-34.7,63.5-35.4,95-36c61.9-1.3,123.8-1.8,185.7,0.6c27.5,1.1,55,1.1,82.4-1
		C363.4-36.4,363.5-36.9,363-36.9z"/>
	<path class="st0" d="M-124.5-116c-30.7-2.4-61.5-4.6-92.3-3.1c-29.8,1.5-59.2,6.5-88.9,8.3c-6.9,0.4-13.7,0.7-20.5,0.7
		c-10.5,1.3-21,1.4-31.5,1.1c9.3,0.4,18.6,0.8,28,0.9c8.6,0.1,17.3-0.1,26-0.6c29.8-1.8,59.1-6.9,88.9-8.4
		c30.8-1.5,61.6,0.8,92.3,3.2c15.3,1.2,30.6,2.6,46,3.4c15.5,0.8,31.2,0.6,46.7,0.1c31.2-1,62.2-3.6,93.3-4.9
		c63.2-2.6,126.3-4.9,189.5-6.9c6.9-0.2,13.8-0.4,20.7-0.6c8.3-0.2,16.5-0.5,24.8-0.7c15.8-0.4,31.6-0.2,47.4-0.7
		c0.2,0,0.2-0.2,0-0.2c-15.8-0.5-31.6-0.1-47.4-0.1c-15.8,0-31.6,0.1-47.4,0.3c-31.6,0.4-63.2,1.2-94.8,2.3
		c-31.5,1.2-63.3,1.5-94.7,3.7c-31.1,2.2-62.1,4.7-93.3,5.7C-62.8-111.5-93.5-113.6-124.5-116z"/>
	<path class="st0" d="M336.9-84.6c12.1,0.1,24.3,0.6,36.7,0.6v0.3c-8.2,0.3-16.1,0.6-23.8,0.8c-4.9,0.1-9.8,0.2-14.7,0.1
		c-15.6-0.1-31.7-0.4-47.3-1c-31.3-1-62.5-2.5-93.7-4c-31.1-1.5-62.2-3.1-93.4-3.8c-31-0.7-62,0-93,1.6c-46.7,2.4-93.2,6-139.9,7.6
		c-2.7,0.1-5.4,0.2-8,0.3c0.3,0,0.5,0.1,0.8,0.1c3.2,0.4,6.3,0.8,9.5,1.1c4.1,0.5,8.2,0.9,12.3,1.1c10.8,0.6,21.7,1.3,32.7,1.7
		c-11.7-0.3-23.4-0.9-35-1.8c-3.4-0.3-6.8-0.6-10.2-1c-3.4-0.4-6.7-0.8-10.1-1.1c-0.3,0-0.7-0.1-1-0.1c-3.6,0.1-7.3,0.2-10.9,0.3
		c-2.3,0-4.6,0.1-6.9,0.1c-1.7,0-3.5,0-5.2,0.1c-2.2,0-4.3,0-6.5,0.1c-1.4,0-2.9,0-4.3,0c-0.5,0-0.5-0.6-0.1-0.7
		c8.2-2.2,17.3-1.7,25.8-0.9c53.1-2.3,106-6.7,159-9c31-1.3,62-2.2,93-1.4c31.2,0.8,62.3,2.2,93.4,3.7c31.2,1.5,62.5,3.1,93.7,4
		C305.2-85.1,321.3-84.7,336.9-84.6z M-152.6-82.7c-5.1-0.3-10.2-0.5-15.2,0.1c-1.4,0.2-2.9,0.3-4.2,0.6c2.6-0.1,5.2-0.1,7.8-0.2
		C-160.4-82.4-156.5-82.6-152.6-82.7z"/>
	<path class="st0" d="M-92.1-76.5c-15.6-0.6-31-2.8-46.5-3.8c-7.9-0.5-15.8-0.7-23.8-0.2c-0.1,0-0.1,0.1,0,0.1
		c6.1-0.3,12.2-0.1,18.4,0.2c3.5,0.2,7,0.5,10.5,0.8c0.8,0.1,1.6,0.2,2.4,0.2c2.9,0.3,5.9,0.6,8.8,0.9c0.8,0.1,1.7,0.2,2.5,0.3
		c8.6,0.9,17.2,1.8,25.8,2.2c9.3,0.4,18.6,0.4,27.8,0.2c2.2,0,4.5-0.1,6.7-0.2c12.9-0.3,25.8-0.9,38.7-0.9c0.4,0,0.4-0.5,0-0.5
		c-6.3,0-12.6,0.1-18.8,0.2c-15.2-0.3-30.4-0.4-45.6-0.8c13.7,0.6,27.5,1,41.2,0.9C-59.9-76.5-76-75.9-92.1-76.5z"/>
	<path class="st0" d="M-373.6-84.2v0.2c1.3-0.1,2.6-0.1,3.9-0.2C-371-84.2-372.3-84.2-373.6-84.2z"/>
	<path class="st0" d="M288.6-111.5c3-0.2,5.9-0.5,8.9-0.7c0.2,0,0.4,0,0.5,0c-4.6,0.4-9.2,0.7-13.8,1c0,0,0,0,0,0c0.5,0,1,0,1.6,0
		C285-111.3,288.4-111.5,288.6-111.5z"/>
	<path class="st0" d="M288.7-111.3c-0.9,0-1.9,0-2.8,0.1c0.1,0,0.2,0,0.3,0C287-111.3,287.8-111.3,288.7-111.3z"/>
	<path class="st0" d="M281.4-112.4C281.4-112.4,281.4-112.4,281.4-112.4c10.4-1.8,20.9-2.6,31.5-3.3c8.9-0.6,18-0.7,26.8-2
		c-4.3,0.8-8.5,1.5-12.8,2.2c-2.5,0.4-5.1,0.7-7.7,1.1c-4.8,0.6-9.6,1.2-14.3,1.6c5.3-0.5,10.6-1.1,15.9-1.7
		c3.8-0.5,7.5-0.9,11.3-1.5c1.2-0.2,2.5-0.4,3.7-0.5c0.4-0.1,0.8-0.1,1.2-0.2c10.8-1.5,21.7-2.9,32.2-5.2c1.3-0.3,2.5-0.6,4.4-0.9
		v-0.5v-0.4v-0.7v-0.5c-4.8,1.1-8.9,2.1-13.4,3.1c4.5-1.1,8.6-2.3,13.4-3.5v-0.7c-10.5,2.4-19.9,4.7-29.7,6.5
		C323.6-115.7,301.8-116.3,281.4-112.4z"/>
	<path class="st0" d="M292.4-111.5c-1.2,0.1-2.5,0.1-3.8,0.2c1,0,2.1-0.1,3.1-0.1C292-111.5,292.2-111.5,292.4-111.5z"/>
	<path class="st0" d="M314.4-113.6c-7.3,0.9-14.6,1.7-21.9,2.1C299.8-111.9,307.1-112.7,314.4-113.6
		C314.4-113.6,314.4-113.6,314.4-113.6z"/>
	<path class="st0" d="M-373.4-141.8c0.8,0,1.3,0,2-0.1c0.1,0,0.2,0,0.3,0c0,0,0,0,0.1,0c0.3,0,0.5,0,0.8,0.1
		c7.6,0.5,15.2-1.2,22.6-2.5c4.5-0.8,9.2-1,13.9-1.1c4.4-0.1,8.7-0.1,13-0.3c0.1,0,0.1-0.1,0-0.1c-8-0.4-15.7-2-23.8-1.4
		c-9,0.7-17.2,3.7-26.4,3.9c0,0,0,0-0.1,0c-0.8-0.1-1.4-0.2-2.3-0.1c-0.1,0-0.2,0-0.2,0.1v1.7C-373.6-141.9-373.6-141.8-373.4-141.8
		z"/>
	<path class="st0" d="M-373.6-106.6v-0.7c0.2-0.1,0.5-0.2,0.7-0.2c0,0,0,0,0,0c-0.3,0-0.7-0.1-0.8-0.1v-1.5c1.9,0,5-0.1,7.4,0.4
		c2.9,0.1,6,0.6,8.9,1.3c0,0,0,0,0.1,0c1.4,0.3,2.8,0.7,4.1,1c1.9,0.4,3.9,0.8,5.8,1.2c1.1,0.2,0.9,1.3,0.1,1.6
		c-0.2,0.1-0.4,0.1-0.7,0.1c-6.5-0.9-13-1.7-19.5-2.4C-369.5-105.7-371.6-106-373.6-106.6z M-364.9-108.3c0.5,0.2,1,0.4,1.4,0.7
		c2.1,0.1,4.2,0.3,6.2,0.6C-359.8-107.7-362.4-108.1-364.9-108.3z"/>
	<path class="st0" d="M-354.3-25c3.4,0.2,7.1,0.2,10.7,0.3c3.2,0.1,6.4,0.3,9.3,0.9c0,0,0.1,0,0,0c-6.3-1.6-11.8-3.4-18.4-3.9
		c-7-0.5-13.8-0.6-20.8-0.6c-0.1,0-0.2,0-0.2,0v2.8c0,0,0.1,0,0.2,0C-366.9-25.5-360.7-25.4-354.3-25z"/>
	<path class="st0" d="M174.6,51.5c0.8,0.6,1.3,1.6,0.9,2.5c0,0,0,0.1-0.1,0.1c-1.8,3.7-5,6.6-8.1,9.6c-0.3,0.6-0.9,1.1-1.6,1.5
		c-5.2,4.7-11,8.9-17.1,12.8c-7.5,4.9-15.8,10.4-24.6,14.4c-0.2,0.2-0.5,0.4-1,0.5c-0.2,0.1-0.4,0.1-0.6,0.2
		c-2.7,1.1-5.4,2.1-8.1,2.9c-0.7,0.2-1.2,0-1.6-0.4c-0.4,0.1-0.8,0.2-1.2,0.3c-3.3,0.8-6.4,2.3-9.8,3c-7.3,1.5-14.6,2.9-22,4
		c-14.6,2.2-29.3,3.6-44.1,4.1c-15,0.5-30.1,0.2-45.1-1.1c-13.7-1.2-27.1-3.8-40.7-5.6c-6.8-0.9-20.1-1.7-23.5-7.8
		c-0.5-1-0.8-1.9-0.9-2.8c-0.7-6.3,7.5-12.1,13-15.5c10.2-6.4,22-10.1,34-13.7c13.6-4,27.5-7.2,41.5-9.9c27.6-5.4,56.8-9.6,85.3-9.1
		c13.5,0.3,26.9,1.8,40.4,2.7c4.4,0.3,8.9,0.6,13.3,1c0,0,0.1,0,0.1,0c6.9,0.7,13.7,1.9,20,4.4C173.8,50,174.3,50.8,174.6,51.5z
		 M145.9,50.4c0.4,0.1,0.9,0.3,1.3,0.5c0.6,0.2,1.2,0.3,1.8,0.5c0.1-0.2,0.2-0.4,0.4-0.6c0,0,0-0.1,0-0.1
		C148.3,50.6,147.1,50.5,145.9,50.4z M161.9,65c-0.1-0.1-0.2-0.1-0.3-0.2c-13.3-10.2-32.4-13.5-50.4-14.6c-2.6,0.1-5.2,0.2-7.7,0.3
		c-9.1,0.5-18.2,1.3-27.2,2.6c-7.8,1.1-15.8,1.9-23.4,3.5c-4.1,0.8-8.6,0.6-12.8,1C35,57.9,30,58.5,25,59.1
		c-9.9,1.3-19.7,3.1-29.3,5.2c-9.5,2.1-18.8,4.7-28.3,6.5c-4.5,0.8-8.7,2.1-13.1,3.2c-0.8,0.2-1.5,0-2.2-0.1
		c-6.7,2.9-12.9,6.5-17.4,11.3c-1.6,1.7-2.4,3.1-1.9,4.3c0.4,0.9,1.4,1.6,3.4,2.3c4.5,1.6,9.5,2.2,14.3,2.8
		c14,1.8,27.8,4.6,41.9,5.7c14.4,1.2,28.9,1.6,43.4,1c14.8-0.6,29.5-1.9,44-4.1c14.2-2.2,28.5-4.3,42.3-7.8c0.7-0.2,1.3-0.1,1.7,0.2
		c8.2-3.8,16-8.8,22.9-13.4c5-3.3,9.8-6.7,14.3-10.5C161.2,65.6,161.6,65.3,161.9,65z"/>
	<path class="st0" d="M278.6,19.2c6.2-1.4,12.5-1.5,18.9-2c5.8-0.4,11.4-1.5,16.9-2.9c0.1,0,0-0.1,0-0.1
		c-11.3,3.6-24.2,2.1-35.8,4.6C278.2,18.9,278.3,19.3,278.6,19.2z"/>
	<path class="st0" d="M351.5,18.5c-8.7,0.9-18.1,0.4-26.9,0.2c-1.6,0-2.1,1.3-1.5,2.2c0.3,0.4,0.7,0.7,1.4,0.7
		c6.4,0.6,13,0,19.3-1.1c1.3-0.2,2.6-0.5,3.9-0.8c4.4-1,10-1,14.5-1.3c3.7-0.3,6.7-0.4,11.4-0.2v-0.9
		C366,17.1,358.8,17.8,351.5,18.5z"/>
	<path class="st0" d="M-365.4,21.2c0.9,0.1,1.9,0.1,2.8,0.2c-1.1-0.1-2.2-0.2-3.3-0.3C-365.7,21.2-365.6,21.2-365.4,21.2z"/>
	<path class="st0" d="M-360.1,18.8c2.9,0.4,5.7,1.1,8.6,1.7c1.7,0.4,3.5,0.8,5.1,1.2c4.9-0.1,9.7-0.2,14.6-0.3
		c9.6-0.1,19.4,0,28.9,1.4c6.1,0.8,15.8,2.5,17.1,8.4c0.1,0.6,1,1.1,1.7,1.1c4.6,0,9.1,0.6,13.8,0.2c5.1-0.5,10.1-1.7,15-3
		c4.7-1.2,9.3-2.7,13.9-4c6.3-1.8,12.6-2,19.2-2.3c28.1-1.2,56.2,0.7,84.3,0.7c5.3,0,10.5-0.2,15.8-0.2c1.5,0,3,0,4.5,0.1
		c6.9,0.2,13.8,0.9,20.7,1.4c12,0.9,24,2,36.1,1.2c18.7-1.2,39.4-7.8,58.1-4.1c0.9,0.2,1.8,0.4,2.7,0.6c0.2,0.1,0.4,0.1,0.6,0.2
		c0.5,0.1,0.9-0.4,0.5-0.7C1.1,22.2,1,22.1,0.9,22c-0.5-0.4-1-0.9-1.5-1.4C8.9,19.1,19,19.2,28.6,19c10.7-0.2,21.4-1,32.1-0.9
		c12.2,0.2,24.3,1.2,36.5,1.5c13.3,0.4,26.3-0.7,39.5-1.8c12.8-1.1,25.7-2.1,38.6-2.1c12.5,0,25,1.5,37.3,2.8
		c17.6,1.8,35.2,3.4,52.9,4c7.7,0.3,15.4,0.4,23.2,0.2c0.4,0,0.4-0.5,0-0.5c-25.5-0.7-50.8-4.3-76-7c-12.4-1.3-24.8-2.8-37.3-3
		c-13.5-0.2-27,1.1-40.4,2.3c-12.6,1.2-25.1,1.9-37.7,1.6c-12.8-0.3-25.5-1.4-38.3-1.6c-10.6-0.1-21.2,0.8-31.8,1
		c-10,0.3-19.9,0.6-29.3,3.8c-0.5,0.2-0.9,0.7-0.3,1.1c0.2,0.1,0.4,0.3,0.6,0.4c0.3,0.2,0.6,0.4,0.9,0.6c-0.5-0.1-1-0.2-1.6-0.3
		c-7.9-1.2-16-0.4-23.9,0.3c-10.6,1-21.1,2.7-31.7,3.6c-11.7,1-23.5-0.4-35.1-1.5c-14.2-1.4-28.3-1.8-42.5-2.4
		c-13.8-0.6-27.7-0.3-41.6-0.9c-14.2-0.6-28.5-0.5-42.7-0.1c-5.7,0.2-12,0-17.5,1.3c-4.9,1.1-9.6,2.6-14.4,4
		c-5.2,1.5-10.5,2.8-16,3.6c-4.9,0.8-9.6,0.2-14.5,0.1c-1.8-4.7-7.9-7-13.3-8.3c-9.5-2.3-19.8-2.4-29.6-2.5
		c-9.3-0.1-18.4,0.3-27.7,0.4C-355.5,19-357.8,18.9-360.1,18.8z"/>
	<path class="st0" d="M203.3,55.8c0,0.1,0,0.2,0,0.3c-0.4,3.4-4,6.4-7.5,8c-2.2,1-3.8,3.7-5.5,5.3c-2,1.9-4,3.7-6.2,5.5
		c-19.5,15.6-42.9,26.5-68.1,33.9c-0.3,0.1-0.6,0.2-0.9,0.3c-0.6,0.2-1.2,0.3-1.7,0.5c-6.3,1.8-12.6,3.3-19.1,4.7
		c-14.1,3-28.6,5-43,6.3c-28.9,2.5-58.6,2.1-87.3-1.4c-11.1-1.4-21.8-3.6-32.2-7.3c-2.6-0.9-5.2-1.9-7.8-2.9
		c-2.5-0.4-5.1-0.8-7.4-1.7c-0.8-0.3-1.3-1.1-1.3-1.8c-0.5-0.2-1.1-0.5-1.6-0.7c-4.6-1.9-9.1-3.7-13.8-5.3c-0.2-0.1-0.4-0.3-0.6-0.5
		c-0.1-0.2-0.2-0.4-0.2-0.6c1-7,4-14.1,8.7-20c5-6.4,13-11.3,20.8-15.2C-37.5,46,4.6,41.6,43.2,37.3c26.1-2.9,52.6-5,78.8-2.9
		c20.4,1.6,40.2,4.3,59,10.6C189.7,45.1,204.1,46.3,203.3,55.8z M-90.9,98c0-0.5,0-1,0-1.5c-0.3,0.3-0.7,0.7-1,1
		C-91.5,97.7-91.2,97.8-90.9,98z M53,117.9c-4-0.2-7.9-0.3-11.6,0.1c-1.1,0.1-2.1,0.3-3,0.6C43.2,118.4,48.1,118.2,53,117.9z
		 M199.4,50.3c-0.2-0.2-0.4-0.3-0.6-0.5c-4.4-3.2-11.4-4.1-17.3-4.6c1.5,0.5,3,1,4.4,1.6c0.6,0.2,1.2,0.4,1.8,0.7
		c1.7,0.7,3.4,1.4,5.1,2.1c0.3,0.1,0.1,0.6-0.3,0.5c-3.5-1.2-7-2.2-10.6-3.2c-0.3-0.1-0.5-0.1-0.8-0.2c-0.4-0.1-0.8-0.2-1.1-0.3
		c-15.2-4-31.3-6.4-47.1-7.3c-26.3-1.4-53.4,0.1-79.5,2.7c-21.4,2.1-43,4.7-64,8.6c-18.8,3.4-37.9,8-54.6,16.1
		c-6.7,3.2-13.5,7.2-19.2,11.9c0.2,0.4,0.3,0.8,0.4,1.3c0.5,2.1,0.4,4.5,0.5,6.6c0.1,3.5,1.8,5.6,4.5,8.3c1.7,1.7,3.6,3.4,5.5,5
		c2.9,1.5,5.8,3,8.4,4.8c1.5,1,2.8,2.2,4.2,3.3c0.9,0.4,1.8,0.8,2.8,1.2c0.2,0.1,0.4,0.1,0.6,0.2c7.9,2.3,16.5,3.2,24.8,4
		c8.5,0.8,17,1.8,25.6,2.2c8.6,0.4,17.1,1.3,25.7,1.2c6.8,0,13.4,1.2,20.2,0.6c13.1-1.2,27.2,2.1,39.2-3.5c0.2-0.1,0.4,0.1,0.3,0.3
		c-1.1,0.8-2.3,1.4-3.5,1.9c0.9-0.1,1.7-0.2,2.6-0.3c0.3,0,0.6-0.1,1-0.1c9.7-1.4,19.3-3.2,28.7-5.6c23.4-6.1,46.4-15.5,65.6-28.4
		c4.6-3.1,9-6.3,12.9-9.8c3-2.7,5.6-6.8,9.3-8.7c3.2-1.6,6.4-4.4,6.9-7.4C202,53.6,201.4,51.9,199.4,50.3z"/>
	<path class="st0" d="M320.6,48.9c-28.6,3-58.3,7.2-85.7,15c-5.4,1.5-10.7,3.3-15.9,5.4c-5.8,2.3-12.8,4.9-17.4,8.7
		c-8.4,6.8-17.4,13.5-26.7,19.5C154.3,111,129,117.7,104,123.8c-14.2,3.5-28.6,6-43.4,7c-11.5,0.8-23.1,0.8-34.7,1
		c-24.4,0.4-49.1,0-73.3-3.4c-11.4-1.6-22.6-4-33.3-7.5c-2.6-0.8-5.1-1.8-7.6-2.8c-2.3-0.9-6-1.8-7.5-3.7c-2.6-3.2-6.1-3-10.1-4.3
		c-9.3-3.1-19-5.8-28.9-6.9c-3.9-0.4-7.8-0.5-11.7,0.3c-1.7,0.4-5.1-0.9-6.9-1.1c-3.3-0.3-6.5-0.3-9.7,0
		c-14.1,0.9-27.5,5.7-41.4,7.6c-15.5,2.2-31.4-1.3-46.8-3.2c-0.3-0.7-1-1.2-1.9-1.4c-11.7-3.1-24.4-1.5-36.5-2
		c-7.5-0.4-14.8-1.5-21.7-4.1c-6.5-2.5-12.5-6.2-18.6-9.3c-9.2-4.8-18.6-9.3-28.4-13.3c-1.4-1-2.8-1.8-4.4-2.6
		c-1.3-0.7-6.8-2.3-6.9-3.8c0-0.5-0.6-0.9-1.1-0.7c-0.4,0.1-1.6-0.8-2.3-0.9c0,0-0.1,0-0.1,0c0.2,0.8,0.8,1.5,1.6,2c0,0,0,0.1,0,0.1
		c0,0,0,0,0,0.1c-0.2,0.4-0.2,0.9,0.2,1.2c3.6,2.6,8.2,3.8,12,6.1c-0.1,0.4-0.2,0.9-0.4,1.3c11,4.7,21.5,10.1,32.2,15.2
		c5.5,2.6,10.8,5.4,16.7,7.4c5.7,2,11.9,2.9,18,3.4c12.4,1.1,24.2,0.8,36.1,3.9c0.3,1.1,1.4,1.7,2.8,1.8c14.4,1.3,28.3,3.6,42.9,3
		c12.2-0.5,23.9-4.1,35.6-6.6c5.9-1.2,11.9-2.1,18-2.1c3,0,6,0.4,9,1c2.4,0.5,3.9-0.2,6.3-0.4c10.1-1,20.8,2.1,30.1,4.7
		c3.1,0.9,9.5,2.1,11.3,4.6c1.3,1.8,1.7,3,3.8,4.2c2.5,1.4,5.1,2.6,7.8,3.7c10.1,4,20.8,6.7,31.7,8.6c23.5,4.3,47.9,5.1,72,5.1
		c25,0,50.1-0.1,74.6-4.6c14-2.5,27.6-6.3,41.1-10.1c12.2-3.5,24-7.2,35.1-12.8c9.2-4.6,17.3-10.5,24.9-16.8
		c4.3-3.5,7.8-7.4,12.1-11c5.2-4.4,11.9-7.4,18.5-10.1c12.6-5.3,26.3-8.4,40-11.3c14.5-3.1,29.6-5.7,44.3-7.9
		c20.9-3.1,41.7-5,63.9-5.8c1.5-0.1,3-0.1,4.5-0.2v-1.5c-2.9,0-5,0.1-7.2,0.2C351.2,46,335.7,47.3,320.6,48.9z"/>
	<g class="st1">
		<path class="st2" d="M-370.8-223.2c0,0,0-0.1,0-0.1c0,0-0.1,0-0.2,0c0.1-0.1,0.2-0.2,0.3-0.3c1.6-0.4,3.2-0.9,4.9-1.3
			c1.4-0.3,2.7-0.8,4-1.2c2.4-0.4,4.7-0.9,6.9-1.6c2.3-0.6,4.4-1.3,6.6-2.3c0.5-0.2,1-0.5,1.6-0.7c0.4-0.2,0.8-0.4,1.1-0.5
			c2.3-1,4.2-1.4,6.5-2.1c3.3-1,4.4-3.2,4.6-5.7c0-0.1,0-0.2,0-0.3c0-0.5,0-1,0-1.5c0.2-0.4,0.4-0.8,0.4-1.3c0-0.1,0-0.1,0-0.2
			c0-0.5,0-0.9,0-1.4c0-0.9-0.4-1.6-1.1-2.1c-0.1-0.1-0.3-0.2-0.4-0.2c0.8-2.6,1.8-5.3,3.5-7.6c3.2-4.1,10.1-6.4,15-8.9
			c12-6.1,24.4-11.8,37.2-16.6c13-4.9,26.7-8.5,40.9-10.3c15.1-1.9,30.4-1.7,45.6-1.5c3.5,0,7.1,0.1,10.6,0.1c3.6,0,7.3-1,10.9-1.3
			c7.9-0.5,15.9-0.6,23.8-0.8c15.4-0.3,30.8-0.5,46.2-0.2c15.4,0.2,30.7,1.1,46,1.9c15.2,0.8,30.3,1.9,45.3,4.3
			c7,1.1,13.5,2.5,20,4.9c5.7,2.1,11.4,4.5,17.2,6.4c13.2,4.3,27.4,3.2,41.2,3.7c15.2,0.6,30.3,2.9,45.5,3.8c15.4,1,30.6,1.8,46.1,2
			c21,0.2,42.1,0,63.1-1.4c14.4-0.9,28.8-2.4,43.1-3.7c5.5-0.5,11-1,16.4-1.5c1.2-0.1,2.3-0.2,3.5-0.3c0.5,0,0.5-0.7,0-0.6
			c-1,0.1-1.9,0.1-2.9,0.1c-29.9,1.5-60,1.1-89.9,1.7c-30.6,0.6-61.7,0.5-92.2-1.5c-15.2-1-30.1-2.6-45.3-2.4
			c-7.2,0.1-14.6-0.2-21.6-1.7c-6.7-1.5-13-4.2-19.3-6.6c-12.2-4.8-25.2-6.5-38.5-7.9c-14.6-1.6-29.3-2.4-43.9-3.1
			c-31-1.6-61.9-1.4-92.9-0.5c-15.1,0.4-30.1-0.7-45.2-0.9c-14.5-0.2-28.8,0.5-43,2.9c-27.3,4.7-52.2,16.5-75.7,28.5
			c-7.9,4.1-15.5,8.6-16.4,16.9c-0.1,1.2-0.2,2.4-0.1,3.5c-0.9,0.6-1.6,1.4-1.5,2.5c0,0.3,0,0.5,0.1,0.8c0,0.5,0,1.1,0,1.6
			c-0.2,3.8-1.9,6.7-5.4,8.8c0-0.8-1-1.6-2.1-1.1c-3.2,1.5-6.6,2.5-10.1,3.3c-1.4-0.2-2.9-0.4-4.6-0.3c-1.6,0.2-3.2,0.5-4.8,0.9
			c-1.1,0-2.2-0.1-3.3-0.2c-0.2,0-0.3-0.1-0.5-0.1c-0.1,0-0.1-0.1-0.2-0.1v6.4C-372.7-222.2-371.4-222.6-370.8-223.2z"/>
		<path class="st2" d="M306.4-225.2c-10.9-0.1-18.7-6.5-29.3-7.2c-13.4-0.8-26.9,2.8-39.7,5.6c-6.7,1.4-13.5,2.8-20.3,3.9
			c-8.1,1.2-15.9,1.3-24.1,1.1c-15-0.4-30.3,0-45.2,1.1c-29.8,2.1-58.9,5.6-87.8,12.2c-5.8,1.3-11.3,3.4-17,4.9
			c-5.9,1.6-11.7,2.9-17.8,4c-12.8,2.3-25.5,4.6-38.5,5.5c0,0,0,0,0,0c9.7-0.6,19.4-1.2,28.9-2.3c4-0.4,7.9-1,11.9-1.6
			c6.7-1.1,13.2-2.6,19.8-4c7.5-1.6,15.3-2.6,22.9-4.1c14.6-2.9,29.4-5.2,44.3-7.4c15.2-2.2,30.7-4.6,46-5.5
			c9.1-0.6,18.3-0.9,27.4-1.3c5.8-0.3,11.6-0.6,17.4-1c13.8-1,27.2-4.4,40.9-6.2c1.4-0.2,2.9-0.4,4.3-0.5c5.8-0.7,11.7-1.3,17.5-1.4
			c6.4-0.1,11.5,2.1,16.9,4.6c4.1,1.8,8.1,3.5,12.6,4.5c6.8,1.5,14.1,1,21,0.3c11.9-1.1,23.7-3.3,35.7-3.1
			c6.3,0.1,12.6,0.3,19.3,0.6v-4v-1.6c-8.6-0.3-16.4-0.6-24.4-0.7C335-229,320.7-225.1,306.4-225.2z"/>
		<path class="st2" d="M343.1,260.8c-1,0.2-1.9,0.4-2.8,0.6c-1.9,0.3-3.8,0.6-5.8,0.8c-0.8,0.1-1.4-0.4-1.7-1
			c-1.8,0.1-3.5,0.2-5.3,0.2c-19.2,4.6-38.6,7.7-58.5,9.4c-11.5,1-22.8,2.4-34.4,2.1c-11.3-0.3-22.5-1.2-33.7-2.1
			c-21.6-1.7-43.3-2.6-64.9-3.6c-10.7-0.5-21.4-1.1-32-2.5c-5-0.6-10-1.3-15-2.3c-4.8-1-9.8-1.5-14.5-2.7c-1.2-0.3-2.1-1.1-2.4-2
			c-0.3-0.9-0.1-2,0.9-2.8c12.7-10,33.7-9.7,50-9.4c9.1,0.1,18.2,0.7,27.3,0.5c12.1-0.3,24.1-2.4,36-3.9c25.7-3.3,51.2-5.2,76.8-0.1
			c12.7,2.5,25,6,37.6,9c5.9,1.4,11.8,2.8,17.8,3.9c5.3,1,10.7,2.4,16.1,2.7c1,0.1,2,0.7,2.1,1.5c2.2,0.3,4.4,0.7,6.6,1.1
			C343.4,260.3,343.4,260.7,343.1,260.8z M320.3,261c-0.2,0-0.4-0.1-0.6-0.1c-6-1-11.9-2.3-17.7-3.7c-12-2.9-23.8-6.2-35.8-8.8
			c-12.6-2.7-25.2-4.3-38.2-4.1c-13.4,0.2-26.7,1.6-39.9,3.3c-11.8,1.5-23.9,3.7-35.9,4.1c-8.5,0.3-17-0.1-25.4-0.3
			c-13.1-0.3-31.1-1.4-43.5,4.4c0.9,0.2,1.8,0.3,2.7,0.5c2.1,0.4,4.3,0.7,6.4,1.1c5.2,0.9,10.5,1.7,15.8,2.3
			c10.4,1.1,20.8,1.7,31.2,2.1c21.2,0.9,42.2,2,63.3,3.7c21.9,1.8,44.2,3.3,66.2,1.7c15.6-1.1,31.3-2.8,46.8-5.3
			C317.2,261.5,318.8,261.2,320.3,261z"/>
		<path class="st2" d="M280.4,223.2c-15-1.5-30.1-0.5-45.1,0.4c-15.4,1-30.4,0.8-45.8,0.1c-61.6-2.9-123.5-0.1-185,2.1
			c-16.4,0.6-32.7,1.3-49,2.4c-15.5,1.1-31,2.2-46.5,1.4c-3.7-0.2-7.5-0.5-11.2-1c-2.9-0.4-7.1-2-10-1.7c-8.3,0.7-16.6,0.7-24.9,0.4
			c-17.5-0.6-34.9-3-52.4-3c-1,0-1.8,0.5-2.1,1.3c-0.5,1.2-0.6,2.3-0.4,3.3c1.2,8,20.4,9.3,29.5,12.9c-1.4,0.1-2.8,0.2-4.2,0.2
			c-18.6,0.6-37.7-3.4-55.7,2c-6.4,1.9-9.2,7.1-14.4,10.4c-3.8,2.4-9.1,3.1-13.6,3.8c-5.2,0.8-10.6,1.1-15.9,1.2
			c-21.8,0.4-42-7.6-62.8-11.8c-9.9-2-20-3-30.2-1.9c-1.8,0.7-3.7,1.2-5,1.8c-2.3,1-4.6,2-7,2.9c1.2,0.1,2.6,0.1,3.9,0
			c1.4-0.1,2.8-0.3,4-0.6c11.5-2.7,23.5-1.2,34.9,1c20.7,4.1,40.5,11.5,62.2,11.3c9.2-0.1,18.9-1.1,27.6-3.7
			c6.7-2.1,9.2-7.9,14.8-10.9c4.3-2.3,10.7-2.9,15.7-3.4c5.6-0.6,11.2-0.4,16.8-0.2c11.3,0.4,22.6,1.4,33.8,0c0.4,0,0.7-0.2,0.9-0.5
			c0.4-0.5,0.4-1.3-0.1-1.7c-4.3-3.5-9.1-4.8-14.8-6.3c-3.5-0.9-13-2.5-15.4-6c-0.3-0.5-0.5-1-0.6-1.6c13.5,0.2,26.8,1.3,40.3,2.1
			c6.8,0.4,13.7,0.7,20.5,0.7c3.3,0,6.6-0.1,9.9-0.3c3.9-0.2,7.1,0.2,11,0.8c24.4,3.8,50.1,0.8,74.5-0.7c14.4-0.9,28.9-1,43.3-1.5
			c15.3-0.6,30.7-1.1,46-1.6c30.8-1,61.4-2.1,92.2-1.6c18.8,0.3,37.5,1.6,56.3,2.2c18,0.6,36-1.7,54-1.9c9.4-0.1,18.8,0.5,28.1,1.9
			c8.2,1.2,16.3,2.8,24.6,3.6c18.8,1.8,38.4,0.8,57.2-0.3c0.9-0.1,1.5-0.4,1.8-0.9c0.6-1,0-2.4-1.8-2.5c-15.4-0.9-30.9-1.4-46.3-0.8
			C309.1,227.8,295,224.7,280.4,223.2z"/>
		<path class="st2" d="M-373.5,172.2c-0.1,0-0.1,0-0.2,0v-0.1c0.1,0,0.2-0.1,0.2-0.1c0,0,0,0,0,0c0.2-0.1,0.3-0.2,0.4-0.3
			c-0.1,0-0.1,0-0.2,0c0,0,0,0,0,0c-0.1,0-0.4,0-0.4,0v-2.3c0.1,0,0.3,0,0.4,0c-0.1,0-0.2,0-0.4-0.1c0,0,0,0,0,0v-0.9
			c0.1-0.1,1.7-0.2,2.6-0.2c0.3,0,0.4,0.2,0.4,0.5c0,0.1,0,0.2,0,0.3c15.3-1.9,31.2,0.2,46.8,1.1c29.5,1.6,58.7,1.3,88.3,0.1
			c30.7-1.2,61.4-4,92.1-3.8c14.9,0.1,29.9,0.7,44.7,2.5c8.5,1,17.1,2,25.8,2.8c15.3,0,30.5,0,45.8-0.2c5-0.4,10.1-0.9,15.2-1.4
			c11.9-1.1,24.3-2.7,36,0.2c0.5,0.1,0.4,0.8-0.1,0.8c-1,0.1-1.9,0.1-2.9,0.2c-1,0.1-2,0.1-3,0.2c-10.9,0.5-21.7,0.9-32.6,1
			c-2,0-4,0.1-6.1,0.1c-1.9,0-3.7,0-5.6,0.1c-1.4,0.2-2.8,0.4-4.2,0.6c-11.9,1.5-24.3,1.7-36.3,1c-7.3-0.4-14.7-1.2-22-2
			c-5.5-0.1-11-0.1-16.6-0.2c-1.9,0-4.1,0-6-0.1v0c1.9,0,3.2,0,4.7,0c4.9,0,9.5-0.1,14.2-0.1c-6.6-0.7-13-1.5-19.6-2
			c-30.6-2.2-61.4-0.6-92,1.4c-30,1.9-60.2,3.1-90.3,2.7c-14.5-0.2-28.8-1.2-43.2-2.2c-7.2-0.5-14.1-0.8-21.4-0.8
			c-0.8,0-1.6,0-2.3,0c-0.4,0.1-0.8,0.2-1.3,0.3c-3.2,0.8-6.2,1.5-9.4,1.5c-0.1,0-0.2,0-0.2,0c-0.3,0-0.6,0-0.8,0
			C-373.3,172.4-373.5,172.3-373.5,172.2z M-18.6,171.2c1.3,0,2.7,0,4-0.1c2.7-0.1,5.4-0.1,8-0.2c1.3,0,2.7-0.1,4-0.1
			c3.9-0.1,7.8-0.2,11.7-0.3c0.6,0,1.1,0,1.7,0c1.8,0,3.6-0.1,5.5-0.2c1.6-0.1,3.1-0.1,4.7-0.2c0,0,0,0,0,0
			c-0.4-0.1-0.9-0.2-1.3-0.3c-1.8-0.3-3.6-0.6-5.5-0.8C3.2,168.4-7.8,169.7-18.6,171.2z M-60.2,172.4c2.6,0.1,5.2,0.2,7.8,0.2
			c2.4,0,4.7,0,7.1-0.1C-50.2,172.4-55.2,172.4-60.2,172.4z"/>
		<path class="st2" d="M347.9,292.5c-0.5,0.1-0.8,0.3-1.2,0.6c-0.4,0-0.8,0-1.2,0.1c-14.8,0.9-29.5,1.8-44.3,2.9
			c-30.7,2.3-61.3,2.3-92.1,1.3c-30.8-1-62.1-1.5-92.7-4.8c-30.1-3.3-59.9-7.9-90.5-7.2c-30,0.6-60,0.6-90-0.1
			c-15-0.3-30.1-0.7-45.1-1c-6.9-0.1-13.9-0.3-20.8-0.4c-6.4-0.1-12.2,1-18.3,2.6c-0.1,0-0.1,0.2,0,0.1c3.1-0.5,6.3-0.6,9.5-0.6
			c4.1,0,8.2,0.3,12.1,0.4c7.7,0.2,15.4,0.4,23.1,0.6c15.6,0.4,31.3,0.8,46.9,1c15.6,0.2,31.2,0.4,46.8,0.4
			c15.6,0,31.2-0.6,46.8-0.6c30.3,0,60.3,5,90.3,7.8c10.7,1,21.4,1.4,32.1,1.7c4.7,0.1,9.4,0.3,14.1,0.4c7.4,0.2,14.9,0.6,22.3,0.9
			c8.2,0.4,16.4,0.7,24.6,1c14.4,0.5,28.7,0.8,43.1,0.6c14.4-0.2,28.6-1.3,42.9-2.4c13.1-1,26.2-1.9,39.3-2.4c0.2,1,1.7,1.9,3.2,1.9
			c8,0,15.9-0.3,24.4-0.6v-3.5v-1.6c-6.7,0.2-13.1,0.6-19.4,0.8C352.2,292.1,349.7,292.1,347.9,292.5z"/>
		<path class="st2" d="M-373.4-123.3c-0.1,0-0.2,0.1-0.3,0.1v-1.5c0.4-0.2,0.8-0.4,1.1-0.7c0.4-0.3,0.8-0.6,1.3-1c0,0-0.3,0-0.3,0
			c0,0-0.1,0-0.1,0c-0.5,0-0.8-0.3-0.8-0.6c-0.4,0-0.8,0-1.1,0v-0.3c0.6-0.1,1.1-0.2,1.7-0.4c1.8-1.5,4.5-2.6,7.2-3.2
			c0.1-0.5,0.6-0.9,1.3-0.9c1.5,0,3.1,0,4.7,0c1.6-0.2,3.1-0.3,4.7-0.4c0.1-0.1,0.1-0.2,0.2-0.4c1.2,0,2.4,0.1,3.7,0.1
			c0.1,0,0.1,0,0.2,0c0.1,0,0.1,0,0.1,0c4.4,0.1,8.9,0.3,13.2,0.6c28.7,1.9,56.3-6.4,84.9-5.2c31.1,1.3,62.1,2.9,93.2,3.4
			c15.7,0.3,31.3,0.4,47,0.5c15.6,0.1,31.1,1,46.7,1.2c1.8,0,2.4,1.5,1.8,2.5c-0.3,0.5-0.9,1-1.8,1c-6.3,0.1-12.4,0.4-18.6,0.7
			c-15.5,0.8-31.3,0.4-46.9,0.3c-15.7-0.1-31.3-0.3-47-0.6c-15.6-0.3-31.3-0.8-46.9-1.5c-14.7-0.7-29.5-2.2-44.3-1.1
			c-14.1,1-28,3.2-42.1,4.3c-15,1.1-29.6-0.1-44.6-0.5c-2.9-0.1-5.8-0.1-8.6-0.1C-367.2-125.8-370.1-124.4-373.4-123.3z
			 M-364.1-128.8c1.7-0.1,3.4-0.2,5.2-0.4c0.5-0.1,0.9-0.1,1.3-0.3c-1.3,0-2.7,0-4,0c-0.4,0.1-0.8,0.2-1.2,0.3
			C-363.3-129.1-363.7-128.9-364.1-128.8z"/>
		<path class="st2" d="M244.9-23.9c-7.5,0.2-15,0.8-22.5,1.2c-3.8,0.2-7.5,0.4-11.3,0.6c-4.2,0.2-8.9-0.6-13.2-0.7
			c-15.5-0.3-31.1,0.9-46.6,1.1c-15.5,0.1-30.9-0.2-46.3-0.8c-31-1.1-61.9-2.8-92.9-2.9c-29.1-0.1-58.1,2-87.1,3.5
			c-28.9,1.5-57.8,2.8-86.7,3.5c-14.6,0.4-29.1,0.5-43.7,0.4c-14.4-0.1-28.9-0.8-43.3-0.8c-25.7-0.1-51.3-2.5-76.6-6.4
			c-0.7-0.1-1.1,0.8-0.3,1c13.1,2.2,26.3,4,39.6,5.4c0.2,0,0.3,0,0.5,0.1c13.9,1.5,28,3.3,42,4c29,1.4,58.1,1.3,87.1,0.6
			C-127.6-15-98.8-16.5-70-18c29.2-1.5,58.3-3.4,87.6-3.2c61.2,0.5,123.5,8.2,184.5,0.7c0.7-0.1,1.4-0.2,2.1-0.3
			c3.5-0.5,7-1.2,10.7-1.4c3.8-0.2,7.5-0.3,11.3-0.5c8.1-0.3,16.3-0.3,24.4-0.3c6.7-0.1,13.5,0,20.4,0.1c9.1,0.1,18.2,0.2,27.1,0.1
			c25-0.4,49.8-1.4,75.6-2v-2.2v-1.6c-27.7,0.8-54.3,2.3-81.2,3.4C276.8-24.6,260.6-24.3,244.9-23.9z"/>
		<path class="st2" d="M-311.2-84.9c9.5,0.4,18.8,0.8,28.2,0.7c4.3,0,8.7-0.1,13-0.4c5.7-0.3,11.3-0.9,17-1.7
			c19.3-3,38-6.7,57.8-5.1c0.2,0,0.4,0,0.6-0.1c0.8-0.4,0.6-1.7-0.6-1.8c-18.3-1.5-35.8,1.6-53.7,4.6c-9.9,1.6-19.8,2.9-29.9,3
			c-10.3,0.1-20.6-0.4-30.8-0.9c-10-0.4-19.9-0.6-29.7-0.5c-0.5,0.2-1.1,0.3-1.7,0.3c-8,0.2-15.8,1.7-23.7,2.3
			c7.9-0.4,15.9-0.6,24-0.7C-331-85.3-321.1-85.2-311.2-84.9z"/>
		<path class="st2" d="M-277.5,88.5c-11.3,0.1-22.6-0.7-33.7-2.7c-12.5-2.3-24.2-6.2-35.1-11.5c-7.2-2.8-13.9-6.5-19.3-11.5
			c-0.1-0.1-0.2-0.2-0.3-0.4c-0.4-0.6-0.4-1.4,0.3-1.9c1.1-0.9,2.3-1.4,3.6-1.7c0.1-0.8,0.6-1.5,1.7-2c0.4-0.2,0.8-0.3,1.3-0.5
			c1.4-0.1,2.8-0.2,4.2-0.3c1.5-0.1,2.7-0.6,3.6-1.4c4.7-0.5,9.5-0.3,14.2-0.6c3.5-0.2,7.1-1.3,10.5-0.7c3.9,0.6,8.1,0,12-0.1
			c21-0.5,42,1.4,63.1,0.4c10.6-0.5,20.8-1.9,31.2-3.8c9.5-1.7,19.2-3.6,29-3.6c19.6-0.1,36.5,8.2,55.2,11.8
			c0.7,0.1,1.2,0.8,1.3,1.4c0,0.4,0,0.8,0,1.2c0,0.1,0,0.2,0,0.2c-0.1,0.5-0.6,0.9-1.2,1.1c-3.4,1-6.8,2.1-10.1,3.2
			c-0.3,0.8-1,1.4-2.3,1.7c-2.5,0.5-5,1-7.5,1.5c-15.4,5.2-30.8,10.3-47,13.7c-19.9,4.1-40.8,7.1-61.3,7.2
			C-268.7,89.1-273.1,88.9-277.5,88.5z M-360.1,61.7c-0.1-0.1-0.2-0.1-0.3-0.2c-0.3,0.1-0.5,0.2-0.7,0.3c0.1,0.1,0.2,0.2,0.4,0.3
			C-360.5,61.9-360.3,61.8-360.1,61.7z M-191,76c-10,2.2-20.1,4.4-30.2,6.3c7.2-1.1,14.3-2.5,21.3-4.1C-196.9,77.6-194,76.8-191,76z
			 M-295.1,82c47.6,4.1,99-11.6,144.8-20.7c1.4-0.3,2.6,0.1,3.4,0.9c1.5-0.5,2.9-0.9,4.4-1.4c0.9-0.3,1.8-0.6,2.7-0.8
			c-17.4-4.5-34.5-12.1-53.1-11.1c-19.2,1-37.4,6.8-56.7,7.7c-20.5,1-41.1-0.3-61.6,0.2c-4.7,0.1-9.2,0.5-13.8,1.2
			c-2.5,0.4-5,1-7.5,1.3c-5,0.5-10.9,0.1-16.3,0.6c-0.1,0-0.1,0-0.2,0c-0.5,0.1-1.1,0.1-1.7,0.2c-2,0.3-3.9,0.8-5.7,1.6
			c0.2,0.1,0.4,0.2,0.5,0.3c0.4,0.2,0.7,0.4,1.1,0.7c8.8,5.6,17.9,9.8,27.4,12.9c4.5,1.1,9,2,13.4,2.9
			C-307.9,79.6-301.5,80.9-295.1,82z"/>
		<path class="st2" d="M290.1,71.8c-17.5,2.7-33.6,9.3-49,16.3c-5.4,2.4-10.9,4.5-16.5,6.4c-1.5,0.2-3,0.8-4.3,1.5
			c-1.9,0.6-3.8,1.2-5.7,1.9c-4.1,1.4-8.2,2.9-12.1,4.6c-1.9,0.9-2.8,1-3.1,2.1c-7.4,3.1-14.6,6.3-21.9,9.6
			c-24.7,11-50.2,21-77.7,26.3c-14.7,2.8-29.4,2.9-44.5,3.3c-14.8,0.4-29.6,0.1-44.4,0.2c-12.8,0-25.4,1.2-38.1,1.9
			c-13.1,0.8-26.3,0.5-39.4-0.7c-6.2-0.6-12.5-1.5-18.4-3.1c-2.8-0.7-5.3-3.5-7.7-5c-3-1.8-6-3.3-9.3-4.6c-10.2-4-21.5-5-32.6-5.3
			c-5.7-0.2-11.5,0-17.2-0.3c-6.7-0.3-13.3-1.8-20-1.7c-9.1,0.1-17,0.8-25.8-1.1c-7.6-1.7-15.5-4.4-23.4-4.8
			c-4.7-0.2-11.1-0.1-12.9,4.3c-0.3,0.6-7.2,1.8-8.3,2.1c-3.8,0.9-7.8,1.2-11.7,1.5c-1.4,0.1-6.2,0.8-6.7-0.2
			c-0.4-0.8-1-1.5-1.6-2.2c-3.3-3.6-9.2-5.6-14.1-7.2c-17.8-6-37.6-8.3-56.5-10.2c-5.6-0.5-11-1-16.5-1.3c-3.6,0.2-7.4,0.5-10.9,1.2
			c3.2,0,6.3,0,9.5,0.1c10.4,0.3,20.7,1.4,30.9,2.7c12.2,1.5,24.4,3.5,36.2,6.6c5.6,1.5,15,3.7,19.7,8c1.1,1,1.9,2.2,2.3,3.4
			c0.1,0.3,0.4,0.5,0.7,0.5c0.1,0,0.3,0,0.4,0c5.8-0.1,11.7-0.5,17.5-1.1c0.5-0.1,1-0.1,1.5-0.2c3.3-0.4,6.5-0.9,9.8-1.5
			c1.2-0.2,1.2-1.5,2.2-2c2.1-1.2,5.7-0.3,7.9,0.1c4.1,0.7,8.1,1.5,12.1,2.4c7,1.7,14.1,4,21.5,4.4c4.7,0.3,9.8-0.1,14.5-0.1
			c6.8,0.1,13.6-0.2,20.4-0.5c12.1-0.5,24.6-0.9,36.6,0.8c6.2,0.9,12.1,2.6,17.6,4.9c3.2,1.4,6,3.2,9,4.7c2.4,1.2,4.8,2.2,7.6,2.7
			c19.2,3.3,38.9,3.7,58.5,4c5.8,0.1,11.5,0.1,17.2,0.2c20.1,0.3,40.3,0.3,60.4-0.1c20-0.4,40.4-3.5,59.5-8.4c0.7-0.2,1.3-0.3,2-0.5
			c29.7-7.9,56.5-21.5,84.3-33.2c0,0,0,0.1,0,0.1c0,0.1,0.1,0.2,0.2,0.3c0.2,0.1,0.4,0.1,0.6,0c4.8-2,9.6-4.2,14.4-6.4
			c1.1-0.5,2.1-1,3.2-1.4c1.1-0.4,2.1-0.8,3.2-1.2c1-0.3,2.1-0.6,3.1-1c7.6-2.4,14.9-5.3,22.1-8.4c5.3-2.2,10.5-4.4,15.9-6.5
			c5.4-2.1,11-4,16.8-5.5c5.8-1.5,11.6-2.4,17.5-2.9c13.7-1.2,27.6-0.5,41.4-0.7c2,0,3.9-0.1,5.9-0.1c10-0.4,19.7-1.1,30.2-2.1v-1.3
			c-8.6,0.7-16.7,1.2-24.9,1.7C329.4,71,309.2,68.9,290.1,71.8z"/>
	</g>
	<path class="st0" d="M-363,137.6c-2.7,0.3-5.4,0.8-8,1.4c1.6,0.1,3.3,0.1,4.9,0.2c0.7,0,1.4,0.1,2.1,0.1
		c16.7,0.7,33.1,1.8,49.8,2.7c16.6,0.9,33.2,1.6,49.9,2c17.3,0.5,34.5,0.7,51.9,0.6c0.2,0,0.2-0.2,0-0.2c-34-0.2-67.8-3.2-101.7-4.8
		c-16.2-0.7-32.1-1.5-48.2-2.1C-362.6,137.6-362.8,137.6-363,137.6z"/>
	<path class="st0" d="M-106.6,68.3c-8.4,4.4-17.2,7.8-26,11.4c-4.1,1.6-8.1,3.4-12.1,5.2c-2.1,0.9-4,2.2-5.8,3.4
		c-2.1,1.4-5.4,1.7-7.9,2.3c-21.9,4.9-44.1,5.9-66.6,5.9c-10.7,0-21.3-0.4-32-0.5c-11-0.1-21.7,0.6-32.7,1.1c-0.1,0-0.1,0.1,0,0.1
		c5.9,0,11.8,0.3,17.6,0.6c5,0.3,10,0.6,15,0.9c10.6,0.6,21.4,0.7,32,0.9c21.3,0.3,43.2-1.2,63.9-5.7c4-0.9,9.2-1.5,12.4-3.7
		c4-2.8,8.6-5.1,13.1-7.2c2.8-1.3,5.6-2.6,8.5-3.8c5.6-2.5,11.3-5.1,16.6-8c7.2-4,14.5-8,22-11.8C-94.6,62.2-100.6,65.2-106.6,68.3z
		"/>
	<path class="st0" d="M-50.7,42.6c-0.6,0.2-1.2,0.5-1.8,0.7C-51.9,43.1-51.3,42.9-50.7,42.6C-50.6,42.7-50.6,42.6-50.7,42.6z"/>
	<path class="st0" d="M-88.6,59.3c11.8-5.7,23.8-11,36.1-15.9C-65,47.8-77,53.3-88.6,59.3z"/>
	<path class="st0" d="M-369.3,46.6c0.1,0,0.3,0,0.4,0.1c4.4-0.7,8.9-1,13.7-0.9c1.3,0,2.3,0.4,3.1,0.9c5.4-0.3,10.8-0.5,16.2-0.7
		c30.1-1,60-1.6,90.1-2.6c15-0.5,30-1.9,45-2.1c15-0.3,30.2,0.8,45.1,2.2c14.3,1.3,28.9,2.7,43.3,1.7c13.6-1,26.7-3.3,39.9-6.1
		c3.1-0.7,6.3-1.3,9.4-1.9c12.6-2.5,25.3-4.5,38.3-4.7c0.5,0,0.5-0.6,0-0.6C-53,31.6-79.7,39.8-107.4,42
		c-14.2,1.1-28.9-0.3-43.1-1.2c-15-0.9-29.9-2.3-44.9-2.5c-15-0.2-30.1,1.1-45.1,1.6c-15,0.4-29.8,0.6-44.8,0.8
		c-22.2,0.2-44.9,0-67,0.9c-0.5,0.3-1.1,0.5-1.8,0.6c-6.6,1.2-12.9,2.6-19.6,2.9v1.7C-372.2,46.6-370.7,46.6-369.3,46.6z"/>
	<path class="st0" d="M124.2,72.1c0.1,0.1,0.1,0.2,0,0.3c-0.2,0.2-0.5,0.4-0.8,0.6c-0.2,0.1-0.3,0.3-0.5,0.4c-5.8,4.3-14,6-21.4,7.3
		c-9.7,1.6-19.3,2.6-29,3.7c-0.1,0-0.3,0-0.4,0c-13,1.4-25.8,2.1-38.9,2.5c-2.2,0.1-4.3,0.1-6.5,0.2c-6.2,0.5-12.5,0.8-18.8,1
		c-6.5,0.6-12.9,1.5-19.4,2.3c-0.6,0.1-1.2,0.1-1.7,0.2c-0.7,0.1-1.3-0.7-0.5-1c0.1,0,0.3-0.1,0.4-0.1c1.3-0.5,2.6-0.9,3.9-1.3
		c-0.9,0-1.7,0-2.6,0c-1.7,0-2.8-1-3.2-2c-0.5-1.3,0.2-2.9,2.3-3.5c11.8-3,23.8-4.6,35.9-6.4c12-1.8,24.2-3.2,36.4-4.3
		C72,70.8,84.5,70.2,97.2,70c6.2-0.1,12.4,0.1,18.7,0.1C119.2,70.1,122,70,124.2,72.1z M45.9,79.7c9.9-1.1,19.9-2.4,29.8-3.8
		c0.1,0,0.1,0,0.2,0c8-1.1,16-1.7,23.9-2.9c-11.2,0.6-22.4,1.2-33.6,2c-13.5,1.1-27,2.5-40.3,4.7c-4.7,0.7-9.3,1.7-13.9,2.7
		c3.5-0.1,7.1-0.3,10.6-0.5C30.4,81.3,38.2,80.6,45.9,79.7z M123,71.9c-0.5-0.3-1.8-0.3-3.3-0.1c-1.5,0.1-3.1,0.4-3.9,0.4
		c-3.4,0.1-6.7,0.3-10.1,0.5c-0.3,0-0.6,0-0.8,0c0.5,0.4,0.6,1.2,0,1.6c0,0,0,0,0,0c-0.2,0.1-0.3,0.2-0.6,0.3
		c-9.6,2-18.9,4.7-28.6,6.4c-4.5,0.8-9.1,1.5-13.6,2.2c4-0.2,8-0.3,12.1-0.4c13.6-0.4,27.5-1.1,39.9-5.2c1.1-0.4,6.8-2.5,8.6-4.2
		c0.2-0.2,0.3-0.3,0.4-0.5C123.4,72.5,123.4,72.2,123,71.9z"/>
	<path class="st0" d="M347.6,92.2c-0.2,0-0.4,0-0.6,0c1.4,0,2.9,0,4.3,0.1C350.1,92.2,348.8,92.2,347.6,92.2z"/>
	<path class="st0" d="M187,124c2-0.1,5.4-3,7.5-3.8c4.1-1.5,8.3-2.8,12.6-3.9c9.8-2.4,19.5-5,29.4-7.2c1.8-0.4,3.5-0.8,5.3-1.2
		c4.8-1.2,9.7-2.3,14.6-3.2c22.7-4.8,45.4-9.1,68.7-11.1c-2.6,0.1-5.2,0.1-7.8,0c-0.1,0-0.1-0.1,0-0.1c10,0.6,19.9-1.2,29.8-1.3
		c-4.6,0.1-9.1,0.6-13.7,0.9c0.4,0.2,0.3,0.9-0.3,1c-3.8,0.3-7.6,0.7-11.4,1.1c-0.3,0-0.7,0.1-1,0.1c-3,0.4-5.9,0.8-8.8,1.4
		c-1.6,0.3-3.2,0.6-4.8,1c-14,3.5-27.9,7.4-42,10.6c-10.8,2.5-22,5.7-33.2,6.9c-7.3,0.8-14.5,1.7-21.7,3c-0.8,0.3-1.6,0.5-2.4,0.8
		c0.6-0.2,1.3-0.5,1.9-0.7c-2,0.4-4,0.7-5.9,1.1c-2.2,0.5-4.5,0.9-6.8,1.5c-1.7,0.4-3.3,1-4.7,1.7c-1.9,0.9-2.3,2.1-4.7,2.1
		c0.6,0,1.2,0.1,1.9,0.1c0.4,0.1,0.9,0.1,1.3,0.2c1.7,0.4,3.5,1,5.2,1.3c0.2,0,0.3,0.1,0.5,0.1c0.1,0,0.1,0,0.2,0c0,0,0.1,0,0.1,0
		c0.5,0.1,0.9,0.2,1.4,0.2c2.5,0.4,4.9,0.6,7.5,0.7c5.7,0.2,11.3,0.3,16.9,0c4.9-0.3,9.8-0.8,14.6-1.3c2.3-0.3,4.5-0.5,6.8-0.9
		c-6.7-0.7-13.4-1.5-20.1-1.9c-7.9,0.4-15.7,0.9-23.6,1.6c-1.9,0.2-3.8,0.4-5.7,0.6c-0.1,0-0.2-0.1-0.1-0.2
		c7.4-2.8,14.4-4.5,22.6-4.6c9.4-0.1,18.9,0.5,28.3,1.2c0.2,0,0.4,0,0.6,0c4.5-0.1,8.9-0.1,13.4-0.2c2.3,0,4.6-0.1,7-0.1
		c11.4-1.8,22.8-3.5,34.3-5.2c8.1-1.2,16.1-2.8,24.2-4.1c2.4-0.4,4.9-0.9,7.5-1.4c8-2.4,15.4-5.6,21.5-10.4c2.7-2.1,5.3-3.9,8.5-5.3
		c0.1,0,0.1-0.1,0.2-0.1c0.3-0.1,0.6-0.3,1-0.4c1.7-0.6-3.9-1.8-3.7-1.8c-1.1-0.3-2.2-0.5-3.4-0.6c-1.3-0.2-2.7-0.3-4-0.4
		c4.2,0.2,8.4,0.9,12.5,2.4c0.1,0,0.1,0.1,0,0.2c-0.7,0.2-1.4,0.5-2.1,0.7c-0.1,0-0.1,0.1-0.2,0.1c-4.5,1.9-7.7,4.9-11.6,7.6
		c-4,2.7-8.7,5.1-13.5,7.1c0.8-0.1,1.6-0.2,2.4-0.2c0.6,0,1.2-0.1,1.7-0.1c0.3,0,0.6,0,1,0c1,0,1.4,0.6,1.4,1.2
		c0,0.3-0.1,0.6-0.3,0.8c-0.2,0.3-0.6,0.4-1.1,0.4c-0.4,0-0.8,0-1.2,0.1c-2.9,0.4-6.5,2.1-9,2.7c-1.9,0.5-3.8,0.9-5.7,1.3
		c-0.9,0.2-1.8,0.4-2.7,0.6c-0.2,0-0.4,0.1-0.6,0.1c-3.6,0.7-7.2,1.2-10.8,1.7c-9.5,2.6-19.1,4.5-29,5.8
		c-11.5,1.6-22.3,2.1-33.8,1.1c-0.5,0-1-0.1-1.5-0.1c-2.1,0.3-4.2,0.6-6.4,0.9c-15.2,2.1-31.3,3.5-46.1,0.4
		c-0.3-0.1-0.6-0.1-0.9-0.2c-1.6-0.4-3.2-0.8-4.8-1.3c-0.4-0.1-0.9-0.3-1.3-0.4c-0.5-0.2-1-0.3-1.6-0.5
		C186.3,124.5,186.5,124,187,124z M320.8,116.4c1.4-0.3,2.7-0.6,4-1c1.3-0.3,2.6-0.7,3.8-1.1c-1.2,0.2-2.3,0.4-3.5,0.6
		C323.7,115.4,322.3,115.9,320.8,116.4z M296.4,120.6c-0.5,0-1.1,0.1-1.6,0.1c-1.8,0.1-3.5,0.3-5.3,0.4c-1.7,0.1-3.5,0.2-5.2,0.4
		c1.5-0.1,3.1-0.2,4.6-0.3c1.9-0.1,3.7-0.3,5.6-0.4C295.2,120.7,295.8,120.7,296.4,120.6z M274.1,121.8c1.1,0,2.3,0,3.4-0.1
		c0.3,0,0.5,0,0.8,0c5.7-0.7,11.3-1.6,17-2.6c1.1-0.2,2.2-0.4,3.2-0.6c1.1-0.2,2.2-0.4,3.4-0.6c-2.3,0.3-4.6,0.6-6.9,1
		C288,119.7,281.1,120.8,274.1,121.8z M267.3,122.8c1.4-0.1,2.7-0.2,4.1-0.3c1.3-0.1,2.7-0.3,4-0.5c0.5-0.1,0.9-0.1,1.4-0.2
		c-0.1,0-0.3,0-0.4,0c-1.3,0.1-2.6,0.1-3.9,0.2C270.7,122.3,269,122.6,267.3,122.8z M251.2,122.6c2.7,0.2,5.5,0.3,8.2,0.4
		c1.3-0.2,2.7-0.4,4-0.6C259.4,122.4,255.3,122.5,251.2,122.6z M211.2,123.4c-1.9,0.1-3.9,0.1-5.8,0.3c-0.9,0.1-1.8,0.1-2.6,0.2
		c-1.7,0.2-3.4,0.4-5,0.8c-0.6,0.1-4.4,0.9-0.4,0.3c2-0.3,4-0.6,6.1-0.8C206.1,123.8,208.7,123.6,211.2,123.4z M247,106.8
		c2.7-0.6,5.4-1.2,8-1.7C252.3,105.6,249.7,106.2,247,106.8z"/>
	<path class="st0" d="M205.6,119.7c0.6-0.2,1.3-0.4,1.9-0.7C206.8,119.2,206.2,119.4,205.6,119.7
		C205.5,119.6,205.5,119.7,205.6,119.7z"/>
	<path class="st0" d="M157.6,28.6c8.6,0.2,17.2,0.7,25.8,1.4c7.1,0.6,14.2,1.4,21.3,2.3c7,0.9,14.1,1.9,21.1,2.6
		c14.3,1.6,28.4,2.8,42.9,2.9c5,0,9.9-0.2,14.8-0.5c9.3-0.6,18.7-1.7,27.9-2.9c0.1,0,0-0.1,0-0.1c-14.8,2-29.6,1.5-44.4,0.9
		c-2.2-0.1-4.3-0.2-6.5-0.3c-4.9-0.3-9.9-0.6-14.8-1c-7.2-0.5-14.4-1.1-21.5-1.7c-13.6-1.1-27.2-2.1-40.7-3
		C174.9,28.7,166.3,28.6,157.6,28.6z"/>
	<path class="st0" d="M141.1,28.5c1,0,2,0,3,0C143.1,28.5,142.1,28.4,141.1,28.5C141.1,28.4,141.1,28.5,141.1,28.5z"/>
	<path class="st0" d="M144.1,28.5c4.5,0.1,9,0.1,13.5,0.1C153.1,28.5,148.6,28.4,144.1,28.5z"/>
	<path class="st0" d="M314.2,30.8c-30.3,2.7-61.1,2.9-91.4-0.2c-0.2,0-0.3,0.3-0.1,0.4c30.4,3.6,60.9,2.6,91.5,0.4
		c15.3-1.1,31-2.7,46.2-4.3c4.3-0.4,8.5-0.8,13.2-1.2v-1c-4.8,0.5-9,0.9-13.2,1.4C345.2,27.9,329.4,29.5,314.2,30.8z"/>
	<path class="st0" d="M246.9,143.2c13.4-0.4,26.7-1.6,40-3.2c20.3-2.5,40.3-6,60.4-9.5c0.3-0.1,0.2-0.5-0.1-0.4
		C314.4,136,280.6,140,247,141c-33.5,1.1-65.9-3.8-100.2-3.7c0,0,0,0.1,0,0.1c21,0.2,40.8,2.6,60.9,4.3
		C220.7,142.9,233.6,143.6,246.9,143.2z"/>
	<path class="st0" d="M353.5,133.4c2.3-0.2,4.5-0.3,6.7-0.4c4.2-0.2,8.4-0.3,13.4-0.3v-0.4v-1.6c-7.6,0.2-13.3,0.7-19.9,1.3
		C352.6,132,352.4,133.5,353.5,133.4z"/>
	<path class="st0" d="M-369.6,26.6c0.2-0.1,0.3-0.1,0.5-0.2c4.5,0.2,8.9,0,13.4,0.1c0.5,0,1,0,1.5,0c5.1,0.2,9.9,1.8,14.9,2.7
		c1.3,0.2,2.6,0.4,4,0.5c0.3,0,0.5-0.4,0.2-0.6c-5-1.8-10.1-3.7-15.6-4.3c-1.5-0.2-3.1-0.2-4.6-0.2c-0.2,0.5-0.7,0.9-1.5,0.9
		c-2.4,0.1-4.7-0.1-7-0.6c-2.3,0.1-4.7,0.2-7,0.1c-0.7-0.1-1.1-0.2-1.7-0.2c-0.4,0-0.8,0-0.9,0v2.6c0.1,0,0.5,0,0.9,0
		C-371.5,27.4-370.6,27-369.6,26.6z"/>
	<path class="st0" d="M-350.1,131.4c1.6-0.2,3.2-0.5,4.8-0.8c0.4-0.1,0.4-0.6,0-0.6c-9.4-0.6-19.7-0.6-28.3,0.1v2.5
		C-365.7,133.2-357.9,132.6-350.1,131.4z"/>
	<path class="st0" d="M18.3-246c1.1,1.6,2.6,3.9,2.9,5.7c0,0.3-0.1,0.5-0.2,0.7c-0.2,0.3-0.6,0.5-1,0.7c-2.7,0.9-5.4,2-8,3.1
		c-0.5,0.2-1,0.4-1.5,0.6c-2.1,0.9-4.2,1.7-6.3,2.5c-1.8,0.9-3.8,1.6-5.9,2c-0.4,0.1-0.8,0.2-1.2,0.3c-0.2,0.1-0.3,0.2-0.5,0.3
		c0.8-0.2,1.7-0.4,2.5-0.6c0.9-0.2,1.6,0.3,1.7,0.9c0.1,0.3,0,0.7-0.3,1c-0.2,0.1-0.4,0.3-0.6,0.3c-4.8,1.3-9.6,2.5-14.5,3.5
		c-2.8,1.1-5.5,2-8,2.7c-1.2,0.3-2.3,0-3-0.7c-37.1,6.1-75.7,4.5-113.4,4.8c-45.9,0.4-95.4,0.3-136.6-18.5c-0.8-0.4-1.3-1-1.6-1.7
		c-0.2-0.7-0.1-1.6,0.3-2.3c3.7-5.7,12.9-8.5,19.9-10.6c10.7-3.1,21.8-5.2,32.9-6.9c18-2.8,36.1-4.1,54.2-5.9
		c15.1-1.6,30.2-3.2,45.4-3.9c13.9-0.6,27.6,0,41.5,0.7c13.3,0.7,26.6,1.5,39.8,2.9c9.3,1,19,2.1,28.1,4.4c3,0.4,6,1.1,8.9,2.1
		c1.6,0.6,3.1,1.1,4.4,1.7c4.4,1.4,8.8,2.9,12.8,4.9C13.4-249.9,16.7-248.3,18.3-246z M-267.8-240.6c-0.3,0.2-0.6,0.4-0.9,0.6
		c0.2,0.1,0.4,0.2,0.6,0.3C-268-240-268-240.3-267.8-240.6z M-260.8-236.9c-0.2-0.5-0.4-0.9-0.6-1.4c-0.3,0.3-0.6,0.6-0.9,0.8
		C-261.8-237.3-261.3-237.1-260.8-236.9z M-254.9-238.6c-0.3-1.1-0.9-2.1-1.6-3.2c-0.2,0.1-0.5,0.1-0.7,0.2
		C-256.4-240.6-255.7-239.6-254.9-238.6z M-247.2-232.7c-2-1-3.9-2.3-5.4-3.7c-0.1,0.1-0.1,0.3-0.2,0.4c0.7,0.8,1.5,1.5,2.4,2.2
		c0.1,0.1,0.2,0.2,0.2,0.2C-249.2-233.2-248.2-232.9-247.2-232.7z M-8.8-246.7c-2-1.5-4.1-2.9-6.5-3.8c-2.9-1.1-5.2-1.4-7.5-3.2
		c0,0,0,0-0.1,0c0,0,0,0-0.1-0.1c-0.4-0.4-0.5-1,0-1.4c0.1,0,0.1-0.1,0.2-0.1c-0.7-0.2-1.3-0.5-2-0.8c-8.8-1.6-17.9-2.5-26.7-3.3
		c-13.1-1.2-26.2-1.9-39.3-2.5c-14.4-0.7-28.7-0.8-43.1,0.2c-15.1,1.1-30.1,2.8-45.1,4.3c-17.2,1.7-34.3,3.1-51.2,6.1
		c-4.4,0.8-8.9,1.6-13.3,2.6c-0.3,0.7-1,1.3-1.9,1.4c-3.3,1.4-4.3,2.9-3.8,4.5c1.7,5,18.3,10.3,21.9,11.3c8,2.3,16.1,4.3,24.2,6.1
		c21.8,1.8,44.1,1.6,65.5,1.4c20.3-0.2,40.5,0,60.8-0.4c0.3-1.2,1.3-2.2,3.2-2.2c12-0.1,24.2-2.1,35.5-5.1c9.5-2.5,22.8-6.3,28.5-14
		C-9.3-246-9-246.4-8.8-246.7z M5.5-247.3c-0.6-0.2-1.3-0.5-1.9-0.7c-0.4-0.1-0.7-0.3-1.1-0.4c0.3,0.6,0.6,1.2,0.8,1.9
		c0.1,0.3,0.2,0.7,0.3,1c0-0.1,0.1-0.1,0.1-0.2c0.1-0.2,0.2-0.4,0.3-0.5C4.5-246.6,4.9-247,5.5-247.3z M12-237.4
		c-0.2-0.1-0.3-0.3-0.4-0.5c0,0-0.1,0-0.1,0c-0.5,0.4-1,0.9-1.5,1.3C10.7-236.8,11.3-237,12-237.4z M13.9-243.4
		c-0.3-0.3-0.7-0.6-1.2-0.8c-0.5-0.3-1-0.5-1.5-0.7c0.1,0.1,0.3,0.3,0.5,0.4c0.3,0.3,0.5,0.8,0.2,1.1c0,0-0.1,0.1-0.1,0.1
		c0.2,0,0.4,0,0.6,0C12.8-243.3,13.3-243.3,13.9-243.4z M17.2-240.4c-0.2-0.1-0.3-0.2-0.5-0.3c0,0-0.1,0-0.1,0.1
		c-0.4,0.5-1,0.7-1.6,0.6c-0.3,0.1-0.7,0.2-1,0.2c0.1,0.1,0.1,0.2,0.2,0.3c0.2,0.4,0,0.8-0.2,1.2C15.1-239,16.2-239.7,17.2-240.4z"
		/>
</symbol>
<title>pirate-texture-wood-dark</title>
<use xlink:href="#wood"  width="747.3" height="619.9" x="-373.6" y="-310" transform="matrix(1 0 0 -1 373.635 309.9604)" style="overflow:visible;"/>
</svg>
