<?xml version="1.0" encoding="utf-8"?>
<!-- Generator: Adobe Illustrator 23.0.3, SVG Export Plug-In . SVG Version: 6.00 Build 0)  -->
<svg version="1.1" id="Ebene_1" xmlns="http://www.w3.org/2000/svg" xmlns:xlink="http://www.w3.org/1999/xlink" x="0px" y="0px"
	 viewBox="0 0 750 502.1" style="enable-background:new 0 0 750 502.1;" xml:space="preserve">
<style type="text/css">
	.st0{fill:#FFE5B0;}
	.st1{fill:#EECE94;}
</style>
<title>texture-paper-s</title>
<polygon class="st0" points="750,503 0,503 0,11.5 379.9,7.8 385.3,11.5 387.3,4.3 672.7,16.4 750,11.5 "/>
<polygon class="st0" points="618.1,26.9 617.9,26.6 618.3,26.7 "/>
<g>
	<path class="st1" d="M758.6,163.4c0.6-4.9,0.4-9.8,0.8-14.6c0.9-10.4,0.4-20.8,0.5-31.2c0-0.9,0.3-2-0.7-2.7
		c-1.7-1.1-1.7-2.7-1.5-4.1c0.2-2.4-0.2-4.9-1.1-7.2c-1.4-4.3-2.4-8.7-1.8-13.3c1.1-1.5,3.4-2.7,2.9-4.8c-0.2-1.3-2.3-1.3-2.8-2.2
		c-0.4-3.4-2.6-6.7-0.4-10c0.1-0.6,0.2-1.1,0.4-1.6c3.4-6.7,2.4-13.6,2.1-20.5c0-0.4-0.1-0.8-0.4-1.2c-3.4-5.2-2.5-11-4-16.4
		c0,0,0,0,0,0c-0.6-3,1.3-5.9,1.1-8.9c-4.2,0.3-4.2,0.3,0,0c1.8-7.2,3.9-14.5,1.2-21.8c-1.1-0.5-2.4,0-3-0.9l-19.5-0.1c0,0,0,0,0,0
		l-17.3-0.1c0,0,0,0,0,0l-22.7-0.2L673.8,11c0.6,1.6,2.9,0.6,4.1,1.5c2,2.1,1.9,2.1-0.1,0c-1.2-0.8-3.5,0.2-4.1-1.5H672c0,0,0,0,0,0
		c-1.1-1.1-2.8-1.7-4.3-2.4c0,0,0,0-0.1,0c-2.4-1.7-5.3-2.8-8.3-4c-3.9,0-7.9,0.1-11.8-0.1c-7.8-0.3-15.6,0.8-23.4,0.9
		c-4.5,0-9,0.7-13.6,0.3c-0.1-0.7,0.1-1.2,0.5-1.4c-0.3,0.3-0.5,0.7-0.4,1.4c4.6,0.4,9.1-0.3,13.6-0.3c7.8-0.1,15.6-1.2,23.4-0.9
		c3.9,0.2,7.9,0.1,11.8,0.1c-0.9-1.3-3.3-1.6-3.8-3.2l-37.9-0.2c0,0.5-0.1,0.8-0.3,1.1c0.2-0.2,0.2-0.6,0.2-1h-3.2
		c-0.6,1-1.8,0.8-2.8,0.8c-3.6,0-7.2-0.1-10.8-0.1c-1.6-0.2-3.1,0.1-4.5,0.9c-2.2,1.2-4.8,1.3-7.2,0.4c-5.4-2.2-10.7-1.5-16.1-0.7
		c-4.9,0.8-9.7,1.7-14.5,2.7c-1.7,0.4-3.5,0.4-5.2,0c-5.4-1-10.6-2.4-16.1-3.2c-4.1-0.5-8.2-0.7-12.3-0.4c-3.4,0.3-6.8,0.4-10.2,0.4
		c-37.3-0.2-74.7-0.4-112-0.6c-2.3,0-12.3,0-14.6,0v3.1c5.1,1.1,13.9,5.3,18.2,7.4c6.1-0.2,12.3,0.3,18.6-0.5
		c5.1-0.7,10.4-0.2,15.7,0c8.3,0.3,16.4-1.2,24.7-0.7c6.1,0.3,12,0.8,18,1.7c3.3,0.5,6.8,0.5,10.1,0.7c4.8,0.3,9.5,1,14.4,1.2
		c5.1,0.2,10.2,0.6,15.3,1.5c3.5,0.6,7.1,0.5,10.6,0.9c7.5,0.9,14.5,2.8,21.7,4.3c10.8,2.1,21.5,4.6,32.3,6.9
		c0.8,0.2,1.7,0.4,2.5,0.7c3.1,1.2,6.6,1.3,9.8,0.3c3-0.9,6.1-1.4,9.2,0.3c1.5,0.9,3.6,1.2,5.4,1.7c1.3,0.5,2.8,0.5,4.1-0.1
		c1.8-0.8,0.6-2.3,1.6-3.3c0.3,0,0.8-0.2,1-0.1c2.5,1.7,5.8,2.1,8.8,2.8c2.7,0.6,4.3,1.7,5.4,3.5c0.6,1.1,1.7,2.1,2.1,3.3
		c2,5.9,9.3,7.6,14.6,10.8c5.6-1.3,10.8-2.8,16.5-3.3c1.8,2.4,3.8,4.6,5.3,7c1.3,1.9,3.2,3.2,5.3,3.7c8.1,2.6,16.1,5.2,24.3,7.9
		l2.8,5.2c-3.8,2.2-7.5-0.9-10.8,0.2c-2.7,3.6-1.4,8.7,3.5,11.6c-1.2,1-3.3,0.8-4.6,1.7c-0.1,2,2.6,1.6,3.9,2.6v5.5
		c1.8,3.2,5,3.3,8,2.6c2.5-0.5,5-0.6,7.5-0.5c1.9,3.6,4,7.1,5.7,10.7c1.1,2.2,0.3,4.4-0.6,6.7c-3.1,7.8-6,15.6-9.9,23.6
		c0.5,1.1,0.9,2.7,3.2,3.6c2.8-1.1,2.8-3.4,3.8-4.9c3.3-1.4,6.9-1.9,10.4-1.4c2.4,1.7,2.1,3.7,1.8,5.6c-1.6,2.8-7.2,3.6-6.3,7.4
		c2.4,1.7,6.3,1.7,7.7,4.4c-1.8,2.2-4.3,3.8-5.6,6c1.1,3.1,4.9,5.5,4,9c-1.5,1.7-4.2,1.2-6.5,2.1c2.3,2.8,6.4,2,9.6,3.2
		c-1.2,2.3-3.7,3.8-6.3,5.1c-1.2,0.6-2.3,1.3-3.3,2.1c-2.2,1.8-3,3.8-1.2,6.2c2.9,4,5.4,8.2,8.2,12.3c1.5,2.2,2.1,4.2,0.3,6.5
		s-2.4,5-3.9,7.4c-1.8,2.9,0.2,5.8,0.9,8.7c0.5,2,0.5,4.1,0.1,6.1c4,2.5,8,5,12,7.5l-0.9,0.7c1.3,3-1.9,5.7-0.6,8.8
		c3.5,3.5,8.8,6.1,12,10c-2,1.7-4.7,2.3-7.3,1.7c-1.6-1.3,0.6-4.1-3.1-4.6c-1.8-0.1-2.7,1-3.9,2.1c0.1,2.6-0.8,5.4,1.2,8.1
		c3.3,4.7,6.4,9.5,9.5,14.3c-2.2,2.1-3.5,5.8-6.7,6.6c-2.4,0.6-4.5,1.9-5.9,3.9c-1.2,1.5,0.9,2.7,1.5,4c1.4,2.8,3.7,5.6,2.9,9.5
		l-6.9,3.7c0,2.2-0.4,3.5,0.4,5c2.2,1.3,5.1,2.1,8.2,3.1c-2.7,2.7-2.3,5.9-2.3,8.9c0,7.3-5.7,19.4-5.8,26.7c0,3.5,6.2,44.2,6.2,47.2
		c-3.3,3.3-7.4,5.5-8.8,9.1c-2.6,6.5-4.8,13.1-7.7,19.5c-1.6,3.6-1.2,6.6,2.2,9.2c-0.1,1.7,0.4,3.4-0.6,5.3c-3.1,1.1-6.1,2.4-8.9,4
		c-0.5,4.8-1.1,9.6-6.6,13.6l-28,3.4l-4.4,5.1c-1.8,0.3-3.3,0.3-4.9,0.5c-7.4,1.3-14.9,2.5-22.4,3.5c-13.6,1.8-27.1,4.1-40.7,6
		c-8.5,1.2-17,2.6-25.6,3.5c-5.5,0.5-11,0.9-16.3,1.7c-6.8,0.9-13.7,1.2-20.6,2c-6.1,0.7-12.4,1-18.5,1.8c-7.6,1-15.2,1.5-22.8,1.9
		c-7.3,0.3-14.6,1.4-22,0.8c-0.5-0.1-1.1,0-1.6,0.1c-6,1.4-12.4,0.9-18.6,1.2c-6.7,0.4-13.5,1.5-20.4,0.9c-0.5,0-1.1,0-1.6,0.1
		c-5.4,1-11,0.9-16.4,1.2c-5.7,0.3-11.4,0.8-17.1,1c-4.2,0.2-8.7-0.1-12.8,0.7c-5.1,1-10.4,1-15.4,1.1c-8.6,0.3-17.1,1.5-25.8,0.9
		c-0.5-0.1-1.1-0.1-1.6,0c-8.2,1.6-16.7,0.6-25.1,1.2c-7.6,0.5-15.3,1.5-23,0.9c-0.4,0-0.7,0-1.1,0.1c-4.8,1.5-9.9,0.9-14.8,1.2
		c-6,0.4-12.1,1-18.2,1.1c-4.4,0.1-8.9,0.2-13.3,0.7c-7.4,0.7-14.9,1.8-22.3,1.3c-8.9-0.7-17.8-1-26.7-1.5
		c-12.1-0.8-24.2-1.4-36.4-1.9c-8.9-0.4-17.7-1.6-26.6-2.1c-3.5-0.2-7.2-0.1-10.6-0.9c-4.7-1-9.5-0.9-14.3-1.4s-9.5-1-14.4-1.3
		c-2.8,0-5.6-0.4-8.3-1.1c-7-2.4-14-4.8-21-7.2c-8-2.6-15.9-5.3-24.1-8c0.1-1.1-0.4-2.5,0.4-4c4.3-2.9,11.3-1.8,15.6-4.6
		c0.8-3.1-0.4-5.5-1.4-8.1c-12.2-1-24.1-3.4-27.2-5.5c1.7-1.4,4.6-1.4,6.2-3c-3.9-7.5-7.2-15.3-15-21.5c2.8-1.5,5.2-3.8,6.8-6.5
		c4.1-1.5,7.6,1,11.3,0.1c0.2-1.8-2.6-0.9-3-2.2l0.1-8.2c-3.7-4.6-10.6-5.4-15.7-8.2c-0.6-1.8-0.7-3.8-1.9-5.3
		c-2.6-3.4-1.8-6.5,0.4-9.6c1.9-2.8,1.8-5.9,1-8.7c-1.7-5.8-2-11.8-3.8-17.7c-0.5-1.7-0.8-3.8,0.9-5.5c3-2.9,4.4-6.4,7.3-9.4
		c1.9-1.9,3.4-4.2,2.6-6.8c-0.6-1.8-1.3-3.6-2.2-5.3c-3.1-6.3-6.3-12.5-9.5-18.8c-0.1-0.1-0.1-0.3-0.2-0.4c0.3-1.4,0.6-2.8,1-4.2
		c1.1-3.3,0.7-6.9-1.2-9.9c-2.2-3.5-3.4-7.3-5.2-10.9c-0.7-1.2-0.9-2.6-0.5-4c2.5-2.6,6.7-3.8,9.7-6.1c-0.6-2.2-3.4-3.6-3.4-5.9
		c0.2-6.5,0.2-13,0.2-19.3c3.5-2.3,8.5-2.4,10.7-5.2c0.5-1.8,0.2-3.8-0.8-5.4c-1-1.7-1.4-3.6-1.1-5.5c-2.2-0.4-3.1,1.9-5.8,1.4
		c-0.5-0.8-1.8-1.6-1.7-3.2c1.1-1.7,3.3-3.6,1.2-5.8c2.4-1.7,6.3-1.4,7.3-3.8c-2.9-2.5-8-0.4-10.5-3.1c0,0,0,0,0-0.1
		c0.6-1.5,2.4-2.3,3.9-1.6c3.7,1.2,8.1,1.2,11,3.7c0,1.2-2.1,2.2-0.2,3.4c6.4-0.6,9-4.8,13.6-7.7c-1.7-3.7,1.9-6.8,1.9-10.3
		c-3.3-0.7-4.5,2-7.4,1.7v-5.8c4.7-1.2,10.8-0.6,13-6.1l0.1-13.1c2.7-1.3,5.6-1.2,8.2-1.7c0.3-2.4-4.4-1.9-3.6-4.2
		c2.2-0.9,4.7,0.3,7-0.8c0.5-3-2.1-5.5-2.4-8.2c-2.7-0.6-4.2,1.2-6.5,1.2c-1.6-1.3-1.4-3.2-3.6-4.6c4.6-0.2,8.3-1.2,12.2-1
		c1.9-3.3-4.1-2.9-3.6-6c0.6-2.1,6.3-2.4,5.6-6.1c4.5,0.9,6.8,3.6,10.5,4.9l4.2-1.1c-0.2-3-1.2-4.3-4.6-5.3
		c-3.6-1.1-7.2-2.4-10.6-4.1c3.7-1.1,6.7,2,9.9,0.3c-0.4-4.7-3.3-8.3-7.5-11.6c2.6-3,4.9-6,7.7-8.7c3.6-3.5,3.9-7.3,3-11.5l-7.8-0.3
		c-0.8-2.2-4.2-3-4.7-4.9c0.1-2.4,3.1-1.9,4-2.7c1.6-3.3-4.2-5-2.6-8c1.4-1,3.4,0,4.6-0.9c1.8-3.8-0.8-7.6-0.3-11.7l8.8,0.1
		c1.4-2,3.7-3.3,4-5.4c0.4-2.9-3.6-4.2-4.4-6.7c1.7-2.5,6.4-2.5,7.7-4.9c0-2.4-3-2.7-4.6-4.6c4.6,0.2,9,1.3,12.2-1.5
		c0.4-4.5-6-3.5-8.5-6.1c1-1.6-1.7-3.4-0.5-5.6c2.5,0.9,2.8,3.3,5.1,4.1c2.4-1.9,5.3-3.1,8.4-3.4c2.2,0,4-1.5,4.3-3.6
		c0.6-4,3.5-7.5,3.6-11.7c-0.1-1.4,0.7-2.6,2-3.1c3,0,3.8,2.4,6,3.1c2.1,0.4,4.3,0.1,6.2-0.7c1.4-0.6,2.9-1.1,4.4-1.4
		c10.9-2.2,21.9-4.4,32.9-6.6c8.2-1.6,16.3-3.7,24.8-4.3c10.1-0.7,20.2-1.7,30.3-2.2c9.9-0.6,19.8-1.5,29.7-2.2
		c7.8-0.6,15.3-2.1,23.1-2.9c8.6-0.9,17-2.5,25.6-3.5c4.8-0.5,9.9-0.9,14.4-2.7c1-0.4,2-0.6,2.8,0.3c-0.4,2.4-4.4,3.5-3.9,6.2
		c1.1,0.7,2.5,0.8,3.8,0.5c5-1.4,10.2-0.5,15.4-1.3c5.9-0.8,12.2-0.5,18.2-0.6c9.3-0.2,18.6-1.2,27.9-0.8c3.7,0.1,7.1-0.3,9.7-1.9
		c2.2-3.4,3.6-6.6,2.9-10.2c-13,0.1-25.9-0.8-38.8,0.3C342.2,2.2,335.1,3,328,3.7c-6.8,0.7-13.5,1.2-20,1.8l-7.2-4l-41.9-0.3
		c-1.9,2.8-3.1,5.6-5.6,8c-3.9-0.3-7.8-0.9-11.6-1.8c-4.8-1-7.4-4.1-10.2-6.4c-11.9-0.1-23.2-0.1-34.6-0.3
		c-5.8-0.1-11.4,0.1-16.7,2.2c-2.5,0.8-5.1,1.4-7.7,1.7c-9.4,1.6-18.8,3-28.4,4c-11,1.2-22,2.4-33.1,1.9v0c-0.5-0.2-0.9-0.6-1.4-0.5
		c-5.5,0.3-11-1.4-15.4-4.8c-1.5-1.1-3.4-2-5.1-3c-2.6-1.5-5.5-2.2-8.5-2.1c-6.5,0.1-12.9,0-19.4,0c-1.2,0-2.5-0.4-3.5,0.5
		c0,0,0,0,0,0L33.5,0.4l-4,6.4L12.6,2.3C6.9-0.3,0.7,0.1-5.7,0.6C-7,8.1-4.8,15.2-4.4,22.4c3-2.4,3-2.4,0,0
		c-1.1,2.5-1.6,5.1-1.5,7.8c0.2,3.2-0.6,6.4,0.4,9.8c1.2,4.3-0.3,8.9-0.2,13.5c0.1,2-0.6,4.2-0.8,6.4c-0.3,5.2,1.6,10.4,1,15.7
		c-0.6,6-1.2,12-0.1,18c0,0,0,0,0,0c0,0,0,0,0,0c-1.6,2.7-2,5.4,0.2,8.1c0.6,0.8,0.8,1.8,0.6,2.7c-0.6,8.1,0.7,16.2-0.5,24.2
		c-0.2,1.7,0.3,3.3,1.4,4.6c1,1.4,2,2.9,2.8,4.4c0.7,1,1,2.2,0,3c-2.1,1.4-1.6,3.2-1.7,4.9c-0.4,5.2,1.7,10.4,1,15.7
		c0,0.3,0,0.5,0.1,0.8c1.4,5.1,2.7,10.2,0.4,15.3c-0.2,0.4-0.5,0.8-0.3,1.1C1,183.2-3.6,188.2-1,193c0.2,0.4,0.1,0.8-0.1,1.2
		c-2.8,5-2.1,10.3-2.1,15.5c0.1,1.4-0.2,2.7-0.8,3.9c-1.9,2.9-2.1,6.7-0.5,9.8c-0.2,1-2,1.2-1.9,2.3c0.1,3.8-1.1,7.5-1.2,11.2
		c-0.3,9.5,0,18.9-0.2,28.4c0,1.8,1.3,3.4,0.8,5.2c-1.2,4.8-1.5,9.7-1,14.6c0.1,1.5,0.2,3.1,0.2,4.6c0,0,0-0.1,0-0.1
		c-0.4-0.9-0.9-1.7-1.5-2.4c0.5,2.3,0.8,8.1,0.9,15.6c-0.3,3.5-0.6,7.1-0.8,10.6v0.4c-0.8,8.4-5.4,16.8-1.2,25.3
		c0.1,0.3,0.1,0.5,0,0.8c-1.4,1.9-0.7,3.8-0.1,5.7c0,0.8,0,1.6,0.4,2.4c-0.2,0.7-0.2,1.4,0.1,2.1c0.4,1,0.7,2,0.8,3
		c0-1.1,0.1-2.3,0.1-3.5c0.2,0.2,0.3,0.3,0.5,0.5c0.5,0.4,0.3,1.3,0.1,2c-0.3,1.1-0.6,2.2-0.9,3.3c0,0,0,0.1,0,0.1c0,0,0,0,0-0.1
		c-0.1,0.5-0.3,1-0.4,1.6c0,0.1-0.1,0.2-0.1,0.3c-0.2,0.6-0.4,1.2-0.5,1.8c-0.8,2.9-1.6,5.8-2.5,8.6c-1.8,5.5-1.8,11-1.6,16.5
		c0.3,5.7,1.6,11.4,1.6,17.2c-0.2,2.5,0.2,5,1,7.3c1,2.8,2.7,5.4,4.9,7.5c1.4,1,1.8,2.8,1.2,4.4c-4,1.3-6,3.5-4.9,6.2
		c0.9,2.2,0.8,4.5,2,6.6c1.5,2.2,1.7,5.1,0.6,7.5c-1.9,4.7,0.3,9.1,0.1,13.7c-0.1,2.2,1.5,4.2,1.3,6.3c5.5-1.3,11.2-1.2,16.5,0.5
		c1.1,2.2,1,4.3,0.5,6.4c0.4-2.1,0.5-4.2-0.6-6.3c-5.3-1.7-11-1.9-16.5-0.7c-1.9,4.1-3.3,8.4-2,12.6c0.9,2.2,0.3,4.7-1.5,6.2
		c1.1,1.4,1.8,2.9,0.9,4c-2.4,3-0.9,5.9-0.5,8.9c4.5-1,8.6-0.8,12.3,1.5c0.2,0.1,0.7,0.1,1,0.1c5.7,1.5,11.4,3,17.1,4.4
		c5.5,1.4,10.8,3.3,16.7,3.9c-0.2-0.5-0.1-1.2-0.5-1.5c-3.7-2.9-7.2-6.1-11.4-8.6c-6.2-3.7-11.9-8.2-16.9-13.3
		c-0.4-2-0.2-3.8,0.3-5.7c-0.4,1.8-0.7,3.6-0.2,5.5c5,5.2,10.7,9.6,16.9,13.3c4.2,2.5,7.7,5.7,11.4,8.6c0.4,0.3,0.4,1,0.6,1.5
		l3.1,0.2c0.2,0,0.4,0,0.5,0c14.3,0.3,28.6-0.1,42.9-0.3c-14.4,0.3-28.7,0.7-43.1,0.4c-0.2,0-0.4,0-0.5,0c0,0.1,0,0.1,0,0.2l-3-0.2
		c-5.8-0.6-11.1-2.5-16.7-3.9c-5.7-1.4-11.4-2.9-17.1-4.4c-0.3-0.1-0.8,0-1-0.1c-3.7-2.3-7.9-2.5-12.3-1.5c-0.5,0.9-0.5,1.9-0.1,2.8
		c2.5,4.4,1.8,8.9,0.8,13.3c0,0,0,0,0,0c-0.2,7.7,0.5,15.4-1.7,23c-0.3,0.8-0.4,1.8-0.1,2.7c0.6,1.3,0.5,2.9-0.3,4.1
		c-2.9,0.7-6.3,0.2-9.7,1.7c-0.9,3.2-3.1,6.3-2.8,10.1c0.2,2.8-0.6,5.6-2.2,8v0.8c2.1,1.7,0.3,3.8,1.1,5.7
		c5.7,0.1,11.3-0.5,16.9-1.8l17.8-17.2c10.8-1.3,20.9-1.6,31-2.4c5.5-0.4,11-1.3,16.5-0.9c1.6,0,3.2,0.2,4.8,0.5
		c2.6,0.6,5.4,0.7,8,0.2l31.3-4.4c6.3-0.9,12.5-1.7,18.8-2.7c1.6-0.2,3.2-0.4,4.8-0.4c9.8-0.2,19.7-0.4,29.5-0.8
		c7.7-0.3,15.5,0.4,23-0.6c8.4-1.1,16.8,0.4,25.1-1.2c2.3-0.3,4.7-0.3,7,0c4.4,0.4,8.5-0.8,12.8-0.7c5.8-0.1,11.6,0.2,17.2-0.8
		c9.3,0.5,18.6-1.1,27.9-0.7c2.6,0.1,5.2-1,7.9-0.6c9.3,0,18.5-0.9,27.8-1.3c6.1-0.3,12.1-1,18.2-0.9c8.4,0.3,16.8-0.7,25.2-0.9
		c5.3-0.1,10.7,0,16-0.6c7.2-0.7,14.5,0,21.5-0.7c7.2-0.7,14.5,0.3,21.5-0.7c7.5-1,15.1,0.5,22.4-1.3c0.2,0,0.4,0,0.5,0
		c9,0.6,17.9-0.5,26.9-0.8c6.5-0.2,13.2-0.1,19.7-1.2c4.1-0.7,8.6-0.5,12.8-0.7c5.7-0.2,11.5-0.6,17.1-1.1
		c7.7-0.6,15.4-0.1,23.1-0.6c10-0.6,19.9-1,29.9-1.4c8.9-0.4,17.8-1,26.7-1.5c9.8-0.5,19.6-1.2,29.4-1.4c1.6-0.1,3.1-0.3,4.7-0.7
		c4.4-0.3,9.1,0.6,13.3-0.9c5.7-2.1,11.9-0.8,17.6-1.6c6-0.8,11.8-0.1,17.7-0.6c7.4-0.6,15-0.2,22.3-1.4c0.4,0,0.7,0,1.1,0
		c8.3,0.6,16.4-1.2,24.7-0.7c8.6,0.6,17.1-1,25.8-0.7c1.9,0.1,4.1-0.5,5.5,1.5c-0.7,3.1-2.2,6-4.3,8.4c3.4,3.1,10.2,2.9,12.3,7.5
		c3.3-1.9,5-4.1,5-6.9c0-4.2,0-8.4,0-12.6c-1.3-0.3-2.9,0.2-4-0.7c-0.7-1.1-0.2-2.3-0.5-3.4l0.1,0c0.1-6.2,0.8-12.5,0.3-18.7h-6
		c-1.5-2.2-3.9-3.7-5.3-5.6c1.4,1.9,3.7,3.3,5.2,5.4h6c0.2-1.5,0-3-0.5-4.4c-0.7-1.7-0.7-3.5,0-5.2c1.8-3.9,1.2-8,1.2-11.9
		c0-5.3-0.5-10.6,0.6-15.9c0,0,0.1-0.1,0.1-0.1c-0.5-1.7-1-3.3-1.4-5c-0.6-3.4-3.2-6.7-0.2-10.2c-1.8-2.5-3.2-4.9-1.2-7.5
		c-1.2-1.5-2.8-2.7-3.3-4.3c0.5-2.6,1.8-5,3.6-6.9c0.8-0.8,1.4-1.8,1.7-2.9c1.7-4.7,0.7-9.5,0-14.2c-0.7-4.9-2-9.8-1.9-14.7
		c0.1-5.4,2.1-52.9,4.3-58.1c2-4.6-1.8-9.4-0.5-14.1c0.6-2.3,1.5-4.9-1-6.5c0.4-1.7,1-2.7-0.6-4.2c-0.5-0.4-0.1-1,0.5-1.4
		c1.7-1.2,1.3-2.5,0.8-4c-1-3.7-2.5-7.6-0.3-11.4c1.2-2.1,1.1-4.2,0.9-6.3c-1-0.2-2.7-1.3-4.5-2.5c0.1-1,0.1-2,0-3.1
		c0-0.6,0.2-1.1,0.7-1.5c2.5-1.7,1.4-3.4,0.3-5.1c-1.5-2.3-3.2-4.5-4.1-7.4c3.3-1.7,3.1-4.6,3.4-7.3l2.9-1.9c0-1.1,0-2.2,0.2-3.3
		c2.5-7.8,0.9-15.3-2.2-22.8c-1.2-2.8-2.2-5.6-2.1-8.6c0.1-2.8-0.2-5.7,0-8.5c0.2-4.8,0.6-9.8,3-14.2c3-5.6,1.7-11.4,3.7-16.9
		c0.3-0.8,0.2-1.7-0.3-2.4C758.1,167.1,758.3,165.2,758.6,163.4z M618.1,26.9l-0.1-0.2h0.3L618.1,26.9z M667.8,11
		c-0.9-0.7-2.2-1.4-0.5-2.2C665.6,9.6,667,10.4,667.8,11c1.1,0.7,2.1,1.3,3.2,0.9C669.9,12.4,668.8,11.8,667.8,11z M-6.4,336.8
		c0-0.4,0-0.8,0-1.3c0.1,0.1,0.2,0.2,0.3,0.3C-6.2,336.1-6.3,336.5-6.4,336.8z M119.2,502.2c7.5,0.3,15.1,1.2,22.5,0.7
		c8.8-0.5,17.6,0,26.3-0.7c0.8-0.1,1.6-0.1,2.4-0.1c-0.9,0-1.7,0.1-2.6,0.2c-8.7,0.7-17.5,0.2-26.3,0.7c-7.5,0.5-15-0.4-22.5-0.7
		c-8.1-0.3-16.3-0.4-24.4-0.3C102.7,501.8,110.9,501.9,119.2,502.2z M186.1,501.8c-0.1,0-0.2,0-0.3,0
		C186,501.8,186,501.8,186.1,501.8z M176.2,501.9c-0.1,0-0.3,0-0.4,0C175.9,501.9,176.1,501.9,176.2,501.9z M174.9,501.9
		c-0.6,0-1.3,0-1.9,0C173.7,501.9,174.3,501.9,174.9,501.9z M172.8,501.9c-0.8,0-1.6,0-2.4,0.1C171.2,502,172,502,172.8,501.9z
		 M85.7,502c-0.3,0-0.6,0-0.9,0C85.2,502,85.4,502,85.7,502z M91.4,501.9c-0.5,0-1.1,0-1.6,0C90.3,501.9,90.9,501.9,91.4,501.9z
		 M726.6,478.3c-4.9,0.4-9.9,0.6-14.8,1c-11.3,0.9-22.6,1.9-33.8,3.1c-9.1,1-18.4,1.3-27.5,2.4c-6.1,0.7-12.3,1-18.4,2
		c-3.7,0.5-7.4,0.8-11.1,0.7c-5.7,0.1-11.4,0.6-17.1,1.1s-11.4,0.2-17,1.2c-3.9,0.7-8.2,0.5-12.2,0.7c-5.3,0.2-10.7,0.7-16,1.1
		c-4.7,0.3-9.6,0.2-14.3,1.2c-3.4,0.7-7.1,0.5-10.6,0.7c-4.9,0.3-9.9,0.9-14.9,1.1c-5,0.1-9.9,0.5-14.8,1.2
		c-3.5,0.5-7.1,0.7-10.6,0.7c-6.5,0.1-12.8,1-19.3,0.9c-8.4-0.2-16.8,0.7-25.2,0.9c-5.3,0.1-10.8-0.2-16,0.6
		c-6.7,1-13.6-0.3-20.2,1.3c-0.4,0.1-0.7,0.1-1.1,0c-7.4-0.6-14.7,0.5-22,0.9c-6,0.3-12.1-0.2-18,1.2c-0.4,0.1-0.7,0.1-1.1,0
		c-8.1-0.5-16.1,0.6-24.1,0.8c-9.1,0.3-18.4-0.1-27.4,0.6c-6.8,0.5-13.7-0.3-20.4,0.6c-9.1,1.2-18.3-0.5-27.2,1.3
		c-0.4,0.1-0.7,0.1-1.1,0c-9.3-0.6-18.7,0.3-27.9,0.9c-7.6,0.5-15.4-0.5-22.9,1.1c-1.4,0.2-2.9,0.2-4.3,0c-24-0.2-48-0.5-72-0.4
		c-9.2,0-18.6,0.1-27.8,1.3c-0.4,0-0.7,0-1.1,0c-9.4-0.6-18.6,1.2-27.9,0.6c-2.8-0.1-5.2,0.9-7.9,0.9c-13.1,0-25.3-2.9-37.4-6.2
		c-0.4-0.1-0.5-0.3-0.7-0.5c0.1,0.1,0.3,0.3,0.5,0.3c12.1,3.3,24.3,6.2,37.4,6.2c2.8,0,5.1-1,7.9-0.9c9.3,0.7,18.6-1.2,27.9-0.6
		c0.4,0,0.7,0,1.1,0c9.2-1.2,18.5-1.3,27.8-1.3c24-0.1,48,0.2,72,0.4c1.4,0.2,2.9,0.2,4.3,0c7.5-1.7,15.3-0.7,22.9-1.1
		c9.2-0.6,18.6-1.5,27.9-0.9c0.4,0.1,0.7,0.1,1.1,0c8.9-1.8,18.2-0.1,27.2-1.3c6.6-0.9,13.5-0.1,20.4-0.6c9-0.7,18.2-0.4,27.4-0.6
		c8-0.2,16-1.3,24.1-0.8c0.4,0.1,0.7,0.1,1.1,0c5.8-1.4,12-0.9,18-1.2c7.3-0.4,14.6-1.5,22-0.9c0.4,0.1,0.7,0.1,1.1,0
		c6.6-1.6,13.5-0.2,20.2-1.3c5.1-0.8,10.7-0.5,16-0.6c8.4-0.2,16.8-1.1,25.2-0.9c6.5,0.1,12.8-0.8,19.3-0.9
		c3.5,0.1,7.1-0.2,10.6-0.7c4.9-0.8,9.8-1.2,14.8-1.2c5-0.2,9.9-0.8,14.9-1.1c3.5-0.2,7.2,0,10.6-0.7c4.7-1,9.6-0.9,14.3-1.2
		c5.3-0.3,10.7-0.8,16-1.1c4.1-0.2,8.3,0,12.2-0.7c5.7-1,11.4-0.7,17-1.2s11.3-1,17.1-1.1c3.7,0,7.5-0.2,11.1-0.7
		c6.1-1,12.3-1.3,18.4-2c9.1-1.1,18.4-1.4,27.5-2.4c11.2-1.2,22.5-2.3,33.8-3.1c4.9-0.4,9.9-0.6,14.8-1c5.4-0.5,10.9-1.6,16.8-0.8
		c0,0.1,0.1,0.1,0.1,0.2C737.5,476.7,732,477.9,726.6,478.3z"/>
	<path class="st1" d="M-10.2,286.3c0.3,0.3,0.6,0.5,0.8,0.8C-9.6,286.2-9.8,285.8-10.2,286.3z"/>
	<path class="st1" d="M-9.4,353c0,0.8-0.1,1.6-0.1,2.3c0,0,0,0,0,0C-9.3,354.5-9.3,353.8-9.4,353z"/>
	<path class="st1" d="M30.3,232.7c0.3-0.1,1.1,0,0.4-0.6L30.3,232.7z"/>
	<path class="st1" d="M30.3,232.7L30.3,232.7C30.3,232.7,30.3,232.7,30.3,232.7L30.3,232.7z"/>
</g>
</svg>
