<?xml version="1.0" encoding="utf-8"?>
<!-- Generator: Adobe Illustrator 22.0.1, SVG Export Plug-In . SVG Version: 6.00 Build 0)  -->
<svg version="1.1" id="Ebene_1" xmlns="http://www.w3.org/2000/svg" xmlns:xlink="http://www.w3.org/1999/xlink" x="0px" y="0px"
	 viewBox="0 0 270 280" style="enable-background:new 0 0 270 280;" xml:space="preserve">
<style type="text/css">
	.st0{opacity:0.9;}
	.st1{fill:#B7702E;}
	.st2{fill:#FFC033;}
	.st3{fill:#FFFFFF;}
</style>
<title>modal-rating-good</title>
<g>
	<g id="Ebene_2_1_">
		<g id="final-design">
			<g class="st0">
				<circle class="st1" cx="135" cy="135" r="135"/>
			</g>
			<circle class="st2" cx="135" cy="145" r="135"/>
			<path class="st3" d="M129.1,218.1c-2.8,0.4-6.1-0.9-8.9-0.9c-3.5-0.1-6.9-0.8-10.2-2.1c0.1-0.3,0.6-0.8,0.4-1
				c-0.6-0.6-0.8-1.5-0.3-2.2c0.1-0.3,0.8,0.3,0.6-0.1c0.8,0.3,2.1,0.5,1.4-0.1c-0.1-0.4-1.3-0.5-1.3-1.1s0.6-0.9,0.6-1.5
				c-0.2-0.1-0.7-0.3-1-0.4c-0.1-0.4,0.6-0.9,0.4-1c-0.8-0.6-1.6-1-2.5-1.2c0.1-0.3,0.1-0.8,0.6-0.7c4.1,1.6,8.4,2.7,12.8,3.5
				c4.3,0.7,8.7,1.2,13.1,1.5c1,0.2,0.2,0.9-0.5,1.4c0.2-0.2,0.2,0.4,0.5,0.2c-0.1,0.8-0.8,1.5-1.6,1.6c0.3,0,0.5,0,0.8,0
				c0.3,0.2,0,0.5,0,0.9c-0.3,0-0.5,0-0.5,0.2s0,0.5,0,0.7h1.1c-0.3,0-0.5,0-0.5,0.2s0,0.6,0,0.7c-0.6,0.2-1.4-0.2-1.9-0.1v0.6
				c0.6,0.1,1.3,0.1,1.9,0.1c-0.3,0.2-0.3,0.4-0.3,0.7c-0.8,0.2-1.6-0.4-2.5,0.1h0.8C131.3,218.9,130,218,129.1,218.1z"/>
			<path class="st3" d="M95.8,206.9c-2.7-1-5-3.6-7.5-5c-3.1-1.7-5.8-4-8.1-6.7c0.3-0.2,0.9-0.4,0.8-0.7c-0.3-0.8,0-1.7,0.7-2.2
				c0.3-0.2,0.6,0.6,0.6,0.2c0.5,0.6,1.6,1.5,1.3,0.6c0.1-0.4-0.9-1-0.7-1.6s1-0.5,1.2-1.1l-0.7-0.8c0.1-0.4,1-0.5,0.8-0.7
				c-0.4-0.9-1-1.6-1.7-2.3c0.3-0.2,0.4-0.6,0.9-0.4c2.9,3.3,6.2,6.3,9.7,9c3.5,2.7,7.2,5.1,10.9,7.4c0.8,0.6-0.2,0.9-1.1,1
				c0.3,0,0,0.4,0.4,0.4c-0.5,0.7-1.4,1-2.2,0.7l0.7,0.4c0.1,0.3-0.3,0.5-0.4,0.8c-0.2-0.1-0.5-0.3-0.6-0.1s-0.3,0.5-0.3,0.6l1,0.5
				c-0.2-0.1-0.5-0.3-0.6-0.1s-0.3,0.5-0.3,0.6c-0.6-0.1-1.1-0.8-1.7-0.9l-0.3,0.5c0.5,0.4,1.1,0.7,1.7,0.9c-0.3,0-0.4,0.2-0.6,0.5
				c-0.8-0.2-1.3-1.1-2.3-1.1l0.7,0.4C97.4,208.6,96.6,207.2,95.8,206.9z"/>
			<path class="st3" d="M71.5,181.6c-1.9-2.1-2.7-5.5-4.3-7.9c-1.9-3-3.3-6.2-4.1-9.7c0.3-0.1,0.9,0,1.1-0.3
				c0.1-0.9,0.8-1.5,1.7-1.6c0.3-0.1,0.2,0.8,0.5,0.4c0.2,0.8,0.7,2,0.9,1.2c0.3-0.4-0.3-1.3,0.1-1.7s1.1,0,1.6-0.4
				c-0.1-0.2-0.2-0.8-0.2-1c0.3-0.3,1.1,0,1.1-0.2c0-0.9-0.1-1.9-0.4-2.8c0.4-0.1,0.7-0.4,0.9,0.1c1.1,4.3,2.5,8.5,4.4,12.5
				c1.9,4,4,7.9,6.3,11.7c0.4,0.9-0.6,0.7-1.5,0.4c0.3,0.1-0.2,0.4,0.1,0.5c-0.7,0.4-1.7,0.2-2.2-0.4l0.4,0.6c0,0.3-0.4,0.3-0.8,0.5
				c-0.2-0.2-0.3-0.4-0.4-0.4l-0.6,0.4l0.6,0.9c-0.2-0.2-0.3-0.4-0.4-0.3l-0.6,0.4c-0.5-0.4-0.6-1.2-1-1.6l-0.5,0.3
				c0.2,0.6,0.6,1.1,1,1.6c-0.3-0.1-0.5,0-0.8,0.2c-0.6-0.6-0.6-1.6-1.5-2c0.1,0.2,0.3,0.5,0.4,0.7
				C72.2,183.8,72.1,182.2,71.5,181.6z"/>
			<path class="st3" d="M61.8,147.8c-0.7-2.8,0.2-6.1-0.2-9c-0.3-3.5,0-7,0.9-10.4c0.3,0.1,0.8,0.5,1.1,0.2c0.5-0.7,1.4-1,2.2-0.6
				c0.4,0.1-0.2,0.8,0.2,0.6c-0.2,0.8-0.3,2.1,0.2,1.4c0.4-0.2,0.3-1.3,0.9-1.4s1,0.5,1.6,0.4c0.1-0.2,0.2-0.8,0.2-1
				c0.4-0.2,1,0.5,1.1,0.3c0.5-0.8,0.8-1.7,0.9-2.6c0.3,0.1,0.8,0,0.8,0.5c-2.2,8.6-2.2,17.6-1.8,26.4c-0.1,1-0.9,0.4-1.5-0.4
				c0.2,0.2-0.3,0.3-0.1,0.5c-0.8,0-1.6-0.6-1.8-1.4l0.1,0.8c-0.2,0.3-0.5,0.1-0.9,0.1c0-0.3,0-0.5-0.2-0.5l-0.7,0.1
				c0,0.3,0.1,0.8,0.1,1.1c0-0.3-0.1-0.5-0.2-0.5l-0.7,0.1c-0.2-0.5,0.1-1.4-0.2-1.9h-0.5c0,0.6,0,1.3,0.2,1.9
				c-0.2-0.3-0.4-0.2-0.8-0.2c-0.3-0.8,0.2-1.7-0.4-2.5v0.8C61.4,150.1,62.1,148.6,61.8,147.8z"/>
			<path class="st3" d="M69,113.4c0.7-2.8,3-5.4,4-8c1.4-3.2,3.3-6.2,5.6-8.8c0.3,0.2,0.5,0.8,0.8,0.7c0.8-0.4,1.7-0.2,2.2,0.5
				c0.3,0.2-0.5,0.6-0.1,0.7c-0.5,0.6-1.2,1.8-0.5,1.4c0.4,0,0.9-1,1.5-0.9s0.7,0.9,1.2,1.1l0.7-0.8c0.4,0,0.6,0.9,0.8,0.7
				c0.8-0.5,1.5-1.2,2-1.9c0.3,0.2,0.7,0.3,0.5,0.8c-2.9,3.3-5.6,6.9-7.8,10.8c-2.2,3.8-4.2,7.7-6,11.7c-0.5,0.9-0.9-0.1-1.2-1
				c0.1,0.3-0.4,0.1-0.3,0.4c-0.7-0.4-1.1-1.2-0.9-2l-0.3,0.7c-0.3,0.2-0.5-0.2-0.8-0.3c0.1-0.2,0.2-0.5,0-0.6l-0.7-0.3l-0.4,1
				c0.1-0.2,0.2-0.5,0-0.6l-0.7-0.3c0-0.6,0.7-1.2,0.7-1.8l-0.5-0.2c-0.3,0.5-0.6,1.1-0.7,1.8c-0.1-0.3-0.2-0.4-0.6-0.5
				c0.2-0.8,1-1.4,0.8-2.4l-0.3,0.8C67.5,115.2,68.8,114.2,69,113.4z"/>
			<path class="st3" d="M91.2,86.2c1.9-2.2,5.1-3.4,7.3-5.2c2.7-2.2,5.8-4,9.1-5.2c0.1,0.3,0.1,0.9,0.4,1c0.9,0,1.6,0.6,1.8,1.4
				c0.1,0.3-0.8,0.3-0.4,0.5c-0.8,0.3-1.9,1-1.1,1c0.4,0.2,1.2-0.5,1.7-0.1s0.2,1.1,0.6,1.5c0.2-0.1,0.7-0.3,1-0.4
				c0.4,0.2,0.1,1.1,0.4,1c0.9-0.1,1.9-0.3,2.7-0.8c0.1,0.3,0.5,0.6,0,0.9c-4.1,1.6-8.1,3.6-11.9,5.9c-3.7,2.3-7.3,4.9-10.8,7.6
				c-0.9,0.5-0.8-0.5-0.6-1.4c-0.1,0.3-0.4-0.1-0.5,0.2c-0.5-0.7-0.4-1.6,0.1-2.2l-0.6,0.5c-0.3,0-0.3-0.4-0.6-0.7
				c0.2-0.2,0.4-0.3,0.3-0.5s-0.4-0.4-0.5-0.6l-0.8,0.7c0.2-0.2,0.4-0.3,0.3-0.5l-0.5-0.6c0.3-0.5,1.2-0.7,1.5-1.2l-0.3-0.4
				c-0.5,0.3-1,0.7-1.5,1.2c0.1-0.3,0-0.4-0.3-0.7c0.5-0.7,1.5-0.8,1.8-1.7l-0.7,0.5C89.1,87.2,90.7,86.9,91.2,86.2z"/>
			<path class="st3" d="M123.6,72.5c2.7-1,6.1-0.6,8.9-1.2c3.4-0.7,7-0.9,10.4-0.4c0,0.4-0.4,0.9-0.1,1.1c0.8,0.4,1.1,1.3,0.9,2.1
				c0,0.4-0.8-0.1-0.6,0.3c-0.8-0.1-2.2,0-1.4,0.4c0.2,0.4,1.3,0.1,1.5,0.7s-0.4,1-0.2,1.6l1,0.1c0.2,0.4-0.4,1-0.1,1.1
				c0.9,0.4,1.8,0.6,2.8,0.6c-0.1,0.4,0.1,0.8-0.4,0.8c-4.4-0.5-8.9-0.6-13.3-0.3c-4.4,0.3-8.8,0.9-13.1,1.7c-1,0-0.5-0.8,0.2-1.5
				c-0.2,0.2-0.3-0.3-0.5-0.1c-0.1-0.8,0.4-1.6,1.2-1.9l-0.8,0.2c-0.3-0.1-0.1-0.5-0.2-0.9c0.3-0.1,0.5-0.1,0.5-0.3
				s-0.1-0.5-0.2-0.7l-1,0.2c0.3-0.1,0.5-0.1,0.5-0.3l-0.2-0.7c0.5-0.3,1.4-0.1,1.9-0.4l-0.1-0.5c-0.6,0-1.3,0.2-1.9,0.4
				c0.2-0.2,0.2-0.4,0.1-0.8c0.8-0.4,1.7,0,2.4-0.7l-0.8,0.2C121.3,72.4,122.8,72.8,123.6,72.5z"/>
			<path class="st3" d="M158.6,75.4c2.8,0.3,5.7,2.3,8.4,3c3.4,1,6.6,2.5,9.4,4.6c-0.2,0.3-0.7,0.6-0.6,0.9c0.5,0.7,0.4,1.7-0.2,2.3
				c-0.2,0.3-0.7-0.4-0.7,0c-0.7-0.5-1.9-1-1.4-0.3c0,0.4,1.1,0.8,1,1.3s-0.8,0.8-0.9,1.3c0.2,0.1,0.6,0.4,0.9,0.6
				c0,0.4-0.8,0.7-0.6,0.9c0.6,0.7,1.3,1.4,2.2,1.8c-0.2,0.3-0.2,0.7-0.8,0.6c-3.6-2.5-7.5-4.7-11.6-6.4c-4-1.7-8.2-3.3-12.4-4.6
				c-0.9-0.4,0-0.9,0.9-1.3c-0.3,0.1-0.1-0.4-0.4-0.3c0.3-0.8,1.1-1.3,1.9-1.2l-0.8-0.2c-0.2-0.2,0.1-0.5,0.2-0.9
				c0.3,0.1,0.5,0.1,0.6,0s0.1-0.5,0.2-0.7l-1-0.3c0.3,0.1,0.5,0.1,0.6,0s0.1-0.5,0.2-0.7c0.6,0,1.3,0.5,1.8,0.5l0.2-0.5
				c-0.6-0.3-1.2-0.4-1.9-0.5c0.3-0.1,0.4-0.3,0.4-0.6c0.9,0,1.5,0.8,2.4,0.5l-0.8-0.2C156.6,74.2,157.8,75.3,158.6,75.4z"/>
			<path class="st3" d="M188.3,94.3c2.4,1.6,4,4.7,6.1,6.6c2.6,2.4,4.7,5.3,6.2,8.4c-0.3,0.2-0.9,0.2-1,0.5c0.1,0.9-0.4,1.7-1.2,1.9
				c-0.3,0.2-0.4-0.7-0.6-0.3c-0.4-0.7-1.2-1.8-1.1-0.9c-0.2,0.4,0.6,1.2,0.3,1.7s-1.1,0.3-1.4,0.8l0.5,0.9c-0.2,0.4-1.1,0.3-1,0.5
				c0.2,0.9,0.6,1.8,1.1,2.6c-0.3,0.2-0.6,0.5-0.9,0.2c-2-3.9-4.5-7.7-7.2-11.1c-2.8-3.4-5.8-6.7-8.9-9.8c-0.6-0.8,0.4-0.8,1.4-0.7
				c-0.3,0,0.1-0.4-0.2-0.5c0.6-0.6,1.6-0.6,2.2-0.2l-0.6-0.5c-0.1-0.3,0.4-0.4,0.6-0.7c0.2,0.2,0.4,0.4,0.5,0.2l0.5-0.5l-0.8-0.7
				c0.2,0.2,0.4,0.4,0.5,0.2l0.5-0.5c0.5,0.2,0.9,1.1,1.4,1.3l0.4-0.4c-0.4-0.5-0.9-1-1.4-1.3c0.3,0,0.4-0.1,0.7-0.3
				c0.7,0.4,1,1.4,1.9,1.6l-0.6-0.6C187.1,92.3,187.6,93.8,188.3,94.3z"/>
			<path class="st3" d="M205.8,124.8c1.4,2.5,1.3,6,2.3,8.7c1.1,3.3,1.7,6.8,1.6,10.3c-0.4,0-0.9-0.3-1.1,0c-0.3,0.8-1.2,1.3-2,1.1
				c-0.4,0,0-0.8-0.4-0.5c0-0.8-0.2-2.1-0.6-1.3c-0.3,0.3,0,1.3-0.5,1.6s-1.1-0.3-1.6,0c0,0.3,0,0.8,0,1c-0.4,0.2-1.1-0.3-1.1,0
				c-0.3,0.9-0.4,1.9-0.3,2.8c-0.4,0-0.7,0.2-0.9-0.3c0-4.4-0.4-8.8-1.2-13.1c-0.9-4.3-1.9-8.6-3.3-12.8c-0.2-1,0.8-0.6,1.5,0
				c-0.3-0.2,0.2-0.4,0-0.5c0.8-0.2,1.7,0.2,2.1,0.9l-0.3-0.8c0.1-0.3,0.5-0.2,0.9-0.3c0.1,0.2,0.2,0.5,0.4,0.4l0.7-0.2l-0.4-1
				c0.1,0.2,0.2,0.5,0.4,0.4l0.7-0.2c0.4,0.4,0.3,1.3,0.6,1.8l0.5-0.2c-0.1-0.6-0.3-1.2-0.6-1.8c0.3,0.2,0.4,0.1,0.8,0
				c0.4,0.7,0.2,1.7,1,2.3l-0.2-0.8C205.6,122.4,205.4,124,205.8,124.8z"/>
			<path class="st3" d="M207.1,159.9c0,2.9-1.6,5.9-2,8.8c-0.5,3.5-1.7,6.8-3.4,9.9c-0.3-0.2-0.7-0.7-1-0.5
				c-0.6,0.6-1.6,0.6-2.3,0.1c-0.3-0.2,0.4-0.7-0.1-0.6c0.4-0.7,0.8-2,0.1-1.4c-0.4,0.1-0.6,1.2-1.2,1.2s-0.9-0.7-1.4-0.8
				c-0.1,0.2-0.4,0.7-0.5,0.9c-0.4,0-0.8-0.7-1-0.5c-0.6,0.7-1.2,1.5-1.5,2.4c-0.3-0.2-0.8-0.1-0.7-0.7c2.1-3.9,3.7-8,5-12.3
				c1.2-4.2,2.3-8.5,3.1-12.9c0.3-1,0.9-0.1,1.4,0.7c-0.1-0.3,0.4-0.2,0.2-0.5c0.8,0.2,1.4,0.9,1.4,1.8l0.1-0.8
				c0.2-0.2,0.5,0.1,0.9,0.1c0,0.3-0.1,0.5,0.1,0.6l0.7,0.1c0-0.3,0.1-0.8,0.1-1.1c0,0.3-0.1,0.5,0.1,0.6l0.7,0.1
				c0.1,0.6-0.4,1.3-0.3,1.9l0.5,0.1c0.2-0.6,0.3-1.3,0.3-1.9c0.1,0.3,0.3,0.3,0.7,0.4c0.1,0.9-0.6,1.6-0.2,2.5l0.1-0.8
				C208.1,157.8,207.1,159,207.1,159.9z"/>
			<path class="st3" d="M191.9,191.6c-1.3,2.5-4.2,4.5-5.8,6.8c-2.1,2.8-4.6,5.3-7.6,7.2c-0.2-0.3-0.3-0.9-0.6-0.9
				c-0.8,0.2-1.7-0.2-2-1c-0.2-0.3,0.7-0.5,0.2-0.6c0.7-0.5,1.6-1.4,0.8-1.2c-0.4-0.1-1.1,0.8-1.6,0.5s-0.4-1-0.9-1.3l-0.9,0.6
				c-0.4-0.2-0.4-1.1-0.6-0.9c-0.9,0.3-1.7,0.8-2.5,1.4c-0.2-0.3-0.6-0.5-0.3-0.9c3.7-2.5,7-5.4,10.1-8.6c3.1-3.2,6-6.5,8.7-10
				c0.7-0.7,0.9,0.3,0.9,1.3c0-0.3,0.4,0,0.4-0.3c0.6,0.6,0.8,1.5,0.4,2.2l0.5-0.6c0.3-0.1,0.4,0.3,0.7,0.5
				c-0.2,0.2-0.3,0.4-0.2,0.5l0.6,0.4c0.2-0.2,0.5-0.7,0.6-0.9c-0.2,0.2-0.3,0.4-0.2,0.5l0.6,0.4c-0.2,0.6-1,1-1.1,1.5l0.4,0.3
				c0.5-0.5,0.8-1,1.1-1.6c0,0.3,0.1,0.4,0.4,0.6c-0.3,0.8-1.3,1.1-1.4,2.1l0.5-0.7C193.8,190.2,192.3,190.8,191.9,191.6z"/>
			<path class="st3" d="M163.8,212.6c-2.3,1.6-5.8,2-8.3,3.3c-3.2,1.5-6.6,2.5-10.1,2.8c0-0.4,0.2-0.9-0.1-1.1
				c-0.8-0.2-1.4-1-1.3-1.8c-0.1-0.4,0.8-0.1,0.5-0.4c0.8-0.1,2.1-0.5,1.3-0.7c-0.3-0.3-1.3,0.2-1.7-0.3s0.1-1.1-0.2-1.6l-1,0.1
				c-0.3-0.3,0.1-1.1-0.1-1.1c-0.9-0.1-1.9-0.1-2.8,0.1c0-0.4-0.3-0.7,0.2-0.9c4.4-0.5,8.8-1.5,13-2.9c4.2-1.4,8.3-3,12.3-4.8
				c1-0.3,0.6,0.7,0.2,1.5c0.1-0.3,0.4,0.2,0.5-0.1c0.3,0.8,0,1.7-0.7,2.2l0.7-0.4c0.3,0,0.2,0.5,0.4,0.8c-0.2,0.1-0.5,0.2-0.4,0.4
				l0.3,0.6l1-0.5c-0.2,0.1-0.5,0.2-0.4,0.4l0.3,0.6c-0.4,0.4-1.3,0.4-1.7,0.8l0.2,0.5c0.6-0.2,1.2-0.5,1.7-0.8
				c-0.2,0.3-0.1,0.4,0.1,0.8c-0.7,0.5-1.6,0.4-2.2,1.2l0.8-0.4C166.1,212.2,164.5,212.1,163.8,212.6z"/>
			<polygon class="st3" points="190.8,141.1 191.4,140.7 190.4,139 			"/>
			<path class="st3" d="M187.3,123.5c-1.3-1.2-2.9-3.8-4.2-3.2l0.6,0.5l0.6,0.5l1.1,1c-0.4,0.5-0.4,1.1-0.1,1.7
				c0.3,0.7,0.7,1.5,1.1,2.2c-0.2-0.6-0.5-1.2-0.8-1.7c0.3,0.4,0.8-0.1,1.1,0.3c0.2,1.1,0.6,2.1,1.2,3c0.6,0.9,0.8,2,0.6,3l-0.1-0.1
				l1.1,1.9c0,0.7-0.5,0.5-0.7,0.4c0.5,0.9,0.9,1.6,1.3,2.5c0.4,1,0.6,2.1,0.7,3.1c0.4-0.5,0.5-1.2,0.4-1.8c-0.1-0.7-0.3-1.4-0.7-2
				c-0.7-1.3-1.3-2.6-0.7-3.8l0.1,0.1c-0.6-1.2-1-2.5-1.2-3.8C188.4,125.9,188,124.6,187.3,123.5z"/>
			<path class="st3" d="M188.7,133c0,0-0.1-0.1-0.1-0.1C188.6,132.8,188.6,132.9,188.7,133z"/>
			<path class="st3" d="M107.2,96.5l0.1,0.3C107.4,96.6,107.5,96.4,107.2,96.5z"/>
			<path class="st3" d="M138.2,92.2H138C137.8,92.5,137.9,92.4,138.2,92.2z"/>
			<path class="st3" d="M164.2,193.6h0.8C164.6,193.4,164.4,193.4,164.2,193.6z"/>
			<path class="st3" d="M190.5,160.3L190.5,160.3z"/>
			<path class="st3" d="M177.3,174.8l-0.3-0.2C177.1,174.8,177.2,174.8,177.3,174.8z"/>
			<path class="st3" d="M182.7,163.4c0.2-0.3,0.4-0.6,0.5-0.9C182.9,162.7,182.7,163.1,182.7,163.4z"/>
			<path class="st3" d="M190.5,160.8c0-0.1,0-0.3,0-0.4C190.5,160.5,190.5,160.6,190.5,160.8z"/>
			<path class="st3" d="M163.2,187.2l-0.9-0.6C162.5,186.9,162.8,187.1,163.2,187.2z"/>
			<path class="st3" d="M183,160.3c0.2-0.1,0.4-0.3,0.5-0.5C183.3,159.9,183.1,160.1,183,160.3z"/>
			<path class="st3" d="M186.1,121c0.2,0.4,0.4,0.8,0.7,1.2C186.6,121.7,186.4,121.3,186.1,121z"/>
			<path class="st3" d="M99.6,177.9c0.1,0,0.3,0,0.4-0.1C99.8,177.7,99.7,177.8,99.6,177.9z"/>
			<path class="st3" d="M135.5,194.4h0.1c-0.1-0.1-0.1-0.1-0.2-0.1L135.5,194.4z"/>
			<path class="st3" d="M123.7,192.9c0.1,0,0.1-0.1,0.2-0.2C123.8,192.8,123.8,192.9,123.7,192.9z"/>
			<path class="st3" d="M144.3,192.7c0.1-0.1,0.3-0.2,0.4-0.4C144.5,192.4,144.4,192.6,144.3,192.7z"/>
			<path class="st3" d="M152.7,191.5c-0.5-0.2-0.2-0.6,0.1-1.1c-0.8,0.1-1.6,0.4-2.3,0.9c-0.3,0.2-0.7,0.3-1,0.5
				c-0.5,0.1-1,0.1-1.4,0l1.1,0.2c-0.8,0.6-1.6,1-2.5,1.1c-0.9,0.3-1.8,0.3-2.7-0.1l0.3-0.4c-1.2,0.9-3.5-0.2-4,0.5
				c0.6,0.4,0,0.7,0.9,0.9c-0.6,0.2-1.1,0.4-1.7,0.6l-1.7,0.4l-0.3-1.3l-1.8,0.5c0.2,0.2-0.4,0.2-1.1,0.2s-1.4-0.1-1.5,0.6
				c-1-0.6,0.5-0.9,0.9-1.4c-1,0.3-1.1-0.3-2.1,0.4l-0.9-1.2c-0.4,0.1-0.9,0.2-1.4,0.3l-1.4,0.2c0.1-0.1,0-0.2,0.1-0.3
				c-0.7,0.2-1.5,0.2-2.2-0.1c-0.4-0.1-0.8-0.2-1.2-0.2c-0.5,0-0.9,0.1-1.3,0.4c0.1,0,0.1-0.1,0.1-0.2c-1.1,0.6-3-0.6-3.6-1
				c-1.4-0.3-0.9,0.8-1.1,1.2c-1-0.6-2-1-3.2-1.3c-0.7-0.1-1.3,0-3.2-0.2c-0.6-1.1,0.2-1.3,0.9-1.6s1.3-0.4,0.4-1.5
				c-0.5,0.2-1.1,0.3-1.7,0.1c-0.4-0.1-0.9-0.2-1.3-0.3c-0.4-0.2-0.9-0.4-1.4-0.6c-0.7-0.7-1.6-1.6-2.5-2.5
				c-0.8-0.9-1.4-1.9-1.9-2.9l-0.4,0.8l-1.2-0.6l-1.1-0.7c0.7,0,1.3,0,2,0c-1-0.2-1.9-0.4-2.8-0.8c-1.3-0.6-1.2-1.3-1.1-1.8
				s0.2-0.9-1-1.2c0-0.1,0-0.2,0.1-0.4c-0.6-0.1-1.2-0.5-1.5-1c-0.6-0.6-1.2-1.3-1.9-2l1.4-0.1c0.2,0.4,0.4,0.8,0.6,1.2
				c0.4-1.2-1.5-1.6-2.2-2.7c-1.1-0.9-1.5,0.2-2.2-0.2c-0.2-0.2-0.4-0.5-0.6-0.7c-0.2-0.2-0.3-0.5-0.3-0.7c-0.3-1.2,1.1-0.8,1.7-0.8
				c-1.5-0.2-1.6-0.6-3.2-2.4c0.4-0.4,0.8-0.3,1-0.1c-0.4-0.4-0.9-0.6-1.4-0.6l0.3-1c-0.1-1.4-0.8-1.7-1.7-2.1
				c-0.5-0.2-0.9-0.5-1.3-0.8c-0.5-0.5-0.7-1.1-0.9-1.7c0.9,0.6-1.1-2.6-0.6-3.8c0.4,1,1.6-1,2.4-0.5c-0.1-2.5-1.6-0.6-2.3-2.5
				l1.6,0.5c-1.1-1.7-0.9-0.3-1.8-2.1c0.5,0.5,0.2-0.9,0.9,0.1c-0.2-2.5-0.2-1.9-0.3-4.1l-1.4-0.1c-0.2-0.8,0.3-1.1,0.6-1.3
				c0,0.3,0.1,0.8,0.2,0.7c0.4-0.2,0.5-0.7,0.2-1.1c0,0,0-0.1-0.1-0.1c-0.3-0.4-0.3-1,0.1-1.3c0,0,0,0,0,0c-0.4,0.3-1.1,0.6-1.2-0.4
				c0.9,0.3,0.8-1.5,1.2-1.5c-0.3,0.3-0.4-0.2-0.5-0.8s-0.2-1.3-0.7-1.4c0.7-1.1,0.7,0.4,1.1,0.4c-1-0.9,0.1-3.8-0.4-4.7
				c0.1,0,0.2,0,0.2,0c-0.2-0.8-0.4-1.6-0.4-2.4c0-0.5-0.1-1-0.2-1.5s-0.2-1.2-0.2-1.8c0.2,0.3,0.4,0.6,0.6,1c1-2.2-1.3-1.8-0.7-3.8
				c0.5,0.4,0.7-0.4,0.9-1.2s0.5-1.4,1-0.8c-0.2-1.3,0-2.6-0.7-3.8c1-0.8,0.7,2.6,1.6,1.3v-1.8h0.7c-0.4-0.3,0.2-1.6-0.1-1.7
				c0.8,0.1,1.6-0.3,2.1,0.1c0.3-1,1.5-2,1.5-3l0.4,0.1c-0.7-1.6,1.5-2.8,0.6-4.1l1-0.1c0.9-1.3-0.5-2-0.3-2.8
				c0.4-0.7,0.8-1.3,1.4-1.9c-0.3,1.2,0.1,1.1,0.6,0.8c0.5-0.4,1.1-0.6,1.7-0.8c0.6-0.6,2.2-2.5,2.2-3.4c-0.2,1.2,0.7,1.2-0.5,2.6
				c0.8,0.2,1.2-0.4,1.6-1.1c0.4-0.8,1-1.6,1.7-2.2l0.4,0.5c0.7-0.7,1.1-1.6,1.4-2.6c0.2-0.7,0.1-1.3,0.3-2.2c0.8,0.5,0.6,0.8,0.5,2
				c1-0.5,2-1.1,2.9-1.9c1-0.7,2.1-1.4,3.1-1.9c0.9,0.2,0.6,0.7,0.2,1.3c0.4-0.4,0.9-0.8,1.3-1.1c0.5-0.3,1-0.5,1.5-0.8
				c1-0.4,1.8-1.1,2.2-2.1c-0.1,0.4,0.1,0.4,0.5,0.3c0.4-0.1,0.9-0.2,1.3-0.2c-0.1-0.3-0.1-0.7,0-0.7c0.8-0.6,1.6-1.2,2.5-1.6
				c0.3-0.1,0.5-0.2,0.8-0.3s0.5-0.2,0.8-0.2c0.5-0.1,1-0.2,1.4-0.1l-0.5,0.5c0.8-0.1,1.6-0.4,2.3-0.8c0.3-0.2,0.7-0.4,1-0.6l1-0.5
				c0.7-0.3,1.4-0.6,2.1-0.8c0.4-0.1,0.8-0.2,1.3-0.2c0.5,0,1,0,1.4,0.1c0.8,0.3-0.7,1.2,0.8,1.1c0.7-0.5,0.4-1.7,2.4-1.4l-0.1,1
				l1.3-1c-0.7-0.8-2.9-0.4-1.3-1.4c0.5,0.3,1.2,0.3,1.7,0c0.4-0.2,0.9-0.3,2,0.3c-0.5,0.1-1.2,0.7-1.5,1.1c1.7,0.5,3.5,0.7,5.2,0.6
				c1.8-0.1,3.6,0.3,5.2,1.1c2.3-0.1,5.1,0.5,6.8,0.5c-0.5,0.8-0.8,1.6-1.9,2c1.6,0.8,3.3-0.9,4,0.9c1.4-0.8,5,1.6,6.4,0.3
				c-0.1,0.4,1.8,1.1-0.5,0.9c2.6,0.9,2,3.2,3,3.8c0.6,0.3,0.1-1.4,1.3-0.5c0.1,0.2,0,0.4,0.1,0.5h0.7c0.2,0.7-1.1,0.3-1.4,0.7
				c0.7,0.7,1.5,1.2,2.5,1.4c0.5,0.1,1,0.3,1.5,0.5c0.5,0.3,1,0.6,1.4,1l-0.5-0.1l1.8,1.8h-0.2c0.7,0.3,1.3,0.6,1.9,1l-0.4,0.3
				c0.4,0.3,0.7,0.2,1.2,0.6l-0.6,0.2c0.8,0.1,1.5,0.3,2.1,0.8c0.4,0.2,0.7,0.5,1.1,0.8c0.3,0.3,0.5,0.5,0.7,0.8l-0.1,0.3l2.6,1.7
				c0.4,1.6-2.3-0.8-0.2,1.4h-1.4c0.6,0.5,1,1.1,1.3,1.8c0.2,0.5,0.5,1,0.9,1.4c0.2-0.9-0.4-1.7,0.4-1.3c-0.2,0.8,0.2,1.6,0.9,2
				c0.3,0.2,0.7,0.4,1,0.6c0.4,0.2,0.7,0.5,1,0.8c-0.4-0.8-0.6-1.3-1.5-1.4c-0.4-0.8,0.4-0.6,0.2-1.1l-1.2-0.8l0.5-0.7l-1.6-1.5
				c0.9-0.4-1-1.7,0.3-1.6c-1.2-1-1.2-2.1-2.7-2.7c-0.1-1.2,1.5,0.9,0.9,0c-4.3-4.5-8.9-8.7-13.8-12.6h0.8c-0.8,0-1.6-0.1-2.2-0.1
				c-0.2-0.4-0.5-0.8-0.8-1.2c-0.4-0.6-0.9-1-1.5-1.4c-1.1-0.8-2.5-1.3-3.4-1c-0.1-0.2,0.2-0.2,0.4-0.2c-1-0.4-2.2-1.2-3.7-2
				c-0.7-0.4-1.4-0.8-2.2-1.2c-0.7-0.3-1.5-0.6-2.3-0.8c-0.8,0.6-1.9,0-2.9-0.5s-2.1-0.7-2.9,0.2l0.7-0.3c0.9,0.8-1.7,1.2-2.2,1.6
				c-0.6-1.5,0.1-1-0.7-2.4l1.1,0.7l-0.1-1.1c-1.7,0.8-3.7,0.8-5.4,0.1c-0.7-0.3-1.5-0.5-2.2-0.7c-0.7-0.1-1.5,0.1-2,0.6
				c0.1-0.1,0.1-0.3,0.3-0.4c-1.6-0.6-2.7,0.8-3.8,1.2c-0.2-0.6,0.6-0.9,1.2-1.4c-1.4-0.3-3.3,0.3-5.1,0.8s-3.7,1-5.3,0.9
				c-0.9,1,0.6,0.9-0.3,1.7c-1,0-1.8-0.4-0.7-1c-0.4-0.1-0.8-0.1-1.2-0.1c-0.5,0.1-0.9,0.2-1.4,0.3c-1,0.3-2,0.8-3.1,1.3
				c-0.6,0.3-1.1,0.5-1.6,0.8c-0.5,0.3-1.1,0.6-1.6,0.8c-0.5,0.2-1.1,0.5-1.6,0.7l-0.8,0.2l-0.8,0.2c-1.5,1.8-0.1,1.5-2.7,3.5
				c0.4-0.8-1.6-1.2,0-2.2l-0.1-0.6c-0.8,0.4-1.6,0.8-2.3,1.3c-0.8,0.5-1.5,1.1-2.2,1.6c-0.6,0.5-1.2,1.1-1.7,1.8
				c-0.4,0.6-0.7,1.2-0.8,1.9c-0.9-0.9-0.6,0.2-2,0.5c-0.3,0.4,0.2,0.1,0.4,0c-0.2,1.6-1.4,1.1-1.9,1.9l0.1-0.4l-1.1,2.2
				c-0.4,0.2-1,0.4-1.3,0.2l0.6,0.6c-0.2,0.3-0.6,0.4-1,0.4c-0.3,0-0.7,0-1,0.7l0.7,0.2c-0.9,0.5-1.2,2.3-2.1,1.9
				c-0.2-0.1,0-0.2,0.2-0.5c-0.9,0.3-1.7,1.1-2,2.1c-0.3,1-0.9,1.9-1.6,2.7l1.4,0.3c-0.6,1.8-0.8,0.8-1.2,0.5
				c-0.3,0.4-0.6,0.8-1,1.1c-0.4,0.4-0.8,0.9-1.1,1.4c-0.1,0.9,0.2,0.6,0.5,1l-1.1,1.4l-0.2-1.3c0.1,0.8,0.1,1.6-0.2,2.3
				c-0.2,0.7-0.5,1.5-0.8,2.2c-0.6,1.4-1.3,2.7-0.7,3.8c-0.6,0.8-0.5-1.1-0.9-0.6c-0.8,1.5-1.2,3.1-1.2,4.8c-0.1,1.7,0,3.3-0.8,4.5
				c-0.2,0.5-0.4,1-0.6,1.5c-0.1,0.5-0.2,1.1-0.3,1.6c-0.2,1.1-0.2,2.2-0.3,3.4s0.1,2.3,0.1,3.5c0,0.6,0,1.2,0,1.8l-0.1,0.9v0.9
				l0.4-0.1l0.1,3.3c0.5,0.6,0.8,1.3,0.9,2c0.2,0.8,0.7,1.6,1.3,2.2c-0.3-0.1-0.7,0.3-1,0.1c0.4,1.3,1.1,2.7,0.9,3.6l-0.4-0.4
				c0.4,1.7,0.9,3.3,1.5,4.9c0.5,1.3,1.3,2.5,2.2,3.5c0.5,0.9-0.1,1.2-0.4,1.7c0.7,1.4,1.7,2.6,3,3.5c0.1,0.5,0.1,0.9,0.1,1.4
				l1.2,0.1c0.3,0.7-0.5,0.5-0.4,1.2c1.2,0.9,2.2,1.9,3,3.2c0.8,1.1,1.6,2.3,2.2,3l0.1-0.5c0.8,0.4,1.4,2,0.4,1.6
				c1.1,1.3,2.5,2.4,4,3.2c1.8,0.8,3.6,1.9,5.2,3.2c-0.2,0.9,0.9,1.4,2,2s2.1,1.2,2,2.1c2.2,0.6,3.2,1.9,5,1.7
				c0,0.2,0.1,0.3-0.2,0.2c0.5,0.9,3.5,1.6,5.8,1.9l-0.1,0.6c1.2-0.9,4.7,0.5,5.8-0.5c0.2,0.3-0.5,0.4-0.9,0.6
				c0.9,1.4,2.1-0.2,3.5,0.4c-0.2,0.3,0.2,0.7-0.1,0.8c0.6,0.3,1.2,0.5,1.9,0.7c0.7,0.1,1.4,0.2,2.1,0.3c0.8,0.1,1.5,0.1,2.3,0.1
				c0.8,0,1.6,0,2.4-0.1c1.6-0.2,3.3-0.3,4.9-0.5c1.6-0.3,3.3-0.4,4.9-0.4c1.8-0.2-0.8-1.1,1.4-1.5c0.8,0.4-0.9,1.4,0.6,1.4
				c0.9-1,1.3-0.9,2.7-1.2c-0.2,0.4,0.1,0.6-0.8,1.1c0.5,0.1,1.3-0.3,2.2-0.7c0.8-0.6,1.9-0.8,2.9-0.7c-0.2-0.3,0-0.6,0.2-0.9
				c0.5-0.4,1.1-0.7,1.7-0.9c0.6-0.2,1.2-0.3,1.8-0.4c1.2-0.2,2.1-0.2,2.1-0.5c0,0,0.7-0.5,0-0.3c0.4-0.2,0.9-0.3,1.4-0.4
				c0.4-0.1,0.7,0,0.8,0.3c0.3-0.5,0.4-1.2,1-1.6v0.8c0.3-0.3,0.5-0.9,0.8-1.2l-0.8-0.1c1.2,0,2.2-2.2,2.9-1.1l-0.3,0.2
				c0.7-0.2,1.3-0.4,1.9-0.6c0.3-1,0.9-1.9,1.8-2.4c1.3,0.9,2.8-1.9,4.1-2.8l0.3,0.4c0.6-1.3,3-3.5,2.5-3.2c0.9-0.9,2.3-1.9,2.2-1.2
				c0.3-0.4,0.7-1.1,1.1-1.8c0.4-0.5,0.5-1.1,0.5-1.8l2.2-0.9c-0.1-0.9,0.2-1.9,1-2.4c0.6-0.7,1.1-1.2,0.4-1.8
				c0.9-0.8,1.1-0.4,1.8-0.9c0.1-1.7,0.7-3.3,1.7-4.7h0.2c0.8-1.5,0.7-3.6,1.4-5.8h1.4c0.2-1.2-0.8-1.8-0.2-2.9
				c0.3-0.2,0.3,0.1,0.3,0.4c0.2-1.2,0.6-2.3,1.3-3.3c-0.6-1.9,0-3.2-0.9-4.9c0.6-0.6,0.8-0.1,0.8,0.5s0,1.1,0.7,0.6
				c0.3-0.6,0.4-1.2,0.5-1.9c0.1-0.6,0.1-1.3,0.1-1.9c-0.1-1.4-0.3-2.7-0.6-4c0.3-0.2,0.5,0.1,0.8,0.2c-0.6-0.9-1.2-1.8-1.9-2.6
				c-1-1.2-2.2-2.2-2.8-1.6c-1-0.6-1.5-1.2-2.2,0.9c0.5,0.6,1.2,2.6,0.2,3l1,0.1c0.3,1.4-0.3,1.5-0.8,1.6s-1.2,0.3-1.3,1.9l0.4-0.7
				c0,0.6,0.6,1.2,0.2,1.9c-0.3,0.2-0.4-0.3-0.6-0.6c0.4,0.9,0.7,1.9,1,2.9c-0.6,0-0.8-0.1-1.2-0.7c-0.4,2.5,1.8-0.3,0.9,2.8
				c-0.5,0.5-0.5-0.3-0.8-0.8c-0.5,0.5-0.7,1.2-0.6,1.8c0.1,0.6,0.2,1.3,0.2,2.1c-0.8-0.2-0.5-1.1-1.3-0.1c0.5-0.1,1.3-0.1,1.1,0.9
				c-0.7-0.7-0.6,0.6-1.1,1.4c0.3-0.1,0.6,0.1,0.7,0.4c0,0,0,0.1,0,0.1c0,0.5-0.4,0.8-0.6,1.4c0.4-0.3,0.8-0.5,1.1-0.8
				c0.2,0.7-0.1,1.5-0.6,1.9c-0.4,0.5-1,0.8-1.4,1.3c-0.1-0.2-0.1-0.4-0.1-0.6c-0.4,0.5-0.9,1-1.2,1.6c-0.4,0.6-0.7,1.3-0.7,2.1V167
				c-0.6,3.1,1.7-0.2,0.8,3.4c-0.7,1-2.1-1.8-2.7,1c1.3-0.7,0.6,2.4-0.1,3.9c-0.1-0.8-0.3-1.6-0.5-2.3c-0.4,0.5-0.5,1.7-0.9,1.9
				l0.4,0.1c1.2,0.7-1.4,1.5-1.4,2.9c-0.6-2.3-0.3-2.1-1.6-3.5c0.1,0.7,0.1,1.5,0,2.2c-0.1,0.4-0.2,0.8-0.4,1.1
				c-0.2,0.4-0.5,0.7-0.9,1c0-0.7,0-1.4,0-2.1c-1,1-1.7,2.2-2.1,3.6c-0.1,0.4-0.2,0.7-0.3,1.1s-0.2,0.7-0.4,1.1
				c-0.2,0.7-0.5,1.4-0.7,2c-0.3-1.2-1.2-0.9-1.1-2.2l-1.7,1.8l-0.2-1.4c0.1,1.6-1.4,1.6-0.3,2.8c0.1-0.3,0-0.5,0.4-0.7
				c0.4,0.8,0.2,1.7-0.6,2.1c0,0,0,0-0.1,0c-1,0.2,0.1-0.8-0.4-1c-0.3,1-0.9,0.2-1.4,1.1l1,0.1c0,1.1-1.2,0.9-1.7,1.8
				c0.7-0.9,0.1-1.2-0.5-1.4l0.1,0.1c-0.5,0.4-0.9,1.3-1.6,1.1l-0.2-1.4l-0.3,1.3c-0.4,0-0.8-0.2-0.4-0.7c-1.4,0.4-1.1,1-0.8,1.6
				c0.1,0.3,0.1,0.6,0,0.9c-0.1,0.2-0.3,0.3-0.5,0.4c-0.4,0.1-0.8,0.2-1.1,0.3c-0.2-0.5,0.1-0.9,1.1-1.1c-0.2-0.8-0.6-1-1.7-0.9
				c0,0-0.1-0.1-0.1-0.1C155.9,189.3,153.7,190.4,152.7,191.5z"/>
			<path class="st3" d="M157.7,188.6c0.4-0.2,0.8-0.4,1.2-0.6c0.3-0.2,0.5-0.4,0.7-0.6c-0.4,0-0.8,0.1-1.2,0.3
				C157.9,188,157.5,188.2,157.7,188.6z"/>
			<path class="st3" d="M111.9,101.4c-0.1,0.1-0.2,0.2-0.3,0.3L111.9,101.4z"/>
			<path class="st3" d="M119.3,97.6c-0.2-0.1-0.3-0.1-0.5-0.1C118.9,97.7,119,97.9,119.3,97.6z"/>
			<path class="st3" d="M92.6,168.4L92.6,168.4z"/>
			<path class="st3" d="M92,123.4c0-0.8-0.2-1.2-0.5-1.4C91.4,122.6,91.6,123.1,92,123.4z"/>
			<path class="st3" d="M86.9,138.3c0,0.1,0.1,0.2,0.2,0.3C87,138.4,87,138.3,86.9,138.3z"/>
			<path class="st3" d="M94.3,170.2c-0.7-0.4-1.2-1.2-1.8-1.8C93.1,168.9,93.4,170.2,94.3,170.2z"/>
			<polygon class="st3" points="129,93.8 128.2,94.6 129.1,94 			"/>
			<path class="st3" d="M121.3,95.9c-0.4,0-1.6,0.8-1.1,1C120.5,96.5,120.8,96.2,121.3,95.9z"/>
			<polygon class="st3" points="95.9,112.4 96.2,113.1 96.2,112.2 			"/>
		</g>
	</g>
</g>
</svg>
