<svg id="Ebene_1" data-name="Ebene 1" xmlns="http://www.w3.org/2000/svg" viewBox="0 0 70 96"><defs><style>.cls-1{fill:#f3b100;}.cls-2{fill:none;stroke:#fff;stroke-linecap:round;stroke-miterlimit:10;stroke-width:5px;}</style></defs><title>icon</title><path class="cls-1" d="M35.33,4c-15.42,0-31,10.92-31,31.79,0,9.43,4.66,21.42,13.86,35.64A213.55,213.55,0,0,0,31.62,90a5.27,5.27,0,0,0,3.7,2h0A5.33,5.33,0,0,0,39,90,186.9,186.9,0,0,0,52.41,71.74C61.52,57.6,66.14,45.46,66.14,35.83,66.14,17.11,53.47,4,35.33,4Z"/><line class="cls-2" x1="48.7" y1="28.03" x2="31.67" y2="45.06"/><line class="cls-2" x1="23.17" y1="36.54" x2="31.68" y2="45.05"/></svg>