<?xml version="1.0" encoding="utf-8"?>
<!-- Generator: Adobe Illustrator 16.0.0, SVG Export Plug-In . SVG Version: 6.00 Build 0)  -->
<!DOCTYPE svg PUBLIC "-//W3C//DTD SVG 1.1//EN" "http://www.w3.org/Graphics/SVG/1.1/DTD/svg11.dtd">
<svg version="1.1" id="Ebene_1" xmlns="http://www.w3.org/2000/svg" xmlns:xlink="http://www.w3.org/1999/xlink" x="0px" y="0px"
	 width="68px" height="74px" viewBox="0 0 68 74" style="enable-background:new 0 0 68 74;" xml:space="preserve">
<style type="text/css">
<![CDATA[
	.st0{fill:none;stroke:#F3B100;stroke-width:10;stroke-linecap:round;stroke-miterlimit:10;}
	.st1{display:inline;fill:none;stroke:#FFFFFF;stroke-width:6;stroke-linecap:round;stroke-miterlimit:10;}
	.st2{display:inline;fill:none;stroke:#036D99;stroke-width:8;stroke-linecap:round;stroke-miterlimit:10;}
	.st3{fill:none;stroke:#FFFFFF;stroke-width:4;stroke-linecap:round;stroke-linejoin:round;stroke-miterlimit:10;}
	.st4{fill:none;stroke:#FFFFFF;stroke-width:5;stroke-linecap:round;stroke-linejoin:round;stroke-miterlimit:10;}
	.st5{fill:#FFFFFF;stroke:#FFFFFF;stroke-width:4;stroke-linecap:round;stroke-linejoin:round;stroke-miterlimit:10;}
	.st6{fill:#FFFFFF;stroke:#FFFFFF;stroke-width:6;stroke-linecap:round;stroke-linejoin:round;stroke-miterlimit:10;}
	.st7{display:inline;fill:none;stroke:#FFFFFF;stroke-width:4;stroke-linecap:round;stroke-linejoin:round;stroke-miterlimit:10;}
	.st8{display:inline;fill:none;stroke:#FFFFFF;stroke-width:6;stroke-linecap:round;stroke-linejoin:round;stroke-miterlimit:10;}
	.st9{display:none;fill:none;stroke:#FFFFFF;stroke-width:2;stroke-linecap:round;stroke-miterlimit:10;}
	
		.st10{display:inline;fill:#FFFFFF;stroke:#FFFFFF;stroke-width:4;stroke-linecap:round;stroke-linejoin:round;stroke-miterlimit:10;}
	.st11{fill:none;stroke:#FFFFFF;stroke-width:5;stroke-linecap:round;stroke-miterlimit:10;}
	.st12{fill:none;stroke:#FFFFFF;stroke-width:6;stroke-linecap:round;stroke-miterlimit:10;}
	.st13{fill:none;stroke:#036D99;stroke-width:8;stroke-linecap:round;stroke-miterlimit:10;}
	.st14{fill:none;stroke:#B2B2B2;stroke-width:4;stroke-linecap:round;stroke-miterlimit:10;stroke-dasharray:0,10;}
	.st15{opacity:0.5;}
	.st16{fill:#FFFFFF;}
	.st17{display:inline;}
	.st18{fill:none;stroke:#F35800;stroke-width:10;stroke-linecap:round;stroke-miterlimit:10;}
	.st19{fill:#1595C1;stroke:#1595C1;stroke-width:10;stroke-linejoin:round;stroke-miterlimit:10;}
	.st20{fill:none;stroke:#FFFFFF;stroke-width:1.84;stroke-linecap:round;stroke-miterlimit:10;}
	.st21{display:none;}
	.st22{fill:none;stroke:#444444;stroke-width:4;stroke-linecap:round;stroke-linejoin:round;stroke-miterlimit:10;}
	.st23{fill:none;stroke:#444444;stroke-width:6;stroke-linecap:round;stroke-linejoin:round;stroke-miterlimit:10;}
	.st24{fill:#444444;stroke:#444444;stroke-width:4;stroke-linecap:round;stroke-linejoin:round;stroke-miterlimit:10;}
	.st25{fill:#FFFFFF;stroke:#444444;stroke-width:6;stroke-linecap:round;stroke-linejoin:round;stroke-miterlimit:10;}
]]>
</style>
<g id="XMLID_9_">
	<g>
		<g class="st21">
			<path class="st20" d="M-94.6-48.7c0,10.6-8.6,19.2-19.2,19.2c-10.6,0-19.2-8.6-19.2-19.2c0-10.6,8.6-19.2,19.2-19.2
				C-103.2-67.9-94.6-59.3-94.6-48.7z"/>
			<rect x="-113.8" y="-36.9" class="st1" width="0" height="0"/>
			<path class="st8" d="M-120.6-55.4c0-3.8,3-6.8,6.8-6.8c3.8,0,6.8,3,6.8,6.8c0,3.8-3.3,7.3-6.8,8.9v1.5"/>
		</g>
		<g class="st21">
			<line class="st7" x1="-113.8" y1="-45.9" x2="-113.8" y2="-50"/>
			<line class="st7" x1="-113.8" y1="-50" x2="-116.9" y2="-53.2"/>
			<line class="st7" x1="-113.8" y1="-50" x2="-110.6" y2="-53.2"/>
		</g>
		<g class="st21">
			<g class="st17">
				<line class="st3" x1="-113.8" y1="-61.1" x2="-113.8" y2="-63.1"/>
				<line class="st3" x1="-122.3" y1="-40.6" x2="-123.7" y2="-39.2"/>
				<line class="st3" x1="-122.3" y1="-57.6" x2="-123.7" y2="-59.1"/>
				<line class="st3" x1="-125.8" y1="-49" x2="-127.9" y2="-49"/>
			</g>
			<line class="st7" x1="-105.3" y1="-40.6" x2="-103.8" y2="-39.2"/>
			<line class="st7" x1="-105.3" y1="-57.6" x2="-103.8" y2="-59.1"/>
			<line class="st7" x1="-101.7" y1="-49" x2="-99.7" y2="-49"/>
		</g>
		<g class="st21">
			<path class="st10" d="M-109.1-49.5c0-2.6-2.1-4.7-4.7-4.7c-2.6,0-4.7,2.1-4.7,4.7c0,5.1,3.5,5.7,3.5,7.3v2c0,0.7-0.1,1.3,0.4,1.6
				c0.1,0.4,1.7,0.4,1.7,0c0.4-0.4,0.4-0.9,0.4-1.6v-2C-112.5-43.8-109.1-44.5-109.1-49.5z"/>
			<rect x="-113.8" y="-37.3" class="st10" width="0" height="0"/>
		</g>
		<g class="st15">
			<g>
				<line class="st22" x1="-113.8" y1="-61.1" x2="-113.8" y2="-63.1"/>
			</g>
			<g>
				<line class="st22" x1="-123.7" y1="-55.4" x2="-125.5" y2="-56.4"/>
			</g>
			<g>
				<line class="st22" x1="-123.7" y1="-44" x2="-125.4" y2="-42.9"/>
			</g>
			<g>
				<line class="st22" x1="-103.9" y1="-55.4" x2="-102.1" y2="-56.4"/>
			</g>
			<g>
				<line class="st22" x1="-103.9" y1="-44" x2="-102.1" y2="-42.9"/>
			</g>
			<path class="st24" d="M-109-49.6c0,3.3-2.9,7.6-4.7,7.6s-4.7-4-4.7-7.6c0-2.6,2.1-4.7,4.7-4.7C-111.1-54.3-109-52.2-109-49.6z"/>
			<line class="st25" x1="-113.8" y1="-46.4" x2="-113.8" y2="-38"/>
		</g>
	</g>
</g>
<g id="XMLID_5_">
	<g>
		<g id="detail-info_10_">
			<g class="st21">
				<path class="st20" d="M-148.6-48.7c0,10.6-8.6,19.2-19.2,19.2c-10.6,0-19.2-8.6-19.2-19.2c0-10.6,8.6-19.2,19.2-19.2
					C-157.2-67.9-148.6-59.3-148.6-48.7z"/>
				<rect x="-167.8" y="-36.9" class="st1" width="0" height="0"/>
				<path class="st8" d="M-174.6-55.4c0-3.8,3-6.8,6.8-6.8c3.8,0,6.8,3,6.8,6.8c0,3.8-3.3,7.3-6.8,8.9v1.5"/>
			</g>
			<g class="st21">
				<line class="st7" x1="-167.8" y1="-45.9" x2="-167.8" y2="-50"/>
				<line class="st7" x1="-167.8" y1="-50" x2="-170.9" y2="-53.2"/>
				<line class="st7" x1="-167.8" y1="-50" x2="-164.6" y2="-53.2"/>
			</g>
			<g class="st21">
				<g class="st17">
					<line class="st3" x1="-167.8" y1="-61.1" x2="-167.8" y2="-63.1"/>
					<line class="st3" x1="-176.3" y1="-40.6" x2="-177.7" y2="-39.2"/>
					<line class="st3" x1="-176.3" y1="-57.6" x2="-177.7" y2="-59.1"/>
					<line class="st3" x1="-179.8" y1="-49" x2="-181.9" y2="-49"/>
				</g>
				<line class="st7" x1="-159.3" y1="-40.6" x2="-157.8" y2="-39.2"/>
				<line class="st7" x1="-159.3" y1="-57.6" x2="-157.8" y2="-59.1"/>
				<line class="st7" x1="-155.7" y1="-49" x2="-153.7" y2="-49"/>
			</g>
			<g class="st21">
				<path class="st10" d="M-163.1-49.5c0-2.6-2.1-4.7-4.7-4.7c-2.6,0-4.7,2.1-4.7,4.7c0,5.1,3.5,5.7,3.5,7.3v2
					c0,0.7-0.1,1.3,0.4,1.6c0.1,0.4,1.7,0.4,1.7,0c0.4-0.4,0.4-0.9,0.4-1.6v-2C-166.5-43.8-163.1-44.5-163.1-49.5z"/>
				<rect x="-167.8" y="-37.3" class="st10" width="0" height="0"/>
			</g>
			<g class="st15">
				<g>
					<line class="st3" x1="-167.8" y1="-61.1" x2="-167.8" y2="-63.1"/>
				</g>
				<g>
					<line class="st3" x1="-177.7" y1="-55.4" x2="-179.5" y2="-56.4"/>
				</g>
				<g>
					<line class="st3" x1="-177.7" y1="-44" x2="-179.4" y2="-42.9"/>
				</g>
				<g>
					<line class="st3" x1="-157.9" y1="-55.4" x2="-156.1" y2="-56.4"/>
				</g>
				<g>
					<line class="st3" x1="-157.9" y1="-44" x2="-156.1" y2="-42.9"/>
				</g>
				<path class="st5" d="M-163-49.6c0,3.3-2.9,7.6-4.7,7.6s-4.7-4-4.7-7.6c0-2.6,2.1-4.7,4.7-4.7C-165.1-54.3-163-52.2-163-49.6z"/>
				<line class="st6" x1="-167.8" y1="-46.4" x2="-167.8" y2="-38"/>
			</g>
		</g>
	</g>
</g>
<g id="XMLID_4_">
	<g>
		<g id="detail-info_9_">
			<g class="st21">
				<path class="st20" d="M-201.6-48.7c0,10.6-8.6,19.2-19.2,19.2c-10.6,0-19.2-8.6-19.2-19.2c0-10.6,8.6-19.2,19.2-19.2
					C-210.2-67.9-201.6-59.3-201.6-48.7z"/>
				<rect x="-220.8" y="-36.9" class="st1" width="0" height="0"/>
				<path class="st8" d="M-227.6-55.4c0-3.8,3-6.8,6.8-6.8c3.8,0,6.8,3,6.8,6.8c0,3.8-3.3,7.3-6.8,8.9v1.5"/>
			</g>
			<g class="st21">
				<line class="st7" x1="-220.8" y1="-45.9" x2="-220.8" y2="-50"/>
				<line class="st7" x1="-220.8" y1="-50" x2="-223.9" y2="-53.2"/>
				<line class="st7" x1="-220.8" y1="-50" x2="-217.6" y2="-53.2"/>
			</g>
			<g class="st21">
				<g class="st17">
					<line class="st3" x1="-220.8" y1="-61.1" x2="-220.8" y2="-63.1"/>
					<line class="st3" x1="-229.3" y1="-40.6" x2="-230.7" y2="-39.2"/>
					<line class="st3" x1="-229.3" y1="-57.6" x2="-230.7" y2="-59.1"/>
					<line class="st3" x1="-232.8" y1="-49" x2="-234.9" y2="-49"/>
				</g>
				<line class="st7" x1="-212.3" y1="-40.6" x2="-210.8" y2="-39.2"/>
				<line class="st7" x1="-212.3" y1="-57.6" x2="-210.8" y2="-59.1"/>
				<line class="st7" x1="-208.7" y1="-49" x2="-206.7" y2="-49"/>
			</g>
			<g class="st21">
				<path class="st10" d="M-216.1-49.5c0-2.6-2.1-4.7-4.7-4.7c-2.6,0-4.7,2.1-4.7,4.7c0,5.1,3.5,5.7,3.5,7.3v2
					c0,0.7-0.1,1.3,0.4,1.6c0.1,0.4,1.7,0.4,1.7,0c0.4-0.4,0.4-0.9,0.4-1.6v-2C-219.5-43.8-216.1-44.5-216.1-49.5z"/>
				<rect x="-220.8" y="-37.3" class="st10" width="0" height="0"/>
			</g>
			<g>
				<g>
					<line class="st3" x1="-220.8" y1="-61.1" x2="-220.8" y2="-63.1"/>
				</g>
				<g>
					<line class="st3" x1="-230.7" y1="-55.4" x2="-232.5" y2="-56.4"/>
				</g>
				<g>
					<line class="st3" x1="-230.7" y1="-44" x2="-232.4" y2="-42.9"/>
				</g>
				<g>
					<line class="st3" x1="-210.9" y1="-55.4" x2="-209.1" y2="-56.4"/>
				</g>
				<g>
					<line class="st3" x1="-210.9" y1="-44" x2="-209.1" y2="-42.9"/>
				</g>
				<path class="st5" d="M-216-49.6c0,3.3-2.9,7.6-4.7,7.6s-4.7-4-4.7-7.6c0-2.6,2.1-4.7,4.7-4.7C-218.1-54.3-216-52.2-216-49.6z"/>
				<line class="st6" x1="-220.8" y1="-46.4" x2="-220.8" y2="-38"/>
			</g>
		</g>
	</g>
</g>
<g>
	<g>
		<line class="st11" x1="-367.6" y1="18.3" x2="-367.6" y2="48.3"/>
		<line class="st11" x1="-382.6" y1="33.3" x2="-352.7" y2="33.3"/>
	</g>
</g>
<g>
	<g>
		<line class="st11" x1="-296.5" y1="33.3" x2="-252.8" y2="33.3"/>
	</g>
</g>
<g id="XMLID_32_">
	<g>
		<line class="st11" x1="-91.6" y1="15.6" x2="-91.6" y2="37"/>
		<line class="st11" x1="-101.3" y1="49.7" x2="-82" y2="49.7"/>
		<polyline class="st11" points="-82.8,29.8 -91.6,37 -100.5,29.8 		"/>
	</g>
</g>
<g id="XMLID_7_">
	<polygon class="st4" points="-192.9,16.1 -162,33.2 -192.9,50.3 	"/>
</g>
<g>
	<circle class="st14" cx="-470.2" cy="-240.5" r="135"/>
	<g>
		<g>
			<line class="st18" x1="-432.7" y1="-279" x2="-509.9" y2="-201.9"/>
			<line class="st18" x1="-509.9" y1="-279" x2="-432.7" y2="-201.9"/>
		</g>
	</g>
</g>
<g>
	<circle class="st14" cx="-167.2" cy="-240.5" r="135"/>
	<g>
		<g>
			<line class="st13" x1="-165.7" y1="-212.3" x2="-165.7" y2="-235.3"/>
			<line class="st13" x1="-165.6" y1="-235.3" x2="-178.8" y2="-248.4"/>
			<line class="st13" x1="-165.7" y1="-235.3" x2="-152.5" y2="-248.5"/>
		</g>
		<g class="st21">
			<g class="st17">
				<line class="st13" x1="-165.8" y1="-320.5" x2="-165.8" y2="-331.5"/>
				<line class="st13" x1="-211" y1="-211.5" x2="-218.7" y2="-203.7"/>
				<line class="st13" x1="-210.9" y1="-302.2" x2="-218.6" y2="-309.9"/>
				<line class="st13" x1="-229.8" y1="-256.1" x2="-240.8" y2="-256.1"/>
			</g>
			<line class="st2" x1="-120.6" y1="-211.5" x2="-112.8" y2="-203.7"/>
			<line class="st2" x1="-120.6" y1="-302.2" x2="-112.9" y2="-309.9"/>
			<line class="st2" x1="-101.7" y1="-256.1" x2="-90.8" y2="-256.1"/>
		</g>
		<line class="st13" x1="-179.5" y1="-212.3" x2="-152.1" y2="-212.3"/>
		<line class="st13" x1="-179.5" y1="-200" x2="-152.1" y2="-200"/>
		<line class="st13" x1="-179.3" y1="-187.3" x2="-152.2" y2="-187.3"/>
		<path class="st13" d="M-152.1-189.5c0,7.6-5.3,13.7-13.7,13.7c-8.4,0-13.7-6.2-13.7-13.7l0-19c0-11.5-23.8-19.4-23.8-48.9
			c0-20.5,16.8-37.6,37.5-37.6c20.7,0,37.5,17.8,37.5,37.6c0,29.4-23.8,38-23.8,48.9V-189.5z"/>
		<path class="st13" d="M-156-278.1c5.1,2.5,9.2,6.6,11.8,11.6"/>
	</g>
</g>
<g>
	<g>
		<path class="st14" d="M281.9-240.6c0,14.6-14,26.7-18.3,39.9c-4.4,13.6-0.4,31.7-8.6,43c-8.3,11.5-26.8,13.2-38.3,21.5
			c-11.3,8.2-18.6,25.3-32.2,29.8c-13.1,4.3-29-5.1-43.6-5.1c-14.6,0-30.4,9.4-43.6,5.1C83.7-110.9,76.4-128,65-136.3
			c-11.4-8.3-29.9-10-38.3-21.5c-8.2-11.3-4.2-29.4-8.6-43c-4.3-13.1-18.3-25.3-18.3-39.9s14-26.7,18.3-39.9
			c4.4-13.6,0.4-31.7,8.6-43C35.1-335,53.6-336.7,65-345c11.3-8.2,18.6-25.3,32.2-29.8c13.1-4.3,29,5.1,43.6,5.1
			c14.6,0,30.4-9.4,43.6-5.1c13.6,4.4,20.9,21.5,32.2,29.8c11.5,8.3,29.9,10,38.3,21.5c8.2,11.3,4.2,29.4,8.6,43
			C267.8-267.4,281.9-255.2,281.9-240.6z"/>
	</g>
	<g>
		<line class="st0" x1="191.7" y1="-269.2" x2="125" y2="-202.5"/>
		<line class="st0" x1="91.7" y1="-235.9" x2="125" y2="-202.5"/>
	</g>
</g>
<g>
	<line class="st12" x1="-71.4" y1="-37.3" x2="-49" y2="-59.7"/>
	<line class="st12" x1="-49" y1="-37.3" x2="-71.4" y2="-59.7"/>
</g>
<g>
	<line class="st11" x1="-264.6" y1="-49" x2="-285.5" y2="-49"/>
</g>
<g>
	<line class="st11" x1="-384.3" y1="-61" x2="-384.3" y2="-47.7"/>
	<line class="st11" x1="-390.3" y1="-39.8" x2="-378.4" y2="-39.8"/>
	<polyline class="st11" points="-378.9,-52.2 -384.3,-47.7 -389.8,-52.2 	"/>
</g>
<g>
	<line class="st11" x1="63.7" y1="-39.5" x2="63.7" y2="-58.9"/>
	<g id="XMLID_1_">
		<polygon class="st4" points="43.7,-57 57.9,-49.2 43.7,-41.4 		"/>
	</g>
</g>
<g>
	<g>
		<path class="st9" d="M-310-49.7c0,11-9,20-20,20c-11,0-20-9-20-20s9-20,20-20C-318.9-69.7-310-60.7-310-49.7z"/>
		<line class="st11" x1="-334.9" y1="-39.3" x2="-325" y2="-39.3"/>
		<polyline class="st11" points="-334.5,-50.6 -330,-50.6 -330,-39.3 		"/>
	</g>
	<circle class="st16" cx="-330" cy="-59.3" r="2.9"/>
</g>
<polyline class="st23" points="8.8,-53.2 -3.2,-41.2 -15.2,-53.2 "/>
<g>
	<g>
		<g>
			<g>
				<g>
					<g>
						<g>
							<polygon class="st19" points="5.9,68 33.9,59 62.1,68 33.9,6 							"/>
						</g>
					</g>
				</g>
			</g>
		</g>
	</g>
	<g>
		<g>
			<g>
				<g>
					<g>
						<g>
							<polygon class="st4" points="21,53.3 33.9,49.2 47,53.3 33.9,24.7 							"/>
						</g>
					</g>
				</g>
			</g>
		</g>
	</g>
</g>
</svg>
