<svg class="nextGenError" version="1.1" xmlns="http://www.w3.org/2000/svg" xmlns:xlink="http://www.w3.org/1999/xlink" x="0px" y="0px"
	 viewBox="0 0 208 177" style="enable-background:new 0 0 208 177;" xml:space="preserve">
  <g class="stroke-s grey-o" transform="translate(-1327 -147)">
    <g transform="translate(1515.479 634.888)">
        <line fill="none" stroke="#B1B1B1" stroke-width="2px" x1="-98" y1="-446" x2="-98" y2="-391.7" />
        <line fill="none" stroke="#B1B1B1" stroke-width="2px" x1="-98" y1="-381.6" x2="-98" y2="-371.4" />
    </g>
    <path fill="none" stroke="#B1B1B1" stroke-width="2px" d="M1507.8,301.9
      c0.4,0.8,0.2,1.7-0.6,2.2c-0.2,0.1-0.5,0.2-0.8,0.2h-176.8c-0.9,0-1.6-0.7-1.6-1.6c0-0.3,0.1-0.6,0.2-0.8l88.4-153.1
      c0.4-0.8,1.4-1,2.2-0.6c0.2,0.1,0.4,0.3,0.6,0.6L1507.8,301.9z"/>
  </g>
  <g class="stroke-s red-o" transform="translate(-18378.066 -3477)">
    <path style="fill:#FFFFFF;" stroke="#E84646" stroke-width="2px" d="M18472.1,3615h94c10.5,0,19,8.5,19,19l0,0c0,10.5-8.5,19-19,19h-94
      c-10.5,0-19-8.5-19-19l0,0C18453.1,3623.5,18461.6,3615,18472.1,3615z"/>
  </g>
</svg>
