<svg xmlns="http://www.w3.org/2000/svg" xmlns:xlink="http://www.w3.org/1999/xlink" width="274.181" height="64.558" viewBox="0 0 274.181 64.558">
  <defs>
    <clipPath id="clip-path">
      <rect width="274.181" height="64.558" fill="none"/>
    </clipPath>
  </defs>
  <g id="Komponente_4_6" data-name="Komponente 4 – 6" clip-path="url(#clip-path)">
    <g id="Gruppe_118" data-name="Gruppe 118" transform="translate(92.541)">
      <path id="Pfad_92" data-name="Pfad 92" d="M517.173,97.829a32.279,32.279,0,1,1,22.688-55.236,2.689,2.689,0,0,1-3.78,3.825,26.9,26.9,0,1,0,0,38.265,2.689,2.689,0,0,1,3.78,3.825A32.084,32.084,0,0,1,517.173,97.829Z" transform="translate(-484.894 -33.271)" fill="#fff"/>
      <g id="Gruppe_117" data-name="Gruppe 117" transform="translate(9.272 9.449)">
        <path id="Pfad_93" data-name="Pfad 93" d="M574.416,100.837l-14.85-2.485,5.008-7.332a.94.94,0,0,0-1.29-1.306l-7.449,3.9-2.4-13.856c-.072-.446-.453-.594-.9-.8a.96.96,0,0,0-.935.767l-2.809,13.856-7.109-4.027a.943.943,0,0,0-1.3,1.231l3.848,7.487-13.706,2.334a.965.965,0,0,0-.017,1.9l14.849,2.485-5.008,7.332a.94.94,0,0,0,1.289,1.306l7.449-3.9,2.4,13.894c.072.446.453.632.9.842a.989.989,0,0,0,.935-.805l2.81-13.875,7.109,4.018a.947.947,0,0,0,1.3-1.238l-3.849-7.488,13.706-2.335a.938.938,0,0,0,.795-.945c0-.01,0-.02,0-.03A.935.935,0,0,0,574.416,100.837Zm-19.378,3.251a3.377,3.377,0,1,1,0-4.776A3.375,3.375,0,0,1,555.038,104.087Z" transform="translate(-529.724 -78.957)" fill="#6da7bf"/>
      </g>
      <path id="Pfad_94" data-name="Pfad 94" d="M590.825,107.4c.15.15.3.3,0,0s-.154-.154,0,0a1.763,1.763,0,0,0-2.258-.192l-13.093,9.211a7.5,7.5,0,0,0-8.567,7.965q.018.269.057.536l-9.383,13.268a1.763,1.763,0,0,0,2.457,2.457l13.27-9.382a7.5,7.5,0,0,0,8.557-8.007q-.02-.253-.056-.5l9.213-13.09A1.763,1.763,0,0,0,590.825,107.4Zm-13.949,18.836a3.377,3.377,0,1,1,0-4.776A3.375,3.375,0,0,1,576.875,126.233Z" transform="translate(-542.289 -91.653)" fill="#fff"/>
    </g>
    <g id="Gruppe_121" data-name="Gruppe 121" transform="translate(0 16.275)">
      <g id="Gruppe_119" data-name="Gruppe 119" transform="translate(148.77)">
        <path id="Pfad_95" data-name="Pfad 95" d="M757.631,116.934a2.733,2.733,0,0,1-.869-2.106,2.666,2.666,0,0,1,.869-2.085,3.875,3.875,0,0,1,4.669,0,2.638,2.638,0,0,1,.89,2.085,2.735,2.735,0,0,1-.868,2.106,3.824,3.824,0,0,1-4.691,0Zm.412,25.93a2.446,2.446,0,0,1-.76-1.933V124.166a2.379,2.379,0,0,1,.76-1.911,2.863,2.863,0,0,1,1.933-.651,2.95,2.95,0,0,1,1.955.651,2.346,2.346,0,0,1,.781,1.911v16.765a2.411,2.411,0,0,1-.781,1.933,2.892,2.892,0,0,1-1.955.673A2.808,2.808,0,0,1,758.044,142.864Z" transform="translate(-756.763 -111.961)" fill="#fff"/>
        <path id="Pfad_96" data-name="Pfad 96" d="M811.732,154.945a1.767,1.767,0,0,1-.846,1.585,4.047,4.047,0,0,1-2.411.456L807.3,156.9q-7.3-.521-7.3-7.818v-9.468h-2.172a2.755,2.755,0,0,1-1.8-.521,2.149,2.149,0,0,1,0-3.04,2.756,2.756,0,0,1,1.8-.521h2.172v-4a2.442,2.442,0,0,1,.738-1.867,2.8,2.8,0,0,1,2-.695,2.74,2.74,0,0,1,1.955.695,2.444,2.444,0,0,1,.738,1.867v4h3.692a2.759,2.759,0,0,1,1.8.521,2.151,2.151,0,0,1,0,3.04,2.757,2.757,0,0,1-1.8.521h-3.692v9.859q0,3.214,2.953,3.431l1.173.087Q811.732,153.12,811.732,154.945Z" transform="translate(-787.411 -125.454)" fill="#fff"/>
        <path id="Pfad_97" data-name="Pfad 97" d="M900.374,158.994a2.362,2.362,0,0,1,1.281-.369,2.736,2.736,0,0,1,1.8.673,2.1,2.1,0,0,1,.8,1.672,2.233,2.233,0,0,1-.26,1l-11.857,24.844a2.427,2.427,0,0,1-2.3,1.477,2.675,2.675,0,0,1-1.759-.63,1.974,1.974,0,0,1-.76-1.585,2.8,2.8,0,0,1,.26-1.086l2.953-6.211-8.079-16.809a2.195,2.195,0,0,1-.217-1,2.118,2.118,0,0,1,.847-1.694,2.963,2.963,0,0,1,1.933-.695,2.549,2.549,0,0,1,1.346.369,2.468,2.468,0,0,1,.956,1.151l6.081,13.421,6.037-13.377A2.518,2.518,0,0,1,900.374,158.994Z" transform="translate(-856.289 -148.94)" fill="#fff"/>
        <path id="Pfad_98" data-name="Pfad 98" d="M1029.736,115.031a2.777,2.777,0,0,1,.738,2.019v25.712a2.585,2.585,0,0,1-.695,1.911,2.469,2.469,0,0,1-1.824.695,2.322,2.322,0,0,1-1.781-.695,2.682,2.682,0,0,1-.652-1.911V124.869l-7.383,13.985a4.317,4.317,0,0,1-1.129,1.412,2.323,2.323,0,0,1-1.433.456,2.4,2.4,0,0,1-1.434-.434,3.986,3.986,0,0,1-1.129-1.434l-7.427-13.768v17.677a2.646,2.646,0,0,1-.673,1.889,2.355,2.355,0,0,1-1.8.717,2.323,2.323,0,0,1-1.781-.695,2.682,2.682,0,0,1-.651-1.911V117.051a2.824,2.824,0,0,1,.716-2.019,2.531,2.531,0,0,1,1.933-.76,2.924,2.924,0,0,1,2.649,1.868l9.642,18.372,9.6-18.372a2.873,2.873,0,0,1,2.563-1.868A2.6,2.6,0,0,1,1029.736,115.031Z" transform="translate(-950.232 -113.793)" fill="#fff"/>
        <path id="Pfad_99" data-name="Pfad 99" d="M1172.479,160.355q2.149,2.194,2.15,6.667v10.6a2.45,2.45,0,0,1-.7,1.846,2.629,2.629,0,0,1-1.911.673,2.538,2.538,0,0,1-1.845-.695,2.424,2.424,0,0,1-.717-1.824v-.956a5.669,5.669,0,0,1-2.324,2.65,6.975,6.975,0,0,1-3.67.956,8.524,8.524,0,0,1-3.865-.869,6.875,6.875,0,0,1-2.736-2.389,6.034,6.034,0,0,1-1-3.388,5.362,5.362,0,0,1,1.194-3.692,7.18,7.18,0,0,1,3.887-1.955,35.414,35.414,0,0,1,7.427-.608h1.086v-1a4.447,4.447,0,0,0-.912-3.106,3.882,3.882,0,0,0-2.954-.977,9.387,9.387,0,0,0-2.562.369q-1.3.37-3.084,1.064a4.335,4.335,0,0,1-1.65.565,1.631,1.631,0,0,1-1.281-.565,2.14,2.14,0,0,1-.5-1.477,2.225,2.225,0,0,1,.369-1.281,3.5,3.5,0,0,1,1.238-1.021,14.182,14.182,0,0,1,3.627-1.3,18.719,18.719,0,0,1,4.148-.478Q1170.329,158.162,1172.479,160.355Zm-4.387,14.55a5.261,5.261,0,0,0,1.368-3.757v-.912h-.782a29.917,29.917,0,0,0-4.517.261,4.383,4.383,0,0,0-2.3.912,2.322,2.322,0,0,0-.7,1.781,2.947,2.947,0,0,0,.978,2.28,3.446,3.446,0,0,0,2.411.89A4.637,4.637,0,0,0,1168.092,174.905Z" transform="translate(-1073.322 -148.607)" fill="#fff"/>
        <path id="Pfad_100" data-name="Pfad 100" d="M1275.644,159.552a9.221,9.221,0,0,1,3.345,3.931,13.591,13.591,0,0,1,1.194,5.841,13.159,13.159,0,0,1-1.194,5.777,8.77,8.77,0,0,1-8.231,5.169,8.4,8.4,0,0,1-4.038-.956,6.694,6.694,0,0,1-2.737-2.65v8.86a2.254,2.254,0,0,1-.738,1.781,2.846,2.846,0,0,1-1.955.652,2.815,2.815,0,0,1-1.976-.7,2.356,2.356,0,0,1-.759-1.824V160.811a2.481,2.481,0,0,1,.716-1.868,2.656,2.656,0,0,1,1.932-.695,2.737,2.737,0,0,1,1.954.695,2.446,2.446,0,0,1,.739,1.868V161.9a6.652,6.652,0,0,1,2.758-2.758,8.464,8.464,0,0,1,4.1-.977A8.8,8.8,0,0,1,1275.644,159.552Zm-2.323,14.746a7.677,7.677,0,0,0,1.433-4.973,8.113,8.113,0,0,0-1.433-5.125,5.354,5.354,0,0,0-8.013-.043,9.776,9.776,0,0,0,0,10.12,5.42,5.42,0,0,0,8.013.022Z" transform="translate(-1154.773 -148.607)" fill="#fff"/>
      </g>
      <g id="Gruppe_120" data-name="Gruppe 120" transform="translate(0 0.478)">
        <path id="Pfad_101" data-name="Pfad 101" d="M66.507,115.031a2.777,2.777,0,0,1,.738,2.02v25.712a2.582,2.582,0,0,1-.695,1.911,2.468,2.468,0,0,1-1.824.7,2.323,2.323,0,0,1-1.781-.7,2.681,2.681,0,0,1-.651-1.911V124.869l-7.384,13.985a4.314,4.314,0,0,1-1.129,1.412,2.323,2.323,0,0,1-1.433.456,2.4,2.4,0,0,1-1.434-.434,3.983,3.983,0,0,1-1.129-1.433l-7.427-13.768v17.677a2.648,2.648,0,0,1-.673,1.889,2.356,2.356,0,0,1-1.8.717,2.323,2.323,0,0,1-1.781-.7,2.681,2.681,0,0,1-.651-1.911V117.051a2.826,2.826,0,0,1,.717-2.02,2.531,2.531,0,0,1,1.933-.76,2.925,2.925,0,0,1,2.649,1.868l9.642,18.372,9.6-18.372a2.874,2.874,0,0,1,2.563-1.868A2.6,2.6,0,0,1,66.507,115.031Z" transform="translate(-37.451 -114.271)" fill="#fff"/>
        <path id="Pfad_102" data-name="Pfad 102" d="M211.352,160.356q2.15,2.193,2.15,6.667v10.6a2.452,2.452,0,0,1-.695,1.846,2.63,2.63,0,0,1-1.911.673,2.539,2.539,0,0,1-1.846-.695,2.425,2.425,0,0,1-.717-1.824v-.956a5.666,5.666,0,0,1-2.324,2.649,6.974,6.974,0,0,1-3.67.956,8.525,8.525,0,0,1-3.865-.869,6.871,6.871,0,0,1-2.736-2.389,6.033,6.033,0,0,1-1-3.388,5.364,5.364,0,0,1,1.194-3.692,7.18,7.18,0,0,1,3.887-1.955,35.414,35.414,0,0,1,7.427-.608h1.086v-1a4.447,4.447,0,0,0-.912-3.105,3.882,3.882,0,0,0-2.954-.977,9.394,9.394,0,0,0-2.562.369q-1.3.37-3.084,1.064a4.338,4.338,0,0,1-1.65.564,1.631,1.631,0,0,1-1.281-.564,2.143,2.143,0,0,1-.5-1.477,2.223,2.223,0,0,1,.369-1.281A3.5,3.5,0,0,1,197,159.943a14.176,14.176,0,0,1,3.627-1.3,18.722,18.722,0,0,1,4.148-.478Q209.2,158.162,211.352,160.356Zm-4.387,14.55a5.262,5.262,0,0,0,1.368-3.757v-.912h-.782a29.909,29.909,0,0,0-4.517.261,4.381,4.381,0,0,0-2.3.912,2.323,2.323,0,0,0-.7,1.781,2.946,2.946,0,0,0,.977,2.28,3.446,3.446,0,0,0,2.411.89A4.638,4.638,0,0,0,206.965,174.905Z" transform="translate(-162.208 -149.084)" fill="#fff"/>
        <path id="Pfad_103" data-name="Pfad 103" d="M304.938,154.946a1.766,1.766,0,0,1-.847,1.585,4.044,4.044,0,0,1-2.411.456l-1.172-.087q-7.3-.521-7.3-7.818v-9.468h-2.172a2.757,2.757,0,0,1-1.8-.521,2.15,2.15,0,0,1,0-3.04,2.756,2.756,0,0,1,1.8-.521h2.172v-4a2.442,2.442,0,0,1,.738-1.868,2.8,2.8,0,0,1,2-.695,2.74,2.74,0,0,1,1.955.695,2.443,2.443,0,0,1,.738,1.868v4h3.692a2.757,2.757,0,0,1,1.8.521,2.15,2.15,0,0,1,0,3.04,2.759,2.759,0,0,1-1.8.521H298.64v9.859q0,3.215,2.954,3.431l1.173.087Q304.937,153.121,304.938,154.946Z" transform="translate(-236.662 -125.932)" fill="#fff"/>
        <path id="Pfad_104" data-name="Pfad 104" d="M396.907,132.079v10.684a2.536,2.536,0,0,1-.716,1.911,2.721,2.721,0,0,1-1.976.7,2.8,2.8,0,0,1-2-.7,2.493,2.493,0,0,1-.738-1.911V132.079a5.027,5.027,0,0,0-.934-3.366,3.706,3.706,0,0,0-2.932-1.064,4.956,4.956,0,0,0-3.757,1.477,5.481,5.481,0,0,0-1.412,3.952v9.686a2.5,2.5,0,0,1-.738,1.911,2.8,2.8,0,0,1-2,.7,2.719,2.719,0,0,1-1.976-.7,2.537,2.537,0,0,1-.716-1.911V116.79a2.355,2.355,0,0,1,.76-1.824,2.816,2.816,0,0,1,1.976-.7,2.846,2.846,0,0,1,1.954.652,2.254,2.254,0,0,1,.738,1.781v10.12a7.109,7.109,0,0,1,2.888-2.584,9.152,9.152,0,0,1,4.1-.89Q396.906,123.349,396.907,132.079Z" transform="translate(-306.786 -114.271)" fill="#fff"/>
      </g>
    </g>
  </g>
</svg>
