<?xml version="1.0" encoding="utf-8"?>
<!-- Generator: Adobe Illustrator 16.0.0, SVG Export Plug-In . SVG Version: 6.00 Build 0)  -->
<!DOCTYPE svg PUBLIC "-//W3C//DTD SVG 1.1//EN" "http://www.w3.org/Graphics/SVG/1.1/DTD/svg11.dtd">
<svg version="1.1" id="Ebene_1" xmlns="http://www.w3.org/2000/svg" xmlns:xlink="http://www.w3.org/1999/xlink" x="0px" y="0px"
	 width="48px" height="48px" viewBox="0 0 48 48" style="enable-background:new 0 0 48 48;" xml:space="preserve">
<style type="text/css">
<![CDATA[
	.st0{fill:none;stroke:#F3B100;stroke-width:10;stroke-linecap:round;stroke-miterlimit:10;}
	.st1{display:inline;fill:none;stroke:#FFFFFF;stroke-width:6;stroke-linecap:round;stroke-miterlimit:10;}
	.st2{display:inline;fill:none;stroke:#036D99;stroke-width:8;stroke-linecap:round;stroke-miterlimit:10;}
	.st3{fill:none;stroke:#FFFFFF;stroke-width:4;stroke-linecap:round;stroke-linejoin:round;stroke-miterlimit:10;}
	.st4{fill:none;stroke:#FFFFFF;stroke-width:5;stroke-linecap:round;stroke-linejoin:round;stroke-miterlimit:10;}
	.st5{fill:#FFFFFF;stroke:#FFFFFF;stroke-width:4;stroke-linecap:round;stroke-linejoin:round;stroke-miterlimit:10;}
	.st6{fill:#FFFFFF;stroke:#FFFFFF;stroke-width:6;stroke-linecap:round;stroke-linejoin:round;stroke-miterlimit:10;}
	.st7{display:inline;fill:none;stroke:#FFFFFF;stroke-width:4;stroke-linecap:round;stroke-linejoin:round;stroke-miterlimit:10;}
	.st8{display:inline;fill:none;stroke:#FFFFFF;stroke-width:6;stroke-linecap:round;stroke-linejoin:round;stroke-miterlimit:10;}
	.st9{display:none;fill:none;stroke:#FFFFFF;stroke-width:2;stroke-linecap:round;stroke-miterlimit:10;}
	
		.st10{display:inline;fill:#FFFFFF;stroke:#FFFFFF;stroke-width:4;stroke-linecap:round;stroke-linejoin:round;stroke-miterlimit:10;}
	.st11{fill:none;stroke:#FFFFFF;stroke-width:5;stroke-linecap:round;stroke-miterlimit:10;}
	.st12{fill:none;stroke:#FFFFFF;stroke-width:6;stroke-linecap:round;stroke-miterlimit:10;}
	.st13{fill:none;stroke:#036D99;stroke-width:8;stroke-linecap:round;stroke-miterlimit:10;}
	.st14{fill:none;stroke:#B2B2B2;stroke-width:4;stroke-linecap:round;stroke-miterlimit:10;stroke-dasharray:0,10;}
	.st15{opacity:0.5;}
	.st16{fill:#FFFFFF;}
	.st17{display:inline;}
	.st18{fill:none;stroke:#F35800;stroke-width:10;stroke-linecap:round;stroke-miterlimit:10;}
	.st19{fill:none;stroke:#FFFFFF;stroke-width:1.84;stroke-linecap:round;stroke-miterlimit:10;}
	.st20{display:none;}
	.st21{fill:none;stroke:#444444;stroke-width:4;stroke-linecap:round;stroke-linejoin:round;stroke-miterlimit:10;}
	.st22{fill:none;stroke:#444444;stroke-width:6;stroke-linecap:round;stroke-linejoin:round;stroke-miterlimit:10;}
	.st23{fill:#444444;stroke:#444444;stroke-width:4;stroke-linecap:round;stroke-linejoin:round;stroke-miterlimit:10;}
	.st24{fill:#FFFFFF;stroke:#444444;stroke-width:6;stroke-linecap:round;stroke-linejoin:round;stroke-miterlimit:10;}
]]>
</style>
<g id="XMLID_9_">
	<g>
		<g class="st20">
			<path class="st19" d="M-124.4,24.8c0,10.6-8.6,19.2-19.2,19.2c-10.6,0-19.2-8.6-19.2-19.2c0-10.6,8.6-19.2,19.2-19.2
				C-133,5.6-124.4,14.2-124.4,24.8z"/>
			<rect x="-143.6" y="36.6" class="st1" width="0" height="0"/>
			<path class="st8" d="M-150.4,18c0-3.8,3-6.8,6.8-6.8c3.8,0,6.8,3,6.8,6.8c0,3.8-3.3,7.3-6.8,8.9v1.5"/>
		</g>
		<g class="st20">
			<line class="st7" x1="-143.6" y1="27.6" x2="-143.6" y2="23.5"/>
			<line class="st7" x1="-143.6" y1="23.5" x2="-146.8" y2="20.3"/>
			<line class="st7" x1="-143.6" y1="23.5" x2="-140.4" y2="20.3"/>
		</g>
		<g class="st20">
			<g class="st17">
				<line class="st3" x1="-143.6" y1="12.4" x2="-143.6" y2="10.3"/>
				<line class="st3" x1="-152.1" y1="32.9" x2="-153.5" y2="34.3"/>
				<line class="st3" x1="-152.1" y1="15.8" x2="-153.5" y2="14.4"/>
				<line class="st3" x1="-155.6" y1="24.5" x2="-157.7" y2="24.5"/>
			</g>
			<line class="st7" x1="-135.1" y1="32.9" x2="-133.7" y2="34.3"/>
			<line class="st7" x1="-135.1" y1="15.8" x2="-133.7" y2="14.4"/>
			<line class="st7" x1="-131.6" y1="24.5" x2="-129.5" y2="24.5"/>
		</g>
		<g class="st20">
			<path class="st10" d="M-138.9,23.9c0-2.6-2.1-4.7-4.7-4.7c-2.6,0-4.7,2.1-4.7,4.7c0,5.1,3.5,5.7,3.5,7.3v2c0,0.7-0.1,1.3,0.4,1.6
				c0.1,0.4,1.7,0.4,1.7,0c0.4-0.4,0.4-0.9,0.4-1.6v-2C-142.4,29.7-138.9,28.9-138.9,23.9z"/>
			<rect x="-143.6" y="36.1" class="st10" width="0" height="0"/>
		</g>
		<g class="st15">
			<g>
				<line class="st21" x1="-143.6" y1="12.4" x2="-143.6" y2="10.3"/>
			</g>
			<g>
				<line class="st21" x1="-153.5" y1="18.1" x2="-155.3" y2="17"/>
			</g>
			<g>
				<line class="st21" x1="-153.5" y1="29.5" x2="-155.3" y2="30.5"/>
			</g>
			<g>
				<line class="st21" x1="-133.7" y1="18.1" x2="-131.9" y2="17"/>
			</g>
			<g>
				<line class="st21" x1="-133.7" y1="29.5" x2="-131.9" y2="30.5"/>
			</g>
			<path class="st23" d="M-138.8,23.9c0,3.3-2.9,7.6-4.7,7.6s-4.7-4-4.7-7.6c0-2.6,2.1-4.7,4.7-4.7
				C-140.9,19.2-138.8,21.3-138.8,23.9z"/>
			<line class="st24" x1="-143.6" y1="27.1" x2="-143.6" y2="35.5"/>
		</g>
	</g>
</g>
<g id="XMLID_5_">
	<g>
		<g id="detail-info_10_">
			<g class="st20">
				<path class="st19" d="M-178.4,24.8c0,10.6-8.6,19.2-19.2,19.2c-10.6,0-19.2-8.6-19.2-19.2c0-10.6,8.6-19.2,19.2-19.2
					C-187,5.6-178.4,14.2-178.4,24.8z"/>
				<rect x="-197.6" y="36.6" class="st1" width="0" height="0"/>
				<path class="st8" d="M-204.4,18c0-3.8,3-6.8,6.8-6.8c3.8,0,6.8,3,6.8,6.8c0,3.8-3.3,7.3-6.8,8.9v1.5"/>
			</g>
			<g class="st20">
				<line class="st7" x1="-197.6" y1="27.6" x2="-197.6" y2="23.5"/>
				<line class="st7" x1="-197.6" y1="23.5" x2="-200.8" y2="20.3"/>
				<line class="st7" x1="-197.6" y1="23.5" x2="-194.4" y2="20.3"/>
			</g>
			<g class="st20">
				<g class="st17">
					<line class="st3" x1="-197.6" y1="12.4" x2="-197.6" y2="10.3"/>
					<line class="st3" x1="-206.1" y1="32.9" x2="-207.5" y2="34.3"/>
					<line class="st3" x1="-206.1" y1="15.8" x2="-207.5" y2="14.4"/>
					<line class="st3" x1="-209.6" y1="24.5" x2="-211.7" y2="24.5"/>
				</g>
				<line class="st7" x1="-189.1" y1="32.9" x2="-187.7" y2="34.3"/>
				<line class="st7" x1="-189.1" y1="15.8" x2="-187.7" y2="14.4"/>
				<line class="st7" x1="-185.6" y1="24.5" x2="-183.5" y2="24.5"/>
			</g>
			<g class="st20">
				<path class="st10" d="M-192.9,23.9c0-2.6-2.1-4.7-4.7-4.7c-2.6,0-4.7,2.1-4.7,4.7c0,5.1,3.5,5.7,3.5,7.3v2
					c0,0.7-0.1,1.3,0.4,1.6c0.1,0.4,1.7,0.4,1.7,0c0.4-0.4,0.4-0.9,0.4-1.6v-2C-196.4,29.7-192.9,28.9-192.9,23.9z"/>
				<rect x="-197.6" y="36.1" class="st10" width="0" height="0"/>
			</g>
			<g class="st15">
				<g>
					<line class="st3" x1="-197.6" y1="12.4" x2="-197.6" y2="10.3"/>
				</g>
				<g>
					<line class="st3" x1="-207.5" y1="18.1" x2="-209.3" y2="17"/>
				</g>
				<g>
					<line class="st3" x1="-207.5" y1="29.5" x2="-209.3" y2="30.5"/>
				</g>
				<g>
					<line class="st3" x1="-187.7" y1="18.1" x2="-185.9" y2="17"/>
				</g>
				<g>
					<line class="st3" x1="-187.7" y1="29.5" x2="-185.9" y2="30.5"/>
				</g>
				<path class="st5" d="M-192.8,23.9c0,3.3-2.9,7.6-4.7,7.6s-4.7-4-4.7-7.6c0-2.6,2.1-4.7,4.7-4.7
					C-194.9,19.2-192.8,21.3-192.8,23.9z"/>
				<line class="st6" x1="-197.6" y1="27.1" x2="-197.6" y2="35.5"/>
			</g>
		</g>
	</g>
</g>
<g id="XMLID_4_">
	<g>
		<g id="detail-info_9_">
			<g class="st20">
				<path class="st19" d="M-231.4,24.8c0,10.6-8.6,19.2-19.2,19.2c-10.6,0-19.2-8.6-19.2-19.2c0-10.6,8.6-19.2,19.2-19.2
					C-240,5.6-231.4,14.2-231.4,24.8z"/>
				<rect x="-250.6" y="36.6" class="st1" width="0" height="0"/>
				<path class="st8" d="M-257.4,18c0-3.8,3-6.8,6.8-6.8c3.8,0,6.8,3,6.8,6.8c0,3.8-3.3,7.3-6.8,8.9v1.5"/>
			</g>
			<g class="st20">
				<line class="st7" x1="-250.6" y1="27.6" x2="-250.6" y2="23.5"/>
				<line class="st7" x1="-250.6" y1="23.5" x2="-253.8" y2="20.3"/>
				<line class="st7" x1="-250.6" y1="23.5" x2="-247.4" y2="20.3"/>
			</g>
			<g class="st20">
				<g class="st17">
					<line class="st3" x1="-250.6" y1="12.4" x2="-250.6" y2="10.3"/>
					<line class="st3" x1="-259.1" y1="32.9" x2="-260.5" y2="34.3"/>
					<line class="st3" x1="-259.1" y1="15.8" x2="-260.5" y2="14.4"/>
					<line class="st3" x1="-262.6" y1="24.5" x2="-264.7" y2="24.5"/>
				</g>
				<line class="st7" x1="-242.1" y1="32.9" x2="-240.7" y2="34.3"/>
				<line class="st7" x1="-242.1" y1="15.8" x2="-240.7" y2="14.4"/>
				<line class="st7" x1="-238.6" y1="24.5" x2="-236.5" y2="24.5"/>
			</g>
			<g class="st20">
				<path class="st10" d="M-245.9,23.9c0-2.6-2.1-4.7-4.7-4.7c-2.6,0-4.7,2.1-4.7,4.7c0,5.1,3.5,5.7,3.5,7.3v2
					c0,0.7-0.1,1.3,0.4,1.6c0.1,0.4,1.7,0.4,1.7,0c0.4-0.4,0.4-0.9,0.4-1.6v-2C-249.4,29.7-245.9,28.9-245.9,23.9z"/>
				<rect x="-250.6" y="36.1" class="st10" width="0" height="0"/>
			</g>
			<g>
				<g>
					<line class="st3" x1="-250.6" y1="12.4" x2="-250.6" y2="10.3"/>
				</g>
				<g>
					<line class="st3" x1="-260.5" y1="18.1" x2="-262.3" y2="17"/>
				</g>
				<g>
					<line class="st3" x1="-260.5" y1="29.5" x2="-262.3" y2="30.5"/>
				</g>
				<g>
					<line class="st3" x1="-240.7" y1="18.1" x2="-238.9" y2="17"/>
				</g>
				<g>
					<line class="st3" x1="-240.7" y1="29.5" x2="-238.9" y2="30.5"/>
				</g>
				<path class="st5" d="M-245.8,23.9c0,3.3-2.9,7.6-4.7,7.6s-4.7-4-4.7-7.6c0-2.6,2.1-4.7,4.7-4.7
					C-247.9,19.2-245.8,21.3-245.8,23.9z"/>
				<line class="st6" x1="-250.6" y1="27.1" x2="-250.6" y2="35.5"/>
			</g>
		</g>
	</g>
</g>
<g>
	<g>
		<line class="st11" x1="-397.5" y1="91.8" x2="-397.5" y2="121.7"/>
		<line class="st11" x1="-412.4" y1="106.8" x2="-382.5" y2="106.8"/>
	</g>
</g>
<g>
	<g>
		<line class="st11" x1="-326.3" y1="106.8" x2="-282.6" y2="106.8"/>
	</g>
</g>
<g id="XMLID_32_">
	<g>
		<line class="st11" x1="-121.5" y1="89.1" x2="-121.5" y2="110.5"/>
		<line class="st11" x1="-131.1" y1="123.2" x2="-111.8" y2="123.2"/>
		<polyline class="st11" points="-112.6,103.2 -121.5,110.5 -130.3,103.2 		"/>
	</g>
</g>
<g id="XMLID_7_">
	<polygon class="st4" points="-222.7,89.6 -191.8,106.7 -222.7,123.7 	"/>
</g>
<g>
	<circle class="st14" cx="-500" cy="-167" r="135"/>
	<g>
		<g>
			<line class="st18" x1="-462.6" y1="-205.6" x2="-539.7" y2="-128.4"/>
			<line class="st18" x1="-539.7" y1="-205.6" x2="-462.6" y2="-128.4"/>
		</g>
	</g>
</g>
<g>
	<circle class="st14" cx="-197" cy="-167" r="135"/>
	<g>
		<g>
			<line class="st13" x1="-195.6" y1="-138.8" x2="-195.6" y2="-161.8"/>
			<line class="st13" x1="-195.5" y1="-161.8" x2="-208.6" y2="-175"/>
			<line class="st13" x1="-195.6" y1="-161.8" x2="-182.4" y2="-175"/>
		</g>
		<g class="st20">
			<g class="st17">
				<line class="st13" x1="-195.6" y1="-247.1" x2="-195.6" y2="-258"/>
				<line class="st13" x1="-240.8" y1="-138" x2="-248.5" y2="-130.3"/>
				<line class="st13" x1="-240.7" y1="-228.7" x2="-248.4" y2="-236.5"/>
				<line class="st13" x1="-259.6" y1="-182.6" x2="-270.6" y2="-182.6"/>
			</g>
			<line class="st2" x1="-150.4" y1="-138" x2="-142.6" y2="-130.3"/>
			<line class="st2" x1="-150.5" y1="-228.7" x2="-142.7" y2="-236.5"/>
			<line class="st2" x1="-131.5" y1="-182.6" x2="-120.6" y2="-182.6"/>
		</g>
		<line class="st13" x1="-209.3" y1="-138.8" x2="-181.9" y2="-138.8"/>
		<line class="st13" x1="-209.3" y1="-126.5" x2="-181.9" y2="-126.5"/>
		<line class="st13" x1="-209.1" y1="-113.9" x2="-182" y2="-113.9"/>
		<path class="st13" d="M-181.9-116c0,7.6-5.3,13.7-13.7,13.7c-8.4,0-13.7-6.2-13.7-13.7l0-19c0-11.5-23.8-19.4-23.8-48.9
			c0-20.5,16.8-37.6,37.5-37.6c20.7,0,37.5,17.8,37.5,37.6c0,29.4-23.8,38-23.8,48.9V-116z"/>
		<path class="st13" d="M-185.8-204.6c5.1,2.5,9.2,6.6,11.8,11.6"/>
	</g>
</g>
<g>
	<g>
		<path class="st14" d="M252-167.2c0,14.6-14,26.7-18.3,39.9c-4.4,13.6-0.4,31.7-8.6,43c-8.3,11.5-26.8,13.2-38.3,21.5
			c-11.3,8.2-18.6,25.3-32.2,29.8c-13.1,4.3-29-5.1-43.6-5.1c-14.6,0-30.4,9.4-43.6,5.1c-13.6-4.4-20.9-21.5-32.2-29.8
			C23.8-71.1,5.3-72.8-3-84.3c-8.2-11.3-4.2-29.4-8.6-43C-16-140.4-30-152.6-30-167.2s14-26.7,18.3-39.9c4.4-13.6,0.4-31.7,8.6-43
			c8.3-11.5,26.8-13.2,38.3-21.5c11.3-8.2,18.6-25.3,32.2-29.8c13.1-4.3,29,5.1,43.6,5.1c14.6,0,30.4-9.4,43.6-5.1
			c13.6,4.4,20.9,21.5,32.2,29.8c11.5,8.3,29.9,10,38.3,21.5c8.2,11.3,4.2,29.4,8.6,43C238-193.9,252-181.7,252-167.2z"/>
	</g>
	<g>
		<line class="st0" x1="161.9" y1="-195.7" x2="95.2" y2="-129"/>
		<line class="st0" x1="61.9" y1="-162.4" x2="95.2" y2="-129"/>
	</g>
</g>
<g>
	<line class="st12" x1="-101.2" y1="36.2" x2="-78.8" y2="13.8"/>
	<line class="st12" x1="-78.8" y1="36.2" x2="-101.2" y2="13.8"/>
</g>
<g>
	<line class="st11" x1="-294.4" y1="24.4" x2="-315.3" y2="24.4"/>
</g>
<g>
	<line class="st11" x1="-414.2" y1="12.5" x2="-414.2" y2="25.8"/>
	<line class="st11" x1="-420.2" y1="33.7" x2="-408.2" y2="33.7"/>
	<polyline class="st11" points="-408.7,21.3 -414.2,25.8 -419.7,21.3 	"/>
</g>
<g>
	<line class="st11" x1="33.9" y1="34" x2="33.9" y2="14.6"/>
	<g id="XMLID_1_">
		<polygon class="st4" points="13.9,16.4 28.1,24.3 13.9,32.1 		"/>
	</g>
</g>
<g>
	<g>
		<path class="st9" d="M-339.8,23.8c0,11-9,20-20,20c-11,0-20-9-20-20s9-20,20-20C-348.7,3.8-339.8,12.7-339.8,23.8z"/>
		<line class="st11" x1="-364.8" y1="34.2" x2="-354.8" y2="34.2"/>
		<polyline class="st11" points="-364.3,22.9 -359.8,22.9 -359.8,34.2 		"/>
	</g>
	<circle class="st16" cx="-359.8" cy="14.2" r="2.9"/>
</g>
<polyline class="st22" points="-21,20.3 -33,32.3 -45,20.3 "/>
</svg>
