<?xml version="1.0" encoding="utf-8"?>
<!-- Generator: Adobe Illustrator 22.0.1, SVG Export Plug-In . SVG Version: 6.00 Build 0)  -->
<svg version="1.1" id="Ebene_1" xmlns="http://www.w3.org/2000/svg" xmlns:xlink="http://www.w3.org/1999/xlink" x="0px" y="0px"
	 viewBox="0 0 293.5 280" style="enable-background:new 0 0 293.5 280;" xml:space="preserve">
<style type="text/css">
	.st0{display:none;}
	.st1{fill:none;stroke:#FFFFFF;stroke-width:1.84;stroke-linecap:round;stroke-miterlimit:10;}
	.st2{display:inline;fill:none;stroke:#FFFFFF;stroke-width:6;stroke-linecap:round;stroke-miterlimit:10;}
	.st3{display:inline;fill:none;stroke:#FFFFFF;stroke-width:6;stroke-linecap:round;stroke-linejoin:round;stroke-miterlimit:10;}
	.st4{display:inline;fill:none;stroke:#FFFFFF;stroke-width:4;stroke-linecap:round;stroke-linejoin:round;stroke-miterlimit:10;}
	.st5{display:inline;}
	.st6{fill:none;stroke:#FFFFFF;stroke-width:4;stroke-linecap:round;stroke-linejoin:round;stroke-miterlimit:10;}
	
		.st7{display:inline;fill:#FFFFFF;stroke:#FFFFFF;stroke-width:4;stroke-linecap:round;stroke-linejoin:round;stroke-miterlimit:10;}
	.st8{opacity:0.5;}
	.st9{fill:none;stroke:#444444;stroke-width:4;stroke-linecap:round;stroke-linejoin:round;stroke-miterlimit:10;}
	.st10{fill:#444444;stroke:#444444;stroke-width:4;stroke-linecap:round;stroke-linejoin:round;stroke-miterlimit:10;}
	.st11{fill:#FFFFFF;stroke:#444444;stroke-width:6;stroke-linecap:round;stroke-linejoin:round;stroke-miterlimit:10;}
	.st12{fill:#FFFFFF;stroke:#FFFFFF;stroke-width:4;stroke-linecap:round;stroke-linejoin:round;stroke-miterlimit:10;}
	.st13{fill:#FFFFFF;stroke:#FFFFFF;stroke-width:6;stroke-linecap:round;stroke-linejoin:round;stroke-miterlimit:10;}
	.st14{fill:none;stroke:#FFFFFF;stroke-width:5;stroke-linecap:round;stroke-miterlimit:10;}
	.st15{fill:none;stroke:#FFFFFF;stroke-width:5;stroke-linecap:round;stroke-linejoin:round;stroke-miterlimit:10;}
	.st16{fill:none;stroke:#B2B2B2;stroke-width:4;stroke-linecap:round;stroke-miterlimit:10;stroke-dasharray:0,10;}
	.st17{fill:none;stroke:#F35800;stroke-width:10;stroke-linecap:round;stroke-miterlimit:10;}
	.st18{fill:none;stroke:#036D99;stroke-width:8;stroke-linecap:round;stroke-miterlimit:10;}
	.st19{display:inline;fill:none;stroke:#036D99;stroke-width:8;stroke-linecap:round;stroke-miterlimit:10;}
	.st20{fill:none;stroke:#F3B100;stroke-width:10;stroke-linecap:round;stroke-miterlimit:10;}
	.st21{fill:none;stroke:#FFFFFF;stroke-width:6;stroke-linecap:round;stroke-miterlimit:10;}
	.st22{display:none;fill:none;stroke:#FFFFFF;stroke-width:2;stroke-linecap:round;stroke-miterlimit:10;}
</style>
<g>
	<g>
		<path class="st16" d="M288,139.8c0,14.6-14,26.7-18.3,39.9c-4.4,13.6-0.4,31.7-8.6,43c-8.3,11.5-26.8,13.2-38.3,21.5
			c-11.3,8.2-18.6,25.3-32.2,29.8c-13.1,4.3-29-5.1-43.6-5.1c-14.6,0-30.4,9.4-43.6,5.1c-13.6-4.4-20.9-21.5-32.2-29.8
			c-11.4-8.3-29.9-10-38.3-21.5c-8.2-11.3-4.2-29.4-8.6-43C20,166.6,6,154.4,6,139.8c0-14.6,14-26.7,18.3-39.9
			c4.4-13.6,0.4-31.7,8.6-43c8.3-11.5,26.8-13.2,38.3-21.5c11.3-8.2,18.6-25.3,32.2-29.8c13.1-4.3,29,5.1,43.6,5.1
			c14.6,0,30.4-9.4,43.6-5.1c13.6,4.4,20.9,21.5,32.2,29.8c11.5,8.3,29.9,10,38.3,21.5c8.2,11.3,4.2,29.4,8.6,43
			C274,113.1,288,125.3,288,139.8z"/>
	</g>
	<g>
		<line class="st20" x1="197.9" y1="111.3" x2="131.2" y2="178"/>
		<line class="st20" x1="97.9" y1="144.6" x2="131.2" y2="178"/>
	</g>
</g>
</svg>
