<?xml version="1.0" encoding="utf-8"?>
<!-- Generator: Adobe Illustrator 23.0.3, SVG Export Plug-In . SVG Version: 6.00 Build 0)  -->
<svg version="1.1" id="Ebene_1" xmlns="http://www.w3.org/2000/svg" xmlns:xlink="http://www.w3.org/1999/xlink" x="0px" y="0px"
	 viewBox="0 0 566 7.6" style="enable-background:new 0 0 566 7.6;" xml:space="preserve">
<style type="text/css">
	.st0{fill:#EECE93;}
</style>
<title>border-input</title>
<g id="Ebene_2_1_">
	<g id="final-design">
		<path class="st0" d="M1.4,1.8C-0.7,1.9,2.5,2.4,0,2C0.3,1.7,0.9,1.5,1.4,1.8z"/>
		<path class="st0" d="M559.1,2.6c-6.7,1.2-15.5,0-22.8,0.7c-0.9,0,0.2-0.6-1.7-0.5c-7.1,0.9-18.3,0.3-26.9-0.3l0.5-0.2
			c-1.6-0.1-3.7,0.4-5.4,0.4c0-0.1,0.5-0.2,0.1-0.3c-0.4,0.3-3.2,0.2-3.9,0.4c-0.7-0.1-0.6-0.4-1.5-0.5l-1,0.4
			c-2.8,0.9-6.8-0.1-10.5,0.4c0.2-0.1,0.6-0.2,0.3-0.2c-6.1,0.6-13.7,0.5-20.5,0.7c0.3-0.1,0.5-0.4,0.1-0.5
			c-0.3,0.4-2.4,0.5-4.3,0.6c-0.8-0.4-3.1,0.4-5.3,0.2l0.2-0.1c-1.6,0.4-2.4-0.2-3.6,0.3l-1-0.3c-0.7,0.6-2.3-0.3-3.6,0v0.1
			c-1.2,0.1-1.9-0.2-3-0.1l-0.1-0.1C442.5,3.9,441,3.5,441,4c-0.9-0.4,2.6-0.2,1.1-0.7c-8.8,0.5-17.9,0.4-26.7,0.4
			c-0.6-0.1-1.3-0.2-1.9-0.4c-1.4,0-2.8,0.1-4.1,0.3c0.3,0-0.6-0.2-1-0.2c-1.6-0.2-1.8,0.5-3.5,0.3c0.7-0.1,0.9-0.3,0.7-0.4
			c-1.8,0.3-3.5,0.4-5.3,0.4c0.3-0.1,0.7-0.1,0.6-0.3c-2,0.4-3.6-0.1-5.3,0.2l0.6-0.3c-2.8-0.3-0.8,0.5-3.2,0.4
			c0.6-0.1,0.4-0.2,0.5-0.3c-2.2,0.5-5.8,0.3-8,0.5c0.1,0,0.1-0.1,0.1-0.1c-2.4,0.1-4.9-0.1-7.6,0.1c-1-0.1,0.3-0.7-2.2-0.5
			c0.1,0.5-4.3,0.2-2.8,0.8c-2.4-0.2-4.7-0.2-7.1-0.1c1-0.2-1.1-0.7,0.8-0.7l-1.4-0.3c0.2-0.2,1.4,0.1,1-0.2c-0.9,0-3.6,0.2-4.4,0.2
			c-2,0.6-4,0.9-6,1c1.3-0.2-0.7-0.6,0.1-0.7l-3.8,1c-0.9,0-0.2-0.4-1.5-0.3c0.1,0.1-0.5,0.2-0.9,0.4c-0.3-0.1-3.8,0.1-4.2-0.4
			c-0.4-0.2,1.5-0.1,0.5-0.3c-1.7,0-1.8,0.2-3.4,0.2V3.6c-1.1-0.1-3.3,0.2-2.1,0.5c0.8,0-0.3-0.3,0.9-0.2c-1.4,0.3-2.9,0.5-4.4,0.4
			c0.6-0.1,0.5-0.2,0.7-0.4c-2.4,0.4-4.8,0.6-7.1,0.7c0,0.2,0.9-0.5,1.3-0.3c-3.2-0.3-6.6,0.5-9.3,0c0.4,0,0.2,0.4,0.2,0.3
			c-1.5,0-1.5-0.4-2.5-0.3c-0.1-0.2-1.3,0.1-2.3,0.1c-0.5,0.2-0.3-0.1,0.6-0.1c-3.6,0.4-7.1,0.4-10.7,0.2c-0.9,0.3-1.9,0.5-2.8,0.5
			l0.3-0.3c-0.7-0.2-2.6,0-2.7-0.2c-1.6,0.4,6.3-0.4,4.1,0c-0.6-0.3-3.1,0.5-2.6,0.1c-1.5,0-3,0.4-4.5,0.1c0.4,0.1,1.3-0.5,0-0.4
			c-2.2,0.1-0.6,0.2-2.4,0.3l-1.1,0.1c-0.1,0.3-2,0-1.1,0.3c-0.3-0.3-3.2,0.2-3-0.4l0.3-0.4c-0.8,0.1-1.6,0.3-2.3,0.7
			c-0.1,0-0.4-0.1-0.3-0.2c-0.2,0.7-2.3,0-3.4,0.5c-2-0.2-5.1,0-6-0.4c-1.5,0.3-3.1,0.4-4.7,0.3c0.4-0.1,0.8-0.1,0.9-0.2
			c-0.8-0.1-1.6-0.1-2.4,0.1c-1.1-0.3-2.3-0.5-3.4-0.6c-1.5,0.2-1,0.6-1.2,0.8c-1.4-0.7-4.3,0.4-6-0.2c0.5-0.1,2.2-0.3,1-0.5
			c-1.4-0.7-2.8,0.5-5.1,0.2L260,5c-1-0.3-3.3,0.3-3.1-0.2c-0.8,0.2-2.6-0.2-2.4,0.4c-3.7-0.5-9,0.3-11.2-0.7
			c-0.5,0.1-1.9,0-1.6,0.3c0.9,0.3,1.2-0.2,1.6,0c-0.5,0-0.6,0.2-0.6,0.2c-1.1-0.1-2-0.2-1-0.6c-2.6-0.3-2.6,1-5.9,0.7
			c0.1-0.2-0.1-0.3-1.1-0.3l-1.8,0.4c-2.1-0.1-1.2-0.5-1.2-0.9c-1,0-2,0.1-3,0.3l-1.4-0.5c1,0.4-0.9,0.2-1.4,0.3l0.5-0.1
			c-0.7-0.1-1.4-0.1-2.2,0c0.1,0.2,1.5,0.3,2.2,0.4c-0.6,0.2-1.5,0.1-2.2,0.3c0.3-0.4-1.8-0.3-2.7-0.3S220.4,5,220.1,5
			c0-0.2-1.7,0-0.9-0.3c0.3-0.1,0.8,0.2,1.4,0c-0.7-0.2-0.6-0.5-2-0.2c-1.1,0.2,0.3,0.8-1.7,0.5c0.3-0.1,0.7-0.2,1-0.4L216,4.5
			l-0.1,0.3c-0.2-0.1-0.1-0.1-0.2-0.2c-0.6,0.4-2.9,0.1-3.3,0.5c-1,0-2-0.2-2.9-0.3h0.2c-1.2-0.2-2.4-0.1-3.5,0.2v0.1
			c-0.9,0-1.9,0-2.8,0.2c-1.5-0.3-0.5-1.4-2.2-0.9c-1.5,0-2.4,0.7-1.8,0.9c-2.8-0.2-5.9,0.4-8.5-0.2c-0.4,0.2-0.1,0.2-1,0.3
			c-4.1-0.1-8.6,0.5-11.9-0.3c1.2-0.2,0.1-0.4,0.1-0.6c-1,0.3-1.2-0.3-1.5,0.2c0.1,0.3,0,0.5,1.1,0.6c-2.5,0.2-5,0.2-7.5-0.1
			c0.7,0.2,0.1,0.3-0.4,0.4c0.2-0.5-1.6-0.6-3-0.4l-0.2,0.3l-0.9-0.3c-0.5,0.1-0.6,0.7-1.9,0.4c-0.1-0.2-0.2-0.3-0.4-0.3
			c-1.6,0.4-3.3,0.6-4.9,0.5l-1.2-0.5c-0.6,0.1-1.8,0.3-0.6,0.5c-2.6-0.3-4.3-0.3-5.1-0.7c-4.5,1-11,1.1-16.2,1.1l0.1-0.3
			c-1.4-0.2-0.7,0.5-1.7,0.3c0.4-0.2-1.1-0.5,0-0.8c-2-0.3-2.6,0.4-3.9,0.6c-0.2,0.3,1-0.2,0.8,0.2c-0.2,0.1-2.8-0.3-3.1,0.3
			c-0.5-0.2-0.1-0.6,0.2-0.8l-1.2,0.2c-1.5-0.6,3.4-1.1,1.8-1.8h-1c-1.1-0.5,3-0.6,0.2-0.8c-1.2,0.2-2.3,1-1.2,1.2
			c-2.6,0.2-1.2,1.2-3.9,1.2c-0.8-0.3,2.2-0.1,1.7-0.5c-1.3-0.4-2.6,0.2-3.8,0.1c1.3,0.2,0.2,0.7-0.6,0.8c-1.4-0.2,0.9-0.5-1.1-0.6
			c-0.3,0.3-2.2,0.6-0.6,0.8C117.4,7,116,6.1,115,6.7c-0.7-0.5,2-1.1-0.1-1.4c0.3,0.5-2.7,0.7-1.5,1.3c-0.8-0.1-0.9-0.5-0.3-0.8
			c-1.2-0.3-3,0.9-3.4-0.1l-0.4,0.5c-0.4-0.2-0.9-0.3-1.6-0.5c-1.1,0-3.5,0.7-3.4,0c-0.3,0.1-2.8,0.1-1.8,0.6
			c1.5,0.3,1.8-0.4,2.6,0.3C104,6,102.9,6.7,102,6.9l-0.1-0.3c-0.5,0.1-1.7,0.1-2.1,0.4c0.4-0.2,0.2-0.4-0.2-0.4L99.1,7
			c-2.1,0.2-0.5-0.8-2.6-0.6L98.1,6c-0.7-0.1-1.3-0.2-2-0.2C95.7,6.2,95,6.7,94.7,7c-1.2,0.2-0.5-0.5-1.7,0l1.5-0.5
			c0.2-0.1-1-0.7-2.6-0.7c-1,0.2-2.6,0.8-1,1c-0.8,0-1.9-0.2-1.3-0.5c-1.8,0.2,0.2,0.4-1.3,0.7c-0.6-0.3-2.6-0.7-3.8-1l1.6-0.7H85
			c1.4-0.6-0.7-0.4,0.1-1c-0.8,0-1.6,0.1-2.3,0.3c2.1,0.9-2.4,1.3-1.8,2.2c-2.9,0.3-1.8-2.1-4.8-0.7c0.5,0.2-0.9,0.9,0.9,0.6
			c-1.8-0.1-1.2,0.9-3.3,0.6c1.6-0.4-1.7-0.9,0.6-1.4C74.2,6.2,75.7,6.1,76,6c-0.7-0.3,0.2-0.9-1.7-0.9c-1.1,0.1-2.7,0.1-2.4,0.6
			c0,0.5,1.7-0.1,1,0.4c-2.2,0.2-2.6-0.6-3.6,0.3c1.4-0.1,1.8,0.4,1.8,0.8l-1.7,0.2L69.8,7c-2.6-0.2-0.8,0.6-3.3,0.6l-1.2-0.7
			c0.6-0.6,3.7,0.2,3.3-0.7c-1.7,0-2.2,0.5-3.8,0.2c0.4-0.1,0.8-0.1,1.2-0.2c-0.6,0-1.2-1.3-3.6-0.5C61.1,6,62,6,62,6.4
			c-2.7,0.1-3.5,0.5-5.2,0.6c0.4-0.7-3,0-1.1-0.8c0.9,0.4,4.8,0.3,5.7-0.4c-1-0.8,2.1,0.1,2.7-0.8c-2.1,0-2-0.8-2.4-1.4
			c-0.5,0-1.1,0.1-1.6,0.3c-0.2,0.5,0.5,0.5,0.6,1c-2-0.2-4.1,0.1-6,0.7c-0.8-0.2-0.5-0.8,0.4-0.8c-2.9,0.2-5.7,0.2-8.6,0
			c1.8,0.9-3,0.2-1.8,1C46,6,47.3,6.6,46.5,7c-0.9-0.1,0-0.4-0.3-0.6c-1.2,0.5-1.8-0.8-2.9,0c2.6-0.3,0.5-1.1,1-1.8
			c-1.9,0.4,0.1-0.5-1.8-0.5c-2.1,0.4-4.2,0.7-6.2,0.9c-2.6-0.7-6.6,0-9,0.1c-1.2-0.4-0.4-1.2-1.7-1.3c-1.5,0,1.1,0.9-1.1,0.5
			l0.2-0.2c-0.7,0.2-4.2-0.6-4.9,0.7l0.7-0.9c-0.4,0-0.8,0.1-1.2,0.2c0-0.3-0.5-0.6,0.2-0.8c-1.4-0.6-3,0.1-4.5,0.1L16,4
			c-2.6,0.4-4.4-0.1-7,0.1V3.6L7.5,3.9c0.4-0.5-1-0.9-1.8-0.4l4-1.4c1.1,0.3-1.2,0.7-0.5,1.2s3,0.3,3.3-0.2c-0.6-0.1-1.1,0-1.7,0.3
			c-0.3-0.8,1.1-0.7,1.8-1.2c-0.5,0-1.1-0.2-1.2,0c1.1-0.4,2.3-0.5,3.4-0.4c-1.1,0.3,0.6,0.5,0.2,0.7c0.1-0.7,1.6-0.9,3.5-0.7
			c1.4,0.8,3.6-0.5,5.8-0.2c-1,0.7-2.2,1.3-3.5,1.5c1.4,0.3,1.6,0,3,0.3c0.8-0.8,1.9-1.3,3-1.5l0.1,0.5c1.7-0.2,1.7-0.9,3.8-0.8
			c3.6,0.2,7.3,0.3,10,0.3l0.1,0.4c1.5-1,5.1-0.3,7.2-0.8c3.5,0.4,7.6-0.4,9.4,0.4c6.2-0.3,11.6-0.6,18-0.4l-1.1,0.6
			c1.1-0.4,0.7,0.3,1.9,0.2c-1.3-0.5,1.6-0.6,2.4-1c3,0.3,6,0.2,9-0.4l0.1,0.4c2.6-0.7,5.6-0.1,8.8,0.1c0.6,0.3,1.2,0.5,1.9,0.5
			c1.7-0.6,2.6-0.6,5.2-0.9c2.2,0,4.5,0.2,6.7,0.4c7-0.8,14-0.2,21.3-0.7l0.5,0.4c7-0.9,15.6,0,21.6-0.5l-0.6,0.7
			c1.9,0.2,4.3-0.2,3.8-0.7c1.9,0.2,4.7-0.3,5.9,0.2c1.9,0.1,2.4-0.3,3.9-0.4c3,0.2,5.9,0.3,8.9,0.1h-0.9c-0.4,0.1-0.4,0.4,0.5,0.5
			c1.4-0.2,5,0.2,3.6-0.6c3.9,0.5,9-0.3,12.8,0.3c-0.3-0.2,0.6-0.3,1-0.4c3.4,0,7,0.4,9.7,0.1c0.6,0.1-0.9,0.4,0.5,0.4
			c0.8-0.1,0-0.3,1-0.4c5.5-0.4,11.1,0.4,16.1,0.3c8.9-0.4,18.2-0.2,26.7-0.2l-0.1,0.1c2.9-0.6,6.7,0.6,9-0.2
			c0.7,0.1,2.6,0.1,2.1,0.4c2.3-0.4,6.4,0.4,9.6-0.1c-0.3,0-0.6,0-0.8,0.1c3.3,0.3,6.2-0.1,9.7,0.2c-0.4,0.1-1,0.1-1.1,0.2
			c1.4,0.3,3.2-0.6,4,0.1c0.8,0,0.5-0.4,0.1-0.3c7.7,0.3,15.9-0.1,23.8-0.3c5.7,0.4,0.4,1.2,4.9,0.7c0.4,0.1,0.3-0.3,0.3-0.1
			c1.7-0.2,2.7,0.8,3.9,0.4c-0.5-0.4,0.8-0.2,0.8-0.5c3.5,0.3,4.2,0.7,7,0.3l-0.2,0.2c3.2-0.6,7-0.3,9.7-1
			c17.8-0.1,34.9-0.5,52.3-0.6c17.2,0.2,34-0.2,51.5,0.2c2.9,0.5,5.9,0.6,8.9,0.3c-0.2,0.1-0.5,0.1-0.2,0.2c0.2-0.5,3.2,0,3.6-0.5
			c6.5,0.1,12.4,0,19,0c-1,0-1.6,0.4-0.3,0.4l1.3-0.3l0.2,0.1c0.9-0.1,1.8-0.3,0.9-0.4c16.7-0.4,33.1,0.5,49.4,0.4
			c3.9,0.2,9.4,0,13.6-0.1C542,1,553.3,1.5,566,1C566,1,564.3,2.3,559.1,2.6z"/>
		<path class="st0" d="M3.9,1.7c0.4,0.4,1.9,0.6,0.7,1.2C4.4,2.5,3.7,2.1,3.9,1.7z"/>
		<path class="st0" d="M42.7,5.6c0-0.1,0.5,0.1,0.7,0.2c-0.5,0-0.9,0.3-1.3,0.2C42.5,6,42.4,5.8,42.7,5.6z"/>
		<path class="st0" d="M52.6,5.8c-0.2,0.3-2.3,0.6-3.5,0.6L52.6,5.8z"/>
		<path class="st0" d="M61.8,6.9c0.8,0.2,0.6,0.4-0.5,0.4C61.2,7.2,61.6,7.1,61.8,6.9z"/>
		<path class="st0" d="M62.5,6.2c0.5,0,1,0.1,1.5,0.3C64,6.3,62.2,6.8,62.5,6.2z"/>
		<path class="st0" d="M82.6,6.9c0.5,0,1.5-0.3,2,0C84,6.7,82.2,7.3,82.6,6.9z"/>
		<path class="st0" d="M91.9,6.4c0.3,0,0.5,0,0.8,0c0.6,0.1,0,0.3-0.5,0.4L91.9,6.4z"/>
		<polygon class="st0" points="261.7,4.8 260.6,5 260.8,4.7 		"/>
		<path class="st0" d="M336,4.8c1-0.1,0.7,0.2,0.9,0.2C336,5,337.3,4.7,336,4.8z"/>
		<polygon class="st0" points="376.2,3.7 375.9,3.7 376,3.3 		"/>
	</g>
</g>
</svg>
