<?xml version="1.0" encoding="utf-8"?>
<!-- Generator: Adobe Illustrator 22.0.1, SVG Export Plug-In . SVG Version: 6.00 Build 0)  -->
<svg version="1.1" id="Ebene_1" xmlns="http://www.w3.org/2000/svg" xmlns:xlink="http://www.w3.org/1999/xlink" x="0px" y="0px"
	 viewBox="0 0 747.3 568.3" style="enable-background:new 0 0 747.3 568.3;" xml:space="preserve">
<style type="text/css">
	.st0{opacity:0.8;}
	.st1{fill:#DA9945;}
</style>
<title>pirate-texture-wood-dark</title>
<g id="Ebene_2_1_" class="st0">
	<g id="final-design">
		<path class="st1" d="M384.4,53.9c-4.1-1.8-8.4-3.3-12.8-4.5c-1.3-0.5-2.8-1-4.4-1.5c-2.9-0.9-5.9-1.6-8.9-1.9
			c-9.1-2-18.7-3.1-28-4c-13.2-1.3-26.5-2.1-39.8-2.7c-13.9-0.6-27.6-1.2-41.5-0.6c-15.2,0.6-30.3,2.2-45.4,3.6
			c-18.1,1.7-36.2,2.9-54.2,5.4c-11.1,1.4-22.1,3.6-32.9,6.3c-7,1.9-16.1,4.4-19.9,9.7c-0.4,0.6-0.6,1.4-0.3,2.1s0.8,1.3,1.5,1.5
			c41.3,17.3,90.8,17.4,136.6,17c37.8-0.3,76.3,1.1,113.4-4.4c0.9,0.7,2,0.9,3,0.6c2.4-0.6,5.2-1.5,8-2.5c4.9-0.9,9.7-2,14.5-3.2
			c0.2-0.1,0.4-0.2,0.6-0.3c0.3-0.2,0.4-0.6,0.3-0.9c-0.2-0.7-0.9-1.1-1.6-0.9h-0.1c-0.8,0.2-1.7,0.4-2.5,0.6l0.5-0.2l1.2-0.3
			c2-0.4,4-1,5.9-1.8c2.1-0.7,4.2-1.5,6.3-2.3l1.5-0.6c2.6-1,5.3-2,8-2.8c0.4-0.1,0.7-0.3,1-0.6c0.2-0.2,0.2-0.4,0.2-0.6
			c-0.3-1.6-1.8-3.8-2.9-5.2C390.4,56.6,387.1,55.1,384.4,53.9z M105.6,64.4l-0.7-0.2c0.3-0.2,0.6-0.4,0.9-0.5
			C105.7,63.9,105.6,64.1,105.6,64.4z M111.3,66.5c0.3-0.2,0.7-0.5,0.9-0.8c0.2,0.4,0.4,0.9,0.6,1.3L111.3,66.5z M116.4,62.8
			l0.7-0.2c0.7,0.9,1.2,1.9,1.6,2.9C118,64.6,117.3,63.7,116.4,62.8L116.4,62.8z M123.4,70.2c0-0.1-0.1-0.2-0.2-0.2
			c-0.9-0.6-1.7-1.2-2.4-2l0.2-0.4c1.7,1.3,3.5,2.5,5.4,3.4L123.4,70.2z M364.1,59c-5.7,7.1-18.9,10.6-28.5,12.9
			c-11.6,2.9-23.6,4.5-35.5,4.7c-1.9,0-3,1-3.2,2c-20.2,0.3-40.5,0.1-60.8,0.4c-21.4,0.2-43.6,0.4-65.4-1.3
			c-8.1-1.7-16.3-3.5-24.2-5.6c-3.6-0.9-20.2-5.8-21.9-10.4c-0.5-1.4,0.4-2.9,3.8-4.1c0.8-0.1,1.5-0.6,1.9-1.3
			c4.4-0.9,8.9-1.7,13.3-2.4c17-2.7,34-4.1,51.2-5.6c15-1.3,30-3,45.1-3.9c14.3-0.8,28.7-0.9,43.1-0.2c13.1,0.6,26.3,1.2,39.4,2.2
			c8.8,0.7,17.9,1.5,26.7,3c0.7,0.3,1.3,0.5,2,0.8l-0.1,0.1c-0.4,0.2-0.5,0.7-0.2,1c0.1,0.1,0.1,0.2,0.2,0.2h0.1h0.1
			c2.3,1.7,4.6,1.9,7.5,2.9c2.3,0.9,4.5,2,6.5,3.5C364.6,58.4,364.4,58.7,364.1,59z M377.8,58.5c-0.1,0.2-0.3,0.3-0.3,0.5l-0.1,0.1
			c-0.1-0.3-0.2-0.6-0.3-0.9c-0.2-0.6-0.5-1.2-0.8-1.7c0.4,0.1,0.7,0.2,1.1,0.4l1.9,0.6C378.6,57.8,378.2,58.1,377.8,58.5
			L377.8,58.5z M383.7,67.4c0.5-0.4,1-0.8,1.5-1.2h0.1c0.1,0.2,0.2,0.3,0.4,0.4C385,66.9,384.3,67.2,383.7,67.4z M386,61.2
			c-0.2,0-0.4,0-0.6,0l0.1-0.1c0.3-0.3,0.1-0.8-0.2-1l-0.5-0.4c0.5,0.2,1,0.4,1.5,0.6c0.4,0.2,0.8,0.5,1.1,0.8
			C387,61.2,386.5,61.2,386,61.2L386,61.2z M387.6,65.6c0.3-0.3,0.4-0.7,0.2-1.1c0-0.1-0.1-0.2-0.2-0.3c0.3-0.1,0.7-0.1,1-0.2
			c0.6,0.1,1.2-0.1,1.6-0.6h0.1c0.2,0.1,0.3,0.2,0.5,0.3C389.8,64.5,388.8,65.1,387.6,65.6L387.6,65.6z"/>
		<path class="st1" d="M398.3,39.7c-13.2-3.5-27.1-5.5-40.9-7.2c-31.4-4-63-5.8-94.7-7.2c-27.2-1.2-54.4-2.8-81.6-3.1
			c-33.5-0.3-65.2,8.5-93.5,21.6C78.1,48.2,67.3,54,64.2,62.7c-0.4,1.2-0.6,2.5-0.5,3.8c0,0.4,0.1,0.9,0.2,1.3
			c0.2,1,0.7,1.9,0.4,2.9c-0.1,0.2-0.2,0.5-0.3,0.6c-0.7,1-1.1,2.1-1.3,3.3c0,0.5,0,1,0,1.5c0.3,3.5,2.8,6.6,5.3,9.6
			c0.9,1.1,1.8,2.2,2.6,3.3c0.1,0.1,0.2,0.2,0.4,0.2c4.4,0,8.6,1.7,12.9,2.6c3.4,0.7,6.9,1.3,10.4,1.7c2.3,0.3,4.5,0.5,6.8,0.7
			c12.7,1.2,25.6,1,38.4,1.3c12.4,0.3,24.7,1.2,37,2.4c13.2,1.2,26.5,2,39.8,2.6c27.2,1.4,54.4,1.1,81.5-0.8
			c26.1-1.9,51.9-6.8,76.9-14.5c3.6-1.1,7.2-2.3,10.7-3.6c0.3-0.1,0.6-0.3,0.8-0.5c0.1-0.1,0.1-0.1,0.1-0.2c0.1-0.2,0.2-0.5,0.1-0.8
			c-0.1-0.2-0.2-0.4-0.3-0.6c12.5-2.5,25.4-6,34.2-12.8c0.6-0.4,1.1-0.9,1.6-1.4c2-1.8,3.2-4.3,3.5-7c0.2-3-1-5.9-3.2-7.9
			C416.7,44.9,406.8,41.9,398.3,39.7z M424.3,59.1c-0.1,0.7-0.2,1.4-0.5,2.1c-2.8,7.2-15,11.2-23.2,13.8c-4.9,1.5-9.9,2.8-15,3.9
			c-0.6-0.3-1.3-0.3-2-0.1l-3.5,1.2c-1.8,0.4-3.7,0.7-5.5,1c-0.5,0.1-0.3,0.7,0.2,0.6l0.7-0.1C327.6,96.2,274.1,96.6,223.1,96
			c-25.8-0.4-51.5-2.1-77.3-2.4c-12.8-0.1-25.6-0.1-38.4-0.7c-6.3-0.3-12.6-0.7-18.8-1.4c-2.7-0.3-5.4-0.8-8.1-1.3
			c-2-0.4-4.6-1.6-6.7-1.6c-2.8,0-2.8-0.8-4.2-2.7s-2.8-3.4-4-5.2c-0.8-1.2-1.3-2.6-1.5-4c-0.1-1.1,0-2.3,0.4-3.4
			c-0.1,0.5,1.1-1.6,1.5-2.5c0.1-0.1,0.1-0.2,0.1-0.4c0-0.6-0.1-1.3-0.2-1.9c-0.1-0.3-0.1-0.6-0.1-0.9c0.2-6.7,8.2-12.3,14.8-16
			c7.6-4.3,16.3-7.5,24.9-10.6c9.8-3.6,19.8-6.5,29.9-8.9c13.5-3,27.6-4.7,41.5-6.2c12.4-1.4,24.8-1.9,37.2-1.4
			c8.4,0.5,16.8,0.6,25.2,1l1.9,0.1c6.2,0.3,12.4,0.6,18.6,0.9c24.2,1.2,48.5,2.7,72.5,5c15.6,1.5,31,3.5,46.3,6.2
			c11.6,2,23.4,4.6,33.8,9C418.6,49.5,424.8,53.6,424.3,59.1z"/>
		<path class="st1" d="M656.5,33.1c2.3,0,4.5,0,6.7-0.1c7.5-0.3,15-1.2,22.4-2.7c5.8-1.2,11.5-2.8,17.2-4.3c3.7-1,7.4-2,11.1-3
			c0.4-0.1,0.7-0.6,0.3-0.5c10.7-2.9,21.7-5.6,33.1-6.9v-0.1c-31.5,3.2-59.1,15.7-90.3,16.3C655.9,31.9,655.5,33.1,656.5,33.1z"/>
		<path class="st1" d="M2.9,79.6v-0.1H2.7c0.1-0.1,0.2-0.2,0.3-0.3c1.6-0.4,3.2-0.8,4.9-1.2c1.4-0.3,2.7-0.7,4-1.1
			c2.3-0.3,4.6-0.8,6.9-1.5c2.2-0.5,4.5-1.2,6.6-2.1c0.5-0.2,1-0.4,1.5-0.7s0.8-0.4,1.2-0.5c2.1-0.8,4.3-1.4,6.5-1.9
			c3.3-0.9,4.4-3,4.6-5.2c0-0.1,0-0.2,0-0.3c0-0.5,0-0.9,0-1.4c0.2-0.3,0.4-0.7,0.4-1.2c0-0.1,0-0.1,0-0.2c0-0.4,0-0.9,0-1.3
			c0-0.8-0.4-1.5-1.1-1.9c-0.1-0.1-0.3-0.2-0.4-0.2c0.7-2.5,1.9-4.9,3.5-6.9c3.2-3.8,10.1-5.9,15-8.2c12.1-5.7,24.6-10.8,37.2-15.2
			c13.2-4.6,27-7.8,40.9-9.4c15.1-1.7,30.4-1.5,45.6-1.4c3.5,0,7.1,0,10.6,0c3.6,0,7.3-0.9,10.9-1.2c7.9-0.5,15.9-0.6,23.8-0.7
			c15.4-0.3,30.8-0.4,46.2-0.2s30.7,1,46,1.7s30.4,1.8,45.4,3.9c6.8,0.9,13.5,2.4,20,4.5c5.7,2,11.4,4.1,17.2,5.9
			c13.2,3.9,27.4,2.9,41.2,3.4c15.2,0.6,30.3,2.6,45.5,3.5c15.4,0.9,30.6,1.7,46.1,1.8c21,0.2,42.1,0,63.1-1.3
			c14.4-0.9,28.8-2.2,43.1-3.4c5.5-0.5,11-0.9,16.4-1.3l3.5-0.3c0.5,0,0.5-0.6,0-0.6l-2.9,0.1c-29.9,1.4-60,1-89.9,1.6
			c-30.6,0.5-61.7,0.4-92.2-1.3c-15.2-0.9-30.1-2.3-45.3-2.2c-7.2,0.2-14.5-0.3-21.6-1.6c-6.7-1.3-13-3.8-19.2-6.1
			c-12.2-4.4-25.2-6-38.5-7.3c-14.6-1.4-29.3-2.2-43.9-2.9c-31-1.5-61.9-1.2-92.9-0.5c-15.1,0.4-30.1-0.6-45.2-0.8
			c-14.4-0.3-28.8,0.6-43,2.7C97.4,19.1,72.5,29.9,49,41c-7.9,3.7-15.5,7.8-16.4,15.5c-0.1,1.1-0.2,2.2-0.2,3.2
			c-0.9,0.4-1.5,1.3-1.5,2.3c0,0.2,0,0.5,0.1,0.7c0,0.5,0,1,0,1.5c-0.2,3.5-1.9,6.1-5.4,8c-0.1-0.8-0.9-1.3-1.7-1.2
			c-0.2,0-0.3,0.1-0.4,0.2c-3.2,1.3-6.6,2.3-10,3c-1.5-0.3-3-0.4-4.6-0.3c-1.6,0.2-3.2,0.4-4.8,0.8c-1.1,0-2.2-0.1-3.3-0.2l-0.5-0.1
			c-0.1,0-0.1-0.1-0.2-0.1v6.1C1.1,80.5,2.1,80.2,2.9,79.6z"/>
		<path class="st1" d="M13.5,119.4l2.1-0.1c1.4,0.2,2.8,0.2,4.2,0.2c0.6,0,1.2-0.2,1.8-0.4c2.5-0.1,4.9-0.3,7.4-0.6
			c6.9-0.6,13.8-2,20.3-4.4c2.4-0.9,3.2-3.1,4.3-4.9c1.8-2.8,3-5.3,5.5-7.8c11.3,1.9,22.3,4.4,33.9,5.3c13.6,1.2,27.4,1.3,41,1.4
			c13.4,0.2,26.7,0.2,40,1.1c15.1,1,29.9,2.8,45.1,3.3c30.4,1,60.8-0.9,90.8-4.7c29.1-3.6,58.2-7.9,85.9-15.9
			c6.6-1.9,13-4.1,19.2-6.5c16.6-6.3,32.4-13.9,49.2-19.9c11.8-4.3,24.3-6.8,36.9-7.5c1,0,1.9,0,2.9,0c5.9,0,11.9,0.5,17.8,0.6
			c8,0.1,15.9-0.1,23.9-0.4c14.4-0.5,29-1.4,43.4-2.6c14.4-1.2,28.9-1.8,43.3-3.2c27.1-2.8,52.6-10.4,79.1-15h0.1
			c1.2-0.3,0.6-1.7-0.7-1.5c-26.6,4.2-52.7,10.3-79.7,13.3c-15.1,1.7-30.5,2.4-45.7,3.5c-15.2,1.1-30.1,2.5-45.2,3.2
			c-14.6,0.6-29.2-0.1-43.8,1.2c-11.2,1.2-22.2,3.8-32.8,7.8c-11.5,4.1-22.4,9-33.6,13.6c-12.8,5.3-26.2,9.1-40,12.5
			c-27,6.7-54.9,11-82.9,14.5c-29.8,3.8-59.8,5.2-89.8,4.3c-14.5-0.5-28.8-2.2-43.2-3.2c-12.7-0.9-25.5-0.9-38.3-1
			c-25.4-0.2-53,0.1-76.9-7.4c-0.7-0.1-1.4,0-2,0.4c-2.5,1.5-4.7,3.3-6.7,5.5c-1,1.1-1.5,2.4-2.4,3.5c-0.2,0.3-2.3,2.3-1.3,1.9
			c-6.5,2.5-13.4,3.5-20.5,4.2c-1.5,0.1-3,0.2-4.5,0.3c-0.5-0.1-1-0.2-1.5-0.2c-6.7,0.1-11.2-4.3-17.7-5.1c-0.7-0.1-1.4-0.1-2,0.1v6
			c4.8,1.1,9.1,3.2,14,4.1C14,119.2,13.6,119.3,13.5,119.4z"/>
		<path class="st1" d="M25.8,20.5c3,0.3,6.1,0.7,9.1,1.2c2.6,0.4,7.6,1.2,6.8,2.9c-0.1,0.2-0.2,0.3-0.3,0.4c-0.4,0.4-0.9,0.7-1.4,1
			c-3.2,1.6-6.4,2.9-9.7,4.1c-8.1,2.9-16.5,4.8-25,5.7c-0.1,0-0.1,0.1,0,0.1c12.5-1.2,26-4.9,36.4-10.6l0.8-0.4
			c0.5-0.3,1-0.6,1.5-0.9 M43.9,23.8c-5.9-1.8-12-3-18.1-3.3L43.9,23.8z"/>
		<path class="st1" d="M620.2,9.6c-22.6,3.4-45.2,7.6-67.7,11.3c-12,2-23.8,2.5-36.1,2.6c-3,0-6-0.2-9-0.2c-1.2,0-2.4-0.2-3.5-0.2
			h-0.2c-0.4,0-0.6,0.1-0.7,0c-0.6-0.5,1.9-1.9,2.3-2.2c3.1-2.4,7.4-3.9,11.1-5.8l1.1-0.5c0.1-0.1,0.3-0.1,0.4-0.2
			c0.1-0.1,0.4-0.4,0.2-0.7c-3.4-3.5-11-3-16-2.8c-9.4,0.3-18.7,1.6-28,2.4c-11.4,1-22.5-0.3-33.8-1.4c-14.7-1.4-29.5-1.1-44.1-2.3
			c-15-1.2-30-3.2-45.1-3.4c-15-0.2-29.8,1.8-44.8,0.4c-30.4-2.8-60.9-4.8-91.5-5.8c-19.5-0.6-39.2-1.2-58.6-0.6
			c-18.8,0.6-37.5,2.5-56.2,4.4C80.3,6.7,60.9,8.3,41.1,9.3c-14,0.7-27.8,2.9-41.2,4.8v1.3c7.8-2.6,16.3-3.2,24.8-3.6
			c0.4,0,0.8,0.1,1.1,0.4l0.1,0.1c6.4-0.8,12.9-1.1,19.3-1.1c0.5,0,0.9,0.2,1.2,0.5c2.3-0.2,4.7-0.3,7-0.5
			c7.3-0.5,14.5-1.6,21.8-2.4l17.3-1.9c6.9-0.7,13.8-1.5,20.8-2.1c17.8-1.7,35.6-2.9,53.5-3c26.1-0.1,52.2,0.6,78.3,1.9
			c4.4,0.2,8.9,0.5,13.3,0.7c15.3,0.9,30.7,1.9,46,3.1c9,0.7,18,0.8,27,0.8c5.9,0,11.8-0.1,17.8-0.2c20-0.1,39.6,3.9,59.5,4.8
			c10.4,0.5,20.6,0.9,31,2c8.7,0.9,17.5,1.8,26.3,1.4c8.6-0.4,17.1-2.1,25.6-3.2c3.1-0.4,6.2-0.8,9.4-1c4.7-0.3,11.5-0.9,15.4,1.6
			c0,0,0,0.1-0.2,0.2c-0.2,0.1-0.6,0.4-1.1,0.6c-2.2,1.3-6.8,3.6-7.4,3.9c-2.5,1.2-4.7,3-6.4,5.2c-0.2,0.2,0,0.5,0.4,0.5h1.2
			c16.4-0.1,32.7-0.6,49-1.7c4.3-0.3,8.6-0.6,12.9-1c20.7-1.8,41-6.5,61.5-9.3c21.9-3.1,44.2-3.8,66.3-3.2c18,0.5,36.3,1.1,54.4,0.5
			V6.5c-20,0-38.8-1.7-58-2.2C666,3.8,643.1,6.1,620.2,9.6z"/>
		<path class="st1" d="M25.8,20.5c-7.4-0.7-15-1-22.6-1C10.7,20,18.3,19.9,25.8,20.5z"/>
		<path class="st1" d="M328.2,119.5c-26.6-0.1-53.3,1-79.8,3.2c-13.5,1.2-27,2.1-40.6,2.2s-27.6-0.3-41.3-0.7s-27.5-0.8-41.3-0.7
			c-13.5,0-27,1-40.4,2s-26.7,1.9-40.1,2.6c-13.6,0.7-27.3,0.7-40.9,1.8c-0.3,0-0.3,0.3,0,0.3c3.2,0.3,6.3,0.4,9.5,0.5
			c12.3,0.3,24.7-0.7,36.8-1.4c15.2-0.9,30.3-2,45.5-3.1c7.4-0.5,14.8-0.9,22.2-1.2c8.1-0.3,16.2-0.5,24.3-0.5c15.7,0,31.3,0.7,47,1
			c25.3,0.5,50.4-1.3,75.6-2.8c5.4-0.3,10.8-0.6,16.2-0.9c9.3-0.4,18.7-0.8,28-1c5.8-0.1,11.6-0.2,17.5-0.3c8.6,0,17.3,0.3,25.9,0.4
			c3.9,0,7.7,0,11.6-0.1c2.5,0,4.9-0.1,7.4-0.3c5.1-0.3,10.2-0.6,15.4-0.8c7.8-0.4,15.6-0.8,23.4-1.4c12.9-1,25.8-1.7,38.7-1.5
			c25.2,0.3,49.7,6.3,75.1,6c26.6-0.2,53.3-1.9,79.9-3.4c12.1-0.7,24.2-0.4,36.2-0.3c13.3,0.1,26.5-0.1,39.7-2.2c0.1,0,0-0.1,0-0.1
			c-14.7,2.7-30.1,1.4-44.9,0.5c-14.8-0.9-29.1-1-44-0.5c-15.1,0.5-30.2,1.2-45.3,1.9c-14.6,0.7-28.8,1.6-43.4,0.5
			c-13.8-1.1-27.3-3.1-41.1-4.2c-14.5-1.1-29.2-0.6-43.7,0.4c-14.7,1-29.3,3-44.1,3.6C358,120,343.2,119.5,328.2,119.5z"/>
		<path class="st1" d="M647.1,102c-13.7-0.8-27.4-0.6-41,0.7c-7.8,0.8-15.9,0.3-23.8,0c-7.5-0.2-15-0.6-22.5-1
			c-29.3-1.5-58.6-3.2-88-1.9c-1.4,0-1.7,1.3-1,1.8c0.3,0.2,0.6,0.3,1,0.3c29.4-1.2,58.7,0.6,88,2c14.3,0.7,28.7,0.9,43.1,1.5
			c3.7,0.2,7.5,0.8,11.2,1s7.4,0.1,11,0.1c7.3,0,14.6,0.3,21.9,0.7c28.6,1.4,57.4,5,85.9,6.6c4.6,0.3,9.5,0.5,14.2,0.6V109
			c-4.8-0.1-9.7-0.4-14.2-0.6C704.5,106.8,675.7,103.4,647.1,102z"/>
		<path class="st1" d="M680.1,77.8c-10.9-0.1-18.7-6-29.3-6.6c-13.4-0.7-26.9,2.6-39.7,5.1c-6.7,1.3-13.5,2.6-20.3,3.5
			c-8,1-16.1,1.3-24.1,1c-15-0.4-30.3,0-45.2,1c-29.8,1.9-58.9,5.2-87.8,11.2c-5.8,1.2-11.3,3.1-17,4.5c-5.9,1.4-11.7,2.7-17.8,3.7
			c-12.8,2.1-25.5,4.2-38.5,5.1l0,0c9.7-0.6,19.4-1.1,29-2.1c4-0.4,7.9-0.9,11.9-1.5c6.6-1,13.2-2.4,19.8-3.7
			c7.5-1.5,15.3-2.4,22.9-3.8c14.6-2.7,29.5-4.8,44.3-6.8c15.2-2,30.7-4.2,46-5.1c9.1-0.5,18.3-0.8,27.4-1.2
			c5.8-0.2,11.6-0.5,17.4-0.9c13.8-0.9,27.2-4,40.9-5.6l4.3-0.5c5.8-0.6,11.7-1.2,17.5-1.2c6.4-0.1,11.5,2,16.9,4.2
			c4.1,1.8,8.3,3.2,12.7,4.1c6.8,1.3,14.1,0.9,21,0.3c11.9-1,23.7-3,35.8-2.9c6.3,0.1,12.6,0.3,19.3,0.5V75
			c-8.6-0.3-16.4-0.6-24.4-0.6C708.6,74.3,694.4,77.9,680.1,77.8z"/>
		<path class="st1" d="M598.4,60.8c-14,1-28.1,2.1-42.1,2.2c-13.3,0.1-26.6,0-39.9,0.7c-12.4,0.6-24.9,2-36,6.6
			c-0.2,0.1,0,0.2,0.1,0.2l4.6-0.5c11.5-1.3,23-2.4,34.5-2.9c12.7-0.5,25.5-0.4,38.2-1c13.6-0.6,26.9-2.7,40.3-3.9h0.2
			c14.8-1.3,29.5-2.7,44.3-3.7c26.8-1.8,53.5-3,80.3-3.7c-3.1,0.2-6.1,0.4-9.2,0.6c-0.4,0-0.8,0.2-0.9,0.6c6.7-0.5,13.3-1.6,20-1.4
			c0.6,0,1.1,0.2,1.5,0.6c0.1,0.1,0.2,0.3,0.3,0.5c1.2-0.1,2.5-0.2,3.8-0.2c0.6,0,1.1,0.3,1.5,0.7c2.3-0.1,4.5-0.1,7.4-0.2v-2.7
			c-36.3,1.2-70.9,2.7-106,4.8C627.2,59.1,612.5,59.8,598.4,60.8z"/>
		<path class="st1" d="M280.1,55.9c-2.6,0-5.3-0.1-7.9-0.1c-0.1-0.1-0.3-0.2-0.4-0.2c-5.2-1.3-9.3-2.3-14.8-2.4
			c-6.1-0.1-12.1,0-18.2,0.3c-10.8,0.5-22,1.6-32,4.9c-1.2,0.3-1.9,1.4-1.6,2.6c0,0.1,0,0.2,0.1,0.3c0.4,1,1.3,1.8,2.4,1.9
			c4.3,0.8,8.6,1.2,12.9,1.5c0.7,0.5,1.5,0.8,2.3,0.8c5.9,0.1,11.9-0.2,17.8-1c13.2-0.8,26.3-2.7,39.5-3.3c1.4,0.1,2.6-0.7,3.2-2
			C283.7,57.7,282.7,55.9,280.1,55.9z"/>
		<path class="st1" d="M5.1,55.3c2.3-0.3,4.5-0.7,6.7-1.2c0.2,0,0-0.3-0.2-0.3c-2,0.3-5,0.6-6.9-0.2c-1.5-0.5-3-0.8-4.6-0.9v2.5
			C1.7,55.5,3.4,55.5,5.1,55.3z"/>
		<path class="st1" d="M24.4,6.6C27.9,5.8,31.5,5,35,4.3c6.7-1.4,13.5-2.2,20.3-2.4l0,0c-3.8,0-8.2-0.5-12.3-0.1
			c-5,0.6-9.9,1.3-14.8,2C24.3,4.3,20.4,5,16.6,5.6c-1.5,0.1-3.1,0.2-4.6,0.3C8.9,6,5.7,6.1,2.6,6.4C1.6,6.2,0.9,6.1,0,6v3.4
			C7.7,10.1,16.2,8.5,24.4,6.6z"/>
		<path class="st1" d="M44.9,552.8c17.3,0.2,34.5,1.7,51.8,2.3s34.8,0.1,52.2-0.1c17.6-0.1,35.2-0.5,52.8-0.7v2.4
			c0,0.5,0.5,0.8,1.1,0.9c5.9,0.2,11.9,1.1,17.8,1.5c8,0.5,16,0.9,24,1.2c15.6,0.5,31.3,0.6,47,0.6c31,0,61.8-1.3,92.7-2.4
			c30.7-1,61.4-1.1,92-0.6c15.3,0.3,30.5,0.9,45.7,1.8c15.2,0.9,31,1.5,46.1,3.2c14.6,1.5,29.6,1.4,44.2,1.6c15.8,0.2,31.6,0,47.4,0
			c15.8,0,31.5-0.3,47,1.7c9.7,1.2,19.8,2.4,29.7,2.2c3-0.1,6-0.2,8.9-0.6c0.5,0,0.4-0.5,0-0.5c-14.5,0.1-28.4-3.4-42.6-4.9
			c-14.8-1.6-30.1-1.1-45-1.1c-31.6,0-63.1,0.1-94.6-1.7c-9.1-0.5-18.2-1-27.4-1.4c-9.7-0.5-19.4-0.9-29.2-1.2
			c-42-1.5-84.1-1.8-126.1-0.3c-30.3,1.1-60.5,2.3-90.9,2.3c-15,0-30.1-0.1-45.1-0.5c-7.4-0.2-14.8-0.6-22.2-1.2
			c-6-0.4-12.4-1.7-18.5-1.7l0,0c0,0,0-0.6,0-0.9c0-0.3,0-0.9,0-1.3c0-0.4-0.5-0.9-1.2-0.9c-17.4-0.2-34.7-0.6-52.1-0.7
			c-17.4-0.1-34.8,0.1-52.2-0.5c-17.4-0.6-34.5-2.2-51.8-2.7c-8.5-0.2-16.7-0.1-25.2,0.4c-7.3,0.5-14.8,2.1-21.5,2.8v4.8
			c5.7-0.6,12.3-2,18.7-2.7C27.4,553,36.1,552.6,44.9,552.8z"/>
		<path class="st1" d="M716.7,522.9c-2.2-0.4-4.4-0.8-6.6-1c0-0.8-1.1-1.3-2.1-1.4c-5.4-0.3-10.8-1.6-16.1-2.5
			c-6-1-11.9-2.3-17.8-3.6c-12.5-2.8-24.9-6-37.5-8.3c-25.6-4.6-51.1-2.9-76.8,0.1c-11.9,1.4-24,3.4-36,3.6
			c-9.1,0.2-18.2-0.3-27.3-0.4c-16.3-0.2-37.3-0.6-50,8.6c-0.9,0.5-1.2,1.6-0.9,2.5c0.4,1,1.3,1.7,2.4,1.9c4.7,1.1,9.7,1.6,14.5,2.5
			c4.8,0.9,10,1.6,15,2.2c10.6,1.2,21.3,1.8,32,2.2c21.7,0.9,43.3,1.8,64.9,3.3c11.2,0.8,22.4,1.6,33.7,1.9
			c11.6,0.3,22.9-1,34.4-1.9c19.7-1.6,39.2-4.4,58.5-8.6c1.7,0,3.5-0.1,5.3-0.2c0.4,0.6,1,0.9,1.7,0.9c2-0.2,3.9-0.4,5.8-0.8
			c0.9-0.2,1.9-0.3,2.8-0.5c0.1,0,0.2-0.1,0.2-0.3C717,522.9,716.9,522.8,716.7,522.9L716.7,522.9z M689.4,524.2
			c-15.5,2.3-31.2,3.8-46.8,4.9c-22,1.5-44.3,0.1-66.2-1.6c-21.1-1.6-42.2-2.6-63.3-3.4c-10.4-0.4-20.8-0.9-31.2-1.9
			c-5.3-0.5-10.6-1.2-15.8-2.1c-2.1-0.3-4.2-0.7-6.4-1l-2.7-0.4c12.4-5.3,30.4-4.2,43.5-4c8.5,0.2,16.9,0.5,25.4,0.3
			c12-0.3,24.1-2.4,35.9-3.8c13.3-1.7,26.6-2.7,39.9-3c12.8,0,25.6,1.2,38.2,3.8c12.1,2.3,23.9,5.4,35.8,8
			c5.8,1.3,11.7,2.4,17.7,3.4l0.6,0.1C692.5,523.7,690.9,523.9,689.4,524.2z"/>
		<path class="st1" d="M654,488.9c-15-1.4-30.1-0.5-45.1,0.3c-15.3,0.8-30.6,0.8-45.8,0.1c-61.6-2.7-123.5-0.1-185,1.9
			c-16.4,0.5-32.7,1.2-49,2.2c-15.5,1-31,2-46.5,1.3c-3.7-0.2-7.5-0.5-11.2-0.9c-2.9-0.3-7.1-1.8-10-1.6c-8.3,0.6-16.6,0.8-24.9,0.4
			c-17.5-0.6-34.9-2.7-52.4-2.7c-0.9,0-1.7,0.4-2.1,1.2c-0.4,0.9-0.6,2-0.4,3c1.2,7.3,20.4,8.6,29.5,11.8c-1.4,0.1-2.8,0.2-4.2,0.2
			c-18.6,0.6-37.7-3.1-55.7,1.9c-6.4,1.8-9.2,6.5-14.3,9.5c-3.8,2.2-9,2.8-13.6,3.5c-5.3,0.7-10.6,1.1-16,1.1
			c-21.8,0.4-42-7-62.8-10.9c-9.9-2-20.1-2.6-30.2-1.8c-1.8,0.6-3.7,1.1-5,1.7c-2.3,0.9-4.6,1.9-7,2.7c1.2,0.1,2.6,0.1,3.9,0
			c1.3-0.1,2.7-0.2,4-0.5c11.5-2.5,23.5-1.1,34.9,0.9c20.8,3.8,40.6,10.6,62.2,10.4c9.2-0.1,18.9-1,27.6-3.4
			c6.7-1.9,9.2-7.2,14.8-10c4.3-2.1,10.7-2.7,15.7-3.2c5.6-0.4,11.2-0.5,16.8-0.2c11.3,0.3,22.6,1.3,33.8,0c0.3,0,0.6-0.2,0.9-0.4
			c0.4-0.4,0.4-1.1-0.1-1.5l-0.1-0.1c-4.3-3.2-9.1-4.4-14.8-5.8c-3.5-0.8-13-2.3-15.4-5.5c-0.3-0.4-0.5-0.9-0.6-1.4
			c13.5,0.2,26.8,1.2,40.3,2c6.8,0.4,13.6,0.7,20.5,0.7c3.3,0,6.6-0.1,9.9-0.3c3.7-0.1,7.4,0.1,11,0.7c24.4,3.5,50.1,0.8,74.5-0.7
			c14.4-0.8,28.9-0.9,43.3-1.4c15.3-0.6,30.7-1.1,46-1.5c30.8-0.9,61.4-1.9,92.2-1.4c18.8,0.3,37.5,1.5,56.3,2c18,0.5,36-1.5,54-1.7
			c9.4-0.1,18.8,0.5,28.1,1.7c8.3,1.2,16.4,2.7,24.7,3.5c18.8,1.7,38.4,0.7,57.2-0.3c0.7,0,1.4-0.3,1.8-0.9c0.6-0.9,0-2.2-1.8-2.3
			c-15.4-0.8-30.9-1.3-46.3-0.7C682.7,493,668.6,490.3,654,488.9z"/>
		<path class="st1" d="M339.4,474c-28.1-0.1-56.2-0.9-84.4-0.9c-24.3,0-48.9-1.1-73.2,0.2c-17.2,0.9-35.9,4-46.6,15
			c-4.1,4.3-7,9.2-11.9,13c-5.9,4.6-13.8,4.5-21.4,2.8l-0.5-0.1c0.5-1.1,0.9-2.2,1-3.3c0.3-2.9-1.1-5.4-5.8-6.8
			c-8.2-2.5-18.8-0.8-27.4-1.3c-4.9-0.4-9.8-1.1-14.5-2.3c-6.5-1.6-13.1-2.6-19.8-3.1c-1.7-0.1-3.4-0.2-5.2-0.2
			c-0.4,0.2-0.9,0.3-1.4,0.4c-3.4,0.6-6.7,1.3-10,2c2.6-0.1,5.2-0.3,7.8-0.3h1c6.4-0.1,12.8,0.4,19.2,1.4c5,0.8,9.7,2.3,14.7,3.2
			c7.9,1.4,16,1.1,24.1,1.1c3.6-0.1,7.3,0.2,10.8,1c3.4,0.8,4.2,2.8,3.9,4.8c-0.2,1.2-0.7,2.4-1.3,3.5c-0.3,0.4-0.2,0.9,0.2,1.2
			c0.2,0.2,0.4,0.3,0.6,0.3c7.5,1.9,15.5,2.6,22.4-0.8c5.7-2.8,9.2-7.8,12.8-11.9c5.6-6.4,11.9-10.6,21.5-13.4
			c11.4-3.3,23.9-3.9,36-4.1c27.8-0.5,55.8,0.4,83.6,0.8c31.2,0.5,62.5,1.1,93.7,1.6c28,0.4,55.9,0.6,83.8-0.4
			c28.2-1,56.2-2.8,84.5-2.6c27.6,0.2,55.1,2.1,82.7,2.2c22,0.1,44.2-0.4,66.2,0.7c6.2,0.3,12.3,0.8,18.5,1.4
			c0.7,0.1,0.9-0.7,0.3-0.8c-14.4-1.9-28.9-3.1-43.5-3.9c-15-0.8-30.1-0.5-45.1-0.6c-30.7-0.2-61.3-2.4-91.9-3.2
			c-15.3-0.4-30.5,0.3-45.8,1.1c-15.4,0.8-30.8,1.2-46.3,1.5C401.7,473.9,370.5,474.1,339.4,474z"/>
		<path class="st1" d="M600.3,438.1c-30,0.3-60,0.1-90,0.7c-14.4,0.3-28.9,0.9-43.2,2s-28.4,3-42.7,3.9
			c-61.4,3.8-122.6,0.6-184.1-0.3c-15.3-0.2-30.7-0.6-46-0.2c-15,0.4-30,2.1-45,3.2c-15.1,1.1-30.3,1.1-45.4,0.1
			c-14.3-0.9-28.5-2.3-42.9-1.9c-13,0.3-25.9,1.9-38.7,3.4c1.5,0.3,3,0.6,4.5,0.9l1.9,0.4c11.9-1.3,23.8-2.8,35.9-3
			c14.4-0.2,28.6,1.3,42.9,2.2c9.3,0.5,18.6,0.5,27.9,0.1c10.3-0.4,20.5-1.3,30.8-2.1c6-0.5,12-0.9,18-1.2c0.1,0.5,0.5,0.8,1,0.8
			c9.1,1.8,18.5,2.1,27.9,2.1c-0.7,0.5-1.3,1-2,1.4c-1,0.8-2.2,1.5-3.4,2c-0.5,0.1-0.8,0.6-0.7,1.1c0.1,0.2,0.2,0.4,0.3,0.5
			c0.3,0.3,0.7,0.4,1.1,0.4h1.4c-0.3,0.4-0.4,0.9-0.5,1.4c0,0.2,0,0.5,0,0.7c0,0.1,0,0.3,0.1,0.4c0.4,0.7,1.1,1.1,1.9,1.1
			c29.5,1.4,58.9,4.2,88.5,5.6c30.4,1.4,60.8-2.2,91.1-4.2c30.8-2,61.4-2.9,92.3-2.4c30.7,0.5,61.4-1.3,92.1-2.2
			c14-0.4,27.9-0.7,41.8-0.5c14.6,0.2,28.6,1.4,43,2.9c13.4,1.5,26.8,2.1,40.3,1.7c14.1-0.5,27.9-1.6,42-0.3c0.3,0,0.5,0,0.8-0.1
			c0.7-0.4,0.5-1.6-0.8-1.7c-14.5-1.4-29.2-0.6-43.7-0.2c-14.5,0.4-28.8-1-43.2-2.3c-29.6-2.7-59.6-2.5-89.4-1.7
			c-30.8,0.8-61.5,1.9-92.3,1.4s-61.6,1.2-92.2,3.3c-28.5,1.9-56.8,4.4-85.5,3.7c-26.8-0.6-53.5-3.7-80.3-5.5h-0.5
			c0.2-0.1,0.3-0.3,0.4-0.5c0.1-0.1,0.1-0.3,0.1-0.5c0-0.4-0.1-0.7-0.1-1.1c-0.1-0.6-0.6-1.1-1.2-1.2c-0.2,0-0.3,0-0.5,0l-1.5,0.1
			c1.6-1.3,3.3-2.4,5.1-3.3c0.1-0.1,0.2-0.1,0.3-0.2c0.8-0.6,0.3-1.8-1-1.8c-3.1,0-6.2,0-9.2-0.1c-5.4,0-10.8-0.4-16.2-1.1
			c2.1-0.1,4.1-0.2,6.2-0.2c30.5-0.6,61.2,1,91.7,1.9c30.8,0.9,61.5,1.4,92.3,0.9c29.6-0.5,59.2-2.6,88.7-4.1
			c14.4-0.7,28.7-1.6,43.1-1.8c14.8-0.2,29.7-0.1,44.5-0.2c30.6-0.2,61.7-0.7,92.3-0.8c32.2-0.1,64.4,0.6,96.8,1.5v-4.1
			c-19.1-0.8-36.6-1-54.6-1.1C662.1,437.5,631,437.8,600.3,438.1z"/>
		<path class="st1" d="M0.4,441.6c-0.2,0.1-0.3,0.2-0.4,0.3v0.1C0,441.9,0.3,441.8,0.4,441.6L0.4,441.6z"/>
		<path class="st1" d="M0.5,442.3h0.8c0.1,0,0.1,0,0.2,0c3.2-0.1,6.3-0.5,9.4-1.3l1.3-0.3c0.8,0,1.5-0.1,2.3-0.1
			c7.2,0,14.2,0.3,21.4,0.8c14.4,0.9,28.7,1.8,43.2,2c30.1,0.4,60.3-0.7,90.3-2.4c30.6-1.8,61.4-3.3,92-1.2c6.6,0.4,13,1.1,19.6,1.8
			l-14.2,0.1h-4.7l0,0l6,0.1l16.5,0.2c7.3,0.7,14.7,1.4,22,1.8c12.1,0.7,24.2,0.4,36.3-0.9c1.4-0.2,2.8-0.3,4.2-0.5h5.6l6-0.1
			c10.9-0.2,21.7-0.5,32.6-1l3-0.2l2.9-0.1c0.5,0,0.7-0.6,0.1-0.7c-11.7-2.7-24.1-1.2-36-0.2c-5.1,0.4-10.1,0.9-15.2,1.3
			c-15.3,0.2-30.5,0.2-45.8,0.2c-8.6-0.7-17.2-1.6-25.8-2.5c-14.8-1.6-29.8-2.3-44.7-2.3c-30.7-0.2-61.4,2.4-92.1,3.5
			c-29.6,1.1-58.7,1.4-88.3-0.1c-15.6-0.8-31.5-2.8-46.8-1V439c0-0.3-0.1-0.5-0.4-0.5c-0.9,0-1.7,0-2.6,0.1v0.8l0,0
			c0.2,0,0.2,0,0.4,0.1l-0.4,0.1v2.1h0.7l0,0h0.2c-0.1,0.1-0.2,0.2-0.4,0.3l0,0l-0.2,0.1l0,0h0.2C0.2,442.2,0.3,442.3,0.5,442.3z
			 M387.8,439.4c1.9,0.1,3.7,0.4,5.5,0.7l1.3,0.2l0,0c-1.6,0.1-3.1,0.1-4.7,0.2c-1.8,0.1-3.6,0.1-5.5,0.1h-1.7
			c-3.9,0.1-7.8,0.2-11.7,0.2l-4,0.1l-8,0.2h-4C365.9,439.8,376.8,438.6,387.8,439.4z M328.4,442.4c-2.4,0.1-4.7,0.1-7.1,0.1
			c-2.6,0-5.2-0.1-7.8-0.2C318.5,442.3,323.4,442.3,328.4,442.4L328.4,442.4z"/>
		<path class="st1" d="M18.3,537.1c30.8,1.6,61.3,3.1,92.1,4.1c15.5,0.5,31.1,0.8,46.7,0.7c13.9-0.1,28.5-0.1,42.2-2.2
			c15-2.4,30.8-2.4,46.1-3.7c14.9-1.3,29.8-2.5,44.7-2.5h1.9c26.5,0.3,52.4,5.3,78.2-1.8c3.3-0.9,6.7-1.7,10.1-2.3
			c5.9-1.1,11.8-1.8,17.8-2.1c4.6-0.2,9.3-0.2,13.9,0.1c9.2,0.7,18.3,1.9,27.3,3.8c4.8,0.9,9.6,1.9,14.3,3
			c51.7,11,106.1,16.2,159.7,16.3c9.6,0,19.2-0.1,28.8-0.4c27.6-1,55.2-3.7,81.8-9.4c0.4-0.1,0.2-0.6-0.2-0.5
			c-52.4,11.2-107.7,9.3-161.4,5.7c-13.4-0.9-26.7-2-40-3.4c-13.3-1.4-26.9-2.3-40.1-4.5c-26.5-4.3-52.4-12.2-79.8-12.3
			c-6,0-12,0.5-17.9,1.4c-7.3,1.1-14.1,3.5-21.2,5c-13.3,2.8-27.2,2.4-40.8,1.5c-14.3-0.9-28.5-2.1-42.9-1.7c-15,0.4-30,1.9-45,3.1
			c-7.3,0.5-14.7,0.9-22,1.3c-7.3,0.4-14.8-0.4-22.2-0.3c-14.7,0.3-29.5,0.8-44.2,0.7c-31.1-0.1-62.2-1.8-93.2-3.1
			c-7.2-0.3-14.4-0.7-21.6-0.8c-10.5,0.5-20.9,1.6-31.2,3.4v0.1l7,0.3C10.8,536.7,14.6,536.9,18.3,537.1z"/>
		<path class="st1" d="M721.6,552.4c-0.4,0.1-0.8,0.3-1.2,0.5l-1.1,0.1c-14.8,0.8-29.5,1.7-44.3,2.7c-30.7,2.1-61.3,2.1-92.1,1.2
			c-30.8-0.9-62-1.4-92.6-4.4c-30.1-3-60-7.2-90.5-6.6c-30,0.6-60,0.6-90-0.1c-15-0.3-30.1-0.6-45.1-0.9c-6.9-0.1-13.9-0.3-20.8-0.4
			c-6.2,0-12.3,0.8-18.3,2.4c-0.1,0-0.1,0.1,0,0.1c3.2-0.4,6.3-0.6,9.5-0.6c4.1,0,8.2,0.3,12.1,0.4l23.2,0.6
			c15.6,0.4,31.3,0.7,46.9,0.9s31.2,0.4,46.8,0.3s31.2-0.6,46.8-0.6c30.3,0,60.3,4.6,90.3,7.2c10.7,0.9,21.4,1.3,32.1,1.6
			c4.7,0.1,9.4,0.2,14.1,0.4c7.4,0.2,14.9,0.5,22.3,0.8c8.2,0.3,16.4,0.7,24.6,0.9c14.3,0.4,28.7,0.7,43,0.5
			c14.3-0.2,28.7-1.1,43-2.2c13.1-0.9,26.2-1.8,39.3-2.2c0.2,0.9,1.7,1.8,3.2,1.8c8,0,15.9-0.2,24.4-0.6v-4.7
			c-6.7,0.2-13.1,0.6-19.4,0.8C725.8,552,723.7,552,721.6,552.4z"/>
		<path class="st1" d="M4.9,466.8c3.2,0.7,6.3,1.2,9.5,1.8c1.2,0.2,2.3,0.4,3.5,0.5c4.5,0.2,9,0.4,13.5,0.7
			c14.6,0.9,28.4,2,43.1,1.3c13.5-0.7,26.9-2.5,40.2-4.3c14.2-2,28.5-3.9,42.9-4.9c14.1-0.8,28.2-0.4,42.2,1.2
			c28.5,2.9,57,5.8,85.6,7.6c23.5,1.5,46.9,2.2,70.3,1.7c23.1-0.5,46.1-2.3,69-5.4c0.3-0.1,0.2-0.4-0.1-0.4
			c-28.6,4.2-57.6,4.6-86.6,4.3s-58.4-2.1-87.4-4.6c-14.2-1.2-28.3-2.6-42.5-4c-14.2-1.4-27.8-2.8-42-2.4c-28,0.8-55.4,6.4-83.1,8.9
			c-11.2,1.1-22.5,1.3-33.8,0.8c-12.1-0.7-23.8-1.9-36-2.3C10.4,467,7.6,466.9,4.9,466.8z"/>
		<path class="st1" d="M500.5,500c0.1,0,0.3,0,0.4-0.1c0.9-0.3,0.8-1.5-0.4-1.5c-15.6-0.3-31.1-0.7-46.7-0.1
			c-14.9,0.6-29.9,1.9-44.7,4c-27.8,3.8-53.4,14.3-81.9,15.5c-15.5,0.7-31,0.5-46.5,0.5c-14.8,0-29.5,0.7-44.3,0.9
			c-12.9,0.2-25.9-0.2-38.7,1.2c-7,0.8-13.6,2.6-20.6,3.2c-8,0.7-16.1,1.2-24.2,1.6c-14.9,0.8-29.8,1.7-44.7,2.1
			c-0.1,0-0.1,0.2,0,0.2c7.1,0.2,14.2,0.4,21.4,0.4c8.4,0,16.8,0,25.2-0.4c7.4-0.3,14.9-0.7,22.3-1.1c3.8-0.2,7.5-0.2,11.3-0.3
			c3-0.1,6.3-1.2,9.2-1.6c13.2-1.9,27-1.1,40.4-1.3c14.9-0.2,29.7-0.8,44.5-0.8c15.5,0,30.9,0,46.4-0.6c13.7-0.6,27-3.5,40-6.5
			c13.3-3.2,26.4-6.7,40-8.9c15.5-2.5,31.1-4.1,46.7-4.8C470.6,500.7,485.6,500.3,500.5,500z"/>
		<path class="st1" d="M628.3,154.3c-13.6-0.4-27.3,2-40.6,3.9c-15.4,2.3-31,3.4-46.6,3.4c-15.4,0-30.7-1.3-46.1-1.5
			c-30.7-0.3-61.2,3.4-91.9,3.2c-16.2-0.1-32.7-0.1-48.7,1.5l0,0c14.6-1.3,29-0.4,43.5-0.1h1.5c5,0.1,10,0,15-0.1h0.4l3.2-0.1
			c7.6-0.2,15.3-0.6,22.9-1l4.6-0.2c15.2-0.8,30.4-1,45.6-1s30.7,1.3,46.1,1.6c14.8,0.3,29.6-0.5,44.2-2.4
			c14.4-1.9,28.6-4.5,43.2-4.5c6.3,0,12.7,0.8,19,1.2c6.8,0.4,13.6,0.5,20.5,0.6c13.9,0.1,28.2-1,42.1-1.8
			c6.6-0.4,13.1-0.9,19.8-1.5c6.8-0.6,13.8-1.2,21-1.9v-1.1c-26.7,2.2-52.8,3.6-79.1,3.5C654.9,156.2,641.5,154.7,628.3,154.3z"/>
		<path class="st1" d="M9.7,167.8c2.9,0,5.8,0.1,8.6,0.1c15,0.3,29.6,1.4,44.6,0.4c14.1-1,28-3,42-3.9c14.8-1,29.5,0.4,44.3,1
			c15.6,0.7,31.2,1.1,46.9,1.4s31.3,0.5,47,0.5s31.3,0.5,46.9-0.3c6.2-0.3,12.4-0.6,18.6-0.7c0.7,0.1,1.4-0.3,1.8-0.9
			c0.6-1,0-2.3-1.8-2.3c-15.6-0.1-31.1-1-46.7-1.1s-31.3-0.3-47-0.5c-31.1-0.5-62.1-1.9-93.2-3.1c-28.6-1.1-56.2,6.5-84.8,4.7
			c-4.3-0.3-8.8-0.5-13.2-0.6h-0.1h-0.2l-3.7-0.1c0,0.1-0.1,0.2-0.2,0.3c-1.6,0.1-3.2,0.2-4.7,0.4c-1.6,0-3.1,0-4.7,0
			C9.5,163,9,163.4,8.8,164c-2.6,0.5-5,1.5-7.2,2.9l-1.7,0.4v0.3H1c0,0.3,0.3,0.6,0.8,0.6h0.1h0.3c-0.5,0.3-0.9,0.6-1.3,0.9
			c-0.3,0.2-0.7,0.4-1.1,0.6v1.4l0.3-0.1C3.5,170.2,6.5,168.9,9.7,167.8z M10.8,165.8l1.2-0.3c1.3,0,2.7,0,4,0
			c-0.4,0.1-0.8,0.2-1.3,0.2c-1.7,0.2-3.4,0.3-5.2,0.4C10,166,10.4,165.9,10.8,165.8L10.8,165.8z"/>
		<path class="st1" d="M37.4,193.1c13.8,0.9,27.6,0.6,41.3-0.9c13.6-1.4,27-3,40.5-4.9c14.7-2.1,29.6-4.2,44.6-4.2
			c13.5,0.1,27.4,2.9,40.4,5.5c14.2,2.8,28.7,3.9,43.3,4.3c14.9,0.4,30,0.4,44.9-0.2c10.4-0.4,20.8-1.2,31.2-2
			c5.1-0.4,10.2-0.8,15.3-1.1c30.5-1.9,60.9-4,91.5-5.3c15.5-0.6,30.9-0.9,46.4-1c15-0.1,30-0.4,45,0.8c14.3,1.1,28.4,3.1,42.7,4
			c2.1,0.1,4.1,0.2,6.2,0.2c-4.4-0.2-8.8-0.5-12.9-0.8c-14.3-1.1-28.4-3.1-42.7-4c-15.1-0.9-30.6-0.4-45.8-0.3
			c-15.4,0.1-30.8,0.2-46.1,0.8s-30.4,1.2-45.6,2.2s-30.7,2.5-46,2.8c-7.4,0.1-14.9,0.4-22.3,0.4c-8.1,0-16.2-0.5-24.3-0.5
			c-14.8,0-29.6,0.3-44.5-0.3c-15.3-0.6-29.7-3.1-44.5-5.8c-12.8-2.3-25.8-3.3-38.8-2.8c-28.7,1.1-56.3,8.5-84.8,11.1
			c-24.4,2.2-48.5-0.2-72.3-2.8v0.1c11.5,1.6,24.3,3.5,36.7,4.5L37.4,193.1z"/>
		<path class="st1" d="M677.4,186.5c-7,0.4-13.9,1.1-21,0.9s-13.9-1.8-20.7-3c-6-1.1-12-2.4-18.3-2.2c-6.3,0.2-11.9,2.3-17.5,3.9
			c-0.4,0.1-0.9,0.2-1.3,0.3l4.3-0.7c2.1-0.3,4.2-0.6,6.2-0.9c4.8-0.7,9.6-0.8,14.4-0.2c6.9,1,13.6,2.4,20.4,3.6
			c5.7,1.1,11.4,1.8,17.2,2.1c7.8,0.4,16.3-0.5,24.2-0.8c20.5-1,41-2.1,62-2.8v-1.9c-7.6-0.1-15.2-0.1-22.6-0.3
			C709.2,184.2,692.8,185.6,677.4,186.5z"/>
		<path class="st1" d="M598.6,186.4c-9.2,1.4-18.5,2.1-27.9,2C580.2,188.9,590.1,188.7,598.6,186.4z"/>
		<path class="st1" d="M377.2,207.3c6.8-0.4,13.7-0.4,20.5-0.3c8.2,0.2,15.9,2.1,24,2.6c31,1.5,62,4.2,93,2.5
			c29.7-1.7,59.3,2.9,88.8,4.9c6.3,0.4,14,1.5,20.2,0.5c2.2-0.3,4.4-0.5,6.6-0.6c6.2-0.3,12.3,0.1,18.6,0.5c15.3,0.8,30.7,2,46,2.7
			c6.7,0.3,13.5,0.5,20.2,0.5c0.4,0,0.4-0.4,0-0.4c-15.4-0.1-30.7-1.4-46-2.6c-7.3-0.5-14.7-1.1-22.1-1.5c-3.7-0.2-7.3-0.4-11-0.5
			c-1.8-0.1-3.7-0.1-5.5-0.1c-2.7-0.1-4.8-0.9-7.3-1c-15.3-0.5-30.4-2-45.6-3.6c-14.5-1.6-28.5-3.7-43.2-4.1
			c-15.3-0.5-30.5,0.9-45.8,0.8c-15.5-0.1-31-1-46.5-1.9c-7.5-0.4-14.9-0.9-22.3-1.2c-3.8-0.2-7.4,0.4-11.2,0.7
			c-4.3,0.2-8.5,0.2-12.8,0c-13.5-0.3-27,0.6-40.4,2.4c-6.7,0.9-13.7,1.7-19.8,4.1c-0.3,0.1-0.1,0.4,0.2,0.4c1.1,0,2.3-0.1,3.4-0.1
			c5.2-0.4,10.2-1.4,15.3-2.2C362.1,208.4,369.6,207.7,377.2,207.3z"/>
		<path class="st1" d="M106.7,217c-24.6,1.2-48.7,3.8-73.3,4.3c-6.1,0.1-12.3,0.2-18.5,0.2l-7.8,1.1c3.3,0.2,6.7,0.3,10.2,0.4
			c4.2,0.1,8.3,0.1,12.5,0.1c25.2-0.4,50.1-3.1,75.3-4.5c4.3-0.2,8.6-0.4,12.9-0.5h2.3h0.6c19.5-0.3,39.1,0.6,58.4,1.7
			c25.3,1.5,51,3.5,76.3,3c0.5,0,0.5-0.5,0-0.5c-24.9-0.6-49.7-2.1-74.5-3.6S131.6,215.8,106.7,217z"/>
		<path class="st1" d="M194.3,236.2c-30.2,0.9-60.6,2.2-90.8,1c-29.2-1.2-58.2-3.8-87.2,0.5c-0.8,0.1-1.1,0.6-1,1
			c1.1,0,2.3,0.1,3.4,0.1l5.1,0.2c27.2-2.5,54.1,1,81.4,2.5c30.1,1.7,60.8-0.2,90.9-1c15.2-0.4,30.4-0.8,45.6-0.9
			c15.2-0.1,30.1,0.4,45.2,0.4c30.5,0.1,61-2.3,91.5-3.1c23.6-0.6,47.2-0.5,70.8-0.3c39.6,0.4,79.3,1.4,118.9,1
			c53.1-0.5,106.1-5.6,159.6-5.1c0.1,0,0.2-0.1,0.3-0.1c3.3-0.5,6.7-0.5,10,0c0.9-0.2,1.7-0.5,2.6-0.7c-28.1-0.7-55.2,0.4-82.7,1.6
			c-30.6,1.3-61.3,2.6-91.9,3.2c-31.6,0.6-63.4-0.3-95-1s-63-1.5-94.5-0.9c-30.5,0.7-61,1-91.5,0.9
			C254.8,235.6,224.6,235.3,194.3,236.2z"/>
		<path class="st1" d="M736.7,250.4c-30.4,1.7-61,0.7-91.4-0.2c-30.8-1-61.4-1.4-92.2-1.1c-62.8,0.5-125.6,2.8-188.4,3.3
			c-31.1,0.3-62.1,0.5-93.2,0.4c-30.3-0.1-60.6,1.1-90.9,0.3c-15.8-0.5-31.4-2-47.1-3.6c-14.6-1.5-29.5-1.9-44.3-2
			c-15.4,0-30.7,0.5-46,0.2c-3-0.1-6.1-0.2-9.1-0.4c-1,0.5-2.1,0.7-3.2,0.7c-6,0.1-12,0-18-0.1c5.7,0.7,11.3,1.2,17,1.6
			c22.8,1.6,45.5,1.4,68.6,1.6c30.6,0.3,60.6,5,91.2,5.8c30.4,0.8,60.7-1,91-2.3c2.9-0.1,5.7-0.2,8.5-0.3c28.3-1,56.6-1.1,84.9-1.5
			c31.5-0.4,63-1,94.5-1.6c61.9-1.2,123.8-1.6,185.7,0.6c27.5,1.1,55,0.8,82.4-0.9C737.1,250.9,737.1,250.4,736.7,250.4z"/>
		<path class="st1" d="M618.6,262.3c-7.5,0.2-15,0.7-22.6,1.1c-3.8,0.2-7.5,0.4-11.3,0.5c-4.2,0.2-8.9-0.5-13.1-0.6
			c-15.5-0.3-31.1,0.8-46.6,1s-30.9-0.2-46.3-0.7c-31-1-61.9-2.6-93-2.7c-29.1-0.1-58.1,1.8-87.1,3.2s-57.8,2.6-86.7,3.2
			c-14.6,0.3-29.1,0.5-43.7,0.4c-14.4-0.1-28.9-0.7-43.3-0.8c-25.6-0.2-51.2-2.2-76.6-5.9c-0.8-0.1-1.1,0.8-0.3,0.9
			c13.1,2,26.3,3.6,39.6,4.9h0.5c13.9,1.3,28,3,42,3.6c29,1.3,58.1,1.2,87.1,0.6s57.7-1.9,86.5-3.3c29.2-1.4,58.3-3.1,87.5-3
			c61.2,0.4,123.5,7.5,184.5,0.6c0.7-0.1,1.4-0.2,2.1-0.3c3.5-0.5,7-1.1,10.7-1.3s7.5-0.3,11.3-0.5c8.1-0.3,16.3-0.2,24.4-0.3
			c6.7,0,13.5,0,20.4,0.1c9.1,0.1,18.2,0.2,27.2,0c25-0.3,49.8-1.3,75.6-1.8v-3.5c-27.7,0.7-54.3,2.1-81.2,3.1
			C650.4,261.6,634.3,261.9,618.6,262.3z"/>
		<path class="st1" d="M249.2,177.9c-30.7-2.2-61.5-4.2-92.3-2.8c-29.8,1.3-59.2,6-89,7.6c-6.9,0.4-13.7,0.6-20.5,0.7
			c-10.5,1-21,1.4-31.5,1c9.3,0.4,18.6,0.7,28,0.8c8.6,0.1,17.3-0.1,26-0.6c29.8-1.6,59.1-6.3,88.9-7.7c30.8-1.4,61.6,0.8,92.3,3
			c15.3,1.1,30.6,2.4,46,3.1c15.5,0.7,31.1,0.6,46.7,0.1c31.2-0.9,62.2-3.3,93.3-4.5c63.2-2.4,126.3-4.5,189.5-6.3l20.7-0.6
			c8.3-0.2,16.5-0.4,24.8-0.6c15.8-0.4,31.6-0.1,47.4-0.6c0.1,0,0.1-0.2,0-0.2c-15.8-0.5-31.6-0.1-47.4-0.1c-15.8,0-31.6,0-47.4,0.2
			c-31.6,0.4-63.2,1.1-94.8,2.1c-31.5,1.1-63.3,1.4-94.7,3.4c-31.1,2-62.1,4.3-93.3,5.2S280.1,180.1,249.2,177.9z"/>
		<path class="st1" d="M663.3,205.8c-31.3-0.9-62.5-2.3-93.7-3.7s-62.3-2.7-93.4-3.4c-31-0.7-62,0-93,1.3c-53.1,2.1-106,6.2-159,8.3
			c-8.5-0.8-17.6-1.2-25.8,0.8c-0.4,0.1-0.4,0.6,0.1,0.6h4.3h6.5l5.2-0.1l6.9-0.1c3.7-0.1,7.3-0.1,11-0.2l1,0.1
			c3.4,0.3,6.7,0.7,10.1,1s6.8,0.7,10.2,0.9c11.6,0.9,23.3,1.4,35,1.7c-10.9-0.4-21.8-1-32.7-1.6c-4.1-0.2-8.2-0.6-12.3-1
			c-3.2-0.3-6.3-0.7-9.5-1l-0.8-0.1l8-0.2c46.7-1.5,93.3-4.8,139.9-7c31-1.4,62-2.1,93-1.5c31.2,0.6,62.3,2.1,93.4,3.4
			c31.1,1.3,62.5,2.7,93.7,3.6c15.6,0.5,31.7,0.8,47.3,0.9c4.9,0,9.8,0,14.7-0.1c7.8-0.2,15.7-0.5,23.9-0.8v-0.3
			c-12.4,0-24.6-0.5-36.7-0.6C695,206.5,678.9,206.2,663.3,205.8z M209.3,208.8c-2.6,0.1-5.2,0.1-7.8,0.2c1.4-0.3,2.8-0.4,4.2-0.6
			c5.1-0.4,10.2-0.4,15.2,0L209.3,208.8z"/>
		<path class="st1" d="M281.6,214.1c-15.6-0.5-31-2.6-46.5-3.5c-7.9-0.5-15.9-0.6-23.8-0.2 M211.3,210.5c6.1-0.3,12.2-0.1,18.4,0.2
			c3.5,0.2,7,0.4,10.5,0.7c0.8,0.1,1.6,0.1,2.4,0.2c2.9,0.3,5.9,0.5,8.8,0.8l2.5,0.2c8.6,0.9,17.2,1.7,25.8,2
			c9.3,0.4,18.6,0.4,27.9,0.2l6.7-0.1c12.9-0.3,25.8-0.8,38.7-0.9c0.4,0,0.4-0.5,0-0.5c-6.3,0-12.5,0.1-18.8,0.2
			c-15.2-0.3-30.4-0.4-45.6-0.8c13.8,0.5,27.5,0.9,41.2,0.9c-16.1,0.4-32.1,0.9-48.2,0.3L211.3,210.5z"/>
		<path class="st1" d="M62.4,206.4c9.5,0.4,18.8,0.7,28.2,0.7c4.3,0,8.7-0.1,13-0.3c5.7-0.3,11.3-0.8,17-1.6
			c19.3-2.7,38-6.1,57.8-4.7c0.2,0,0.4,0,0.6-0.1c0.8-0.3,0.6-1.5-0.6-1.6c-18.3-1.4-35.8,1.5-53.7,4.2c-9.9,1.6-19.9,2.5-29.9,2.7
			c-10.3,0.1-20.6-0.4-30.8-0.8c-10-0.4-19.9-0.5-29.8-0.5c-0.6,0.2-1.1,0.2-1.7,0.3c-8,0.2-15.8,1.5-23.7,2.1
			c7.9-0.4,15.9-0.6,24-0.7C42.7,206,52.6,206.1,62.4,206.4z"/>
		<path class="st1" d="M0,207v0.2l3.9-0.2C2.6,207,1.3,207,0,207z"/>
		<path class="st1" d="M662.3,182c3-0.2,5.9-0.4,8.9-0.6h0.6c-4.6,0.4-9.2,0.7-13.8,1c-6.9,0.5,0,0,0,0c0.5,0,1,0,1.6,0
			C658.7,182.2,662.1,182,662.3,182z"/>
		<path class="st1" d="M662.3,182.2c-0.9,0-1.9,0-2.8,0.1h0.3L662.3,182.2z"/>
		<path class="st1" d="M655.1,181.2L655.1,181.2c10.4-1.6,20.9-2.6,31.5-3.1c8.9-0.5,18-0.6,26.8-1.8c-4.3,0.7-8.5,1.4-12.8,2
			c-2.5,0.4-5.1,0.7-7.7,1c-4.8,0.6-9.6,1.1-14.3,1.5c5.3-0.5,10.6-1,15.9-1.6c3.8-0.4,7.5-0.9,11.3-1.4l3.7-0.5l1.2-0.2
			c10.8-1.4,21.7-2.7,32.2-4.8c1.3-0.3,2.5-0.5,4.4-0.8v-1.9c-4.8,1-8.9,2-13.4,2.9c4.5-1,8.6-2.1,13.4-3.2v-0.6
			c-10.5,2.2-19.9,4.3-29.7,6C697.2,178.2,675.5,177.6,655.1,181.2z"/>
		<path class="st1" d="M666.1,182c-1.2,0.1-2.5,0.1-3.8,0.2c1,0,2.1-0.1,3.1-0.1L666.1,182z"/>
		<path class="st1" d="M688,180.1c-7.3,0.8-14.6,1.5-21.9,1.9C673.4,181.6,680.7,180.9,688,180.1C688.1,180.1,688,180.1,688,180.1z"
			/>
		<path class="st1" d="M0.3,154.2c0.7,0,1.3,0,2-0.1h0.3h0.1h0.8c7.6,0.5,15.2-1.1,22.6-2.3c4.6-0.7,9.2-1,13.8-1
			c4.4-0.1,8.7-0.1,13-0.2c0.1,0,0.1-0.1,0-0.1c-8-0.4-15.7-1.9-23.8-1.3c-9,0.7-17.2,3.4-26.4,3.5H2.6c-0.8-0.1-1.5-0.1-2.3-0.1
			c-0.1,0-0.2,0-0.2,0.1v1.5C0,154.2,0.1,154.2,0.3,154.2z"/>
		<path class="st1" d="M6.3,187.1c6.5,0.7,13,1.4,19.5,2.2c0.2,0,0.5,0,0.7-0.1c0.8-0.3,1-1.3-0.1-1.5c-1.9-0.4-3.9-0.8-5.8-1.1
			l-4.1-0.9h-0.1c-2.9-0.7-5.9-1.1-8.9-1.2c-2.5-0.4-4.9-0.5-7.4-0.4v1.4c0.1,0,0.5,0,0.8,0.1l0,0c-0.2,0.1-0.5,0.1-0.7,0.2v0.6
			C2.1,187.1,4.2,187.3,6.3,187.1z M16.4,186.1c-2.1-0.2-4.1-0.4-6.2-0.5c-0.5-0.2-0.9-0.4-1.4-0.6
			C11.3,185.2,13.9,185.5,16.4,186.1L16.4,186.1z"/>
		<path class="st1" d="M19.4,261.3c3.4,0.2,7.1,0.2,10.7,0.3c3.1,0.1,6.2,0.3,9.3,0.8c0,0,0.1,0,0,0c-6.2-1.5-11.8-3.1-18.4-3.6
			c-7-0.5-13.8-0.6-20.8-0.6c-0.1,0-0.1,0-0.2,0v2.5c0.1,0,0.1,0,0.2,0C6.7,260.8,12.9,261,19.4,261.3z"/>
		<path class="st1" d="M546.6,329.8c-6.5-2.2-13.2-3.5-19.9-4h-0.1c-4.4-0.4-8.9-0.7-13.3-0.9c-13.5-0.8-26.9-2.2-40.4-2.5
			c-28.5-0.5-57.6,3.4-85.3,8.3c-14,2.5-27.9,5.4-41.5,9.1c-12,3.2-23.8,6.7-34,12.5c-5.5,3.2-13.8,8.4-13,14.2
			c0.1,0.9,0.5,1.8,1,2.6c3.5,5.6,16.8,6.4,23.5,7.2c13.6,1.6,27,4,40.7,5.1c15,1.2,30.1,1.5,45.1,1c14.8-0.5,29.5-1.7,44.1-3.8
			c7.4-1,14.7-2.3,22-3.7c3.4-0.6,6.4-2,9.8-2.8l1.2-0.3c0.4,0.4,1,0.5,1.6,0.3c2.8-0.7,5.5-1.6,8.1-2.7l0.6-0.2
			c0.4-0.1,0.7-0.2,0.9-0.5c8.8-3.7,17-8.7,24.6-13.2c6-3.5,11.6-7.4,17-11.8c0.7-0.3,1.2-0.8,1.6-1.4c3.2-2.7,6.4-5.4,8.1-8.8
			l0.1-0.1c0.3-0.9-0.1-1.8-0.9-2.3C547.9,330.7,547.4,330.1,546.6,329.8z M523.1,330.7C523.1,330.7,523.1,330.8,523.1,330.7
			c-0.2,0.2-0.3,0.4-0.4,0.6c-0.6-0.1-1.2-0.3-1.8-0.4l-1.3-0.4C520.8,330.5,521.9,330.6,523.1,330.7L523.1,330.7z M534.5,344.6
			c-4.6,3.5-9.4,6.7-14.3,9.6c-6.9,4.2-14.7,8.8-22.9,12.3c-0.5-0.2-1.1-0.3-1.7-0.2c-13.8,3.2-28.1,5.1-42.3,7.1
			c-14.6,2-29.3,3.3-44,3.8c-14.5,0.5-29,0.2-43.4-0.9c-14.2-1.1-27.9-3.6-41.9-5.3c-4.8-0.6-9.8-1.1-14.3-2.6
			c-1.9-0.6-3-1.3-3.4-2.1c-0.5-1.1,0.2-2.4,1.9-4c4.5-4.4,10.7-7.7,17.4-10.4c0.7,0.2,1.5,0.2,2.2,0.1c4.4-1,8.7-2.1,13.1-2.9
			c9.5-1.6,18.8-4,28.3-5.9c9.7-2,19.5-3.6,29.3-4.8c5-0.6,10.1-1.1,15.1-1.4c4.2-0.3,8.7-0.1,12.8-0.9c7.7-1.5,15.7-2.1,23.5-3.2
			c9-1.2,18.1-1.9,27.2-2.4c2.5-0.1,5.1-0.2,7.7-0.3c18,1,37.1,4.1,50.4,13.4l0.3,0.2C535.2,344.1,534.9,344.3,534.5,344.6z"/>
		<path class="st1" d="M652.3,301.8c6.2-1.2,12.5-1.4,18.9-1.8c5.7-0.4,11.3-1.3,16.9-2.7c0.1,0,0-0.1,0-0.1
			c-11.3,3.3-24.2,1.9-35.8,4.2C651.9,301.5,652,301.9,652.3,301.8z"/>
		<path class="st1" d="M725.2,301.2c-8.7,0.8-18.1,0.4-26.9,0.2c-1.7,0-2.1,1.2-1.5,2c0.3,0.4,0.9,0.7,1.4,0.7
			c6.5,0.5,12.9,0.1,19.3-1c1.3-0.2,2.6-0.5,3.9-0.7c4.4-0.9,10-0.9,14.5-1.2c3.8-0.3,7.6-0.4,11.4-0.2v-0.8
			C739.9,300,732.5,300.4,725.2,301.2z"/>
		<path class="st1" d="M8.3,303.7l2.8,0.2c-1.1-0.1-2.2-0.2-3.3-0.3L8.3,303.7z"/>
		<path class="st1" d="M13.6,301.5c2.9,0.4,5.7,1,8.5,1.5l5.1,1.1c4.8-0.1,9.7-0.2,14.6-0.2c9.7-0.2,19.3,0.2,28.9,1.2
			c6.1,0.8,15.8,2.2,17.1,7.7c0.3,0.6,1,1,1.7,1c4.6,0,9.1,0.5,13.8,0.1c5.1-0.5,10.1-1.4,15-2.7c4.7-1.1,9.3-2.5,13.9-3.7
			c6.3-1.6,12.6-1.9,19.2-2.1c28.1-1.1,56.2,0.7,84.3,0.6c5.3,0,10.5-0.2,15.8-0.2c1.5,0,3,0,4.5,0.1c6.9,0.2,13.8,0.8,20.7,1.3
			c12,0.9,24,1.9,36.1,1.1c18.7-1.1,39.4-7.1,58.1-3.7c0.9,0.2,1.8,0.4,2.7,0.5l0.6,0.1c0.5,0.1,0.9-0.4,0.5-0.7l-0.3-0.2
			c-0.5-0.4-1-0.8-1.5-1.2c9.4-1.4,19.5-1.3,29.1-1.5c10.7-0.2,21.4-0.9,32.1-0.8c12.2,0.2,24.3,1.1,36.5,1.4
			c13.3,0.4,26.3-0.6,39.5-1.6c12.8-1,25.7-2,38.6-1.9c12.5,0,25,1.4,37.3,2.5c17.6,1.6,35.2,3.1,52.9,3.7
			c7.7,0.3,15.4,0.3,23.2,0.2c0.4,0,0.4-0.4,0-0.4c-25.5-0.6-50.8-4-76-6.4c-12.4-1.2-24.8-2.5-37.3-2.7c-13.5-0.2-27,1-40.4,2.1
			c-12.5,1.2-25.1,1.7-37.7,1.5c-12.8-0.3-25.5-1.3-38.3-1.4c-10.6-0.1-21.2,0.7-31.8,0.9c-10,0.2-19.9,0.6-29.3,3.5
			c-0.5,0.2-0.9,0.7-0.3,1l0.6,0.4l0.9,0.6l-1.6-0.2c-7.9-1.1-16-0.4-23.9,0.3c-10.6,0.9-21.1,2.5-31.7,3.3
			c-11.7,0.9-23.5-0.3-35.1-1.4c-14.2-1.3-28.3-1.6-42.5-2.2c-13.8-0.6-27.7-0.3-41.6-0.8c-14.2-0.6-28.5-0.5-42.7,0
			c-5.7,0.2-12,0-17.5,1.2c-4.9,1-9.6,2.4-14.4,3.7c-5.3,1.4-10.6,2.5-16,3.3c-4.9,0.7-9.6,0.2-14.5,0.1c-1.8-4.3-7.9-6.4-13.3-7.6
			c-9.5-2.1-19.8-2.2-29.5-2.3c-9.3-0.1-18.4,0.3-27.7,0.3C18.2,301.6,15.9,301.6,13.6,301.5z"/>
		<path class="st1" d="M554.7,325.5c-18.8-5.8-38.6-8.3-59-9.8c-26.3-1.9-52.8-0.1-78.8,2.6c-38.6,4-80.7,8-114.6,23.6
			c-7.8,3.6-15.8,8.1-20.8,14c-4.5,5.2-7.5,11.6-8.7,18.4c0,0.2,0.1,0.4,0.2,0.6c0.1,0.2,0.4,0.4,0.6,0.5c4.7,1.5,9.3,3.2,13.8,4.9
			l1.6,0.6c0.1,0.7,0.5,1.4,1.3,1.6c2.4,0.7,4.9,1.2,7.4,1.5c2.6,0.9,5.2,1.8,7.8,2.7c10.5,3.3,21.2,5.5,32.2,6.6
			c29,3.2,58.3,3.6,87.4,1.3c14.4-1.1,28.8-3,43-5.8c6.4-1.2,12.8-2.7,19.1-4.3l1.7-0.5l0.9-0.2c25.1-6.8,48.6-16.8,68.1-31
			c2.2-1.6,4.2-3.3,6.2-5c1.7-1.5,3.2-3.9,5.5-4.8c3.5-1.4,7.1-4.2,7.5-7.4c0-0.1,0-0.2,0-0.3C577.8,326.7,563.4,325.6,554.7,325.5z
			 M281.8,373.6c0.3-0.4,0.6-0.7,1-1c0,0.5,0,0.9,0,1.4L281.8,373.6z M412,392.9c1-0.2,2-0.4,3-0.5c3.9-0.3,7.7-0.3,11.6-0.1
			C421.8,392.6,416.9,392.8,412,392.9L412,392.9z M575.3,335c-0.5,2.7-3.6,5.3-6.9,6.8c-3.7,1.7-6.3,5.4-9.3,7.9
			c-4.1,3.3-8.4,6.3-12.9,9c-19.1,11.8-42.1,20.4-65.6,26c-9.5,2.2-19,4-28.7,5.2l-1,0.1l-2.6,0.3c1.2-0.5,2.4-1.1,3.5-1.8
			c0.2-0.1-0.1-0.3-0.3-0.2c-12,5.1-26.1,2.1-39.2,3.2c-6.8,0.6-13.4-0.5-20.2-0.5c-8.6,0-17.2-0.7-25.8-1.1c-8.6-0.4-17-1.3-25.5-2
			c-8.3-0.7-16.9-1.6-24.8-3.7l-0.6-0.2c-0.9-0.4-1.9-0.8-2.8-1.1c-1.4-1-2.7-2.1-4.2-3c-2.7-1.6-5.5-3.1-8.4-4.4
			c-1.9-1.5-3.7-3-5.5-4.6c-2.7-2.5-4.4-4.4-4.5-7.6c0.1-2-0.1-4-0.5-6c-0.1-0.4-0.2-0.8-0.4-1.2c5.9-4.4,12.4-8,19.2-10.9
			c16.8-7.4,35.9-11.6,54.7-14.7c21-3.5,42.6-5.9,64-7.9c26.1-2.4,53.2-3.8,79.5-2.4c15.9,0.7,31.6,3,47.1,6.6l1.1,0.3l0.8,0.2
			c3.6,0.9,7.1,1.9,10.6,3c0.4,0.1,0.6-0.3,0.2-0.4c-1.7-0.7-3.4-1.3-5.1-1.9l-1.8-0.6c-1.5-0.5-2.9-1-4.4-1.4
			c5.9,0.4,12.9,1.2,17.3,4.2c0.2,0.1,0.4,0.3,0.6,0.4C575,331.8,575.6,333.4,575.3,335z"/>
		<path class="st1" d="M109.4,365.9c20.5-0.1,41.4-2.8,61.3-6.6c16.1-3.1,31.5-7.8,47-12.5c2.5-0.5,5-0.9,7.5-1.4
			c1-0.1,1.9-0.7,2.3-1.6c3.3-1,6.7-2,10.1-2.9c0.6-0.1,1-0.5,1.2-1c0-0.1,0-0.1,0-0.2c0-0.4,0-0.7,0-1.1c-0.1-0.7-0.6-1.2-1.2-1.2
			c-18.7-3.3-35.6-10.9-55.2-10.8c-9.8,0-19.5,1.7-29,3.3c-10.3,1.8-20.7,3-31.2,3.5c-21,0.9-42-0.8-63-0.4c-4,0.1-8.1,0.6-12,0.1
			c-3.4-0.5-7,0.5-10.5,0.7c-4.7,0.2-9.5,0.1-14.2,0.5c-1,0.8-2.3,1.3-3.5,1.3c-1.4,0.1-2.8,0.2-4.2,0.2c-0.4,0.1-0.8,0.3-1.3,0.5
			c-0.9,0.2-1.5,1-1.7,1.9c-1.3,0.2-2.6,0.8-3.6,1.6c-0.6,0.3-0.7,1.1-0.4,1.6l0.1,0.1c0.1,0.1,0.2,0.2,0.3,0.3
			c5.4,4.6,12.1,8,19.3,10.6c11.2,4.9,23,8.5,35.1,10.5c11.1,1.8,22.3,2.7,33.6,2.5C100.6,365.7,105,365.9,109.4,365.9z M12.9,341.1
			l-0.4-0.2l0.7-0.2l0.3,0.1C13.4,340.9,13.2,341,12.9,341.1L12.9,341.1z M173.8,356c-7,1.5-14.1,2.7-21.3,3.8
			c10.1-1.7,20.2-3.7,30.2-5.8C179.7,354.7,176.8,355.4,173.8,356z M59.5,356.1c-4.4-0.8-8.9-1.6-13.4-2.6
			c-9.6-2.9-18.7-6.8-27.4-11.8c-0.4-0.2-0.7-0.4-1.1-0.6c-0.2-0.1-0.4-0.2-0.5-0.3c1.8-0.7,3.7-1.2,5.7-1.4
			c0.6-0.1,1.2-0.1,1.7-0.2h0.2c5.4-0.5,11.3-0.1,16.3-0.6c2.6-0.3,5-0.8,7.5-1.2c4.6-0.6,9.2-1,13.8-1.1
			c20.5-0.5,41.1,0.7,61.6-0.2c19.3-0.9,37.5-6.2,56.7-7.1c18.7-0.9,35.7,6,53.1,10.2L231,340c-1.5,0.4-2.9,0.8-4.4,1.2
			c-0.9-0.8-2.2-1.1-3.3-0.8c-45.8,8.4-97.2,22.8-144.8,19C72.1,358.4,65.8,357.2,59.5,356.1L59.5,356.1z"/>
		<path class="st1" d="M694.3,329c-28.6,2.8-58.3,6.6-85.7,13.7c-5.4,1.4-10.7,3-15.9,4.9c-5.8,2.1-12.8,4.5-17.4,7.9
			c-8.4,6.3-17.4,12.3-26.6,17.9c-20.6,12.5-45.9,18.6-70.9,24.2c-14.3,3.3-28.8,5.4-43.4,6.5c-11.5,0.7-23.1,0.7-34.6,0.9
			c-24.4,0.3-49.1,0-73.2-3.1c-11.3-1.4-22.4-3.7-33.3-6.9c-2.6-0.8-5.1-1.7-7.6-2.6c-2.3-0.9-6-1.7-7.5-3.4
			c-2.5-2.9-6.1-2.7-10.1-3.9c-9.2-2.8-19-5.3-28.9-6.3c-3.9-0.5-7.8-0.4-11.7,0.3c-1.7,0.4-5.1-0.8-7-1c-3.2-0.2-6.5-0.3-9.7-0.1
			c-14.2,0.9-27.5,5.2-41.4,7c-15.5,2-31.4-1.2-46.8-2.9c-0.4-0.7-1.1-1.1-1.9-1.3c-11.7-2.9-24.4-1.3-36.5-1.9
			c-7.4-0.2-14.7-1.5-21.7-3.8c-6.5-2.3-12.5-5.6-18.6-8.5c-9.2-4.4-18.6-8.5-28.4-12.2c-1.4-0.9-2.9-1.7-4.4-2.4
			c-1.3-0.6-6.8-2.1-6.9-3.4c-0.1-0.5-0.6-0.8-1-0.7H3.1c-0.4,0.1-1.6-0.7-2.3-0.8c0,0-0.1,0,0,0c0.2,0.8,0.8,1.5,1.6,1.8v0.1
			c0,0,0,0,0,0.1c-0.3,0.3-0.3,0.8,0.1,1.1c0,0,0.1,0,0.1,0.1c3.6,2.3,8.2,3.4,12,5.6c0,0.4-0.2,0.8-0.3,1.2
			c11,4.3,21.5,9.3,32.2,14c5.4,2.6,11,4.8,16.7,6.8c5.9,1.7,11.9,2.8,18,3.1c12.4,1,24.2,0.8,36.1,3.6c0.5,1,1.6,1.7,2.8,1.6
			c14.4,1.2,28.3,3.3,42.9,2.8c12.2-0.4,23.9-3.8,35.7-6c5.9-1.2,12-1.9,18-1.9c3,0,6,0.3,9,0.9c2.4,0.5,3.9-0.1,6.3-0.4
			c10.1-0.9,20.8,1.9,30.1,4.3c3.1,0.8,9.5,1.9,11.3,4.2c1.3,1.6,1.7,2.8,3.8,3.9c2.5,1.3,5.1,2.4,7.8,3.4
			c10.3,3.6,20.9,6.2,31.7,7.9c23.5,3.9,47.9,4.7,72,4.7c25,0,50.1-0.1,74.6-4.2c14-2.3,27.6-5.8,41.1-9.3
			c12.2-3.2,24-6.6,35.1-11.7c8.8-4.2,17.2-9.4,24.9-15.4c4.3-3.2,7.9-6.8,12.1-10.1c5.2-4,11.9-6.8,18.5-9.3
			c12.6-4.9,26.3-7.7,40-10.4c14.5-2.9,29.6-5.3,44.3-7.3c20.9-2.8,41.7-4.6,63.8-5.4c1.5,0,3-0.1,4.5-0.2v-1.4
			c-2.9,0-5,0.1-7.2,0.2C724.9,326.4,709.3,327.6,694.3,329z"/>
		<path class="st1" d="M663.8,350.1c-17.5,2.4-33.6,8.6-49,15c-5.4,2.2-10.9,4.1-16.5,5.9c-1.5,0.2-3,0.7-4.3,1.3l-5.7,1.7
			c-4.1,1.2-8.1,2.6-12.1,4.3c-1.9,0.8-2.8,0.9-3.1,1.9c-7.4,2.9-14.6,5.8-21.9,8.8c-24.8,10.1-50.2,19.3-77.7,24.1
			c-14.7,2.6-29.4,2.7-44.5,3.1c-14.8,0.4-29.6,0.1-44.5,0.2c-12.8,0-25.4,1.1-38.1,1.8c-13.1,0.7-26.3,0.5-39.4-0.7
			c-6.2-0.5-12.4-1.4-18.4-2.8c-2.8-0.7-5.3-3.2-7.7-4.6c-3-1.7-6.1-3.1-9.3-4.2c-10.2-3.6-21.5-4.6-32.6-4.9
			c-5.7-0.2-11.5,0-17.3-0.3c-6.7-0.3-13.3-1.6-20-1.6c-9.1,0.1-17,0.7-25.8-1c-7.6-1.5-15.5-4-23.4-4.4c-4.7-0.2-11.1-0.1-12.9,4
			c-0.2,0.6-7.2,1.7-8.3,1.9c-3.9,0.7-7.8,1.2-11.7,1.4c-1.4,0.1-6.2,0.8-6.7-0.2c-0.4-0.7-1-1.4-1.6-2c-3.3-3.3-9.2-5.1-14-6.6
			c-17.8-5.5-37.6-7.6-56.5-9.3c-5.5-0.5-11-1-16.5-1.1c-3.7,0.1-7.3,0.5-10.9,1.1c3.2,0,6.3,0,9.5,0.1c10.4,0.3,20.7,1.3,30.9,2.5
			c12.2,1.3,24.3,3.3,36.2,6c5.6,1.3,15,3.4,19.7,7.4c1,0.8,1.8,1.9,2.3,3.1c0.1,0.3,0.4,0.4,0.7,0.4h0.4c5.8,0,11.7-0.4,17.5-1
			l1.5-0.1c3.3-0.4,6.5-0.8,9.8-1.4c1.2-0.2,1.2-1.4,2.2-1.9c2.1-1.1,5.7-0.3,7.9,0.1c4.1,0.7,8.1,1.4,12.1,2.2
			c7,1.6,14.1,3.6,21.5,4.1c4.7,0.3,9.8-0.1,14.5-0.1c6.8,0.1,13.6-0.2,20.4-0.5c12.2-0.5,24.6-0.8,36.6,0.8
			c6,0.8,11.9,2.3,17.6,4.5c3.2,1.2,6,2.9,9,4.3c2.4,1.2,5,2,7.6,2.5c19.2,3,38.9,3.4,58.5,3.6c5.8,0.1,11.5,0.1,17.2,0.2
			c20.1,0.3,40.3,0.3,60.4-0.1c20-0.5,40-3,59.5-7.7l2-0.5c29.7-7.2,56.5-19.7,84.3-30.4v0.1c0,0.1,0.1,0.2,0.2,0.3
			c0.2,0.1,0.4,0.1,0.6,0c4.8-1.9,9.6-3.9,14.4-5.8l3.2-1.5l3.2-1.1l3.1-0.9c7.6-2.2,14.9-4.9,22.1-7.7c5.3-2,10.5-4.1,15.9-6
			c5.5-2,11.1-3.6,16.8-5c5.8-1.3,11.6-2.2,17.5-2.6c13.7-1.1,27.6-0.5,41.4-0.7c2,0,3.9-0.1,5.9-0.1c10-0.3,19.7-1,30.2-1.9v-1.2
			c-8.6,0.6-16.7,1.1-24.9,1.5C703.1,349.4,682.9,347.4,663.8,350.1z"/>
		<path class="st1" d="M10.7,410.4c-2.7,0.3-5.4,0.7-8,1.3c1.5,0.1,3.3,0.1,4.8,0.2l2.1,0.1c16.7,0.6,33.1,1.6,49.8,2.5
			s33.2,1.4,49.9,1.8c17.3,0.4,34.6,0.6,51.9,0.6c0.2,0,0.2-0.2,0-0.2c-34-0.2-67.8-3-101.7-4.4c-16.2-0.7-32.1-1.3-48.2-1.9
			L10.7,410.4z"/>
		<path class="st1" d="M267.1,346.9c-8.4,4-17.2,7.1-26,10.4c-4.1,1.5-8.1,3.1-12.1,4.8c-2,0.9-4,1.9-5.8,3.1
			c-2.1,1.2-5.4,1.6-7.9,2.1c-21.9,4.5-44.1,5.4-66.6,5.4c-10.7,0-21.3-0.4-32-0.5c-11-0.1-21.7,0.6-32.7,1.1c-0.1,0-0.1,0.1,0,0.1
			c5.9,0,11.8,0.3,17.6,0.6c5,0.2,10,0.6,15,0.8c10.6,0.5,21.4,0.7,32,0.8c21.3,0.2,43.2-1.1,63.9-5.2c4-0.8,9.2-1.3,12.4-3.4
			c4.2-2.6,8.6-4.8,13.1-6.6c2.8-1.2,5.6-2.4,8.5-3.5c5.6-2.3,11.3-4.7,16.6-7.4c7.2-3.6,14.5-7.3,22-10.8
			C279,341.3,273,344,267.1,346.9z"/>
		<path class="st1" d="M323,323.3l-1.8,0.6L323,323.3C323.1,323.4,323,323.3,323,323.3z"/>
		<path class="st1" d="M285.1,338.6c11.8-5.2,23.8-10.1,36.1-14.6C308.8,328.1,296.8,333,285.1,338.6z"/>
		<path class="st1" d="M4.3,327c0.1,0,0.3,0,0.4,0c4.5-0.6,9.1-0.9,13.7-0.8c1.1,0,2.2,0.3,3.1,0.8c5.4-0.2,10.8-0.5,16.2-0.7
			c30.1-1,60-1.4,90-2.4c15-0.5,30-1.7,45-1.9c15.1-0.1,30.1,0.6,45.1,2c14.3,1.2,28.9,2.5,43.3,1.6c13.4-1,26.7-2.9,39.9-5.6
			c3.1-0.6,6.3-1.2,9.4-1.8c12.6-2.3,25.3-4.1,38.3-4.3c0.5,0,0.5-0.6,0-0.6c-28.1-0.1-54.8,7.4-82.5,9.4c-14.2,1-28.9-0.3-43.1-1.1
			c-15-0.8-29.8-2.1-44.9-2.3c-15.1-0.2-30.1,1-45.1,1.5s-29.8,0.6-44.8,0.7c-22.2,0.2-44.9,0-67,0.9c-0.6,0.3-1.2,0.5-1.8,0.6
			c-6.6,1.1-12.9,2.4-19.6,2.7v1.5C1.4,326.9,2.9,326.9,4.3,327z"/>
		<path class="st1" d="M489.5,348.5c-6.2,0-12.4-0.2-18.7-0.1c-12.7,0.2-25.2,0.8-37.9,1.8c-12.2,1-24.3,2.3-36.4,3.9
			c-12.1,1.7-24.1,3.2-35.9,5.9c-2,0.5-2.7,1.9-2.3,3.2c0.6,1.2,1.8,2,3.2,1.9h2.6c-1.3,0.4-2.7,0.7-4,1.2l-0.4,0.1
			c-0.8,0.3-0.2,1,0.5,0.9l1.7-0.2c6.5-0.7,12.9-1.6,19.4-2.1c6.3-0.2,12.5-0.5,18.8-0.9l6.5-0.2c13.1-0.3,26-0.9,38.9-2.2h0.4
			c9.8-1,19.4-1.9,29-3.4c7.4-1.1,15.7-2.7,21.4-6.7l0.5-0.4l0.8-0.6c0.1-0.1,0.1-0.2,0-0.3l0,0
			C495.7,348.4,492.8,348.5,489.5,348.5z M396.3,359.2c-3.5,0.2-7.1,0.4-10.6,0.5c4.6-0.9,9.2-1.8,13.9-2.5
			c13.3-2,26.8-3.3,40.3-4.3c11.2-0.8,22.4-1.3,33.6-1.9c-8,1.1-16,1.7-24,2.7h-0.2c-9.9,1.2-19.8,2.4-29.8,3.5
			C411.9,358.1,404.1,358.8,396.3,359.2z M496.8,351c-0.1,0.2-0.3,0.3-0.4,0.4c-1.9,1.6-7.6,3.5-8.6,3.9
			c-12.4,3.8-26.3,4.4-39.9,4.8c-4.1,0.1-8.2,0.2-12.1,0.4c4.6-0.6,9.1-1.3,13.6-2c9.6-1.6,19-4.1,28.6-5.9c0.2,0,0.4-0.1,0.6-0.2
			l0,0c0.4-0.3,0.5-0.8,0.2-1.2c-0.1-0.1-0.1-0.2-0.2-0.2h0.8c3.4-0.2,6.7-0.4,10.1-0.4c0.8,0,2.4-0.2,3.9-0.4
			c1.1-0.2,2.2-0.2,3.3,0.1C496.9,350.4,497,350.7,496.8,351L496.8,351L496.8,351z"/>
		<path class="st1" d="M721.3,368.7h-0.6c1.4,0,2.9,0,4.3,0.1C723.7,368.8,722.5,368.7,721.3,368.7z"/>
		<path class="st1" d="M560.4,398.5l1.6,0.5l1.3,0.4c1.6,0.4,3.2,0.8,4.8,1.2l0.9,0.2c14.8,2.8,30.9,1.5,46.1-0.4
			c2.1-0.3,4.3-0.6,6.4-0.9l1.6,0.1c11.3,0.9,22.6,0.5,33.8-1c9.8-1.2,19.4-3,29-5.4c3.6-0.4,7.2-1,10.8-1.6l0.6-0.1
			c0.9-0.1,1.8-0.3,2.7-0.5c1.9-0.4,3.8-0.8,5.7-1.2c2.5-0.6,6.1-2.1,9-2.4c0.4,0,0.8-0.1,1.2-0.1s0.8-0.1,1.1-0.4
			c0.2-0.2,0.3-0.5,0.3-0.7c0-0.6-0.4-1.1-1.4-1.1h-1c-0.6,0-1.2,0-1.7,0.1c-0.8,0.1-1.6,0.1-2.5,0.2c4.7-1.8,9.3-3.9,13.7-6.5
			c4-2.4,7.1-5.2,11.6-7l0.2-0.1c0.7-0.2,1.3-0.5,2.1-0.7c0.1,0,0.1-0.1,0-0.2c-4.1-1.3-8.3-2-12.5-2.2c1.3,0.1,2.7,0.2,4,0.4
			c1.1,0.1,2.3,0.3,3.4,0.6c-0.3,0,5.3,1,3.7,1.6l-1,0.4l-0.2,0.1c-3,1.3-5.9,2.9-8.5,4.9c-6.1,4.4-13.6,7.3-21.5,9.5
			c-2.6,0.5-5.1,0.9-7.5,1.3c-8.1,1.1-16.1,2.6-24.2,3.7c-11.4,1.6-22.9,3.1-34.3,4.7l-7,0.1l-13.3,0.2h-0.6
			c-9.4-0.6-18.9-1.2-28.3-1.1c-7.7,0.1-15.4,1.5-22.6,4.2c-0.1,0,0,0.2,0.1,0.2c1.9-0.2,3.8-0.4,5.7-0.5c7.9-0.7,15.7-1.2,23.6-1.5
			c6.7,0.3,13.4,1.1,20.1,1.7c-2.3,0.3-4.5,0.5-6.8,0.8c-4.9,0.5-9.7,0.9-14.6,1.2c-5.6,0.3-11.2,0.2-16.9,0c-2.5-0.1-5-0.3-7.4-0.6
			c-0.5-0.1-0.9-0.1-1.4-0.2h-0.1H570l-0.4-0.1c-1.8-0.3-3.5-0.9-5.2-1.2c-0.4-0.1-0.9-0.2-1.3-0.2c-0.6-0.1-1.2-0.1-1.9-0.1
			c2.5,0,2.8-1.1,4.7-2c1.5-0.6,3.1-1.2,4.8-1.5c2.2-0.6,4.6-1,6.8-1.4c2-0.4,4-0.7,5.9-1l-1.9,0.6l2.4-0.7c7.2-1.1,14.4-2,21.7-2.7
			c11.2-1.1,22.4-4,33.2-6.3c14.2-3,28-6.5,42-9.7c1.6-0.4,3.2-0.7,4.8-1c2.9-0.5,5.8-0.9,8.8-1.2l1-0.1c3.8-0.4,7.7-0.7,11.5-1
			c0.7-0.1,0.8-0.7,0.3-0.9c4.5-0.4,9.1-0.8,13.7-0.9c-9.8,0.1-19.8,1.8-29.8,1.2c-0.1,0-0.1,0.1,0,0.1c2.6,0.1,5.2,0.1,7.8,0
			c-23.3,1.9-46.1,5.8-68.7,10.2c-4.9,0.8-9.8,1.8-14.6,2.9l-5.3,1.1c-9.9,2-19.6,4.4-29.4,6.6c-4.2,1-8.4,2.2-12.5,3.6
			c-2.1,0.7-5.4,3.4-7.5,3.5C560.2,397.9,559.9,398.4,560.4,398.5z M698.9,389.5c1.2-0.2,2.3-0.4,3.5-0.5c-1.3,0.3-2.5,0.7-3.8,1
			c-1.3,0.3-2.7,0.6-4,0.9L698.9,389.5z M668.2,394.9c-1.9,0.2-3.7,0.3-5.6,0.4c-1.5,0.1-3.1,0.2-4.6,0.2c1.8-0.1,3.5-0.2,5.2-0.3
			c1.7-0.1,3.5-0.2,5.3-0.4l1.6-0.1L668.2,394.9z M668.6,393.1l6.9-0.9c-1.1,0.2-2.3,0.4-3.4,0.6l-3.2,0.6c-5.6,1-11.3,1.8-17,2.4
			h-0.8l-3.4,0.1C654.7,394.9,661.7,394,668.6,393.1L668.6,393.1z M646.1,396.1l3.9-0.1h0.4l-1.4,0.1c-1.3,0.1-2.7,0.3-4,0.4
			c-1.3,0.1-2.7,0.2-4.1,0.3L646.1,396.1z M637.1,396.3l-4,0.6c-2.8-0.1-5.5-0.2-8.2-0.3L637.1,396.3z M577.1,397.9
			c-2,0.2-4.1,0.4-6.1,0.7c-4,0.6-0.2-0.1,0.4-0.3c1.7-0.3,3.3-0.6,5-0.7c0.9-0.1,1.8-0.1,2.6-0.2c1.9-0.1,3.9-0.2,5.8-0.2
			C582.3,397.5,579.7,397.7,577.1,397.9L577.1,397.9z M628.7,380.5l-8,1.6C623.3,381.6,626,381.1,628.7,380.5L628.7,380.5z"/>
		<path class="st1" d="M579.3,393.9l1.9-0.6L579.3,393.9C579.2,393.9,579.2,394,579.3,393.9z"/>
		<path class="st1" d="M531.3,310.4c8.6,0.2,17.2,0.7,25.9,1.3c7.1,0.5,14.2,1.3,21.3,2.1c7.1,0.8,14.1,1.7,21.1,2.4
			c14.3,1.4,28.4,2.5,42.9,2.6c5,0,9.9-0.1,14.8-0.4c9.3-0.6,18.7-1.6,27.9-2.7c0.1,0,0-0.1,0-0.1c-14.8,1.8-29.6,1.4-44.4,0.8
			c-2.2-0.1-4.3-0.2-6.5-0.3c-4.9-0.2-9.9-0.5-14.8-0.9c-7.2-0.5-14.4-1-21.5-1.6c-13.6-1-27.1-1.9-40.7-2.7
			C548.5,310.5,539.9,310.5,531.3,310.4z"/>
		<path class="st1" d="M514.8,310.4h3H514.8C514.7,310.3,514.7,310.4,514.8,310.4z"/>
		<path class="st1" d="M517.8,310.3c4.5,0.1,9,0.1,13.5,0.1C526.8,310.3,522.3,310.3,517.8,310.3z"/>
		<path class="st1" d="M687.8,312.5c-30.4,2.6-61,2.5-91.4-0.2c-0.2,0-0.3,0.3-0.1,0.3c30.4,3.3,60.9,2.4,91.5,0.4
			c15.3-1,31-2.5,46.2-3.9c4.3-0.4,8.5-0.7,13.3-1.1v-0.9c-4.8,0.4-9,0.9-13.2,1.3C718.8,309.9,703.1,311.3,687.8,312.5z"/>
		<path class="st1" d="M620.5,415.5c13.4-0.4,26.8-1.4,40-2.9c20.3-2.3,40.3-5.5,60.4-8.8c0.3-0.1,0.2-0.4-0.1-0.4
			c-33.1,5.6-66.6,8.9-100.2,10c-33.5,1-65.9-3.5-100.2-3.4v0.1c21,0.2,40.8,2.4,60.9,4C594.4,415.3,607.5,415.8,620.5,415.5z"/>
		<path class="st1" d="M727.2,406.5c2.3-0.2,4.5-0.3,6.8-0.4c4.2-0.2,8.4-0.2,13.4-0.3V404c-7.6,0.2-13.3,0.6-19.9,1.2
			C726.3,405.3,726,406.6,727.2,406.5z"/>
		<path class="st1" d="M4,308.6l0.5-0.2c4.5,0.2,8.9,0,13.4,0.1h1.4c5.1,0.1,9.9,1.7,14.9,2.4c1.3,0.2,2.7,0.3,4,0.4
			c0.3,0,0.5-0.4,0.2-0.5c-5-1.7-10.1-3.4-15.6-4c-1.5-0.1-3.1-0.2-4.6-0.2c-0.3,0.5-0.9,0.9-1.5,0.8c-2.3,0.1-4.7-0.1-7-0.5
			c-2.3,0.1-4.7,0.2-7,0c-0.6-0.1-1.2-0.1-1.7-0.1H0.1v2.6H1C2,309.3,3.1,309.1,4,308.6z"/>
		<path class="st1" d="M23.6,404.7c1.6-0.2,3.2-0.4,4.8-0.7c0.4-0.1,0.4-0.5,0-0.5C19,403,9.5,403,0.1,403.6v2.3
			C7.9,406.2,15.8,405.9,23.6,404.7z"/>
	</g>
</g>
</svg>
