<?xml version="1.0" encoding="utf-8"?>
<!-- Generator: Adobe Illustrator 23.0.3, SVG Export Plug-In . SVG Version: 6.00 Build 0)  -->
<svg version="1.1" id="Ebene_1" xmlns="http://www.w3.org/2000/svg" xmlns:xlink="http://www.w3.org/1999/xlink" x="0px" y="0px"
	 width="680.1px" height="547px" viewBox="0 0 680.1 547" style="enable-background:new 0 0 680.1 547;" xml:space="preserve">
<style type="text/css">
	.st0{fill:#FFE5B0;}
	.st1{fill:#CCA97A;}
	.st2{fill:#A57F5D;}
	.st3{fill:#EECE94;}
	.st4{fill-rule:evenodd;clip-rule:evenodd;fill:#EECE94;}
	.st5{fill:none;}
	.st6{opacity:0.5;}
	.st7{opacity:0.85;}
	.st8{fill:#F0D4A0;}
	.st9{opacity:0.3;fill:#FFFFFF;}
	.st10{opacity:0.3;fill:#F0D4A0;}
	.st11{opacity:0.6;}
	.st12{opacity:0.32;fill:#FFFFFF;}
	.st13{opacity:0.32;fill:#F0D4A0;}
	.st14{opacity:0.35;fill:#FFFFFF;}
</style>
<g id="XMLID_391_">
	<g>
		<g>
			<g>
				<path class="st0" d="M662.6,223.8L646.8,29.6L22.7,39.5l0.3,257l10.7,237c0,0,298.4,11.2,298.4,10.7l314.3-22.3L662.6,223.8z"/>
			</g>
			<path class="st1" d="M21.5,486.2c3.7,0,7.2-0.3,10.5-1.7c0.3-1.2-1.6-2.4,0-3.7c2.6,0.6,5.4,0.8,8.6,2
				c-2.1,5.4,0.1,11.1-1.8,16.7c5.9-0.2,9.8,3,14.5,4.2c0.3,1.6-0.6,2-1.7,2.6c-3.3,1.7-4.7,5.7-2.9,8.5c2,3.1,4.3,6,6.4,9.1
				c0.8,1.2,2.1,1.5,3.6,1.8c6.1,1.1,12.3,2.2,18.3,3.5c2.4,0.5,4.7,1.6,6.7,2.3c1.8,2.1,1.3,4.5,3,6.2c1,0.7,3-0.1,3.5,1.2
				c-5.3,2.7-10.5,5.4-15.8,8.1c-6.4,0-12.8,0-19.3,0c-0.4-5-2.8-9.7-2.9-14.6c-0.6-0.8-1.3-1.5-2.3-1.8c-6.5-2.2-12.3-5.4-18.5-7.9
				c-2.6-1.1-5.1-2.6-8.3-2.5c-1.3-4.6-0.6-9.6-3.5-14c-0.2-0.3-0.3-0.7-0.3-1c-0.3-5.9-1.1-11.8,1.7-17.5
				C21.4,487.2,21.4,486.7,21.5,486.2z"/>
			<path class="st1" d="M23.3,520.1c3.2-0.1,5.7,1.5,8.3,2.5c6.2,2.5,12,5.7,18.5,7.9c1,0.3,1.7,1,2.3,1.8c0,4.9,2.5,9.7,2.9,14.6
				c-4.9,0-9.8,0-14.7,0c-0.6-2.2,1.2-3.9,2.8-5.5c-1-1.3-2.1-2.1-3.6-2.7c-1.7,0.6-3.4,1-5.7,0.1c0.5-1.9,0.9-3.9,1.5-5.8
				c0.7-2.4,0.2-3.3-3-4.1c-3.3-0.8-6.6-1.7-10.1-1.3C22.2,525.1,23.9,522.7,23.3,520.1z"/>
			<path class="st2" d="M22.5,527.7c3.6-0.3,6.9,0.5,10.1,1.3c3.2,0.8,3.7,1.7,3,4.1c-0.6,1.9-1,3.9-1.5,5.8
				c2.2,0.8,3.9,0.4,5.7-0.1c1.5,0.6,2.6,1.5,3.6,2.7c-1.5,1.6-3.3,3.2-2.8,5.5c-5.5,0-11,0-16.5,0c-0.5-0.8-1.6-0.4-2.5-0.8
				C19.3,540,21,533.8,22.5,527.7z"/>
			<path class="st2" d="M626.4,34.9c-0.9,0-1.8-0.1-2.6-0.1c-0.1-0.4-0.1-1-0.8-1.2c-10.3-2.7-20.6-5.1-31.7-5
				c-2.3,0-4.3,0.9-6.7,0.8c-7.9-0.5-15.7,1.2-23.6,0.7c-0.3,0-0.6,0-0.9,0c-7.8,1.1-15.7,1.2-23.5,1.3c-20.3,0.3-40.6,0.1-60.9,0.1
				c-1.2,0-2.5-0.2-3.6,0.1c-6.3,1.5-12.9,0.7-19.4,1.1c-7.8,0.5-15.7,1.4-23.6,0.9c-0.3,0-0.6,0-0.9,0c-7.6,1.6-15.4,0.2-23.1,1.2
				c-5.6,0.8-11.4,0.2-17.2,0.7c-7.6,0.7-15.4,0.4-23.2,0.7c-6.8,0.3-13.6,1.2-20.4,0.8c-0.3,0-0.6,0-0.9,0
				c-5,1.3-10.2,0.8-15.3,1.1c-6.2,0.4-12.3,1.4-18.6,0.9c-0.3,0-0.6,0-0.9,0c-5.6,1.4-11.4,0.3-17.1,1.2c-4.4,0.7-9.1,0.5-13.5,0.6
				c-7.1,0.2-14.2,1-21.4,0.9c-5.5-0.1-10.8,0.7-16.3,0.9c-2.9,0.1-6.1,0.1-9,0.6c-4.1,0.8-8.4,0.9-12.5,1.1
				c-4.2,0.2-8.4,0.7-12.6,1c-3,0.2-6.1,0-9,0.7c-4,0.8-8.1,0.8-12.1,1.1c-4.5,0.3-9,0.8-13.5,1c-3.4,0.2-7,0-10.3,0.6
				c-4.8,0.9-9.6,0.7-14.4,1.1c-4.8,0.4-9.6,0.9-14.5,1c-3.1,0.1-6.4,0.1-9.4,0.7c-5.1,0.9-10.4,1.2-15.6,1.8
				c-7.7,1-15.5,1.3-23.3,2.2c-9.5,1.1-19,2.1-28.6,2.9c-4.1,0.4-8.4,0.6-12.5,1c-4.5,0.4-9.2,1.4-14.2,0.8c-1.1-2-3.5-3.3-5-5.4
				c-1.7,0-3.4,0-5,0C18.3,49.6,18.9,39,18.9,39V0h646.8c0,0,0,25.3,0,29.3c-0.8,3.8-1.4,7.7,0.8,11.4c0.4,0.7,0.3,1.6,0,2.4
				c-3.8,0.9-7.3,0.7-10.4-1.2c-0.2-0.1-0.6,0-0.9-0.1c-4.8-1.2-9.7-2.4-14.5-3.6C635.9,37,631.4,35.3,626.4,34.9z"/>
			<path class="st1" d="M566.7,536.1c0.1-0.8,0.2-1.6,0.3-2.5c3.1-1.3,6.3-2.7,9.4-4c6.6-2.6,13.2-5.1,19.7-7.9
				c5.7-2.4,11.6-4.4,17.1-7.1c1.8-0.8,3.9-1.2,5.8-1.9c2.3-0.8,4.9-1.3,5.4-3.8c1,1.3,2.9,1.9,2.9,3.4c-0.9,1.4-3.4,1.2-4.4,2.9
				c2.3-0.5,4.4-0.5,6.3-0.8c3.1-0.5,6.1-1.4,7.6-3.9c1.5-2.4,4.3-4.1,6.5-6.1c2.6-2.3,4.8-4.7,7.9-6.9c0-1.2,0.1-2.4,0-3.7
				c-0.6-11.8,1.8-23.6,0.8-35.5c1.9-0.8,3.7-1.5,5.6-2.3c0.2-3.2-0.8-6.3-1.2-9.4c-0.4-3.4-0.8-6.8-1.6-10.1
				c-0.9-3.5-0.5-7-1.6-10.5c-0.7-2.2-0.7-4.5-0.9-6.8c-0.6-6.6-2.1-13.1-2.2-19.8c-0.1-4.2-0.7-8.4-0.7-12.7c0-1-0.9-1.7-0.9-2.5
				c2.7-6.6,5.3-13,7.9-19.4c0.1-0.3,0.3-0.7,0.3-1c-0.6-4.1,0.7-8.2,1-12.3c0.3-4.5,0.4-9.1,1.7-13.6c0.1-0.2,0.1-0.5,0.1-0.7
				c-0.6-4.5,0.5-8.9,1.1-13.3c1-7.8-0.1-15.6,0.9-23.4c1-7-0.4-14.1,0.9-20.9c1.1-5.8-0.2-11.6,1.5-17.4c0.8-2.8,0.2-5.7,0.1-8.6
				c-0.1-1.9,0.2-3.6,1.6-5.3c0.5,0,1.1,0,1.7,0c0.2,2.2,2,4.4,0.4,6.6c-0.1,0.2-0.1,0.5,0,0.7c3.5,7.3-0.3,14.4-0.9,21.6
				c0,0.1,0,0.2,0,0.3c-0.4,8-1.6,16-0.9,24.1c0.4,4.2,0.3,8.3-0.8,12.4c-0.4,1.5,0.7,2.9,0.7,4.4c-0.1,8.1,0.2,16.1,0,24.2
				c-0.1,3.2-1.1,6.4-1,9.6c0,1-1.4,1.2-1.6,2c1.3,2.8,1.3,5.6-0.3,8.3c-0.7,1.1-0.7,2.2-0.7,3.3c0,4.4,0.6,8.9-1.7,13.2
				c-0.2,0.3-0.2,0.7-0.1,1c2.3,4.1-1.7,8.3,0.7,12.4c0.1,0.2-0.1,0.7-0.3,1c-2,4.4-0.9,8.7,0.4,13c0.1,0.2,0.1,0.5,0.1,0.7
				c-0.6,4.5,1.2,8.9,1,13.3c-0.1,1.4,0.3,2.9-1.4,4.2c-0.9,0.7-0.6,1.7,0,2.6c0.8,1.2,1.4,2.5,2.4,3.7c1.1,1.2,1.4,2.7,1.2,3.9
				c-1,6.9,0.1,13.8-0.3,20.7c-0.1,0.8-0.1,1.6,0.5,2.3c1.9,2.2,1.5,4.5,0.2,6.9c-0.3,0.3-0.8,0.5-0.8,0.8
				c-0.2,4.8-0.7,9.6-0.7,14.4c0,7.5-1.7,14.7-3.1,22c-1.6,8.5-3.9,16.9-5.9,25.6c-12.9,5-27.8,4.7-41.5,8c-0.8,2.4-4.2,3.8-3.8,6.6
				c0.6,0.9,2.5,1,2.7,2.2c-0.8,0.8-2,0.5-3,0.5c-5.5,0-11,0-16.4,0.1c-2.7,0.1-5.1-0.5-7.2-1.8c-1.4-0.8-3-1.6-4.3-2.5
				c-3.7-2.6-7.9-4.3-13.1-4C567.5,536.6,567.1,536.3,566.7,536.1z"/>
			<path class="st2" d="M611.8,544.3c0,1.1-6.9,0.5-8.3,0.5c-0.5-2.7,8.6-6.8,9.4-9.2c13.7-3.3,28.6-3,41.5-8
				c2-8.7,4.3-17.1,5.9-25.6c1.4-7.3,3.1-14.6,3.1-22c0-4.8,0.5-9.6,0.7-14.4c0-0.3,0.5-0.5,0.8-0.8c1,5.1,0.5,10.2,0,15.3
				c-0.4,4.5,1.2,8.9,1,13.4c-0.1,1.8-0.7,3.7-0.6,5.4c0.2,3.9-1.1,7.8-0.1,11.5c0.8,2.9,0.2,5.6,0.4,8.4c0.1,2.1-0.3,4.5-1.2,6.6
				c-2.5,2.1-2.7,4.9-3.9,7.4c-0.9,1.9-2.2,3-5,3.3c-1.7,0.2-3.6,0.4-4.9,1.5c-0.8,1.6,0,3.4-0.6,5c-4.7-1.2-9.4-2.4-14.3-3.7
				c-1.1,1.8-2.2,3.5-3.4,5.5C625.5,544.3,618.7,544.3,611.8,544.3z"/>
			<path class="st1" d="M666.1,52.7c2-2.5,0.7-9,0.4-11.6c-3.8,0.9-7.3,0.7-10.4-1.2c-0.2-0.1-0.6,0-0.9-0.1
				c-4.8-1.2-9.7-2.4-14.5-3.6c-4.7-1.1-9.2-2.8-14.1-3.2c-0.9-0.1-1.8-0.2-2.7-0.3c-0.1-0.4-0.2-0.8-0.7-1
				c-10.3-2.7-20.6-5.1-31.7-5c-2.3,0-4.3,0.9-6.7,0.8c-7.9-0.5-15.7,1.2-23.6,0.7c-0.3,0-0.6,0-0.9,0c-7.8,1.1-15.7,1.2-23.5,1.3
				c-20.3,0.3-40.6,0.1-60.9,0.1c-1.2,0-2.5-0.2-3.6,0.1c-6.3,1.5-12.9,0.7-19.4,1.1c-7.8,0.5-15.7,1.4-23.6,0.9c-0.3,0-0.6,0-0.9,0
				c-7.6,1.6-15.4,0.2-23.1,1.2c-5.6,0.8-11.4,0.2-17.2,0.7c-7.6,0.7-15.4,0.4-23.2,0.7c-6.8,0.3-13.6,1.2-20.4,0.8
				c-0.3,0-0.6,0-0.9,0c-5,1.3-10.2,0.8-15.3,1.1c-6.2,0.4-12.3,1.4-18.6,0.9c-0.3,0-0.6,0-0.9,0c-5.6,1.4-11.4,0.3-17.1,1.2
				c-4.4,0.7-9.1,0.5-13.5,0.6c-7.1,0.2-14.2,1-21.4,0.9c-5.5-0.1-10.8,0.7-16.3,0.9c-2.9,0.1-6.1,0.1-9,0.6
				c-4.1,0.8-8.4,0.9-12.5,1.1c-4.2,0.2-8.4,0.7-12.6,1c-3,0.2-6.1,0-9,0.7c-4,0.8-8.1,0.8-12.1,1.1c-4.5,0.3-9,0.8-13.5,1
				c-3.4,0.2-7,0-10.3,0.6c-4.8,0.9-9.6,0.7-14.4,1.1c-4.8,0.4-9.6,0.9-14.5,1c-3.1,0.1-6.4,0.1-9.4,0.7c-5.1,0.9-10.4,1.2-15.6,1.8
				c-7.7,1-15.5,1.3-23.3,2.2c-9.5,1.1-19,2.1-28.6,2.9c-4.1,0.4-8.4,0.6-12.5,1c-4.5,0.4-9.2,1.4-14.2,0.8c-1.1-2-3.5-3.3-5-5.4
				c-1.7,0-3.4,0-5,0c-0.1,1.3,0,2.5,0.4,3.7c0.6,1.4,0.7,7,0,8.4c-1.5,3.3-1,6.9-1,10.1c0,4.5,0.4,9-0.4,13.5
				c3.5-1.9,5.9-4.6,8.2-7.2c3.4-4,6.2-8.3,9.5-12.8c6.3,0.6,12.7-1,19.3-0.7c6.4,0.4,12.7-1.1,19.1-0.7c0.4,0,0.9-0.2,1.3-0.2
				c4.4-0.6,8.8-1.3,13.3-1.8c8-1,16-1.8,24-2.9c7.1-1,14.2-1.9,21.3-2.7c3-0.3,6-0.5,9-0.8c6.1-0.6,12.2-1.5,18.3-1.9
				c6-0.4,12-0.9,17.9-1.6c7.5-0.9,15-1,22.4-1.8c4.5-0.5,9.1-0.4,13.6-0.6c7-0.2,13.9-1,20.9-0.9c5.6,0.1,11.1-1.2,16.8-0.7
				c0.3,0,0.6,0,0.9-0.1c4.4-1.1,9-0.8,13.4-1.1c4.9-0.4,9.9-0.8,14.9-1c3.4-0.1,7-0.2,10.4-0.6c6.7-0.8,13.5-1.4,20.3-1.3
				c0.6,0,1.3,0.1,1.8,0c6.5-1.5,13.2-0.7,19.8-1.1c7.6-0.5,15.4-1.4,23.2-0.9c0.5,0,0.9,0,1.4-0.1c5.7-1.4,11.7-0.6,17.6-1.1
				c6-0.5,12.1-0.9,18.1-1.1c3.9-0.1,8,0,11.7-0.6c5.5-1,11.1-0.2,16.7-1.1c4.5-0.7,9.3-0.3,14-0.7c7.5-0.6,15.1,0,22.7-0.8
				c5.5-0.5,11.2-0.1,16.8-0.6c7.2-0.7,14.5-0.1,21.8-0.8c5.8-0.6,11.8-0.1,17.7-0.6c7.3-0.7,14.8-0.2,22.3-0.7
				c6.3-0.4,12.7,0.3,19.1,0.5c19.2,0.6,37.6,1.9,56.8,1.8c4.1,2.5,19.3,6.2,22.7,8.2c5.7,3.3,10.4,5.2,14.4,9.2
				c1.2,5.3-3.5,10-1,14.9c4.8,1.5,9.3,1.5,13.9,0.5c1.6-3.5,2.8-7.1,1.6-10.7c-0.7-2.1-0.3-3.7,1.2-5.3
				C665.9,54.9,665.3,53.6,666.1,52.7z"/>
			<path class="st2" d="M650.1,542.5c0.6-1.7-0.2-3.4,0.6-5c1.3-1.1,3.2-1.3,4.9-1.5c2.8-0.3,4-1.4,5-3.3c1.2-2.5,1.4-5.3,3.9-7.4
				c0.4,6.1,2.3,12.2,1.1,18.6C660.1,544.4,654.9,544.8,650.1,542.5z"/>
			<path class="st3" d="M633.8,346.5c-0.1,0.2-0.2,0.3-0.4,0.5C632.9,346.6,633.6,346.7,633.8,346.5L633.8,346.5z"/>
			<g>
				<path class="st4" d="M45.8,162.5c3.6-1.6,2.2-7,8.5-6.6c-5.5-6.2,2.7-8.3-2.1-14.8c-0.9,0.4-1.9,0.7-3.4,0.6
					c1.2-3.4-1.1-4.7-0.4-7.7c-4.3,0.2-3.4-2.8-8.9-1.9c-10.8-0.2-12.5,7.7-15,16.3C25.6,155.9,32.9,162.2,45.8,162.5z"/>
				<path class="st4" d="M59.8,90.7c1.5-1.4,3-1.8,4.9,0c-0.1,0.7-0.2,1.4-1.1,2C62.4,92.5,61.1,91.8,59.8,90.7z"/>
				<path class="st4" d="M68,98.6c-1-0.6,0.1-1.4,0.5-2.1c-6.7-1-6.3-3.1-14.7-6.2c-0.8-4-1.4-14,8.2-12.6c2-2.1-0.3-5.2,4.8-7.1
					c9.8,2.2,24-2.7,32.3,5.4c-2.3,6.9-2.6,19.9-17.7,16.4C81.9,98.5,73.7,102.3,68,98.6z"/>
				<path class="st4" d="M57,127.4c-7,0.1-14,0.1-22-7.4c0.2-4.2,1.7-5.3,0.8-9.8c1.2,0.1,2.3-0.4,3.4-1.2c3.2,4.2,8-0.7,12.7,0.2
					c0.6-2.7-3.7-5.9,1.7-8.2c3.1,0.4,5.7,3.6,5.6,5.2c-3.5,0.2-2.8,3.7-6.1,2C58.7,113.4,60.3,121.5,57,127.4z"/>
			</g>
			<path class="st4" d="M554.9,507.3c-6.4-2-12.9-4.1-16-13.3c2.5-3.8,4.5-4.3,6.2-8.7c1,0.4,2.3,0.3,3.8-0.1
				c0.5,4.8,7.7,1.7,11.5,3.9c2-2.3-0.1-6.5,6.1-7c2.6,1.2,3.2,5,2.2,6.5c-3.3-0.8-4.6,2.6-6.7,0C564.3,495,561.2,502.9,554.9,507.3
				z"/>
			<g>
				<polygon class="st3" points="633.8,346.5 633.8,346.5 633.8,346.5 				"/>
				<path class="st3" d="M669.7,151.4c1.5-4.6,1.5-9.4,1.2-14.1c-0.3-4.9-1.4-9.7-1.4-14.6c0-2.1,0-4.3-0.8-6.2
					c-0.9-2.2-2.1-4.5-4.2-6.4c-1.3-1.2-1.5-2.4-1-3.8c3.4-1.1,5.1-3,4.1-5.3c-0.8-1.9-0.7-3.9-1.8-5.6c-1.4-2.1-1.4-4.5-0.6-6.4
					c1.6-4-0.3-7.8-0.1-11.6c0.1-1.9-1.3-3.5-1.1-5.4c-4.6,1-9.2,1-13.9-0.5c-2.6-4.9,2.2-9.6,1-14.9c-4-4-1.9-5.4-7.6-8.8
					c-3.6-2.1-23.3-5.3-26.5-7.7c-0.4-0.3-0.3-0.8-0.5-1.3c-0.9,0-1.8-0.1-2.6-0.1c-0.2,0-0.3,0-0.5,0c-22.1-0.3-34.2-0.6-56.2-1.4
					c-6.4-0.2-12.8-0.9-19.1-0.5c-7.4,0.5-14.9,0.1-22.3,0.7c-5.9,0.5-11.9,0-17.7,0.6c-7.3,0.7-14.6,0.1-21.8,0.8
					c-5.6,0.5-11.3,0.1-16.8,0.6c-7.6,0.7-15.2,0.2-22.7,0.8c-4.7,0.4-9.5-0.1-14,0.7c-5.5,0.9-11.1,0.1-16.7,1.1
					c-3.8,0.7-7.8,0.5-11.7,0.6c-6.1,0.2-12.2,0.5-18.1,1.1c-5.9,0.5-11.8-0.2-17.6,1.1c-0.4,0.1-0.9,0.1-1.4,0.1
					c-7.8-0.5-15.5,0.4-23.2,0.9c-6.6,0.5-13.4-0.3-19.8,1.1c-0.6,0.1-1.2,0-1.8,0c-6.8-0.1-13.5,0.5-20.3,1.3
					c-3.4,0.4-6.9,0.4-10.4,0.6c-5,0.2-10,0.6-14.9,1c-4.5,0.3-9.1,0-13.4,1.1c-0.3,0.1-0.6,0.1-0.9,0.1c-5.6-0.5-11.2,0.8-16.8,0.7
					c-7-0.1-13.9,0.7-20.9,0.9c-4.5,0.1-9.1,0.1-13.6,0.6c-7.4,0.8-15,0.9-22.4,1.8C173,56.1,167,56.5,161,57
					c-6.1,0.4-12.2,1.3-18.3,1.9c-3,0.3-6,0.4-9,0.8c-7.1,0.8-14.2,1.7-21.3,2.7c-8,1.1-16,1.9-24,2.9c-4.4,0.6-8.9,1.2-13.3,1.8
					c-0.4,0.1-0.9,0.2-1.3,0.2c-6.4-0.4-12.7,1.1-19.1,0.7c-6.5-0.4-12.9,1.2-19.3,0.7c-3.3,4.5-6.1,8.8-9.5,12.8
					c-2.2,2.6-4.7,5.3-8.2,7.2c0.4,1.4,0.9,2.8,1.2,4.3c0.5,2.9,2.7,5.7,0.2,8.7c1.6,2.1,2.7,4.2,1.1,6.4c1.1,1.3,2.4,2.3,2.8,3.7
					c-0.4,2.2-1.3,4.1-3,5.9c-0.7,0.7-1.1,1.6-1.4,2.5c-1.5,4-0.5,8.1,0.1,12.1c0.6,4.2,1.8,8.3,1.7,12.5c-0.1,4.6,0.9,9.2-0.9,13.7
					c-1.7,3.9-1.6,8.1-2.6,12.1c-0.5,1.9-0.3,3.9,1.8,5.3c-0.3,1.4-1.7,2.5-0.4,3.8c0.4,0.4,0.1,0.9-0.4,1.2c-1.4,1-1.1,2.1-0.7,3.5
					c0.9,3.2,2.2,6.5,0.3,9.7c-1,1.8-0.9,3.6-0.7,5.4c1.3,1.7,0.7,3.6,0.9,5.4c0.1,1.1-0.6,2.5,0.4,3.4c2.9,2.8,2.6,5.6,0.4,8.3
					c0.9,1.1,1.6,1.9,2.2,2.8c1,1.5,1.3,3.2-0.1,4.6c-2.6,2.5-2.1,5.3-1.8,8.2c0,0.9,0,1.7,0,2.6c-0.1,0.7-0.1,1.4-0.2,2
					c-3.7,2.1-3.1,5.1-2.5,7.9c0.7,3.3,1.7,6.5,1.7,9.8c0,2.1,0.1,4.1,1,6.1c0.9,2,0.9,4,0.8,6.1c-0.2,4.3,0.5,8.3,2.2,12.5
					c1.2,3,1.4,6.3-0.7,9.4c-3.9,5.6-1,9.9,2.4,15.1c0,1.5-1.5,3.9-2.6,5.2c-0.5,0.6-0.5,1.1,0.4,1.4c0.5,0.1,1.8-0.7,1.9-0.3
					c-0.3,3-2.2,7.1-1.9,10.1c0,0.4-0.2,1-0.5,1.3c-2.1,1.4-1.2,2.9-0.2,4.4c1.3,1.9,2.8,3.8,3.5,6.3c-2.8,1.4-2.6,4-2.9,6.2
					c-0.9,0.6-1.7,1.2-2.5,1.7c-0.1,1,0.1,2-0.2,2.8c-2.1,6.6-0.7,13,2,19.4c1,2.4,1.9,4.8,1.8,7.3c-0.1,2.4,0.2,4.8,0,7.2
					c-0.2,4.1-0.5,8.4-2.5,12.1c-2.5,4.7-1.4,9.7-3,14.4c-0.2,0.6-0.1,1.4,0.2,2c1,1.6,0.8,3.2,0.6,4.8c-0.5,4.1-0.3,8.3-0.6,12.5
					c-0.7,8.8-0.2,17.7-0.2,26.6c0,0.8-0.3,1.7,0.6,2.3c1.5,1,1.4,2.3,1.3,3.5c-0.3,2.1,0.3,4.1,1,6.1c1.2,3.7,2,7.3,1.6,11.3
					c-0.9,1.2-2.9,2.3-2.5,4.1c0.2,1.1,1.9,1.1,2.4,1.8c0.3,2.9,2.3,5.7,0.4,8.5c3.7,0,7.2-0.3,10.5-1.7c0.3-1.2-1.6-2.4,0-3.7
					c2.6,0.6,5.4,0.8,8.6,2c-2.1,5.4,0.1,11.1-1.8,16.7c5.9-0.2,9.8,3,14.5,4.2c0.3,1.6-0.6,2-1.7,2.6c-3.3,1.7-4.7,5.7-2.9,8.5
					c2,3.1,4.3,6,6.4,9.1c0.8,1.2,2.1,1.5,3.6,1.8c6.1,1.1,12.3,2.2,18.3,3.5c2.4,0.5,4.7,1.6,6.7,2.3c1.8,2.1,1.3,4.5,3,6.2
					c1,0.7,3-0.1,3.5,1.2c0.5,0,1,0,1.5,0c1.2-1.5,2.4-0.9,3.6,0c0.8,0.6,2.1,1.3,0.1,2c2,1.5,4.5,2.4,7,3.4c0,0,0.1,0,0.1,0
					c0.9,1,2.8,1.4,3.3,2.7c11.2,0,22.3,0,33.5,0l0,0c0.4,0,0.8,0,1.2,0c0.5-0.8,1.5-0.7,2.3-0.7c3.1,0,6.1,0,9.2,0
					c1.4,0,2.6,0,3.8-0.8c1.8-1.2,4.4-1.1,6.1-0.4c4.6,1.9,9.1,1.3,13.6,0.5c4.1-0.7,8.2-1.5,12.3-2.4c1.5-0.3,2.8-0.3,4.4,0
					c4.6,0.8,9,2,13.6,2.6c3.5,0.4,7,0.5,10.4,0.2c2.9-0.3,5.7-0.4,8.6-0.4c31.6,0,63.2-0.1,94.8-0.1c2,0,4,0,6-0.1l6.5,0
					c11-0.2,21.9,0.5,32.9-0.5c6-0.6,12-1.3,18-1.9c5.7-0.6,11.4-1.1,16.9-1.6c2.3,1.3,4.3,2.4,6.1,3.4c12.1,0,23.8,0,35.5,0
					c1.6-2.3,2.5-4.8,4.7-6.8c3.5,0.1,6.6,0.8,9.8,1.5c4,0.8,6.3,3.4,8.7,5.4c10.1,0,19.7-0.1,29.3,0c4.9,0.1,9.6-0.2,14.1-2
					c2-0.8,4.3-1.1,6.5-1.5c7.9-1.4,15.9-2.7,24-3.6c9.3-1.1,18.6-2.2,28-1.8c0.1-0.8,0.2-1.6,0.3-2.5c3.1-1.3,6.3-2.7,9.4-4
					c6.6-2.6,13.2-5.1,19.7-7.9c5.7-2.4,11.6-4.4,17.1-7.1c1.8-0.8,3.9-1.2,5.8-1.9c2.3-0.8,4.9-1.3,5.4-3.8c1,1.3,2.9,1.9,2.9,3.4
					c-0.9,1.4-3.4,1.2-4.5,2.9c2.3-0.5,4.4-0.5,6.3-0.8c3.1-0.5,6.1-1.4,7.6-3.9c1.5-2.4,4.3-4.1,6.5-6.1c2.6-2.3,4.8-4.7,7.9-6.9
					c0-1.2,0.1-2.4,0-3.7c-0.6-11.8,1.8-23.6,0.8-35.5c1.9-0.8,3.7-1.5,5.6-2.3c0.2-3.2-0.8-6.3-1.2-9.4c-0.4-3.4-0.8-6.8-1.6-10.1
					c-0.9-3.5-0.5-7-1.6-10.5c-0.7-2.2-0.7-4.5-0.9-6.8c-0.6-6.6-2.1-13.1-2.2-19.8c-0.1-4.2-0.7-8.4-0.7-12.7c0-1-0.9-1.7-0.9-2.5
					c2.7-6.6,5.3-13,7.9-19.4c0.1-0.3,0.3-0.7,0.3-1c-0.6-4.1,0.7-8.2,1-12.3c0.3-4.5,0.4-9.1,1.7-13.6c0.1-0.2,0.1-0.5,0.1-0.7
					c-0.6-4.5,0.5-8.9,1.1-13.3c1-7.8-0.1-15.6,0.9-23.4c1-7-0.4-14.1,0.9-20.9c1.1-5.8-0.2-11.6,1.5-17.4c0.8-2.8,0.2-5.7,0.1-8.6
					c-0.1-1.9,0.2-3.6,1.6-5.3c0.5,0,1.1,0,1.7,0c0.3-0.7,0.3-1.3-0.1-2c-0.9-2-0.9-4.1-0.2-6.1c0.8-2.3,0.4-4.5,0.1-6.8
					c-0.5-4.3-2.5-8.7,0.5-13c-0.8-0.9-1.6-1.7-2-2.7c-1.1-3.6-2.7-6.9-1.9-10.9c1-5,0.2-10.1,0.2-15.1c0-1.4,0.4-2.7,0.5-4
					c0.2-3.2,2.9-6.5-0.5-9.3c0.3-2.2,2.6-3.3,3.7-4.9c-0.4-2.4,1.1-5.1-1.6-7.2c-0.4-0.3-0.3-1.1-0.1-1.7
					C667.2,160.3,668.2,155.8,669.7,151.4z M137.2,525.3l0.2-0.2l0.1,0.2L137.2,525.3z M659.1,231.5c-4.7,6.6-7.1,14.6-18.4,17.2
					c-0.1,0-0.2,0.2-0.5,0.4c-0.2,3.5,4.7,4.3,7.1,6.8c-1.9,0.1-3.4,0.2-4.7,0.2c-0.7,0.7-0.7,1.2,0.1,1.9c2.3,0.4,5.4-0.6,7.4,1.4
					c0.1,0.7,0.2,1.4-0.2,2c-1.6,2.6-3.2,5.2-4.7,7.8c-1.7,2.8-3,5.6-3.4,8.8c-0.3,2.3-0.7,4.7-1.3,7c-0.7,2.7-0.8,5.6,1,8.4
					c1.9,2.9,2.9,6.2,4.5,9.3c0.6,1.1,0.7,2.2,0.5,3.4c-2.1,2.3-5.6,3.3-8.2,5.3c0.5,1.9,2.9,3,2.9,5c-0.1,5.5,0,11,0,16.4
					c-2.9,2-7.2,2.1-9,4.5c-0.4,1.7-0.1,3.2,0.7,4.6c0.8,1.5,1.2,3.1,1,4.7c1.9,0.3,2.6-1.7,4.9-1.2c0.4,0.7,1.5,1.3,1.5,2.7
					c-0.9,1.5-2.8,3.1-1,4.9c-2,1.5-5.3,1.3-6.1,3.3c2.5,2.1,6.8,0.3,8.9,2.6c-0.6,1.5-2,1.9-3.3,1.5c-3.1-1-6.9-1-9.3-3.1
					c0-1,1.7-1.9,0.1-2.9c-5.4,0.6-7.6,4.2-11.5,6.6c1.5,3.1-1.5,5.8-1.6,8.8c2.8,0.6,3.8-1.7,6.2-1.5c0,1.7,0,3.3,0,4.9
					c-4,1.1-9.2,0.6-11,5.3c0,3.3,0,7.3,0,11.2c-2.2,1.1-4.7,1-6.9,1.5c-0.2,2,3.8,1.6,3.1,3.6c-1.8,0.7-4-0.2-5.9,0.7
					c-0.4,2.6,1.8,4.6,2,7c2.3,0.5,3.5-1.1,5.5-1c1.3,1.1,1.2,2.7,3,3.9c-3.9,0.2-7,1.1-10.3,0.9c-1.6,2.8,3.5,2.4,3.1,5.1
					c-0.5,1.8-5.3,2.1-4.7,5.2c-3.7-0.8-5.7-3-8.9-4.1c-1.1,0.3-2.4,0.6-3.6,1c0.2,2.6,1.1,3.6,3.9,4.5c3,0.9,6,1.9,9,3.4
					c-3.1,1-5.6-1.7-8.4-0.2c0.3,4,2.9,7,6.4,9.8c-2.2,2.5-4.1,5.1-6.5,7.5c-3,3-3.3,6.2-2.5,9.8c2.3,0.1,4.4,0.2,6.6,0.2
					c0.7,1.9,3.6,2.5,4,4.2c-0.1,2-2.6,1.6-3.4,2.3c-1.4,2.8,3.6,4.2,2.2,6.8c-1.2,0.9-2.8,0-3.9,0.8c-1.5,3.3,0.7,6.5,0.3,10
					c-2.7,0-5.1,0-7.5,0c-1.2,1.7-3.1,2.8-3.4,4.6c-0.3,2.4,3.1,3.5,3.8,5.7c-1.5,2.1-5.4,2.2-6.5,4.2c0,2,2.6,2.3,3.9,3.9
					c-3.9-0.1-7.6-1-10.3,1.3c-0.3,3.9,5.1,3,7.2,5.1c-0.8,1.4,1.5,2.9,0.4,4.8c-2.2-0.8-2.4-2.8-4.4-3.5c-2.1,1.5-4.1,2.7-7.1,2.9
					c-2.1,0.1-3.3,1.5-3.6,3.1c-0.5,3.4-2.9,6.4-3,9.9c0,0.7-0.2,2.1-1.7,2.7c-2.5,0-3.2-2-5.1-2.6c-1.9-0.4-3.6,0-5.2,0.6
					c-1.2,0.5-2.4,1-3.7,1.3c-9.3,2-18.5,3.9-27.8,5.8c-6.9,1.4-13.8,3.3-21,3.8c-8.5,0.7-17.1,1.5-25.6,2.1
					c-8.4,0.6-16.8,1.4-25.1,2.1c-6.6,0.6-13,1.9-19.5,2.6c-7.3,0.8-14.4,2.2-21.7,3.1c-4.1,0.5-8.4,0.8-12.2,2.4
					c-0.8,0.3-1.7,0.5-2.4-0.2c0.3-2,3.7-3,3.3-5.3c-1.1-0.7-2.3-0.6-3.2-0.4c-4.2,1.3-8.7,0.5-13,1.2c-5,0.7-10.3,0.5-15.4,0.7
					c-7.9,0.2-15.7,1.1-23.6,0.9c-3.1-0.1-6,0.3-8.2,1.6c-1.2,2-3.6,5.2-3.9,7.2l-4.2-0.3c-4.3-0.9-6.1-5.4-9.8-7.1
					c-5.2,0.2-10.4-0.2-15.8,0.6c-4.3,0.6-8.8,0.3-13.3,0.1c-7-0.3-13.9,1.1-20.9,0.8c-5.1-0.2-10.2-0.6-15.2-1.3
					c-2.8-0.4-5.7-0.4-8.5-0.6c-4.1-0.3-8.1-0.8-12.2-1c-4.3-0.2-8.7-0.4-13-1.2c-2.9-0.5-6-0.4-9-0.7c-6.3-0.7-12.2-2.3-18.3-3.5
					c-9.2-1.8-18.3-3.8-27.4-5.7c-0.7-0.2-1.4-0.3-2.1-0.6c-2.7-1-5.5-1.1-8.3-0.2c-2.6,0.8-5.1,1.2-7.8-0.2c-1.3-0.7-3-1-4.6-1.4
					c-1.2-0.4-2.3-0.4-3.5,0.1c-1.5,0.7-0.6,2-1.4,2.8c-0.3,0-0.7,0.2-0.9,0.1c-2.1-1.5-4.9-1.8-7.5-2.3c-2.3-0.5-3.7-1.4-4.6-3
					c-0.6-0.9-1.4-1.8-1.8-2.8c-1.8-5-7.9-6.4-12.5-9.1c-4.7,1.2-9.1,2.5-13.9,2.9c-1.6-2-3.2-3.9-4.5-5.9c-1-1.6-2.5-2.5-4.5-3.1
					c-6.8-2.1-13.6-4.3-20.7-6.6c-0.7-1.4-1.6-2.9-2.4-4.5c3.2-1.9,6.4,0.7,9.2-0.2c2.3-3.1,1.1-7.4-3.1-9.9
					c1.1-0.9,2.8-0.7,3.9-1.4c0-1.7-2.2-1.4-3.3-2.2c0-1.6,0-3.3,0-4.7c-1.5-2.7-4.3-2.8-6.8-2.2c-2.1,0.5-4.2,0.4-6.4,0.4
					c-1.6-3-3.4-6-4.9-9.1c-0.9-1.9-0.3-3.8,0.5-5.7c2.6-6.6,5-13.3,8.3-20.2c-0.4-0.9-0.8-2.3-2.7-3c-2.4,0.9-2.4,2.9-3.2,4.2
					c-2.9,1.4-5.9,1.5-8.8,1.3c-2-1.4-1.8-3.2-1.6-4.8c1.3-2.4,6.1-3.1,5.3-6.4c-2-1.5-5.4-1.4-6.6-3.7c1.5-1.9,3.7-3.3,4.7-5.1
					c-1-2.6-4.2-4.6-3.4-7.6c1.2-1.4,3.5-1.1,5.5-1.8c-1.9-2.4-5.4-1.6-8.2-2.7c1-2,3.1-3.2,5.3-4.3c1-0.5,2-1.1,2.8-1.8
					c1.8-1.6,2.5-3.2,1-5.3c-2.5-3.4-4.6-7-7-10.4c-1.3-1.9-1.7-3.6-0.3-5.5c1.5-2,2-4.3,3.3-6.4c1.5-2.4-0.2-5-0.8-7.4
					c-0.4-1.6-0.5-3.2-0.1-5.2c-3.4-2.1-6.8-4.2-10.2-6.4c0.2-0.2,0.5-0.4,0.7-0.6c-1.1-2.5,1.5-4.9,0.5-7.5c-3-3-7.5-5.1-10.2-8.4
					c2-1.6,3.9-1.9,6.2-1.5c1.3,1.1-0.5,3.5,2.7,3.9c1.6,0.1,2.3-0.9,3.3-1.8c-0.1-2.2,0.6-4.6-1-6.9c-3.4-4.9-1.6-11.8-4.8-16.7
					c-0.2-0.3-0.4-0.6-0.6-0.8l-1.5-3l1.5-10.1c1.8-1.7,3.7-3.4,6.2-4.7c-2.2-1.8-3-4-4.6-5.8c-3.2-3.7-2.7-7.2,1.4-10.5
					c1-0.8,2.7-1.4,2.7-3.1c-2.1,0.2-4.1,1.3-6.1,0.1c2.4-2.5,7-3.1,8.3-6.4c-1.2-1-2.2-2.1-3.6-2.6c-1.9,0.5-0.2,2.3-2.2,2.5
					c-0.2-0.1-0.6-0.2-0.7-0.4c-0.4-0.5-0.7-1-1-1.5c-2.4-4.8-0.5-9.5,0.4-14.2c1.2-6.7,3.2-13.4,5.1-20c1.4-4.6-1.2-8.8,1.5-13.2
					c0.4-0.7,0.5-1.6-0.4-2.2c-2.7,0-9.1-3.8-11.7-3.8l-2.3-13.1l3.9-3c1.7-0.3,3.5-0.6,5.2-1c2.4-0.6,3.8-1.9,5-3.3
					c1-1.3-0.8-2.3-1.3-3.4c-1.2-2.4-3.2-4.8-2.5-8c2.1-1.2,4.2-2.3,5.8-3.2c0-1.9,0.3-3-0.4-4.3c-1.9-1.1-4.4-1.7-7-2.6
					c2.3-2.4,1.9-5,1.9-7.6c0-6.2,0-12.4,0-18.7c0-3,0-6,0-8.5c2.8-2.9,6.2-4.7,7.4-7.8c2.2-5.5,4-11.1,6.4-16.6
					c1.3-3,1-5.6-1.9-7.8c0.1-1.5-0.4-2.9,0.5-4.5c2.5-0.9,5-2.1,7.5-3.5c0.4-4.1,0.9-8.2,5.5-11.6c7.5-1,15.5-2,23.7-3
					c1.2-1.4,2.5-3,3.7-4.4c1.5-0.3,2.8-0.2,4.2-0.5c6.3-1.1,12.6-2.2,18.9-3.1c11.5-1.6,22.9-3.6,34.4-5.3
					c7.2-1.1,14.4-2.3,21.7-3.1c4.6-0.5,9.3-0.8,13.8-1.5c5.8-0.8,11.6-1.2,17.4-1.8c5.2-0.6,10.5-1,15.6-1.7
					c6.4-0.9,12.8-1.4,19.2-1.7c6.2-0.3,12.4-1.3,18.6-0.9c0.5,0,0.9,0,1.4-0.1c5.1-1.2,10.5-0.8,15.7-1.1
					c5.7-0.4,11.4-1.3,17.2-0.9c0.4,0,0.9,0,1.3-0.1c4.6-0.9,9.3-0.8,13.9-1.1c4.8-0.3,9.6-0.7,14.5-1c3.6-0.2,7.4,0.1,10.8-0.7
					c4.3-0.9,8.7-0.9,13-1c7.3-0.3,14.5-1.4,21.8-0.9c0.5,0,0.9,0.1,1.4,0c7-1.4,14.2-0.6,21.2-1.1c6.4-0.5,13-1.3,19.5-0.9
					c0.3,0,0.6,0,0.9-0.1c4-1.3,8.4-0.8,12.5-1.1c5.1-0.4,10.2-0.9,15.4-1c3.7-0.1,7.6-0.3,11.3-0.6c6.3-0.6,12.6-1.6,18.9-1.2
					c7.5,0.5,15.1,0.7,22.6,1.2c10.3,0.6,20.5,1,30.8,1.4c7.6,0.3,15,1.3,22.6,1.6c3,0.1,6.1,0.1,9,0.7c4,0.9,8.1,0.7,12.1,1.1
					c4,0.4,8.1,0.8,12.2,1c2.2,0.1,4.8,0.1,7.1,0.9c5.9,2,11.9,4,17.8,6c6.7,2.2,13.5,4.4,20.5,6.7c0,1,0.4,2.1-0.3,3.4
					c-3.7,2.5-9.5,1.6-13.2,4c-0.6,2.6,0.4,4.7,1.3,6.9c10.3,0.8,20.4,2.8,23.1,4.6c-1.4,1.2-3.9,1.2-5.2,2.6
					c3.3,6.4,6.1,13,12.8,18.2c-2.7,1.5-4.6,3.6-5.8,5.6c-3.4,1.3-6.5-0.8-9.6,0c-0.1,1.5,2.2,0.8,2.6,1.8c0,2.4,0,4.8,0,7
					c3.2,3.9,9,4.5,13.4,6.9c0.5,1.5,0.6,3.2,1.6,4.5c2.2,2.9,1.5,5.5-0.3,8.1c-1.7,2.4-1.5,5-0.8,7.4c1.5,5,1.8,10.1,3.3,15.1
					c0.5,1.5,0.7,3.3-0.7,4.7c-2.5,2.5-3.7,5.5-6.1,8c-1.6,1.7-2.9,3.6-2.1,5.8c0.5,1.5,1.1,3.1,1.9,4.5c2.7,5.3,5.4,10.6,8.1,15.9
					c1.9,3.7,3.7,7.4,6.4,10.9c1.2,1.4,3.3,2.4,3.5,4.4c-1.9,2.6-5.6,5.1-1.8,8.6c3.3-0.1,6.5,0.8,10,1
					C659.5,227.9,660.2,229.9,659.1,231.5z"/>
			</g>
		</g>
		<g>
			<g>
				<g>
					
						<rect x="15.1" y="310.4" transform="matrix(0.9997 -2.454123e-02 2.454123e-02 0.9997 -9.5588 1.372)" class="st5" width="71.9" height="159.4"/>
					<path class="st4" d="M33.3,436.2c-2.6,10.5,11.6,9.7,4.8,23.3c-7.1-5.5-7.3,2.9-8.4,4.5c-7.4-5.2-9.1-17.4-13.4-27.3
						C21.9,431.8,26.5,432.7,33.3,436.2z"/>
					<path class="st4" d="M46.1,322.9c-2.6,10.4,11.6,9.6,4.8,23.2c-7.1-5.5-7.3,2.9-8.4,4.5c-7.4-5.2-9.1-17.4-13.4-27.3
						C34.7,318.5,39.3,319.4,46.1,322.9z"/>
					<path class="st4" d="M71.2,362.3c3-6.5,9.4,1.5,14.8-0.4c1.7,8.5-1.7,12.2-10.4,10.9C72,371.6,75.6,362.7,71.2,362.3z"/>
					<path class="st4" d="M37.1,393.2c-5.5,2.6-9.2-6-13.9-8.3C28.5,383.4,32.7,388.5,37.1,393.2z"/>
					<path class="st4" d="M35.2,376.2c-3.1,3.5-5.1-0.1-7.2-2.7c-1.7,0.7-1.2,1.8-0.5,2.9c-6.5,2.2-3.4-6.3-3.3-8.1
						C29,366.8,35.9,372.2,35.2,376.2z"/>
					<path class="st4" d="M39.4,367c3.8-0.4,4.5,2.5,8.5,1.9c1.8,10.2-6.7,9-8.2,10.8C35,378.9,37.8,368.5,39.4,367z"/>
					<path class="st4" d="M63.2,310.1c6,1,4.2,10.1,6.7,14.7C64.7,323,64.1,316.4,63.2,310.1z"/>
					<path class="st4" d="M55.1,325.2c4.5-1.1,4.1,2.9,4.4,6.3c1.8,0.4,2-0.9,2.1-2.2c6.6,1.9-0.8,7.2-1.9,8.6
						C54.9,336.4,52.3,328,55.1,325.2z"/>
					<path class="st4" d="M53.6,350.7c6.6-0.4,11.8,0.7,15,3.9c2.6,10-6.7,8.8-14.7,8.9C53.8,359.2,53.7,355,53.6,350.7z"/>
					<path class="st4" d="M67,378c-0.7,3.6,1.8,4,4.3,4.2c1,5.1-3.8,4.7-1.9,10.7c-6.3-1.8-6.6-1.8-12.7,0.3
						C52.7,385.6,54.2,375.3,67,378z"/>
					<path class="st4" d="M69.6,399.2c-3.5,4.4,13.7,45.7-7.3,49c8.9,9,2,22.7-12.2,21.5c-11-12.4,6.2-24.6-9.2-29.5
						C41.9,418.8,48.7,405.6,69.6,399.2z"/>
					<path class="st4" d="M21,402.2c14.4-6.3,26.4,8.5,36.5,14C49,416.3,35.6,402.8,21,402.2z"/>
				</g>
			</g>
		</g>
		<g>
			<g>
				<g>
					
						<rect x="587" y="45.1" transform="matrix(0.9997 -2.454123e-02 2.454123e-02 0.9997 -3.3045 15.5129)" class="st5" width="86.7" height="194.6"/>
					<path class="st4" d="M645.3,105.2c2.1-4.5,6.5,1.1,10.3-0.3c1.2,5.9-1.2,8.4-7.2,7.5C645.9,111.7,648.4,105.5,645.3,105.2z"/>
					<path class="st4" d="M639.5,109.8c2.8,5.4,2,5.3,1.8,13.2c-8.5,3.9-13.9-1.9-16.5-11.4C629.4,115.2,631.6,107.4,639.5,109.8z"
						/>
					<path class="st4" d="M651.8,131.5c2.2,0.7,3.8,2.1,5.9,2.8c-0.2,1.7-2.6,1.3-4.4,1.6c-0.2,1.2,0.6,1.4,1.5,1.4
						c0.3,1.2-0.5,1.4-1.4,1.5c-1,0-2,0-2.9,0.1C649.2,134.8,652.5,135.1,651.8,131.5z"/>
					<path class="st4" d="M643.9,49.4c0.4,7.2,10.1,21.1-5.3,23.7c-1.1,4.2,2.2,3.8,1.6,7.3c-4.2-1.1-3.8,2.2-7.3,1.6
						c0.8-2.6-2-8.6,1.3-8.9c-4.4-4.4-9.9-7.6-16.4-9.9c1.9,5,4.5,6.3-2.7,7.4c5.1,4.9,0.7,19.1-6.8,20.8c1.2,1.3,1.7,3.3,1.6,5.8
						c-2.9,1.6-5.1,3.8-7.2,6.1c-5.7,1-3.9-6-7.5-7.2c-0.3-3.7,2.2-4.7,4.3-6c-0.4-2.6-2.6-3.3-6-2.8c-1.3-5,1.5-6.2,2.7-8.9
						c-4.8,1-6.9-0.9-10.3-1.2c-2.3-8.6,5.2-10.2-0.5-19.1c6.6-5.2,17.4-5.7,23.5-2C616,44.9,631.6,41.6,643.9,49.4z"/>
					<path class="st4" d="M650.9,152.2c-2.5,0-3.8,1.2-4.3,3c2.9,4,9.9,3.7,13.4,7c-1.9,3.2,0.8,4.3-1.3,8.9
						c5.1,1.1,5.6-2.3,10.3-1.7c-5.5,15.7,17.1,38.5-0.4,44.1c14.4,21.5-27.3,16.1-37.6,25.9c-8.6,1.5-12.1-2.4-17.7-4
						c0.2-9.2-9-11.1-9.4-23.3c2.5-1.9,5.7-3.2,5.7-7.5c6.2,2.3,16.5-5.5,14.8,2.6c3.4-1.1,6.1-2.8,5.7-7.5c-1.9-4.4-5,1.7-8.8,0.2
						c-2-4.4-6.5-7.2-3.3-13.2c18.5,1,9.1-17,12.6-23.9c-2.2-1.3-10.4-1.5-16.2,0.4c-5.1-10.3,4.9-15.6,9.8-20.8
						c0.1-5.7-6.9-3.8-6.1-10.2c-7,7.5-14.3-1.1-24.9,3.6c0.1-10.7,3.7-9.1,3.9-19.2c11.1,0.1,12.7,2,23.5-2c3.5,2.8,7.7,5,6.2,13.1
						c3.4-0.1,6.9-0.2,10.3-0.3c6.5,9.6,10.7,26.2,26.9,17c5.9,3.9,5.4,7.7,4.8,16.1C663.6,163.9,653.5,159.7,650.9,152.2z"/>
				</g>
			</g>
		</g>
		<g>
			<g class="st6">
				<g>
					<g>
						<g>
							
								<rect x="268.4" y="199.5" transform="matrix(0.3902 -0.9207 0.9207 0.3902 8.3926 620.9097)" class="st5" width="409.2" height="209.2"/>
							<g class="st7">
								<g>
									<path class="st8" d="M452,91.2c2.9-1.4,6.7-7.3,11.4-4.8c8.7-4.6,15.9,1,24,2.1c-1,3.7,3.5,2.2,5.5,4.2
										c1.9,0.5,4.3-1,6.1,0.3c0.2,2.7-4.9,0.5-3.3,4.1c2.8,6.4,10.8,2,15,5.6c-3.6,2.4-9.4-1.7-11.5,3.2c1.8,3.6,4.3,8.3,7.3,9.8
										c-0.1-2.1,0.1-5.2,2.1-6.1c1.6-0.1,2,1.9,1.6,3c-0.3,3.2-2.4,5-3.3,7.2c0.7,4.5,4.1,7.5,7.8,9.8c0.9-1.4,2.9-0.6,3.8,0.3
										c4.6,2.7,1.8,9.3,6.9,11.8c3.2,2.2,6.7,0.8,9.7,3.3c0.2,1.4,0.1,2.9-1.1,3.7c-4.6,1.7-7-4.3-11.7-0.5
										c-0.9,1.4,0.7,2.6,1.5,3.8c3.9-0.7,6.4,2.7,10,3.4c-1.7,0.3-0.4,1.6-0.5,2.4c-7.1-0.4-13.7-8.1-20.5-4.8c0,1.3,1,3-0.7,3.6
										c-1.2-0.2-3.1-0.8-4.7,0.1c-4,6.9,3,13.7,1.7,21c-1.6-6.6-8.2-12.6-11.2-17c2.8,4.3,0.7,10.7,0.4,13.7
										c-3.5-6.4-4-10.3-5.3-16.8c-6.2-2.4-13.4-2.6-19.9-2c-2.8,2.2-1.2,8.9-6.2,8.5c-1.7-3.3,3.8-5.4,3.5-9.4
										c-1.6-2.3,0-6-2.6-7.9c-0.5,0.6-1.5,2.2-2.2,0.9c-1.2-2.1,0.9-6.4-2.7-5.8c-1.2,0.3-2.7,0.9-3.1,1.8
										c-0.4-0.9-0.7-2.6-1.2-3.9c-5.5,0.8-0.2,5.9-3,8.3c-2-11.8-11.2-20.8-12.8-32.2C443.9,107.2,444.1,96.9,452,91.2z"/>
									<polygon class="st9" points="463.7,93.5 463.2,92.8 463.6,92.7 									"/>
									<path class="st8" d="M425.9,215.1c3.7,0.5,6.2,2.6,6.4,6.3c-0.2,3.6-2.6,6.7-5.2,7.9c-3,1-3.5-2.8-5.8-3.5
										C418.4,221.8,422.2,216.1,425.9,215.1z"/>
									<polygon class="st9" points="473,101.1 471.8,100.1 472.3,100.8 									"/>
									<polygon class="st9" points="475.9,94.3 474.6,94.3 475.2,94 									"/>
									<polygon class="st9" points="479.9,98.8 480,98.1 480.7,98.2 									"/>
									<polygon class="st9" points="482.7,99 481.7,98.8 482,98.7 									"/>
									<polygon class="st9" points="487.2,96.2 485.6,95.8 486.4,95.9 									"/>
									<polygon class="st9" points="483.5,104.5 482.3,104.8 482.5,104.9 									"/>
									<path class="st8" d="M444.4,198.6c1-4.8,4.4-9.1,6.9-13.2c1.9-0.2,2,1.4,2,2.7c-3.7,3.9-4.3,10.7-8.6,13.5
										C443.8,201.2,442,198.6,444.4,198.6z"/>
									<polygon class="st9" points="488.4,94.7 487.7,94.6 488,94.5 									"/>
									<path class="st9" d="M448.3,192.9c0.3-1.2,0.4,0.2,1.1-0.1c-2.6,0,0,1.3-1.3,2.6l-1.2-2.6
										C447.4,193.3,447.8,193,448.3,192.9z"/>
									<path class="st9" d="M446.5,195.5l1.2,0.8c-1.2,1.6-0.9-1.7-1.7-0.2C446.2,196.2,446.4,195.8,446.5,195.5z"/>
									<path class="st9" d="M449.9,189.2c0.6,0.5,1.5,0.7,1.5,1.4C450.8,190.1,449.6,189.9,449.9,189.2z"/>
									<path class="st9" d="M472.8,146.2c0.5,0.7,0.2,0.8-0.4,0.3C472.5,146.3,472.7,146.4,472.8,146.2z"/>
									<path class="st9" d="M493.6,102.6c-0.3,0.7-0.8,1.2-1.6,1.4C491.4,102.4,492.7,102.4,493.6,102.6z"/>
									
										<rect x="471.1" y="153.6" transform="matrix(0.3902 -0.9207 0.9207 0.3902 145.4885 528.0247)" class="st9" width="0.5" height="1.2"/>
									<path class="st9" d="M479.3,151l1.3,1.3l-2.4-0.5C478.3,151.6,479.3,151.8,479.3,151z"/>
									<path class="st8" d="M378,445.9c4.2-1.3,7.4,2.1,10.7,3c-2.8,3.5,1.9,5.2,0.9,8.9c4.1,5.1,7.1,10.8,12.7,14.7
										c-1.7,1.6-4.6-3.3-8.3-1.9c-4.7,1.4-3.8,6.4-4.4,9.8c0.7,3.9,3.4,7.9,0.8,11c-0.4-11.9-15-13.1-16.9-23.8
										c-1.1-5.9-6.2-13-0.4-18.1C373.3,446.5,376,446.8,378,445.9z"/>
									<path class="st9" d="M499.3,158.5c1.1-0.1-0.8,0.2-1.1,0.1L499.3,158.5z"/>
									<path class="st8" d="M490.1,180c0.2,1.4,2.9,1.2,2.8,3.3C493.3,181.1,489.6,181.9,490.1,180z"/>
									<path class="st9" d="M497.9,163.6c0.9,0.9-0.4,1.6,0,2.4C497.1,166.1,497,164,497.9,163.6z"/>
									<path class="st8" d="M490.1,182.1l0.5,1.3L490.1,182.1z"/>
									<path class="st8" d="M398.1,411.8c7-6.6,15.1-9.9,23.8-13.3c1.3,1.3,4.2,0,3.3,2.7c-0.2,2.3-2.5,2.8-3.6,4.2
										c-7.6,3.8-16.2,6.4-23,11.3c-2,1-4.5,3.8-6.8,0.7C389.7,413.4,395.9,412.2,398.1,411.8z"/>
									<path class="st8" d="M490.6,184.4l1,0.7L490.6,184.4z"/>
									<path class="st8" d="M493.8,186l-1-1.2C492.8,185.3,493.6,185.4,493.8,186z"/>
									<path class="st8" d="M493.8,186.8l0.1,1.1c-0.9,0.2-1.4-0.3-1.7-1C492.1,185.8,493,186.7,493.8,186.8z"/>
									<path class="st8" d="M462.5,319.4c4.5-0.2,6.3,5.3,10.4,5.5c2.7,2.2,3.2,6.5,3.8,9.9c-3.7,2.1,2,8.1-4,8.2
										c0.4,2-0.9,5.8,2.1,6.1c3.7-2.6,9.8-1.6,11.8-6.4c1.2-0.3,1.2,1.5,1.5,2.7c2.3,2,4.4-1.8,6.3-2l1.5,3.2l3-1
										c0.7,1.3,0.5,4.4,2.9,4.1c3.4,0.6,2.7-4,5.6-2.3c0.1,1.6-2.5,2.3-2.5,4.1c1.7,3.3,5.3,4.6,8,3.7c0.1,1.6-1.1,2.6-1.3,4.4
										c1.5,1.9,2.6,5,5.6,4.5c1.1,2.3-2,1.7-2.2,3.2c3.5,0.4,1.2,6.2,5.6,5.2c-1.4,2-3.4-0.6-4.9,1.1c-7.8,8.1,2.3,16-3.3,23.8
										c-4.1-2.5-10,0.9-13.5-3.1c-4.8,0.3-4.2,5-5.2,7.4c-2.5,0.3-5.2-1.9-7.1-1.7c1.3,4.2-4.5,5.6-2.9,9.9
										c0.2-9-8.2-18-7.5-28.1c-1.4-1.6-1.7-5.9-5.1-5c-3.8,1-6.6,2.7-8.5,5.5c-3,2.1-4.1-2-6.8,0.2c-0.6-3.6,5.8-3.3,5.4-7.3
										c2.8-1.1,6.8-1.3,8.8-4.3c3.1-4.4,1.4-9.5,3.3-13.9c-1.1-4.6-1.5-9.2-4-13.1c-6.1,1.6,0.8,9.2-4.2,13
										c-1.5,1.2-3.7,0.8-4.2-1c-1.2-3.4,0.9-10-4.9-9.9c-2-0.3-5.4,1.6-5.8-1.7c-3.7-6-2.3-12.4,1.6-18.5
										C454.5,322.3,458.6,321.2,462.5,319.4z"/>
									<path class="st8" d="M436.3,394c-2.8,2.2-1.3-1.3-2.4-1.6C435,392.2,437.1,392.2,436.3,394z"/>
									<path class="st8" d="M496.6,305.8c1.3,0.6,3,1.5,3.8,3.2c0.7,2.1,1.4,4,0.4,5.9c-1.9,0.2-4.6-0.1-5.9-2
										c-0.9-1.7-1.5-2.5-1.3-4.2C494,307,495,305.9,496.6,305.8z"/>
									<path class="st9" d="M495.7,309.1c0.1-0.8,1-0.6,1.3,0l-0.2-0.1l0,1.3c-0.7-2.1-2.1,0.1-2,1
										C494.5,310.1,494.1,309.2,495.7,309.1z"/>
									<path class="st8" d="M552,182.9c7-2.5,12.2,4.4,18.3,6.5c-2.4,5.7,4.7,9,5,14.6c-1.4-0.3-2.1-2.4-3.3-3.2l1.6-0.6
										c-1.5-0.1-0.9-1.4-2.5-1.6l0.3-0.1c-1-0.7-1.1-4.1-2.6-1.9c-1.2-1.5-0.2-3.7,0.4-5.8c-3.2,2-1.5-2.7-4,0.4
										c-0.9-1.7,2.2-0.4,0.9-2.2c-2.5-3.4-7.6-4.2-11.9-4.5c0.6,1,2.8,0.7,2.6,2.4c-3-2.1-2.6,4.3-5.9,2.2
										c0.2,2.7,1.3,3.1,2.4,5.4c2.8-0.4,0.7-3.6,3.2-3.8c0.7,3.2,4.1,0.2,4.2,4.1c-1.1-2.8-2.4-1.8-4.6-3.2
										c1.4,2.2-1.6,3.2-0.6,4.4l1.8-1.3c-1.5,1.7,2,2.7,3.1,4.4l-0.3,0.1c0.1,1.1,1.1,0.5,1.5,0.7l-1.4,0.7
										c2.2,5.3,9,2.8,10.1,7.9c-2.7,0.2-3.9-4.3-7-1.9c-7-3-13.8-7.2-15.3-14.8C546.9,188.3,550.9,185.5,552,182.9z"/>
									
										<rect x="497.9" y="309.8" transform="matrix(0.3902 -0.9207 0.9207 0.3902 17.9783 647.8881)" class="st9" width="0.5" height="1.2"/>
									<path class="st9" d="M552.1,188.1c-0.2-0.8-1.3,0.7-1-0.7L552.1,188.1z"/>
									<path class="st8" d="M556,187.7c1.3,0-0.1,0.8,0.9,1.7c-1-1.2-2.1,0.1-3.1,0C554.9,189,555.8,189.2,556,187.7z"/>
									<path class="st8" d="M554.9,190.1l1,0.2L554.9,190.1z"/>
									<path class="st9" d="M553.5,196c0.6,1.6,1.4-0.7,0.3,1.2C553.8,196.4,552.7,196.7,553.5,196z"/>
									<path class="st8" d="M557.4,188c0.2,0.1,0.7,0.3,0.8,0.6C557.6,188.7,556.9,188.6,557.4,188z"/>
									<path class="st8" d="M560.2,186.3c-1.9,0.8,0.9,1.4,0.3,1.7c-1.4-0.9-1.9,0.2-2.2-1.5C558.5,185.4,559.7,186.9,560.2,186.3
										z"/>
									
										<rect x="558.5" y="192.8" transform="matrix(0.3902 -0.9207 0.9207 0.3902 162.1369 632.5931)" class="st8" width="0.2" height="2.2"/>
									<path class="st9" d="M558.5,197.6c-0.4,0.3-0.5-0.7-0.6-1C558,196.9,558,197.6,558.5,197.6z"/>
									<path class="st9" d="M557.9,199.1c0.2,0.8-0.6,0.3-0.8,0.2C557.3,199.2,557.7,198.8,557.9,199.1z"/>
									<polygon class="st8" points="562.7,189 561.8,188.1 563.2,187.9 									"/>
									<polygon class="st8" points="578.9,152.5 578,151.6 578.3,150.9 									"/>
									<path class="st8" d="M560.3,195.2c0.6,1,0.3,1.2-0.8,1.2C560.1,196.2,560.1,195.7,560.3,195.2z"/>
									<path class="st8" d="M528.9,278.5c5.5,1.8,7.3,7.8,7.6,12.8c-3.6,1.8-8.2,0.9-11.7,0c-1.7-1.5-2.4-4.7-2.3-6.7
										C523.8,281.3,524.9,277.6,528.9,278.5z"/>
									<path class="st8" d="M561.7,211.4c7.2,2,7.3,9.1,10.2,14.5c-0.9,0.9-3.1,1.3-2.4,3.1c-4-1.5-7.6,0.2-11.7,2.6
										c-2.7-0.4-5.4-2-6.2-5c-3.5-5.1,5.3-5.3,1.6-10.5C554,212,558.2,210.7,561.7,211.4z"/>
									<path class="st8" d="M564.7,197.1l1.3,0L564.7,197.1z"/>
									<path class="st8" d="M567.4,192.5l0.6-0.8L567.4,192.5z"/>
									<path class="st9" d="M556.7,220.2c1.1-0.1,0.6-0.8,0.3-1.2c2.9,1.2,6.7,6.7,8,3.7l-1.8-0.7c1.5-0.4,2.1-3,3.8-2.8l-0.9,2.2
										l-0.5-1.3c-1.4,0.2-0.3,1.9-1,2.4c1.3,1.8,3.7,0.5,3,3.3c-1.4,0.2-1.9-1.1-3.2-0.3c1.8,1.3,0.2,0.8-0.1,2.6l-0.5-1.3
										c0.2,0.1,0.3-0.1,0.5,0c-0.2-1.9-3.3-1.4-3-3.9c-0.6,2.1-3.8-0.3-5.5-0.5c2.1,0.6,1.9-1.5,0.7-2.8
										C556.7,219.7,556.8,220,556.7,220.2z"/>
									<path class="st9" d="M556.4,225.8c0.3,0.6-0.6,1.3-0.1,2C555.5,229.3,556.4,225.8,556.4,225.8z"/>
									<polygon class="st8" points="565.8,204.3 565.7,202.7 566.4,203.5 									"/>
									<polygon class="st8" points="586.8,155.3 585.8,155.2 586.4,155.1 									"/>
									<path class="st10" d="M560.6,221.3c-0.2,0.4-0.7,1-1,1.7l0.2-0.4l-1.7-0.2C558.7,221,560.8,222.2,560.6,221.3z"/>
									<path class="st9" d="M557.7,224.5l2.4,0.5L557.7,224.5z"/>
									<path class="st9" d="M561.6,219.1c-1.3,0.5-0.2,0.4-1.4-0.3L561.6,219.1z"/>
									<path class="st9" d="M531.5,290c-0.2,0.4,0,0.5-0.1,0.8l-1.3-0.6C530.7,290.2,531.1,289.8,531.5,290z"/>
									<path class="st9" d="M561,217.4l0.8,1.1L561,217.4z"/>
									<path class="st9" d="M558.5,226.4c-0.3,0.7-0.1,0.8,0.6,0.5c-0.5,0.6-1.2-0.2-1.5-0.1L558.5,226.4z"/>
									<polygon class="st9" points="563.4,216.8 562.3,216.9 562.5,216.4 									"/>
									<polygon class="st8" points="546.6,256.9 545.9,256.1 546.3,255.8 									"/>
									<polygon class="st9" points="563.1,218.7 562.6,218.5 563.1,217.4 									"/>
									<polygon class="st8" points="549.3,254.9 547.8,254.1 548.4,254.6 									"/>
									<path class="st8" d="M570.2,203.1l0.7,2.1C570.6,204.5,568.6,203.7,570.2,203.1z"/>
									<path class="st8" d="M603.5,159.5l0,1.3C602.7,160.2,603.2,160.2,603.5,159.5z"/>
									<path class="st8" d="M525.4,412.8c3.4-0.6,6.3,2.4,8.3,4.3c1.3,5,3.6,10.6-1,14.1c-1.5,1.2-3.4,1.9-5.6,2.3
										c-2.4-1.8-7.6-1.7-8.6-6C516.4,422,518,413.3,525.4,412.8z"/>
									<path class="st8" d="M576.7,297.5c4-0.1,5.2,3.7,6.7,5.7c0.8,2.9,1,6.9-1.7,8.9c-1,1.7-2.8,1.7-4.6,1.7
										c-2.6-0.6-5.8-2.7-6.6-5.9C568.3,303.2,571.7,296.9,576.7,297.5z"/>
								</g>
							</g>
						</g>
					</g>
				</g>
			</g>
			<g class="st11">
				<g>
					<g>
						<g>
							
								<rect x="57.6" y="71.8" transform="matrix(0.8907 -0.4546 0.4546 0.8907 -83.351 83.9455)" class="st5" width="150.6" height="287"/>
							<g class="st7">
								<g>
									<path class="st8" d="M169.8,357.6c-0.2,1.6-2.9,2.7-3.8,0.9c2.7,0.9,1.8-1.4,1.7-2.6l-0.6,0.3c0.2-1.1,2-1.5,1.4-2.2
										c0.1,1.7,2.7,2.8,3.5,1c0.1-1.8-0.1-1.7-0.9-2.8l-0.5,1c0.7-0.6,0-3,1.6-2.8c-0.2-4.4-5.9-4.7-7.9-7.7c2,2,3.9,0.8,5.8,3
										c2.1,2.7,3.4,6.7,2.9,10C171.7,356.6,170,360.4,169.8,357.6z"/>
									<path class="st8" d="M160.7,353.5c-1-1.5-1.1-4.6,0-5.5c-3.3,2.9,4,3.9,1,6.4c1.2,1.4,2.6,2.6,3.7,4.3
										C164.2,356.4,160.1,356.8,160.7,353.5z"/>
									<path class="st8" d="M160.8,346.9c-0.7-0.4-1.1-1.2-1-2l1.8,2.1C161.2,347.2,161.1,345.5,160.8,346.9z"/>
									<path class="st8" d="M162.1,343.5c1.5,0.5,0.6,1.2,0.8,2.6L162.1,343.5z"/>
									<path class="st8" d="M133.5,348c-3.2-1.4-5.2-4.8-6-7.9l-0.1-5.2c1.7,0.4,3.1-0.3,1.9-1.7c-1.2-0.9-2.5-0.5-3.2,0.1
										c-0.1-1.2-2.1-1.7-1.1-3.2c-3.3,2.4-7.2,2.4-10.9,0.6l0.3-2.4c-5.8,1.2-4.8-4.5-9.1-6.6c-8.6-3.6,0.2-6.8-7.9-10.7
										c1.9,0.3,5.1,1.2,4.4-2c-0.8-2.1-4.3-1.1-5.3-3.5c2.3-2.4,8.6,4.6,7.7-2.4c-1.4-2.3-0.3-5.1-0.6-7.4
										c-5.4-4.2-4.2-13.1-11.9-15.6c3.1,1.7,3-2,4.3-3.2c-0.3-4.1-4-4.9-5.6-7.6c1.4-1.2-0.2-2.9,2.3-3.4c2.9,4.2,4.9,9.2,9,12.8
										c2.3-0.9,5.3,0.1,5.4-3c0.4-6.9,3.6-15.8,1.6-20.7c4.4,10.5,11,19.6,15.9,29.7c5.7-1.4-2.6-6.1,0.8-7.6
										c2.3,3.1,5,1,7.9,0.9l5.1,9.6c1.5,0.5,2-0.5,3.2-0.6c4.3,2.5-0.4,9.4,5.2,11.3c1,4-2,6.8-0.1,10.5c3.4,0.3-0.6-3.2,0.9-5.2
										c1.6,0.7,0.5,4,3,3.9c1.8-2.9-0.9-8,3.5-8.8c-0.3,2.9,3.4,1.3,3.9,3.7c2.4-0.2,1.5-2.5,0.7-3.6c2.4,0.3,1.1,3.7,2.7,4.3
										c1.6-0.8-0.6-4.2,2.2-2.6c-0.1,1.3,0.7,3.4,1.7,3.9c1.7-0.6,0-2.5,1.1-3.3c1.6,7.6,8.4,14.4,5.6,22.8
										c-1,3.5-3.8,6.7-6.7,7.9c-2.7-0.4-8.2,1.5-9.6-2.3c-2.6-0.7-4.5-3.4-6-5.4c-0.5,1.5-1.2,4.1-3.3,4.2
										c-2.2-4.3,2.7-8.4,0.6-13c-1.6,2.3-4.7,4.9-3.8,7.7c-2.2,2.6-7.2,1.4-6.6,5.6c-0.5-0.5-1.3-0.6-1.9-0.8
										c-1,1.5-0.7,2.1-1.6,3.8c4.6,1.2,9,6.9,7.2,12.2C140,347.1,136.4,348.7,133.5,348z"/>
									<path class="st9" d="M133,347c0-2.5-1.5-2-3-3.5l0.8,0.1c0.7-2.6-4-1-1.8-4.1c-0.1-0.7,0.5,1.5,1.5,0.5
										c0.4-1.2-1.5-0.5-0.8-1.6c0.5,0.5,1.9,1.3,2.8,1.6c1.1-1.3,2.5-1.5,4.1-2.6l-2,0c1.4,0.3,1.7-1.1,2.8-1.9
										c1.4,1.8,0.8,3.6,2.2,5.8c-1.4-2.3-0.3,1.4-2.2,1.6c1.7-0.6,2.4,1.3,1.4,1.8l-0.3-0.6l-1.3,1.4l-0.2-0.4
										c-2,3,0.1-2.3-2.2-0.4l1,2L133,347z"/>
									<path class="st10" d="M135.4,343c-0.8,0.4-0.1,0.8-1.2,1.1c0.3-0.9-0.4-0.3-0.8-0.1c0.5-2.5,2.1,0.2,2.9-1.7
										c0.8,0.6,1,1,1,2C135.8,344.3,136.5,343.7,135.4,343z"/>
									<path class="st10" d="M136.9,340.5c-0.1,0.3,0.6,2.2,1.3,1.6l-2.2-0.9L136.9,340.5z"/>
									<path class="st9" d="M168.1,323.1c0.1-2.8,1.2-3.1,1.3-6.7c-1.1-0.2-1.6,1.8-2.3-0.1l0.9,0.3c2.3-3.4-4.4-2.2-2.4-5.7
										l-0.5,0.5c-1-2,0.1-1.8-1.6-4.2c1.1,1.7,2,1,3.2-0.1c-0.4,2.2,3.4,3.2,1.3,5.5l-1.2-0.9c0.3,2.6,4.1,4.6,3.7,5.8l-0.7-0.4
										c0,2-1.6,5.6,0.5,5.5C169.6,322.6,168.4,322.2,168.1,323.1z"/>
									<polygon class="st9" points="136.2,335.6 135.7,336.6 134.9,335.5 									"/>
									<path class="st9" d="M165.6,319.6l-0.2,0.6c-2.2-2.4,2.3-0.4,2.2-2.6C167.1,319.1,167.5,319.9,165.6,319.6z"/>
									<polygon class="st9" points="166.3,317.5 166.7,316.5 166.8,317.5 									"/>
									<polygon class="st9" points="169.1,312.8 170.1,313.8 168.8,313.7 									"/>
									<polygon class="st9" points="164.2,312.6 164.9,313.5 164.5,313.2 									"/>
									<polygon class="st9" points="162.8,312.3 163.9,314 163.3,313.3 									"/>
									<path class="st10" d="M166.5,310.2l-1,0.5L166.5,310.2z"/>
									<polygon class="st9" points="162.5,311.7 162,311.2 163.7,311.6 162.5,311.2 									"/>
									<path class="st9" d="M160.9,311l-1.2-1.9L160.9,311z"/>
									<polygon class="st9" points="167.1,306.4 167.6,306.9 167.4,307 									"/>
									<polygon class="st9" points="162.3,306.8 162.7,308.6 162.5,308.7 									"/>
									<path class="st9" d="M166.7,305.6c-0.5-1,0.4-0.2,0.7-0.1C167.2,305.6,166.8,305.8,166.7,305.6z"/>
									<path class="st9" d="M163.6,304l-1.3-0.1l0.8,1.6c-2.3-1.1-0.3-1.6,0.7-2.6c0.5,1.5,1.4,2.3,0.4,3.8
										C164.2,305.6,164.3,304.8,163.6,304z"/>
									<path class="st9" d="M161,307.2c-0.2-0.9,0.4-0.2,0.7-0.1C161.5,307.2,161.4,307,161,307.2z"/>
									<path class="st9" d="M159.3,304.9c-0.3-1.1,0.2-0.6,0.5,0C159.6,305,159.6,305,159.3,304.9z"/>
									<polygon class="st8" points="152.7,279.3 153.7,279.3 153,279.7 									"/>
									
										<rect x="133.7" y="287.5" transform="matrix(0.8907 -0.4546 0.4546 0.8907 -116.2466 92.3073)" class="st9" width="0.2" height="0.7"/>
									<path class="st9" d="M105.1,281.2c0.1-0.3,0-0.5,0.2-0.6c0.5,0.5,1.3,1.1,1.1,1.7C105.9,282.1,105.8,281.1,105.1,281.2z"/>
									<path class="st9" d="M109.6,276.7c0.4,0.3,1.5-0.5,1.3-1.4C111.9,276.5,110.8,276.6,109.6,276.7z"/>
									<path class="st9" d="M109.8,272.4l-0.3-0.1L109.8,272.4z"/>
									<path class="st8" d="M102.6,248.4c-1-6.4-6.2-9.8-8.9-14.4c-3.7-0.4-7.1-4.6-7.2-8.3c0.9,0.8,1.1,4.2,3.1,3.1
										c-2.8-3.5,1.8-1.9-1.5-5.4l-1.8,0.9c1.5-4.8,4.2-8.9-0.1-13.9c-1.8-3.6-4.4-8.2-5.5-12.2c-0.8-2.1,0.9-1.7,2.3-1.9
										c6,6.9,6.3,18.2,13.4,22.8c4.6,3.6-1.6,7.1,0.8,10.8c0.6-0.3,0.1-0.8-0.1-1.2c0.4,2.3,3.3-1.4,2.7,1.4
										c-0.2-3.4,1.7-6.9-0.1-9.9c1.9,11.5,4.6,23.1,8.1,33.5C105.4,252.9,105.6,248.9,102.6,248.4z"/>
									
										<rect x="100.5" y="239.8" transform="matrix(0.8907 -0.4546 0.4546 0.8907 -98.2668 72.0036)" class="st12" width="0.2" height="1.1"/>
									<path class="st8" d="M127.7,223.4c-3.3-3.5-0.8-7.8-1.1-11.9c1.8,0.1,2.4,2.3,4,2.4c-1-0.5-1.3-0.1-2.5,0.5l0.4-0.2
										c0.2-0.6-0.5-1-1-1c-1.2,1.6-1.9,4.5-1.3,5.7l1.8,0.6l-1.7,0.1c0.9,1.8,1.8,4.1,3.7,4.8c0.5-1.5,2.3-3.4,4-2.3
										C132.9,224.4,129.7,226.4,127.7,223.4z"/>
									<path class="st12" d="M97.2,236.9c2.1-0.8,0.4,1.8,2.4,1.8C98.2,239.7,97.6,236.7,97.2,236.9z"/>
									<path class="st8" d="M132.4,216c0.1,1.7,2.2,2.9,1.7,4.8C134.5,218.2,131.8,218.8,132.4,216z"/>
									<path class="st12" d="M97.3,233.7l0.9,0.3c-0.9-1.3,1.9-2.2-0.4-3.3c0,0.5-0.5,0.5-0.8,0.9c0-2.5,3.1-0.8,3.2,0.4
										c-1.3-0.1-0.7,2.1-0.8,2.9c1.1-0.3,2.8,0.1,1.8,2.1C100.5,236.5,99.1,234.3,97.3,233.7z"/>
									<polygon class="st8" points="131.1,214.4 132.2,215.6 131.4,215.5 									"/>
									<path class="st12" d="M97.4,232.9l-0.9-0.3L97.4,232.9z"/>
									<polygon class="st12" points="92.6,228.8 94.3,229.2 93.6,229.3 									"/>
									<path class="st13" d="M98.1,226.8c1.1-0.8-0.6-2.2,1.1-1.8C99.6,226.5,97.4,226.1,98.1,226.8z"/>
									<path class="st12" d="M94.4,225c1.8-0.4,0.7,0.4,1.8,2.1L94.4,225z"/>
									<polygon class="st12" points="89.8,229.3 89.6,230.4 89.6,229.9 									"/>
									<path class="st12" d="M91.8,227.3l0.4-0.2l-1.8-1.6c2.7-2.1,1.6,1.7,2.7,2.4C92.9,227.5,92,228.2,91.8,227.3z"/>
									<polygon class="st12" points="95.7,223.3 96.1,224.6 95.3,224 									"/>
									<polygon class="st12" points="88.8,222.8 89,223.7 88.2,223.1 									"/>
									<path class="st8" d="M95.8,215c-1.6-3.2-3.5-6.4-1.4-10c1.1-0.8,1.3-2.9,3-3.3c2.7,1.4,5.5,2.4,6.8,6
										c0.6,2.7,1.1,5.2-0.8,7.6C101,218.4,98,216.4,95.8,215z"/>
									<path class="st8" d="M121.4,197.5c-0.8-1.1,0.2-2.6,1-3.5c1.3-0.4,2.4,0.3,3.4,1.3C127.3,198.2,122.7,200,121.4,197.5z"/>
									<path class="st12" d="M99.6,208.9l2.2-0.1C100.3,209.2,100.9,211.4,99.6,208.9z"/>
									<polygon class="st12" points="89.4,213.8 89.6,215.2 89,215 									"/>
									<path class="st12" d="M98.1,209.4c-0.3,0.9-4-1-2.7,1.6c-1.4-0.8,0.1-3.3-0.4-3.3l1.4,1.3c0.9-1.7-1.2-1.9,0.3-3.4l1.8,0.6
										c-1.7,2.1-1.5,1-0.3,3.4L98.1,209.4z"/>
									<path class="st12" d="M99.2,205.6l-2.6-1.2c2.3-0.9,2.6,2.2,4.4,0.3c-1,1,1.1,3.2-1,3.5C99.2,206.6,98.7,207.6,99.2,205.6z
										"/>
									<polygon class="st12" points="87.1,210.7 87.9,211.8 87.1,211.2 									"/>
									
										<rect x="87.8" y="208.6" transform="matrix(0.8907 -0.4546 0.4546 0.8907 -85.4917 62.8435)" class="st12" width="0.2" height="1.1"/>
									<path class="st8" d="M154.5,162.2c-2.5-10.7,4.8-19.4,7.5-29.2c1.8-0.9,3,0.5,3.6,1.7c0.9,4.8-3.6,8.6-2,13.7
										c-0.6,5.6-1.4,11.4-6,15.5C156.3,164.2,155,163.7,154.5,162.2z"/>
									<path class="st12" d="M83.7,200.3c0.3,0.6-0.9,1.2-1.3,0.4c0.8-0.4,2.5-2.5,2.8,0.1L83.7,200.3z"/>
									<path class="st12" d="M81.4,198.2c0.6-2.8,1,1,2.4-0.7C83.7,198.8,82.2,199.3,81.4,198.2z"/>
									<path class="st8" d="M123.7,159c-2.3-1.6-1.3-5.1-0.6-6.9c1.4,2.8-0.1,4.3,0.4,5.8l-0.3-0.1c-0.1,0.8,0.4,1.3,0.8,1.1
										c1.7-0.1,0.2-2.1,1.8-2.4c0.3,1.6,1.7,0.4,1.8,2.1c2-0.5,0.6-3.3,1.1-4.3c-0.6,0.3-2.9-3.2-6-2.4l-0.1-3.2
										c2.3-0.4,1.6,2.7,4.3,2.5c1.6,2.2,3.2,5.3,1.8,8.3C127,161,125.2,160.4,123.7,159z"/>
									<path class="st14" d="M125.9,158.8c0.7-0.1,1.6-0.3,1.4,0.8L125.9,158.8z"/>
									<path class="st8" d="M124.2,98.9c-3.7-3.3-0.7-7.6-1-11.2c1.5,2.5,4.6,3.1,5.4,6.2c0.1,1.7,0.6,3.7-0.8,4.9
										C126.8,100.1,125.3,99.1,124.2,98.9z"/>
									<path class="st9" d="M124.5,97.5c-0.1-1.7-0.9-4.8-1.6-5.6c0.3-2.4,3.4,0.8,1.3-1.9c1,0.5,1.5,2.5,3.2,2.4
										c-1.9,1.7-0.4,3.7,0.6,4.7C126.7,98.6,125.6,97.4,124.5,97.5z"/>
									<path class="st8" d="M123.4,67.8c-1.8-2.6-1.4-5.7-0.2-8.6c2.1-0.3,3.5,2,4.9,3.7c-0.3,1.9,0.7,3.4-0.9,5.2
										C126,68.9,124.6,68.7,123.4,67.8z"/>
									<path class="st9" d="M127,66.2c-1.1-0.7-1.1,1.8-2.2,0.1l0.4-0.7c0.4,0.3,2.1,0.2,1.8,1.1C127,66.6,127.1,66.4,127,66.2z"
										/>
									<path class="st9" d="M126.8,63.3c0.5,0,1.4,0.8,0.6,1.2L126.8,63.3z"/>
									<path class="st9" d="M122.8,62.8c2.7,1.9,0-3,2.8-1.9l-1,1l0.3,0.1c0.2,1.4-1.4,1.7-2.3,1.9L122.8,62.8z"/>
									<path class="st8" d="M139.5,72.9c-0.9-1.8-1.8-6,1-6.3c1.8,0.1,3,2.5,3.2,4.3c-0.1,1.3-0.2,2.1-1,3
										C141.5,74.9,140.2,73.8,139.5,72.9z"/>
									<path class="st9" d="M142.7,70.3c-1.2-0.4-1.2,1.6-2.3,1.9l-1.1-2.2c2.4,2.3-0.4-2.3,2.2-2.1c1.2,0.4,1.4,1.3,1.6,3.2
										L142.7,70.3z"/>
								</g>
							</g>
						</g>
					</g>
				</g>
			</g>
		</g>
	</g>
</g>
</svg>
