<?xml version="1.0" encoding="utf-8"?>
<!-- Generator: Adobe Illustrator 22.0.1, SVG Export Plug-In . SVG Version: 6.00 Build 0)  -->
<svg version="1.1" id="Ebene_1" xmlns="http://www.w3.org/2000/svg" xmlns:xlink="http://www.w3.org/1999/xlink" x="0px" y="0px"
	 width="670px" height="900px" viewBox="0 0 670 900" style="enable-background:new 0 0 670 900;" xml:space="preserve">
<style type="text/css">
	.st0{display:none;}
	.st1{display:inline;fill:#32A4DC;}
	.st2{opacity:0.2;}
	.st3{fill:#74CDF0;}
</style>
<g class="st0">
	<path class="st1" d="M670,127v56c-11.9,0.7-25.4,18.9-19.2,30.3c1.5,2.7,2.1,5.7-1.4,7.9s-6.3,6.7-11.7,3.3s-11.5-5.4-17.9-5.6
		c-2.2-0.1-4.7-0.4-6.2-2.6c-3.2-5.1-6.4-10.1-5.7-16.6c0.2-2.3,0.8-5-1.2-7.4c-7.2,1.7-13.5,5.7-21.1,6.2c-2.1-3.5-2.3-7.7-4.6-11
		c-3.8,1.1-6.3,3.6-9.3,5.4c-1.9,1.1-3.3,1.3-4.7-0.6c-9.1-12.5-20.5-23.2-28.9-36.3c-0.8-1.2-1.3-3.2-3.4-3.2c-1.3,2-1,4.3-1.5,6.3
		c-1.1,4.3,0.2,7.8,3.8,10.5c1.9,1.4,3.6,2.9,5.4,4.4c5.3,4.3,7.8,10.7,11.8,16c4.4,5.8,9.3,10.9,16.9,12.3c2.7,0.5,4.9,2.2,6.1,4.7
		c4.1,7.1,9.4,12.8,17.4,15.5c1.3,0.4,2.9,0.9,3.6,2.9c-4,2.8-7.8,5.4-13.2,5.9c-5.6,0.6-11.6,0-16.8,3.7c-7.6,5.4-7.8,5.1-3.2,13.4
		c1.3,2.4,2.5,4.7,0.9,7.5c-3.9,7-8.3,13.7-13.2,20c-2.4,3-4.5,3.6-7.4,1.1c-3.6-3-7.4-3.2-11.5-0.9c-5.5,3.1-11.4,3-17.4,1.4
		c-2.1-0.4-3.9-1.9-4.6-4c-1.3-3.3-2.5-6.8-4.6-9.8c-4.7,6.9-5.2,11.1-1.5,15.4c4.3,5,8.5,10.1,14.4,13.6c6.1,3.5,5.9,3.8,12-0.1
		c3.1-2,5.9-4.7,9.8-4.5c4.5,0.2,9-1,12.8-3.5c5.8-3.7,12.7-5.4,19.5-4.6c3,0.5,6.1-0.3,8.5-2.1c4.5-3.6,9.3-5,14.6-1.5
		c0.2,0.1,0.6-0.1,1-0.2c1.4-1.7,1.8-3.9,2.4-6c1.8-6.4,2-6.6-3.4-10.3c-6-4.1-5.8-10.5-8-16.7c5.4,0.4,9.3,3.2,14.2,3.3
		c0.8-2.7,1.8-5.4,2.5-8.1c1.7-6.2,5.7-8.6,12-7c1.6,0.4,3.2,1,4.7,1.8c7,3.8,14.7,3.7,22.3,4.7c3,0.4,5.1-0.7,7.2-3.2
		c5.7-6.4,10.3-13,10.5-21.9c0.1-4.7,3-6.7,7.5-6.9v100c-3.2-3.3-7.4-4.2-11.7-4.9c-1.5-0.2-3-0.4-3.9,1.3c-1.2,2.2-0.2,12,1.5,13.9
		c5.7,6.2,11.7,12.2,14.1,20.6v185c-1.3,0.8-2.3,2-2.9,3.4c-2.3,4.7-6.5,8.2-11.6,9.4c-1.3,0.4-2.5,0.9-3.7,1.5
		c-6,2.5-11.6,5.9-16.6,10c2.1,2.6,4,5,5.8,7.3c1.9,2.6,5.1,4,8.3,3.5c6-0.7,12.3-0.8,16.9-5.8c0.9-1.2,2.3-2,3.8-2.2v54
		c-1.3,1-0.5,2.9-1.8,3.9c-3.9-2.6-4-8-7.6-10.7c-7.6,2.1-14.2,6.7-21.9,7.3c-7.4-11.6-4.9-23.2-0.6-35.5c-4.5,1.6-7.4,3.2-9.3,6.4
		c-4.1,6.7-7.4,13.6-8.4,21.6c-0.4,3.2-0.2,5.8,1.6,8.5c6.3,9.8,6.2,9.9,17.5,7.1c3.9-1,7.1-0.6,10.3,1.8c2.7,2.2,5.6,4.1,8.7,5.8
		c6.4,3.1,10.9,7.3,11,15c0,0.3,0.3,0.5,0.5,0.8v170c-0.6,0.8-1,1.8-1,2.8c-0.3,5.5-2.6,10-6.3,14.1c-6.3,7-2.2,17.8,7.3,20.1v58
		h-73c0-4.2-0.1-8.3,0.1-12.5c0.2-3.6-0.7-6.3-4.1-8.3c-3-1.8-5.5-4.3-8.3-6.4c-1.8-1.2-2.8-3.4-2.7-5.5c-0.1-7.7-0.8-15.4,4.8-21.8
		c0.4-0.7,0.8-1.4,1.1-2.2c1.1-2,0.9-3.5-0.5-5.5c-4.5-6.2-4.4-6.3-11.8-3.8c-0.8,0.3-1.6,0.5-2.4,0.8c-3.9,1.8-6.8,1.5-9.8-2.5
		c-2.5-3.2-4.5-7.6-9.1-8.9c-6.9-2-13.8-3.8-20.7-5.7c-1.1-0.3-2.5-1-3.3-0.1c-2.8,2.9-7,4.5-9.1,8.7c5.8,3.5,11.3,7.5,17.9,7.3
		c9-0.3,12.1,4.2,13.2,12.2c0.7,5.3,2.2,5.9,7.5,5.1c1-0.2,1.9-0.5,2.9-0.7c2.5-0.5,4.2,0.4,4.9,3s1.6,5.4,2.4,8.1
		c0.5,2,2.2,4.3-0.5,5.8s-5.7,4.3-9.1,1.9c-5-3.5-10.3-6.6-12.8-12.8c-1.3-3.4-2.6-7.1-5.8-9.9c-5.6,7.6-10.5,15.7-14.5,24.2
		c4,0.6,7.3,1.4,10.5,1.4s4.4,1.5,5.2,4.2c2.3,7.8,5.1,15.5,4.1,23.9h-28c-2.4-1.8-4.7-3.7-7.1-5.4c-1.2-0.9-2.6-1.7-3.1-3.2
		c-2-5.6-5-10.9-6-16.9c-1-6.2-1.8-12.6-6-17.7c-4.5-5.4-5.2-11.6-4.9-18.3c0.1-2.8,1-4.7,3.6-5.8c3.5-1.5,7-3.1,10.5-4.7
		s5.3-4.6,6.6-8.9c-3,0.6-5.4,0.9-7.8,1.5c-10.1,2.2-17.4-2.9-24.2-9.3c-2.8-2.6-4.1-6.7-7.8-8.9c-2.4,4.1-2.7,8.6-4.3,12.6
		c-2.2,5.5-8.1,7-12.7,3.4c-5.9-4.6-11.2-9.9-15.8-15.8c-2.8-3.6-6.2-6.4-10.9-7.5c-1.7-0.4-3.6-0.7-4.7-2.3c-0.1-2,1.4-3,2.6-4.1
		c5.2-4.7,9.6-10.2,13.2-16.2c1.2-1.8,2.6-3.5,4-5.1c7.2-8.8,15.1-16.8,22.4-25.4c3.7-4.3,5.1-9.8,7.3-15.8
		c-6.2,1.7-11.4,3.2-16.1,6.1c-10.5,6.4-22,7.1-33.7,6.8c-1.3,0-3,0.2-3.5-1.3c-1.6-4.4-2.7-8.9-3.3-13.5c-0.2-1.5,0.9-2.3,2-3.2
		c3.5-2.8,6.9-5.7,10.5-8.4c2.7-2,6-3.5,7.8-6.6c-3-3.7-6.3-4.3-10.3-2.4c-4.3,2-9.7,1.6-13.3,5.3c-5.4,5.6-11.3,10.8-16.2,17
		c-2.2,2.8-2.9,5.4-2,8.7c1.9,6.6,2.4,12.8-5.1,16.6c-1.1,0.6-1.9,1.9-2.9,2.7s-2.3,2-4.1,1.5c-2.1-3.2-1.6-7.3-3.6-11
		c-5.8,2.5-11.1,5.8-17.4,6.4c-2,0.2-4,0.5-5.9,1.1c-2,0.6-4,5.4-3.5,8c0.5,2.9,3,2.4,4.8,2.2c7.8-0.4,15.7,0.6,23.1,3.1
		c3,1,6.4,0.5,9.1-1.2c6.5-3.4,13.1-6.6,19.7-9.8c1.4-0.7,2.7-2.1,4.8-1.2c-0.2,6.3-2.9,12.3-7.6,16.6c-4.7,4.4-7,9-3.5,15.7
		c3.4,6.5,2.4,8-4.2,11.7c-3.9,2.2-4.4,5-1.4,8.4c1.5,1.7,3.3,3.3,4.9,5c3.8,3.8,5.3,8.9,6.7,13.8c1.1,3.8-3.5,5.6-5.3,8.5
		c-1.1,1.9-2.9,3.2-4.2,4.9c-2.9,3.7-6.4,6.8-6.2,12.5c0.5,9.8,1,9.7-9,8c-4.7-0.8-14.7-9.9-15.7-14.6c-0.1-0.5-0.2-1-0.1-1.5
		c1.3-6.6,1.1-13.5,6.2-19.1c2.2-2.5,5-5.2,5.4-9.2c-9.9-1.9-17.1,3.3-24,8.6c-3.5-2.8-5-6.2-7.3-9c-5.7-7.1-7.3-15.1-5.7-23.9
		c0.5-2.8,0.5-5.7-2.2-7.1c-6.6-3.4-7.7-9.3-8.4-15.8c-0.4-3.9,0.4-6.8,4.2-8.6c3.1-1.4,5.9-3.4,8.2-5.9c-6-1.3-11.2-2.9-16.8-1.4
		c-2.9,0.9-6.1,0-8.1-2.3c-2-2.1-3.5-4.4-5.4-6.5c-4.8-5.4-12.5-6.1-18.7-1.8c7.4,5.6,15.4,10.2,20.3,18.6c3.2,5.6,5.5,10.6,0,15.9
		c-0.7,0.7-0.9,1.8-1.5,2.6c-5.1,5.7-3.5,11.3,0.3,16.8c3.3,4.4,6.7,8.7,10.5,12.7c2.4,2.8,5.7,5.4,4.9,9.9
		c-2.1,12-6,23.1-13.6,32.8c-2.5,3.2-4.9,4.4-8.9,3.2c-3-1-6.2-2.3-9.5-1.8c-1.7,7.3-1.1,8.5,5.5,10.2c2.7,0.7,5.4,1.6,8.1,2.4
		c1.4,0.6,2.9,0.7,4.4,0.2c8.1-3,16.5-5.2,22.1-12.8c1.9-2.6,13-2.3,15.2,0c0.9,0.9,0.9,2.1,0.9,3.3c0,4,0.4,8.1-0.1,12
		c-0.8,5.3-2.7,10.4-5.6,14.9c-4.9-2.8-9.4-5.7-14.8-1.7c1.8,4,5,7.3,6.3,11.4c-0.9,2-2.9,2.1-4.1,3.2c-2.7,2.3-7,2.6-8.7,6.3h-63
		c0.1-3-1.4-5.6-2.6-8c-1.9-3.6-1.1-6.7,1.5-9c5.6-5.1,8.3-11.5,8.9-18.9c0.3-3.6,2.2-5.2,5.1-6.6c2.4-1.2,5.3-1.8,7.1-4.8
		c-6.7-3.2-13.8-5.7-21-7.5c-7.5-1.9-13.5-6.3-19.8-10.3c-1-0.6-1.7-1.6-2-2.8c-2-7.4-3-14.5,1-21.8c2.1-3.9,4.4-8,5.4-12.4
		c-0.6-0.5-1.5-0.7-2.2-0.3c-11.3,3.4-22.3,7.8-33.4,11.8c-2.2,0.8-4,2.6-4.6,4.8c-2.4,6.8-4.8,13.5-7.3,20.2
		c-0.5,1.3-0.3,3-2.4,3.6c-0.6-1.2-1.1-2.4-1.4-3.7c-0.7-4-3.3-5.2-6.9-4.5c-6.4,1.2-12.9,0.8-19.3,2.4c-7,2-14.4,1.9-21.3-0.3
		c0.1-4.8,4.2-8.4,4.1-14c-15.6-5.7-21.1-20.3-27.3-34.3c-0.9,0.5-1.7,1.1-2.4,1.7c-0.8,0.8-1.4,1.9-2.2,2.7
		c-6,6.4-11.7,13.1-21.3,14.4c-6.5,0.9-6.6,1.3-6.4,8c0.1,4.5-1.3,8.1-3.7,12c-3.7,6.3-9,10-15.2,13c-2.8,1.4-3.6,3-2.5,6
		c1.2,3.1,1.9,6.4,2.9,9.6c0.8,2.5-0.7,3.7-2.5,4.8c-1.6,1-2.9,0.5-4-0.8c-7.3-8.6-14.9-17-20.7-26.8c-1.1-1.9-1.5-4.1-1.2-6.2
		c0.9-7.5,3.1-14.4,7.8-20.6c2.6-3.4,5.3-5.7,9.5-6.6c4.5-1.1,9-2.6,13.3-4.4c12-4.5,10.1-1.7,10.2-16.1c0-0.2,0-0.3,0-0.5
		c0.2-2-1.1-3.9-3-4.6c-2.3-0.9-3.2,0.7-4.5,2.1c-5.1,5.7-8.9,12.7-16.5,16.2c-6.8,3.2-6.5,3.8-12.2-0.7c-0.7-0.7-1.5-1.4-2.2-2
		c-3.2-2-5.8-4.9-10.1-5.7c-0.6,2.4-1.1,4.7-1.8,6.9c-0.9,2.8-0.6,6.4-2.6,8.5c-3.3,3.5-7.8,5.6-12.1,7.8c-2.8,1.5-5.6-0.7-8-2
		c-4-2.2-6.9-1-9.8,1.7c-1.5,1.4-2.9,2.9-5.1,2.6V696c0.9,0.7,1.8,1.5,2.5,2.3c3.3,4,3.3,4,7.5,1.2c3.2-2.1,6.3-4.3,9.4-6.6
		c1.6-1.2,3.6-1.6,5.6-1.3c7.3,0.8,13.7,2.7,19.5,7.8c6.3,5.6,13,10.8,17.3,18.8c-7.7,8.6-16.3,16.1-24.9,23.7
		c-8.9,7.9-18.6,15.2-20.4,28.4c-0.7,5.4-0.8,10.8-0.1,16.1c7.8-6.6,15.3-11.2,18.2-20.6c3.2-10.4,8.8-19.9,17.6-26.6
		c13-9.9,26.2-19.5,37.3-31.5c1.1-1.2,2.6-2.2,4.2-2.6c5.1-1.5,10.2-3.2,15.4-4.2c7.6-1.5,15.5-1.7,22.4-6.2
		c5.1-3.4,10.5-4.6,16.6-3c3.8,1,7-0.2,9.9-3.9c3.7-4.6,6.4-10,7.9-15.8c1-4.1,1.5-7.8-1.4-11.3c-1.6-2-1.6-4,0.2-6.3
		c4.2-4.9,7.8-10.5,12.9-14.5c7.7-6,10.1-13.3,9.6-23c-0.5-9.4,0.8-19,10.1-25c0.6-0.5,1.2-1.1,1.8-1.7c3.5-3.3,7.6-6,12-7.9
		c6.7-2.8,13.4-5.9,20.6-7.6c4-0.9,7.3-3.1,10.5-5.6c5.9-4.7,11.8-9.3,19.6-10.3c0.9-0.1,1.7-0.8,1.9-1.7c-1.3-3.5-4.9-5.9-6.5-9.8
		c5.8-5,13-8.5,15.9-16.2c0.7-1.7,1.6-3.3,2.6-4.8c5.4-8.2,10.2-17.1,22.3-15.8c0.2,0,0.3-0.1,0.5-0.1c6.4-0.6,11.8,2,17.4,4.3
		c-0.4,1-0.4,1.6-0.8,1.9c-7.3,6.4-14,12.4-23.6,13.4c-2.4,0.2-5,0.8-6.1,3.6c-2.2,5.7-5.1,11.2-6.3,17.3s-1.1,6.5,4.7,8
		c7.6,1.9,14.8,5,22.2,7.6c1.7,0.6,3.8,1.2,3.9,3.4c0.3,4.1,1.2,8.5-0.6,12.3c-2.5,5.6-5.6,11-9.2,16c-5.5,7.3-9.4,14.9-10.8,24.2
		c-1.8,11.7-8.4,21.5-14.4,31.5c-5.9,9.8-10.7,20-9.8,31.9c0.2,3.2-0.9,6.3-3.1,8.7c-2.4,2.8-5,5.4-7,8.4c-1.8,2.6-3.9,3.1-6.8,3.2
		c-13.2,0.5-26.1-2.2-39.1-4.3c-1.3-0.2-3-0.7-3.6-1.6c-3.2-5.3-7.8-10-7.6-17c0.1-3.5,0.8-7.2-0.7-10.7c-7.8,1.2-9.2,2.8-9.2,9.7
		c0,1.5-0.1,3,0,4.5c0.2,2.8-0.8,5.6-2.8,7.7c-4,4.6-7.9,9.5-11.4,14.5c-2.9,4.1-6,8-9.1,11.9c-9.1,11.6-19,22.8-23.5,37.3
		c-1.1,3.6-1.5,6.8,0,10.1c2.1,4.7,3.3,9.2,2,14.5c-0.9,3.4,3.8,6.6,6.5,4.5c3.6-2.8,7.5-5.5,9.2-10.2l0.2-0.2l0,0.2
		c-2.9,0.1-5.1,3.3-8.3,2.3c-1.8-8.1-0.5-20.9,3.2-30c2.3-5.7,3.9-11.9,8-16.5c6.7-7.6,14.1-14.4,23.4-19.1
		c6.3-3.2,11.6-1.4,17.5,0.2c-0.4,2.6-2.3,2.9-3.7,3.6c-5.1,2.5-10.1,5.4-15.4,7c-6.6,2-9.2,6.4-11.6,12.3c-2.7,6.6-1.9,12.5,1,19.2
		c3.6-3.7,5.5-8,8.4-11.5c5.9-7.1,12.7-13.5,22-15.4c7.5-1.4,14.4-5.2,19.7-10.7c2.1-2.2,4.3-2.6,7.2-1.8c6.2,1.8,12.5,3.5,17.7,7.8
		c1,1,2.5,1.4,3.8,1c9.3-11.2,17.1-23.6,25.7-35.5c5.4-7.5,9.7-15.3,12-24.4c1.8-7.1,2.3-14.5,4.6-21.4c3.2-9.6,6.5-19.4,7.5-29.5
		c1.1-10.6,5.4-18.8,13.6-25.4c2.9-2.3,5.6-4.5,9.4-5.3c6.8-1.5,13.6-3.4,20.4-5c5.9-1.4,8-6.2,10.6-10.3c-0.9-1.4-1.8-1.3-2.5-1.5
		c-7.2-1.9-14.6-1-21.8-1.8c-11.8-1.2-22.7-4.7-33.6-8.8c-2.6-1-3.7-2.5-3.6-5.2c0.3-13.7-1.9-11,10.9-16.2
		c11.1-4.5,21.8-9.9,28.2-21c2.1-3.6,5.4-6.4,7.3-10.1c3.7-7.1,8.9-8.1,16.3-6.5c9.7,2.1,18.8-1,27.2-7c-5.7-1.6-11.3-0.4-16.1-2.7
		c-9.4-4.6-19.5-7.8-29.9-9.5c-4-0.5-7.7-2.2-10.7-4.9c-4.6-4.4-10.6-7.5-11.9-14.7c-1.2-6.7-3.8-13.1-4.7-19.9
		c-1-7.6-4.2-14.5-7.4-21.9c-4.8,4.4-7.6,8.3-4.8,14.4c1.3,2.7,2.1,5.6,2.1,8.6c-3.6,2.5-8-2.2-11.4,1.4
		c4.3,8.3,10.7,15.4,18.5,20.5c2.3,1.5,5,2.9,6.4,5.4c4.7,8.7,7.7,17.6,4.1,27.6c-0.8,2.2-1.7,3.4-3.8,4.1
		c-6.9,2.3-13.5,4.8-21.4,3.3c-4.6-0.8-7.1-2.3-9.1-6.2c-2.9-5.5-6.3-10.6-10.4-15.2c-5.5-6.5-9-14-8.4-22.8
		c0.7-8.3,3.8-16.3,8.9-22.9c6.2-8.4,5-17.7,2-26.6c-2.9-8-6.7-15.6-11.5-22.6c-1.7-2.6-1.5-5-0.7-8c2.5-9.5,8.5-16.8,14.7-23.9
		c1.6-1.8,3-2,5.2-0.9c6.2,3.2,10.3,8.1,13.4,14.2c2.9,5.7,5,6,10.4,2.4c0-0.3,0.1-0.8,0-1c-0.6-1-1.3-1.9-2.1-2.8
		c-10.2-11.6-15.5-24.8-14.6-40.6c0.6-10.3,0.4-20.6-1.8-30.8c-2.1-10.1-2.5-20.2,3.2-29.5c0.5-1,0.9-2.2,1.1-3.3
		c0.4-1.3-0.1-2.1-1-3.1c-4.6-4.5-7.1-4.8-12.1-1c-1.4,0.9-2.7,2-3.8,3.2c-5.3,6.3-11.4,8.6-19.3,5.1c-9.2-4-18.6-7.5-19-19.9
		c-0.2-6.9-0.4-13.8,0-20.4c3.2-1.3,5,0.3,6.9,1.1c12.2,5.1,23.6,4.2,34.3-3.8c2.9-2.2,6-4.3,9.1-6.1c5.6-3.1,10.6-7,17.3-8.4
		c7-1.5,10.9,0,13.6,6.4c1.8,4.2,5.4,7.7,4.6,12.9c-0.9,5.5,1.2,9.9,4.6,14.2c2.7,3.4,5.2,5.9,9.9,4c1.2-0.7,2.8-0.7,4,0
		c1.1,8.2,2.5,16.5,3.4,24.9c0.3,3,1.5,4.4,4.4,5.1c5,1.2,9.1,3.9,11.7,8.6c1,1.8,1.8,3.9,4.3,4.9c5.8-7.3,10.7-15.4,14.3-24
		c0.3-0.6,0.4-1.3,0.3-1.9c-1.8-6.6-2-14-7.7-19s-11.4-10.1-19-12.5c-5.7-1.8-5.8-2.5-4.4-8.4c1-3.9,2-7.8-0.3-11.6
		c-3.9-6.3-5.9-13-3.6-20.4c0.1-0.5,0.1-1,0.1-1.5c0.2-2.5-0.7-3.7-3.5-4.3c-7.3-1.6-14.2-0.5-21.2,1.5c-8.4,2.3-14-3.8-20.5-7
		c-0.5-0.3-0.7-1.4-0.9-2.2c-2-7.7-4.6-15.3-3.9-23.5c0.1-1.7,0.6-3.7-1.4-5.4c-3,1-6.1,2-9.2,3.1c-1.9,0.7-3.5,0.8-4.8-1.1
		c-4.9-7.4-11.2-14-9.7-24.2c0.9-6.1,3.5-10.9,9.7-13.5c2,2.2,4.5,4.1,5.9,6.6c3,5.3,7.5,5.7,12.5,4.3c3.9-1.1,6.4,0.2,8.1,3.7
		c3.7,7.6,9.1,13.8,15.1,19.7c7.8,7.5,15.5,15.1,20.4,25c0.5,1,1.1,2.5,2.6,2.4c5.8-5.5,4.3-13,5.2-19.4c2-1,4.3-1,6.3,0
		c4.5,1.9,8.4,0.6,12.2-1.8c1.3-0.8,2.5-1.6,3.8-2.4c2.9-1.8,6.1-2.4,8.9-0.2c7.4,5.7,14,4.1,20.5-1.5c0.2-0.2,0.6-0.3,0.8-0.6
		c2.2-2.1,4.7-2,7.4-1.3c5.5,1.4,10.9,2.9,16.6,3.1c6.7,0.3,13,2,18.5,6.3c2.7,2.2,5.8,4.4,9.8,4.5c8.4,0.2,16.6,1.7,24.1,5.4
		c6,2.9,10.8,0,17-1.7c-5.7-6.8-11.8-12.3-14.1-20.6c1.9-1.1,4-1.8,6.1-2.3c5-1.3,10-2.8,13.3-7.2c5.1-6.9,11.6-12.3,17.9-18
		c2-1.8,3.7-2.3,6.2-1.6c7.2,2.1,14.6,3.6,22,4.6c2.2,0.3,4.3,1.1,5-2.2c0.9-5-0.1-7.8-3.4-8.3c-6.9-1-13.8-1.9-20.5-4
		c-7.3-2.2-14.1,1-21,2.2c-1.7,0.3-2.5,2.1-3.5,3.4c-5,6.5-5,6.5-12.7,3.3c-0.6-0.2-1.2-0.3-1.7-0.4c-1.2,0.8-1.2,1.8-1.4,2.8
		c-1.9,7.1-4.5,13.9-7,20.8c-2.3,6.3-6.6,8.5-12.4,9.9c-3.9,1-7.5,2-11.5-0.1c-4.7-2.5-9.7-4.2-15.2-4.1c-8.8,0.2-15.9-3.5-21-10.9
		c3-3.8,8.7-5.1,10.6-9.4s1.1-9.3,0.2-14c-2.4-0.3-3.8,0.7-5.2,1.4c-6.1,3.2-12.5,5.4-18.9,7.9c-3.7,1.6-7.8,1.6-11.5,0.1
		c-5.4-2.1-10.9-3.8-16.5,0.3c-5,3.6-10.4,5.3-16.1,1.2c-0.6-0.3-1.3-0.4-1.9-0.5c-15.6-2.8-30.6-7.8-45.3-13.7
		c-7.8-3.1-15.9-5.5-23.1-10.5c-6.4-4.5-11.4-10.2-15.9-16.3c-2.5-3.3-5.4-4-8.6-3c-5.6,1.7-10.1-0.1-14.6-3c-2.5-1.6-5-3.3-8.2-3.7
		c-0.8,2.4-1.5,4.6-2.2,6.8c-1,2.4-0.1,5.2,2.1,6.6c4,2.9,7.6,6.4,11.9,9.1c8.3,5.2,8,5.2,6,15c-0.8,4-2.8,4.5-6,3.9
		c-2.9-0.6-5.8-1.5-8.8-0.1c-0.6,2.3,0.4,4.4,0.9,6.4c0.5,1.8,0.2,3.7-0.9,5.2c-6.1,9.5-14.4,17.2-25.4,19.6
		c-9.1,2.1-13.6,6.4-14.6,15.1c-0.1,0.7-0.4,1.3-0.5,1.9c-0.4,1.2,0.1,2.4,1.2,3c2.2,1.1,3.9,3.2,6.8,3.4c2.1-2.2,3-5,4.1-7.8
		c1.2-4,4.2-7.3,8-8.9c7.6-3.4,15-7.2,22.4-11.1c2.9-1.5,4.8-1.1,7.5,0.9c7.6,5.6,12.4,13.3,17.2,21.1c1.1,1.9,1.7,4,1.6,6.1
		c0,5.3-0.4,10.7,0.3,16c1,7.3,0.4,14.6,0.6,21.9c0.1,1.6-0.4,3-2.2,3.5c-5,1.4-10.1,2.9-15.2,2.6c-8.1-0.5-16.1-1.9-24.2-2.9
		c-4.3-0.5-7.9-2-9.8-6.4c-1.2-2.5-3.2-4.7-4.6-7.1c-1.2-2.2-3.3-3.9-5.8-4.4c-6.6-1.4-12.5-4.5-18.4-7.5c-1.2-0.6-2.3-1.4-3.7-0.9
		c-0.3,0.3-0.6,0.4-0.7,0.7c-0.5,1.2-1,2.5-1.4,3.7c-3.3,8.8-3.3,8.8-12.7,8.1c-0.8-0.1-1.7,0-2.5-0.1c-6.8-0.8-12-4.8-17.3-8.6
		c1.5-2.5,3.8-2.3,5.5-3.3c1.4-0.8,3.5-1.2,3.8-3c0.8-4.9,0.8-9.9-0.1-14.7c-2.8,1.2-5.5,2.7-7.8,4.7c-5.7,4.2-10.5,3.5-15.1-1.8
		c-2-2.3-3.3-5.4-6.4-6.9c-2.4,1.9-3.5,4.6-5.2,6.8c-1,1.3-2,2-3.8,1.1c-6.9-3.4-9-7.6-7.5-15.4c0.4-2.2,1-4.5-0.4-6.4
		c-9.8,0.6-12,9.2-16.7,15.6c-4.9-2.4-9.5-4.7-14-7.1c-0.6-0.4-1.1-0.9-1.4-1.5c-2-3.3-3.5-6.6-2.2-10.8c1.8-6,1.5-6.1-4.6-7.6
		c-1.9-0.5-3.9-0.9-5.8-1.4c-2.6-0.7-3.5-2.1-2.3-4.8s2.1-5.6,3.2-8.4c0.7-1.7,1-3.4-0.9-4.4c-4-2.1-7.9-4.7-12.6-5.9
		c-0.3,0.7-0.5,1.5-0.6,2.3c1.1,13.6-3.2,26.7-3.9,40.1c-0.2,3.9-1.2,8.2,1.3,11.7c2.2,3.1,2.7,6.3,2.6,9.9
		c-0.1,4.2-0.6,8.3-0.8,12.4s-1.9,6-5.5,7.1c-3.2,1-6.7,1.8-9.3,4.2c1.9,2.8,5.2,3.4,7.6,6.1c-2.3,6.3-4.2,13-9,18.3
		c-4.4,4.8-10,8.5-13.2,14.2c-3.9,6.8-7.6,13.6-12.7,19.7c-0.6,0.8-2,1.5-0.8,3.3c13.2-8.4,26-17.2,36-29.5c7.9-9.7,17-18.3,29.5-22
		c2.7-0.8,4.4-2.2,4.7-5.1c0.7-5.5,3.9-8.9,9.1-10.6c1.4-0.6,2.7-1.2,4-2c6.8-3.5,14.7-4.6,22.2-2.9c7.4,1.7,14.8,2.9,22.1,0.9
		c4.1-1.1,6.3,0.7,8.5,3.3c6.1,6.9,6.1,6.9,1.5,14.8c-3.6,6.1-15.5,9.6-22.1,6.6c-3.3-1.5-6.2-3.9-10-4.2c-2.8,2.8-3.6,6.5-5,9.8
		c-1.2,3.3-4.1,5.8-7.6,6.4c-6,1.3-12,2.5-17.6,5.5c-6.2,3.4-6.7,4-5.4,10.9c0.7,3.9,1,7.9-0.3,11.8c-2.6,7.9-5.8,15.3-11.2,21.7
		c-3.3,4-3.6,8.5-2.6,13.2s0.9,9.7-0.4,14.3c-3.2,11.6-2.3,23.4-1.3,35.2c0.3,3.9,0.5,7.5-2.2,10.9c-10,12.4-20.8,24.2-32.3,35.3
		c-1.3,1.5-3,2.7-4.9,3.4c-7.7,2.5-15.3,3.8-23.3,0.7c-2.8-1.1-4-2.2-4.1-5.2c-0.1-6.8,0.5-13.6,1.6-20.4c1.2-8-0.2-15.6-2.3-23.6
		c-4,2.2-5.9,5.8-9.2,7.8v-62c6.9-5.2,11-12.3,13.6-20.3c0.4-1.4,0.6-2.8-0.7-3.6c-4.1-2.8-7.7-6.3-12.9-7.1V136
		c2.1,1.9,2.2,4.8,3.5,7.1c0.7,1.3,0.8,3,2.3,3.7c6.6,3.1,12.3,7.9,19.8,8.9s14.8,1.8,21-4.3c-3.8-2.2-8.1-1.5-12.1-2.2
		c-9.8-1.7-19.6-2.9-26.7-11.4c-2-2.5-4.8-4.3-7.9-4.9V4c1.4,1.7,0.9,3.8,1.7,5.7c0.5,1,0.3,2.7,1.4,3.1c5.6,1.9,10.5,5.8,17,4.8
		c7.7-1.2,15.3-3.1,22.9-5c3-0.8,6-1,8.6,1c6.3,4.6,13.6,6.8,20.6,10c8.6,3.8,14.7,10.5,16.6,20.1c0.4,1.8,0.6,3.6,0.9,5.4
		c0.6,2.8-0.2,4.7-2.9,6.1c-2.9,1.4-6.2,2.3-8.3,4.7c0.2,1.1,1,2.1,2.1,2.4c5.2,2.1,8.7,6.2,12.1,10.2c8.3,9.5,8.2,10.4,2.4,21.2
		c-2.7,4.9-1.9,7.6,3.2,10.8c1.6-0.7,2.4-2.4,3.2-3.8c3.8-6.8,8.5-11.8,17.4-9.8c1.6,0.4,3.4,0.1,4.2-1.9c2.3-6,6-11.8,4.8-18.6
		c-1.4-8.2-0.7-16.2,0.9-24.2c1.1-5.8-2.1-10.6-4.9-16.5c-2.5,8.7-4.2,17.6-4.9,26.7c-0.5,5.5-2.6,10.5-5.1,16.1
		c-3.6-3.4-6.1-6.6-6.9-10.8c-1.4-8.5-3.3-17-5.4-25.4c-0.6-2.6-2-4.9-4.1-6.5c-6.9-5.3-14-10.2-21.4-14.7C65.3,8.4,54,3.7,40.8,4.9
		C35.7,5.4,31.2,2.9,27,0h164c3.1,5,6.8,9.6,11,13.8c2.7-9.7,2.7-9.7-5.3-13.1c-0.3-0.2-0.5-0.4-0.7-0.6h90c-0.5,5-1.7,9.8-3.5,14.5
		c-4.2,0.8-7-3.4-10.5-1.8c-3.5,1.5-6.6,3.9-8.9,7c3.5,1.9,5.6,4.9,8.5,7.1c1.1,0.8,2.4,1.6,2.2,3.1c-0.5,4.5-1.2,9.1-3.9,13.5
		c-4.9-2.8-8.7-6.2-12.6-9.5c-7.3-6.3-14.6-12.7-24.3-15l-0.2-0.2L233,19c0.1,1.9,1.4,3,2.6,4.1c9.2,8.8,17.2,18.8,25.5,28.5
		c3.6,4.2,7.3,6.6,12.9,4c1.2-0.5,2.5-0.9,3.9-1c3.9-0.5,6.4-2.7,8.6-6c5-7.4,9.6-15.1,14.1-22.8c1.3-2.1,1.5-4.7,0.5-7
		c-2.4-6.4-6.2-12.2-7.9-18.8h47c9.2,13.6,18.3,27.5,34,35c3.4-4.7,4.6-9.5,6.6-13.8c-0.9-1.4-2.5-2.3-4.1-2.2
		c-6.9-0.4-12.1-3.4-15.7-9.6c-2.8-4.8-6.1-9.5-12.7-9.4h37c-0.2,2.3,1.4,4.1,1.8,6.2c1.5,7.6,5.6,12,13.6,12.5
		c5.2,0.3,7.4,4.2,8.9,8.4c-3.5,3.4-8.6,0.3-11.9,3.7c0.1,0.6,0,1.2,0.3,1.5c4,5.7,8,11.5,12,17.2c0.6,1,1.8,1.5,3,1.4
		c9.3-1.2,17.6-4.3,24.1-12c-2.6-3.2-5.8-5.5-8.9-7.9c-2.2-1.7-3.8-3.5-4.1-6.5c-0.7-8.3-3.6-16.3-8.4-23.1C415.2,1,415.1,0.5,415,0
		h32c2.7,4.5,7.2,7.2,11.3,10.1c2.6,1.8,3.8-0.9,5-2.6c1.3-1.8,0.1-2.9-1.6-3.8C458.8,2.4,455.6,2,453,0h30
		c-0.9,6.8,1.1,13.7,5.5,19c3,3.7,5.2,8.1,7.6,12.3c1.1,2,2.5,3.1,4.8,2.5c6.3-1.5,12.8-2.1,19.3-1.8c1.4,0.3,2.8-0.3,3.6-1.5
		c-1.8-4.4-2.7-9.6-5.9-14.2c-2.3,1.7-4.2,3.1-6.3,4.6c-2.2,1.7-5.2,1.9-7.5,0.5c-2.1-1.3-0.6-3.6-0.2-5.5c0.2-1.1,0.5-2.3,0.8-3.4
		c0.7-2.7,0.2-4.8-2.2-6.5s-5-4-7.5-6h105c0.5,4,2.4,7.6,3.8,11.3c1.7,4.7,3,5.4,7.8,4.5c1.7-0.3,3.7-0.4,5.2-2.2
		C614.9,8.7,610.9,5,609,0h61v110c-3.5,0.3-5.5-3.6-9.4-3.2c-0.9,3.5-1.7,7.3,0.5,10.4C663.5,120.8,666.1,124.6,670,127z M44,34
		l0.1,0.2L44,34c-1.3-5-4.4-8.3-8.4-10.8c-1,0.7-1.8,1.7-2.1,2.9c-1.9,4.4-1.7,4.7,2.9,6.1C38.9,33,41.3,34.1,44,34z M203,49
		l-0.2-0.2L203,49c0.1,1.9,1.3,3,2.8,3.9c5.4,3.3,8,8.1,8.2,14.4c0.2,5,2.4,9.1,5.2,13.2c4.9,7.2,10.9,13.3,17.1,19.3
		c0.8,0.8,1.5,1.9,3.4,1.2c0.6-3,0.4-6.1-0.5-9c-2.7-8.4-5.5-16.7-6.7-25.4c-0.5-3.5-2-5.3-5.4-6.1c-7.7-1.9-14.5-5.6-21-10
		C205.2,49.7,204.1,49.2,203,49z M661,342c-1-3.8-4.5-5.6-6.3-8.8c-2.9-5-7.7-7.6-12.8-9.9c-2.1-1-3.7-1.4-5.9,0.3s-5,2.7-7.5,1.4
		c-4.2-2.3-8.6-4.6-11.8-8.2c-5.4-6.2-9.9-12.9-10.8-21.5c-0.6-6.1-4.9-8.5-10.6-10.1c-2.6,4.2-7.2,7.3-8,12.4
		c-1.3,7.6-1.1,15,7.3,19.1c0.3,0.2,0.6,0.3,0.8,0.5c5.5,4,10.4,8.8,15.5,13.3c3.3,2.9,2.3,6.9,1.8,10.4c-0.5,3.2-4.1,2.4-6.3,2.8
		c-3.4,0.6-7.1-0.1-10.4,0.6c-4.7,1.1-9.7,0.7-14.2-1.3c-7.5-3.4-15.6-4.6-23.6-5.9c-4.5-0.7-8.9-1.9-14.7-1.5
		c5.8,5.9,10.8,11,17.7,13.9c7,3,14.2,5.7,21.5,8c8.1,2.7,17,2.2,24.8-1.2c8.7-3.9,16-3.5,23.7,1.3c0.1,0.1,0.3,0.2,0.5,0.2
		c6.2,2.7,12.9,4.1,19,6c5.6-7.4,2-14.9,1.5-22C655.6,340.2,658.2,342.5,661,342z M427.9,492.4c1.7,6.9,0.5,13.8,6.5,18.6
		c8,6.5,15.4,13.8,23.9,19.5c5.6,3.8,11,8.1,18.5,7.8c5.8-0.2,10.5,2.3,14,7.1c2.5,3.4,6.4,5.6,10.6,6c1.1,0.2,2.2,0.7,3.4,0.8
		c4.9,0.5,8.2,3.1,10.8,7.2c1.4,2.3,2.9,4.7,5.6,6.4c0.6-0.9,1-1.9,1.3-3c0.9-6.3,4.2-9.2,10.8-9.4c7.4-0.3,14.6-0.3,21.4,3.1
		c2.8,1.4,5.7,2.8,8.5,4.2c1.2,0.6,2.6,1.6,3.7,0.5c2.9-2.7,6.8-4.2,8.5-7.7c0-1-0.4-1.9-1.1-2.6c-8.5-9.6-8.6-9.7-20.6-5.5
		c-6.9,2.4-12.7,0.7-18.2-3.4c-2.5-1.9-4.8-4-7.3-6s-5.1-3.1-8.7-2.1c-6.6,1.9-13.2,2.3-20-0.3s-9.7-8.2-13.3-13.5
		c-0.3-0.6-0.4-1.3-0.2-2c1-7.5,1-15.2,9.9-18.9c3.6-1.5,6.6-2.5,10.4-1.6c3.2,0.8,6.3,2.2,10.1,1.9c0.8-3.6,0.3-7.3,0.5-10.9
		c0.4-7.5,0.8-15.1,8.9-19c0.1-0.1,0.2-0.2,0.4-0.3c3.9-3.5,10.4-4.6,14.7-2.1c7.5,4.3,15,8.6,20,16.2c1.1,1.5,2.4,2.8,3.8,4
		c1,1,2.1,1.6,3.6,1c4.3-2,8.4-4.4,12.3-7.1c-1.9-3.8-4.5-5-8.2-5.2c-11.9-0.6-11.9-0.7-18.8-10.5c-2.8-3.9-6.3-7.3-10.3-9.9
		c-4-2.7-8.3-5-10.7-9.5c-2.3-4.5-6.2-7.9-10.9-9.7c-5.2-2.1-9.3-5.4-13.3-9.4c-5.3-5.2-5.6-10-1.5-16c3.6-5.3,2-11.4,1.7-17.5
		c-3.7,0.7-6.2,2.4-8.8,3.7c-5.7,2.9-11.7,4.7-17.8,6.4c-2.4,0.9-5.1,0.1-6.8-1.8c-3.4-3.7-6.9-7.2-10.6-10.5
		c-4.4-3.7-8.1-8.5-13.4-11c-5.9-2.7-11.3-5.6-12.4-12.9c0-0.2-0.5-0.3-0.8-0.5c-0.3,0.1-0.7,0.2-0.8,0.4c-0.6,1-1.2,2-1.7,3
		c-4,6.9-4.5,13.2-0.7,21c3.7,7.5,10.1,9.8,16.1,13.5c2.9-3.3,1.7-7.7,4.9-10.4c0.6,0.2,1.2,0.4,1.8,0.7c5.8,4,10.6,9.1,14.3,15.1
		c1.7,2.9,3.6,4.1,7.3,3.2s7.4-1.9,11.2-1.7c2.2,4.7,2.4,8.9-0.7,13.3s-5.8,9-8.6,13.5c-0.5,0.9-2,1.5-0.9,3.1
		c2.6-0.7,5-1.8,7.2-3.3c4.3-2.5,9.3-3.7,14.3-3.4c7.5,0.3,6.8,0.4,10.4,6.8c3.8,6.8,1.7,11.2-3,16c-2.4,2.4-5.5,4.8-5.8,8.5
		c-0.2,3.3-1.3,6.6-1.1,9.9c0.1,2.6-1,4.3-3.2,5.7c-5.3,3.5-10.2,7.5-15.7,10.6c-4.8,2.8-7.1,6.2-6.1,11.7c1,6-1,10.7-5.9,14.3
		c-0.7,0.5-1.3,1.1-1.8,1.8c-2.3,3-4.5,2.6-7.7,0.8c-10.8-6.4-18.8-15.9-27.6-24.4C432.5,495.1,431.4,493.1,427.9,492.4z M448,286.6
		c2.2-7.6,1.6-9.4-4.9-12.5c-4.2-2-8.6-3.6-12.7-5.8c-5.6-3-11.2-3.7-17.2-1.6c-2,0.7-4.2,0.5-6.6,0.8c-3.4-7.4-4.1-16.8-14-19.8
		c-0.2,0.9-0.4,1.5-0.5,2.1c-1.9,13-5.7,25.7-11.3,37.6c-1.1,2.3-1.4,5.8-4.4,6.3c-4.7,0.8-9.4,2.1-14.3,0.9
		c-3.7-0.9-7.5-1.4-11.3-2.1c-1.6-0.3-3-0.3-4,1.2c-1.7,2.4-3.5,4.7-4,7.8c6.4,1.8,12.8,1.5,19,2.5c11.6,2,22,5.3,25.3,18.5
		c0.2,0.6,0.5,1.2,0.7,1.9c0.3,1.7,1.9,2.8,3.6,2.5h0.1c4.1-0.5,8.5-0.9,11-4.9c4-6.7,10.3-9.3,17.5-11.3c9.4-2.5,18.3-3.2,26.9,2.1
		c1.9,1.1,3.9,2,5.8,2.9c1.2,0.6,2.4,1.2,3.8,0.5c3-1.6,6.4-2.7,9.1-4.9c-6.6-7.6-14.1-12.2-23.5-13.1c-8.9-0.8-12.3-7.8-18.3-13.5
		C432.7,282.6,440.3,286.5,448,286.6z M399.5,608c-0.7-0.6-1.5-1-2.4-1c-8.4-1.8-16.9-0.8-25.4-1c-5.8-0.1-11.3-0.8-15.1-5.9
		c-0.6-1-1.7-1.7-3-1.6c-1.1,0.4-2,1.2-2.7,2.2c-4.5,5.5-8.9,11.2-13.7,16.5c-9.2,10.2-14,22.1-15.5,35.9c-1,9.8-2.5,19.8-7.6,28.7
		c-1,1.7-2,3.5-1.3,5.6c7.4,1.7,8,1.2,11.5-4.8c4-6.8,7.3-13.9,9.9-21.2c0.8-2.4,2.5-4.3,4.6-5.6c3.7-2.2,7.6-4.2,11-6.8
		c6.5-4.8,14.4-8.2,18.6-15.5c4-7.3,10.5-13,18.3-16C391.8,615.6,395.8,612.1,399.5,608z M612.4,605.8c-2.8-6.2-6.2-11.2-14.4-11
		c-4.6,0.1-9-1.5-13.1-4.2c-5.3-3.5-10.8-6.7-16.4-9.5c-2.5-1.2-4.4-1-6.2,1.1c-2.2,2.5-4.4,5-6.5,7.5c-2,2.8-5.6,4-8.9,2.9
		c-5.2-1.3-10.7-1-15.7,0.8c-6.7,2.5-12.9,2.4-18.8-1.8c-1.7-1.2-3.8-2.2-6.1-1.2c-8.8,3.8-17.1,8.3-23.5,15.5
		c-3,3.4-4.2,7.7-5.2,12.5c4-0.2,7.8-1.1,11.5-2.6c4.3-1.6,2-7.2,5.4-9.7c1.9,0.2,3.9,0.4,5.9,0.7c4.3,0.7,5.2,1.9,4.8,6.5
		c-0.2,2.3-1.1,4.5-0.9,6.9c0.1,1.8,0.4,3.5,2.3,4c2.5,0.6,5,1.7,8.1,1c0.5-2,1-4.1,1.4-6.2c0.4-2.1,0.8-4.2,1-6.4
		c0.1-1.9,1.3-3.5,3-4.3c2.5-1.3,4.9-2.8,7.4-4.2c6-3.2,10.2-1.6,13.2,5.2c-2.3,3.4-5.7,6.2-7.3,10.2c2,2.1,4.5,2.1,6.7,2.7
		c5.9,1.7,6.1,1.8,8.7-3.8c3.3-6.9,8.6-12.2,13.2-18c2.1-2.5,4.4-3.2,7.5-1.6c3.6,1.8,7.2,3.8,11,4.6c9.4,2,19.1,2.2,28.7,3.3
		C610.1,607.1,611.3,607.3,612.4,605.8L612.4,605.8z M568.5,716.3c-3,3.7-6.1,6.8-8.4,10.3s-5.5,4.8-9.5,5.6
		c-3.5,0.7-7.5,0.4-10.6,2.5c-9.8,6.7-17.6,14.9-21.4,26.6c-3.4,10.3-7.4,20.3-15.4,28.2c-2.1,2-3.8,4.6-5.9,6.7
		c-1.2,1.2-2.4,2.5-2.2,4.3c0.3,4.6,1.4,9.2,3.1,13.5c3.5-5,6.6-10.1,9.5-15.4c4-7.7,8-15.2,15.9-19.9c3.9-2.3,7-5.7,8.8-9.9
		c3.5-8.2,9.5-14.2,16.6-19.4c5.5-4.3,11.4-8.1,17.6-11.3c5.7,8.8,8.2,18.3,10.5,28.2c4.7-16.7,15.2-30.2,22.7-45.3
		c-2.6-1.5-5-0.9-7.2-1C584.4,720,576,722.5,568.5,716.3z M607.3,159.6c-1.7-1.8-1.2-3-1.3-4.1c-0.3-4.9,2.7-8.9,3.8-13.3
		c1.2-5,3.9-8.4,9.4-8.6c7.3-0.4,11.4-4.4,13.2-11.2c0.2-0.8,0.6-1.6,0.8-2.3c0.7-1.9,2-3.5,3.8-4.4c11-6.7,11-6.7,6.5-18.7
		c-0.1-0.2-0.1-0.3-0.2-0.5c-0.3-2-2-3.6-4-3.9c-2.1-0.4-2.7,1.6-3.7,2.8c-4.8,6.6-8.7,13.8-11.6,21.4c-0.5,1.8-1.6,3.3-3.1,4.4
		c-8,5.6-16.3,10.4-26.5,9.9c-3.2-0.1-4.9,1.3-5.9,4.1c-3.8,10.8-4.4,21.4,1.4,31.7c1.1,2,1.5,4.6,4.2,5.3c4.2,1.1,8.3,2.4,12.6,2.6
		c1.3,0.1,1.9-1.1,2.6-2.1c5-7.4,10.1-14.9,15.2-22.3c0.9-1.2,1.9-2.5,1-4.1c-1.5-2.7-2.7-5.6-5.5-8.1
		C615,144.8,610.2,151.2,607.3,159.6L607.3,159.6z M22.3,329.9c1.7,1.1,2.9,0.2,4.1-0.2c7.7-2.1,15-5.7,21.4-10.5
		c4.5-3.3,4.4-3.1,2.8-8.4c-2.8-8.9-4.2-17.3,3.1-25.6c6.8-7.7,10.7-17.2,9.4-28c-0.1-2,0.2-4,1.1-5.9c2.9-7.4,5.9-14.9,8.9-22.3
		c0.7-1.8,1.8-3.5,1.2-5.5c-2.6-1-3.6,0.6-4.7,2.1c-6.3,8.8-13.1,17.3-18.8,26.4c-4,6.4-7.5,13.2-8.1,21.2
		c-0.3,3.8-0.1,7.9-2.1,11.7c-4,7.5-7.7,15.1-11.1,22.9C26.3,314.9,23.9,322.3,22.3,329.9L22.3,329.9z M396.9,622.6l-0.8,1
		c3.5,5.5,5.8,11.9,14,13c4.7,0.6,9.5,1.7,13.3,5.2c6.6,5.9,14,10.7,22.7,13c3.5,1,6.6,3.2,8.7,6.3c2.6,3.6,4.6,7.7,8.2,10.5
		c0.6-0.3,1.3-0.7,1.8-1.1c6.8-6.5,14.1-12.1,23.5-14.4c4.2-1,8.2-2.8,12.3-4.3c3.3-1.1,6.2-3.3,8-6.3c-5.4-1.1-10.2-2.2-15.3-1.1
		c-8.7,1.9-17.2,4-23.8,10.5c-2.1,2.1-4.6,2.3-7.1,0.3c-2.2-1.7-4.6-3.3-7.1-4.7c-2.9-1.7-3.6-4-2.9-7.2s1.6-6.3,1.2-9.4
		c-0.7-0.4-1.6-0.3-2.2,0.2c-1.1,0.7-2.2,1.5-3.2,2.3c-0.9,0.9-2,1.7-3.2,2.3c-10.3,4-15.3,2.5-22.3-6.4c-2.9-3.6-5.7-7.5-10.9-8
		C406.7,623.9,401.8,623.2,396.9,622.6z M363.5,369.9c-0.4-1.5-1.5-2.2-2.2-3.1c-4.4-5.8-10.4-10.3-13.2-17.3
		c-1-2.5-2.2-4.8-3.6-7.1c-1.3-2.3-7.1-5-9-4c-2.8,1.4-1.7,4.2-1.6,6.3c0.6,8.4-2.5,16-4.2,23.9c-0.2,0.8-0.6,1.6-1.2,2.1
		c-6.3,6-11.3,13.7-20.5,16.1c-1.1,0.3-2.3,0.6-2.7,2c-0.2,1.1,0.6,1.9,1.1,2.7c3,4.8,2.9,4.5,8.4,3.4c7.5-1.6,13.4-5.2,17.7-11.7
		c2.4-4,6.9-6.5,11.6-6.4C351.1,376.7,358.2,375.8,363.5,369.9z M635.5,652.2c-2,1.2-3.7,0.7-5.3,0.4c-8.7-1.6-8.7-1.4-10.6,6.9
		c-1.3,5.5,0.3,9.6,4,13.5c2.7,2.8,5.4,5.9,6.6,9.8c2.3,7.7,6.3,14.6,9.4,22c0.5,1.3,0.9,2.9,3,3.5c2.4-2.6,6.5-3.6,8.1-8.1
		c-6-2-5.8-6.8-5.8-11.9c0-4.5,0.9-8.9,2.7-13c4.1-10,3.9-10.1-3.5-17.8c-1.2-1.3-3.1-2.4-2.7-4.5c0.5-2.4,0.7-4.5-1.7-6.1
		c-2-1.3-3.7-3.2-6.5-3.7C633.1,646.7,635.3,649.1,635.5,652.2L635.5,652.2z M458.5,260c1,0.8,2.2,1.2,3.5,1
		c7.7-0.4,15.2-1.3,21.6-6.1c3.9-2.9,7.9-3.7,12.4-0.9c2.7,1.6,5.5,3.8,9.1,3.6c1.9-4.2,1.3-8.9,3.7-13.1c5.2,1.5,8.9,6,14.2,7.1
		c1.6-3,1.9-6.2,2.7-9.2c0.4-1.1,0.1-2.4-0.7-3.3c-4.9-4.9-8.8-10.9-16-13.1c-2.3-0.7-4.2-0.7-6.1,0.7c-6.3,4.9-13,9.4-18.8,14.8
		s-11.8,9.6-19.6,10.9C460.6,253,458.1,255.2,458.5,260z M3,49.2c0.1,1,0.1,2,0,3C2.3,57.5,4.5,62.7,8.7,66
		c4.6,3.4,11.2,3.4,16.8,2.4c4.1-0.8,7.9-3.4,11.6-5.6c2.8-1.6,5.5-9.3,4.1-11.5c-3.1-4.9-6.7-9.7-11.4-13c-5.8-4.3-11.6-6.1-19.2-2
		c-9,4.8-7.3,4.5-7.5,11.9C3,48.5,3,48.8,3,49.2z M421,196.4c3.1,9.2,7.4,18.1,12.5,26.3c2.1,3,2.7,6.8,1.4,10.3
		c-1.1,3.3-2.8,6.6-2.3,10.4c8.5-1.1,13.4-6.5,18.1-12.5c1.7-2.2,2.5-4.1,1.8-6.8c-2.2-8.5-4.3-17.1-6.5-25.6
		c-1.2-4.7-4.6-7.7-8.2-11.4c-2,4.8-2.1,9.7-4.8,13.7C428.9,200.4,425.9,197.1,421,196.4z M477,317.2c1.1,1.6,2.3,1.5,3.5,1.7
		c12,1.9,22.6,5.7,26.5,18.9c0.4,1.1,0.9,2.1,1.6,3.1c0.5,1.1,1.5,1.9,2.6,2.2c4.6,1.2,9.2,2.7,13.9,3.3c0.1-0.4,0.2-0.8,0.2-1.3
		c0-0.3-0.1-0.7-0.3-0.9c-2.6-3.3-2.8-6-0.6-10.2c4-7.6,1.7-12.2-6.2-15.8c-4.4-2-8.9-3.6-13.4-5.4
		C494.6,308.9,485.8,312.1,477,317.2z M395.3,580.2c3.6,0.4,6.4-2.6,9.3-0.7c6.2,4.1,13.2,7.2,17.6,13.7c1.4,2,2.9,4.5,5.6,4.5
		c8.8,0.3,17.5-0.4,25-6.2c-1.9-2.1-4.5-1.9-6.7-2.1c-7.6-0.5-12.6-4.3-16.2-10.8c-1.2-2.3-2.4-4.9-5-6.1c-7-3.2-14.1-5.9-21.9-6.5
		c-1.9-0.2-3.7,0.1-4.4,2.4C397.6,572.2,395.9,575.8,395.3,580.2L395.3,580.2z M121.5,129.3c2.6,0.6,3.9-0.5,5.2-1.5
		c4.2-3.1,8.4-3.7,12.9-0.6c1.9,1.1,3.8,2.1,5.8,2.9c1.2,0.6,2.7,1.1,3.7-0.1c2.9-3.9,6.5-7.4,8.5-11.5c-3.9-7.2-8.6-2.3-12.8-0.8
		c-0.3-1.3,0.2-2.6,1.1-3.4c2.3-2.7,2-5.2,0-8.1c-4.6-6.7-4.5-6.8-12.4-4.8l-6.8,1.7c-1.5,0.4-3,0.8-3.4,2.5
		C121.5,113.4,120.2,121.2,121.5,129.3z M396.1,554.5c10-3.9,28.5-24,30.4-32.8c-4.4-2.5-5.5-2.4-8,1.6c-1.6,2.5-3.1,5.1-4.5,7.7
		s-3.5,3.8-6.8,4c-8.4,0.6-16.1-1.7-23.9-4.2c-5.5-1.7-10.1,0.8-14.9,2.6c2,5.7,5.3,8.5,10.9,8.7c6.2,0.2,11.1,2.8,13.8,8.8
		C393.7,552.5,394.8,553.7,396.1,554.5z M294.7,712c-3.9,4.7-7.4,9-10.9,13.4c-5,6.2-9.2,13.3-15.5,18.2c-5.5,4.4-9.5,9-10.3,16.1
		c-0.1,1-0.6,1.9-0.7,2.9c-0.5,4.6-0.9,9.3,0.4,14.5c6.7-6.5,12-12.7,14.2-21.1c1.2-4.5,3.7-8.6,7.3-11.6
		c6.5-5.8,12.1-12.4,16.6-19.8C299.5,718.4,299.6,718.5,294.7,712z M391.3,236c4.7-10.3,7.6-20,3.5-30.7c-1.2-3-2.5-4.8-5.6-5.2
		c-6.6-0.9-13-2.7-19.1-5.2c-1.9-0.8-3.9-2-6.5-1.2c-0.5,2.3-1.1,4.7-1.7,7.1c-1.4,5.9-1,6.3,4.9,7.5c4.5,0.9,9.4,0.8,12.7,4.8
		c4,4.9,8,9.7,8.9,16.3C388.6,231.8,389.6,234.1,391.3,236L391.3,236z M579.6,671.3c4.1-4.4,6.1-9.5,9.7-13.2
		c3.7-3.9,9.9-4.4,13.9-8.6c-1.9-3.1-3.8-5.9-5.2-8.8c-2.7-5.4-8.1-5-12.6-5.2c-3.5-0.2-3.2,4.4-4.5,6.8c-0.6,1-1,2.1-1.4,3.2
		c-0.9,3.1-2.5,3.8-5.6,2.5s-5.7-3.1-9.8-3.5C568.4,653.8,573.6,662.8,579.6,671.3z M588.3,87.7c4.1-0.6,6.9-3.4,10.2-5.2
		c1-0.7,1.5-1.8,1.4-3c0.1-6.2,0.5-12.3-2.7-18c-2.1-3.6-3.3-7.7-3.4-11.9c-0.2-7.2-2.3-14.2-6.2-20.2c-0.8-1.2-1.5-2.4-3.1-1.8
		c-1.3,0.5-1.4,1.8-1.4,3c0.2,6.3-0.5,12.6,0.7,18.9c2.2,11.1,4,22.3,3.3,33.7C587,84.5,586.7,86,588.3,87.7L588.3,87.7z
		 M193.7,43.7c0-1.2-0.6-2.3-1.6-3c-8.1-7.7-15.4-16.1-21.7-25.3c-2.9-4.1-8-5.3-12.9-7.1c-0.8,3.2-0.4,5.7-0.6,8.1
		c-0.3,3.6,0.9,6.1,4,8.4c8,5.7,15,12.6,22.3,19.1C187.5,47.6,189.3,47.7,193.7,43.7L193.7,43.7z M585.9,379.5
		c3.7-0.2,6.8-1.3,10-2.1s5.4-0.2,6.9,3c3.4,7.1,7.7,13.3,14.1,18.3c3.2,2.5,6.1,3.7,9.9,3.2c2.2-0.3,4.4-0.8,6.8-1.3
		c-1.2-1.7-2.9-2.1-4.3-2.7c-5.8-2.6-10.8-6.5-15.8-10.3c-1.4-0.9-2.4-2.3-2.6-4c-0.3-3.1-0.9-6.2-1-9.4s-1.4-4.3-4.2-5.1
		c-5.6-1.7-10.4,1.1-15.5,2.2C584.7,372.2,584.4,373.1,585.9,379.5z M626,818.8c6.4-5.1,10.1-11.2,10.8-19c0.2-1.8-0.9-2.7-2.3-3.5
		c-5.1-2.9-10.7-4.5-16.1-6.6c-1.3-0.5-2.6-0.6-3.5,0.7c-2.5,3.5-5.1,6.9-6.4,11.2c3.2,2.1,6.7,2.4,10,3.1c3.1,0.7,4.5,2.2,5.1,5.2
		C624.1,812.7,624.3,815.6,626,818.8z M166,89.7c0,5.5,0.3,10.7-0.1,15.8c-0.7,9.6,0.9,18.3,6.3,26.5c2.9,4.3,6.5,6.1,10.9,7.6
		c0.6-2.3-0.9-3.4-1.7-4.8c-3.8-6.4-7.7-12.7-6.6-20.9c0.7-5.1,0.1-10.3,0.1-15.5C175,91.7,174.2,90.8,166,89.7z M379.4,407.4
		c-2.1-3.7-4.1-7.1-6.1-10.6c-0.6-1.1-1.5-1.8-2.8-1.4s-1.5,1.7-1.4,2.9c0.2,2.1,0.6,4.3,1.1,6.4c0.8,2.8,0.5,5.9,3,8.2
		c3.2,2.9,6.1,6.1,9.2,9.1c1.1,1.1,2.2,2.2,3.9,1.8c4.1-1,8.3-1.9,12.4-3.9c-1-5.4-4.5-9.3-6.9-13.7c-0.7-1.2-2-0.6-3.2-0.4
		C385.6,406.2,382.8,407.4,379.4,407.4z M483.8,58.5c2.2-3.7,3.9-6.4,5.4-9.1c0.6-1.2,0.8-2.6,0.4-3.9c-2-8.2-3.6-9.5-12.2-9.5
		c-1.3,0-2.7-0.1-4,0c-5.4,0.5-9.6,3.5-14.1,7C469.9,44.2,477.1,50.3,483.8,58.5z M528.5,222.6c0.1,2,1.2,3.6,2,5.2s2.2,2.1,4.1,1.8
		c9.2-1.5,17.9-5.2,25.4-10.8c1.8-1.3,2.8-6.2,1.6-8.2c-1.8-2.9-4.1-1.3-6.1-0.3c-7.1,3.7-14.4,6.8-21.9,9.5
		C531.9,220.4,530,220.8,528.5,222.6L528.5,222.6z M636.4,420.1c3.8,0.7,6.6,1.3,9.3,1.8c3.4,0.6,5.2-0.8,5.9-4.2
		c1.4-7.5,3.7-14.8,7-21.7c2.3-4.8,0.9-8.8-1.8-13.1C652.6,396.3,644.7,407.7,636.4,420.1z M474.9,560c-2.7-3.6-5.8-6.9-9.2-9.7
		c-2.7-2.4-5.5-1.8-7.5,1.4c-2.1,3.4-4,6.9-6.1,10.3c-1.6,2.7-0.3,4.7,1.2,6.8c0.9,1.3,2,2.3,3.7,1.5
		C463.3,567.8,469.8,565.6,474.9,560z M653,885.2c1.8-7.3,4-14.2,8.5-20.4c-3.2,0.2-5.6,2.1-8.8,1.8c-2-3.5-2.2-7.5-3.4-11.3
		c-1.3-4.2-4.9-7.1-10.1-7.5C641.9,860.9,646.6,873.5,653,885.2z M389.7,705.4c-0.7,0-1.4,0.2-2,0.4c-10.2,5.8-18.5,14.4-23.9,24.8
		c-0.8,1.6-1.4,3.3,0.7,5.5c8.5-9.7,17.9-18,30.1-22.2C394,709.8,391.4,708.1,389.7,705.4z M418.5,445.1c4.4,9.1,7.5,18.9,9.1,28.9
		c4.9-8.1,9.1-22.5,8.6-28.4C430.6,444.4,424.8,445.7,418.5,445.1z M647.8,84.6c3.7-8.2,3.9-10.9,1.4-17c-1.6-3.7-7.7-6.8-11.8-5.4
		c-4.5,1.6-1.6,5.2-1.6,8c0,1.3,0.2,2.6,0.2,4c-0.1,1.2,0.4,2.3,1.3,3.1C640.8,79.8,643.7,82.8,647.8,84.6z M464.1,454.2
		c0.5,9.6,0.5,18.6-7.8,26.1c4.9,0.7,8.3,1.2,11.7,1.6c1.5,0.2,2.9,0.1,3.8-1.6C475.9,472,472.9,460.6,464.1,454.2z M438.9,55.2
		c-1.8,3.8-1.9,7.2-2.7,10.4c-0.3,1.1-0.3,2.6,0.7,3.3c3.9,2.7,6.4,7.2,11.6,8.7c2-4.3,5.4-7.7,6.3-12.6
		C449.7,61.5,444.8,57.9,438.9,55.2L438.9,55.2z M622.1,20.7c-0.1,4.1,8.3,28.3,10.5,30.6c2.2-1.9,3.3-4.5,5-6.8
		c1-1.5,1.3-3.4,0.8-5.2C636.3,30.5,630.1,25.4,622.1,20.7z M373.9,460.7c5.6-2.8,9.8-7.2,14.5-11c0.6-0.7,0.7-1.6,0.2-2.4
		c-1.3-2.8-2.2-5.8-4.9-8.2c-4.1,2.5-8,5-11.9,7.4c-1.4,0.7-2,2.4-1.4,3.8C371.6,453.6,371.8,457.2,373.9,460.7L373.9,460.7z
		 M494.6,730.8c5-2.6,6.9-7.3,10.4-10.6c0.6-0.6,0.7-1.6,0.2-2.3c-1.7-2.9-3.4-5.8-6.2-7.7c-1.8-1.2-3.4-1.2-4.5,1
		c-1.5,3.1-3.1,6.3-4.7,9.4c-0.8,1.5-0.5,3.4,0.6,4.7C491.6,727.1,493,728.7,494.6,730.8z M458.4,617c1.9-4.5,3.6-8.3,5.1-12.1
		c1.8-4.4,7.5-3.9,10.1-7.9c-4.3-2.1-8.8-3.7-13.4-4.8C453.3,601.9,452.9,607.3,458.4,617z M532.8,630.6c0,9.9,4.9,16.6,14.3,19.7
		c1.6-1,2-3,3.2-4.4c1.9-2.4,1.7-4.4-1-6.2c-3.3-2.2-6.3-4.9-9.6-7.2C537.8,631,535.3,630.3,532.8,630.6z M515.2,164.4
		c2.4-8.6,5.2-16.9-3.4-23.8c-2.1,1.9-2.9,4.5-4.3,6.8c-4.7,7.4-4.6,7.6,2.5,13.2C511.6,161.8,512.6,163.7,515.2,164.4z M503,69.5
		c-1.1,1.5-0.8,2.8-1,4.1c-0.2,1.5-0.5,2.9-0.7,4.4c-1,6-0.2,6.9,6,7c9.5,0,9.4,0.1,7.9-9.3c-0.4-2.8-1.5-4.2-4.2-4.7
		S505.9,69.4,503,69.5z M415,337.5c3.6,9.1,9.9,15.3,17.8,20c5.1-5.1,5.1-5.1,0.5-9.7c-1.9-1.9-3.8-3.8-5.7-5.6
		C424.1,338.8,419.6,338.1,415,337.5z M610.9,484c6.2-0.6,11.4-1.9,16.3-1.4s8.9,4.8,14.1,5.9c-1.6-8.4-12-15.7-19.8-14.2
		c-0.3,0-0.7,0.1-0.9,0.3C617.8,477.4,613.8,479.1,610.9,484z M524.9,401.6c9.8-1,18.5-3.8,24.5-12.4c-1.8-1.6-3.8-1.1-5.5-0.9
		c-2.8,0.4-5.5,1.1-8.3,1.6C527.6,391.3,526.2,392.8,524.9,401.6L524.9,401.6z M350,42.2c-0.5,0.5-1,1.2-1.3,1.8
		c-1,3.2-2,6.3-2.9,9.5c-1.7,5.6,0.5,9.3,6.5,10.9c2.3-2.8,2.5-6.4,3.5-9.7C357.9,48.1,357,46.2,350,42.2z M530.2,182.3
		c-1.6,2.1-1,4.2-1.3,6.2c-1.4,9.8,0.7,11.6,10.2,8.4c2.9-1,5.6-7.7,3.5-9C538.8,185.3,534.9,182.6,530.2,182.3z M272.6,613.2
		c-0.4-0.8-0.7-1.5-1-2c-0.7-1.1-1.4-2.2-2.2-3.3c-2.5-3.4-4.7-3.7-7.7-0.9c-2.1,1.9-4.3,3.6-6.4,5.5c-1.6,1.4-3.8,2.7-3.9,5.3
		C256.6,620.4,266.4,618.3,272.6,613.2z M69,97.9c-3.8-7.7-7.8-14.6-17-16.3c-0.3,0.3-0.7,0.6-0.7,0.8c0.1,4.6,0.1,9.7,2.6,13.4
		c1.8,2.6,6.3,2.1,9.8,2.2C65.2,98.1,66.6,99.1,69,97.9z M499,354.4c-18.1,5.9-15.7,4.4-13.5,17.2c0,0.2,0.5,0.4,0.8,0.7
		c3.8-1.6,6.4-5,9.7-7.4C500.3,361.7,500.7,360.3,499,354.4z M538.4,512.8c0.6-3.7,1.2-6.8,1.5-9.9c0.3-4.4-2.4-6.5-6.1-4.3
		c-3.1,1.9-6.6,3.7-8.4,7.6C529.4,508.9,533.8,511.1,538.4,512.8z M441.5,438.5c4.9-1.4,7.1-5.2,10.5-7.4c0.7-0.5,1-1.5,0.6-2.2
		c-2.1-4.1-4.8-8-8-11.4C443.1,425.2,440,431.2,441.5,438.5L441.5,438.5z M565.2,434.5c1,4.8,3.4,8.3,5.4,12.1
		c0.5,1,1.8,1.5,2.9,0.9c0,0,0.1,0,0.1-0.1c3-1.6,6.2-3.1,7.9-6.3C576.1,436.9,570.6,434.7,565.2,434.5L565.2,434.5z M616.5,827.9
		c-0.3,3.6,1,6.7,1.8,9.8c1.4,5.8,3,6.5,9.3,4.1c0-2.8-1.8-5.2-2.5-7.8C624.1,829.5,621.5,827.5,616.5,827.9L616.5,827.9z
		 M523.5,42.1c3,7.2,8.2,12.8,13.6,19C537.8,50.8,533.3,44.6,523.5,42.1L523.5,42.1z M151.8,80.5c-6-2.6-10.7-6.6-17.9-6.9
		c2.1,2.8,3.6,4.9,5.2,6.9C143.6,85.8,145.4,85.9,151.8,80.5z M620.9,742.1c-3.3,4.3-6.1,8.9-8.4,13.8c1.5,1,2.5,0.1,3.6-0.2
		C626.5,752.9,626.5,752.8,620.9,742.1z M558.5,80.6c3.7-1.7,7.6-3.2,8-6.6c0.5-4-3.3-6.2-6.9-9.5C559.1,70.3,557.2,74.9,558.5,80.6
		z M446.7,472.8h-1.3c-1.9,4.7-3.3,9.6-4.2,14.6c2.6,0.1,4.3-1.1,6.1-1.7c3.1-0.9,3.8-2.8,2.5-5.7
		C448.7,477.6,447.8,475.2,446.7,472.8z M281.8,805.5c3.3-3.3,6.4-6.9,9.1-10.8c-3.1-1.5-5.1-3.7-8.8-2.8
		C282.9,796,280.4,799.8,281.8,805.5z M515.1,205.4c3.2,2.2,6.2,1.6,9.2,2.2c1.1-3.7,1.1-7.5,0-11.2
		C520.5,198.6,517.4,201.7,515.1,205.4z"/>
	<path class="st1" d="M100,475c0-0.9-0.3-1.7-1-2.2c-5.5-3.2-8.2-8.3-9.2-14.2c-1.2-7.3-7.3-10.4-11.8-14.9c-1-1-2.7-1.4-2.8-3.7
		c3.2-2.5,7.5-2.7,11.4-3.8c2-0.6,2.6,1.5,3.3,3.1c1.1,2.6,1,5.6,2.9,8.1c3.8-0.7,7-2.8,10.3-4.6c3.6-2,6.3-1.6,9.4,1.1
		c7.6,6.7,15.5,13.1,23.2,19.6c5.3,4.4,12,5.5,18.6,8.7c-0.5-5.4-1.9-9.1-6.3-11.2c-3.6-1.7-7-3.8-10.5-5.7
		c-1.5-0.8-2.8-1.9-3.8-3.2c-2.7-3.4-5.3-6.9-8.1-10.1c-4.3-5-2.3-10.4-1.2-15.7c0.4-1.8,2.6-1.9,4.2-2.2c7.5-1.6,15.1-2,22.7-3.1
		c3-0.4,4.7,0.5,4.8,4c0.2,3.2,0.9,6.4,2,9.5c5.4-9.6,13.1-17.7,22.5-23.4c2.9,3.8,0.1,8.3,2.3,12.6c5.2-6.4,10.8-11.7,8.6-21.1
		c-1.9-8.5,0.1-16.7,4.8-24.3c4.9-8.2,11.6-15.3,19.4-20.8c2.8,2,4.3,5.1,6.3,7.9c1.1,1.5,0.2,2.8-0.9,4c-1.9,2.1-4.3,3.7-5.8,6.5
		c1.9,2,4.4,2.1,6.8,2.1c4.7,0.1,8,1.5,9.8,6.5c2.4,6.7,5.6,12.8,12,17.3c5.2,3.7,9.4,8.9,13.9,13.6c3.7,3.9,2.6,9.1,3,13.8
		c0.8,9.2-0.8,18.2-3.1,27.1c-1.6,6.1-3.4,12.2-3.9,18.5c-0.4,5.7-3.9,9.4-8,12.6c-1.6,1.2-3.4,2.2-4.5,3.9c-2.8,4-7.1,3.8-11.1,4.5
		c-2.5,0.5-3-1.3-3.3-3.3c-1.1-7.2-2.7-14.4-5.9-21c-0.5-1-0.5-2.3-2.3-2.6c-2.1,6.9-3.6,14-4.5,21.2c-0.8,7-4.1,12.9-6.7,19.2
		c-1,2.4-2.9,3.1-5.3,2.5c-0.2,0-0.3-0.1-0.5-0.1c-3.7-1.6-10-0.2-11-4.4c-1.4-5.7-2.2-12.1,1.1-18c5-8.9,5-9-0.9-17.6
		c-3.1-4.5-9.9-6.2-14.5-3.2c-7,4.7-14.2,9-19.1,16.5c-4.2,6.3-9.6,11.8-14.5,17.7c-0.6,0.8-1.4,1.5-2.3,1.8
		c-6.1,1.3-12,3.9-18.3,0.2c-3.4-2-7.2-3.1-11.2-4.8c-2.3,4.2-5.2,7.7-6.5,11.9c1.5,2.6,4.2,2.5,6.3,2.8c4.5,0.8,7.7,2.9,9.6,7
		c0.5,1.1,1.2,2,2,2.9c4.7,4.7,3.1,9.2,0.3,14.3c-5.2,9.5-12.8,17-19.3,25.3S89.8,580.4,83,588.6c-1.6,1.7-3.4,3.2-5.4,4.3
		c-11.2,7.3-23.9,10.7-36.6,14.4c-7.9,2.3-15.8,4.9-22.5,9.4c-7.5,5-13.9,11.9-16.2,21.3c-0.5,2.1-0.8,4.3-2.2,6V412
		c5.9,2.2,11.1,6,16.9,8.4c1.6,0.7,3.1,2,5.3,1.8c1.4-2,0.6-4,0.1-6.1c-0.8-3.4,0-5.9,3.2-8c6.9-4.6,13.6-9.6,21.6-12.2
		c4.1-1.3,6-4.5,7.4-8.2c0.9-2.3,1.4-4.8,3.5-6.4c6.6,2.5,8.7,6.1,7,12.4c-1.9,7.7-3.3,15.6-4.2,23.5c-0.7,5.4-4.7,9.5-8.5,13.1
		c-1.5,1.4-4.1,0.6-6.3,0.1c-6.4-1.4-12.5-0.2-18.8,2.3c1.3,3.1,4.1,4,6.4,5.5c2.6,1.7,4.3,3.5,4.5,7.1c0.2,5.8,2.4,7.1,8.2,5.9
		c8-1.6,15.8-0.8,23.6,1.1c2.6,0.6,4.4,2.3,6.1,4.1c6.1,6.4,12.3,12.6,20.3,16.7C97.6,473.9,98.6,474.9,100,475l0.2,0.2L100,475z
		 M16.4,449.7c-2.3-5.9-4.4-7.4-9-6.7c-3,0.5-5.2,4.2-5.6,9.8C6.7,451.9,11.8,452.1,16.4,449.7z"/>
	<path class="st1" d="M44,900c-0.5-1-1.2-2-1.9-2.9c-5.1-4.8-5.7-11.2-5.9-17.4c-0.4-10.8-0.1-21.6-0.1-32.5c0.1-1,0.3-2,0.5-3
		c4.8,0.8,9.2,2.9,12.9,6c8,6.5,15.2,14,21.4,22.2c2.3,3,3.5,5.9,2.5,9.6c-0.6,2.1-0.6,4.3-1.2,6.4c-0.8,3.2,0.5,4.8,3.4,5.3
		s6.2,0.9,9.4,1.2c1.7,0.2,3.4-0.5,4.4-1.9c1.2-1.4,2.3-2.8,3.4-4.3c2-2.6,4.2-3.9,7.7-2.7s7.3,1.9,11.4,2.9c1.7-5.2,3.1-10,3-15.2
		c-0.1-9.1-0.6-18.3,2.5-27.2c0.9-2.5,1.9-4.5,4.2-5.8c3.2-1.8,6.2-3.8,9.1-5.5c1.2-0.1,2.2,0.6,2.7,1.6c3.5,5.3,7.4,10.3,10.2,16
		c4.1,8.3,8.4,16.2,15.8,22.1c2.3,1.9,2.5,4,1.1,6.6c-1.2,2.4-2.3,4.8-3.2,7.3c-1.1,2.7-2.7,4.9-5.6,6c-2.4,0.9-3.6,2.5-1.8,5
		L44,900z"/>
	<path class="st1" d="M426,900c-0.1-2.5-1.9-3.9-3.8-4.9c-6.1-3.5-8.6-9.4-11.1-15.8c6.1-4.5,12.7-8.4,19.6-11.3
		c-2.1-3.1-0.3-5.4,1.5-7.5c3.3-3.7,3.5-8.3,4.8-13.5c-6.7,1.6-10.7,6.2-16.2,8.6c-2.1-4.1-2.3-8.5-2.7-12.7
		c-0.5-4.6-0.1-9.3-0.1-14c0-2.7,1-4,3.7-5c7.8-2.9,15.3-2.2,22.9,0.4c1.9,0.7,3.3,1.7,3.2,3.8c-0.6,12.9,1.6,25.9-1.8,38.8
		c-1.2,4.5-3.1,7.4-7.8,8.5c-1.7,0.4-3.7,0.7-4.9,2.7c0.9,2.6,3.7,2.9,5.7,4s4,2.1,3.7,4.8c-0.5,4.7,0.8,8.5,5.1,10.9
		c0.6,0.3,0.7,1.4,1.1,2.2H426z"/>
	<path class="st1" d="M467,900c0.9-9.6-0.4-19.3-3.9-28.3c-1.2-3.1-1.5-6.5-0.8-9.8c1.2-5.9,0.9-12-0.9-17.7
		c-0.4-1.3-1.1-2.8-0.4-4.5c5.6,1.4,10.3,3.6,13.5,9.1c3.8,6.6,8.3,12.9,13.2,18.7c1.9,2,2.5,4.8,1.5,7.4c-1.1,3.1-1.6,6.4-2.7,9.6
		c-1.8,5-2,10.5-0.6,15.7H467V900z"/>
	<path class="st1" d="M0,811c1.3,1.7,1.1,3.8,1.5,5.7c0.7,3,2.4,3.7,5.1,3.2c0.8-0.2,1.6-0.4,2.4-0.6c9-1.5,11.1-0.5,15.7,7.5
		c0.8,1.1,1.2,2.4,1.1,3.8c-1.1,5.5-1.9,11.1-4.5,16.2c-1.5,3.1-3.8,5.8-5.5,8.9C12.1,862.3,6,866.6,0,871V811z"/>
	<path class="st1" d="M188,900c-0.4-6.2,1.3-12.1,3.1-18c0.4-1.4,1.2-2.7,2.3-3.7c1.9-1.9,4.1-3.5,5.6-5.7c4.5-6.8,10.6-5,16.8-3.5
		c1.3,0.3,2.4,1.2,2.9,2.5c1.6,3.5,3.1,7,4.7,10.4c1,2.1-0.4,3.4-1.6,4.8c-4.2,4.5-9.1,8.3-12.7,13.3L188,900L188,900z"/>
	<path class="st1" d="M368,900c0-2.3,0.2-4.6,0.1-6.9c-0.1-3,1.3-4.3,4.2-3.9c3.8,0.3,7.5,0.9,11.2,1.7c5.1,1.3,8.8,4.8,11.5,9.2
		L368,900L368,900z"/>
	<path class="st1" d="M0,873c4.3,5.2,6.5,11.3,7.9,17.8c0.7,3.1,1,6.1,0.1,9.2H0V873z"/>
	<path class="st1" d="M571,900c0.3-3.7-0.6-7.5,0.8-11.8c6.1,3,13.8,3.1,15.2,11.8H571z"/>
	<path class="st1" d="M173,211.5c1,0.7,1.8,1.7,2.2,2.9c2.4,5,6,8.3,11,10.9c7.9,4.1,13.1,11.2,16.4,19.4c2.2,5.5,5,9.6,10.8,11.5
		c14.5,4.6,22.3,28.3,15.3,40.7c-4.8,8.5-3.6,17.3-1.4,26.1c1.3,5,0.5,9.9,0.7,14.9c0,1.7-0.9,3.3-2.4,4.1c-3.1,2-6.2,3.9-9.3,5.9
		c-1.9,1.2-3.3,0.8-4.6-1.2c-2.4-3.8-5-7.5-7.5-11.2c-2.3-3.5-5.7-5.2-10.1-7.3c2.2,9.8,4.9,18.6,4.6,29.2
		c-7.1-5-10.4-14.2-20.3-13.3c-0.4,3.3,2,5.9,3.5,8.6c2.2,3.9,2.1,6.9-1.2,10.2c-9,9.2-12.2,20.6-11.8,33.3
		c0.2,7.9-0.1,7.6-7.4,10.6c-15.1,6.3-31.1,8.1-47.1,10.2c-5.2,0.7-9.9,2.9-14.6,4.8c-3.4,1.4-5.3,0.7-6.9-2.3
		c-0.8-1.6-1.8-3.2-3-4.6c-4.8-5.6-6.3-11.9-6.1-19.3c0.2-8.1-4.2-15.3-6.5-22.9c-0.1-0.5-0.4-0.9-0.6-1.4c-3-7.5-3.1-7.6,4.7-9.9
		c3.6-1.1,5.7-4,8.4-6.1c3.4-2.4,6.4-5.4,8.7-8.9c3.4-5.3,8-6.5,13.3-5.1c5.1,1.3,9,0,12.8-3.3c3.1-2.7,6.6-4.9,10.2-7.6
		c-4.7-4.8-9.1-8.4-16.2-6c-5.7,1.9-11.6,2.9-17.5,4.2c-1.7,0.4-3.4,1.2-5.1,0.9c-1.1-1.5-0.3-2.6,0.3-3.5c3-4.4,3-9.1,1.1-13.8
		c-2.5-6-0.9-10.8,3.1-15.5c5.2-6.1,4.8-7.9-2.2-13.4c-2.9,3.4-2.7,8.1-5.3,12.1c-3.2-2.8-4.2-6.7-5.9-10.2
		c-0.7-1.4,0.4-2.4,1.6-3.3c2.8-2.1,5.3-4.6,8.3-6.4s3.7-4.2,3.9-7.5c0.6-8.5,2.6-16.7,4.8-24.9c0.4-1.6,1.5-3,3-3.7
		c7.5-4.3,14.7-9.2,21.5-14.5c3.8-3,8.4-2.4,12.4-2.7c7.4-0.7,13.7-3.8,20.3-6.4C166.6,214.5,169.5,212.2,173,211.5z M197.8,261
		c-4.8-1.3-5.6-1-8.4,2.5c-5.1,6.3-10.1,12.7-17.2,17.2c-4.4,2.8-7.8,6.5-9.2,11.9c-2,7.5-5.8,14.1-9.8,20.7c-0.7,1.2-2,2.3-1.2,4.4
		c3.3,0.4,6.7,1,10.1,1.3c1.7,0.2,3.5,0.1,4.5-1.5c3.4-5.1,7.9-9.6,10.1-15.4c2.8-7.8,7.2-15,12.8-21.1
		C194.9,275.3,196.1,268.1,197.8,261z M160.9,284.1c2.9-10.2,1.9-13-6.2-16.7c-5.4-2.2-9.8-6.2-12.6-11.4c-1.4-2.6-3.6-4.8-5.4-7.1
		c-4.6-6.1-9.9-8.4-16.9-4c-2,1.2-5,0.7-6.4,4C130.6,258.5,146.6,270.4,160.9,284.1L160.9,284.1z"/>
	<path class="st1" d="M156.1,621.1c-0.1,10.5-2.9,19.9-6,29.2c-0.4,1.1-1,2.1-1.9,2.9c-11.6,12.5-24.5,23.4-39.7,31.5
		c-4.7,2.5-9.3,5.2-13.9,7.9c-7.2,4.3-15.1,6.9-23.2,9c-1.3,0.3-2.7,0.2-3.9-0.3c-2.9-0.9-5.8-1.6-8.7-2.1c-4.9-0.7-8.2-3.5-11-7.1
		c-3.6-4.8-7.9-9-12.7-12.7c-2.6-1.9-3-4-2.6-7.3c1-8.7,6.7-13.5,13.2-18.1c12.3-8.8,23.5-18.9,32.5-31.3
		c4.4-6.1,9.3-11.7,14.7-16.9c4.9-4.6,11.7-6.1,18.1-7.8c6.5-1.7,13.4-0.9,19.4,2.2c5.9,2.9,12.3,3.9,18.8,4.8
		c2.9,0.4,4.8,1.5,5.2,4.9C154.9,613.9,156.5,617.7,156.1,621.1z"/>
	<path class="st1" d="M232.1,357.7c-1.6-5.9,1.1-10.6,4.7-15c5.7-6.8,4.4-14.6,3.3-22.3c-0.3-1.6-0.8-3.2-1.5-4.8
		c-2.6-6.9-3.6-13.8-0.7-20.9c2.3-5.5-0.3-10.5-1.5-15.6c-0.4-1.5-1-2.8-1.3-4.3c-0.8-4.4,1.2-6.2,5.5-5.3c7.5,1.6,14.7,4.3,22.2,6
		c9.4,2.2,12.7,10.5,17.8,17c1,10.4,3.6,20.7,1.9,31.2c-0.4,1.5-0.5,2.9-0.5,4.4c1.1,9.4-2.6,17.6-6,25.9c-1.4,3.1-3.6,5.6-6.5,7.4
		c-6.7,4.7-10.8,11.1-14.1,18.3c-3.6,7.8-2.7,5.8-9.6,4.6c-4.7-0.8-7.4-3.1-9.2-7.7C234.3,370.7,230.8,364.9,232.1,357.7z"/>
	<path class="st1" d="M147.8,595.9c-14.9-7.6-29.5-16.3-47.1-7.1c1.9-6.4,2.6-12.7,8.6-16.4c8.3-4.9,15.7-11.3,21.7-18.8
		c1.3-1.5,2.1-3.4,2-5.4c-1-13.6,5.2-24.2,13.5-34.2c5.1-6.1,10.8-11.7,16.5-17.3c4.3-4.3,6-3.7,11-0.4c7.5,5,11.1,12.6,14.8,20.2
		c1.2,2,1,4.6-0.4,6.5c-5.7,8.6-12.8,16.2-20.9,22.5c-3.9,3.2-8.5,3.7-13,4.5c-4.9,0.8-9.7,2.2-14.9,3.5c1.2,2.3,3.3,2.3,5,2.6
		c4.3,0.8,8.2,2.9,11.2,6c2.6,2.7,3.3,5.5,3.2,9C158.9,580.8,154.5,588.5,147.8,595.9z"/>
	<path class="st1" d="M225.2,256.6c-6.8-6.9-13.1-12.9-17.3-20.5c-3.9-7.2-9.6-13.2-16.5-17.5c-2.7-1.7-5.1-3.8-4.4-7.6
		c0.1-1.5,1.3-2.7,2.8-2.9c9.8-2.5,18.7,0.1,27.3,4.5c1.4,0.6,2.5,1.7,3.2,3c1,1.9,2.1,3.8,3.4,5.5c5.2,5.8,6.3,13.1,7.2,20.3
		C231.6,246.9,227.7,250.9,225.2,256.6z"/>
	<path class="st1" d="M212.4,567.5c2.7-8,6-14.3,14.1-17.3c6.3-2.3,6.4-3,3.9-9.2c-3.2-7.9-2.4-15.9-2.2-23.6c0.8-0.9,2.1-1,3-0.3
		l0.1,0.1c7.9,5.8,14.9,12.6,21.8,19.7c1.6,1.7,1.4,3.2,0.3,4.9c-2.7,4-5.3,8-8.1,12c-0.7,0.9-1.6,1.7-2.6,2.3
		C233.5,561.1,223.8,565.3,212.4,567.5z"/>
	<path class="st1" d="M201.7,528.7c-0.4,5.7,0.2,11.2-6.5,13.2c-0.9,0.3-1.6,1.3-2.5,1.5c-7.8,2.1-9.5,8.1-10.5,15
		c-0.4,3.2,0.2,5.3,2.9,7.2c8,5.5,7.9,5.5,4.2,14.5c-1.7,4.2-4.1,6.1-8.9,5.9c-11.6-0.4-12.2,0-13.1-11.7
		c-0.6-8.8,0.8-17.4,7.9-24.2s14.1-13.6,21.8-19.7C198.3,529.3,200,528.6,201.7,528.7z"/>
	<path class="st1" d="M4,658c0-1.5,0.6-3,1.7-4c5.6-4.6,8.2-10.8,9-17.7c0.4-3.4,2.3-4.3,5.1-5c4.4-1,8.7,0.2,12.8,1
		c6,1.1,11.5-0.3,17.2-0.8c1.1-0.1,2.2-0.7,3.5,0.5c-2.1,4.3-4.5,8.4-7.2,12.3c-1,1.3-2.4,2.3-4,2.8c-6.8,2.5-13.5,5.4-21,5.8
		C15.1,653.3,9.7,656.3,4,658L4,658z"/>
	<path class="st1" d="M309.7,113.7c3-0.3,5.3,1.5,7.9,2.4c5.8,2,11.4,4.5,17.5,5.8c4.5,0.8,8.3,3.7,10.4,7.7
		c1.6,2.8,4.1,5.1,5.3,8.6c-5.8,3.6-10.7,6.6-18.4,4.2s-12.6-6.2-16.5-12.8C310.6,120.9,309.7,119.6,309.7,113.7z"/>
	<path class="st1" d="M214,535.3c1.8,3.1,1.9,6.1,2.8,9c0.4,1.3,0.4,3-0.7,3.8c-4.6,3.2-7.6,8.3-13.5,10.6
		C203.2,549.2,206,541.3,214,535.3z"/>
	<path class="st1" d="M70.9,411.3c4.5,2.6,8.7,5.8,12.5,9.3c-3.8,3.3-8.3,5.6-13.1,6.8C68.4,423.3,68.6,415.8,70.9,411.3z"/>
	<path class="st1" d="M256.5,517.1c3.2-7.4,6.2-14.9,13.4-20c1.6,4.1,0.9,7.9,0.7,11.5c-0.1,0.7-0.5,1.3-1,1.6
		C265.5,512.8,261.6,515.8,256.5,517.1z"/>
	<path class="st1" d="M4,658L4,658z"/>
	<path class="st1" d="M92,850.1c-2.1-7.9-0.8-13.5,5.4-17.5c0.6-0.4,1.1-0.7,1.7-1.1c5.4-4.2,5.6-5.2,3.5-11.8
		c-1.2-3.7-3.4-7.3-1.6-12.7c3.8,5.1,7.9,9.1,9.6,14.6c0.8,2.5-1.6,4.6-2.1,7.1C106.5,838.1,98.8,843.2,92,850.1z"/>
	<path class="st1" d="M167.1,843.2c3.1,0.4,6.2,0.6,9.3,1.1s2.9,2.6,1.8,4.4c-2,3.2-4.4,6.3-7,9c-2.9,2.8-6.4,0.8-9.4-0.2
		c-2.6-0.8-1.4-3.6-1.3-5.7c0.1-1.1,0.5-2.3,0.6-3.4C161.7,843.1,161.7,843,167.1,843.2z"/>
	<path class="st1" d="M418.8,297.5c-8.8,5-17.6,5-27,2.1c-0.1-4.8,2.8-8.2,4.3-12.1c0.6-1.6,2.5-1.6,3.9-1.3
		c2.9,0.6,5.9,0.9,8.9,1.1C415,287.8,416.4,292.9,418.8,297.5z"/>
</g>
<g class="st2">
	<path class="st3" d="M0,346c3.3-2,5.2-5.6,9.2-7.8c2.1,8,3.5,15.6,2.3,23.6c-1.1,6.7-1.7,13.5-1.6,20.4c0.1,3,1.3,4.1,4.1,5.2
		c8,3.1,15.6,1.8,23.3-0.7c1.9-0.7,3.5-1.9,4.9-3.4c11.5-11.1,22.3-22.9,32.3-35.3c2.7-3.4,2.5-7,2.2-10.9
		c-1.1-11.8-2-23.5,1.3-35.2c1.2-4.7,1.4-9.6,0.4-14.3c-0.9-4.7-0.7-9.2,2.6-13.2c5.3-6.3,8.5-13.8,11.1-21.6
		c1.3-3.9,1.1-7.9,0.3-11.8c-1.3-6.9-0.8-7.5,5.4-10.9c5.5-3,11.6-4.2,17.6-5.5c3.5-0.6,6.4-3,7.6-6.4c1.4-3.4,2.2-7,5-9.8
		c3.8,0.3,6.7,2.7,10,4.2c6.5,3,18.5-0.5,22.1-6.6c4.6-7.9,4.6-7.9-1.5-14.8c-2.3-2.6-4.4-4.4-8.5-3.3c-7.4,2-14.8,0.8-22.1-0.9
		c-7.5-1.7-15.4-0.7-22.2,2.9c-1.3,0.8-2.6,1.4-4,2c-5.2,1.7-8.4,5-9.1,10.6c-0.4,2.9-2,4.3-4.7,5.1c-12.5,3.6-21.6,12.2-29.5,22
		c-10,12.3-22.8,21-36,29.5c-1.2-1.8,0.1-2.5,0.8-3.3c5.1-6,8.8-12.9,12.7-19.7c3.3-5.7,8.9-9.4,13.2-14.2c4.9-5.3,6.7-12,9-18.3
		c-2.4-2.6-5.6-3.3-7.6-6.1c2.7-2.5,6.1-3.2,9.3-4.2c3.5-1.1,5.3-3,5.5-7.1s0.8-8.2,0.8-12.4c0-3.6-0.4-6.8-2.6-9.9
		c-2.5-3.5-1.5-7.8-1.3-11.7c0.7-13.4,5-26.5,3.9-40.1c0.1-0.8,0.3-1.6,0.6-2.3c4.7,1.2,8.6,3.7,12.6,5.9c1.8,1,1.6,2.7,0.9,4.4
		c-1.1,2.8-2,5.7-3.2,8.4c-1.2,2.7-0.3,4.1,2.3,4.8c1.9,0.5,3.9,0.9,5.8,1.4c6.2,1.6,6.5,1.6,4.6,7.6c-1.3,4.2,0.2,7.5,2.2,10.8
		c0.3,0.5,0.8,1,1.3,1.3c4.6,2.4,9.2,4.6,14,7.1c4.7-6.4,6.9-15,16.7-15.6c1.5,1.9,0.9,4.2,0.4,6.4c-1.5,7.8,0.6,12.1,7.5,15.4
		c1.8,0.9,2.8,0.2,3.8-1.1c1.7-2.2,2.8-4.9,5.2-6.8c3.1,1.6,4.4,4.6,6.4,6.9c4.6,5.3,9.4,6,15.1,1.8c2.4-2,5-3.5,7.8-4.7
		c0.9,4.9,1,9.9,0.1,14.7c-0.3,1.8-2.4,2.2-3.8,3c-1.7,1-4,0.8-5.5,3.3c5.4,3.8,10.5,7.7,17.3,8.6c0.8,0.1,1.7,0,2.5,0.1
		c9.4,0.7,9.4,0.7,12.7-8.1c0.5-1.2,0.9-2.5,1.4-3.7c0.1-0.3,0.4-0.5,0.7-0.7c1.4-0.5,2.6,0.3,3.7,0.9c5.9,3,11.8,6.2,18.4,7.5
		c2.5,0.6,4.6,2.2,5.8,4.4c1.5,2.4,3.5,4.6,4.6,7.1c2,4.4,5.5,5.9,9.8,6.4c8.1,1,16.1,2.4,24.2,2.9c5.1,0.3,10.2-1.1,15.2-2.6
		c1.7-0.5,2.2-1.9,2.2-3.5c-0.3-7.3,0.4-14.6-0.6-21.9c-0.8-5.2-0.3-10.6-0.3-16c0.1-2.2-0.5-4.3-1.6-6.1
		c-4.8-7.8-9.6-15.5-17.2-21.1c-2.8-2-4.6-2.4-7.5-0.9c-7.4,3.9-14.8,7.8-22.4,11.1c-3.8,1.7-6.8,4.9-8,8.9c-1,2.8-2,5.6-4.1,7.8
		c-2.9-0.2-4.6-2.3-6.8-3.4c-1.1-0.6-1.6-1.8-1.2-3c0.1-0.6,0.5-1.3,0.5-1.9c1-8.8,5.4-13.1,14.6-15.1c10.9-2.5,19.2-10.1,25.4-19.6
		c1-1.5,1.4-3.5,0.9-5.2c-0.5-2-1.5-4.1-0.9-6.4c3-1.4,5.8-0.5,8.8,0.1c3.1,0.6,5.1,0.1,6-3.9c2-9.7,2.3-9.8-6-15
		c-4.3-2.7-7.9-6.1-11.9-9.1c-2.2-1.4-3.1-4.2-2.1-6.6c0.7-2.2,1.4-4.4,2.2-6.8c3.3,0.5,5.7,2.2,8.2,3.7c4.5,2.9,9,4.7,14.6,3
		c3.2-1,6.2-0.3,8.6,3c4.5,6.1,9.5,11.8,15.9,16.3c7.1,5,15.2,7.4,23.1,10.5c14.7,5.9,29.7,11,45.3,13.7c0.7,0,1.3,0.2,1.9,0.5
		c5.7,4.1,11.2,2.5,16.1-1.2c5.6-4.1,11-2.4,16.5-0.3c3.7,1.5,7.8,1.5,11.5-0.1c6.3-2.5,12.8-4.8,18.9-7.9c1.4-0.8,2.9-1.7,5.2-1.4
		c0.8,4.7,1.6,9.8-0.2,14c-1.8,4.2-7.6,5.6-10.6,9.4c5.1,7.4,12.2,11.1,21,10.9c5.6-0.1,10.5,1.6,15.2,4.1c4,2.1,7.6,1.1,11.5,0.1
		c5.7-1.4,10-3.6,12.4-9.9c2.5-6.9,5.1-13.7,7-20.8c0.2-0.9,0.3-2,1.4-2.8c0.6,0.1,1.2,0.3,1.7,0.4c7.6,3.2,7.6,3.2,12.7-3.3
		c1-1.3,1.8-3.1,3.5-3.4c7-1.2,13.7-4.5,21-2.2c6.7,2.1,13.6,3,20.5,4c3.3,0.5,4.3,3.3,3.4,8.3c-0.6,3.3-2.8,2.5-5,2.2
		c-7.4-0.9-14.7-2.4-21.9-4.4c-2.5-0.7-4.2-0.2-6.2,1.6c-6.3,5.7-12.8,11.1-17.9,18c-3.3,4.5-8.3,5.9-13.3,7.2
		c-2.1,0.4-4.2,1.2-6.1,2.3c2.3,8.3,8.4,13.9,14.1,20.6c-6.2,1.6-11,4.6-17,1.7c-7.5-3.7-15.8-5.2-24.1-5.4c-4-0.1-7.1-2.4-9.8-4.5
		c-5.5-4.4-11.8-6.1-18.5-6.3c-5.8-0.2-11.2-1.7-16.6-3.1c-2.8-0.7-5.2-0.8-7.4,1.3c-0.2,0.2-0.6,0.3-0.8,0.6
		c-6.4,5.6-13.1,7.2-20.5,1.5c-2.8-2.2-6-1.7-8.9,0.2c-1.3,0.8-2.6,1.6-3.8,2.4c-3.8,2.4-7.8,3.7-12.2,1.8c-2-1-4.3-1-6.3,0
		c-0.9,6.4,0.6,13.9-5.2,19.4c-1.5,0.2-2.1-1.3-2.6-2.4c-4.9-9.9-12.6-17.5-20.4-25c-6.1-5.8-11.4-12.1-15.1-19.7
		c-1.7-3.5-4.2-4.8-8.1-3.7c-5,1.4-9.4,1-12.5-4.3c-1.5-2.5-3.9-4.4-5.9-6.6c-6.2,2.6-8.8,7.4-9.7,13.5c-1.5,10.2,4.9,16.8,9.7,24.2
		c1.3,1.9,2.9,1.8,4.8,1.1c3.1-1.1,6.2-2.1,9.2-3.1c2,1.7,1.5,3.7,1.4,5.4c-0.7,8.2,1.9,15.8,3.9,23.5c0.2,0.8,0.4,2,0.9,2.2
		c6.5,3.2,12.2,9.3,20.5,7c7-1.9,13.9-3.1,21.2-1.5c2.8,0.6,3.7,1.8,3.5,4.3c0,0.5,0,1-0.1,1.5c-2.3,7.4-0.3,14.1,3.6,20.4
		c2.4,3.8,1.3,7.7,0.3,11.6c-1.5,5.9-1.3,6.6,4.4,8.4c7.6,2.4,13.2,7.5,19,12.5s5.9,12.4,7.7,19c0.1,0.7,0,1.3-0.3,1.9
		c-3.7,8.6-8.5,16.7-14.3,24c-2.5-0.9-3.3-3.1-4.3-4.9c-2.6-4.8-6.7-7.4-11.7-8.6c-2.9-0.7-4-2-4.4-5.1c-0.9-8.4-2.2-16.7-3.4-24.9
		c-1.2-0.7-2.8-0.7-4,0c-4.7,1.9-7.2-0.6-9.9-4c-3.4-4.3-5.5-8.7-4.6-14.2c0.8-5.2-2.8-8.7-4.6-12.9c-2.7-6.4-6.6-7.9-13.6-6.4
		c-6.7,1.4-11.7,5.3-17.3,8.4c-3.2,1.8-6.2,3.9-9.1,6.1c-10.7,8-22.1,8.9-34.3,3.8c-1.9-0.8-3.7-2.4-6.9-1.1
		c-0.4,6.6-0.2,13.4,0,20.4c0.4,12.4,9.8,15.9,19,19.9c7.9,3.5,14.1,1.2,19.3-5.1c1.1-1.2,2.4-2.3,3.8-3.2c5-3.8,7.5-3.5,12.1,1
		c0.9,0.9,1.5,1.8,1,3.1c-0.3,1.1-0.6,2.2-1.1,3.3c-5.8,9.3-5.4,19.5-3.2,29.5c2.2,10.2,2.3,20.5,1.8,30.8
		c-0.9,15.8,4.4,29,14.6,40.6c0.8,0.9,1.4,1.8,2.1,2.8c0.1,0.2,0,0.6,0,1c-5.4,3.7-7.4,3.4-10.4-2.4c-3.1-6.1-7.2-11-13.4-14.2
		c-2.2-1.2-3.6-0.9-5.2,0.9c-6.3,7.1-12.2,14.4-14.7,23.9c-0.8,3-1,5.5,0.7,8c4.8,7,8.6,14.7,11.5,22.7c3,8.9,4.2,18.2-2,26.6
		c-5.1,6.6-8.2,14.5-8.9,22.9c-0.7,8.8,2.9,16.3,8.4,22.8c4.1,4.6,7.6,9.7,10.4,15.1c2,3.9,4.5,5.4,9.1,6.2
		c7.8,1.4,14.4-1.1,21.4-3.3c2.1-0.7,3-1.9,3.8-4.1c3.5-10,0.6-19-4.1-27.6c-1.4-2.6-4-3.9-6.4-5.4c-7.8-5.1-14.2-12.2-18.5-20.5
		c3.5-3.6,7.8,1.2,11.4-1.4c-0.1-3-0.8-5.9-2.1-8.6c-2.8-6.1,0-10,4.8-14.4c3.2,7.4,6.4,14.3,7.4,21.9c0.9,6.8,3.5,13.2,4.7,19.9
		c1.4,7.2,7.4,10.4,11.9,14.7c3,2.7,6.7,4.4,10.7,4.9c10.4,1.7,20.4,4.9,29.9,9.5c4.8,2.4,10.5,1.1,16.1,2.7c-8.4,6-17.5,9-27.2,7
		c-7.5-1.6-12.6-0.6-16.3,6.5c-1.9,3.6-5.2,6.5-7.3,10.1c-6.4,11.1-17.1,16.6-28.2,21c-12.8,5.2-10.6,2.5-10.9,16.2
		c-0.1,2.7,1,4.2,3.6,5.2c10.9,4.2,21.9,7.6,33.6,8.8c7.3,0.8,14.7-0.2,21.8,1.8c0.8,0.2,1.7,0,2.5,1.5c-2.6,4.1-4.8,8.9-10.6,10.3
		c-6.8,1.6-13.5,3.5-20.4,5c-3.8,0.8-6.5,2.9-9.4,5.3c-8.2,6.6-12.5,14.8-13.6,25.4c-1,10.1-4.3,19.8-7.5,29.5
		c-2.3,7-2.8,14.3-4.6,21.4c-2.4,9.1-6.7,17-12,24.4c-8.5,11.9-16.4,24.3-25.7,35.5c-1.3,0.5-2.8,0.1-3.8-1
		c-5.2-4.2-11.5-5.9-17.7-7.8c-2.9-0.9-5.1-0.4-7.2,1.8c-5.3,5.5-12.2,9.3-19.7,10.7c-9.3,1.9-16.1,8.2-22,15.4
		c-2.9,3.5-4.7,7.8-8.4,11.5c-2.9-6.7-3.7-12.6-1-19.2c2.4-5.9,5-10.4,11.6-12.3c5.4-1.6,10.3-4.5,15.4-7c1.4-0.7,3.3-1,3.7-3.6
		c-5.8-1.6-11.1-3.3-17.5-0.2c-9.3,4.7-16.7,11.5-23.4,19.1c-4.1,4.6-5.7,10.9-8,16.5c-3.7,9.2-5,21.9-3.2,30
		c3.2,0.9,5.4-2.3,8.3-2.3l0,0c-1.6,4.7-5.6,7.4-9.2,10.2c-2.7,2.1-7.4-1.1-6.5-4.5c1.4-5.3,0.1-9.8-2-14.5c-1.5-3.3-1.1-6.5,0-10.1
		c4.6-14.6,14.4-25.7,23.5-37.3c3.1-3.9,6.2-7.8,9.1-11.9c3.6-5,7.4-9.8,11.4-14.5c2-2,3-4.8,2.8-7.7c-0.1-1.5,0-3,0-4.5
		c0-6.9,1.5-8.5,9.2-9.7c1.4,3.5,0.8,7.1,0.7,10.7c-0.2,7,4.4,11.6,7.6,17c0.6,0.9,2.3,1.4,3.6,1.6c13,2.1,25.8,4.8,39.1,4.3
		c2.9-0.1,5-0.6,6.8-3.2c2-3,4.7-5.6,7-8.4c2.2-2.3,3.3-5.5,3.1-8.7c-1-11.9,3.9-22.1,9.8-31.9c6-10,12.6-19.9,14.4-31.5
		c1.4-9.3,5.3-16.8,10.8-24.2c3.6-5,6.7-10.4,9.2-16c1.8-3.8,0.9-8.2,0.6-12.3c-0.1-2.2-2.3-2.8-3.9-3.4c-7.4-2.6-14.6-5.7-22.2-7.6
		c-5.8-1.5-5.9-2-4.7-8s4.1-11.6,6.3-17.3c1.1-2.8,3.6-3.4,6.1-3.6c9.6-1,16.3-7,22.9-13.1c0.3-0.3,0.4-0.9,0.8-1.9
		c-5.7-2.3-11.1-4.9-17.4-4.3c-0.2,0-0.3,0.1-0.5,0.1c-12.1-1.3-16.9,7.6-22.3,15.8c-1.1,1.5-1.9,3.1-2.6,4.8
		c-2.9,7.7-10,11.2-15.9,16.2c1.6,3.9,5.2,6.2,6.5,9.8c-0.2,0.9-1,1.6-1.9,1.7c-7.8,1.1-13.7,5.7-19.6,10.3
		c-3.2,2.5-6.5,4.7-10.5,5.6c-7.2,1.6-13.8,4.7-20.6,7.6c-4.4,2-8.5,4.6-12,7.9c-0.5,0.6-1.1,1.2-1.8,1.7
		c-9.3,5.9-10.6,15.5-10.1,25c0.5,9.7-1.9,16.9-9.6,23c-5.1,4-8.7,9.6-12.9,14.5c-1.9,2.2-1.9,4.2-0.2,6.3c2.9,3.5,2.4,7.2,1.4,11.3
		c-1.5,5.8-4.2,11.2-7.9,15.8c-2.9,3.7-6,4.9-9.9,3.9c-6.2-1.6-11.6-0.4-16.6,3c-6.8,4.5-14.7,4.7-22.4,6.2
		c-5.2,1-10.3,2.8-15.4,4.3c-1.6,0.5-3.1,1.4-4.2,2.6c-11.2,12-24.3,21.6-37.3,31.5c-8.8,6.7-14.4,16.2-17.6,26.6
		c-2.9,9.5-10.4,14.1-18.2,20.6c-0.7-5.4-0.6-10.8,0.1-16.1c1.8-13.2,11.5-20.5,20.4-28.4c8.6-7.6,17.1-15.2,24.8-23.7
		c-4.3-8-11-13.1-17.3-18.8c-5.7-5.1-12.2-7-19.5-7.8c-1.9-0.4-4,0-5.6,1.1c-3.1,2.2-6.2,4.4-9.4,6.6C6,703,6,703,2.8,699
		c-0.8-0.9-1.6-1.6-2.6-2.4v-52c1.4-1.8,1.7-3.9,2.2-6c2.3-9.4,8.6-16.3,16.1-21.3c6.7-4.5,14.6-7.1,22.5-9.4
		c12.6-3.6,25.4-7.1,36.6-14.4c2-1.2,3.9-2.6,5.4-4.3c6.8-8.1,13.8-16.1,20.4-24.5s14.2-15.8,19.3-25.3c2.8-5.2,4.3-9.6-0.3-14.3
		c-0.8-0.9-1.5-1.8-2-2.9c-2-4.1-5.1-6.2-9.6-7c-2.1-0.3-4.8-0.2-6.3-2.8c1.3-4.2,4.2-7.7,6.5-11.9c4,1.7,7.8,2.9,11.2,4.8
		c6.3,3.7,12.2,1.1,18.3-0.2c0.9-0.4,1.7-1,2.3-1.8c4.9-5.8,10.4-11.3,14.5-17.7c4.9-7.4,12-11.8,19.1-16.5
		c4.6-3.1,11.4-1.3,14.5,3.2c5.9,8.6,6,8.7,0.9,17.6c-3.3,5.8-2.5,12.3-1.1,18c1,4.1,7.2,2.8,11,4.4c0.2,0.1,0.3,0.1,0.5,0.1
		c2.4,0.5,4.3-0.1,5.3-2.5c2.6-6.3,5.9-12.3,6.7-19.3c0.9-7.2,2.4-14.3,4.5-21.2c1.8,0.3,1.9,1.6,2.3,2.6c3.2,6.7,4.8,13.8,5.9,21
		c0.3,2,0.8,3.8,3.3,3.3c4-0.8,8.4-0.6,11.1-4.5c1.1-1.6,3-2.6,4.5-3.9c4.1-3.2,7.6-6.9,8-12.6c0.5-6.3,2.3-12.4,3.9-18.5
		c2.4-8.9,3.9-18,3.1-27.1c-0.4-4.6,0.7-9.9-3-13.8c-4.4-4.7-8.6-10-13.9-13.6c-6.4-4.4-9.6-10.6-12-17.3c-1.8-5.1-5.1-6.5-9.8-6.5
		c-2.4,0-4.9-0.1-6.8-2.1c1.5-2.8,3.9-4.4,5.8-6.5c1.1-1.2,2-2.5,0.9-4c-2-2.8-3.5-6-6.3-7.9c-7.9,5.5-14.5,12.6-19.4,20.8
		c-4.7,7.6-6.7,15.8-4.8,24.3c2.1,9.4-3.4,14.7-8.6,21.1c-2.1-4.3,0.6-8.8-2.3-12.6c-9.4,5.7-17.2,13.8-22.5,23.4
		c-1.1-3-1.8-6.2-2-9.5c-0.1-3.5-1.8-4.4-4.8-4c-7.6,1.1-15.2,1.5-22.7,3.1c-1.6,0.4-3.8,0.5-4.2,2.2c-1.1,5.3-3.2,10.7,1.2,15.7
		c2.9,3.2,5.4,6.7,8.1,10.1c1,1.3,2.3,2.4,3.8,3.2c3.5,1.9,6.9,4,10.5,5.7c4.4,2.1,5.8,5.8,6.3,11.2c-6.6-3.2-13.4-4.3-18.6-8.7
		c-7.8-6.5-15.6-12.9-23.2-19.6c-3.1-2.7-5.8-3.2-9.4-1.1c-3.3,1.8-6.5,4-10.3,4.6c-1.9-2.5-1.8-5.5-2.9-8.1
		c-0.7-1.5-1.2-3.6-3.3-3.1c-3.9,1.1-8.2,1.3-11.4,3.8c0.1,2.3,1.8,2.7,2.8,3.7c4.5,4.5,10.6,7.5,11.8,14.9c1,5.9,3.7,11,9.2,14.2
		c0.7,0.5,1,1.3,1,2.2l0,0c-1.4-0.1-2.4-1.1-3.6-1.7c-8-4.1-14.3-10.3-20.3-16.7c-1.7-1.8-3.5-3.5-6.1-4.1c-7.8-2-15.6-2.7-23.6-1.1
		c-5.8,1.2-8-0.2-8.2-5.9c-0.2-3.6-1.9-5.4-4.5-7.1c-2.2-1.5-5.1-2.4-6.4-5.5c6.3-2.5,12.4-3.7,18.8-2.3c2.1,0.5,4.8,1.3,6.3-0.1
		c3.8-3.6,7.8-7.7,8.5-13.1c0.9-7.9,2.3-15.7,4.2-23.4c1.7-6.4-0.4-9.9-7-12.4c-2.1,1.6-2.6,4.1-3.5,6.4c-1.4,3.7-3.3,6.9-7.4,8.2
		c-8,2.6-14.7,7.6-21.6,12.2c-3.2,2.1-4,4.6-3.2,8c0.5,2.1,1.3,4.1-0.1,6.1c-2.2,0.2-3.6-1.1-5.3-1.8c-5.8-2.4-11-6.2-16.9-8.4V346
		H0z M4,658c5.7-1.6,11.1-4.6,17.1-5c7.5-0.4,14.2-3.3,21-5.8c1.6-0.5,3-1.5,4-2.8c2.7-3.9,5.1-8,7.2-12.3c-1.2-1.2-2.3-0.6-3.5-0.5
		c-5.7,0.5-11.3,1.9-17.2,0.8c-4.1-0.8-8.4-2-12.8-1c-2.8,0.6-4.7,1.6-5.1,5c-0.8,6.9-3.4,13.1-9,17.7C4.6,655,4,656.5,4,658z
		 M173,211.5c-3.5,0.7-6.4,3-9.8,4.4c-6.6,2.7-12.9,5.8-20.3,6.4c-4.1,0.4-8.7-0.3-12.4,2.7c-6.8,5.3-14,10.1-21.5,14.5
		c-1.5,0.8-2.6,2.1-3,3.7c-2.2,8.2-4.2,16.4-4.8,24.9c-0.2,3.2-0.9,5.6-3.9,7.5s-5.5,4.3-8.2,6.4c-1.2,0.9-2.2,1.9-1.6,3.3
		c1.6,3.5,2.6,7.4,5.8,10.2c2.6-3.9,2.4-8.7,5.3-12.1c7,5.5,7.4,7.2,2.2,13.4c-4.1,4.7-5.6,9.5-3.1,15.5c2,4.7,1.9,9.4-1.1,13.8
		c-0.6,0.9-1.4,2-0.3,3.5c1.7,0.3,3.4-0.5,5.1-0.9c5.8-1.3,11.8-2.3,17.4-4.2c7.1-2.4,11.5,1.2,16.2,6c-3.6,2.6-7.1,4.9-10.2,7.6
		c-3.8,3.3-7.7,4.6-12.8,3.3c-5.3-1.4-9.9-0.2-13.3,5.1c-2.4,3.4-5.3,6.4-8.7,8.9c-2.7,2.1-4.8,5-8.4,6.1c-7.8,2.3-7.8,2.5-4.7,9.9
		c0.2,0.5,0.5,0.9,0.6,1.4c2.3,7.6,6.7,14.8,6.5,22.9c-0.2,7.4,1.3,13.7,6.1,19.3c1.2,1.4,2.2,2.9,3,4.6c1.6,3,3.4,3.7,6.9,2.3
		c4.7-1.9,9.5-4.1,14.6-4.8c16-2.1,32-3.9,47.1-10.2c7.3-3,7.7-2.7,7.4-10.6c-0.4-12.7,2.8-24.1,11.8-33.3c3.3-3.3,3.4-6.3,1.2-10.2
		c-1.5-2.7-3.9-5.4-3.5-8.6c9.9-0.9,13.2,8.4,20.3,13.3c0.3-10.6-2.4-19.5-4.6-29.2c4.3,2.1,7.8,3.8,10.1,7.3
		c2.4,3.8,5.1,7.4,7.5,11.2c1.2,2,2.6,2.4,4.6,1.2c3.1-2,6.2-3.9,9.3-5.9c1.5-0.8,2.5-2.3,2.4-4.1c-0.2-5,0.6-10-0.7-14.9
		c-2.3-8.8-3.4-17.7,1.4-26.1c7-12.4-0.8-36.1-15.3-40.7c-5.7-1.8-8.6-6-10.8-11.5c-3.2-8.2-8.5-15.3-16.4-19.4
		c-5-2.6-8.6-5.9-11-10.9C174.8,213.2,174,212.2,173,211.5z M156.1,621.1c0.4-3.5-1.1-7.3-1.7-11.2c-0.5-3.4-2.4-4.5-5.2-4.9
		c-6.4-1-12.9-2-18.8-4.8c-6-3.1-12.9-3.9-19.4-2.2c-6.4,1.7-13.2,3.2-18.1,7.8c-5.4,5.2-10.3,10.8-14.7,16.9
		c-9,12.4-20.2,22.5-32.5,31.3c-6.5,4.6-12.1,9.4-13.2,18.1c-0.4,3.3,0,5.4,2.6,7.3c4.8,3.6,9,7.9,12.7,12.7c2.8,3.6,6.1,6.5,11,7.1
		c3,0.5,5.9,1.2,8.7,2.1c1.3,0.5,2.6,0.6,3.9,0.3c8.1-2.2,16-4.7,23.2-9c4.6-2.7,9.2-5.4,13.9-7.9c15.2-8.1,28-19,39.7-31.5
		c0.8-0.8,1.5-1.8,1.9-2.9C153.2,641.1,156,631.7,156.1,621.1z M232.1,357.7c-1.4,7.2,2.1,13,4.5,19.2c1.8,4.6,4.5,6.9,9.2,7.7
		c6.9,1.2,6,3.2,9.6-4.6c3.3-7.2,7.4-13.6,14.2-18.3c2.8-1.8,5.1-4.4,6.5-7.4c3.3-8.3,7.1-16.5,6-25.9c0-1.5,0.1-3,0.5-4.4
		c1.7-10.5-1-20.8-1.9-31.2c-5.2-6.5-8.4-14.8-17.8-17c-7.4-1.7-14.6-4.5-22.1-6c-4.3-0.9-6.3,0.9-5.5,5.3c0.3,1.5,0.9,2.9,1.3,4.3
		c1.2,5.1,3.8,10.1,1.5,15.6c-3,7-1.9,14,0.7,20.9c0.7,1.5,1.2,3.1,1.5,4.8c1.1,7.8,2.4,15.5-3.3,22.3
		C233.2,347,230.5,351.8,232.1,357.7z M147.8,595.9c6.7-7.4,11.1-15.1,11.3-24.8c0.1-3.5-0.6-6.3-3.2-9c-3-3.1-6.9-5.2-11.2-6
		c-1.7-0.3-3.8-0.3-5-2.6c5.2-1.4,10-2.7,14.9-3.5c4.5-0.8,9-1.3,13-4.5c8.1-6.3,15.2-13.9,20.9-22.5c1.4-1.9,1.6-4.5,0.4-6.5
		c-3.8-7.6-7.3-15.2-14.8-20.2c-5-3.3-6.7-3.9-11,0.4c-5.6,5.6-11.3,11.2-16.5,17.3c-8.3,10-14.5,20.6-13.5,34.2c0.1,2-0.7,4-2,5.4
		c-6,7.6-13.4,13.9-21.7,18.8c-6.1,3.7-6.7,10-8.6,16.4C118.3,579.6,132.9,588.3,147.8,595.9z M225.2,256.6
		c2.5-5.7,6.4-9.7,5.7-15.3c-0.9-7.3-2-14.5-7.2-20.3c-1.3-1.7-2.5-3.5-3.4-5.5c-0.7-1.3-1.9-2.4-3.2-3c-8.6-4.4-17.5-7-27.3-4.5
		c-1.5,0.2-2.7,1.4-2.8,2.9c-0.7,3.9,1.7,5.9,4.4,7.6c6.9,4.4,12.6,10.4,16.5,17.5C212.1,243.7,218.3,249.7,225.2,256.6L225.2,256.6
		z M212.4,567.5c11.3-2.2,21.1-6.3,30.4-11.5c1-0.6,1.9-1.3,2.6-2.3c2.8-4,5.4-8,8.1-12c1.1-1.7,1.4-3.2-0.3-4.9
		c-6.8-7-13.9-13.8-21.8-19.7c-0.8-0.8-2.2-0.8-3,0l-0.1,0.1c-0.2,7.7-1,15.7,2.2,23.6c2.5,6.2,2.4,6.9-3.9,9.2
		C218.4,553.2,215.1,559.5,212.4,567.5z M201.7,528.6c-1.7,0-3.4,0.6-4.7,1.9c-7.7,6.1-14.7,12.9-21.8,19.7s-8.5,15.4-7.9,24.2
		c0.8,11.7,1.5,11.3,13.1,11.7c4.9,0.2,7.2-1.7,8.9-5.9c3.6-9,3.8-9-4.2-14.5c-2.7-1.9-3.4-4-2.9-7.2c0.9-6.9,2.7-12.9,10.5-15
		c0.9-0.2,1.6-1.3,2.5-1.5C202,539.8,201.4,534.3,201.7,528.6L201.7,528.6z M309.7,113.6c0,5.9,0.9,7.2,6.2,15.9
		c4,6.6,9,10.4,16.5,12.8s12.6-0.6,18.4-4.2c-1.2-3.5-3.8-5.8-5.3-8.6c-2.1-4-5.9-6.9-10.4-7.7c-6-1.3-11.6-3.8-17.5-5.8
		C315,115.2,312.7,113.3,309.7,113.6L309.7,113.6z M214,535.3c-7.9,6-10.7,13.8-11.5,23.3c6-2.3,9-7.5,13.5-10.6
		c1.1-0.8,1.1-2.5,0.7-3.8C215.9,541.5,215.7,538.4,214,535.3z M71,411.3c-2.3,4.5-2.5,12-0.6,16.1c4.8-1.2,9.3-3.6,13.1-6.8
		C79.7,417.1,75.5,414,71,411.3L71,411.3z M256.5,517.1c5.1-1.3,9-4.3,13.2-6.8c0.5-0.4,0.9-1,1-1.6c0.2-3.7,0.9-7.4-0.7-11.5
		C262.7,502.3,259.8,509.7,256.5,517.1z"/>
	<path class="st3" d="M0,805c2.3,0.2,3.7-1.3,5.1-2.6c2.9-2.7,5.8-3.9,9.8-1.7c2.3,1.3,5.1,3.5,8,2c4.3-2.2,8.8-4.3,12.1-7.8
		c2-2.1,1.7-5.6,2.6-8.5c0.7-2.2,1.2-4.5,1.8-6.9c4.3,0.7,7,3.7,10.1,5.7c0.8,0.6,1.5,1.3,2.2,2c5.7,4.5,5.4,3.9,12.2,0.7
		c7.6-3.6,11.4-10.5,16.5-16.2c1.3-1.4,2.2-3,4.5-2.1c2,0.6,3.2,2.5,3,4.6c0,0.2,0,0.3,0,0.5c-0.2,14.4,1.8,11.6-10.2,16.1
		c-4.3,1.8-8.7,3.2-13.2,4.4c-4.1,0.9-6.9,3.2-9.5,6.6c-4.7,6.2-6.9,13.1-7.8,20.6c-0.3,2.2,0.1,4.4,1.2,6.2
		c5.8,9.8,13.3,18.2,20.7,26.8c1.1,1.3,2.4,1.8,4,0.8c1.8-1.1,3.3-2.3,2.5-4.8c-1-3.2-1.7-6.5-2.9-9.6c-1.1-2.9-0.3-4.6,2.5-6
		c6.2-3,11.5-6.8,15.2-13c2.3-3.9,3.8-7.5,3.7-12c-0.2-6.8-0.1-7.2,6.4-8c9.6-1.3,15.3-8,21.3-14.4c0.8-0.8,1.4-1.9,2.2-2.7
		c0.8-0.6,1.6-1.2,2.4-1.7c6.3,14.1,11.7,28.7,27.3,34.3c0.1,5.6-3.9,9.2-4.1,14c6.9,2.2,14.3,2.3,21.3,0.3
		c6.3-1.7,12.9-1.2,19.3-2.4c3.6-0.7,6.2,0.4,6.9,4.5c0.4,1.3,0.8,2.5,1.4,3.7c2.1-0.5,1.9-2.3,2.4-3.6c2.5-6.7,4.9-13.4,7.3-20.2
		c0.7-2.3,2.4-4.1,4.6-4.8c11.1-4,22.1-8.4,33.4-11.8c0.7-0.4,1.6-0.2,2.2,0.3c-0.9,4.4-3.3,8.5-5.4,12.4c-3.9,7.3-3,14.4-1,21.8
		c0.3,1.1,1,2.1,2,2.8c6.3,4,12.3,8.4,19.8,10.3c7.2,1.8,14.3,4.3,21,7.5c-1.8,3-4.7,3.6-7.1,4.8c-2.9,1.4-4.8,3-5.1,6.6
		c-0.6,7.3-3.3,13.7-8.9,18.9c-2.6,2.4-3.4,5.4-1.5,9c1.3,2.4,2.7,5,2.6,8h-56c3.6-5,8.5-8.8,12.7-13.3c1.3-1.4,2.6-2.6,1.6-4.8
		c-1.6-3.5-3.1-7-4.7-10.4c-0.5-1.3-1.6-2.2-2.9-2.5c-6.1-1.5-12.2-3.3-16.8,3.5c-1.4,2.2-3.7,3.8-5.6,5.7c-1.1,1-1.9,2.3-2.3,3.7
		c-1.8,5.9-3.5,11.8-3.1,18h-38c-1.7-2.5-0.6-4.1,1.8-5c2.9-1.1,4.5-3.3,5.6-6c0.9-2.5,2-4.9,3.2-7.3c1.4-2.6,1.2-4.7-1.1-6.6
		c-7.3-5.9-11.6-13.9-15.8-22.1c-2.8-5.6-6.8-10.7-10.2-16c-0.5-1.1-1.6-1.7-2.7-1.6c-2.8,1.7-5.9,3.6-9.1,5.5
		c-2.3,1.3-3.3,3.3-4.2,5.8c-3.1,8.9-2.5,18.1-2.5,27.2c0,5.2-1.3,10-3,15.2c-4.1-1-7.9-1.7-11.4-2.9s-5.7,0-7.7,2.7
		c-1.1,1.5-2.2,2.9-3.4,4.3c-1,1.4-2.7,2.1-4.4,1.9c-3.1-0.4-6.3-0.7-9.4-1.2s-4.3-2.2-3.4-5.3c0.6-2.1,0.6-4.3,1.2-6.4
		c1-3.8-0.2-6.6-2.5-9.6c-6.2-8.2-13.4-15.7-21.4-22.2c-3.7-3.1-8.1-5.2-12.9-6c-0.3,1-0.4,2-0.5,3c0,10.8-0.3,21.7,0.1,32.5
		c0.2,6.2,0.8,12.6,5.9,17.4c0.7,0.9,1.4,1.9,1.9,2.9H8c0.9-3.1,0.6-6.1-0.1-9.2c-1.4-7-3.6-13.1-7.9-18.3v-2
		c6-4.4,12.1-8.7,15.9-15.4c1.7-3,3.9-5.8,5.5-8.9c2.5-5.1,3.4-10.7,4.5-16.2c0.1-1.3-0.3-2.7-1.1-3.8c-4.5-8-6.7-9-15.7-7.5
		c-0.8,0.1-1.6,0.4-2.4,0.6c-2.7,0.5-4.4-0.2-5.1-3.2c-0.4-1.9-0.2-4-1.5-5.7L0,805z M92,850.1c6.8-6.9,14.5-12,16.5-21.5
		c0.5-2.4,2.8-4.6,2.1-7.1c-1.7-5.5-5.8-9.5-9.6-14.6c-1.8,5.4,0.4,9,1.6,12.7c2.1,6.7,1.9,7.6-3.5,11.8c-0.5,0.4-1.1,0.7-1.7,1.1
		C91.2,836.6,89.9,842.2,92,850.1z M167.1,843.2c-5.3-0.2-5.4-0.1-6,5.2c-0.1,1.1-0.5,2.3-0.6,3.4c-0.2,2-1.4,4.8,1.3,5.7
		c3,0.9,6.5,3,9.4,0.2c2.6-2.7,5-5.8,7-9c1.2-1.8,1.2-4-1.8-4.4S170.2,843.5,167.1,843.2L167.1,843.2z"/>
	<path class="st3" d="M328,900c1.7-3.7,6-3.9,8.7-6.3c1.2-1.1,3.1-1.2,4.1-3.2c-1.2-4.1-4.5-7.4-6.3-11.4c5.4-4,9.9-1.1,14.8,1.7
		c2.9-4.5,4.8-9.5,5.6-14.8c0.6-3.9,0.1-8,0.1-12c0-1.2,0-2.4-0.9-3.3c-2.3-2.3-13.3-2.6-15.2,0c-5.6,7.5-14,9.8-22.1,12.8
		c-1.4,0.4-3,0.4-4.4-0.2c-2.7-0.9-5.4-1.7-8.1-2.4c-6.6-1.8-7.2-2.9-5.5-10.2c3.3-0.5,6.5,0.8,9.5,1.8c4,1.3,6.5,0,8.9-3.2
		c7.6-9.7,11.6-20.8,13.6-32.8c0.8-4.5-2.5-7.1-4.9-9.9c-3.7-4-7.2-8.3-10.4-12.7c-3.8-5.5-5.3-11.1-0.3-16.8
		c0.6-0.7,0.8-1.9,1.5-2.6c5.5-5.3,3.3-10.3,0-15.9c-4.9-8.5-13-13.1-20.3-18.6c6.2-4.2,13.9-3.5,18.7,1.8c1.9,2.1,3.5,4.5,5.4,6.5
		c2,2.4,5.2,3.3,8.1,2.3c5.5-1.5,10.7,0.1,16.8,1.4c-2.3,2.5-5.1,4.5-8.2,5.9c-3.8,1.8-4.6,4.7-4.2,8.6c0.7,6.4,1.8,12.4,8.4,15.8
		c2.7,1.4,2.7,4.3,2.2,7.1c-1.6,8.8,0,16.8,5.7,23.9c2.3,2.8,3.8,6.2,7.3,9c6.9-5.3,14-10.5,24-8.6c-0.5,4-3.2,6.8-5.4,9.2
		c-5,5.6-4.9,12.5-6.2,19.1c-0.1,0.5,0,1,0.1,1.5c1,4.7,11,13.8,15.7,14.6c10,1.7,9.5,1.8,9-8c-0.3-5.7,3.3-8.8,6.2-12.5
		c1.3-1.7,3.1-3,4.2-4.9c1.8-2.9,6.3-4.8,5.3-8.5c-1.4-4.9-3-9.9-6.7-13.8c-1.6-1.7-3.4-3.2-4.9-5c-3-3.5-2.6-6.2,1.4-8.4
		c6.6-3.7,7.6-5.2,4.2-11.7c-3.5-6.7-1.2-11.2,3.5-15.7c4.7-4.2,7.4-10.2,7.6-16.5c-2.1-0.9-3.4,0.5-4.8,1.2
		c-6.6,3.2-13.2,6.4-19.7,9.8c-2.7,1.7-6,2-9,1.1c-7.4-2.5-15.3-3.5-23.1-3.1c-1.8,0.1-4.2,0.7-4.8-2.2c-0.5-2.6,1.5-7.4,3.5-8
		c1.9-0.5,3.9-0.9,5.9-1.1c6.3-0.6,11.6-3.9,17.4-6.4c2,3.7,1.5,7.8,3.6,11c1.8,0.5,2.9-0.5,4.1-1.5s1.8-2.2,2.9-2.7
		c7.4-3.8,7-10,5.1-16.6c-1-3.3-0.3-5.9,2-8.7c4.9-6.2,10.8-11.3,16.2-17c3.6-3.7,8.9-3.3,13.3-5.3c4.1-1.9,7.4-1.2,10.3,2.4
		c-1.8,3.1-5.1,4.6-7.8,6.6c-3.6,2.7-7,5.6-10.5,8.4c-1.1,0.9-2.2,1.8-2,3.2c0.6,4.6,1.7,9.2,3.3,13.5c0.5,1.5,2.2,1.3,3.5,1.3
		c11.8,0.3,23.3-0.3,33.7-6.8c4.7-2.9,9.9-4.4,16.1-6.1c-2.2,6-3.7,11.5-7.3,15.8c-7.3,8.6-15.2,16.7-22.4,25.4
		c-1.4,1.6-2.8,3.3-4,5.1c-3.6,6-8,11.5-13.2,16.2c-1.2,1.1-2.7,2.1-2.6,4.1c1.1,1.7,3,2,4.7,2.3c4.7,1.1,8.1,3.9,10.9,7.5
		c4.6,5.9,10,11.2,15.9,15.8c4.6,3.6,10.5,2.1,12.7-3.4c1.6-4,1.9-8.4,4.3-12.6c3.7,2.2,5,6.2,7.8,8.9c6.8,6.4,14.1,11.5,24.2,9.3
		c2.4-0.5,4.8-0.9,7.8-1.5c-1.3,4.2-3.1,7.2-6.6,8.9s-6.9,3.3-10.5,4.7c-2.7,1.1-3.5,3-3.6,5.8c-0.4,6.7,0.4,12.9,4.9,18.3
		c4.2,5.1,5,11.5,6,17.7c1,6,4,11.3,6,16.9c0.5,1.5,1.9,2.3,3.1,3.2c2.4,1.8,4.8,3.6,7.1,5.4h-33c-1.5-5.1-1.3-10.6,0.6-15.7
		c1-3.2,1.6-6.5,2.7-9.6c1-2.5,0.4-5.4-1.5-7.4c-5-5.8-9.4-12.1-13.2-18.7c-3.1-5.5-7.8-7.7-13.5-9.1c-0.7,1.7,0,3.2,0.4,4.5
		c1.8,5.7,2.1,11.8,0.9,17.7c-0.7,3.3-0.4,6.7,0.8,9.8c3.5,9,4.8,18.7,3.9,28.4h-18c-0.4-0.7-0.5-1.8-1.1-2.2
		c-4.3-2.5-5.6-6.2-5.1-10.9c0.3-2.6-1.8-3.6-3.7-4.8s-4.8-1.5-5.7-4c1.2-2.1,3.2-2.4,4.9-2.7c4.7-1,6.6-3.9,7.8-8.5
		c3.4-12.9,1.2-25.9,1.8-38.8c0.1-2.2-1.3-3.2-3.2-3.8c-7.6-2.6-15.1-3.3-22.9-0.4c-2.7,1-3.8,2.3-3.7,5c0.1,4.7-0.3,9.4,0.1,14
		c0.4,4.2,0.6,8.5,2.7,12.7c5.5-2.3,9.5-7,16.2-8.6c-1.4,5.2-1.5,9.8-4.8,13.5c-1.9,2.1-3.6,4.4-1.5,7.5c-7,3-13.6,6.8-19.6,11.3
		c2.5,6.5,4.9,12.4,11.1,15.8c1.9,1,3.7,2.4,3.8,4.9h-31c-2.8-4.4-6.4-7.9-11.5-9.2c-3.7-0.8-7.4-1.3-11.2-1.7
		c-2.9-0.4-4.3,0.9-4.2,3.9c0.1,2.3,0,4.6-0.1,6.9L328,900z"/>
	<path class="st3" d="M670,206c-4.4,0.2-7.3,2.2-7.5,6.9c-0.2,8.9-4.8,15.5-10.5,21.9c-2.2,2.4-4.2,3.6-7.2,3.2
		c-7.5-1-15.3-0.9-22.3-4.7c-1.5-0.8-3-1.4-4.7-1.8c-6.3-1.6-10.3,0.8-12,7c-0.7,2.7-1.6,5.4-2.5,8.1c-4.9-0.1-8.8-3-14.2-3.3
		c2.3,6.2,2,12.6,8,16.7c5.4,3.6,5.3,3.9,3.4,10.3c-0.6,2.1-1,4.2-2.4,6c-0.4,0.1-0.8,0.3-1,0.2c-5.3-3.5-10-2.1-14.6,1.5
		c-2.4,1.8-5.5,2.6-8.5,2.1c-6.8-0.7-13.7,0.9-19.5,4.6c-3.7,2.5-8.2,3.7-12.7,3.5c-3.9-0.2-6.8,2.5-9.8,4.5c-6,3.9-5.8,3.6-12,0.1
		c-6-3.4-10.1-8.6-14.4-13.6c-3.7-4.3-3.2-8.6,1.5-15.4c2.2,3.1,3.4,6.5,4.6,9.8c0.7,2.1,2.5,3.6,4.6,4c6,1.6,11.8,1.8,17.4-1.4
		c4.1-2.3,7.9-2.1,11.5,0.9c3,2.5,5,1.8,7.4-1.1c4.9-6.3,9.3-13,13.2-20c1.6-2.8,0.4-5.1-0.9-7.5c-4.5-8.2-4.4-8,3.2-13.4
		c5.2-3.7,11.2-3.1,16.8-3.7c5.3-0.6,9.2-3.1,13.2-5.9c-0.7-2-2.3-2.4-3.6-2.9c-8-2.7-13.4-8.4-17.4-15.5c-1.2-2.4-3.5-4.1-6.1-4.7
		c-7.5-1.4-12.5-6.5-16.9-12.3c-4-5.3-6.6-11.6-11.8-16c-1.8-1.5-3.5-3-5.4-4.4c-3.6-2.7-4.9-6.2-3.8-10.5c0.5-2.1,0.2-4.3,1.5-6.3
		c2.2,0,2.6,1.9,3.4,3.2c8.4,13.1,19.7,23.8,28.9,36.2c1.4,1.9,2.8,1.8,4.7,0.6c2.9-1.8,5.5-4.3,9.3-5.4c2.3,3.3,2.5,7.6,4.6,11
		c7.5-0.5,13.9-4.6,21.1-6.2c2,2.4,1.4,5,1.2,7.4c-0.7,6.5,2.5,11.5,5.7,16.6c1.5,2.3,4,2.5,6.2,2.6c6.4,0.3,12.5,2.2,17.9,5.6
		c5.4,3.5,8.1-1,11.7-3.3s2.9-5.2,1.4-7.9c-6.2-11.3,7.2-29.5,19.1-30.2V206H670z"/>
	<path class="st3" d="M547,900c1-8.4-1.8-16.1-4.1-23.9c-0.8-2.7-2-4.2-5.2-4.2s-6.5-0.8-10.5-1.4c4-8.5,8.9-16.7,14.5-24.2
		c3.2,2.8,4.5,6.5,5.8,9.9c2.4,6.2,7.8,9.3,12.8,12.8c3.5,2.4,6.3-0.3,9.1-1.9s1-3.8,0.5-5.8c-0.7-2.7-1.6-5.4-2.4-8.1
		s-2.4-3.5-4.9-3c-1,0.2-1.9,0.5-2.9,0.7c-5.3,0.8-6.8,0.3-7.5-5.1c-1.1-8-4.1-12.4-13.2-12.2c-6.5,0.2-12.1-3.8-17.9-7.3
		c2.2-4.2,6.3-5.8,9.1-8.7c0.9-0.9,2.2-0.2,3.3,0.1c6.9,1.9,13.8,3.7,20.7,5.7c4.5,1.3,6.5,5.7,9.1,8.9c3,3.9,5.9,4.2,9.8,2.5
		c0.8-0.3,1.6-0.5,2.4-0.8c7.3-2.4,7.2-2.4,11.8,3.8c1.4,1.9,1.6,3.5,0.5,5.5c-0.3,0.8-0.7,1.5-1.1,2.2c-5.6,6.4-4.9,14.2-4.8,21.8
		c-0.1,2.2,0.9,4.3,2.7,5.5c2.8,2,5.3,4.6,8.3,6.4c3.4,2,4.3,4.7,4.1,8.3c-0.2,4.2-0.1,8.3-0.1,12.5h-10c-1.4-8.7-9-8.8-15.2-11.8
		c-1.4,4.3-0.6,8.1-0.8,11.8H547z"/>
	<path class="st3" d="M27,0c4.2,2.9,8.7,5.4,13.8,4.9C54,3.7,65.3,8.4,76.1,15.1c7.4,4.5,14.5,9.4,21.4,14.7
		c2.1,1.6,3.6,3.9,4.1,6.5c2.1,8.4,4,16.8,5.4,25.4c0.7,4.2,3.3,7.4,6.9,10.8c2.4-5.6,4.5-10.6,5.1-16.1c0.8-9,2.4-18,4.9-26.7
		c2.8,5.9,6,10.7,4.9,16.5c-1.5,8.1-2.3,16-0.9,24.2c1.2,6.8-2.5,12.6-4.8,18.6c-0.8,2-2.6,2.2-4.2,1.9c-8.8-2-13.5,3-17.4,9.8
		c-0.8,1.4-1.5,3-3.2,3.8c-5.1-3.2-5.9-5.9-3.2-10.8C101,82.9,101,82,92.7,72.5c-3.5-4-7-8.1-12.1-10.2c-1.1-0.3-1.9-1.3-2.1-2.4
		c2.1-2.4,5.4-3.3,8.3-4.7c2.7-1.3,3.5-3.3,2.9-6.1c-0.4-1.8-0.6-3.6-0.9-5.4c-1.9-9.7-8-16.3-16.6-20.2c-7-3.1-14.3-5.4-20.6-10
		c-2.6-2-5.6-1.8-8.6-1c-7.6,1.9-15.2,3.8-22.9,5c-6.5,1-11.4-2.9-17-4.8c-1.1-0.4-1-2-1.4-3.1C0.9,7.8,1.4,5.7,0,4V0H27z"/>
	<path class="st3" d="M233,19c9.7,2.3,17,8.7,24.4,14.8c3.9,3.2,7.7,6.6,12.6,9.5c2.7-4.5,3.4-9,3.9-13.5c0.2-1.4-1.1-2.3-2.2-3.1
		c-3-2.1-5.1-5.2-8.5-7.1c2.3-3.1,5.3-5.5,8.9-7c3.6-1.6,6.4,2.5,10.5,1.8c1.8-4.6,3-9.5,3.5-14.4h7c1.7,6.6,5.5,12.4,8,18.8
		c1,2.3,0.9,4.9-0.5,7c-4.5,7.7-9.1,15.4-14.1,22.8c-2.2,3.2-4.6,5.5-8.6,6c-1.3,0.1-2.6,0.5-3.9,1c-5.5,2.6-9.2,0.3-12.9-4
		c-8.3-9.7-16.2-19.7-25.5-28.5C234.5,21.9,233.1,20.8,233,19L233,19z"/>
	<path class="st3" d="M415,0c0.1,0.5,0.2,1,0.4,1.4c4.8,6.8,7.7,14.8,8.4,23.1c0.3,3,1.9,4.7,4.1,6.5c3.1,2.4,6.3,4.7,8.9,7.9
		c-6.5,7.7-14.9,10.7-24.1,12c-1.2,0.2-2.4-0.3-3-1.4c-4-5.7-8-11.4-12-17.2c-0.2-0.4-0.2-0.9-0.3-1.5c3.2-3.4,8.4-0.3,11.9-3.7
		c-1.5-4.2-3.7-8-8.9-8.4c-8-0.5-12.1-5-13.6-12.5c-0.4-2.1-2-3.9-1.8-6.2L415,0z"/>
	<path class="st3" d="M670,635c-0.2-0.3-0.5-0.5-0.5-0.8c-0.1-7.6-4.6-11.8-11-15c-3.1-1.6-6-3.6-8.7-5.8c-3.2-2.4-6.4-2.8-10.3-1.8
		c-11.3,2.8-11.2,2.7-17.5-7.1c-1.7-2.7-2-5.4-1.6-8.5c1-8,4.3-14.9,8.4-21.6c1.9-3.2,4.8-4.8,9.3-6.4c-4.3,12.3-6.8,23.8,0.6,35.5
		c7.7-0.5,14.3-5.2,21.9-7.3c3.7,2.8,3.7,8.1,7.6,10.7c1.3-1,0.5-2.9,1.8-3.9V635z"/>
	<path class="st3" d="M495,0c2.5,2,4.9,4,7.4,5.8s2.9,3.9,2.2,6.5c-0.3,1.1-0.6,2.2-0.8,3.4c-0.4,1.9-1.9,4.2,0.2,5.5
		c2.4,1.4,5.3,1.2,7.5-0.5c2-1.4,4-2.9,6.3-4.6c3.2,4.6,4.1,9.8,5.9,14.2c-0.8,1.2-2.2,1.8-3.6,1.6c-6.5-0.3-13,0.3-19.3,1.8
		c-2.3,0.6-3.7-0.5-4.8-2.5c-2.4-4.2-4.6-8.5-7.6-12.3c-4.4-5.3-6.4-12.2-5.5-19L495,0L495,0z"/>
	<path class="st3" d="M670,549c-1.5,0.2-2.9,1-3.8,2.2c-4.6,5-10.8,5.1-16.9,5.8c-3.2,0.5-6.4-0.9-8.3-3.5c-1.8-2.3-3.7-4.7-5.8-7.3
		c5-4.1,10.6-7.5,16.6-10c1.2-0.6,2.4-1.1,3.7-1.5c5.1-1.2,9.4-4.7,11.6-9.4c0.6-1.4,1.6-2.6,2.9-3.4V549z"/>
	<path class="st3" d="M348,0c6.6-0.1,9.9,4.7,12.7,9.4c3.6,6.2,8.8,9.2,15.7,9.6c1.7-0.1,3.3,0.8,4.2,2.2c-1.9,4.2-3.2,9-6.6,13.7
		c-15.8-7.5-24.8-21.3-34-35L348,0z"/>
	<path class="st3" d="M0,133c3.1,0.6,6,2.4,7.9,4.9c7.1,8.5,16.9,9.6,26.7,11.4c4,0.7,8.3,0,12.1,2.2c-6.2,6-13.5,5.3-21,4.3
		s-13.3-5.9-19.8-8.9c-1.5-0.7-1.6-2.4-2.3-3.7c-1.3-2.3-1.4-5.2-3.5-7.1V133H0z"/>
	<path class="st3" d="M670,337c-2.4-8.4-8.4-14.4-14.1-20.6c-1.8-1.9-2.7-11.6-1.5-13.9c0.9-1.7,2.5-1.5,3.9-1.3
		c4.3,0.6,8.5,1.5,11.7,4.9L670,337L670,337z"/>
	<path class="st3" d="M0,253c5.2,0.8,8.8,4.3,12.9,7.1c1.3,0.9,1.2,2.3,0.7,3.6C11,271.7,6.9,278.8,0,284V253z"/>
	<path class="st3" d="M670,842c-9.5-2.3-13.5-13.1-7.3-20.1c3.7-4.1,6-8.6,6.3-14.1c0-1,0.4-2,1-2.8V842z"/>
	<path class="st3" d="M609,0c1.9,5,5.9,8.7,7.8,13.6c-1.5,1.8-3.5,1.9-5.2,2.2c-4.8,0.9-6.1,0.3-7.8-4.5C602.4,7.6,600.5,4,600,0
		H609z"/>
	<path class="st3" d="M670,127c-3.9-2.4-6.5-6.2-8.9-9.8c-2.1-3.1-1.3-6.9-0.5-10.4c3.8-0.4,5.9,3.5,9.4,3.2V127z"/>
	<path class="st3" d="M453,0c2.6,2,5.8,2.4,8.6,3.8c1.8,0.9,2.9,2,1.6,3.8c-1.1,1.6-2.4,4.4-5,2.6c-4-3-8.5-5.7-11.2-10.2H453z"/>
	<path class="st3" d="M196,0c0.2,0.2,0.5,0.4,0.8,0.6c8,3.5,8,3.5,5.3,13.1C197.8,9.6,194.1,5,191,0H196z"/>
	<path class="st3" d="M427.9,492.4c3.5,0.8,4.6,2.8,6.1,4.2c8.9,8.5,16.8,18,27.6,24.4c3.1,1.8,5.4,2.3,7.7-0.8
		c0.5-0.7,1.1-1.3,1.8-1.8c4.9-3.6,6.9-8.4,5.9-14.3c-0.9-5.5,1.3-9,6.1-11.7c5.5-3.1,10.4-7.1,15.7-10.6c2.2-1.4,3.3-3,3.2-5.7
		c-0.1-3.3,0.9-6.5,1.1-9.9c0.3-3.7,3.4-6.1,5.8-8.5c4.7-4.8,6.8-9.3,3-16c-3.5-6.4-2.9-6.5-10.4-6.8c-5-0.3-10,0.8-14.3,3.4
		c-2.2,1.5-4.6,2.6-7.2,3.3c-1.1-1.6,0.4-2.2,0.9-3.1c2.8-4.5,5.5-9.1,8.6-13.5s2.9-8.6,0.7-13.3c-3.9-0.2-7.6,0.8-11.2,1.7
		s-5.6-0.3-7.3-3.2c-3.7-6-8.6-11.1-14.3-15.1c-0.6-0.3-1.2-0.5-1.8-0.7c-3.1,2.7-1.9,7.2-4.9,10.4c-6-3.7-12.4-5.9-16.1-13.5
		c-3.8-7.8-3.3-14.1,0.7-21c0.6-1,1.1-2,1.7-3c0.1-0.2,0.5-0.3,0.8-0.4c0.3,0.2,0.8,0.3,0.8,0.5c1.1,7.3,6.5,10.1,12.4,12.9
		c5.3,2.5,9,7.3,13.4,11c3.7,3.3,7.3,6.9,10.6,10.5c1.7,1.9,4.3,2.7,6.8,1.8c6.1-1.7,12.1-3.5,17.8-6.4c2.6-1.4,5.1-3.1,8.8-3.7
		c0.3,6.2,1.9,12.2-1.7,17.5c-4.1,6-3.8,10.7,1.5,16c4,4,8.2,7.3,13.3,9.4c4.7,1.7,8.6,5.1,11,9.6c2.3,4.5,6.7,6.9,10.7,9.5
		s7.5,6,10.3,9.9c6.9,9.7,6.9,9.9,18.8,10.5c3.8,0.2,6.3,1.5,8.2,5.2c-3.9,2.7-8,5.1-12.3,7.1c-1.5,0.7-2.6,0-3.6-1
		c-1.4-1.2-2.7-2.5-3.8-4c-4.9-7.5-12.5-11.9-20-16.2c-4.3-2.5-10.8-1.4-14.7,2.1c-0.1,0.1-0.2,0.3-0.4,0.3
		c-8.2,3.9-8.5,11.5-8.9,19c-0.2,3.6,0.3,7.2-0.5,10.9c-3.8,0.3-7-1.1-10.1-1.9c-3.8-1-6.9,0.1-10.4,1.6c-8.9,3.7-8.9,11.4-9.9,18.9
		c-0.2,0.7-0.1,1.4,0.2,2c3.6,5.3,6.6,11,13.3,13.5s13.4,2.2,20,0.3c3.6-1,6.1,0,8.7,2.1s4.8,4.2,7.3,6c5.5,4.1,11.3,5.8,18.2,3.4
		c12.1-4.2,12.1-4,20.6,5.5c0.7,0.6,1.2,1.6,1.1,2.6c-1.6,3.5-5.6,5-8.5,7.7c-1.2,1.1-2.5,0-3.7-0.5c-2.8-1.4-5.7-2.8-8.5-4.2
		c-6.8-3.4-14-3.4-21.4-3.1c-6.6,0.2-10,3.1-10.8,9.4c-0.3,1.1-0.8,2.1-1.3,3c-2.7-1.7-4.1-4.1-5.6-6.4c-2.5-4-5.9-6.6-10.8-7.2
		c-1.1-0.1-2.2-0.6-3.4-0.8c-4.2-0.4-8-2.6-10.6-6c-3.5-4.8-8.2-7.3-14-7.1c-7.5,0.3-12.9-4-18.5-7.8c-8.6-5.7-15.9-13-23.9-19.5
		C428.4,506.1,429.6,499.2,427.9,492.4z"/>
	<path class="st3" d="M448,286.6c-7.7-0.1-15.3-4-24.4-1.9c6,5.7,9.4,12.6,18.3,13.5c9.4,0.9,16.9,5.5,23.5,13.1
		c-2.7,2.3-6,3.4-9.1,4.9c-1.4,0.7-2.6,0.1-3.8-0.5c-2-1-4-1.8-5.8-2.9c-8.6-5.2-17.6-4.6-26.9-2.1c-7.2,1.9-13.4,4.6-17.5,11.3
		c-2.4,4-6.8,4.4-11,4.9c-1.7,0.4-3.4-0.7-3.7-2.4v-0.1c-0.2-0.6-0.5-1.2-0.7-1.9c-3.3-13.2-13.8-16.6-25.3-18.5
		c-6.2-1-12.6-0.7-19-2.5c0.5-3.1,2.4-5.4,4-7.8c1-1.5,2.4-1.5,4-1.2c3.7,0.8,7.6,1.2,11.3,2.1c4.9,1.3,9.6-0.1,14.3-0.9
		c3-0.5,3.3-3.9,4.4-6.3c5.6-11.9,9.4-24.6,11.4-37.6c0.1-0.6,0.3-1.3,0.5-2.1c9.9,3,10.6,12.4,14,19.8c2.4-0.3,4.7-0.1,6.6-0.8
		c6-2.1,11.6-1.4,17.2,1.6c4.1,2.2,8.5,3.8,12.7,5.8C449.6,277.3,450.3,279,448,286.6z M418.7,297.5c-2.4-4.7-3.8-9.7-9.9-10.3
		c-3-0.2-5.9-0.5-8.9-1.1c-1.5-0.3-3.3-0.3-3.9,1.3c-1.5,3.9-4.4,7.4-4.3,12.1C401.1,302.5,409.9,302.5,418.7,297.5L418.7,297.5z"/>
	<path class="st3" d="M661,342c-2.8,0.5-5.4-1.8-8.8-0.1c0.5,7.1,4.1,14.6-1.5,22c-6.1-1.9-12.8-3.3-19-6c-0.2-0.1-0.3-0.1-0.5-0.2
		c-7.7-4.8-15-5.2-23.7-1.3c-7.9,3.4-16.7,3.8-24.8,1.2c-7.3-2.3-14.5-4.9-21.5-8c-6.9-2.9-11.9-8-17.7-13.9
		c5.8-0.4,10.3,0.8,14.7,1.5c8,1.3,16.1,2.5,23.6,5.9c4.4,2,9.4,2.4,14.1,1.3c3.4-0.7,7,0,10.4-0.6c2.2-0.4,5.8,0.4,6.3-2.8
		c0.5-3.5,1.5-7.5-1.8-10.4c-5.1-4.5-10-9.3-15.5-13.3c-0.3-0.2-0.6-0.4-0.8-0.5c-8.4-4.1-8.6-11.6-7.3-19.1c0.8-5.1,5.4-8.1,8-12.4
		c5.7,1.6,10,4,10.6,10.1c0.9,8.5,5.4,15.3,10.8,21.5c3.2,3.6,7.6,5.9,11.8,8.2c2.5,1.4,5.5,0.3,7.5-1.4s3.8-1.3,5.9-0.3
		c5.1,2.3,9.9,4.8,12.8,9.9C656.4,336.4,660,338.2,661,342L661,342z"/>
	<path class="st3" d="M399.5,608c-3.7,4.1-7.7,7.5-12.6,9.5c-7.8,3-14.3,8.7-18.3,16c-4.2,7.2-12.1,10.7-18.6,15.5
		c-3.5,2.5-7.3,4.6-11,6.8c-2.2,1.2-3.8,3.2-4.6,5.6c-2.6,7.4-6,14.5-9.9,21.2c-3.6,6-4.1,6.5-11.5,4.8c-0.6-2.1,0.4-4,1.3-5.6
		c5.1-8.9,6.6-18.9,7.6-28.7c1.4-13.7,6.2-25.6,15.5-35.9c4.8-5.3,9.1-11,13.7-16.5c0.7-1,1.6-1.7,2.7-2.2c1.2-0.1,2.3,0.5,3,1.6
		c3.8,5.1,9.3,5.8,15.1,5.9c8.5,0.2,17-0.8,25.4,1C398,607,398.8,607.4,399.5,608z"/>
	<path class="st3" d="M612.4,605.8c-1,1.4-2.3,1.2-3.4,1.1c-9.6-1.1-19.2-1.2-28.7-3.3c-3.8-0.8-7.5-2.8-11-4.6
		c-3.1-1.5-5.4-0.9-7.5,1.6c-4.7,5.8-10,11.1-13.2,18c-2.7,5.6-2.9,5.5-8.7,3.8c-2.2-0.6-4.7-0.6-6.7-2.7c1.6-4,5-6.7,7.3-10.2
		c-3.1-6.8-7.2-8.4-13.2-5.2c-2.5,1.3-4.9,2.9-7.4,4.2c-1.7,0.7-2.9,2.4-3,4.3c-0.2,2.1-0.6,4.3-1,6.4c-0.4,2.1-1,4.2-1.4,6.2
		c-3.1,0.7-5.6-0.4-8.1-1c-1.9-0.5-2.2-2.2-2.3-4c-0.1-2.4,0.7-4.6,0.9-6.9c0.4-4.5-0.5-5.8-4.8-6.5c-2-0.3-3.9-0.5-5.9-0.7
		c-3.3,2.5-1.1,8-5.4,9.7c-3.7,1.5-7.6,2.3-11.5,2.5c1-4.8,2.2-9.2,5.2-12.5c6.5-7.2,14.8-11.8,23.5-15.5c2.3-1,4.4-0.1,6.1,1.2
		c6,4.3,12.2,4.3,18.8,1.8c5-1.9,10.5-2.2,15.7-0.8c3.3,1.1,6.9-0.1,8.9-2.9c2.1-2.6,4.4-5,6.5-7.5c1.8-2.1,3.7-2.3,6.2-1.1
		c5.7,2.8,11.1,6,16.4,9.5c4.1,2.6,8.5,4.3,13.1,4.2C606.2,594.6,609.6,599.6,612.4,605.8z"/>
	<path class="st3" d="M568.5,716.3c7.5,6.2,15.9,3.7,23.9,3.8c2.2,0,4.6-0.6,7.2,1c-7.4,15.2-18,28.7-22.7,45.3
		c-2.2-9.9-4.7-19.4-10.5-28.2c-6.2,3.2-12.1,7-17.6,11.3c-7,5.2-13.1,11.2-16.6,19.4c-1.8,4.2-4.9,7.6-8.8,9.9
		c-7.9,4.7-12,12.2-15.9,19.9c-2.9,5.3-6.1,10.4-9.5,15.4c-1.7-4.3-2.7-8.9-3.1-13.5c-0.2-1.8,1-3.1,2.2-4.3
		c2.2-2.1,3.8-4.7,5.9-6.7c8-7.9,12-17.9,15.4-28.2c3.8-11.7,11.7-19.9,21.4-26.6c3.1-2.2,7-1.9,10.6-2.5c4-0.7,7.1-2,9.5-5.6
		S565.5,719.9,568.5,716.3z"/>
	<path class="st3" d="M607.3,159.6c2.8-8.3,7.7-14.7,12.6-21.5c2.9,2.5,4.1,5.4,5.5,8.1c0.8,1.6-0.2,2.9-1,4.1
		c-5.1,7.4-10.1,14.8-15.2,22.3c-0.7,1-1.3,2.2-2.6,2.1c-4.3-0.3-8.5-1.5-12.6-2.6c-2.6-0.7-3-3.3-4.2-5.3
		c-5.8-10.3-5.2-20.9-1.4-31.7c1-2.8,2.7-4.3,5.9-4.1c10.2,0.5,18.5-4.3,26.5-9.9c1.5-1.1,2.5-2.7,3.1-4.4
		c2.9-7.6,6.7-14.8,11.5-21.4c1-1.3,1.5-3.2,3.7-2.8c2,0.3,3.7,1.9,4,3.9c0,0.2,0.1,0.3,0.2,0.5c4.5,12,4.5,12-6.5,18.7
		c-1.8,1-3.1,2.5-3.8,4.4c-0.3,0.8-0.6,1.6-0.8,2.3c-1.8,6.8-5.9,10.9-13.2,11.2c-5.5,0.3-8.1,3.7-9.4,8.6
		c-1.1,4.5-4.1,8.4-3.8,13.3C606.1,156.5,605.7,157.8,607.3,159.6z"/>
	<path class="st3" d="M22.3,329.9c1.6-7.6,4-14.9,7.2-21.9c3.4-7.8,7.1-15.4,11.1-22.9c2-3.7,1.8-7.8,2.1-11.7
		c0.6-8,4.2-14.8,8.1-21.2c5.7-9.2,12.5-17.6,18.7-26.4c1.1-1.5,2.1-3.1,4.7-2.1c0.6,2-0.5,3.7-1.2,5.5c-3,7.4-5.9,14.8-8.9,22.2
		c-0.8,1.8-1.2,3.8-1.1,5.8c1.3,10.8-2.6,20.3-9.4,28c-7.3,8.3-5.8,16.7-3.1,25.6c1.6,5.3,1.8,5-2.8,8.4
		c-6.4,4.8-13.6,8.4-21.4,10.5C25.2,330,24,330.9,22.3,329.9z"/>
	<path class="st3" d="M396.9,622.6c4.9,0.6,9.8,1.3,14.7,1.8c5.2,0.6,8.1,4.4,10.9,8c7,8.9,11.9,10.4,22.3,6.4
		c1.2-0.6,2.3-1.4,3.2-2.3c1-0.8,2.1-1.6,3.2-2.3c0.6-0.5,1.5-0.6,2.2-0.2c0.4,3.1-0.5,6.3-1.2,9.4s0.1,5.5,2.9,7.2
		c2.5,1.4,4.8,3,7.1,4.7c2.6,2,5,1.8,7.1-0.3c6.6-6.6,15.1-8.7,23.8-10.5c5.1-1.1,9.9,0.1,15.3,1.1c-1.8,3-4.7,5.2-8,6.3
		c-4.1,1.5-8.1,3.3-12.3,4.3c-9.4,2.3-16.7,7.8-23.5,14.4c-0.6,0.4-1.2,0.8-1.8,1.1c-3.7-2.9-5.7-7-8.2-10.5c-2-3.1-5.1-5.3-8.7-6.3
		c-8.7-2.4-16.1-7.1-22.7-13c-3.8-3.5-8.6-4.6-13.3-5.2c-8.2-1.1-10.5-7.5-14-13L396.9,622.6z"/>
	<path class="st3" d="M363.5,369.9c-5.3,5.9-12.4,6.8-19.2,6.8c-4.7-0.1-9.1,2.3-11.6,6.4c-4.3,6.5-10.2,10.1-17.7,11.7
		c-5.4,1.1-5.4,1.4-8.4-3.4c-0.5-0.8-1.3-1.6-1.1-2.7c0.4-1.3,1.6-1.7,2.7-2c9.1-2.4,14.1-10.1,20.5-16.1c0.6-0.6,1-1.3,1.2-2.1
		c1.8-7.9,4.8-15.6,4.2-23.9c-0.1-2.1-1.2-4.9,1.6-6.3c1.9-1,7.7,1.7,9,4s2.5,4.7,3.6,7.1c2.7,7.1,8.7,11.6,13.2,17.3
		C362,367.7,363.1,368.4,363.5,369.9z"/>
	<path class="st3" d="M635.5,652.2c-0.1-3.2-2.4-5.6-2.4-8.9c2.8,0.6,4.5,2.4,6.5,3.7c2.5,1.6,2.2,3.7,1.7,6.1
		c-0.4,2.1,1.5,3.2,2.7,4.5c7.5,7.7,7.6,7.8,3.5,17.8c-1.7,4.1-2.7,8.5-2.7,13c0,5-0.2,9.9,5.8,11.9c-1.6,4.5-5.7,5.5-8.1,8.1
		c-2-0.5-2.4-2.1-3-3.5c-3-7.4-7-14.3-9.4-22c-1.2-4-3.9-7-6.6-9.8c-3.8-3.9-5.3-8-4-13.5c1.9-8.3,1.9-8.5,10.6-6.9
		C631.8,653,633.4,653.4,635.5,652.2z"/>
	<path class="st3" d="M458.5,260c-0.5-4.8,2-7,6.1-7.7c7.8-1.4,13.9-5.6,19.7-10.9s12.5-9.9,18.8-14.8c1.9-1.4,3.8-1.4,6.1-0.7
		c7.1,2.2,11.1,8.2,16,13.1c0.8,0.9,1,2.2,0.7,3.3c-0.8,3-1.1,6.2-2.7,9.2c-5.4-1.1-9-5.6-14.2-7.1c-2.4,4.1-1.8,8.9-3.7,13.1
		c-3.6,0.2-6.4-1.9-9.1-3.6c-4.6-2.7-8.5-2-12.4,0.9c-6.4,4.8-14,5.7-21.6,6.1C460.8,261.2,459.5,260.8,458.5,260z"/>
	<path class="st3" d="M3,49.2c0-0.3,0-0.7,0-1c0.2-7.4-1.5-7,7.5-11.8c7.6-4.1,13.4-2.3,19.2,1.8c4.8,3.3,8.3,8.1,11.4,13
		c1.4,2.2-1.3,9.9-4.1,11.5c-3.7,2.2-7.5,4.8-11.6,5.6c-5.6,1-12.2,1-16.8-2.4C4.5,62.7,2.3,57.4,3,52.1C3.1,51.1,3.1,50.1,3,49.2z"
		/>
	<path class="st3" d="M421,196.4c4.9,0.7,7.9,4,12,4.4c2.7-4.1,2.8-8.9,4.8-13.7c3.6,3.7,7,6.7,8.2,11.4c2.2,8.5,4.2,17.1,6.5,25.6
		c0.7,2.7-0.1,4.6-1.8,6.8c-4.7,6-9.7,11.4-18.1,12.5c-0.5-3.8,1.2-7.1,2.3-10.4c1.3-3.5,0.7-7.3-1.4-10.3
		C428.3,214.4,424.1,205.6,421,196.4z"/>
	<path class="st3" d="M477,317.2c8.8-5.1,17.6-8.3,27.7-4.4c4.5,1.7,9,3.4,13.4,5.4c7.9,3.6,10.2,8.2,6.2,15.8
		c-2.2,4.2-2,6.9,0.6,10.2c0.2,0.3,0.3,0.6,0.3,0.9c0,0.4-0.1,0.9-0.2,1.3c-4.8-0.6-9.3-2-13.9-3.3c-1.1-0.3-2.1-1.1-2.6-2.2
		c-0.6-1-1.1-2-1.6-3.1c-4-13.2-14.6-17-26.5-18.9C479.3,318.7,478.1,318.8,477,317.2z"/>
	<path class="st3" d="M395.3,580.2c0.5-4.4,2.3-8,3.5-11.7c0.7-2.3,2.4-2.5,4.4-2.4c7.7,0.6,14.9,3.4,21.9,6.5
		c2.6,1.2,3.8,3.8,5,6.1c3.5,6.5,8.6,10.3,16.2,10.8c2.1,0.1,4.7,0,6.7,2.1c-7.5,5.8-16.2,6.5-25,6.2c-2.7-0.1-4.2-2.5-5.6-4.5
		c-4.4-6.4-11.4-9.5-17.6-13.7C401.8,577.6,398.9,580.6,395.3,580.2z"/>
	<path class="st3" d="M121.5,129.3c-1.3-8.1,0.1-15.9,1.8-23.7c0.4-1.7,1.9-2.2,3.4-2.5l6.8-1.7c8-2,7.8-1.9,12.4,4.8
		c2,2.9,2.3,5.3,0,8.1c-1,0.9-1.4,2.2-1.1,3.4c4.2-1.4,8.9-6.3,12.8,0.8c-2,4.1-5.6,7.6-8.5,11.5c-1,1.3-2.4,0.7-3.7,0.1
		c-2-0.8-3.9-1.8-5.8-2.9c-4.5-3-8.7-2.5-12.9,0.6C125.4,128.8,124,129.9,121.5,129.3z"/>
	<path class="st3" d="M396.1,554.5c-1.4-0.8-2.4-2.1-3.1-3.5c-2.6-6.1-7.6-8.7-13.8-8.8c-5.6-0.2-8.9-3-10.9-8.7
		c4.9-1.7,9.4-4.3,14.9-2.6c7.8,2.4,15.5,4.8,23.9,4.2c3.2-0.2,5.3-1.3,6.8-4s2.9-5.2,4.5-7.7c2.5-4,3.6-4.1,8-1.6
		C424.6,530.6,406.1,550.7,396.1,554.5z"/>
	<path class="st3" d="M294.7,712c5,6.5,4.8,6.4,1.1,12.4c-4.5,7.4-10.1,14.1-16.6,19.8c-3.6,3-6.1,7.1-7.3,11.6
		c-2.2,8.4-7.4,14.7-14.2,21.1c-1.2-5.2-0.8-9.8-0.4-14.5c0.1-1,0.6-1.9,0.7-2.9c0.7-7.1,4.7-11.7,10.3-16.1
		c6.2-4.9,10.4-12,15.5-18.2C287.3,721,290.9,716.7,294.7,712z"/>
	<path class="st3" d="M391.3,235.9c-1.7-1.8-2.7-4.1-3-6.6c-0.9-6.6-4.9-11.4-8.9-16.3c-3.4-4.1-8.2-4-12.7-4.8
		c-5.9-1.1-6.4-1.5-4.9-7.5c0.6-2.4,1.2-4.8,1.7-7.1c2.6-0.8,4.6,0.4,6.5,1.2c6.1,2.5,12.6,4.3,19.2,5.2c3.2,0.5,4.5,2.3,5.6,5.2
		C399,216,396,225.6,391.3,235.9z"/>
	<path class="st3" d="M203,49c1.2,0.2,2.2,0.7,3.1,1.4c6.5,4.5,13.3,8.2,21,10c3.4,0.8,4.9,2.7,5.4,6.1c1.3,8.7,4,17.1,6.7,25.5
		c0.9,2.9,1.1,6,0.5,9c-1.9,0.6-2.6-0.5-3.4-1.2c-6.2-6-12.2-12.1-17.1-19.3c-2.8-4.1-4.9-8.3-5.2-13.2c-0.3-6.3-2.9-11.1-8.2-14.4
		C204.4,52,203.2,50.9,203,49L203,49z"/>
	<path class="st3" d="M579.6,671.3c-5.9-8.5-11.2-17.4-15.6-26.8c4.1,0.4,6.9,2.3,9.8,3.5s4.7,0.6,5.6-2.5c0.3-1.1,0.8-2.2,1.4-3.2
		c1.3-2.5,1.1-7,4.5-6.8c4.5,0.2,9.9-0.2,12.6,5.2c1.5,2.9,3.4,5.7,5.2,8.8c-4,4.2-10.2,4.6-13.9,8.6
		C585.7,661.8,583.7,666.9,579.6,671.3z"/>
	<path class="st3" d="M588.3,87.7c-1.6-1.7-1.3-3.2-1.2-4.7c0.7-11.4-1.1-22.6-3.3-33.7c-1.2-6.3-0.5-12.6-0.7-18.9
		c0-1.2,0-2.5,1.4-3c1.6-0.5,2.4,0.6,3.1,1.8c3.9,6,6.1,13,6.2,20.2c0.2,4.2,1.4,8.2,3.4,11.9c3.2,5.8,2.8,11.9,2.7,18
		c0.1,1.2-0.4,2.3-1.4,3C595.2,84.2,592.4,87.1,588.3,87.7z"/>
	<path class="st3" d="M193.7,43.6c-4.4,4.1-6.2,4-10.4,0.3C176,37.4,169,30.5,161,24.8c-3.1-2.2-4.3-4.8-4-8.4
		c0.2-2.4-0.2-5,0.6-8.1c4.9,1.8,10,3,12.9,7.1c6.4,9.1,13.6,17.6,21.7,25.3C193.1,41.3,193.7,42.4,193.7,43.6z"/>
	<path class="st3" d="M585.9,379.5c-1.6-6.4-1.2-7.3,4.3-8.4c5.1-1.1,9.9-3.9,15.5-2.2c2.8,0.9,4.2,2.1,4.2,5.1s0.7,6.2,1,9.4
		c0.2,1.7,1.1,3.1,2.6,4c5,3.9,10,7.7,15.8,10.3c1.5,0.6,3.1,1.1,4.3,2.7c-2.4,0.5-4.5,1-6.8,1.3c-3.8,0.5-6.7-0.7-9.9-3.2
		c-6.4-5-10.7-11.2-14.1-18.3c-1.5-3.2-3.7-3.8-6.9-3S589.6,379.4,585.9,379.5z"/>
	<path class="st3" d="M626,818.8c-1.8-3.2-1.9-6-2.4-8.8c-0.6-3-2-4.5-5.1-5.2c-3.3-0.7-6.8-1-10-3.1c1.3-4.3,4-7.7,6.4-11.2
		c0.9-1.3,2.2-1.3,3.5-0.7c5.4,2.1,11,3.7,16.1,6.6c1.4,0.8,2.5,1.7,2.3,3.5C636.1,807.6,632.4,813.7,626,818.8z"/>
	<path class="st3" d="M166,89.7c8.2,1.1,9,2,9,8.7c0,5.2,0.5,10.4-0.1,15.5c-1.1,8.2,2.8,14.5,6.6,20.9c0.8,1.4,2.3,2.5,1.7,4.8
		c-4.4-1.5-8.1-3.2-10.9-7.6c-5.4-8.2-7-17-6.3-26.5C166.3,100.3,166,95.2,166,89.7z"/>
	<path class="st3" d="M379.4,407.4c3.4,0,6.2-1.2,9.1-1.8c1.2-0.2,2.5-0.8,3.2,0.4c2.4,4.4,6,8.3,6.9,13.7c-4.1,2-8.3,2.9-12.4,3.9
		c-1.7,0.4-2.8-0.7-3.9-1.8c-3.1-3-6-6.2-9.2-9.1c-2.5-2.3-2.2-5.4-3-8.2c-0.5-2.1-0.9-4.2-1.1-6.4c-0.1-1.2,0-2.4,1.4-2.9
		s2.2,0.3,2.8,1.4C375.3,400.2,377.3,403.7,379.4,407.4z"/>
	<path class="st3" d="M483.8,58.5c-6.7-8.2-13.9-14.4-24.5-15.4c4.5-3.5,8.7-6.5,14.1-7c1.3-0.1,2.6,0,4,0c8.6,0,10.2,1.3,12.2,9.5
		c0.4,1.3,0.2,2.7-0.4,3.9C487.6,52.1,486,54.8,483.8,58.5z"/>
	<path class="st3" d="M528.5,222.6c1.6-1.8,3.5-2.2,5.1-2.8c7.5-2.7,14.8-5.8,21.9-9.5c2-1,4.3-2.6,6.1,0.3c1.2,2,0.2,6.9-1.6,8.2
		c-7.5,5.5-16.2,9.2-25.4,10.8c-1.9,0.4-3.3,0-4.1-1.8S528.6,224.6,528.5,222.6z"/>
	<path class="st3" d="M636.4,420.1c8.2-12.5,16.2-23.8,20.4-37.3c2.7,4.3,4.1,8.3,1.8,13.1c-3.3,6.9-5.6,14.2-7,21.7
		c-0.6,3.5-2.5,4.8-5.9,4.2C643,421.4,640.3,420.9,636.4,420.1z"/>
	<path class="st3" d="M474.9,560c-5.1,5.5-11.6,7.8-17.9,10.3c-1.8,0.7-2.8-0.2-3.7-1.5c-1.5-2.1-2.9-4.2-1.2-6.8
		c2.1-3.4,4-6.9,6.1-10.3c2-3.1,4.8-3.8,7.5-1.4C469.1,553.2,472.2,556.5,474.9,560z"/>
	<path class="st3" d="M653,885.2c-6.4-11.7-11.1-24.4-13.8-37.4c5.2,0.4,8.8,3.3,10.1,7.5c1.1,3.8,1.4,7.8,3.4,11.3
		c3.2,0.3,5.6-1.6,8.8-1.8C656.9,871,654.8,877.9,653,885.2z"/>
	<path class="st3" d="M389.7,705.4c1.7,2.7,4.3,4.4,4.9,8.5c-12.2,4.2-21.6,12.5-30.1,22.2c-2.1-2.2-1.6-3.9-0.7-5.5
		c5.4-10.4,13.7-19,23.9-24.8C388.4,705.5,389.1,705.4,389.7,705.4z"/>
	<path class="st3" d="M418.5,445.1c6.3,0.6,12.1-0.8,17.7,0.5c0.5,5.9-3.8,20.2-8.6,28.4C425.9,464,422.9,454.2,418.5,445.1z"/>
	<path class="st3" d="M647.8,84.6c-4.1-1.9-7.1-4.8-10.4-7.2c-0.9-0.8-1.4-1.9-1.3-3.1c-0.1-1.3-0.2-2.6-0.2-4c-0.1-2.8-3-6.4,1.6-8
		c4.1-1.5,10.2,1.6,11.8,5.4C651.7,73.7,651.6,76.4,647.8,84.6z"/>
	<path class="st3" d="M464.1,454.2c8.8,6.3,11.8,17.8,7.6,26c-0.9,1.7-2.3,1.8-3.8,1.6c-3.4-0.4-6.8-0.9-11.7-1.6
		C464.6,472.9,464.6,463.8,464.1,454.2z"/>
	<path class="st3" d="M438.9,55.3c5.9,2.6,10.8,6.2,15.9,9.7c-0.9,5-4.3,8.3-6.3,12.6c-5.2-1.5-7.8-6-11.6-8.7c-1-0.7-1-2.2-0.7-3.3
		C437,62.4,437.1,59,438.9,55.3z"/>
	<path class="st3" d="M622.1,20.7c8,4.6,14.1,9.8,16.2,18.6c0.6,1.8,0.3,3.7-0.8,5.2c-1.6,2.3-2.8,4.9-5,6.8
		C630.5,49.1,622,24.8,622.1,20.7z"/>
	<path class="st3" d="M373.9,460.7c-2-3.5-2.2-7.1-3.5-10.3c-0.6-1.5,0-3.1,1.4-3.8c3.9-2.5,7.8-4.9,11.9-7.4
		c2.7,2.4,3.5,5.5,4.9,8.2c0.4,0.7,0.4,1.7-0.2,2.4C383.6,453.5,379.5,457.9,373.9,460.7z"/>
	<path class="st3" d="M494.6,730.8c-1.6-2-3-3.7-4.2-5.4c-1.1-1.3-1.3-3.2-0.6-4.7c1.6-3.1,3.1-6.3,4.7-9.4c1.1-2.2,2.7-2.3,4.5-1
		c2.8,1.9,4.5,4.8,6.2,7.7c0.5,0.7,0.4,1.7-0.2,2.3C501.5,723.4,499.6,728.2,494.6,730.8z"/>
	<path class="st3" d="M458.4,617c-5.6-9.7-5.1-15.1,1.8-24.8c4.6,1.1,9.1,2.7,13.4,4.8c-2.6,4-8.3,3.5-10.1,7.9
		C462,608.7,460.4,612.5,458.4,617z"/>
	<path class="st3" d="M532.8,630.6c2.5-0.3,4.9,0.5,6.9,2c3.3,2.3,6.3,4.9,9.6,7.2c2.7,1.8,2.9,3.8,1,6.2c-1.1,1.4-1.5,3.3-3.2,4.4
		C537.7,647.2,532.8,640.5,532.8,630.6z"/>
	<path class="st3" d="M515.2,164.4c-2.6-0.8-3.6-2.6-5.1-3.8c-7.1-5.6-7.2-5.8-2.5-13.2c1.4-2.2,2.2-4.8,4.3-6.8
		C520.4,147.5,517.6,155.8,515.2,164.4z"/>
	<path class="st3" d="M503,69.5c2.9-0.1,5.4,1.1,8,1.5c2.6,0.4,3.8,1.9,4.2,4.7c1.5,9.4,1.6,9.4-7.9,9.3c-6.1,0-7-1-6-7
		c0.2-1.5,0.5-2.9,0.7-4.4C502.1,72.3,501.9,70.9,503,69.5z"/>
	<path class="st3" d="M415,337.5c4.7,0.5,9.2,1.2,12.7,4.7c1.9,1.9,3.8,3.8,5.7,5.6c4.6,4.6,4.6,4.6-0.5,9.7
		C424.9,352.9,418.6,346.6,415,337.5z"/>
	<path class="st3" d="M610.9,484c2.9-4.8,6.8-6.5,9.7-9.4c0.3-0.2,0.6-0.3,0.9-0.3c7.8-1.5,18.1,5.8,19.8,14.2
		c-5.2-1.1-9.2-5.4-14.1-5.9S617.1,483.3,610.9,484z"/>
	<path class="st3" d="M524.9,401.5c1.3-8.8,2.7-10.2,10.8-11.6c2.8-0.5,5.5-1.3,8.3-1.6c1.7-0.2,3.6-0.7,5.5,0.9
		C543.4,397.7,534.7,400.5,524.9,401.5z"/>
	<path class="st3" d="M350,42.2c6.9,4,7.9,6,5.8,12.6c-1,3.3-1.2,6.9-3.5,9.7c-6-1.6-8.2-5.3-6.5-10.9c0.9-3.2,1.9-6.3,2.9-9.5
		C349.1,43.3,349.5,42.7,350,42.2z"/>
	<path class="st3" d="M530.2,182.3c4.7,0.4,8.6,3.1,12.4,5.5c2.1,1.3-0.6,8.1-3.5,9c-9.4,3.2-11.6,1.4-10.2-8.4
		C529.2,186.5,528.6,184.4,530.2,182.3z"/>
	<path class="st3" d="M272.6,613.2c-6.2,5.1-16.1,7.2-21.3,4.6c0.1-2.6,2.3-3.9,3.9-5.3c2.1-1.8,4.3-3.5,6.4-5.5
		c3.1-2.9,5.2-2.5,7.7,0.9c0.8,1.1,1.5,2.2,2.2,3.3C272,611.7,272.2,612.3,272.6,613.2z"/>
	<path class="st3" d="M69,97.9c-2.4,1.2-3.8,0.1-5.3,0.1c-3.5,0-8,0.5-9.8-2.2c-2.5-3.7-2.5-8.8-2.6-13.4c0-0.2,0.4-0.5,0.7-0.8
		C61.2,83.4,65.2,90.3,69,97.9z"/>
	<path class="st3" d="M499,354.4c1.7,5.9,1.3,7.3-3,10.5c-3.3,2.4-5.9,5.7-9.7,7.4c-0.4-0.3-0.8-0.5-0.8-0.7
		C483.3,358.9,480.9,360.3,499,354.4z"/>
	<path class="st3" d="M538.4,512.8c-4.6-1.7-8.9-3.9-13-6.5c1.8-3.9,5.3-5.7,8.4-7.6c3.7-2.2,6.4-0.1,6.1,4.3
		C539.6,506,539,509,538.4,512.8z"/>
	<path class="st3" d="M441.5,438.5c-1.5-7.3,1.7-13.3,3.1-21c3.2,3.4,5.9,7.2,8,11.4c0.4,0.8,0.1,1.8-0.6,2.2
		C448.6,433.3,446.3,437.2,441.5,438.5z"/>
	<path class="st3" d="M565.2,434.5c5.5,0.2,10.9,2.5,16.3,6.6c-1.7,3.2-4.9,4.7-7.9,6.3c-1,0.6-2.3,0.3-2.9-0.7l-0.1-0.1
		C568.6,442.8,566.2,439.2,565.2,434.5z"/>
	<path class="st3" d="M616.5,827.9c5-0.4,7.6,1.6,8.7,6c0.6,2.7,2.4,5,2.5,7.8c-6.3,2.5-8,1.8-9.3-4.1
		C617.5,834.5,616.1,831.5,616.5,827.9z"/>
	<path class="st3" d="M523.5,42.1c9.9,2.5,14.3,8.8,13.6,19C531.7,54.8,526.5,49.3,523.5,42.1z"/>
	<path class="st3" d="M151.8,80.5c-6.4,5.4-8.3,5.3-12.7,0c-1.6-2-3.1-4.1-5.2-6.9C141.1,73.9,145.9,77.9,151.8,80.5z"/>
	<path class="st3" d="M620.9,742.1c5.6,10.7,5.6,10.8-4.8,13.7c-1,0.3-2.1,1.1-3.6,0.2C614.9,751,617.7,746.4,620.9,742.1z"/>
	<path class="st3" d="M558.5,80.6c-1.3-5.7,0.5-10.3,1.1-16.1c3.6,3.2,7.5,5.5,6.9,9.5C566.1,77.4,562.2,78.9,558.5,80.6z"/>
	<path class="st3" d="M446.7,472.8c1,2.4,2,4.8,3.1,7.2c1.3,2.9,0.6,4.8-2.5,5.7c-1.8,0.5-3.5,1.8-6.1,1.7c0.9-5,2.3-9.9,4.2-14.6
		L446.7,472.8z"/>
	<path class="st3" d="M281.8,805.5c-1.4-5.7,1.1-9.5,0.3-13.6c3.7-0.8,5.7,1.4,8.8,2.8C288.2,798.6,285.1,802.2,281.8,805.5z"/>
	<path class="st3" d="M44,34c-2.7,0.1-5.2-1-7.7-1.7c-4.6-1.4-4.8-1.8-2.9-6.1c0.3-1.2,1.1-2.2,2.1-2.9C39.6,25.7,42.7,29.1,44,34
		L44,34z"/>
	<path class="st3" d="M515.1,205.4c2.3-3.7,5.5-6.7,9.2-9c1.1,3.7,1.1,7.5,0,11.2C521.2,207,518.2,207.6,515.1,205.4z"/>
	<path class="st3" d="M160,777l0.2-0.2L160,777z"/>
	<path class="st3" d="M203,49l-0.2-0.2L203,49z"/>
	<path class="st3" d="M44,34l0.2,0.1L44,34z"/>
	<path class="st3" d="M233,19l-0.2-0.2L233,19z"/>
	<path class="st3" d="M16.4,449.7c-4.6,2.3-9.7,2.1-14.6,3.2c0.4-5.6,2.6-9.4,5.6-9.8C12,442.3,14.1,443.8,16.4,449.7z"/>
	<path class="st3" d="M100,475l0.2,0.2L100,475z"/>
	<path class="st3" d="M197.8,261c-1.7,7-2.9,14.3-8.2,19.9c-5.7,6.1-10,13.3-12.8,21.1c-2.2,5.8-6.8,10.2-10.1,15.4
		c-1,1.6-2.9,1.7-4.5,1.5c-3.4-0.4-6.9-0.9-10.1-1.3c-0.8-2,0.4-3.1,1.2-4.4c3.9-6.6,7.8-13.2,9.8-20.7c1.4-5.4,4.8-9.1,9.2-11.9
		c7-4.5,12.1-10.9,17.2-17.2C192.1,260,193,259.7,197.8,261z"/>
	<path class="st3" d="M160.9,284.1c-14.2-13.8-30.2-25.6-47.6-35.2c1.5-3.2,4.4-2.8,6.4-4c7-4.3,12.2-2.1,16.9,4
		c1.8,2.4,4,4.5,5.4,7.1c2.8,5.1,7.2,9.2,12.6,11.4C162.8,271.1,163.7,273.9,160.9,284.1z"/>
</g>
</svg>
