<?xml version="1.0" encoding="utf-8"?>
<!-- Generator: Adobe Illustrator 22.0.1, SVG Export Plug-In . SVG Version: 6.00 Build 0)  -->
<svg version="1.1" id="Ebene_1" xmlns="http://www.w3.org/2000/svg" xmlns:xlink="http://www.w3.org/1999/xlink" x="0px" y="0px"
	 viewBox="0 0 684.6 108.2" style="enable-background:new 0 0 684.6 108.2;" xml:space="preserve">
<style type="text/css">
	.st0{fill:#FFE5B0;}
	.st1{fill:#7C6042;}
	.st2{fill:#BC9B6B;}
	.st3{fill:#EECE94;}
	.st4{fill:#6E5639;}
</style>
<title>texture-paper-l_1</title>
<g id="Ebene_2_1_">
	<g id="final-design">
		<path class="st0" d="M663.8,2.3c0.6-0.7,0.2-1.5,0.4-2.2c-1.5,0-3.1-0.1-4.6-0.1c-18.7,0.3-37.3-0.3-56,0.5
			c-21.4,0.9-42.9,1-64.3,1.7c-26.5,0.7-53.1-1-79.7-0.2c-15.7,0.5-31.4-0.1-47.2,0.5c-20.2,0.8-40.4,1.9-60.6,2.7
			c-20.6,0.8-41.4-2.4-62-1.3c-15.2,0.8-49.5,0.2-64.7,1c-1.7,0.1-9,6.6-9,6.6s-2.5-3.5-8.7-6.2c-14,0.6-28,0.9-42.1,1.6
			c-17.7,0.9-35.5-1.3-53.2-0.3C96.5,7.4,80.9,6.5,65.3,7.2c-15.8,0.7-31.8,0-47.6,0.8c-2.2,0.1-4.2,0.3-6,1.5
			c-0.4,0.8-0.6,1.7-0.4,2.6c1.3,0.5,0.9,1.3,0.9,2c-0.4,4.4,1.5,8.7,2,13c0.3,2.3,8.3,65.1,8.3,65.1l446.4-27.7l185.7,2.7
			C654.6,67.2,662.6,3.1,663.8,2.3z"/>
		<path class="st1" d="M684.6,26.6c-1.9-1.4-0.3-3.1-1-4.7c-4.9,0-9.8,0.5-14.5,1.5l-15.2,14.2c-9.2,1.1-17.9,1.4-26.5,2.1
			c-4.7,0.4-9.4,1.1-14.2,0.8c-1.4,0-2.7-0.1-4.1-0.4c-2.2-0.5-4.6-0.5-6.8-0.1l-26.8,3.8c-5.4,0.8-10.8,1.4-16.1,2.3
			c-1.3,0.2-2.7,0.3-4.1,0.3c-8.4,0.3-16.9,0.5-25.3,0.8c-6.6,0.3-13.3-0.2-19.7,0.6c-7.2,0.9-14.4-0.2-21.5,1.1c-2,0.3-4,0.3-6,0
			c-3.7-0.3-7.3,0.7-11,0.6c-5,0.1-9.9-0.1-14.8,0.7c-8-0.3-15.9,1-23.9,0.8c-2.2-0.1-4.4,0.8-6.8,0.6c-8,0-15.9,0.8-23.8,1.2
			c-5.2,0.3-10.4,0.9-15.6,0.8c-7.2-0.2-14.4,0.7-21.6,0.8c-4.5,0.1-9.2,0.1-13.7,0.6c-6.1,0.7-12.4,0.1-18.4,0.7
			c-6.2,0.6-12.4-0.1-18.4,0.7c-6.4,0.9-12.9-0.3-19.2,1.2c-0.2,0-0.3,0-0.5,0c-7.7-0.4-15.4,0.5-23,0.8c-5.6,0.2-11.3,0.2-16.9,1.1
			c-3.7,0.4-7.3,0.6-11,0.6c-4.9,0.2-9.8,0.6-14.6,1c-6.6,0.6-13.2,0.2-19.8,0.6c-8.6,0.5-17.1,1-25.7,1.3
			c-7.6,0.3-15.2,0.9-22.9,1.3c-8.4,0.4-16.8,1.1-25.2,1.3c-1.3,0.1-2.7,0.3-4,0.6c-3.8,0.2-7.8-0.5-11.4,0.8
			c-4.9,1.7-10.2,0.7-15.1,1.4c-5.1,0.7-10.1,0.2-15.2,0.6c-6.4,0.5-12.8,0.3-19.1,1.3c-0.3,0-0.6,0-0.9,0
			c-7.1-0.4-14.1,1.1-21.2,0.7c-7.4-0.4-14.7,0.9-22.1,0.7c-1.6,0-3.5,0.4-4.7-1.2c0.6-2.6,1.9-4.9,3.6-6.9c-3-2.5-8.8-2.3-10.6-6.1
			c-2.8,1.6-4.2,3.4-4.2,5.7c0,3.4,0,6.9,0.1,10.3c1.1,0.2,2.5-0.2,3.5,0.6c0.7,0.9,0.2,2,0.5,2.9l2.8,0.1c3.9,4.9,7.9,9.7,13.1,14
			c3.9-0.2,7.5-0.7,11.1-0.9c4.1-0.3,8.2-0.7,12.2-1.2c5.9-0.6,11.8-1.1,17.6-1.7c5-0.6,9.9-1.2,14.9-1.6c6.8-0.6,13.5-1.7,20.3-2.3
			c4.7-0.5,9.3-0.9,14-1.6c6.4-0.9,13-1.2,19.5-1.8c5.9-0.6,11.8-1.1,17.7-1.5c3.3-0.3,6.5-0.9,9.8-1.6c6.4-1.5,12.9-2.7,19.5-3.4
			c5.4-0.6,10.9-1.1,16.3-1.6c5.7-0.6,11.5-1,17.2-1.7c5.2-0.6,10.6-1.1,15.9-1.6c8.8-0.7,17.7-1,26.6-1.4c4.7-0.2,9.5-0.2,14.2-0.6
			c9.5-0.7,19-0.9,28.4-1.4c8.1-0.4,16.2-0.9,24.3-1.3c7.6-0.4,15.3-0.8,22.9-1.4c9.6-0.8,19.1-0.1,28.6-0.5
			c26.7-1.2,53.4-0.5,80.1-0.6c2.5,0,5-0.7,7.2-1.9c3.5-1.8,6.9-2.7,11-1.2c2.5,0.9,5.5,0.8,8.1,0.8c4.9,0.2,9.8,0.6,14.6,1
			s9.7,0.2,14.6,1.1c3.3,0.4,6.7,0.7,10,0.6c6.3,0.2,12.5,1,18.8,0.9c17.2-0.2,34.4-0.1,51.5-0.1c5.3,0.1,10.6,0.5,15.9,1.2
			c3.2,0.4,6.4,0.4,9.6,0.6c4.3,0.2,8.6,0.6,12.8,1c6.8,0.5,13.7,0.6,20.4,1.8c0.8,0.1,1.5,0.1,2.3,0.1c3.8,0,7.7-0.2,11.4,0.6
			c0.2-6.3-0.5-12.6,1.4-18.8c0.3-0.7,0.3-1.5,0-2.2c-0.5-1.1-0.4-2.4,0.3-3.4c2.5-0.5,5.4-0.2,8.3-1.4c0.7-2.6,2.7-5.2,2.4-8.3
			c-0.1-2.3,0.5-4.6,1.9-6.5L684.6,26.6z"/>
		<path class="st1" d="M11.4,30l-0.3-4.6h-0.6c-0.3,0-0.5,0.1-0.8,0c-0.1,0.5-0.1,1.1-0.2,1.7C7.4,27.7,5.3,28,3.1,28
			C-0.2,29,0,30.8,0,32.4C0.1,40,0.7,47.6,1.7,55.2c0.5,4.7,0.9,9.4,2.2,14.1C5.4,69.5,7,69,8,67.9C9.8,63,9.4,58.5,9.4,54
			c0-2.3,0-4.6,0-6.9c0-0.9,0-1.8,1.8-1.8c0-2.8-0.1-5.6-0.6-8.4C10.2,34.6,9.2,32.1,11.4,30z"/>
		<path class="st2" d="M679.3,5.1c-0.5-1.1-0.2-2.3-1-3.5c-0.8-1.3-2.4-2-3.9-1.6v8.1c-3.6,0.6-6.2,2.3-8.9,3.9
			c-2.7,1.5-5.7,2.3-8.8,2.6c-6.6,0.7-13.2,1.6-19.8,2.4c-6.3,0.8-12.6,1.5-18.9,2.2c-7.3,0.9-14.7,1.8-22,2.8
			c-7.8,1-15.5,2.1-23.3,3.2c-9.4,1.3-18.8,2.5-28.2,3.9c-5.5,0.8-11.2,0.8-16.8,1.5c-6.2,0.7-12.4,0.9-18.5,1.8
			c-2.9,0.4-5.7,0.6-8.6,0.7c-7.3,0.3-14.5,1.4-21.9,1.6c-4.7,0.2-9.5,0.2-14.2,0.5c-10.1,0.7-20.2,0.8-30.3,1.5
			c-6.8,0.4-13.6,0-20.3,0.6c-10.5,0.9-21,0-31.4,0.7c-6.6,0.4-13.3,0-19.8,0.6c-4.4,0.4-8.9,0-13.2,1.1c-0.6,0.1-1.2,0.1-1.8,0.1
			c-6.6,0-13.1,1-19.6,1.2c-4.9,0.2-9.9,0.5-14.6,0.9c-5.5,0.5-11.1-0.1-16.4,1.1c-0.3,0-0.6,0-0.9,0c-6.5-0.4-12.9,0.5-19.3,0.7
			c-8.2,0.3-16.5,0.3-24.7,1.3c-0.3,0-0.6,0-0.9,0c-10.3-0.5-20.6,0.5-30.9,0.7c-49.6,1.2-99.2,0.4-148.8,0.6
			c-6.6,0-13-0.9-19.5-1.7c-3.2-0.4-6.4-0.5-9.5-0.8c-7.5-0.7-15.1-1.4-22.6-2.2c-1.9-2.2-3.8-4.3-5.7-6.5c-1.1-1.2-1-2.5-0.9-3.9
			c0.1-0.9-0.2-1.5-1.7-1.5c-2.2,2.1-1.2,4.7-0.8,6.8c0.4,2.8,0.6,5.6,0.6,8.4c-1.8,0-1.8,0.9-1.8,1.8c0,2.3,0,4.6,0,6.9
			c0,4.5,0.4,9-1.4,13.9c-1,1.1-2.5,1.6-4,1.4C4.6,71,4.4,73,6.7,74.6c1.3-0.7,3.1-0.6,4.7-0.9c0-3.4,0-6.9-0.1-10.3
			c0-2.3,1.4-4.1,4.2-5.7c1.9,3.8,7.7,3.5,10.6,6.1c-1.8,2-3,4.3-3.6,6.9c1.2,1.6,3,1.2,4.7,1.2c7.4,0.2,14.7-1.1,22.1-0.7
			c7.1,0.4,14.1-1.1,21.2-0.7c0.3,0,0.6,0,0.9,0c6.3-1,12.8-0.8,19.1-1.3c5-0.4,10,0.2,15.2-0.6c4.9-0.7,10.2,0.3,15.1-1.4
			c3.6-1.3,7.6-0.5,11.4-0.8c1.3-0.3,2.7-0.5,4-0.6c8.4-0.2,16.8-0.8,25.2-1.3c7.6-0.4,15.2-1,22.9-1.3c8.6-0.4,17.1-0.8,25.7-1.3
			c6.6-0.4,13.2,0,19.8-0.6c4.8-0.4,9.8-0.8,14.6-1c3.7,0,7.3-0.2,11-0.6c5.6-0.9,11.3-0.8,16.9-1.1c7.7-0.3,15.3-1.3,23-0.8
			c0.2,0,0.3,0,0.5,0c6.2-1.5,12.8-0.3,19.2-1.2c6-0.8,12.2,0,18.4-0.7c6-0.6,12.2,0,18.4-0.7c4.5-0.5,9.2-0.5,13.7-0.6
			c7.2-0.2,14.4-1,21.6-0.8c5.2,0.1,10.4-0.5,15.6-0.8c7.9-0.4,15.8-1.2,23.8-1.2c2.3,0.3,4.6-0.6,6.8-0.6c8,0.3,15.9-1.1,23.9-0.8
			c4.9-0.8,9.8-0.6,14.8-0.7c3.7,0.1,7.2-1,11-0.6c2,0.3,4,0.3,6,0c7.1-1.4,14.3-0.2,21.5-1.1c6.4-0.8,13.1-0.3,19.7-0.6
			c8.4-0.4,16.9-0.6,25.3-0.8c1.4,0,2.7-0.1,4.1-0.3c5.3-0.9,10.7-1.6,16.1-2.3l26.8-3.8c2.3-0.4,4.6-0.4,6.8,0.1
			c1.3,0.3,2.7,0.4,4.1,0.4c4.8,0.3,9.5-0.4,14.2-0.8c8.6-0.7,17.3-1,26.5-2.1L669,23.6c4.8-1.1,9.6-1.6,14.5-1.6
			C683.1,16.2,681.7,10.5,679.3,5.1z"/>
		<path class="st2" d="M671.1,81.1c0.4-0.7,0.4-1.6,0-2.3c-2.2-3.6-1.5-7.3-0.8-11c-3.7-0.8-7.6-0.6-11.4-0.6c-0.8,0-1.5,0-2.3-0.1
			c-6.7-1.2-13.6-1.3-20.4-1.8c-4.2-0.3-8.5-0.7-12.8-1c-3.2-0.2-6.4-0.2-9.6-0.6c-5.3-0.7-10.6-1.1-15.9-1.2
			c-17.2,0-34.4-0.1-51.5,0.1c-6.3,0.1-12.6-0.7-18.8-0.9c-3.3,0-6.7-0.2-10-0.6c-4.8-0.9-9.7-0.6-14.6-1.1s-9.7-0.8-14.6-1
			c-2.6-0.1-5.6,0-8.1-0.8c-4.2-1.5-7.5-0.7-11,1.2c-2.2,1.2-4.7,1.9-7.2,1.9c-26.7,0.2-53.5-0.5-80.1,0.6
			c-9.5,0.4-19.1-0.2-28.6,0.5c-7.6,0.6-15.2,1-22.9,1.4c-8.1,0.4-16.2,0.9-24.3,1.3c-9.5,0.5-19,0.7-28.4,1.4
			c-4.7,0.3-9.5,0.3-14.2,0.6c-8.9,0.4-17.7,0.7-26.6,1.4c-5.3,0.4-10.6,0.9-15.9,1.6c-5.7,0.7-11.4,1.1-17.2,1.7
			c-5.4,0.6-10.9,1-16.3,1.6c-6.5,0.8-13,1.9-19.5,3.4c-3.2,0.8-6.5,1.3-9.8,1.6c-5.9,0.5-11.8,1-17.7,1.5c-6.5,0.6-13,1-19.5,1.8
			c-4.6,0.7-9.3,1.1-14,1.6c-6.8,0.7-13.5,1.8-20.3,2.3c-5,0.4-9.9,1.1-14.9,1.6c-5.9,0.7-11.8,1.1-17.6,1.7
			c-4.1,0.4-8.2,0.8-12.2,1.2c-3.6,0.3-7.2,0.7-11.1,0.9c-5.2-4.3-9.2-9.1-13.1-14l-2.8-0.1c0,5.1-0.6,10.2-0.1,15.3h5.1
			c1.5,2,3.9,3.3,5,5.2c5,0.6,9.8-0.4,14.4-0.8c4.2-0.4,8.5-0.6,12.7-0.9c9.7-0.8,19.4-1.7,29-2.8c7.8-0.9,15.8-1.2,23.6-2.1
			c5.2-0.6,10.6-0.9,15.8-1.8c3.2-0.4,6.4-0.7,9.6-0.7c4.9-0.1,9.8-0.6,14.6-1s9.7-0.2,14.6-1.1c3.3-0.6,7-0.4,10.5-0.6
			c4.6-0.2,9.2-0.7,13.7-1c4.1-0.3,8.2-0.2,12.2-1c2.9-0.6,6.1-0.4,9.1-0.6c4.3-0.3,8.5-0.8,12.8-1c4.2-0.1,8.5-0.4,12.7-1.1
			c3-0.4,6-0.6,9.1-0.6c5.5-0.1,11-0.9,16.5-0.8c7.2,0.1,14.4-0.7,21.6-0.9c4.5-0.1,9.3,0.1,13.7-0.6c5.8-0.9,11.7,0.2,17.3-1.2
			c0.3,0,0.6,0,0.9,0c6.3,0.5,12.6-0.5,18.8-0.8c5.1-0.3,10.4,0.1,15.5-1.1c0.3,0,0.6,0,0.9,0c6.9,0.4,13.8-0.6,20.7-0.8
			c7.8-0.3,15.7,0,23.5-0.7c5.9-0.5,11.8,0.1,17.5-0.6c7.8-1,15.7,0.3,23.4-1.2c0.3,0,0.6,0,0.9,0c8,0.5,16-0.4,23.9-0.9
			c6.5-0.4,13.2,0.3,19.6-1.1c1.2-0.1,2.5-0.1,3.7,0c20.6,0,41.2,0.2,61.7-0.1c7.9,0.1,15.9-0.3,23.8-1.2c0.3,0,0.6,0,0.9,0
			c8,0.5,15.9-1.1,24-0.7c2.4,0.2,4.4-0.7,6.8-0.7c11.2-0.1,21.7,2.2,32.1,4.8c0.7,0.2,0.7,0.7,0.8,1.1l2.7,0.1
			c0.2,0.4,0.1,1,0.5,1.2c3.2,2.4,6.2,5,9.8,7c5.3,3,10.2,6.6,14.6,10.8c1.2,5.1-3.6,9.7-1,14.4c4.6,1.4,9.4,1.5,14.1,0.5
			c1.6-3.4,2.8-6.9,1.7-10.3c-0.8-1.8-0.3-3.9,1.2-5.1c-0.9-1.2-1.6-2.4-0.8-3.3C672.8,86,671.5,83.6,671.1,81.1z"/>
		<path class="st3" d="M13.1,31.5C13,32.8,13,34.1,14,35.3c1.9,2.1,3.8,4.3,5.7,6.5c7.6,0.9,15.1,1.5,22.6,2.2
			c3.2,0.3,6.4,0.4,9.5,0.8c6.5,0.8,12.9,1.7,19.5,1.7c49.6-0.2,99.2,0.6,148.8-0.6c10.3-0.2,20.6-1.2,30.9-0.7c0.3,0,0.6,0,0.9,0
			c8.2-1,16.5-1,24.7-1.3c6.4-0.2,12.8-1.1,19.3-0.7c0.3,0,0.6,0,0.9,0c5.3-1.3,10.9-0.6,16.4-1.1c4.8-0.5,9.7-0.8,14.6-0.9
			c6.5-0.2,13-1.2,19.6-1.2c0.6,0,1.2,0,1.8-0.1c4.3-1.1,8.8-0.7,13.2-1.1c6.5-0.6,13.1-0.2,19.8-0.6c10.4-0.7,20.9,0.2,31.4-0.7
			c6.7-0.6,13.5-0.1,20.3-0.6c10.1-0.6,20.2-0.8,30.3-1.5c4.7-0.3,9.5-0.4,14.2-0.5c7.4-0.2,14.6-1.2,21.9-1.6
			c2.9-0.1,5.8-0.3,8.6-0.7c6.1-1,12.4-1.1,18.5-1.8c5.6-0.7,11.3-0.7,16.8-1.5c9.4-1.4,18.8-2.5,28.2-3.9
			c7.8-1.1,15.5-2.2,23.3-3.2c7.3-1,14.7-1.9,22-2.8c6.3-0.8,12.6-1.5,18.9-2.2c6.6-0.8,13.2-1.7,19.8-2.4c3.1-0.2,6.1-1.1,8.8-2.6
			c2.7-1.6,5.3-3.3,8.9-3.9V0.1h-10.2c-0.2,0.8,0.2,1.6-0.4,2.2c-1.3,0.7-2.7,1.1-4.2,1.3C649.4,5.8,639,7.7,629,10.4
			c-13.8,3.6-28.3,5.1-42.7,6.9c-8.7,1.1-17.4,2.1-26,3.2c-7.5,0.9-15.1,1.6-22.7,2c-4.1,0.2-8.3,0.5-12.3,0.9
			c-7.1,0.7-14.2,0.9-21.3,1.7c-6,0.7-12.1,1-18.2,1.3c-7.9,0.4-15.9,0.9-23.8,1.3s-15.9,0.9-23.8,1.4c-7.3,0.4-14.7,0.1-22.1,0.6
			c-8.9,0.7-17.8-0.2-26.7,0.6c-8.2,0.7-16.6-0.1-24.9,0.7c-6,0.6-12.2,0.3-18.4,0.6c-8.9,0.4-17.8,0.7-26.7,0.8
			c-4.8,0-9.5,0.6-14.2,0.9c-3.5,0.2-7.1,0.1-10.5,0.5c-5.9,0.7-11.8,1-17.8,1.2c-4,0.2-8,0.3-11.8,0.8c-5.8,0.8-11.6,0.6-17.4,1
			c-7.8,0.5-15.6,1.3-23.5,0.9c-0.3,0-0.6,0-0.9,0c-7.1,1.3-14.3,0.4-21.5,1.2c-5.4,0.6-11,0.1-16.5-0.5c-6.1-0.6-12.2-0.1-18.4-0.6
			c-7.4-0.6-15-0.3-22.6-0.7c-7.1-0.3-14.1-0.1-21.2,0.4c-10.7,0.7-21.5-0.1-32.3,0.7c-5.5,0.5-11.1,0.3-16.6-0.5
			c-6.6-1-13.2-1.7-19.8-2.5C48.3,34.8,42,34,35.7,33.3c-5.2-0.6-10.5-1.3-15.7-2c-3.2-0.4-5.6-1.9-5.8-4.1c-0.6-4.4-2.4-8.6-2-13
			c0.1-0.7,0.5-1.6-0.9-2c-1.1,4.4-2.2,8.8-1.6,13.3c0.3,0,0.5,0,0.8,0c0-0.5-0.4-1.1,0.2-1.6c1,0.5,0.4,1.1,0.4,1.7l0.3,4.6
			C12.9,29.9,13.2,30.6,13.1,31.5z"/>
		<path class="st4" d="M11.1,25.3h-0.6c0-0.5-0.4-1.1,0.2-1.6C11.7,24.1,11.1,24.8,11.1,25.3z"/>
	</g>
</g>
</svg>
