<svg xmlns="http://www.w3.org/2000/svg" width="747.27" height="568.33" viewBox="0 0 747.27 568.33"><defs><style>.cls-1{fill:#cc8b4e;}</style></defs><title>pirate-texture-wood-dark</title><g id="Ebene_2" data-name="Ebene 2"><g id="final-design"><path class="cls-1" d="M362.93,514.51a94.42,94.42,0,0,0,12.78,4.5c1.28.54,2.77,1,4.37,1.52a46.82,46.82,0,0,0,8.91,1.93c9.09,2,18.71,3.06,28.05,4,13.21,1.3,26.5,2.06,39.79,2.66,13.85.63,27.61,1.15,41.48.6,15.19-.6,30.29-2.15,45.37-3.58,18.11-1.71,36.21-2.9,54.17-5.44a275.21,275.21,0,0,0,32.91-6.33c7-1.87,16.12-4.42,19.86-9.67a2.23,2.23,0,0,0,.31-2.07,2.65,2.65,0,0,0-1.55-1.53c-41.28-17.26-90.79-17.37-136.65-17-37.76.33-76.34-1.13-113.44,4.44a3.42,3.42,0,0,0-3.05-.61c-2.44.65-5.19,1.48-7.95,2.49-4.85.93-9.67,2-14.46,3.21a1.5,1.5,0,0,0-.63.32.92.92,0,0,0-.32.88,1.28,1.28,0,0,0,1.7.85c.84-.2,1.68-.39,2.53-.57l-.5.24-1.21.32a26.86,26.86,0,0,0-5.85,1.81c-2.14.74-4.24,1.53-6.33,2.33l-1.48.56c-2.64,1-5.29,2-8,2.8a2.3,2.3,0,0,0-1,.61.82.82,0,0,0-.22.64c.26,1.64,1.76,3.79,2.87,5.24C356.94,511.81,360.24,513.29,362.93,514.51ZM641.68,504l.65.24c-.27.19-.56.36-.86.54A2.07,2.07,0,0,0,641.68,504ZM636,501.91a3.93,3.93,0,0,0-.94.75c-.18-.43-.37-.86-.59-1.28Zm-5.14,3.7-.7.16a10.41,10.41,0,0,1-1.58-2.9C629.32,503.79,630.05,504.72,630.85,505.61Zm-7-7.38a.55.55,0,0,0,.2.23,14.71,14.71,0,0,1,2.41,2l-.16.4a25.34,25.34,0,0,0-5.41-3.37ZM383.18,509.38c5.66-7.06,18.94-10.56,28.49-12.87a157.1,157.1,0,0,1,35.54-4.68c1.88,0,3-.95,3.22-2,20.25-.32,40.53-.15,60.78-.35,21.35-.22,43.61-.4,65.45,1.28,8.12,1.68,16.28,3.51,24.24,5.58,3.58.94,20.18,5.8,21.87,10.36.54,1.44-.41,2.86-3.75,4.1a2.59,2.59,0,0,0-1.93,1.31c-4.41.89-8.86,1.66-13.3,2.38-16.95,2.74-34,4.09-51.2,5.61-15,1.34-30,3-45.12,3.93a404.81,404.81,0,0,1-43.09.21C451.24,523.66,438.11,523,425,522c-8.76-.72-17.89-1.51-26.66-3-.66-.28-1.33-.53-2-.75l.15-.09a.76.76,0,0,0,0-1.28l-.07-.05-.06,0c-2.27-1.66-4.62-1.94-7.48-2.94a27.35,27.35,0,0,1-6.46-3.46C382.67,510,382.93,509.7,383.18,509.38Zm-13.67.49a2.21,2.21,0,0,0,.34-.5l.09-.15a8.08,8.08,0,0,0,.32.9,10,10,0,0,0,.82,1.72c-.36-.12-.73-.23-1.08-.36l-1.88-.64A3.21,3.21,0,0,0,369.51,509.87ZM363.63,501c-.53.39-1,.79-1.53,1.21l-.08,0a.67.67,0,0,0-.38-.41C362.29,501.48,363,501.22,363.63,501Zm-2.31,6.25a2.73,2.73,0,0,0,.57,0l-.11.11c-.3.33-.13.75.18,1l.45.41c-.5-.21-1-.42-1.48-.65a4.34,4.34,0,0,1-1.15-.77A7.55,7.55,0,0,1,361.32,507.2Zm-1.65-4.5a1,1,0,0,0-.25,1.07,2,2,0,0,0,.17.29c-.34.06-.67.14-1,.22a1.71,1.71,0,0,0-1.58.57l-.11,0c-.16-.1-.32-.2-.47-.31A27.71,27.71,0,0,1,359.67,502.7Z"/><path class="cls-1" d="M349,528.74c13.25,3.55,27.06,5.46,40.87,7.22,31.35,4,63,5.77,94.71,7.15,27.16,1.17,54.4,2.85,81.6,3.08,33.53.27,65.22-8.48,93.52-21.64,9.52-4.42,20.35-10.23,23.37-18.85a9.36,9.36,0,0,0,.47-3.83,9.25,9.25,0,0,0-.18-1.3c-.22-1-.68-1.9-.38-2.87a2,2,0,0,1,.31-.65,7.89,7.89,0,0,0,1.3-3.33,8.35,8.35,0,0,0,0-1.5c-.29-3.54-2.83-6.56-5.34-9.57-.91-1.1-1.82-2.2-2.61-3.33a.46.46,0,0,0-.37-.16c-4.44,0-8.61-1.69-12.88-2.61-3.42-.74-6.91-1.28-10.43-1.71-2.27-.28-4.55-.51-6.83-.73-12.73-1.2-25.62-1-38.42-1.26-12.38-.28-24.7-1.2-37-2.35-13.25-1.24-26.54-1.95-39.85-2.64a650.53,650.53,0,0,0-81.54.84,347.15,347.15,0,0,0-76.93,14.49c-3.61,1.12-7.17,2.33-10.7,3.59a1.78,1.78,0,0,0-.81.52.7.7,0,0,0-.15.2,1,1,0,0,0-.08.81,1.68,1.68,0,0,0,.34.59c-12.51,2.48-25.35,6-34.22,12.77a16.41,16.41,0,0,0-1.63,1.44,11.17,11.17,0,0,0-3.5,7,9.82,9.82,0,0,0,3.24,7.87C330.58,523.55,340.5,526.47,349,528.74ZM323,509.28a7.76,7.76,0,0,1,.51-2.06c2.84-7.17,15-11.19,23.25-13.8,4.88-1.54,9.92-2.82,15-3.93a2.75,2.75,0,0,0,2,.06l3.53-1.18c1.84-.35,3.69-.68,5.53-1,.51-.08.29-.67-.21-.59l-.66.12c47.9-14.66,101.41-15.15,152.36-14.46,25.78.36,51.53,2.15,77.31,2.38,12.8.12,25.61.08,38.4.66,6.31.29,12.57.66,18.82,1.41,2.74.33,5.44.79,8.12,1.32,2,.4,4.63,1.56,6.67,1.57,2.82,0,2.82.83,4.25,2.68s2.77,3.4,4,5.18a8.37,8.37,0,0,1,1.48,4A8,8,0,0,1,683,495c.1-.51-1.11,1.6-1.49,2.54a1.38,1.38,0,0,0-.12.38,13.82,13.82,0,0,0,.25,1.92,4.39,4.39,0,0,1,.06.89c-.24,6.71-8.19,12.28-14.77,16-7.64,4.29-16.34,7.5-24.92,10.56a257.05,257.05,0,0,1-29.91,8.89c-13.48,3.05-27.62,4.71-41.54,6.15a238.47,238.47,0,0,1-37.23,1.38c-8.4-.46-16.82-.6-25.23-1l-1.9-.07q-9.32-.42-18.63-.89c-24.24-1.21-48.48-2.73-72.55-5-15.61-1.49-31-3.51-46.3-6.21-11.59-2-23.39-4.56-33.81-9C328.7,518.89,322.47,514.79,323,509.28Z"/><path class="cls-1" d="M90.77,535.29c-2.26,0-4.47,0-6.65.09a132,132,0,0,0-22.4,2.74c-5.81,1.2-11.5,2.76-17.17,4.34-3.71,1-7.4,2-11.13,3-.4.1-.71.57-.31.48-10.69,2.89-21.66,5.58-33.11,6.88v.06c31.49-3.24,59.14-15.71,90.29-16.32C91.36,536.53,91.84,535.3,90.77,535.29Z"/><path class="cls-1" d="M744.44,488.78c-.05.05,0,.09,0,.13l.17,0a2.8,2.8,0,0,0-.31.28c-1.62.41-3.23.81-4.87,1.19-1.37.31-2.69.72-4,1.13a51.82,51.82,0,0,0-6.9,1.47,43,43,0,0,0-6.59,2.07c-.52.21-1,.43-1.55.67s-.77.35-1.15.5a51.58,51.58,0,0,1-6.5,1.89c-3.3.89-4.43,3-4.62,5.19,0,.09,0,.18,0,.26a11,11,0,0,0,0,1.4,2.54,2.54,0,0,0-.43,1.16c0,.07,0,.13,0,.2,0,.43,0,.86,0,1.29a2.22,2.22,0,0,0,1.11,1.89,3.36,3.36,0,0,0,.42.22,19.91,19.91,0,0,1-3.52,6.94c-3.18,3.79-10.12,5.9-15,8.17a392.24,392.24,0,0,1-37.22,15.21,194.12,194.12,0,0,1-40.88,9.43c-15.08,1.72-30.39,1.53-45.6,1.39q-5.31,0-10.64,0c-3.57,0-7.32.94-10.9,1.15-7.92.45-15.89.57-23.83.72-15.4.29-30.82.43-46.23.22s-30.68-1-46-1.74S399,549.43,384,547.29a107.37,107.37,0,0,1-20-4.48c-5.74-2-11.35-4.12-17.22-5.87-13.18-3.91-27.37-2.89-41.21-3.4-15.16-.56-30.31-2.63-45.47-3.5-15.39-.88-30.6-1.67-46.06-1.8-21-.18-42.14,0-63.11,1.26-14.41.86-28.77,2.19-43.13,3.43-5.48.47-11,.93-16.44,1.35l-3.46.26c-.49,0-.5.62,0,.59l2.86-.13c29.91-1.39,60-1,89.9-1.56,30.65-.52,61.68-.42,92.24,1.34,15.19.88,30.07,2.35,45.33,2.2a106.49,106.49,0,0,1,21.59,1.59c6.73,1.34,13,3.83,19.25,6.08,12.22,4.39,25.17,6,38.49,7.28,14.59,1.43,29.26,2.16,43.93,2.87,31,1.5,61.9,1.25,92.94.49,15.07-.37,30.07.63,45.15.82a253.76,253.76,0,0,0,43-2.69c27.27-4.32,52.25-15.14,75.67-26.16,7.91-3.72,15.45-7.85,16.43-15.49a20.7,20.7,0,0,0,.15-3.25,2.44,2.44,0,0,0,1.49-2.32c0-.25-.05-.49-.06-.73a11.85,11.85,0,0,1,0-1.46c.19-3.47,1.88-6.14,5.44-8.05a1.44,1.44,0,0,0,2.12,1,57.23,57.23,0,0,1,10-3,19.84,19.84,0,0,0,4.58.26,36,36,0,0,0,4.79-.81c1.11,0,2.23.1,3.34.16l.51.13a.94.94,0,0,1,.18.09V488A3.94,3.94,0,0,0,744.44,488.78Z"/><path class="cls-1" d="M733.79,449l-2.08.06a22.67,22.67,0,0,0-4.15-.16,4.75,4.75,0,0,0-1.76.41c-2.47.15-4.93.33-7.39.58a79.8,79.8,0,0,0-20.31,4.38c-2.39.91-3.24,3.13-4.33,4.88-1.77,2.84-3,5.3-5.49,7.77C677,465,666,462.56,654.4,461.57c-13.61-1.17-27.36-1.29-41-1.41C600,460,586.7,460,573.43,459.09c-15.09-1-29.94-2.84-45.1-3.34-30.37-1-60.81.94-90.76,4.68-29.14,3.64-58.2,7.94-85.88,15.91-6.6,1.89-13,4.12-19.24,6.51-16.59,6.33-32.37,13.85-49.19,19.85a125.94,125.94,0,0,1-36.85,7.48c-1,0-1.95.05-2.93.05-5.94,0-11.89-.54-17.82-.6-8-.07-15.91.11-23.85.41-14.44.53-29,1.36-43.37,2.55s-28.93,1.76-43.27,3.24c-27.07,2.8-52.56,10.37-79.08,15a.45.45,0,0,0-.11,0c-1.17.3-.62,1.72.67,1.51,26.62-4.25,52.73-10.3,79.67-13.35,15.11-1.71,30.5-2.37,45.71-3.47s30.08-2.54,45.25-3.17c14.57-.61,29.25.13,43.76-1.2a134.34,134.34,0,0,0,32.76-7.75c11.48-4.12,22.43-9,33.57-13.58,12.81-5.31,26.19-9.11,40-12.54,27-6.69,54.9-11,82.93-14.46a573.18,573.18,0,0,1,89.85-4.28c14.53.48,28.79,2.19,43.24,3.23,12.71.91,25.52.9,38.28,1,25.41.18,53-.1,76.88,7.38a2.54,2.54,0,0,0,2-.41,30,30,0,0,0,6.67-5.47c1-1.07,1.51-2.42,2.43-3.54.21-.26,2.3-2.31,1.34-1.94,6.45-2.45,13.4-3.54,20.53-4.16,1.52-.13,3-.23,4.53-.31a5,5,0,0,0,1.45.19c6.67-.06,11.23,4.3,17.73,5.08a4.44,4.44,0,0,0,2-.12v-6.05c-4.77-1.06-9.14-3.17-14-4.11C733.35,449.19,733.67,449.07,733.79,449Z"/><path class="cls-1" d="M721.51,547.91c-3-.3-6.07-.67-9.06-1.15-2.56-.42-7.61-1.21-6.84-2.89a1.66,1.66,0,0,1,.3-.42,5.51,5.51,0,0,1,1.43-1,82.72,82.72,0,0,1,9.73-4.1,101.28,101.28,0,0,1,25-5.66c.1,0,.1-.12,0-.11-12.55,1.22-26,4.9-36.39,10.63l-.75.43c-.53.3-1.05.59-1.55.9a0,0,0,0,0,0,.07A74.81,74.81,0,0,0,721.51,547.91Z"/><path class="cls-1" d="M127.06,558.85c22.65-3.42,45.16-7.56,67.7-11.35,12-2,23.84-2.51,36.1-2.58,3,0,6,.16,9,.17,1.17,0,2.35.18,3.52.18h.16c.39,0,.61-.1.73,0,.61.47-1.86,1.86-2.33,2.21-3.13,2.38-7.36,3.91-11.11,5.76l-1.06.52c-.14.08-.29.14-.43.21s-.44.43-.22.65c3.41,3.48,11,3,16,2.84,9.38-.35,18.68-1.59,28-2.44,11.36-1,22.55.33,33.83,1.39,14.7,1.38,29.45,1.11,44.15,2.3,15,1.22,29.95,3.16,45.1,3.39,15,.22,29.84-1.82,44.76-.42q45.58,4.25,91.48,5.77c19.48.63,39.15,1.23,58.64.63,18.8-.58,37.52-2.49,56.15-4.44,19.66-2.06,39.08-3.68,58.88-4.73,13.95-.74,27.83-2.87,41.19-4.75V553c-7.76,2.62-16.26,3.25-24.85,3.59a1.42,1.42,0,0,1-1.12-.41l-.08-.08a157.61,157.61,0,0,1-19.34,1.12,1.31,1.31,0,0,1-1.16-.52c-2.34.15-4.67.3-7,.47-7.33.54-14.51,1.59-21.79,2.38l-17.29,1.9c-6.92.74-13.85,1.47-20.78,2.12-17.77,1.69-35.59,2.93-53.53,3-26.1.1-52.21-.58-78.26-1.86q-6.66-.33-13.3-.7c-15.34-.88-30.66-1.87-46-3.1-9.05-.72-18-.83-27-.78-5.92,0-11.84.13-17.81.17-20,.14-39.6-3.86-59.5-4.83-10.44-.5-20.61-.91-31-2-8.71-.9-17.48-1.79-26.3-1.36-8.62.42-17.06,2.06-25.58,3.21-3.12.42-6.25.77-9.4,1-4.69.31-11.51.87-15.39-1.63,0,0,0-.08.16-.17s.57-.36,1.06-.64c2.25-1.27,6.84-3.6,7.41-3.91a18.27,18.27,0,0,0,6.37-5.16c.17-.24,0-.55-.41-.55h-1.25c-16.35.11-32.7.64-49,1.73q-6.47.43-12.93,1c-20.67,1.8-41,6.45-61.47,9.34-21.87,3.09-44.15,3.78-66.34,3.21-18-.47-36.26-1.07-54.39-.53v2.86c20,0,38.85,1.67,58,2.15C81.34,564.59,104.25,562.3,127.06,558.85Z"/><path class="cls-1" d="M721.51,547.91c7.44.73,15,1,22.57,1C736.6,548.42,729,548.47,721.51,547.91Z"/><path class="cls-1" d="M419.08,448.94c26.64.13,53.3-.95,79.77-3.22,13.54-1.16,27-2.12,40.61-2.25s27.56.29,41.33.66,27.55.77,41.34.71c13.54,0,27-1,40.43-2s26.71-1.92,40.09-2.64c13.61-.73,27.34-.68,40.89-1.83.28,0,.28-.32,0-.34-3.17-.26-6.35-.41-9.54-.48-12.27-.27-24.7.66-36.85,1.37-15.17.88-30.31,2-45.45,3.06q-11.1.8-22.17,1.25c-8.09.33-16.19.51-24.31.48-15.67,0-31.32-.71-47-1-25.31-.46-50.41,1.29-75.58,2.75-5.41.31-10.82.61-16.24.87q-14,.67-28,1c-5.82.14-11.64.24-17.46.26-8.63,0-17.26-.26-25.88-.35-3.87,0-7.73,0-11.59.06q-3.69.07-7.36.29c-5.13.3-10.25.57-15.38.84-7.79.4-15.57.82-23.36,1.39-12.85.95-25.75,1.67-38.68,1.49-25.25-.33-49.67-6.26-75.05-6-26.61.23-53.35,1.91-79.9,3.37-12.11.66-24.16.36-36.18.3-13.26-.07-26.48.14-39.7,2.24-.06,0,0,.08,0,.07,14.7-2.67,30.09-1.39,44.95-.55s29.15,1.05,44,.51c15.11-.55,30.22-1.22,45.32-1.92,14.57-.67,28.77-1.65,43.35-.53,13.75,1.06,27.34,3.08,41.1,4.16,14.52,1.14,29.2.56,43.71-.37,14.72-1,29.33-3,44.06-3.58C389.29,448.42,404.14,448.87,419.08,448.94Z"/><path class="cls-1" d="M100.19,466.43a261.46,261.46,0,0,0,41-.68c7.79-.84,15.92-.26,23.75,0,7.5.23,15,.61,22.47,1,29.31,1.45,58.6,3.16,88,1.89,1.35-.05,1.69-1.26,1-1.83a1.43,1.43,0,0,0-1-.29c-29.35,1.22-58.7-.63-88-2.05-14.34-.7-28.72-.88-43.06-1.53-3.74-.17-7.49-.78-11.23-1s-7.4-.06-11-.08c-7.32,0-14.62-.32-21.92-.67-28.6-1.36-57.39-5-85.95-6.57-4.58-.26-9.47-.45-14.24-.58v5.39c4.77.15,9.66.36,14.24.62C42.8,461.59,71.6,465,100.19,466.43Z"/><path class="cls-1" d="M67.23,490.63c10.92.09,18.7,6,29.31,6.58,13.44.74,26.89-2.6,39.72-5.11,6.74-1.32,13.46-2.59,20.31-3.55a145.86,145.86,0,0,1,24.1-1c15,.35,30.3,0,45.24-1,29.81-1.89,58.94-5.17,87.84-11.23,5.8-1.21,11.33-3.08,17-4.47,5.89-1.44,11.72-2.7,17.77-3.71,12.79-2.12,25.48-4.18,38.53-5.07,0,0,0,0,0,0-9.66.6-19.35,1.1-28.95,2.09-4,.41-7.92.89-11.85,1.51-6.65,1.05-13.21,2.39-19.78,3.69-7.52,1.5-15.33,2.38-22.92,3.76-14.64,2.66-29.45,4.81-44.28,6.75-15.2,2-30.66,4.18-46,5.09-9.12.54-18.26.84-27.4,1.23-5.82.25-11.64.53-17.44.93-13.84.94-27.24,4-40.94,5.63l-4.35.5c-5.81.64-11.66,1.16-17.53,1.24-6.44.08-11.46-2-16.94-4.18A67.88,67.88,0,0,0,76,486.2c-6.78-1.34-14.13-.89-21-.29-11.86,1-23.73,3-35.75,2.88-6.27-.08-12.6-.32-19.28-.54v5.14c8.59.29,16.44.59,24.44.62C38.68,494.07,52.94,490.5,67.23,490.63Z"/><path class="cls-1" d="M148.89,507.59c14-1,28.07-2.07,42.13-2.23,13.33-.15,26.64-.05,39.95-.68,12.42-.58,24.93-2.05,36-6.64.17-.07,0-.25-.13-.23l-4.64.54c-11.46,1.31-23,2.39-34.54,2.88-12.73.53-25.49.37-38.22,1-13.56.65-26.87,2.71-40.33,3.93l-.18,0c-14.76,1.32-29.48,2.74-44.29,3.71q-40.15,2.65-80.26,3.67c3.06-.2,6.11-.41,9.17-.63a1,1,0,0,0,.92-.57c-6.67.49-13.28,1.59-20,1.39a2,2,0,0,1-1.49-.59,1.5,1.5,0,0,1-.28-.46,31.61,31.61,0,0,1-3.75.19,2,2,0,0,1-1.52-.71c-2.35.06-4.5.12-7.36.17V515c36.27-1.15,70.88-2.69,106-4.84C120.11,509.3,134.76,508.63,148.89,507.59Z"/><path class="cls-1" d="M467.25,512.47c2.64,0,5.27.06,7.9.11a1.09,1.09,0,0,0,.41.23c5.17,1.3,9.26,2.28,14.82,2.37,6.07.1,12.15,0,18.2-.3,10.85-.51,22-1.61,32-4.93a2.15,2.15,0,0,0,1.56-2.82,3,3,0,0,0-2.38-1.94,109.3,109.3,0,0,0-12.94-1.48,3.72,3.72,0,0,0-2.29-.75,118.08,118.08,0,0,0-17.78,1c-13.16.83-26.34,2.66-39.48,3.34a3.27,3.27,0,0,0-3.17,2C463.57,510.71,464.6,512.46,467.25,512.47Z"/><path class="cls-1" d="M742.24,513.1a66.44,66.44,0,0,0-6.7,1.16c-.24,0,0,.32.23.28,2-.35,5-.62,6.94.16a15,15,0,0,0,4.56.89V513.1A21.7,21.7,0,0,0,742.24,513.1Z"/><path class="cls-1" d="M722.91,561.75c-3.55.81-7.06,1.61-10.61,2.33a108,108,0,0,1-20.32,2.4v0c3.82,0,8.15.55,12.26.07,5-.58,9.88-1.35,14.82-2,3.9-.54,7.76-1.16,11.63-1.77,1.53-.13,3.06-.23,4.61-.28,3.14-.11,6.26-.19,9.37-.49,1,.15,1.66.29,2.6.41V559C739.64,558.31,731.08,559.89,722.91,561.75Z"/><path class="cls-1" d="M702.42,15.63c-17.29-.18-34.51-1.71-51.77-2.3s-34.78-.05-52.18.05c-17.6.11-35.17.5-52.77.66l0-2.36c0-.48-.5-.82-1.11-.85-5.92-.24-11.88-1.09-17.8-1.48q-12-.78-24-1.2c-15.65-.54-31.32-.58-47-.6C424.8,7.52,394,8.88,363.05,10,332.37,11,301.68,11.13,271,10.6c-15.28-.26-30.5-.93-45.74-1.77s-31-1.48-46.13-3.18C164.63,4,149.63,4.08,135,3.93c-15.79-.17-31.58,0-47.37,0s-31.49.3-47-1.69C30.94,1,20.8-.15,10.85,0c-3,.05-6,.22-8.93.55-.41,0-.3.53.09.53C16.48,1.05,30.38,4.47,44.58,6c14.8,1.57,30.05,1.12,45,1.11,31.56,0,63.08-.13,94.58,1.65q13.68.77,27.39,1.41,14.58.69,29.17,1.2c42,1.48,84.12,1.8,126.08.3,30.29-1.09,60.53-2.34,90.86-2.34,15,0,30.08.08,45.1.54q11.12.36,22.2,1.18c6,.44,12.41,1.67,18.48,1.67h0s0,.6,0,.94,0,.88,0,1.34.53.86,1.16.87c17.36.15,34.7.55,52.06.65s34.84-.08,52.16.49,34.5,2.19,51.81,2.67c8.48.24,16.72.15,25.17-.4,7.34-.48,14.83-2.14,21.51-2.77V11.72c-5.73.58-12.34,2-18.73,2.74A196.18,196.18,0,0,1,702.42,15.63Z"/><path class="cls-1" d="M30.56,45.55c2.24.42,4.38.79,6.6,1,0,.8,1.11,1.35,2.07,1.4,5.44.28,10.8,1.6,16.1,2.49,6,1,11.89,2.28,17.76,3.6,12.51,2.8,24.86,6,37.55,8.27,25.58,4.65,51.07,2.9,76.79-.08,11.91-1.38,24-3.36,36-3.61,9.09-.19,18.21.29,27.3.42,16.33.23,37.33.56,50-8.64a2.11,2.11,0,0,0,.87-2.53,3.26,3.26,0,0,0-2.39-1.86c-4.74-1.06-9.71-1.58-14.51-2.47s-10-1.57-15-2.15c-10.61-1.21-21.32-1.79-32-2.24-21.69-.92-43.32-1.75-64.95-3.32-11.21-.81-22.43-1.64-33.69-1.92-11.57-.29-22.89,1-34.36,1.94a437,437,0,0,0-58.53,8.63c-1.73,0-3.47.12-5.27.22a1.8,1.8,0,0,0-1.72-.88c-2,.16-3.91.43-5.83.75-.93.15-1.87.32-2.84.5A.22.22,0,0,0,30.56,45.55Zm27.38-1.32c15.47-2.26,31.22-3.82,46.81-4.86,22-1.45,44.29-.09,66.18,1.56,21.09,1.6,42.17,2.6,63.33,3.39,10.42.4,20.83.94,31.18,1.93,5.32.51,10.6,1.24,15.83,2.11,2.1.35,4.24.68,6.38,1l2.72.42C278,55.07,260,54,246.91,53.79c-8.47-.16-16.95-.54-25.42-.29-12,.34-24.06,2.37-35.88,3.76a377.15,377.15,0,0,1-39.94,3,188.24,188.24,0,0,1-38.16-3.8c-12.08-2.33-23.89-5.4-35.85-8C65.8,47.1,59.89,46,53.91,45l-.61-.08C54.84,44.68,56.39,44.46,57.94,44.23Z"/><path class="cls-1" d="M93.28,79.5c15,1.39,30.09.49,45.09-.35a454.92,454.92,0,0,1,45.83-.07c61.62,2.68,123.46.07,185-1.94,16.36-.53,32.67-1.22,49-2.24,15.49-1,31-2,46.53-1.3,3.74.16,7.46.47,11.16.9,2.9.34,7.11,1.84,9.95,1.61a219.66,219.66,0,0,1,24.88-.42c17.51.56,34.88,2.71,52.43,2.74a2.17,2.17,0,0,0,2.06-1.19,5.44,5.44,0,0,0,.44-3c-1.15-7.33-20.42-8.56-29.52-11.81,1.4-.1,2.81-.17,4.22-.21,18.61-.59,37.7,3.1,55.71-1.87,6.42-1.77,9.17-6.51,14.35-9.53,3.79-2.21,9.05-2.84,13.64-3.48A130.26,130.26,0,0,1,640,46.2c21.76-.37,42,7,62.76,10.86A108.21,108.21,0,0,0,733,58.81c1.82-.61,3.65-1.13,5-1.67,2.3-.91,4.62-1.87,7-2.68-1.24-.06-2.59-.06-3.93,0a26.23,26.23,0,0,0-4,.52c-11.49,2.47-23.5,1.12-34.88-.94C681.38,50.29,661.63,43.47,640,43.67c-9.22.08-18.9,1-27.58,3.42-6.69,1.89-9.19,7.24-14.83,10-4.32,2.14-10.66,2.69-15.67,3.15a139,139,0,0,1-16.83.21c-11.27-.35-22.57-1.32-33.79,0a1.35,1.35,0,0,0-.86.42,1.08,1.08,0,0,0,.15,1.6c4.26,3.24,9.1,4.43,14.83,5.75,3.5.8,13,2.27,15.39,5.49a2.63,2.63,0,0,1,.57,1.45c-13.46-.16-26.85-1.22-40.27-2-6.81-.38-13.65-.65-20.48-.67-3.31,0-6.61.12-9.9.29a52.82,52.82,0,0,1-11-.74c-24.37-3.51-50.08-.78-74.55.68-14.39.85-28.9.88-43.32,1.39q-23,.83-46,1.49c-30.77.91-61.43,1.89-92.24,1.45-18.8-.26-37.52-1.49-56.3-2-18-.53-36,1.52-54,1.73a197.85,197.85,0,0,1-28.09-1.72C77,74,68.88,72.47,60.6,71.72,41.82,70,22.24,71,3.44,72a2.2,2.2,0,0,0-1.8.87c-.59.92,0,2.23,1.8,2.32,15.41.83,30.86,1.27,46.31.73C64.58,75.36,78.67,78.14,93.28,79.5Z"/><path class="cls-1" d="M407.94,94.43c28.12.09,56.23.88,84.36.88,24.3,0,48.93,1.1,73.18-.21,17.18-.92,35.86-4,46.59-15,4.13-4.26,7-9.16,11.92-13,5.94-4.59,13.83-4.46,21.37-2.79l.54.12a10.77,10.77,0,0,0-1,3.35c-.32,2.89,1.14,5.39,5.76,6.79,8.17,2.49,18.84.85,27.4,1.31a86.64,86.64,0,0,1,14.53,2.33,114.39,114.39,0,0,0,19.79,3.07c1.72.1,3.44.15,5.15.17a6.16,6.16,0,0,1,1.36-.39c3.36-.6,6.68-1.31,10-2-2.58.14-5.18.26-7.79.32h-1A108.17,108.17,0,0,1,700.94,78c-5-.81-9.72-2.32-14.67-3.21-7.89-1.43-16-1.11-24.08-1.14a45.48,45.48,0,0,1-10.84-1c-3.36-.85-4.18-2.76-3.89-4.83a10.74,10.74,0,0,1,1.3-3.5.87.87,0,0,0-.15-1.15,1.47,1.47,0,0,0-.64-.31c-7.49-1.89-15.47-2.63-22.4.78-5.68,2.79-9.2,7.76-12.82,11.94C607.19,82,600.81,86.22,591.23,89c-11.36,3.3-23.92,3.91-36,4.12-27.82.48-55.77-.36-83.57-.8-31.25-.51-62.49-1.09-93.74-1.57-28-.43-55.9-.6-83.84.37-28.23,1-56.2,2.84-84.5,2.62-27.58-.22-55.09-2.06-82.68-2.2-22-.11-44.22.44-66.23-.69-6.18-.32-12.34-.77-18.48-1.4-.65-.07-.94.67-.27.76,14.39,1.87,28.9,3.12,43.47,3.89,15,.8,30.13.46,45.14.55,30.69.19,61.28,2.42,91.93,3.25,15.3.41,30.5-.35,45.76-1.09,15.41-.75,30.84-1.17,46.26-1.53C345.65,94.54,376.79,94.34,407.94,94.43Z"/><path class="cls-1" d="M147,130.27c30-.3,60-.12,90-.69,14.4-.27,28.9-.85,43.22-2s28.41-3,42.67-3.88c61.41-3.8,122.63-.6,184.07.3,15.32.22,30.73.59,46,.17,15-.4,30-2.11,45-3.2a330.27,330.27,0,0,1,45.37-.13c14.29.92,28.52,2.29,42.89,1.9,13-.35,25.86-1.91,38.74-3.36-1.51-.3-3-.61-4.52-.94l-1.87-.4c-11.93,1.3-23.84,2.79-35.9,3-14.36.25-28.62-1.29-42.91-2.15a267.75,267.75,0,0,0-27.9-.06c-10.28.45-20.53,1.29-30.79,2.08-6,.47-12,.91-18,1.24a1.15,1.15,0,0,0-1-.82c-9.14-1.8-18.51-2.08-27.9-2.13.66-.48,1.31-1,2-1.43a18.35,18.35,0,0,1,3.37-2,.94.94,0,0,0,.34-1.66,1.6,1.6,0,0,0-1.07-.41l-1.41,0a3.15,3.15,0,0,0,.47-1.43,5,5,0,0,0,0-.68,1.17,1.17,0,0,0-.09-.42,2,2,0,0,0-1.87-1.07c-29.54-1.38-58.91-4.24-88.46-5.6-30.43-1.4-60.82,2.21-91.07,4.22-30.8,2-61.43,2.91-92.34,2.41-30.72-.49-61.41,1.27-92.08,2.23-14,.44-27.86.74-41.83.54-14.56-.2-28.63-1.42-43-2.95a285.07,285.07,0,0,0-40.29-1.68c-14.12.5-27.85,1.63-42,.29a1.3,1.3,0,0,0-.78.14c-.73.42-.46,1.62.78,1.74,14.48,1.37,29.18.57,43.71.16s28.77,1,43.16,2.29c29.63,2.74,59.61,2.47,89.39,1.66,30.79-.83,61.49-1.91,92.31-1.37S335,113,365.56,110.92c28.55-1.93,56.8-4.36,85.52-3.66,26.82.64,53.54,3.7,80.28,5.47l.48,0a1.22,1.22,0,0,0-.43.48.83.83,0,0,0-.09.47c0,.36.06.72.1,1.08a1.47,1.47,0,0,0,1.19,1.23,1.54,1.54,0,0,0,.49,0l1.51-.06a28.75,28.75,0,0,1-5.08,3.29,1.62,1.62,0,0,0-.29.19c-.78.63-.27,1.79,1,1.79,3.09,0,6.17,0,9.23.06a132.39,132.39,0,0,1,16.2,1.14c-2.06.08-4.13.15-6.2.19-30.52.6-61.22-1-91.7-1.87-30.75-.93-61.51-1.45-92.28-.88-29.65.54-59.16,2.62-88.73,4.14-14.39.74-28.73,1.58-43.15,1.81-14.84.23-29.7.1-44.54.21-30.6.23-61.67.66-92.26.77-32.18.13-64.36-.59-96.81-1.5v4.09c19.09.75,36.57,1,54.58,1.13C85.21,130.87,116.33,130.58,147,130.27Z"/><path class="cls-1" d="M746.86,126.79a1.81,1.81,0,0,0,.41-.3v-.12c0,.13-.28.27-.41.41Z"/><path class="cls-1" d="M746.81,126.08l-.84,0a.48.48,0,0,0-.21,0,40.1,40.1,0,0,0-9.42,1.34l-1.27.26c-.77,0-1.55.05-2.33.05-7.24,0-14.16-.31-21.37-.75-14.42-.89-28.71-1.79-43.19-2-30.1-.4-60.32.71-90.33,2.45-30.58,1.77-61.4,3.31-92,1.25-6.64-.44-13-1.12-19.63-1.81l14.24-.06,4.72,0v0l-6-.06-16.55-.2c-7.27-.74-14.68-1.45-22-1.81a227.51,227.51,0,0,0-36.26.92c-1.4.16-2.8.32-4.18.51l-5.61,0-6,.08q-16.31.24-32.62,1l-3.05.15-2.9.14c-.54,0-.68.6-.15.72,11.67,2.66,24.13,1.21,36,.17,5.08-.44,10.12-.9,15.17-1.29,15.27-.17,30.54-.17,45.81-.17,8.63.65,17.23,1.57,25.78,2.53a421.28,421.28,0,0,0,44.69,2.33c30.71.16,61.42-2.43,92.08-3.53,29.56-1.07,58.73-1.4,88.27.09,15.59.78,31.47,2.78,46.78,1l0,.24c0,.26.06.46.37.46a14.78,14.78,0,0,0,2.61-.15V129l0,0c-.15,0-.22,0-.37-.05l.41-.05v-2.07l-.45,0,0,0h-.21a1.12,1.12,0,0,1,.36-.32l0,0,.24-.1v0l-.17,0C747.1,126.2,747,126.09,746.81,126.08ZM359.48,129c-1.87-.14-3.69-.4-5.52-.7l-1.34-.25h0c1.56-.07,3.12-.12,4.69-.18,1.82-.06,3.64-.11,5.46-.14l1.7,0c3.9-.07,7.79-.15,11.69-.24l4-.08,8-.17,4,0C381.39,128.63,370.45,129.81,359.48,129Zm59.39-3c2.36-.06,4.72-.1,7.1-.09,2.61,0,5.22.09,7.82.18Q426.34,126.08,418.87,126.05Z"/><path class="cls-1" d="M729,31.31c-30.75-1.59-61.31-3.07-92.12-4.09-15.55-.52-31.11-.82-46.67-.68-13.93.12-28.55.06-42.23,2.2-15,2.36-30.82,2.42-46.08,3.71C487,33.71,472.15,35,457.17,34.94h-1.88c-26.49-.29-52.37-5.28-78.18,1.78q-5,1.38-10.07,2.34a121.92,121.92,0,0,1-17.81,2.09A126.63,126.63,0,0,1,335.34,41,216.6,216.6,0,0,1,308,37.23c-4.81-.93-9.58-1.94-14.34-3C242,23.2,187.58,18.07,133.94,17.9c-9.56,0-19.17.1-28.76.44C77.56,19.31,50,22,23.4,27.72c-.41.09-.24.57.17.48C76,17,131.32,18.9,185,22.47c13.36.89,26.69,2.05,40,3.37s26.85,2.33,40.1,4.48c26.52,4.3,52.41,12.23,79.84,12.35a116.44,116.44,0,0,0,17.93-1.4c7.31-1.11,14.06-3.53,21.21-5,13.32-2.79,27.22-2.42,40.84-1.53,14.32.94,28.47,2.07,42.88,1.68,15-.41,30-1.94,45-3.07,7.34-.55,14.69-.91,22.05-1.27s14.83.42,22.25.27c14.73-.3,29.45-.77,44.18-.72,31.1.09,62.15,1.77,93.19,3.1,7.24.31,14.38.69,21.56.83a245.94,245.94,0,0,0,31.25-3.36V32.1l-7-.27C736.53,31.68,732.73,31.5,729,31.31Z"/><path class="cls-1" d="M25.69,16a3.09,3.09,0,0,0,1.16-.5L28,15.42c14.76-.84,29.52-1.69,44.27-2.68,30.72-2.06,61.26-2.15,92.07-1.21s62,1.41,92.65,4.43c30.14,3,59.95,7.21,90.48,6.61q45-.9,90,.1,22.54.48,45.09.89c6.93.13,13.86.27,20.78.37a69.38,69.38,0,0,0,18.32-2.42c.11,0,.06-.14,0-.13a61.17,61.17,0,0,1-9.53.56c-4.06,0-8.16-.27-12.11-.36L476.92,21c-15.64-.39-31.27-.71-46.91-.87s-31.16-.35-46.75-.33-31.21.57-46.82.57c-30.3,0-60.29-4.59-90.3-7.19-10.68-.92-21.39-1.27-32.11-1.56-4.68-.12-9.37-.23-14.07-.37q-11.15-.34-22.3-.81c-8.19-.33-16.38-.66-24.57-.93C138.72,9.06,124.34,8.81,110,9S81.35,10.14,67,11.17C53.9,12.12,40.8,13,27.69,13.39c-.24-.93-1.67-1.75-3.25-1.75-8,0-15.85.24-24.44.59v4.7c6.68-.2,13.08-.57,19.39-.76A22.22,22.22,0,0,0,25.69,16Z"/><path class="cls-1" d="M742.38,101.58c-3.15-.68-6.32-1.25-9.52-1.75-1.15-.18-2.31-.36-3.47-.52-4.48-.18-8.95-.39-13.46-.68-14.59-.91-28.42-2-43.1-1.29-13.53.69-26.9,2.47-40.22,4.29-14.23,2-28.45,3.93-42.87,4.9a248.2,248.2,0,0,1-42.15-1.17c-28.47-2.88-57-5.75-85.61-7.58-23.48-1.49-46.94-2.17-70.33-1.65a589.69,589.69,0,0,0-69,5.44c-.34.05-.2.44.14.39,28.64-4.19,57.58-4.6,86.64-4.32s58.41,2.14,87.42,4.58c14.19,1.2,28.35,2.57,42.5,4s27.79,2.83,42,2.44c28-.76,55.36-6.41,83.13-8.91A235.66,235.66,0,0,1,698.28,99c12.1.66,23.85,1.87,36,2.33C736.93,101.44,739.73,101.52,742.38,101.58Z"/><path class="cls-1" d="M246.8,68.41a1.38,1.38,0,0,0-.43.07c-.9.31-.76,1.5.43,1.52,15.62.33,31.05.68,46.68.11a443,443,0,0,0,44.66-4c27.78-3.84,53.37-14.33,81.87-15.55,15.5-.67,31-.54,46.55-.55,14.79,0,29.51-.68,44.28-.87,12.93-.17,25.86.25,38.7-1.2,7-.79,13.56-2.57,20.64-3.15q12.06-1,24.15-1.61c14.89-.76,29.8-1.65,44.71-2.11.12,0,.12-.15,0-.15-7.14-.21-14.25-.36-21.36-.4-8.38,0-16.77,0-25.2.4q-11.15.48-22.3,1.1c-3.79.22-7.52.23-11.31.32-3,.07-6.27,1.21-9.21,1.63-13.22,1.89-27,1.09-40.39,1.27-14.86.19-29.68.84-44.55.85-15.47,0-30.93,0-46.37.61-13.67.58-27,3.46-40,6.55-13.26,3.15-26.36,6.71-40,8.91A428.08,428.08,0,0,1,291.61,67C276.72,67.74,261.72,68.1,246.8,68.41Z"/><path class="cls-1" d="M119,414.1c13.61.41,27.28-2,40.55-3.93a314.53,314.53,0,0,1,46.58-3.44c15.4,0,30.71,1.31,46.1,1.45,30.66.29,61.19-3.39,91.87-3.17,16.19.12,32.66.15,48.74-1.5,0,0,0,0,0,0-14.58,1.3-29,.4-43.55.11l-1.5,0c-5-.08-10,0-15,.08h-.42l-3.18.08c-7.65.23-15.3.61-22.94,1l-4.65.23c-15.23.75-30.38,1-45.64,1s-30.73-1.28-46.11-1.58a301.85,301.85,0,0,0-44.22,2.44c-14.39,1.86-28.56,4.55-43.25,4.48-6.35,0-12.67-.82-19-1.2-6.81-.41-13.64-.54-20.47-.57-13.88-.06-28.25,1-42.09,1.79-6.63.39-13.14.89-19.75,1.45-6.82.58-13.75,1.22-21,1.87v1.11c26.72-2.16,52.75-3.57,79.13-3.53C92.36,412.21,105.81,413.7,119,414.1Z"/><path class="cls-1" d="M737.56,400.56c-2.86,0-5.76-.06-8.62-.12-15-.32-29.61-1.44-44.6-.41-14.09,1-28,3-42.05,3.94-14.77,1-29.52-.41-44.27-1q-23.43-1-46.88-1.4c-15.67-.31-31.34-.46-47-.55s-31.32-.51-46.86.26c-6.23.31-12.37.6-18.64.66a2.06,2.06,0,0,0-1.84.88c-.56,1,.05,2.31,1.84,2.33,15.59.14,31.1.95,46.73,1.06s31.33.26,47,.5c31.11.48,62.1,1.88,93.17,3.11,28.59,1.14,56.16-6.5,84.85-4.73,4.35.27,8.8.46,13.24.59a.53.53,0,0,0,.13,0h.16l3.68.09a2.49,2.49,0,0,1,.16-.33c1.57-.12,3.15-.25,4.7-.41,1.56,0,3.12,0,4.67,0a1.26,1.26,0,0,0,1.31-.85,18.74,18.74,0,0,0,7.17-2.91l1.68-.35v-.32h-1.13c0-.33-.34-.61-.84-.59h-.13l-.35,0c.5-.3.91-.59,1.35-.88a8.15,8.15,0,0,1,1.1-.63V397.1l-.29.09C743.76,398.2,740.81,399.45,737.56,400.56Zm-1.08,2-1.23.26c-1.33,0-2.65,0-4,0a7.77,7.77,0,0,1,1.27-.23c1.72-.18,3.44-.3,5.16-.37C737.3,402.38,736.89,402.49,736.48,402.59Z"/><path class="cls-1" d="M709.88,375.28a238.56,238.56,0,0,0-41.32.87c-13.58,1.35-27,3.05-40.46,4.94-14.72,2.06-29.58,4.23-44.59,4.16-13.54-.06-27.38-2.91-40.4-5.47-14.16-2.79-28.72-3.88-43.32-4.26-14.89-.39-30-.4-44.89.17-10.43.39-20.84,1.21-31.24,2-5.1.38-10.2.75-15.31,1.06-30.51,1.86-60.91,4-91.47,5.26-15.47.64-30.94.88-46.43.95-15,.07-30,.36-45-.81-14.27-1.13-28.4-3.1-42.72-4-2.08-.13-4.13-.2-6.16-.23,4.45.19,8.82.52,12.93.84,14.28,1.11,28.42,3.07,42.74,3.95,15.14.93,30.57.39,45.75.29,15.37-.1,30.75-.25,46.11-.79s30.44-1.19,45.65-2.16,30.66-2.48,46-2.77c7.44-.14,14.86-.4,22.3-.4,8.11,0,16.2.5,24.31.49,14.82,0,29.65-.3,44.46.32,15.33.63,29.69,3.09,44.54,5.77a179.8,179.8,0,0,0,38.83,2.78c28.74-1.06,56.28-8.54,84.76-11.09,24.38-2.18,48.46.23,72.32,2.78v-.14c-11.45-1.59-24.35-3.54-36.74-4.49Z"/><path class="cls-1" d="M69.94,381.86c7-.43,13.94-1.15,21-.9s13.9,1.77,20.68,3c6,1.11,12,2.43,18.28,2.25s11.91-2.29,17.53-3.92c.42-.12.86-.23,1.3-.34l-4.34.66c-2.09.33-4.16.65-6.23.91a54.38,54.38,0,0,1-14.37.19c-6.88-1-13.6-2.35-20.4-3.58a139.28,139.28,0,0,0-17.23-2.1c-7.84-.42-16.34.46-24.16.84-20.46,1-41,2.13-62,2.84v1.9c7.64.06,15.24.13,22.62.29C38.12,384.24,54.51,382.83,69.94,381.86Z"/><path class="cls-1" d="M148.7,382a170.83,170.83,0,0,1,27.87-2C167.1,379.53,157.25,379.74,148.7,382Z"/><path class="cls-1" d="M370.09,361.13c-6.84.38-13.69.44-20.54.3-8.23-.18-15.86-2.15-24-2.56-31-1.55-62-4.19-93-2.46-29.7,1.66-59.3-2.86-88.76-4.86-6.3-.42-14-1.46-20.22-.55-2.2.32-4.41.51-6.62.61-6.15.29-12.32-.12-18.56-.45-15.35-.81-30.66-2-46-2.72q-10.11-.49-20.25-.51c-.36,0-.36.43,0,.43,15.44.09,30.68,1.42,46,2.56,7.35.55,14.71,1.08,22.08,1.5q5.52.31,11,.49c1.84.07,3.68.1,5.52.14,2.65.06,4.76.92,7.32,1,15.31.49,30.41,2,45.57,3.63,14.46,1.56,28.52,3.67,43.16,4.15,15.26.49,30.49-.92,45.75-.81,15.53.12,31,1,46.52,1.94,7.45.43,14.89.87,22.34,1.25,3.83.19,7.38-.4,11.16-.72a123.43,123.43,0,0,1,12.76,0,259.69,259.69,0,0,0,40.43-2.41c6.73-.9,13.71-1.68,19.83-4.07.26-.11.13-.43-.16-.42-1.14,0-2.28.07-3.42.15-5.16.39-10.21,1.44-15.32,2.17C385.21,360,377.66,360.7,370.09,361.13Z"/><path class="cls-1" d="M640.6,351.36c24.57-1.17,48.71-3.75,73.35-4.29,6.12-.14,12.35-.24,18.47-.23l7.81-1.06c-3.34-.17-6.74-.29-10.15-.37-4.15-.1-8.33-.14-12.47-.07-25.25.43-50.11,3.12-75.26,4.47-4.29.23-8.59.38-12.89.48l-2.5,0h-.62c-19.48.31-39.06-.57-58.44-1.69-25.3-1.46-50.95-3.46-76.34-3-.46,0-.45.53,0,.54,24.95.58,49.66,2.14,74.52,3.61S615.69,352.56,640.6,351.36Z"/><path class="cls-1" d="M553,332.22c30.22-.9,60.6-2.19,90.83-1,29.16,1.17,58.22,3.8,87.18-.53.78-.11,1.07-.56,1-1-1.14,0-2.27-.07-3.41-.11l-5.13-.17c-27.2,2.55-54.13-.95-81.37-2.5-30.13-1.7-60.79.23-90.94,1-15.21.39-30.41.8-45.63.9s-30.12-.38-45.19-.42c-30.54-.06-61,2.33-91.51,3.08-23.57.58-47.17.54-70.77.29-39.65-.41-79.32-1.4-118.92-1C126,331.29,73,336.38,19.58,335.86a1.54,1.54,0,0,1-.34.08,33.33,33.33,0,0,1-10,0c-.86.24-1.73.48-2.61.69,28.15.73,55.2-.44,82.66-1.65,30.59-1.34,61.28-2.64,91.91-3.25,31.62-.63,63.38.26,95,1s63,1.51,94.51.85q45.76-1,91.5-.87C492.5,332.82,522.68,333.14,553,332.22Z"/><path class="cls-1" d="M10.6,318c30.41-1.66,61-.72,91.43.22,30.75,1,61.41,1.36,92.19,1.12,62.79-.49,125.57-2.77,188.38-3.33,31.09-.27,62.15-.52,93.24-.43,30.28.09,60.57-1.13,90.85-.29,15.83.45,31.4,2,47.08,3.57,14.64,1.5,29.49,1.93,44.26,2,15.4,0,30.66-.55,46.05-.22,3,.07,6.08.21,9.1.39a7.41,7.41,0,0,1,3.15-.67c6-.07,12,0,18,.14-5.66-.67-11.31-1.19-17-1.6-22.76-1.63-45.53-1.37-68.56-1.57-30.59-.27-60.6-5-91.18-5.82-30.42-.79-60.71,1-91,2.33-2.85.13-5.69.23-8.54.33-28.28,1-56.6,1.08-84.91,1.45-31.51.41-63,1-94.5,1.59-61.9,1.16-123.83,1.62-185.69-.57a797.22,797.22,0,0,0-82.39.9C10.19,317.54,10.18,318,10.6,318Z"/><path class="cls-1" d="M128.7,306.06c7.51-.2,15-.73,22.55-1.06,3.76-.16,7.51-.35,11.27-.53,4.22-.2,8.88.54,13.15.61,15.54.26,31.09-.83,46.63-1s30.91.21,46.34.69c31,1,61.94,2.59,92.95,2.68,29.07.09,58.1-1.82,87.1-3.18s57.77-2.59,86.69-3.23q21.86-.49,43.72-.4c14.43.07,28.86.74,43.29.78A557.6,557.6,0,0,1,699,307.34c.75.11,1.07-.75.32-.87-13.12-2-26.33-3.63-39.62-4.91l-.48,0c-13.9-1.34-28-3-42-3.63-29-1.31-58.07-1.22-87.1-.58s-57.72,1.94-86.55,3.33c-29.17,1.41-58.3,3.15-87.55,2.95-61.25-.42-123.5-7.52-184.48-.61q-1.06.12-2.13.27c-3.54.49-7,1.14-10.66,1.29s-7.51.31-11.27.45c-8.15.3-16.27.25-24.43.32-6.72.05-13.53,0-20.36-.06-9.08-.08-18.19-.17-27.15-.05-25,.33-49.78,1.31-75.55,1.84v3.45c27.68-.74,54.27-2.13,81.18-3.14C96.86,306.76,113,306.48,128.7,306.06Z"/><path class="cls-1" d="M498.1,390.51c30.66,2.21,61.53,4.21,92.33,2.83,29.77-1.33,59.18-5.95,89-7.58,6.87-.37,13.68-.6,20.5-.68a233.52,233.52,0,0,1,31.52-1c-9.28-.41-18.63-.72-28-.79-8.64-.06-17.3.08-26,.56-29.81,1.65-59.11,6.3-88.94,7.67-30.84,1.42-61.61-.75-92.29-2.95-15.33-1.09-30.62-2.36-46-3.1-15.54-.74-31.15-.56-46.7-.12-31.17.9-62.2,3.32-93.33,4.48q-94.74,3.54-189.51,6.33l-20.71.58q-12.39.33-24.78.62c-15.8.36-31.6.15-47.39.63-.15,0-.15.17,0,.18,15.79.47,31.59.07,47.39.07s31.59-.05,47.39-.24q47.37-.57,94.77-2.13c31.53-1.07,63.28-1.39,94.73-3.42,31.07-2,62.15-4.32,93.32-5.18S467.17,388.27,498.1,390.51Z"/><path class="cls-1" d="M84,362.62c31.28.85,62.5,2.33,93.74,3.71S240,369,271.14,369.69c31,.73,62.05,0,93-1.26,53.06-2.1,106-6.19,159-8.28,8.51.76,17.56,1.19,25.8-.84.44-.11.37-.62-.11-.62l-4.3,0-6.47.05-5.23.06-6.86.12c-3.65.07-7.3.14-11,.24l-1-.1c-3.36-.32-6.72-.68-10.08-1s-6.78-.67-10.19-.93c-11.62-.88-23.32-1.37-35-1.67,10.93.44,21.84,1,32.66,1.59,4.12.22,8.22.59,12.31,1,3.16.33,6.32.69,9.47,1.05l.82.09-8.05.24c-46.69,1.48-93.28,4.8-139.93,7-31,1.44-62,2.1-93,1.47-31.17-.63-62.29-2.1-93.42-3.44s-62.48-2.69-93.74-3.64c-15.59-.47-31.66-.76-47.27-.87-4.92,0-9.81,0-14.73.13-7.8.18-15.66.48-23.85.75v.31c12.41.05,24.64.5,36.71.59C52.32,361.85,68.39,362.21,84,362.62Zm453.95-3q3.89-.12,7.78-.21c-1.39.27-2.83.42-4.24.57a100.82,100.82,0,0,1-15.25,0Z"/><path class="cls-1" d="M465.72,354.34c15.59.53,31,2.57,46.48,3.47A198.33,198.33,0,0,0,536,358a0,0,0,1,0,0-.09c-6.11.26-12.24.13-18.38-.2-3.5-.19-7-.44-10.51-.74-.82-.06-1.63-.13-2.44-.21-2.93-.26-5.86-.54-8.79-.82l-2.5-.24c-8.62-.85-17.23-1.67-25.78-2-9.29-.39-18.57-.38-27.85-.23l-6.73.14c-12.91.31-25.82.81-38.74.87-.43,0-.43.5,0,.5,6.27,0,12.55-.08,18.84-.21,15.16.26,30.41.36,45.63.76-13.75-.55-27.53-.9-41.22-.85C433.58,354.26,449.66,353.78,465.72,354.34Z"/><path class="cls-1" d="M684.86,362c-9.46-.35-18.83-.7-28.17-.67-4.35,0-8.7.12-13,.34-5.67.29-11.34.78-17,1.58-19.32,2.72-38,6.13-57.79,4.71a1.31,1.31,0,0,0-.59.09c-.81.33-.58,1.54.62,1.63,18.31,1.37,35.81-1.5,53.67-4.18a211.66,211.66,0,0,1,29.91-2.72c10.27-.08,20.56.4,30.81.8,10,.39,19.87.52,29.75.45a6.91,6.91,0,0,1,1.73-.26c8-.17,15.83-1.51,23.74-2.09-7.88.35-15.92.58-24,.67C704.62,362.41,694.7,362.31,684.86,362Z"/><path class="cls-1" d="M747.27,361.4v-.21l-3.89.2C744.68,361.36,746,361.36,747.27,361.4Z"/><path class="cls-1" d="M85,386.4q-4.45.28-8.9.65l-.55.05q6.92-.54,13.8-1s0,0,0,0c-.53,0-1,0-1.57,0C88.62,386.17,85.2,386.38,85,386.4Z"/><path class="cls-1" d="M85,386.22c.94,0,1.88,0,2.82-.06h-.31Z"/><path class="cls-1" d="M92.2,387.23s0,0,0,0a302.38,302.38,0,0,1-31.49,3.07c-8.88.52-18,.65-26.78,1.82q6.38-1.1,12.84-2c2.55-.35,5.11-.67,7.67-1q7.16-.84,14.34-1.49-8,.7-15.94,1.57c-3.76.41-7.52.85-11.26,1.35l-3.72.48-1.21.16c-10.75,1.38-21.72,2.7-32.22,4.78-1.35.26-2.51.54-4.42.82v1.92c4.77-1,8.92-1.95,13.4-2.86-4.48,1-8.63,2.14-13.4,3.21v.61c10.5-2.21,19.9-4.31,29.74-6C50.07,390.2,71.81,390.77,92.2,387.23Z"/><path class="cls-1" d="M81.2,386.38c1.24-.07,2.49-.12,3.75-.16-1,0-2.09.06-3.13.12Z"/><path class="cls-1" d="M59.28,388.32c7.29-.79,14.57-1.54,21.92-1.94-7.34.37-14.64,1.13-21.93,1.92C59.25,388.3,59.26,388.32,59.28,388.32Z"/><path class="cls-1" d="M747.05,414.2a16.43,16.43,0,0,0-2,.1l-.28,0h-.06l-.77-.05c-7.58-.46-15.24,1.15-22.62,2.29a106.54,106.54,0,0,1-13.85,1.05c-4.36.1-8.73.1-13,.24-.09,0-.09.1,0,.11,8,.38,15.74,1.87,23.79,1.28,9-.66,17.24-3.4,26.4-3.54h.07a21.74,21.74,0,0,0,2.31.13c.14,0,.2,0,.22-.07v-1.52S747.19,414.2,747.05,414.2Z"/><path class="cls-1" d="M741,381.26q-9.79-1-19.52-2.24a1.32,1.32,0,0,0-.7.09c-.8.31-1,1.34.12,1.48,1.93.41,3.87.79,5.82,1.11l4.12.91h.06a47.75,47.75,0,0,0,8.94,1.21,39.7,39.7,0,0,0,7.42.37v-1.35c-.06,0-.45-.05-.76-.08h0c.18-.07.48-.15.72-.23v-.61A17,17,0,0,0,741,381.26Zm-10.11,1c2.06.25,4.13.44,6.21.53a8.18,8.18,0,0,0,1.42.6A47.31,47.31,0,0,1,730.9,382.3Z"/><path class="cls-1" d="M727.91,307.09c-3.44-.19-7.1-.19-10.72-.31a68.46,68.46,0,0,1-9.34-.81s-.06,0,0,0c6.25,1.45,11.84,3.1,18.43,3.58,7,.5,13.78.58,20.79.59a.38.38,0,0,0,.22,0v-2.52a.38.38,0,0,0-.22,0C740.58,307.58,734.36,307.44,727.91,307.09Z"/><path class="cls-1" d="M200.69,238.61a82.25,82.25,0,0,0,19.95,4h.07c4.45.43,8.93.68,13.33.93,13.48.79,26.88,2.21,40.41,2.46,28.47.52,57.65-3.38,85.27-8.33,14-2.51,27.94-5.43,41.49-9.11,12-3.24,23.76-6.69,34-12.53,5.53-3.16,13.79-8.41,13-14.21a6.45,6.45,0,0,0-1-2.59c-3.46-5.63-16.75-6.39-23.54-7.2-13.61-1.61-27-4-40.7-5.11a394.63,394.63,0,0,0-45.11-1,420.7,420.7,0,0,0-44.11,3.78c-7.4,1-14.74,2.28-22,3.67-3.35.64-6.42,2-9.75,2.79l-1.2.29a1.54,1.54,0,0,0-1.57-.34,72.82,72.82,0,0,0-8.12,2.69l-.62.16a2.23,2.23,0,0,0-.95.48c-8.79,3.67-17,8.7-24.55,13.19A132,132,0,0,0,208,224.41a3.48,3.48,0,0,0-1.61,1.36c-3.16,2.7-6.38,5.43-8.13,8.8l-.06.11a1.84,1.84,0,0,0,.91,2.26A2.67,2.67,0,0,0,200.69,238.61Zm23.51-.93s0-.05,0-.07a1.62,1.62,0,0,0,.44-.55c.59.15,1.18.31,1.77.45l1.32.41C226.53,237.85,225.36,237.77,224.2,237.68ZM212.77,223.8a155.5,155.5,0,0,1,14.29-9.6C234,210,241.77,205.37,250,201.93a2.51,2.51,0,0,0,1.69.16c13.78-3.19,28.08-5.15,42.26-7.13a424.47,424.47,0,0,1,44-3.77,397.44,397.44,0,0,1,43.39.93c14.17,1.07,27.91,3.6,41.93,5.27,4.77.57,9.81,1.15,14.28,2.59,1.93.62,3,1.31,3.38,2.12.5,1.08-.25,2.36-1.88,4-4.51,4.41-10.7,7.73-17.37,10.39a5.18,5.18,0,0,0-2.22-.13c-4.4,1-8.66,2.13-13.13,2.91-9.55,1.65-18.84,4-28.3,5.94-9.67,2-19.46,3.56-29.34,4.77-5,.62-10.06,1.11-15.13,1.45-4.18.28-8.74.11-12.79.87-7.66,1.46-15.66,2.15-23.45,3.17-9,1.18-18.09,1.91-27.21,2.37-2.5.13-5.08.23-7.7.31-18-1-37.1-4.05-50.38-13.36l-.28-.16C212.07,224.32,212.43,224.07,212.77,223.8Z"/><path class="cls-1" d="M95,266.57c-6.16,1.25-12.54,1.42-18.87,1.8a95.83,95.83,0,0,0-16.87,2.68c-.06,0,0,.09,0,.07,11.32-3.28,24.15-1.89,35.83-4.2C95.42,266.86,95.3,266.51,95,266.57Z"/><path class="cls-1" d="M22.12,267.19c8.74-.78,18.11-.37,26.89-.17,1.65,0,2.14-1.21,1.53-2a1.9,1.9,0,0,0-1.41-.69,78.24,78.24,0,0,0-19.32,1c-1.3.22-2.6.46-3.87.73-4.39.94-10,.9-14.51,1.22A113.66,113.66,0,0,1,0,267.52v.84A204.69,204.69,0,0,0,22.12,267.19Z"/><path class="cls-1" d="M739,264.69l-2.84-.16c1.11.11,2.22.2,3.34.27Z"/><path class="cls-1" d="M733.69,266.88c-2.88-.41-5.74-1-8.55-1.55L720,264.28c-4.85.07-9.69.21-14.61.24a217.85,217.85,0,0,1-28.92-1.25c-6.06-.77-15.77-2.25-17.14-7.73a1.75,1.75,0,0,0-1.69-1c-4.64,0-9.12-.53-13.77-.14a100,100,0,0,0-15,2.73c-4.68,1.13-9.29,2.45-13.93,3.66-6.28,1.64-12.56,1.88-19.16,2.15-28.11,1.11-56.21-.67-84.33-.61-5.29,0-10.53.22-15.8.21-1.49,0-3,0-4.48-.07-6.92-.23-13.82-.8-20.72-1.29-12-.87-24.05-1.85-36.07-1.14-18.71,1.11-39.35,7.13-58.14,3.73-.9-.16-1.8-.35-2.69-.55l-.61-.14c-.51-.13-.86.39-.5.66l.28.24c.51.41,1,.83,1.48,1.25-9.44,1.41-19.54,1.31-29.1,1.5-10.69.22-21.36.94-32.06.8-12.19-.16-24.34-1.08-36.53-1.4-13.28-.36-26.34.62-39.52,1.65-12.82,1-25.67,1.95-38.56,1.91-12.46,0-25-1.4-37.32-2.55-17.63-1.63-35.2-3.12-52.88-3.7-7.7-.26-15.41-.34-23.16-.2-.37,0-.36.43,0,.43,25.53.62,50.75,3.95,76,6.44,12.37,1.22,24.84,2.52,37.32,2.73,13.51.22,27-1,40.36-2.13a351.45,351.45,0,0,1,37.72-1.48c12.77.28,25.49,1.29,38.27,1.42,10.6.11,21.22-.69,31.82-.93,10-.23,19.94-.56,29.28-3.51.48-.16.85-.68.34-1l-.59-.38-.91-.58,1.57.25c7.88,1.13,16,.37,23.94-.29,10.61-.89,21.09-2.45,31.71-3.29,11.69-.93,23.53.33,35.14,1.4,14.21,1.3,28.26,1.61,42.51,2.22,13.82.59,27.72.27,41.56.82,14.23.56,28.49.45,42.74.05,5.72-.17,12,0,17.53-1.17,4.86-1,9.59-2.43,14.36-3.66a138.81,138.81,0,0,1,16-3.34c4.9-.69,9.64-.18,14.52-.08,1.78,4.34,7.9,6.41,13.32,7.61,9.46,2.1,19.78,2.23,29.55,2.3,9.32.06,18.39-.29,27.7-.34C729.12,266.75,731.41,266.8,733.69,266.88Z"/><path class="cls-1" d="M192.61,242.89c18.77,5.77,38.63,8.27,59,9.75,26.29,1.92,52.76.07,78.85-2.63,38.59-4,80.69-8,114.59-23.63,7.78-3.6,15.8-8.11,20.8-14A38,38,0,0,0,474.53,194a.85.85,0,0,0-.18-.56,1.32,1.32,0,0,0-.59-.46c-4.68-1.51-9.26-3.19-13.83-4.89l-1.59-.64a1.85,1.85,0,0,0-1.26-1.63,47,47,0,0,0-7.43-1.51c-2.57-.92-5.16-1.82-7.79-2.66A163.79,163.79,0,0,0,409.7,175a460.11,460.11,0,0,0-87.35-1.26,390.27,390.27,0,0,0-43,5.76c-6.43,1.24-12.8,2.67-19.07,4.29l-1.74.46-.88.24c-25.14,6.76-48.57,16.75-68.07,31-2.17,1.59-4.22,3.28-6.2,5-1.68,1.47-3.24,3.9-5.49,4.83-3.49,1.45-7.05,4.2-7.47,7.35,0,.1,0,.19,0,.28C169.53,241.72,183.93,242.83,192.61,242.89Zm272.85-48.11a12.3,12.3,0,0,1-.95,1,11.23,11.23,0,0,0,0-1.42Zm-130.2-19.29a22.78,22.78,0,0,1-3.05.52,85.63,85.63,0,0,1-11.59.11Q327.94,175.69,335.26,175.49ZM172,233.42c.49-2.74,3.62-5.33,6.86-6.82,3.74-1.71,6.32-5.45,9.3-7.94a111.06,111.06,0,0,1,12.91-9c19.14-11.76,42.15-20.4,65.57-26a274.83,274.83,0,0,1,28.67-5.18l1-.12,2.57-.32a21.14,21.14,0,0,0-3.48,1.78c-.18.12.06.34.26.25,12-5.1,26.14-2.11,39.19-3.21,6.78-.57,13.42.54,20.18.52,8.6,0,17.17.72,25.75,1.13s17,1.29,25.55,2c8.34.71,16.89,1.55,24.84,3.67l.64.18c.94.37,1.86.75,2.78,1.15,1.39,1,2.72,2.06,4.21,3a83.34,83.34,0,0,0,8.44,4.43c1.93,1.48,3.74,3,5.48,4.63,2.71,2.49,4.41,4.39,4.48,7.64a26.26,26.26,0,0,0,.46,6,8.27,8.27,0,0,0,.38,1.16,94.51,94.51,0,0,1-19.17,10.92C422.05,230.66,403,234.86,384.18,238c-21,3.54-42.65,5.93-64,7.89-26.13,2.39-53.21,3.77-79.52,2.45a255.5,255.5,0,0,1-47.1-6.65l-1.13-.27-.77-.19q-5.38-1.35-10.59-3c-.35-.11-.58.32-.25.45,1.69.68,3.4,1.31,5.12,1.92l1.78.62c1.47.5,2.95,1,4.43,1.45-5.91-.41-12.94-1.23-17.32-4.21-.21-.14-.42-.28-.61-.43C172.26,236.6,171.68,235,172,233.42Z"/><path class="cls-1" d="M637.89,202.48c-20.54.07-41.42,2.8-61.3,6.56-16.13,3.05-31.55,7.82-47,12.54q-3.72.72-7.46,1.4a2.87,2.87,0,0,0-2.31,1.57q-5,1.5-10.12,2.95a1.56,1.56,0,0,0-1.22,1,.79.79,0,0,0,0,.22c0,.36,0,.72,0,1.08a1.41,1.41,0,0,0,1.25,1.25c18.66,3.27,35.56,10.87,55.17,10.79,9.79,0,19.52-1.7,29-3.31a247,247,0,0,1,31.19-3.5c21-.88,42,.79,63,.36,4-.08,8.12-.63,12-.07,3.43.48,7-.5,10.49-.69,4.67-.25,9.5-.09,14.17-.54a5.77,5.77,0,0,1,3.55-1.3c1.4-.07,2.79-.16,4.18-.25.42-.14.84-.3,1.26-.46a2.38,2.38,0,0,0,1.7-1.86,9.26,9.26,0,0,0,3.64-1.55,1.18,1.18,0,0,0,.3-1.74,1.59,1.59,0,0,0-.3-.34c-5.43-4.63-12.09-8-19.32-10.56a148,148,0,0,0-35.08-10.52A191.07,191.07,0,0,0,651.1,203C646.7,202.68,642.3,202.47,637.89,202.48Zm96.46,24.8.37.24-.72.24-.3-.15A5.64,5.64,0,0,0,734.35,227.28ZM573.52,212.41q10.54-2.22,21.34-3.75c-10.12,1.73-20.17,3.73-30.2,5.79C567.6,213.72,570.54,213,573.52,212.41Zm114.28-.11c4.36.79,8.88,1.64,13.39,2.62a127.2,127.2,0,0,1,27.36,11.81c.36.21.73.41,1.09.63.18.1.36.18.54.26a24.17,24.17,0,0,1-5.7,1.43c-.63.06-1.21.12-1.74.2l-.18,0c-5.4.49-11.26.09-16.3.59-2.57.26-5,.83-7.55,1.19a119.4,119.4,0,0,1-13.8,1.09c-20.53.52-41.07-.71-61.6.22-19.26.87-37.48,6.16-56.67,7.07-18.68.89-35.72-6-53.13-10.18l2.73-.78c1.47-.41,2.94-.82,4.41-1.25a3.87,3.87,0,0,0,3.35.8c45.75-8.35,97.2-22.79,144.76-19C675.17,210,681.52,211.16,687.8,212.3Z"/><path class="cls-1" d="M53,239.35c28.64-2.76,58.29-6.65,85.68-13.73q8.14-2.1,15.93-4.91c5.81-2.08,12.79-4.49,17.41-7.93,8.39-6.26,17.44-12.34,26.65-17.92,20.6-12.48,45.94-18.57,70.89-24.18A278.06,278.06,0,0,1,313,164.23c11.48-.72,23.13-.72,34.65-.88,24.44-.34,49.1,0,73.25,3.09a208.46,208.46,0,0,1,33.33,6.88c2.58.78,5.1,1.67,7.59,2.61,2.32.86,6,1.67,7.47,3.37,2.55,2.95,6.12,2.72,10.13,3.94,9.25,2.79,19,5.31,28.87,6.32a38.93,38.93,0,0,0,11.71-.31c1.71-.35,5.11.84,6.95,1a68.83,68.83,0,0,0,9.74.05c14.15-.86,27.51-5.19,41.43-7,15.49-2,31.44,1.23,46.83,2.89a2.88,2.88,0,0,0,1.9,1.29c11.69,2.88,24.42,1.33,36.48,1.86a75.2,75.2,0,0,1,21.65,3.8c6.5,2.27,12.51,5.65,18.56,8.53,9.24,4.41,18.6,8.51,28.36,12.16a29.77,29.77,0,0,0,4.41,2.39c1.34.59,6.81,2.12,6.93,3.45a.88.88,0,0,0,1.13.66c.43-.11,1.61.7,2.3.82,0,0,.06,0,.05,0a2.93,2.93,0,0,0-1.58-1.8l0-.14s0,0,0-.06A.77.77,0,0,0,745,218c-3.6-2.34-8.24-3.44-12-5.62a3.75,3.75,0,0,1,.35-1.2c-11-4.27-21.45-9.28-32.18-14a165.88,165.88,0,0,0-16.69-6.78,80.82,80.82,0,0,0-18-3.11c-12.39-1-24.18-.78-36.11-3.6a3,3,0,0,0-2.77-1.65c-14.38-1.18-28.34-3.3-42.88-2.79-12.18.42-23.93,3.78-35.65,6a96.47,96.47,0,0,1-18,1.93,46,46,0,0,1-8.95-.94c-2.39-.47-3.87.14-6.3.36-10.07.87-20.75-1.91-30.14-4.34-3.14-.82-9.45-1.89-11.32-4.19-1.3-1.61-1.72-2.77-3.84-3.86a64.5,64.5,0,0,0-7.83-3.36A178.76,178.76,0,0,0,431,163c-23.55-3.94-47.94-4.69-72-4.69-25,0-50.14.12-74.6,4.21-14,2.33-27.61,5.75-41.12,9.29-12.19,3.18-24,6.62-35.07,11.69a135.88,135.88,0,0,0-24.94,15.37c-4.27,3.2-7.85,6.81-12.05,10.05-5.22,4-11.93,6.75-18.53,9.3-12.63,4.89-26.34,7.68-40,10.38-14.49,2.87-29.61,5.27-44.35,7.26-20.91,2.83-41.7,4.56-63.85,5.37-1.51,0-3,.12-4.51.16v1.38c2.86,0,5-.1,7.23-.18C22.4,242,38,240.8,53,239.35Z"/><path class="cls-1" d="M83.52,218.34c17.46-2.44,33.59-8.56,49-15,5.4-2.23,10.91-4.1,16.52-5.85a15.5,15.5,0,0,0,4.34-1.33l5.68-1.71a126.81,126.81,0,0,0,12.08-4.26c1.94-.8,2.8-.9,3.05-1.9,7.35-2.85,14.63-5.81,21.9-8.77,24.75-10.06,50.21-19.27,77.7-24.11,14.73-2.59,29.43-2.67,44.45-3.07,14.81-.39,29.63-.13,44.45-.17,12.75,0,25.4-1.08,38.11-1.78a276.94,276.94,0,0,1,39.39.66,121.23,121.23,0,0,1,18.43,2.81c2.77.69,5.33,3.25,7.67,4.55a61.23,61.23,0,0,0,9.34,4.21c10.21,3.64,21.52,4.55,32.65,4.88,5.74.17,11.51,0,17.25.27,6.7.3,13.27,1.65,20,1.59,9.09-.1,17-.71,25.83,1,7.6,1.51,15.54,4,23.44,4.41,4.72.23,11.11.06,12.91-4,.25-.57,7.19-1.68,8.26-1.9a79,79,0,0,1,11.74-1.37c1.41-.08,6.15-.76,6.69.21a8.8,8.8,0,0,0,1.64,2c3.35,3.27,9.16,5.1,14.05,6.6,17.76,5.47,37.62,7.62,56.54,9.33,5.55.5,11,1,16.55,1.14a81.64,81.64,0,0,0,10.92-1.12c-3.16,0-6.32,0-9.5-.09-10.36-.28-20.67-1.29-30.92-2.47a306.38,306.38,0,0,1-36.22-6c-5.61-1.33-15.05-3.38-19.66-7.38a7.9,7.9,0,0,1-2.34-3.14.72.72,0,0,0-.71-.41h-.4c-5.84,0-11.67.45-17.46,1l-1.47.14c-3.28.35-6.53.79-9.76,1.35-1.21.22-1.23,1.36-2.17,1.85-2.07,1.09-5.72.3-7.94-.07-4.06-.68-8.06-1.35-12.07-2.24-7-1.55-14.14-3.63-21.51-4.07-4.73-.29-9.75.12-14.53.07-6.83-.06-13.59.22-20.41.47-12.15.46-24.58.83-36.62-.75a76.56,76.56,0,0,1-17.61-4.54c-3.21-1.24-6-2.9-9-4.3a27.8,27.8,0,0,0-7.6-2.49c-19.21-3-38.89-3.42-58.51-3.62-5.76-.06-11.52-.11-17.25-.2-20.07-.31-40.29-.29-60.36.07a284.22,284.22,0,0,0-59.47,7.67l-2,.47c-29.74,7.23-56.51,19.69-84.26,30.44v-.11a.36.36,0,0,0-.2-.29.72.72,0,0,0-.56,0c-4.84,1.87-9.6,3.86-14.37,5.84L156,194.33l-3.19,1.07-3.14.88c-7.61,2.17-14.86,4.9-22.07,7.68-5.26,2-10.51,4.08-15.87,6a164.28,164.28,0,0,1-16.75,5,120.64,120.64,0,0,1-17.5,2.65c-13.66,1.13-27.57.49-41.36.68-2,0-3.93.07-5.89.14-10,.34-19.73,1-30.23,1.89v1.22c8.59-.61,16.72-1.14,24.86-1.54C44.21,219,64.4,221,83.52,218.34Z"/><path class="cls-1" d="M736.6,158a76.92,76.92,0,0,0,8-1.3c-1.55-.07-3.28-.13-4.85-.18l-2.12-.08c-16.68-.63-33.13-1.65-49.81-2.47s-33.25-1.43-49.86-1.84q-25.91-.63-51.88-.56c-.19,0-.19.23,0,.23,34,.17,67.81,3,101.74,4.39,16.16.68,32.08,1.34,48.22,1.89Z"/><path class="cls-1" d="M480.23,221.51c8.37-4,17.16-7.15,26-10.42,4.08-1.51,8.11-3.11,12.09-4.77a48.18,48.18,0,0,0,5.83-3.09c2.14-1.25,5.36-1.6,7.91-2.12,21.87-4.54,44.06-5.45,66.6-5.4,10.67,0,21.34.37,32,.5,10.95.13,21.74-.57,32.66-1.05.08,0,.08-.09,0-.09-5.87,0-11.75-.26-17.63-.56-5-.25-10-.55-15-.8-10.63-.54-21.37-.67-32-.79-21.34-.25-43.19,1.07-63.87,5.2-4,.8-9.16,1.33-12.38,3.4a90.13,90.13,0,0,1-13.14,6.6c-2.81,1.19-5.64,2.35-8.46,3.52-5.64,2.33-11.26,4.68-16.63,7.37-7.24,3.64-14.54,7.29-22,10.79Q471.29,225.78,480.23,221.51Z"/><path class="cls-1" d="M424.33,245.07l1.78-.65-1.81.58C424.23,245,424.27,245.09,424.33,245.07Z"/><path class="cls-1" d="M462.25,229.8c-11.78,5.24-23.76,10.13-36.14,14.62A302.87,302.87,0,0,0,462.25,229.8Z"/><path class="cls-1" d="M743,241.45a2.7,2.7,0,0,1-.41,0,84.32,84.32,0,0,1-13.68.8,6.37,6.37,0,0,1-3.13-.83c-5.39.25-10.8.49-16.2.67-30.09,1-60,1.43-90,2.41-15,.48-30,1.69-45,1.93a449.2,449.2,0,0,1-45.1-2c-14.32-1.23-28.87-2.47-43.28-1.55a314,314,0,0,0-39.86,5.62c-3.14.61-6.27,1.21-9.42,1.78-12.6,2.3-25.28,4.15-38.33,4.33-.5,0-.5.59,0,.59,28.07.08,54.78-7.43,82.53-9.43,14.24-1,28.86.29,43.08,1.09,15,.84,29.85,2.12,44.87,2.28s30.07-1,45.09-1.46,29.8-.56,44.82-.7c22.22-.2,44.9,0,67-.86a6.92,6.92,0,0,1,1.8-.56c6.56-1.11,12.92-2.4,19.56-2.66v-1.54A36.85,36.85,0,0,1,743,241.45Z"/><path class="cls-1" d="M257.78,219.93c6.23,0,12.42.22,18.66.1,12.68-.25,25.22-.75,37.85-1.75q18.27-1.44,36.36-3.93c12.1-1.67,24.14-3.16,35.91-5.9,2.05-.48,2.72-1.95,2.27-3.18a3.25,3.25,0,0,0-3.17-1.88l-2.58,0c1.34-.35,2.66-.74,3.95-1.16l.4-.13c.76-.26.16-1-.52-.93l-1.73.19c-6.46.7-12.89,1.56-19.37,2.1q-9.4.26-18.77.9l-6.5.17c-13.1.34-26,.95-38.94,2.25l-.41,0c-9.75,1-19.39,1.93-29,3.39-7.44,1.12-15.66,2.7-21.44,6.66l-.49.36-.76.56a.19.19,0,0,0,0,.31C251.65,220,254.47,219.93,257.78,219.93ZM351,209.17q5.31-.31,10.63-.5c-4.59.93-9.22,1.77-13.89,2.46-13.33,2-26.8,3.29-40.32,4.27-11.17.8-22.37,1.31-33.57,1.87,7.95-1.09,16-1.68,23.95-2.69l.16,0q14.85-1.87,29.75-3.47Q339.29,209.88,351,209.17Zm-100.5,8.18a2.42,2.42,0,0,1,.42-.44c1.85-1.55,7.55-3.52,8.63-3.85,12.41-3.79,26.33-4.41,39.89-4.78,4.1-.12,8.16-.21,12.14-.35q-6.84.93-13.64,2c-9.65,1.57-19,4.06-28.58,5.86a1.46,1.46,0,0,0-.59.23l0,0a.89.89,0,0,0,0,1.45l-.84,0c-3.4.17-6.73.39-10.14.44-.75,0-2.35.24-3.86.37a7.45,7.45,0,0,1-3.28-.12A.56.56,0,0,1,250.48,217.35Z"/><path class="cls-1" d="M26,199.66l.6,0q-2.14,0-4.29-.06C23.58,199.64,24.81,199.68,26,199.66Z"/><path class="cls-1" d="M186.91,169.85l-1.57-.49L184,169c-1.58-.44-3.19-.83-4.81-1.16l-.91-.18c-14.76-2.84-30.89-1.54-46.11.4-2.15.27-4.29.56-6.4.85l-1.55-.13a160.8,160.8,0,0,0-33.84,1,246.45,246.45,0,0,0-29,5.35q-5.41.67-10.78,1.59l-.58.09c-.9.15-1.79.33-2.69.51q-2.84.54-5.66,1.17c-2.54.56-6.14,2.12-9,2.45-.39,0-.79.06-1.18.07a1.44,1.44,0,0,0-1.11.37,1,1,0,0,0-.29.73c0,.56.44,1.12,1.4,1.1h1c.57,0,1.15,0,1.73-.07.81-.05,1.63-.12,2.45-.22A83.4,83.4,0,0,0,23,189.46c-3.95,2.45-7.15,5.2-11.62,7l-.22.09c-.66.25-1.34.48-2.06.69-.11,0-.11.13,0,.17a49.76,49.76,0,0,0,12.5,2.17c-1.34-.09-2.67-.21-4-.37-1.14-.15-2.27-.34-3.38-.58.27,0-5.33-1-3.65-1.62l1-.36.21-.08a39.62,39.62,0,0,0,8.46-4.88c6.14-4.38,13.58-7.32,21.53-9.52,2.58-.46,5.14-.95,7.52-1.28,8.09-1.1,16.08-2.6,24.17-3.71,11.43-1.58,22.86-3.11,34.28-4.74l7-.07,13.35-.16.61,0c9.38.62,18.88,1.17,28.3,1.12a67.18,67.18,0,0,0,22.62-4.19c.1,0,0-.18-.06-.17-1.91.2-3.82.37-5.73.53-7.87.69-15.73,1.16-23.59,1.5-6.73-.33-13.42-1.08-20.12-1.72q3.4-.42,6.82-.78c4.85-.52,9.72-.94,14.62-1.21,5.65-.31,11.25-.2,16.91,0a65.64,65.64,0,0,1,7.45.61c.47.07.94.13,1.4.21l.12,0,.17,0,.45.09c1.75.34,3.52.87,5.25,1.23.45.09.9.17,1.34.23a11.8,11.8,0,0,0,1.86.13c-2.47,0-2.83,1.14-4.74,2a30.33,30.33,0,0,1-4.75,1.53c-2.25.55-4.58,1-6.78,1.37q-3,.56-5.93,1l1.9-.62-2.45.72c-7.19,1.15-14.42,2-21.74,2.73-11.16,1.11-22.36,4-33.18,6.31-14.15,3-28,6.51-42,9.73-1.58.36-3.2.67-4.83,1-2.89.5-5.84.91-8.81,1.24l-1,.11c-3.84.41-7.69.73-11.45,1-.65.05-.77.69-.34.89-4.55.36-9.1.76-13.68.86,9.83-.1,19.78-1.76,29.77-1.22.1,0,.1-.1,0-.11-2.62-.14-5.23-.14-7.84,0,23.32-1.9,46.06-5.8,68.72-10.21,4.93-.77,9.8-1.75,14.61-2.89l5.3-1.07c9.86-2,19.59-4.39,29.39-6.57A113.65,113.65,0,0,0,179.22,174c2.07-.72,5.41-3.43,7.46-3.5C187.09,170.48,187.35,170,186.91,169.85Zm-138.51,9c-1.16.17-2.31.35-3.47.54,1.27-.33,2.55-.66,3.83-1s2.69-.63,4-.92Zm30.71-5.36c1.86-.16,3.73-.29,5.6-.41,1.52-.09,3.05-.17,4.58-.24-1.75.1-3.5.21-5.24.33s-3.5.24-5.26.38l-1.6.11Zm-.43,1.84-6.93.89c1.13-.2,2.26-.39,3.38-.6l3.24-.55q8.43-1.43,17-2.43l.79,0,3.4-.07Q89.11,173.93,78.68,175.28Zm22.55-3-3.94.14-.43,0,1.38-.15c1.32-.15,2.65-.3,4-.43s2.72-.21,4.09-.28Zm8.92-.22,4-.58c2.75.06,5.49.18,8.23.34Zm60-1.65c2-.21,4.06-.44,6.07-.74,4-.57.22.13-.4.26a42,42,0,0,1-5,.71c-.87.07-1.75.13-2.63.18-1.93.1-3.87.16-5.79.23Q166.27,170.79,170.15,170.4Zm-51.56,17.41,8-1.59Q122.66,187.11,118.59,187.81Z"/><path class="cls-1" d="M168,174.46l-1.87.61,1.91-.55C168.15,174.5,168.11,174.44,168,174.46Z"/><path class="cls-1" d="M216,258c-8.62-.21-17.21-.66-25.85-1.27-7.14-.51-14.23-1.3-21.3-2.14s-14.07-1.71-21.13-2.42c-14.34-1.43-28.41-2.54-42.88-2.63-5,0-9.9.14-14.84.44-9.34.56-18.66,1.59-27.88,2.66-.06,0,0,.08,0,.07,14.77-1.81,29.58-1.38,44.43-.82q3.24.12,6.47.29,7.41.36,14.83.88c7.19.49,14.38,1,21.53,1.6q20.34,1.55,40.74,2.72C198.77,257.85,207.38,257.92,216,258Z"/><path class="cls-1" d="M232.49,258l-3,0,3,0C232.55,258.1,232.55,258,232.49,258Z"/><path class="cls-1" d="M229.52,258.06c-4.51-.06-9-.08-13.52-.1Q222.74,258.13,229.52,258.06Z"/><path class="cls-1" d="M59.45,255.88a524.88,524.88,0,0,1,91.44.18c.25,0,.31-.3.06-.33-30.45-3.27-60.94-2.43-91.5-.37-15.28,1-31,2.48-46.2,3.91C9,259.67,4.77,260,0,260.39v.89c4.77-.43,9-.86,13.25-1.27C28.48,258.55,44.19,257.12,59.45,255.88Z"/><path class="cls-1" d="M126.75,152.86c-13.43.38-26.75,1.45-40,2.92-20.26,2.27-40.35,5.5-60.39,8.75-.32.06-.24.43.08.38a747.52,747.52,0,0,1,100.16-10c33.52-1,65.92,3.48,100.23,3.38v-.09c-21-.17-40.77-2.42-60.86-4A371.37,371.37,0,0,0,126.75,152.86Z"/><path class="cls-1" d="M20.15,161.89c-2.3.18-4.52.3-6.75.39-4.18.17-8.43.23-13.4.3v1.81c7.64-.17,13.31-.63,19.91-1.19C21,163.11,21.26,161.81,20.15,161.89Z"/><path class="cls-1" d="M743.26,259.77l-.47.17c-4.47-.16-8.9,0-13.37-.07l-1.47,0c-5.13-.15-9.91-1.67-14.91-2.44a36.88,36.88,0,0,0-4-.41c-.34,0-.49.4-.16.5,5,1.69,10.1,3.43,15.64,3.95,1.55.15,3.09.19,4.63.19a1.65,1.65,0,0,1,1.5-.83,33.5,33.5,0,0,1,6.95.51c2.33-.11,4.66-.17,7-.05a9.15,9.15,0,0,0,1.74.13l.89,0V259l-.89,0A9.58,9.58,0,0,0,743.26,259.77Z"/><path class="cls-1" d="M723.72,163.69q-2.38.31-4.77.69c-.42.07-.41.52,0,.54a232.31,232.31,0,0,0,28.34-.1v-2.28A122.6,122.6,0,0,0,723.72,163.69Z"/></g></g></svg>