<?xml version="1.0" encoding="utf-8"?>
<!-- Generator: Adobe Illustrator 22.0.1, SVG Export Plug-In . SVG Version: 6.00 Build 0)  -->
<svg version="1.1" id="Ebene_1" xmlns="http://www.w3.org/2000/svg" xmlns:xlink="http://www.w3.org/1999/xlink" x="0px" y="0px"
	 width="19.8px" height="19.9px" viewBox="0 0 19.8 19.9" style="enable-background:new 0 0 19.8 19.9;" xml:space="preserve">
<style type="text/css">
	.st0{fill:#E29C00;stroke:#FFC033;stroke-width:1.7721;stroke-miterlimit:10;}
	.st1{fill:#B37B00;stroke:#B37B00;stroke-width:1.7721;stroke-linecap:round;stroke-linejoin:round;}
	.st2{fill:#FFC033;}
</style>
<g id="coin-s-3">
	<path class="st0" d="M9.7,19c-4.8-0.1-8.7-4-8.8-8.8C0.8,5.2,4.7,1,9.7,0.9h0.4c4.8,0.1,8.7,4,8.8,8.8c0.1,5-3.8,9.1-8.8,9.3H9.7z"
		/>
	<path class="st1" d="M11.7,10.7l1.2,2.3l0,0l-2.1-1.3l-0.8,4.1l0,0l-0.7-4.3L6.9,13l0,0l1.5-2.2L4.1,10l0,0l4-0.6L6.9,7l0,0
		l2.2,1.2l0.8-4l0,0l0.7,4.3L12.9,7l0,0l-1.5,2.3l4.3,0.7l0,0L11.7,10.7z"/>
	<path class="st2" d="M15.3,5.4l-3,4.2c0,0.1,0,0.2,0,0.3c0,0,0,0,0,0c0,1.3-1.1,2.3-2.4,2.3c-0.1,0-0.2,0-0.3,0l-4.2,3
		c-0.2,0.1-0.5,0.1-0.7-0.1c-0.2-0.2-0.2-0.5-0.1-0.7l3-4.2c0-0.1,0-0.2,0-0.3c0,0,0,0,0,0c0-1.3,1.1-2.4,2.4-2.4c0.1,0,0.2,0,0.3,0
		l4.2-3c0.2-0.1,0.5-0.1,0.7,0.1C15.4,4.8,15.4,5.1,15.3,5.4z M10.7,9.1c-0.4-0.4-1.1-0.4-1.5,0c-0.4,0.4-0.4,1.1,0,1.5
		c0.4,0.4,1.1,0.4,1.5,0C11.1,10.2,11.1,9.6,10.7,9.1z"/>
</g>
</svg>
