<?xml version="1.0" encoding="utf-8"?>
<!-- Generator: Adobe Illustrator 22.0.1, SVG Export Plug-In . SVG Version: 6.00 Build 0)  -->
<svg version="1.1" id="Ebene_1" xmlns="http://www.w3.org/2000/svg" xmlns:xlink="http://www.w3.org/1999/xlink" x="0px" y="0px"
	 width="16px" height="16px" viewBox="0 0 16 16" style="enable-background:new 0 0 16 16;" xml:space="preserve">
<style type="text/css">
	.st0{fill:#E29C00;stroke:#FFC033;stroke-width:1.7721;stroke-miterlimit:10;}
	.st1{fill:#B37B00;stroke:#B37B00;stroke-width:1.7721;stroke-linecap:round;stroke-linejoin:round;}
	.st2{fill:#FFC033;}
</style>
<g id="coin-s-3">
	<path class="st0" d="M7.8,15C4.1,15,1.1,11.9,1,8.2C0.9,4.3,4,1,7.8,1h0.3C11.9,1,14.9,4.1,15,7.8c0.1,3.8-3,7.1-6.8,7.3H7.8z"/>
	<path class="st1" d="M9.3,8.6l0.9,1.7l0,0l-1.6-1l-0.5,3.1l0,0L7.6,9.2l-1.8,1.1l0,0l1.1-1.7L3.6,8l0,0l3-0.4L5.7,5.8l0,0l1.7,0.9
		l0.6-3l0,0l0.5,3.2l1.7-1.1l0,0L9.1,7.5L12.4,8l0,0L9.3,8.6z"/>
	<path class="st2" d="M12.2,4.5L9.8,7.9c0,0.1,0,0.2,0,0.3l0,0c0,1-0.9,1.7-1.8,1.7c-0.1,0-0.2,0-0.3,0l-3.2,2.4
		c-0.2,0.1-0.3,0.1-0.5-0.1c-0.2-0.2-0.2-0.3-0.1-0.5l2.4-3.2c0-0.1,0-0.2,0-0.3l0,0c0-1,0.9-1.8,1.8-1.8c0.1,0,0.2,0,0.3,0l3.2-2.4
		c0.2-0.1,0.3-0.1,0.5,0.1C12.3,4.1,12.3,4.4,12.2,4.5z M8.6,7.4c-0.3-0.3-0.9-0.3-1.1,0c-0.3,0.3-0.3,0.9,0,1.1
		c0.3,0.3,0.9,0.3,1.1,0C9,8.3,9,7.9,8.6,7.4z"/>
</g>
</svg>
