<?xml version="1.0" encoding="utf-8"?>
<!-- Generator: Adobe Illustrator 22.0.1, SVG Export Plug-In . SVG Version: 6.00 Build 0)  -->
<svg version="1.1" id="Ebene_1" xmlns="http://www.w3.org/2000/svg" xmlns:xlink="http://www.w3.org/1999/xlink" x="0px" y="0px"
	 width="25.8px" height="25.8px" viewBox="0 0 25.8 25.8" style="enable-background:new 0 0 25.8 25.8;" xml:space="preserve">
<style type="text/css">
	.st0{fill:#E29C00;stroke:#FFC033;stroke-width:1.7721;stroke-miterlimit:10;}
	.st1{fill:#B37B00;stroke:#B37B00;stroke-width:1.7721;stroke-linecap:round;stroke-linejoin:round;}
	.st2{fill:#FFC033;}
</style>
<g id="coin-s-3">
	<path class="st0" d="M12.6,24.9C6.2,24.7,1,19.5,0.9,13.2C0.7,6.6,5.9,1,12.6,0.9h0.6C19.5,1,24.7,6.2,24.9,12.6
		c0,6.6-5.1,12-11.8,12.3H12.6z"/>
	<path class="st1" d="M15.2,13.9l1.6,3l0,0L14,15.2l-1,5.4l0,0l-1-5.7l-3.2,2l0,0l2-2.9l-5.7-1l0,0l5.3-0.8L8.9,8.9l0,0l2.9,1.6
		l1-5.3l0,0l1,5.7l3-2l0,0l-2,3l5.7,1l0,0L15.2,13.9z"/>
	<path class="st2" d="M20,6.9l-4,5.6c0,0.2,0,0.2,0,0.4l0,0c0,1.8-1.4,3-3.2,3c-0.2,0-0.2,0-0.4,0l-5.6,4c-0.2,0.2-0.6,0.2-1-0.2
		c-0.2-0.2-0.2-0.6-0.2-1l4-5.6c0-0.2,0-0.2,0-0.4l0,0c0-1.8,1.4-3.2,3.2-3.2c0.2,0,0.2,0,0.4,0l5.6-4c0.2-0.2,0.6-0.2,1,0.2
		C20.2,6.1,20.2,6.5,20,6.9z M13.9,11.7c-0.6-0.6-1.4-0.6-2,0c-0.6,0.6-0.6,1.4,0,2s1.4,0.6,2,0C14.4,13.2,14.4,12.4,13.9,11.7z"/>
</g>
</svg>
