<svg id="Ebene_1" data-name="Ebene 1" xmlns="http://www.w3.org/2000/svg" viewBox="0 0 70 96"><defs><style>.cls-1{fill:#036d99;}.cls-2{fill:none;stroke:#fff;stroke-linecap:round;stroke-linejoin:round;stroke-width:5px;}</style></defs><title>icon</title><path class="cls-1" d="M35.07,4.09C19.6,4.09,4,15.15,4,36.29,4,45.83,8.62,58,17.84,72.38a161.13,161.13,0,0,0,13.5,18.17A4.68,4.68,0,0,0,35.06,92h0a4.67,4.67,0,0,0,3.71-1.43A164.63,164.63,0,0,0,52.19,72.43C61.32,58.11,66,46,66,36.22,66,17.26,53.25,4.09,35.07,4.09Z"/><path class="cls-2" d="M46.86,34.29A11.45,11.45,0,1,1,35.41,22.85,11.45,11.45,0,0,1,46.86,34.29Z"/></svg>