<?xml version="1.0" encoding="utf-8"?>
<!-- Generator: Adobe Illustrator 16.0.0, SVG Export Plug-In . SVG Version: 6.00 Build 0)  -->
<!DOCTYPE svg PUBLIC "-//W3C//DTD SVG 1.1//EN" "http://www.w3.org/Graphics/SVG/1.1/DTD/svg11.dtd">
<svg version="1.1" id="Ebene_1" xmlns="http://www.w3.org/2000/svg" xmlns:xlink="http://www.w3.org/1999/xlink" x="0px" y="0px"
	 width="42px" height="42px" viewBox="0 0 42 42" enable-background="new 0 0 42 42" xml:space="preserve">
<g id="XMLID_9_">
	<g>
		<g display="none">
			<path display="inline" fill="none" stroke="#FFFFFF" stroke-width="1.84" stroke-linecap="round" stroke-miterlimit="10" d="
				M-405.4,21.8c0,10.601-8.6,19.2-19.2,19.2s-19.2-8.6-19.2-19.2c0-10.6,8.6-19.2,19.2-19.2S-405.4,11.2-405.4,21.8z"/>
			
				<polygon display="inline" fill="none" stroke="#FFFFFF" stroke-width="6" stroke-linecap="round" stroke-miterlimit="10" points="
				-424.6,33.6 -424.6,33.6 -424.6,33.6 			"/>
			
				<path display="inline" fill="none" stroke="#FFFFFF" stroke-width="6" stroke-linecap="round" stroke-linejoin="round" stroke-miterlimit="10" d="
				M-431.4,15c0-3.8,3-6.8,6.8-6.8c3.8,0,6.8,3,6.8,6.8s-3.3,7.3-6.8,8.9v1.5"/>
		</g>
		<g display="none">
			
				<line display="inline" fill="none" stroke="#FFFFFF" stroke-width="4" stroke-linecap="round" stroke-linejoin="round" stroke-miterlimit="10" x1="-424.6" y1="24.6" x2="-424.6" y2="20.5"/>
			
				<line display="inline" fill="none" stroke="#FFFFFF" stroke-width="4" stroke-linecap="round" stroke-linejoin="round" stroke-miterlimit="10" x1="-424.6" y1="20.5" x2="-427.8" y2="17.3"/>
			
				<line display="inline" fill="none" stroke="#FFFFFF" stroke-width="4" stroke-linecap="round" stroke-linejoin="round" stroke-miterlimit="10" x1="-424.6" y1="20.5" x2="-421.4" y2="17.3"/>
		</g>
		<g display="none">
			<g display="inline">
				
					<line fill="none" stroke="#FFFFFF" stroke-width="4" stroke-linecap="round" stroke-linejoin="round" stroke-miterlimit="10" x1="-424.6" y1="9.4" x2="-424.6" y2="7.3"/>
				
					<line fill="none" stroke="#FFFFFF" stroke-width="4" stroke-linecap="round" stroke-linejoin="round" stroke-miterlimit="10" x1="-433.1" y1="29.9" x2="-434.5" y2="31.3"/>
				
					<line fill="none" stroke="#FFFFFF" stroke-width="4" stroke-linecap="round" stroke-linejoin="round" stroke-miterlimit="10" x1="-433.1" y1="12.8" x2="-434.5" y2="11.4"/>
				
					<line fill="none" stroke="#FFFFFF" stroke-width="4" stroke-linecap="round" stroke-linejoin="round" stroke-miterlimit="10" x1="-436.6" y1="21.5" x2="-438.7" y2="21.5"/>
			</g>
			
				<line display="inline" fill="none" stroke="#FFFFFF" stroke-width="4" stroke-linecap="round" stroke-linejoin="round" stroke-miterlimit="10" x1="-416.1" y1="29.9" x2="-414.7" y2="31.3"/>
			
				<line display="inline" fill="none" stroke="#FFFFFF" stroke-width="4" stroke-linecap="round" stroke-linejoin="round" stroke-miterlimit="10" x1="-416.1" y1="12.8" x2="-414.7" y2="11.4"/>
			
				<line display="inline" fill="none" stroke="#FFFFFF" stroke-width="4" stroke-linecap="round" stroke-linejoin="round" stroke-miterlimit="10" x1="-412.6" y1="21.5" x2="-410.5" y2="21.5"/>
		</g>
		<g display="none">
			
				<path display="inline" fill="#FFFFFF" stroke="#FFFFFF" stroke-width="4" stroke-linecap="round" stroke-linejoin="round" stroke-miterlimit="10" d="
				M-419.9,20.9c0-2.6-2.1-4.7-4.7-4.7s-4.7,2.1-4.7,4.7c0,5.1,3.5,5.7,3.5,7.3v2c0,0.7-0.1,1.3,0.4,1.6c0.1,0.4,1.7,0.4,1.7,0
				c0.4-0.399,0.4-0.899,0.4-1.6v-2C-423.4,26.7-419.9,25.9-419.9,20.9z"/>
			
				<polygon display="inline" fill="#FFFFFF" stroke="#FFFFFF" stroke-width="4" stroke-linecap="round" stroke-linejoin="round" stroke-miterlimit="10" points="
				-424.6,33.1 -424.6,33.1 -424.6,33.1 			"/>
		</g>
		<g opacity="0.5">
			<g>
				
					<line fill="none" stroke="#444444" stroke-width="4" stroke-linecap="round" stroke-linejoin="round" stroke-miterlimit="10" x1="-424.6" y1="9.4" x2="-424.6" y2="7.3"/>
			</g>
			<g>
				
					<line fill="none" stroke="#444444" stroke-width="4" stroke-linecap="round" stroke-linejoin="round" stroke-miterlimit="10" x1="-434.5" y1="15.1" x2="-436.3" y2="14"/>
			</g>
			<g>
				
					<line fill="none" stroke="#444444" stroke-width="4" stroke-linecap="round" stroke-linejoin="round" stroke-miterlimit="10" x1="-434.5" y1="26.5" x2="-436.3" y2="27.5"/>
			</g>
			<g>
				
					<line fill="none" stroke="#444444" stroke-width="4" stroke-linecap="round" stroke-linejoin="round" stroke-miterlimit="10" x1="-414.7" y1="15.1" x2="-412.9" y2="14"/>
			</g>
			<g>
				
					<line fill="none" stroke="#444444" stroke-width="4" stroke-linecap="round" stroke-linejoin="round" stroke-miterlimit="10" x1="-414.7" y1="26.5" x2="-412.9" y2="27.5"/>
			</g>
			
				<path fill="#444444" stroke="#444444" stroke-width="4" stroke-linecap="round" stroke-linejoin="round" stroke-miterlimit="10" d="
				M-419.8,20.9c0,3.3-2.9,7.6-4.7,7.6s-4.7-4-4.7-7.6c0-2.6,2.1-4.7,4.7-4.7S-419.8,18.3-419.8,20.9z"/>
			
				<line fill="none" stroke="#444444" stroke-width="6" stroke-linecap="round" stroke-linejoin="round" stroke-miterlimit="10" x1="-424.6" y1="24.1" x2="-424.6" y2="32.5"/>
		</g>
	</g>
</g>
<g id="XMLID_5_">
	<g>
		<g id="detail-info_10_">
			<g display="none">
				<path display="inline" fill="none" stroke="#FFFFFF" stroke-width="1.84" stroke-linecap="round" stroke-miterlimit="10" d="
					M-459.4,21.8c0,10.601-8.6,19.2-19.2,19.2s-19.2-8.6-19.2-19.2c0-10.6,8.6-19.2,19.2-19.2S-459.4,11.2-459.4,21.8z"/>
				
					<polygon display="inline" fill="none" stroke="#FFFFFF" stroke-width="6" stroke-linecap="round" stroke-miterlimit="10" points="
					-478.6,33.6 -478.6,33.6 -478.6,33.6 				"/>
				
					<path display="inline" fill="none" stroke="#FFFFFF" stroke-width="6" stroke-linecap="round" stroke-linejoin="round" stroke-miterlimit="10" d="
					M-485.4,15c0-3.8,3-6.8,6.8-6.8c3.8,0,6.8,3,6.8,6.8s-3.3,7.3-6.8,8.9v1.5"/>
			</g>
			<g display="none">
				
					<line display="inline" fill="none" stroke="#FFFFFF" stroke-width="4" stroke-linecap="round" stroke-linejoin="round" stroke-miterlimit="10" x1="-478.6" y1="24.6" x2="-478.6" y2="20.5"/>
				
					<line display="inline" fill="none" stroke="#FFFFFF" stroke-width="4" stroke-linecap="round" stroke-linejoin="round" stroke-miterlimit="10" x1="-478.6" y1="20.5" x2="-481.8" y2="17.3"/>
				
					<line display="inline" fill="none" stroke="#FFFFFF" stroke-width="4" stroke-linecap="round" stroke-linejoin="round" stroke-miterlimit="10" x1="-478.6" y1="20.5" x2="-475.4" y2="17.3"/>
			</g>
			<g display="none">
				<g display="inline">
					
						<line fill="none" stroke="#FFFFFF" stroke-width="4" stroke-linecap="round" stroke-linejoin="round" stroke-miterlimit="10" x1="-478.6" y1="9.4" x2="-478.6" y2="7.3"/>
					
						<line fill="none" stroke="#FFFFFF" stroke-width="4" stroke-linecap="round" stroke-linejoin="round" stroke-miterlimit="10" x1="-487.1" y1="29.9" x2="-488.5" y2="31.3"/>
					
						<line fill="none" stroke="#FFFFFF" stroke-width="4" stroke-linecap="round" stroke-linejoin="round" stroke-miterlimit="10" x1="-487.1" y1="12.8" x2="-488.5" y2="11.4"/>
					
						<line fill="none" stroke="#FFFFFF" stroke-width="4" stroke-linecap="round" stroke-linejoin="round" stroke-miterlimit="10" x1="-490.6" y1="21.5" x2="-492.7" y2="21.5"/>
				</g>
				
					<line display="inline" fill="none" stroke="#FFFFFF" stroke-width="4" stroke-linecap="round" stroke-linejoin="round" stroke-miterlimit="10" x1="-470.1" y1="29.9" x2="-468.7" y2="31.3"/>
				
					<line display="inline" fill="none" stroke="#FFFFFF" stroke-width="4" stroke-linecap="round" stroke-linejoin="round" stroke-miterlimit="10" x1="-470.1" y1="12.8" x2="-468.7" y2="11.4"/>
				
					<line display="inline" fill="none" stroke="#FFFFFF" stroke-width="4" stroke-linecap="round" stroke-linejoin="round" stroke-miterlimit="10" x1="-466.6" y1="21.5" x2="-464.5" y2="21.5"/>
			</g>
			<g display="none">
				
					<path display="inline" fill="#FFFFFF" stroke="#FFFFFF" stroke-width="4" stroke-linecap="round" stroke-linejoin="round" stroke-miterlimit="10" d="
					M-473.9,20.9c0-2.6-2.1-4.7-4.7-4.7s-4.7,2.1-4.7,4.7c0,5.1,3.5,5.7,3.5,7.3v2c0,0.7-0.1,1.3,0.4,1.6c0.1,0.4,1.7,0.4,1.7,0
					c0.4-0.399,0.4-0.899,0.4-1.6v-2C-477.4,26.7-473.9,25.9-473.9,20.9z"/>
				
					<polygon display="inline" fill="#FFFFFF" stroke="#FFFFFF" stroke-width="4" stroke-linecap="round" stroke-linejoin="round" stroke-miterlimit="10" points="
					-478.6,33.1 -478.6,33.1 -478.6,33.1 				"/>
			</g>
			<g opacity="0.5">
				<g>
					
						<line fill="none" stroke="#FFFFFF" stroke-width="4" stroke-linecap="round" stroke-linejoin="round" stroke-miterlimit="10" x1="-478.6" y1="9.4" x2="-478.6" y2="7.3"/>
				</g>
				<g>
					
						<line fill="none" stroke="#FFFFFF" stroke-width="4" stroke-linecap="round" stroke-linejoin="round" stroke-miterlimit="10" x1="-488.5" y1="15.1" x2="-490.3" y2="14"/>
				</g>
				<g>
					
						<line fill="none" stroke="#FFFFFF" stroke-width="4" stroke-linecap="round" stroke-linejoin="round" stroke-miterlimit="10" x1="-488.5" y1="26.5" x2="-490.3" y2="27.5"/>
				</g>
				<g>
					
						<line fill="none" stroke="#FFFFFF" stroke-width="4" stroke-linecap="round" stroke-linejoin="round" stroke-miterlimit="10" x1="-468.7" y1="15.1" x2="-466.9" y2="14"/>
				</g>
				<g>
					
						<line fill="none" stroke="#FFFFFF" stroke-width="4" stroke-linecap="round" stroke-linejoin="round" stroke-miterlimit="10" x1="-468.7" y1="26.5" x2="-466.9" y2="27.5"/>
				</g>
				
					<path fill="#FFFFFF" stroke="#FFFFFF" stroke-width="4" stroke-linecap="round" stroke-linejoin="round" stroke-miterlimit="10" d="
					M-473.8,20.9c0,3.3-2.9,7.6-4.7,7.6s-4.7-4-4.7-7.6c0-2.6,2.1-4.7,4.7-4.7S-473.8,18.3-473.8,20.9z"/>
				
					<line fill="none" stroke="#FFFFFF" stroke-width="6" stroke-linecap="round" stroke-linejoin="round" stroke-miterlimit="10" x1="-478.6" y1="24.1" x2="-478.6" y2="32.5"/>
			</g>
		</g>
	</g>
</g>
<g id="XMLID_4_">
	<g>
		<g id="detail-info_9_">
			<g display="none">
				<path display="inline" fill="none" stroke="#FFFFFF" stroke-width="1.84" stroke-linecap="round" stroke-miterlimit="10" d="
					M-512.4,21.8c0,10.601-8.6,19.2-19.2,19.2s-19.2-8.6-19.2-19.2c0-10.6,8.6-19.2,19.2-19.2S-512.4,11.2-512.4,21.8z"/>
				
					<polygon display="inline" fill="none" stroke="#FFFFFF" stroke-width="6" stroke-linecap="round" stroke-miterlimit="10" points="
					-531.6,33.6 -531.6,33.6 -531.6,33.6 				"/>
				
					<path display="inline" fill="none" stroke="#FFFFFF" stroke-width="6" stroke-linecap="round" stroke-linejoin="round" stroke-miterlimit="10" d="
					M-538.4,15c0-3.8,3-6.8,6.8-6.8c3.8,0,6.8,3,6.8,6.8s-3.3,7.3-6.8,8.9v1.5"/>
			</g>
			<g display="none">
				
					<line display="inline" fill="none" stroke="#FFFFFF" stroke-width="4" stroke-linecap="round" stroke-linejoin="round" stroke-miterlimit="10" x1="-531.6" y1="24.6" x2="-531.6" y2="20.5"/>
				
					<line display="inline" fill="none" stroke="#FFFFFF" stroke-width="4" stroke-linecap="round" stroke-linejoin="round" stroke-miterlimit="10" x1="-531.6" y1="20.5" x2="-534.8" y2="17.3"/>
				
					<line display="inline" fill="none" stroke="#FFFFFF" stroke-width="4" stroke-linecap="round" stroke-linejoin="round" stroke-miterlimit="10" x1="-531.6" y1="20.5" x2="-528.4" y2="17.3"/>
			</g>
			<g display="none">
				<g display="inline">
					
						<line fill="none" stroke="#FFFFFF" stroke-width="4" stroke-linecap="round" stroke-linejoin="round" stroke-miterlimit="10" x1="-531.6" y1="9.4" x2="-531.6" y2="7.3"/>
					
						<line fill="none" stroke="#FFFFFF" stroke-width="4" stroke-linecap="round" stroke-linejoin="round" stroke-miterlimit="10" x1="-540.1" y1="29.9" x2="-541.5" y2="31.3"/>
					
						<line fill="none" stroke="#FFFFFF" stroke-width="4" stroke-linecap="round" stroke-linejoin="round" stroke-miterlimit="10" x1="-540.1" y1="12.8" x2="-541.5" y2="11.4"/>
					
						<line fill="none" stroke="#FFFFFF" stroke-width="4" stroke-linecap="round" stroke-linejoin="round" stroke-miterlimit="10" x1="-543.6" y1="21.5" x2="-545.7" y2="21.5"/>
				</g>
				
					<line display="inline" fill="none" stroke="#FFFFFF" stroke-width="4" stroke-linecap="round" stroke-linejoin="round" stroke-miterlimit="10" x1="-523.1" y1="29.9" x2="-521.7" y2="31.3"/>
				
					<line display="inline" fill="none" stroke="#FFFFFF" stroke-width="4" stroke-linecap="round" stroke-linejoin="round" stroke-miterlimit="10" x1="-523.1" y1="12.8" x2="-521.7" y2="11.4"/>
				
					<line display="inline" fill="none" stroke="#FFFFFF" stroke-width="4" stroke-linecap="round" stroke-linejoin="round" stroke-miterlimit="10" x1="-519.6" y1="21.5" x2="-517.5" y2="21.5"/>
			</g>
			<g display="none">
				
					<path display="inline" fill="#FFFFFF" stroke="#FFFFFF" stroke-width="4" stroke-linecap="round" stroke-linejoin="round" stroke-miterlimit="10" d="
					M-526.9,20.9c0-2.6-2.1-4.7-4.7-4.7s-4.7,2.1-4.7,4.7c0,5.1,3.5,5.7,3.5,7.3v2c0,0.7-0.1,1.3,0.4,1.6c0.1,0.4,1.7,0.4,1.7,0
					c0.4-0.399,0.4-0.899,0.4-1.6v-2C-530.4,26.7-526.9,25.9-526.9,20.9z"/>
				
					<polygon display="inline" fill="#FFFFFF" stroke="#FFFFFF" stroke-width="4" stroke-linecap="round" stroke-linejoin="round" stroke-miterlimit="10" points="
					-531.6,33.1 -531.6,33.1 -531.6,33.1 				"/>
			</g>
			<g>
				<g>
					
						<line fill="none" stroke="#FFFFFF" stroke-width="4" stroke-linecap="round" stroke-linejoin="round" stroke-miterlimit="10" x1="-531.6" y1="9.4" x2="-531.6" y2="7.3"/>
				</g>
				<g>
					
						<line fill="none" stroke="#FFFFFF" stroke-width="4" stroke-linecap="round" stroke-linejoin="round" stroke-miterlimit="10" x1="-541.5" y1="15.1" x2="-543.3" y2="14"/>
				</g>
				<g>
					
						<line fill="none" stroke="#FFFFFF" stroke-width="4" stroke-linecap="round" stroke-linejoin="round" stroke-miterlimit="10" x1="-541.5" y1="26.5" x2="-543.3" y2="27.5"/>
				</g>
				<g>
					
						<line fill="none" stroke="#FFFFFF" stroke-width="4" stroke-linecap="round" stroke-linejoin="round" stroke-miterlimit="10" x1="-521.7" y1="15.1" x2="-519.9" y2="14"/>
				</g>
				<g>
					
						<line fill="none" stroke="#FFFFFF" stroke-width="4" stroke-linecap="round" stroke-linejoin="round" stroke-miterlimit="10" x1="-521.7" y1="26.5" x2="-519.9" y2="27.5"/>
				</g>
				
					<path fill="#FFFFFF" stroke="#FFFFFF" stroke-width="4" stroke-linecap="round" stroke-linejoin="round" stroke-miterlimit="10" d="
					M-526.8,20.9c0,3.3-2.9,7.6-4.7,7.6s-4.7-4-4.7-7.6c0-2.6,2.1-4.7,4.7-4.7S-526.8,18.3-526.8,20.9z"/>
				
					<line fill="none" stroke="#FFFFFF" stroke-width="6" stroke-linecap="round" stroke-linejoin="round" stroke-miterlimit="10" x1="-531.6" y1="24.1" x2="-531.6" y2="32.5"/>
			</g>
		</g>
	</g>
</g>
<g>
	<g>
		
			<line fill="none" stroke="#FFFFFF" stroke-width="5" stroke-linecap="round" stroke-miterlimit="10" x1="-678.5" y1="88.8" x2="-678.5" y2="118.7"/>
		
			<line fill="none" stroke="#FFFFFF" stroke-width="5" stroke-linecap="round" stroke-miterlimit="10" x1="-693.4" y1="103.8" x2="-663.5" y2="103.8"/>
	</g>
</g>
<g>
	<g>
		
			<line fill="none" stroke="#FFFFFF" stroke-width="5" stroke-linecap="round" stroke-miterlimit="10" x1="-607.3" y1="103.8" x2="-563.6" y2="103.8"/>
	</g>
</g>
<g id="XMLID_32_">
	<g>
		
			<line fill="none" stroke="#FFFFFF" stroke-width="5" stroke-linecap="round" stroke-miterlimit="10" x1="-402.5" y1="86.1" x2="-402.5" y2="107.5"/>
		
			<line fill="none" stroke="#FFFFFF" stroke-width="5" stroke-linecap="round" stroke-miterlimit="10" x1="-412.1" y1="120.2" x2="-392.8" y2="120.2"/>
		<polyline fill="none" stroke="#FFFFFF" stroke-width="5" stroke-linecap="round" stroke-miterlimit="10" points="-393.6,100.2 
			-402.5,107.5 -411.3,100.2 		"/>
	</g>
</g>
<g id="XMLID_7_">
	
		<polygon fill="none" stroke="#FFFFFF" stroke-width="5" stroke-linecap="round" stroke-linejoin="round" stroke-miterlimit="10" points="
		-503.7,86.6 -472.8,103.7 -503.7,120.7 	"/>
</g>
<g>
	
		<circle fill="none" stroke="#B2B2B2" stroke-width="4" stroke-linecap="round" stroke-miterlimit="10" stroke-dasharray="0,10" cx="-781" cy="-170" r="135"/>
	<g>
		<g>
			
				<line fill="none" stroke="#F35800" stroke-width="10" stroke-linecap="round" stroke-miterlimit="10" x1="-743.6" y1="-208.6" x2="-820.7" y2="-131.4"/>
			
				<line fill="none" stroke="#F35800" stroke-width="10" stroke-linecap="round" stroke-miterlimit="10" x1="-820.7" y1="-208.6" x2="-743.6" y2="-131.4"/>
		</g>
	</g>
</g>
<g>
	
		<circle fill="none" stroke="#B2B2B2" stroke-width="4" stroke-linecap="round" stroke-miterlimit="10" stroke-dasharray="0,10" cx="-478" cy="-170" r="135"/>
	<g>
		<g>
			
				<line fill="none" stroke="#036D99" stroke-width="8" stroke-linecap="round" stroke-miterlimit="10" x1="-476.6" y1="-141.8" x2="-476.6" y2="-164.8"/>
			
				<line fill="none" stroke="#036D99" stroke-width="8" stroke-linecap="round" stroke-miterlimit="10" x1="-476.5" y1="-164.8" x2="-489.6" y2="-178"/>
			
				<line fill="none" stroke="#036D99" stroke-width="8" stroke-linecap="round" stroke-miterlimit="10" x1="-476.6" y1="-164.8" x2="-463.4" y2="-178"/>
		</g>
		<g display="none">
			<g display="inline">
				
					<line fill="none" stroke="#036D99" stroke-width="8" stroke-linecap="round" stroke-miterlimit="10" x1="-476.6" y1="-250.1" x2="-476.6" y2="-261"/>
				
					<line fill="none" stroke="#036D99" stroke-width="8" stroke-linecap="round" stroke-miterlimit="10" x1="-521.8" y1="-141" x2="-529.5" y2="-133.3"/>
				
					<line fill="none" stroke="#036D99" stroke-width="8" stroke-linecap="round" stroke-miterlimit="10" x1="-521.7" y1="-231.7" x2="-529.4" y2="-239.5"/>
				
					<line fill="none" stroke="#036D99" stroke-width="8" stroke-linecap="round" stroke-miterlimit="10" x1="-540.6" y1="-185.6" x2="-551.6" y2="-185.6"/>
			</g>
			
				<line display="inline" fill="none" stroke="#036D99" stroke-width="8" stroke-linecap="round" stroke-miterlimit="10" x1="-431.4" y1="-141" x2="-423.6" y2="-133.3"/>
			
				<line display="inline" fill="none" stroke="#036D99" stroke-width="8" stroke-linecap="round" stroke-miterlimit="10" x1="-431.5" y1="-231.7" x2="-423.7" y2="-239.5"/>
			
				<line display="inline" fill="none" stroke="#036D99" stroke-width="8" stroke-linecap="round" stroke-miterlimit="10" x1="-412.5" y1="-185.6" x2="-401.6" y2="-185.6"/>
		</g>
		
			<line fill="none" stroke="#036D99" stroke-width="8" stroke-linecap="round" stroke-miterlimit="10" x1="-490.3" y1="-141.8" x2="-462.9" y2="-141.8"/>
		
			<line fill="none" stroke="#036D99" stroke-width="8" stroke-linecap="round" stroke-miterlimit="10" x1="-490.3" y1="-129.5" x2="-462.9" y2="-129.5"/>
		
			<line fill="none" stroke="#036D99" stroke-width="8" stroke-linecap="round" stroke-miterlimit="10" x1="-490.1" y1="-116.9" x2="-463" y2="-116.9"/>
		<path fill="none" stroke="#036D99" stroke-width="8" stroke-linecap="round" stroke-miterlimit="10" d="M-462.9-119
			c0,7.6-5.3,13.7-13.7,13.7s-13.7-6.2-13.7-13.7v-19c0-11.5-23.8-19.4-23.8-48.9c0-20.5,16.8-37.6,37.5-37.6
			c20.7,0,37.5,17.8,37.5,37.6c0,29.4-23.8,38-23.8,48.9V-119L-462.9-119z"/>
		<path fill="none" stroke="#036D99" stroke-width="8" stroke-linecap="round" stroke-miterlimit="10" d="M-466.8-207.6
			c5.1,2.5,9.2,6.6,11.8,11.6"/>
	</g>
</g>
<g>
	<g>
		<path fill="none" stroke="#B2B2B2" stroke-width="4" stroke-linecap="round" stroke-miterlimit="10" stroke-dasharray="0,10" d="
			M-29-170.2c0,14.6-14,26.7-18.3,39.9c-4.4,13.6-0.4,31.7-8.6,43c-8.3,11.5-26.8,13.2-38.3,21.5c-11.3,8.2-18.6,25.3-32.2,29.8
			c-13.1,4.3-29-5.1-43.6-5.1s-30.4,9.4-43.6,5.1c-13.6-4.4-20.9-21.5-32.2-29.8c-11.4-8.3-29.9-10-38.3-21.5
			c-8.2-11.3-4.2-29.4-8.6-43c-4.3-13.1-18.3-25.3-18.3-39.9c0-14.6,14-26.7,18.3-39.9c4.4-13.6,0.4-31.7,8.6-43
			c8.3-11.5,26.8-13.2,38.3-21.5c11.3-8.2,18.6-25.3,32.2-29.8c13.1-4.3,29,5.1,43.6,5.1s30.4-9.4,43.6-5.1
			c13.6,4.4,20.9,21.5,32.2,29.8c11.5,8.3,29.9,10,38.3,21.5c8.2,11.3,4.2,29.4,8.6,43C-43-196.9-29-184.7-29-170.2z"/>
	</g>
	<g>
		
			<line fill="none" stroke="#F3B100" stroke-width="10" stroke-linecap="round" stroke-miterlimit="10" x1="-119.1" y1="-198.7" x2="-185.8" y2="-132"/>
		
			<line fill="none" stroke="#F3B100" stroke-width="10" stroke-linecap="round" stroke-miterlimit="10" x1="-219.1" y1="-165.4" x2="-185.8" y2="-132"/>
	</g>
</g>
<g>
	
		<line fill="none" stroke="#FFFFFF" stroke-width="6" stroke-linecap="round" stroke-miterlimit="10" x1="-382.2" y1="33.2" x2="-359.8" y2="10.8"/>
	
		<line fill="none" stroke="#FFFFFF" stroke-width="6" stroke-linecap="round" stroke-miterlimit="10" x1="-359.8" y1="33.2" x2="-382.2" y2="10.8"/>
</g>
<g>
	
		<line fill="none" stroke="#FFFFFF" stroke-width="5" stroke-linecap="round" stroke-miterlimit="10" x1="-575.4" y1="21.4" x2="-596.3" y2="21.4"/>
</g>
<g>
	
		<line fill="none" stroke="#FFFFFF" stroke-width="5" stroke-linecap="round" stroke-miterlimit="10" x1="-695.2" y1="9.5" x2="-695.2" y2="22.8"/>
	
		<line fill="none" stroke="#FFFFFF" stroke-width="5" stroke-linecap="round" stroke-miterlimit="10" x1="-701.2" y1="30.7" x2="-689.2" y2="30.7"/>
	<polyline fill="none" stroke="#FFFFFF" stroke-width="5" stroke-linecap="round" stroke-miterlimit="10" points="-689.7,18.3 
		-695.2,22.8 -700.7,18.3 	"/>
</g>
<g>
	
		<line fill="none" stroke="#FFFFFF" stroke-width="5" stroke-linecap="round" stroke-miterlimit="10" x1="-247.1" y1="31" x2="-247.1" y2="11.6"/>
	<g id="XMLID_1_">
		
			<polygon fill="none" stroke="#FFFFFF" stroke-width="5" stroke-linecap="round" stroke-linejoin="round" stroke-miterlimit="10" points="
			-267.1,13.4 -252.9,21.3 -267.1,29.1 		"/>
	</g>
</g>
<g>
	<g>
		<path display="none" fill="none" stroke="#FFFFFF" stroke-width="2" stroke-linecap="round" stroke-miterlimit="10" d="
			M-620.8,20.8c0,11-9,20-20,20s-20-9-20-20s9-20,20-20C-629.7,0.8-620.8,9.7-620.8,20.8z"/>
		
			<line fill="none" stroke="#FFFFFF" stroke-width="5" stroke-linecap="round" stroke-miterlimit="10" x1="-645.8" y1="31.2" x2="-635.8" y2="31.2"/>
		<polyline fill="none" stroke="#FFFFFF" stroke-width="5" stroke-linecap="round" stroke-miterlimit="10" points="-645.3,19.9 
			-640.8,19.9 -640.8,31.2 		"/>
	</g>
	<circle fill="#FFFFFF" cx="-640.8" cy="11.2" r="2.9"/>
</g>
<polyline fill="none" stroke="#444444" stroke-width="6" stroke-linecap="round" stroke-linejoin="round" stroke-miterlimit="10" points="
	-302,17.3 -314,29.3 -326,17.3 "/>
<g>
	<path fill="none" stroke="#FFFFFF" stroke-width="5" stroke-linecap="round" stroke-miterlimit="10" d="M-199.6,26.5
		c2.2,5.2,7.3,8.9,13.3,8.9c6.6,0,12.1-4.4,13.9-10.4"/>
	<polyline fill="none" stroke="#FFFFFF" stroke-width="5" stroke-linecap="round" stroke-miterlimit="10" points="-178.8,25.7 
		-171.8,22.7 -168.9,29.6 	"/>
	<path fill="none" stroke="#FFFFFF" stroke-width="5" stroke-linecap="round" stroke-miterlimit="10" d="M-173.3,14.5
		c-2.4-4.7-7.3-8-12.9-8c-6.6,0-12.1,4.4-13.9,10.4"/>
	<polyline fill="none" stroke="#FFFFFF" stroke-width="5" stroke-linecap="round" stroke-miterlimit="10" points="-193.7,16.1 
		-200.6,19 -203.6,12.1 	"/>
</g>
<g>
	<g>
		<path fill="none" stroke="#FFFFFF" stroke-width="5" stroke-linecap="round" stroke-linejoin="round" stroke-miterlimit="10" d="
			M-143.4,8.2c7.8,3.3,13.1-7,20.9-3.7c0.9,5.1,1.8,10.2,2.7,15.2c-7.8-3.3-13.1,7-20.9,3.7"/>
		
			<line fill="none" stroke="#FFFFFF" stroke-width="5" stroke-linecap="round" stroke-linejoin="round" stroke-miterlimit="10" x1="-143.8" y1="5.8" x2="-138.6" y2="37.9"/>
	</g>
	<polygon fill="none" stroke="#FFFFFF" stroke-width="5" stroke-linecap="round" stroke-miterlimit="10" points="-129.5,34.6 
		-129.5,34.6 -129.5,34.6 	"/>
	<polygon fill="none" stroke="#FFFFFF" stroke-width="4" stroke-linecap="round" stroke-miterlimit="10" points="-121.9,32.1 
		-121.9,32.1 -121.9,32.1 	"/>
</g>
<g>
	
		<circle fill="none" stroke="#FFFFFF" stroke-width="5" stroke-linecap="round" stroke-miterlimit="10" cx="-80.5" cy="21.2" r="12.7"/>
	
		<line fill="none" stroke="#FFFFFF" stroke-width="5" stroke-linecap="round" stroke-miterlimit="10" x1="-80.5" y1="3.2" x2="-80.5" y2="13.8"/>
	
		<line fill="none" stroke="#FFFFFF" stroke-width="5" stroke-linecap="round" stroke-miterlimit="10" x1="-62.5" y1="21.2" x2="-73.1" y2="21.2"/>
	
		<line fill="none" stroke="#FFFFFF" stroke-width="5" stroke-linecap="round" stroke-miterlimit="10" x1="-80.5" y1="39.3" x2="-80.5" y2="28.7"/>
	
		<line fill="none" stroke="#FFFFFF" stroke-width="5" stroke-linecap="round" stroke-miterlimit="10" x1="-98.5" y1="21.2" x2="-87.9" y2="21.2"/>
</g>
<g>
	<path fill="none" stroke="#FFFFFF" stroke-width="5" stroke-linecap="round" stroke-linejoin="round" stroke-miterlimit="10" d="
		M-12,21.1c0,0-8.1,11.4-18,11.4s-18-11.4-18-11.4s8.1-11.4,18-11.4S-12,21.1-12,21.1z"/>
	
		<circle fill="none" stroke="#FFFFFF" stroke-width="5" stroke-linecap="round" stroke-linejoin="round" stroke-miterlimit="10" cx="-30" cy="21.1" r="8.5"/>
	<path fill="none" stroke="#FFFFFF" stroke-width="5" stroke-linecap="round" stroke-linejoin="round" stroke-miterlimit="10" d="
		M-28.7,18.1c0.9,0,1.7,0.8,1.7,1.7"/>
</g>
<g>
	
		<line fill="none" stroke="#FFFFFF" stroke-width="6" stroke-linecap="round" stroke-linejoin="round" stroke-miterlimit="10" x1="21.05" y1="33.048" x2="21.05" y2="9.048"/>
	
		<line fill="none" stroke="#FFFFFF" stroke-width="6" stroke-linecap="round" stroke-linejoin="round" stroke-miterlimit="10" x1="33.051" y1="21.048" x2="9.051" y2="21.049"/>
</g>
</svg>
