<?xml version="1.0" encoding="utf-8"?>
<!-- Generator: Adobe Illustrator 16.0.0, SVG Export Plug-In . SVG Version: 6.00 Build 0)  -->
<!DOCTYPE svg PUBLIC "-//W3C//DTD SVG 1.1//EN" "http://www.w3.org/Graphics/SVG/1.1/DTD/svg11.dtd">
<svg version="1.1" id="Ebene_1" xmlns="http://www.w3.org/2000/svg" xmlns:xlink="http://www.w3.org/1999/xlink" x="0px" y="0px"
	 width="42px" height="42px" viewBox="0 0 42 42" style="enable-background:new 0 0 42 42;" xml:space="preserve">
<style type="text/css">
<![CDATA[
	.st0{fill:none;stroke:#F3B100;stroke-width:10;stroke-linecap:round;stroke-miterlimit:10;}
	.st1{display:inline;fill:none;stroke:#FFFFFF;stroke-width:6;stroke-linecap:round;stroke-miterlimit:10;}
	.st2{display:inline;fill:none;stroke:#036D99;stroke-width:8;stroke-linecap:round;stroke-miterlimit:10;}
	.st3{fill:none;stroke:#FFFFFF;stroke-width:4;stroke-linecap:round;stroke-linejoin:round;stroke-miterlimit:10;}
	.st4{fill:none;stroke:#FFFFFF;stroke-width:5;stroke-linecap:round;stroke-linejoin:round;stroke-miterlimit:10;}
	.st5{fill:#FFFFFF;stroke:#FFFFFF;stroke-width:4;stroke-linecap:round;stroke-linejoin:round;stroke-miterlimit:10;}
	.st6{fill:#FFFFFF;stroke:#FFFFFF;stroke-width:6;stroke-linecap:round;stroke-linejoin:round;stroke-miterlimit:10;}
	.st7{display:inline;fill:none;stroke:#FFFFFF;stroke-width:4;stroke-linecap:round;stroke-linejoin:round;stroke-miterlimit:10;}
	.st8{display:inline;fill:none;stroke:#FFFFFF;stroke-width:6;stroke-linecap:round;stroke-linejoin:round;stroke-miterlimit:10;}
	.st9{display:none;fill:none;stroke:#FFFFFF;stroke-width:2;stroke-linecap:round;stroke-miterlimit:10;}
	
		.st10{display:inline;fill:#FFFFFF;stroke:#FFFFFF;stroke-width:4;stroke-linecap:round;stroke-linejoin:round;stroke-miterlimit:10;}
	.st11{fill:none;stroke:#FFFFFF;stroke-width:4;stroke-linecap:round;stroke-miterlimit:10;}
	.st12{fill:none;stroke:#FFFFFF;stroke-width:5;stroke-linecap:round;stroke-miterlimit:10;}
	.st13{fill:none;stroke:#FFFFFF;stroke-width:6;stroke-linecap:round;stroke-miterlimit:10;}
	.st14{fill:none;stroke:#036D99;stroke-width:8;stroke-linecap:round;stroke-miterlimit:10;}
	.st15{fill:none;stroke:#B2B2B2;stroke-width:4;stroke-linecap:round;stroke-miterlimit:10;stroke-dasharray:0,10;}
	.st16{opacity:0.5;}
	.st17{fill:#FFFFFF;}
	.st18{display:inline;}
	.st19{fill:none;stroke:#F35800;stroke-width:10;stroke-linecap:round;stroke-miterlimit:10;}
	.st20{fill:none;stroke:#FFFFFF;stroke-width:1.84;stroke-linecap:round;stroke-miterlimit:10;}
	.st21{display:none;}
	.st22{fill:none;stroke:#444444;stroke-width:4;stroke-linecap:round;stroke-linejoin:round;stroke-miterlimit:10;}
	.st23{fill:none;stroke:#444444;stroke-width:6;stroke-linecap:round;stroke-linejoin:round;stroke-miterlimit:10;}
	.st24{fill:#444444;stroke:#444444;stroke-width:4;stroke-linecap:round;stroke-linejoin:round;stroke-miterlimit:10;}
	.st25{fill:#FFFFFF;stroke:#444444;stroke-width:6;stroke-linecap:round;stroke-linejoin:round;stroke-miterlimit:10;}
]]>
</style>
<g id="XMLID_9_">
	<g>
		<g class="st21">
			<path class="st20" d="M-304.4,21.8c0,10.6-8.6,19.2-19.2,19.2c-10.6,0-19.2-8.6-19.2-19.2c0-10.6,8.6-19.2,19.2-19.2
				C-313,2.6-304.4,11.2-304.4,21.8z"/>
			<rect x="-323.6" y="33.6" class="st1" width="0" height="0"/>
			<path class="st8" d="M-330.4,15c0-3.8,3-6.8,6.8-6.8c3.8,0,6.8,3,6.8,6.8c0,3.8-3.3,7.3-6.8,8.9v1.5"/>
		</g>
		<g class="st21">
			<line class="st7" x1="-323.6" y1="24.6" x2="-323.6" y2="20.5"/>
			<line class="st7" x1="-323.6" y1="20.5" x2="-326.8" y2="17.3"/>
			<line class="st7" x1="-323.6" y1="20.5" x2="-320.4" y2="17.3"/>
		</g>
		<g class="st21">
			<g class="st18">
				<line class="st3" x1="-323.6" y1="9.4" x2="-323.6" y2="7.3"/>
				<line class="st3" x1="-332.1" y1="29.9" x2="-333.5" y2="31.3"/>
				<line class="st3" x1="-332.1" y1="12.8" x2="-333.5" y2="11.4"/>
				<line class="st3" x1="-335.6" y1="21.5" x2="-337.7" y2="21.5"/>
			</g>
			<line class="st7" x1="-315.1" y1="29.9" x2="-313.7" y2="31.3"/>
			<line class="st7" x1="-315.1" y1="12.8" x2="-313.7" y2="11.4"/>
			<line class="st7" x1="-311.6" y1="21.5" x2="-309.5" y2="21.5"/>
		</g>
		<g class="st21">
			<path class="st10" d="M-318.9,20.9c0-2.6-2.1-4.7-4.7-4.7c-2.6,0-4.7,2.1-4.7,4.7c0,5.1,3.5,5.7,3.5,7.3v2c0,0.7-0.1,1.3,0.4,1.6
				c0.1,0.4,1.7,0.4,1.7,0c0.4-0.4,0.4-0.9,0.4-1.6v-2C-322.4,26.7-318.9,25.9-318.9,20.9z"/>
			<rect x="-323.6" y="33.1" class="st10" width="0" height="0"/>
		</g>
		<g class="st16">
			<g>
				<line class="st22" x1="-323.6" y1="9.4" x2="-323.6" y2="7.3"/>
			</g>
			<g>
				<line class="st22" x1="-333.5" y1="15.1" x2="-335.3" y2="14"/>
			</g>
			<g>
				<line class="st22" x1="-333.5" y1="26.5" x2="-335.3" y2="27.5"/>
			</g>
			<g>
				<line class="st22" x1="-313.7" y1="15.1" x2="-311.9" y2="14"/>
			</g>
			<g>
				<line class="st22" x1="-313.7" y1="26.5" x2="-311.9" y2="27.5"/>
			</g>
			<path class="st24" d="M-318.8,20.9c0,3.3-2.9,7.6-4.7,7.6s-4.7-4-4.7-7.6c0-2.6,2.1-4.7,4.7-4.7
				C-320.9,16.2-318.8,18.3-318.8,20.9z"/>
			<line class="st25" x1="-323.6" y1="24.1" x2="-323.6" y2="32.5"/>
		</g>
	</g>
</g>
<g id="XMLID_5_">
	<g>
		<g id="detail-info_10_">
			<g class="st21">
				<path class="st20" d="M-358.4,21.8c0,10.6-8.6,19.2-19.2,19.2c-10.6,0-19.2-8.6-19.2-19.2c0-10.6,8.6-19.2,19.2-19.2
					C-367,2.6-358.4,11.2-358.4,21.8z"/>
				<rect x="-377.6" y="33.6" class="st1" width="0" height="0"/>
				<path class="st8" d="M-384.4,15c0-3.8,3-6.8,6.8-6.8c3.8,0,6.8,3,6.8,6.8c0,3.8-3.3,7.3-6.8,8.9v1.5"/>
			</g>
			<g class="st21">
				<line class="st7" x1="-377.6" y1="24.6" x2="-377.6" y2="20.5"/>
				<line class="st7" x1="-377.6" y1="20.5" x2="-380.8" y2="17.3"/>
				<line class="st7" x1="-377.6" y1="20.5" x2="-374.4" y2="17.3"/>
			</g>
			<g class="st21">
				<g class="st18">
					<line class="st3" x1="-377.6" y1="9.4" x2="-377.6" y2="7.3"/>
					<line class="st3" x1="-386.1" y1="29.9" x2="-387.5" y2="31.3"/>
					<line class="st3" x1="-386.1" y1="12.8" x2="-387.5" y2="11.4"/>
					<line class="st3" x1="-389.6" y1="21.5" x2="-391.7" y2="21.5"/>
				</g>
				<line class="st7" x1="-369.1" y1="29.9" x2="-367.7" y2="31.3"/>
				<line class="st7" x1="-369.1" y1="12.8" x2="-367.7" y2="11.4"/>
				<line class="st7" x1="-365.6" y1="21.5" x2="-363.5" y2="21.5"/>
			</g>
			<g class="st21">
				<path class="st10" d="M-372.9,20.9c0-2.6-2.1-4.7-4.7-4.7c-2.6,0-4.7,2.1-4.7,4.7c0,5.1,3.5,5.7,3.5,7.3v2
					c0,0.7-0.1,1.3,0.4,1.6c0.1,0.4,1.7,0.4,1.7,0c0.4-0.4,0.4-0.9,0.4-1.6v-2C-376.4,26.7-372.9,25.9-372.9,20.9z"/>
				<rect x="-377.6" y="33.1" class="st10" width="0" height="0"/>
			</g>
			<g class="st16">
				<g>
					<line class="st3" x1="-377.6" y1="9.4" x2="-377.6" y2="7.3"/>
				</g>
				<g>
					<line class="st3" x1="-387.5" y1="15.1" x2="-389.3" y2="14"/>
				</g>
				<g>
					<line class="st3" x1="-387.5" y1="26.5" x2="-389.3" y2="27.5"/>
				</g>
				<g>
					<line class="st3" x1="-367.7" y1="15.1" x2="-365.9" y2="14"/>
				</g>
				<g>
					<line class="st3" x1="-367.7" y1="26.5" x2="-365.9" y2="27.5"/>
				</g>
				<path class="st5" d="M-372.8,20.9c0,3.3-2.9,7.6-4.7,7.6s-4.7-4-4.7-7.6c0-2.6,2.1-4.7,4.7-4.7
					C-374.9,16.2-372.8,18.3-372.8,20.9z"/>
				<line class="st6" x1="-377.6" y1="24.1" x2="-377.6" y2="32.5"/>
			</g>
		</g>
	</g>
</g>
<g id="XMLID_4_">
	<g>
		<g id="detail-info_9_">
			<g class="st21">
				<path class="st20" d="M-411.4,21.8c0,10.6-8.6,19.2-19.2,19.2c-10.6,0-19.2-8.6-19.2-19.2c0-10.6,8.6-19.2,19.2-19.2
					C-420,2.6-411.4,11.2-411.4,21.8z"/>
				<rect x="-430.6" y="33.6" class="st1" width="0" height="0"/>
				<path class="st8" d="M-437.4,15c0-3.8,3-6.8,6.8-6.8c3.8,0,6.8,3,6.8,6.8c0,3.8-3.3,7.3-6.8,8.9v1.5"/>
			</g>
			<g class="st21">
				<line class="st7" x1="-430.6" y1="24.6" x2="-430.6" y2="20.5"/>
				<line class="st7" x1="-430.6" y1="20.5" x2="-433.8" y2="17.3"/>
				<line class="st7" x1="-430.6" y1="20.5" x2="-427.4" y2="17.3"/>
			</g>
			<g class="st21">
				<g class="st18">
					<line class="st3" x1="-430.6" y1="9.4" x2="-430.6" y2="7.3"/>
					<line class="st3" x1="-439.1" y1="29.9" x2="-440.5" y2="31.3"/>
					<line class="st3" x1="-439.1" y1="12.8" x2="-440.5" y2="11.4"/>
					<line class="st3" x1="-442.6" y1="21.5" x2="-444.7" y2="21.5"/>
				</g>
				<line class="st7" x1="-422.1" y1="29.9" x2="-420.7" y2="31.3"/>
				<line class="st7" x1="-422.1" y1="12.8" x2="-420.7" y2="11.4"/>
				<line class="st7" x1="-418.6" y1="21.5" x2="-416.5" y2="21.5"/>
			</g>
			<g class="st21">
				<path class="st10" d="M-425.9,20.9c0-2.6-2.1-4.7-4.7-4.7c-2.6,0-4.7,2.1-4.7,4.7c0,5.1,3.5,5.7,3.5,7.3v2
					c0,0.7-0.1,1.3,0.4,1.6c0.1,0.4,1.7,0.4,1.7,0c0.4-0.4,0.4-0.9,0.4-1.6v-2C-429.4,26.7-425.9,25.9-425.9,20.9z"/>
				<rect x="-430.6" y="33.1" class="st10" width="0" height="0"/>
			</g>
			<g>
				<g>
					<line class="st3" x1="-430.6" y1="9.4" x2="-430.6" y2="7.3"/>
				</g>
				<g>
					<line class="st3" x1="-440.5" y1="15.1" x2="-442.3" y2="14"/>
				</g>
				<g>
					<line class="st3" x1="-440.5" y1="26.5" x2="-442.3" y2="27.5"/>
				</g>
				<g>
					<line class="st3" x1="-420.7" y1="15.1" x2="-418.9" y2="14"/>
				</g>
				<g>
					<line class="st3" x1="-420.7" y1="26.5" x2="-418.9" y2="27.5"/>
				</g>
				<path class="st5" d="M-425.8,20.9c0,3.3-2.9,7.6-4.7,7.6s-4.7-4-4.7-7.6c0-2.6,2.1-4.7,4.7-4.7
					C-427.9,16.2-425.8,18.3-425.8,20.9z"/>
				<line class="st6" x1="-430.6" y1="24.1" x2="-430.6" y2="32.5"/>
			</g>
		</g>
	</g>
</g>
<g>
	<g>
		<line class="st12" x1="-577.5" y1="88.8" x2="-577.5" y2="118.7"/>
		<line class="st12" x1="-592.4" y1="103.8" x2="-562.5" y2="103.8"/>
	</g>
</g>
<g>
	<g>
		<line class="st12" x1="-506.3" y1="103.8" x2="-462.6" y2="103.8"/>
	</g>
</g>
<g id="XMLID_32_">
	<g>
		<line class="st12" x1="-301.5" y1="86.1" x2="-301.5" y2="107.5"/>
		<line class="st12" x1="-311.1" y1="120.2" x2="-291.8" y2="120.2"/>
		<polyline class="st12" points="-292.6,100.2 -301.5,107.5 -310.3,100.2 		"/>
	</g>
</g>
<g id="XMLID_7_">
	<polygon class="st4" points="-402.7,86.6 -371.8,103.7 -402.7,120.7 	"/>
</g>
<g>
	<circle class="st15" cx="-680" cy="-170" r="135"/>
	<g>
		<g>
			<line class="st19" x1="-642.6" y1="-208.6" x2="-719.7" y2="-131.4"/>
			<line class="st19" x1="-719.7" y1="-208.6" x2="-642.6" y2="-131.4"/>
		</g>
	</g>
</g>
<g>
	<circle class="st15" cx="-377" cy="-170" r="135"/>
	<g>
		<g>
			<line class="st14" x1="-375.6" y1="-141.8" x2="-375.6" y2="-164.8"/>
			<line class="st14" x1="-375.5" y1="-164.8" x2="-388.6" y2="-178"/>
			<line class="st14" x1="-375.6" y1="-164.8" x2="-362.4" y2="-178"/>
		</g>
		<g class="st21">
			<g class="st18">
				<line class="st14" x1="-375.6" y1="-250.1" x2="-375.6" y2="-261"/>
				<line class="st14" x1="-420.8" y1="-141" x2="-428.5" y2="-133.3"/>
				<line class="st14" x1="-420.7" y1="-231.7" x2="-428.4" y2="-239.5"/>
				<line class="st14" x1="-439.6" y1="-185.6" x2="-450.6" y2="-185.6"/>
			</g>
			<line class="st2" x1="-330.4" y1="-141" x2="-322.6" y2="-133.3"/>
			<line class="st2" x1="-330.5" y1="-231.7" x2="-322.7" y2="-239.5"/>
			<line class="st2" x1="-311.5" y1="-185.6" x2="-300.6" y2="-185.6"/>
		</g>
		<line class="st14" x1="-389.3" y1="-141.8" x2="-361.9" y2="-141.8"/>
		<line class="st14" x1="-389.3" y1="-129.5" x2="-361.9" y2="-129.5"/>
		<line class="st14" x1="-389.1" y1="-116.9" x2="-362" y2="-116.9"/>
		<path class="st14" d="M-361.9-119c0,7.6-5.3,13.7-13.7,13.7c-8.4,0-13.7-6.2-13.7-13.7l0-19c0-11.5-23.8-19.4-23.8-48.9
			c0-20.5,16.8-37.6,37.5-37.6c20.7,0,37.5,17.8,37.5,37.6c0,29.4-23.8,38-23.8,48.9V-119z"/>
		<path class="st14" d="M-365.8-207.6c5.1,2.5,9.2,6.6,11.8,11.6"/>
	</g>
</g>
<g>
	<g>
		<path class="st15" d="M72-170.2c0,14.6-14,26.7-18.3,39.9c-4.4,13.6-0.4,31.7-8.6,43C36.8-75.8,18.3-74.1,6.9-65.8
			C-4.5-57.5-11.8-40.5-25.4-36c-13.1,4.3-29-5.1-43.6-5.1c-14.6,0-30.4,9.4-43.6,5.1c-13.6-4.4-20.9-21.5-32.2-29.8
			c-11.4-8.3-29.9-10-38.3-21.5c-8.2-11.3-4.2-29.4-8.6-43c-4.3-13.1-18.3-25.3-18.3-39.9s14-26.7,18.3-39.9
			c4.4-13.6,0.4-31.7,8.6-43c8.3-11.5,26.8-13.2,38.3-21.5c11.3-8.2,18.6-25.3,32.2-29.8c13.1-4.3,29,5.1,43.6,5.1
			c14.6,0,30.4-9.4,43.6-5.1c13.6,4.4,20.9,21.5,32.2,29.8c11.5,8.3,29.9,10,38.3,21.5c8.2,11.3,4.2,29.4,8.6,43
			C58-196.9,72-184.7,72-170.2z"/>
	</g>
	<g>
		<line class="st0" x1="-18.1" y1="-198.7" x2="-84.8" y2="-132"/>
		<line class="st0" x1="-118.1" y1="-165.4" x2="-84.8" y2="-132"/>
	</g>
</g>
<g>
	<line class="st13" x1="-281.2" y1="33.2" x2="-258.8" y2="10.8"/>
	<line class="st13" x1="-258.8" y1="33.2" x2="-281.2" y2="10.8"/>
</g>
<g>
	<line class="st12" x1="-474.4" y1="21.4" x2="-495.3" y2="21.4"/>
</g>
<g>
	<line class="st12" x1="-594.2" y1="9.5" x2="-594.2" y2="22.8"/>
	<line class="st12" x1="-600.2" y1="30.7" x2="-588.2" y2="30.7"/>
	<polyline class="st12" points="-588.7,18.3 -594.2,22.8 -599.7,18.3 	"/>
</g>
<g>
	<line class="st12" x1="-146.1" y1="31" x2="-146.1" y2="11.6"/>
	<g id="XMLID_1_">
		<polygon class="st4" points="-166.1,13.4 -151.9,21.3 -166.1,29.1 		"/>
	</g>
</g>
<g>
	<g>
		<path class="st9" d="M-519.8,20.8c0,11-9,20-20,20c-11,0-20-9-20-20s9-20,20-20C-528.7,0.8-519.8,9.7-519.8,20.8z"/>
		<line class="st12" x1="-544.8" y1="31.2" x2="-534.8" y2="31.2"/>
		<polyline class="st12" points="-544.3,19.9 -539.8,19.9 -539.8,31.2 		"/>
	</g>
	<circle class="st17" cx="-539.8" cy="11.2" r="2.9"/>
</g>
<polyline class="st23" points="-201,17.3 -213,29.3 -225,17.3 "/>
<g>
	<path class="st12" d="M-98.6,26.5c2.2,5.2,7.3,8.9,13.3,8.9c6.6,0,12.1-4.4,13.9-10.4"/>
	<polyline class="st12" points="-77.8,25.7 -70.8,22.7 -67.9,29.6 	"/>
	<path class="st12" d="M-72.3,14.5c-2.4-4.7-7.3-8-12.9-8c-6.6,0-12.1,4.4-13.9,10.4"/>
	<polyline class="st12" points="-92.7,16.1 -99.6,19 -102.6,12.1 	"/>
</g>
<g>
	<g>
		<path class="st4" d="M-42.4,8.2c7.8,3.3,13.1-7,20.9-3.7c0.9,5.1,1.8,10.2,2.7,15.2c-7.8-3.3-13.1,7-20.9,3.7"/>
		<line class="st4" x1="-42.8" y1="5.8" x2="-37.6" y2="37.9"/>
	</g>
	<rect x="-28.5" y="34.6" class="st12" width="0" height="0"/>
	<rect x="-20.9" y="32.1" class="st11" width="0" height="0"/>
</g>
<g>
	<circle class="st12" cx="21" cy="21" r="12.7"/>
	<line class="st12" x1="21" y1="3" x2="21" y2="13.6"/>
	<line class="st12" x1="39" y1="21" x2="28.4" y2="21"/>
	<line class="st12" x1="21" y1="39" x2="21" y2="28.4"/>
	<line class="st12" x1="3" y1="21" x2="13.6" y2="21"/>
</g>
</svg>
