<?xml version="1.0" encoding="utf-8"?>
<!-- Generator: Adobe Illustrator 16.0.0, SVG Export Plug-In . SVG Version: 6.00 Build 0)  -->
<!DOCTYPE svg PUBLIC "-//W3C//DTD SVG 1.1//EN" "http://www.w3.org/Graphics/SVG/1.1/DTD/svg11.dtd">
<svg version="1.1" id="Ebene_1" xmlns="http://www.w3.org/2000/svg" xmlns:xlink="http://www.w3.org/1999/xlink" x="0px" y="0px"
	 width="42px" height="42px" viewBox="0 0 42 42" style="enable-background:new 0 0 42 42;" xml:space="preserve">
<style type="text/css">
<![CDATA[
	.st0{fill:none;stroke:#F3B100;stroke-width:10;stroke-linecap:round;stroke-miterlimit:10;}
	.st1{display:inline;fill:none;stroke:#FFFFFF;stroke-width:6;stroke-linecap:round;stroke-miterlimit:10;}
	.st2{display:inline;fill:none;stroke:#036D99;stroke-width:8;stroke-linecap:round;stroke-miterlimit:10;}
	.st3{fill:none;stroke:#FFFFFF;stroke-width:4;stroke-linecap:round;stroke-linejoin:round;stroke-miterlimit:10;}
	.st4{fill:none;stroke:#FFFFFF;stroke-width:5;stroke-linecap:round;stroke-linejoin:round;stroke-miterlimit:10;}
	.st5{fill:#FFFFFF;stroke:#FFFFFF;stroke-width:4;stroke-linecap:round;stroke-linejoin:round;stroke-miterlimit:10;}
	.st6{fill:#FFFFFF;stroke:#FFFFFF;stroke-width:6;stroke-linecap:round;stroke-linejoin:round;stroke-miterlimit:10;}
	.st7{display:inline;fill:none;stroke:#FFFFFF;stroke-width:4;stroke-linecap:round;stroke-linejoin:round;stroke-miterlimit:10;}
	.st8{display:inline;fill:none;stroke:#FFFFFF;stroke-width:6;stroke-linecap:round;stroke-linejoin:round;stroke-miterlimit:10;}
	.st9{display:none;fill:none;stroke:#FFFFFF;stroke-width:2;stroke-linecap:round;stroke-miterlimit:10;}
	
		.st10{display:inline;fill:#FFFFFF;stroke:#FFFFFF;stroke-width:4;stroke-linecap:round;stroke-linejoin:round;stroke-miterlimit:10;}
	.st11{fill:none;stroke:#FFFFFF;stroke-width:5;stroke-linecap:round;stroke-miterlimit:10;}
	.st12{fill:none;stroke:#FFFFFF;stroke-width:6;stroke-linecap:round;stroke-miterlimit:10;}
	.st13{fill:none;stroke:#036D99;stroke-width:8;stroke-linecap:round;stroke-miterlimit:10;}
	.st14{fill:none;stroke:#B2B2B2;stroke-width:4;stroke-linecap:round;stroke-miterlimit:10;stroke-dasharray:0,10;}
	.st15{opacity:0.5;}
	.st16{fill:#FFFFFF;}
	.st17{display:inline;}
	.st18{fill:none;stroke:#F35800;stroke-width:10;stroke-linecap:round;stroke-miterlimit:10;}
	.st19{fill:none;stroke:#FFFFFF;stroke-width:1.84;stroke-linecap:round;stroke-miterlimit:10;}
	.st20{display:none;}
	.st21{fill:none;stroke:#444444;stroke-width:4;stroke-linecap:round;stroke-linejoin:round;stroke-miterlimit:10;}
	.st22{fill:none;stroke:#444444;stroke-width:6;stroke-linecap:round;stroke-linejoin:round;stroke-miterlimit:10;}
	.st23{fill:#444444;stroke:#444444;stroke-width:4;stroke-linecap:round;stroke-linejoin:round;stroke-miterlimit:10;}
	.st24{fill:#FFFFFF;stroke:#444444;stroke-width:6;stroke-linecap:round;stroke-linejoin:round;stroke-miterlimit:10;}
]]>
</style>
<g id="XMLID_9_">
	<g>
		<g class="st20">
			<path class="st19" d="M-198.4,21.8c0,10.6-8.6,19.2-19.2,19.2c-10.6,0-19.2-8.6-19.2-19.2c0-10.6,8.6-19.2,19.2-19.2
				C-207,2.6-198.4,11.2-198.4,21.8z"/>
			<rect x="-217.6" y="33.6" class="st1" width="0" height="0"/>
			<path class="st8" d="M-224.4,15c0-3.8,3-6.8,6.8-6.8c3.8,0,6.8,3,6.8,6.8c0,3.8-3.3,7.3-6.8,8.9v1.5"/>
		</g>
		<g class="st20">
			<line class="st7" x1="-217.6" y1="24.6" x2="-217.6" y2="20.5"/>
			<line class="st7" x1="-217.6" y1="20.5" x2="-220.8" y2="17.3"/>
			<line class="st7" x1="-217.6" y1="20.5" x2="-214.4" y2="17.3"/>
		</g>
		<g class="st20">
			<g class="st17">
				<line class="st3" x1="-217.6" y1="9.4" x2="-217.6" y2="7.3"/>
				<line class="st3" x1="-226.1" y1="29.9" x2="-227.5" y2="31.3"/>
				<line class="st3" x1="-226.1" y1="12.8" x2="-227.5" y2="11.4"/>
				<line class="st3" x1="-229.6" y1="21.5" x2="-231.7" y2="21.5"/>
			</g>
			<line class="st7" x1="-209.1" y1="29.9" x2="-207.7" y2="31.3"/>
			<line class="st7" x1="-209.1" y1="12.8" x2="-207.7" y2="11.4"/>
			<line class="st7" x1="-205.6" y1="21.5" x2="-203.5" y2="21.5"/>
		</g>
		<g class="st20">
			<path class="st10" d="M-212.9,20.9c0-2.6-2.1-4.7-4.7-4.7c-2.6,0-4.7,2.1-4.7,4.7c0,5.1,3.5,5.7,3.5,7.3v2c0,0.7-0.1,1.3,0.4,1.6
				c0.1,0.4,1.7,0.4,1.7,0c0.4-0.4,0.4-0.9,0.4-1.6v-2C-216.4,26.7-212.9,25.9-212.9,20.9z"/>
			<rect x="-217.6" y="33.1" class="st10" width="0" height="0"/>
		</g>
		<g class="st15">
			<g>
				<line class="st21" x1="-217.6" y1="9.4" x2="-217.6" y2="7.3"/>
			</g>
			<g>
				<line class="st21" x1="-227.5" y1="15.1" x2="-229.3" y2="14"/>
			</g>
			<g>
				<line class="st21" x1="-227.5" y1="26.5" x2="-229.3" y2="27.5"/>
			</g>
			<g>
				<line class="st21" x1="-207.7" y1="15.1" x2="-205.9" y2="14"/>
			</g>
			<g>
				<line class="st21" x1="-207.7" y1="26.5" x2="-205.9" y2="27.5"/>
			</g>
			<path class="st23" d="M-212.8,20.9c0,3.3-2.9,7.6-4.7,7.6s-4.7-4-4.7-7.6c0-2.6,2.1-4.7,4.7-4.7
				C-214.9,16.2-212.8,18.3-212.8,20.9z"/>
			<line class="st24" x1="-217.6" y1="24.1" x2="-217.6" y2="32.5"/>
		</g>
	</g>
</g>
<g id="XMLID_5_">
	<g>
		<g id="detail-info_10_">
			<g class="st20">
				<path class="st19" d="M-252.4,21.8c0,10.6-8.6,19.2-19.2,19.2c-10.6,0-19.2-8.6-19.2-19.2c0-10.6,8.6-19.2,19.2-19.2
					C-261,2.6-252.4,11.2-252.4,21.8z"/>
				<rect x="-271.6" y="33.6" class="st1" width="0" height="0"/>
				<path class="st8" d="M-278.4,15c0-3.8,3-6.8,6.8-6.8c3.8,0,6.8,3,6.8,6.8c0,3.8-3.3,7.3-6.8,8.9v1.5"/>
			</g>
			<g class="st20">
				<line class="st7" x1="-271.6" y1="24.6" x2="-271.6" y2="20.5"/>
				<line class="st7" x1="-271.6" y1="20.5" x2="-274.8" y2="17.3"/>
				<line class="st7" x1="-271.6" y1="20.5" x2="-268.4" y2="17.3"/>
			</g>
			<g class="st20">
				<g class="st17">
					<line class="st3" x1="-271.6" y1="9.4" x2="-271.6" y2="7.3"/>
					<line class="st3" x1="-280.1" y1="29.9" x2="-281.5" y2="31.3"/>
					<line class="st3" x1="-280.1" y1="12.8" x2="-281.5" y2="11.4"/>
					<line class="st3" x1="-283.6" y1="21.5" x2="-285.7" y2="21.5"/>
				</g>
				<line class="st7" x1="-263.1" y1="29.9" x2="-261.7" y2="31.3"/>
				<line class="st7" x1="-263.1" y1="12.8" x2="-261.7" y2="11.4"/>
				<line class="st7" x1="-259.6" y1="21.5" x2="-257.5" y2="21.5"/>
			</g>
			<g class="st20">
				<path class="st10" d="M-266.9,20.9c0-2.6-2.1-4.7-4.7-4.7c-2.6,0-4.7,2.1-4.7,4.7c0,5.1,3.5,5.7,3.5,7.3v2
					c0,0.7-0.1,1.3,0.4,1.6c0.1,0.4,1.7,0.4,1.7,0c0.4-0.4,0.4-0.9,0.4-1.6v-2C-270.4,26.7-266.9,25.9-266.9,20.9z"/>
				<rect x="-271.6" y="33.1" class="st10" width="0" height="0"/>
			</g>
			<g class="st15">
				<g>
					<line class="st3" x1="-271.6" y1="9.4" x2="-271.6" y2="7.3"/>
				</g>
				<g>
					<line class="st3" x1="-281.5" y1="15.1" x2="-283.3" y2="14"/>
				</g>
				<g>
					<line class="st3" x1="-281.5" y1="26.5" x2="-283.3" y2="27.5"/>
				</g>
				<g>
					<line class="st3" x1="-261.7" y1="15.1" x2="-259.9" y2="14"/>
				</g>
				<g>
					<line class="st3" x1="-261.7" y1="26.5" x2="-259.9" y2="27.5"/>
				</g>
				<path class="st5" d="M-266.8,20.9c0,3.3-2.9,7.6-4.7,7.6s-4.7-4-4.7-7.6c0-2.6,2.1-4.7,4.7-4.7
					C-268.9,16.2-266.8,18.3-266.8,20.9z"/>
				<line class="st6" x1="-271.6" y1="24.1" x2="-271.6" y2="32.5"/>
			</g>
		</g>
	</g>
</g>
<g id="XMLID_4_">
	<g>
		<g id="detail-info_9_">
			<g class="st20">
				<path class="st19" d="M-305.4,21.8c0,10.6-8.6,19.2-19.2,19.2c-10.6,0-19.2-8.6-19.2-19.2c0-10.6,8.6-19.2,19.2-19.2
					C-314,2.6-305.4,11.2-305.4,21.8z"/>
				<rect x="-324.6" y="33.6" class="st1" width="0" height="0"/>
				<path class="st8" d="M-331.4,15c0-3.8,3-6.8,6.8-6.8c3.8,0,6.8,3,6.8,6.8c0,3.8-3.3,7.3-6.8,8.9v1.5"/>
			</g>
			<g class="st20">
				<line class="st7" x1="-324.6" y1="24.6" x2="-324.6" y2="20.5"/>
				<line class="st7" x1="-324.6" y1="20.5" x2="-327.8" y2="17.3"/>
				<line class="st7" x1="-324.6" y1="20.5" x2="-321.4" y2="17.3"/>
			</g>
			<g class="st20">
				<g class="st17">
					<line class="st3" x1="-324.6" y1="9.4" x2="-324.6" y2="7.3"/>
					<line class="st3" x1="-333.1" y1="29.9" x2="-334.5" y2="31.3"/>
					<line class="st3" x1="-333.1" y1="12.8" x2="-334.5" y2="11.4"/>
					<line class="st3" x1="-336.6" y1="21.5" x2="-338.7" y2="21.5"/>
				</g>
				<line class="st7" x1="-316.1" y1="29.9" x2="-314.7" y2="31.3"/>
				<line class="st7" x1="-316.1" y1="12.8" x2="-314.7" y2="11.4"/>
				<line class="st7" x1="-312.6" y1="21.5" x2="-310.5" y2="21.5"/>
			</g>
			<g class="st20">
				<path class="st10" d="M-319.9,20.9c0-2.6-2.1-4.7-4.7-4.7c-2.6,0-4.7,2.1-4.7,4.7c0,5.1,3.5,5.7,3.5,7.3v2
					c0,0.7-0.1,1.3,0.4,1.6c0.1,0.4,1.7,0.4,1.7,0c0.4-0.4,0.4-0.9,0.4-1.6v-2C-323.4,26.7-319.9,25.9-319.9,20.9z"/>
				<rect x="-324.6" y="33.1" class="st10" width="0" height="0"/>
			</g>
			<g>
				<g>
					<line class="st3" x1="-324.6" y1="9.4" x2="-324.6" y2="7.3"/>
				</g>
				<g>
					<line class="st3" x1="-334.5" y1="15.1" x2="-336.3" y2="14"/>
				</g>
				<g>
					<line class="st3" x1="-334.5" y1="26.5" x2="-336.3" y2="27.5"/>
				</g>
				<g>
					<line class="st3" x1="-314.7" y1="15.1" x2="-312.9" y2="14"/>
				</g>
				<g>
					<line class="st3" x1="-314.7" y1="26.5" x2="-312.9" y2="27.5"/>
				</g>
				<path class="st5" d="M-319.8,20.9c0,3.3-2.9,7.6-4.7,7.6s-4.7-4-4.7-7.6c0-2.6,2.1-4.7,4.7-4.7
					C-321.9,16.2-319.8,18.3-319.8,20.9z"/>
				<line class="st6" x1="-324.6" y1="24.1" x2="-324.6" y2="32.5"/>
			</g>
		</g>
	</g>
</g>
<g>
	<g>
		<line class="st11" x1="-471.5" y1="88.8" x2="-471.5" y2="118.7"/>
		<line class="st11" x1="-486.4" y1="103.8" x2="-456.5" y2="103.8"/>
	</g>
</g>
<g>
	<g>
		<line class="st11" x1="-400.3" y1="103.8" x2="-356.6" y2="103.8"/>
	</g>
</g>
<g id="XMLID_32_">
	<g>
		<line class="st11" x1="-195.5" y1="86.1" x2="-195.5" y2="107.5"/>
		<line class="st11" x1="-205.1" y1="120.2" x2="-185.8" y2="120.2"/>
		<polyline class="st11" points="-186.6,100.2 -195.5,107.5 -204.3,100.2 		"/>
	</g>
</g>
<g id="XMLID_7_">
	<polygon class="st4" points="-296.7,86.6 -265.8,103.7 -296.7,120.7 	"/>
</g>
<g>
	<circle class="st14" cx="-574" cy="-170" r="135"/>
	<g>
		<g>
			<line class="st18" x1="-536.6" y1="-208.6" x2="-613.7" y2="-131.4"/>
			<line class="st18" x1="-613.7" y1="-208.6" x2="-536.6" y2="-131.4"/>
		</g>
	</g>
</g>
<g>
	<circle class="st14" cx="-271" cy="-170" r="135"/>
	<g>
		<g>
			<line class="st13" x1="-269.6" y1="-141.8" x2="-269.6" y2="-164.8"/>
			<line class="st13" x1="-269.5" y1="-164.8" x2="-282.6" y2="-178"/>
			<line class="st13" x1="-269.6" y1="-164.8" x2="-256.4" y2="-178"/>
		</g>
		<g class="st20">
			<g class="st17">
				<line class="st13" x1="-269.6" y1="-250.1" x2="-269.6" y2="-261"/>
				<line class="st13" x1="-314.8" y1="-141" x2="-322.5" y2="-133.3"/>
				<line class="st13" x1="-314.7" y1="-231.7" x2="-322.4" y2="-239.5"/>
				<line class="st13" x1="-333.6" y1="-185.6" x2="-344.6" y2="-185.6"/>
			</g>
			<line class="st2" x1="-224.4" y1="-141" x2="-216.6" y2="-133.3"/>
			<line class="st2" x1="-224.5" y1="-231.7" x2="-216.7" y2="-239.5"/>
			<line class="st2" x1="-205.5" y1="-185.6" x2="-194.6" y2="-185.6"/>
		</g>
		<line class="st13" x1="-283.3" y1="-141.8" x2="-255.9" y2="-141.8"/>
		<line class="st13" x1="-283.3" y1="-129.5" x2="-255.9" y2="-129.5"/>
		<line class="st13" x1="-283.1" y1="-116.9" x2="-256" y2="-116.9"/>
		<path class="st13" d="M-255.9-119c0,7.6-5.3,13.7-13.7,13.7c-8.4,0-13.7-6.2-13.7-13.7l0-19c0-11.5-23.8-19.4-23.8-48.9
			c0-20.5,16.8-37.6,37.5-37.6c20.7,0,37.5,17.8,37.5,37.6c0,29.4-23.8,38-23.8,48.9V-119z"/>
		<path class="st13" d="M-259.8-207.6c5.1,2.5,9.2,6.6,11.8,11.6"/>
	</g>
</g>
<g>
	<g>
		<path class="st14" d="M178-170.2c0,14.6-14,26.7-18.3,39.9c-4.4,13.6-0.4,31.7-8.6,43c-8.3,11.5-26.8,13.2-38.3,21.5
			C101.5-57.5,94.2-40.5,80.6-36c-13.1,4.3-29-5.1-43.6-5.1c-14.6,0-30.4,9.4-43.6,5.1c-13.6-4.4-20.9-21.5-32.2-29.8
			c-11.4-8.3-29.9-10-38.3-21.5c-8.2-11.3-4.2-29.4-8.6-43c-4.3-13.1-18.3-25.3-18.3-39.9s14-26.7,18.3-39.9
			c4.4-13.6,0.4-31.7,8.6-43c8.3-11.5,26.8-13.2,38.3-21.5c11.3-8.2,18.6-25.3,32.2-29.8c13.1-4.3,29,5.1,43.6,5.1
			c14.6,0,30.4-9.4,43.6-5.1c13.6,4.4,20.9,21.5,32.2,29.8c11.5,8.3,29.9,10,38.3,21.5c8.2,11.3,4.2,29.4,8.6,43
			C164-196.9,178-184.7,178-170.2z"/>
	</g>
	<g>
		<line class="st0" x1="87.9" y1="-198.7" x2="21.2" y2="-132"/>
		<line class="st0" x1="-12.1" y1="-165.4" x2="21.2" y2="-132"/>
	</g>
</g>
<g>
	<line class="st12" x1="-175.2" y1="33.2" x2="-152.8" y2="10.8"/>
	<line class="st12" x1="-152.8" y1="33.2" x2="-175.2" y2="10.8"/>
</g>
<g>
	<line class="st11" x1="-368.4" y1="21.4" x2="-389.3" y2="21.4"/>
</g>
<g>
	<line class="st11" x1="-488.2" y1="9.5" x2="-488.2" y2="22.8"/>
	<line class="st11" x1="-494.2" y1="30.7" x2="-482.2" y2="30.7"/>
	<polyline class="st11" points="-482.7,18.3 -488.2,22.8 -493.7,18.3 	"/>
</g>
<g>
	<line class="st11" x1="-40.1" y1="31" x2="-40.1" y2="11.6"/>
	<g id="XMLID_1_">
		<polygon class="st4" points="-60.1,13.4 -45.9,21.3 -60.1,29.1 		"/>
	</g>
</g>
<g>
	<g>
		<path class="st9" d="M-413.8,20.8c0,11-9,20-20,20c-11,0-20-9-20-20s9-20,20-20C-422.7,0.8-413.8,9.7-413.8,20.8z"/>
		<line class="st11" x1="-438.8" y1="31.2" x2="-428.8" y2="31.2"/>
		<polyline class="st11" points="-438.3,19.9 -433.8,19.9 -433.8,31.2 		"/>
	</g>
	<circle class="st16" cx="-433.8" cy="11.2" r="2.9"/>
</g>
<polyline class="st22" points="-95,17.3 -107,29.3 -119,17.3 "/>
<g>
	<path class="st11" d="M7.4,26.5c2.2,5.2,7.3,8.9,13.3,8.9c6.6,0,12.1-4.4,13.9-10.4"/>
	<polyline class="st11" points="28.2,25.7 35.2,22.7 38.1,29.6 	"/>
	<path class="st11" d="M33.7,14.5c-2.4-4.7-7.3-8-12.9-8C14.2,6.6,8.6,11,6.9,17"/>
	<polyline class="st11" points="13.3,16.1 6.4,19 3.4,12.1 	"/>
</g>
</svg>
