<svg id="Ebene_1" data-name="Ebene 1" xmlns="http://www.w3.org/2000/svg" viewBox="0 0 70 96"><defs><style>.cls-1{fill:#f35800;}.cls-2{fill:none;stroke:#fff;stroke-linecap:round;stroke-miterlimit:10;stroke-width:5px;}</style></defs><title>icon</title><path class="cls-1" d="M35.29,4c-15.43,0-31,10.92-31,31.79,0,9.43,4.66,21.42,13.86,35.64A213.55,213.55,0,0,0,31.57,90a5.27,5.27,0,0,0,3.71,2h0A5.29,5.29,0,0,0,39,90,186.9,186.9,0,0,0,52.36,71.74C61.47,57.6,66.09,45.46,66.09,35.83,66.09,17.11,53.42,4,35.29,4Z"/><line class="cls-2" x1="46.14" y1="24.45" x2="24.54" y2="46.06"/><line class="cls-2" x1="24.53" y1="24.45" x2="46.15" y2="46.06"/></svg>