<svg id="Ebene_1" data-name="Ebene 1" xmlns="http://www.w3.org/2000/svg" viewBox="0 0 70 96"><defs><style>.cls-1{fill:#034562;}.cls-2{fill:none;stroke:#fff;stroke-linecap:round;stroke-linejoin:round;stroke-width:5px;}</style></defs><title>icon</title><path class="cls-1" d="M35.07,3.55C19.6,3.55,4,14.56,4,35.6c0,9.49,4.67,21.58,13.89,35.91a202.68,202.68,0,0,0,13.5,18.57A5.15,5.15,0,0,0,35.06,92h0a5.12,5.12,0,0,0,3.71-1.91A181.42,181.42,0,0,0,52.19,71.8C61.32,57.55,66,45.35,66,35.65,66,16.78,53.25,3.55,35.07,3.55Z"/><path class="cls-2" d="M46.86,33.54A11.45,11.45,0,1,1,35.41,22.09,11.45,11.45,0,0,1,46.86,33.54Z"/><line class="cls-2" x1="35.42" y1="44.99" x2="35.41" y2="67.68"/><line class="cls-2" x1="35.41" y1="53.79" x2="27.26" y2="53.79"/><line class="cls-2" x1="35.41" y1="62.95" x2="29.55" y2="62.95"/></svg>