<?xml version="1.0" encoding="utf-8"?>
<!-- Generator: Adobe Illustrator 23.0.3, SVG Export Plug-In . SVG Version: 6.00 Build 0)  -->
<svg version="1.1" id="Ebene_1" xmlns="http://www.w3.org/2000/svg" xmlns:xlink="http://www.w3.org/1999/xlink" x="0px" y="0px"
	 viewBox="0 0 163.3 53.4" style="enable-background:new 0 0 163.3 53.4;" xml:space="preserve" preserveAspectRatio="none">
<style type="text/css">
	.st0{fill:#FFE5B0;}
</style>
<path class="st0" d="M160.9,51.1c-0.1,1-2.4,0.2-2.9-0.1c-1.4,0.7-2.4,0.4-3.8-0.1c-1.7,0.4-3.5,0.4-5.2,0.1c-2-0.2-4.1,0-6.2-0.4
	c-2.2-0.4-4.5-0.3-6.8,0.4c-1.4-0.1-2.7-0.3-4.1-0.4c-1.5,0.9-2.7,0.3-4.2-0.3c-1.4-0.7-2.9-0.8-4.3-0.2c-1.3,0.6-2.7,0.8-4,0.8
	c-1.4,0-3-0.2-4.5-0.1c-1.5,0.1-3,0.2-4.5,0.3c-1.5,0.1-3.1,0.1-4.7,0.1c-1.7,0.1-3.3,0-5-0.3c-1.7-0.3-3.4-0.4-5.1-0.6
	c-1.6-0.2-3.2,0-4.7,0.7c-1.7,0-3.3,0-5,0c-1.7,0.1-3.3,0-5-0.1c-1.6,0.5-3.2,0.7-4.8,0.7c-1.8,0.1-3.5-0.1-5.2-0.5
	c-1.6,0.5-3.2,0.7-4.8,0.6c-1.7-0.1-3.5-0.3-5.2-0.3c-1.7,0-3.4,0.1-5.1,0s-3.2,0.3-4.9,0.1c-1.7-0.3-3.4-0.3-5.1-0.1
	c-1.5,0.2-2.9,0.6-4.3,1c-1.5,0.4-3,0.3-4.5,0.6c-1.5,0.3-2.9,0.3-4.4,0c-1.4,0.3-2.8,0.4-4.2,0.3c-1.4,0-2.7-0.1-4.1-0.3
	c-2.3-0.2-4.7-0.5-7-0.8c-2.1-0.2-4.1-0.8-6-1.8c-1.6-0.4-3.2-1.8-4.6-2.4S4.4,47.6,3,46.8c-0.8-0.5-2-1.7-3-1.3
	c0.6-2.3,2.7-4.8,3.4-6.9c0.7-2.1,1-4.2,1.1-6.5c0-2.3-0.2-4.7-0.5-7c-0.3-2.6-2-5.4-2.6-8.2c-0.5-2.4-0.7-5-0.5-7.5
	c0.1-0.9-0.1-5.6-0.1-5.7C1.9,2.2,3,3.5,4,2.2C5.2,2,6.5,2.1,7.7,2.3c1.7,0.3,3.3,0.8,5,0.1c2.1,0.3,4.1,0.2,6.2-0.2
	c2.3-0.5,4.7-0.3,7,0.5c1.4-0.3,2.8-0.1,4.1,0.5c1.4-0.1,2.7,0,4.1,0.2c1.4,0.1,2.7,0,4.1-0.1c1.4-0.1,2.8-0.1,4.2-0.4
	c3,0.3,6.1,0.4,9.2,0.2c3.1-0.2,6.2,0,9.4-0.2s6.4-0.2,9.6-0.3c3.3,0.3,6.7,0.3,10.1,0.3c3.3-0.4,6.7-0.5,10-0.3
	c3.3,0.1,6.7-0.2,10-0.1c3.2,0.2,6.4-0.1,9.6-0.8c3.2-0.8,6.4-0.4,9.5-0.1c3,0.2,6,0,9-0.6c1.5-0.3,2.7-0.7,4.2-0.9
	c1.5-0.1,2.9,0,4.4,0.3c2.5,0,5.1,0,7.5-0.1c2.2,0,4.3,0.4,6.4,1.2c2,0.7,3.3,1.7,5.4,1.6c1,0.6,2.1,1,3.2,1.3
	c1.2,0.1,2.4,0.5,3.5,1.2c-0.9,2.6-1.6,5.3-2.1,8c-0.8,4.1-2.7,9.4-2.3,13.9c0.4,5.4,2.1,10.7,2.1,16.2
	C161,46,161.1,48.7,160.9,51.1z"/>
</svg>
