<?xml version="1.0" encoding="utf-8"?>
<!-- Generator: Adobe Illustrator 23.0.3, SVG Export Plug-In . SVG Version: 6.00 Build 0)  -->
<svg version="1.1" id="Ebene_1" xmlns="http://www.w3.org/2000/svg" xmlns:xlink="http://www.w3.org/1999/xlink" x="0px" y="0px"
	 width="18px" height="18.6px" viewBox="0 0 18 18.6" style="enable-background:new 0 0 18 18.6;" xml:space="preserve">
<style type="text/css">
	.st0{fill:#B4391D;}
</style>
<symbol  id="task-pirate" viewBox="-45.8 -47.3 91.7 94.5">
	<path class="st0" d="M16.3-31.8c0.3,0.4,1,0.5,0.6,1.1c-1.2,1.7-3.5,1.5-4.7,3.1l0.4,0.7c-1.4,0.8-2.9,1.5-4.4,2.3
		c-2.2,2.1-4.3,4.2-6.4,6.3c0.3,0.2,0.5,0.4,0.3,0.6c-1.1,1.1-2.4,2.1-3.7,3l-0.5,0.6c0,0.2,0.1,0.5,0.2,0.7
		c-0.6,0.5-1.2,0.9-1.8,1.3C-9.1-5.2-14.5,2-20.6,9.7c-1,1.9-2.1,3.6-3.4,5.3c-2,2.1-5.1,4.2-7.3,6c2.2,1.8-2.1,7.4,0.8,8.7
		c-1.5,1.2-3.7,3-3.2,3.7c1.2,2.1,2,5.1-0.9,9.5c-1.2,1.5-4.2,2.7-4.4,3.6c-0.3,1.3,3-0.4,2.7,0.9c11.6-8.9,21.4-18.9,32.5-28.5
		c2.9-4.2,28-26.8,34.9-32l0.6-0.5c3.7-3,7.8-6.9,10.1-10.3c0.9-1.7,1.8-3.5,2.7-5.3c-1,0.2-1.9,0.4-2.7,0.5
		c1.5-1.2,2.9-2.4,3.1-3.2c2.2-3.5-0.4-3.1-2.8-3.5c-1.4,0.1-1.1-1.9-3-1.4l2.4-2c-0.4-0.7-2.7,2.8-2.8,1.3c1.1-0.6,1.8-1.8,2.8-2.6
		c-1-0.5-3.6,2.6-4.1,1.6c0.3-0.6,3.6-1.2,2.9-2.4c-0.1-0.2-1.1,0.6-1.6,1c2.7-2.9,3.4-5.2-0.2-4c0.9-0.8,2.6-1.5,3.5-2.5l0,0
		c-0.5,0.4-1.5,0.9-2,1.3l1.7-1.5l-0.6-0.2c-0.5,0.2-1,0.5-1.5,0.8l1.1-0.9c-0.6-0.1-1.2-0.1-1.8-0.1c-1.9,0.5-4,0.7-4.7,1.2
		C28.2-41.5,22.2-36.8,16.3-31.8z"/>
	<path class="st0" d="M24.9,7.7c-0.4,0.3-0.5,0.9-1,0.7c-1.5-1-1.1-3.1-2.6-4l-0.7,0.4c-0.6-1.2-1.2-2.5-1.8-3.8
		c-1.8-1.8-3.6-3.6-5.5-5.4c-0.2,0.2-0.3,0.5-0.6,0.3c-1-1-1.9-2-2.6-3.2L9.5-7.7C9.3-7.7,9-7.6,8.9-7.4c-0.4-0.5-0.8-1-1.1-1.5
		c-6.1-4.5-12.6-9-19.4-13.9c-1.7-0.7-3.3-1.6-4.8-2.6c-1.9-1.6-3.6-4.4-5.1-6.2c-1.9,2.1-6.8-1.3-8.1,1.4c-1-1.2-2.6-3.1-3.2-2.7
		c-2,1.3-4.9,2.2-8.8,0c-1.4-1-2.3-3.6-3.1-3.7c-1.2-0.2,0.2,2.7-1,2.6c7.6,9.9,16.4,18.1,24.7,27.5c3.8,2.4,23.3,23.5,27.8,29.4
		c0.2,0.2,0.3,0.3,0.5,0.5c2.6,3.1,6,6.6,9,8.5c1.5,0.7,3.2,1.4,4.8,2c-0.1-0.9-0.2-1.7-0.3-2.4c1,1.2,2,2.5,2.8,2.6
		c3.2,1.8,2.9-0.6,3.5-2.9c0-1.3,1.8-1.2,1.5-2.8c0.7,0.8,1,1.2,1.7,2.1c0.7-0.4-2.5-2.2-1-2.5c0.5,1,1.6,1.5,2.3,2.3
		c0.6-1-2.2-3-1.3-3.6c0.6,0.3,0.9,3.2,2.1,2.5c0.2-0.2-0.5-1-0.8-1.4c2.5,2.2,4.7,2.7,3.7-0.5c0.7,0.8,1.2,2.3,2.1,3l0,0
		c-0.3-0.4-0.8-1.3-1.1-1.7l1.2,1.4c0.1-0.2,0.1-0.4,0.2-0.6c-0.2-0.5-0.4-0.9-0.7-1.3l0.8,1c0.1-0.5,0.2-1.1,0.2-1.6
		c-0.3-1.7-0.4-3.6-0.9-4.2C33.2,17.8,29.2,12.6,24.9,7.7z"/>
</symbol>
<title>indicator-label-deco</title>
<g>
	<g id="final-design">
		
			<use xlink:href="#task-pirate"  width="91.7" height="94.5" x="-45.8" y="-47.3" transform="matrix(0.1963 0 0 0.1963 9 9.2773)" style="overflow:visible;"/>
	</g>
</g>
</svg>
