<svg xmlns="http://www.w3.org/2000/svg" width="342.18" height="305.08" viewBox="0 0 342.18 305.08"><defs><style>.cls-1,.cls-10,.cls-11,.cls-12{fill:#333;}.cls-2{fill:#907562;}.cls-3{fill:#3f3f3f;}.cls-4,.cls-5,.cls-6,.cls-7,.cls-8,.cls-9{fill:#fff;}.cls-4,.cls-5,.cls-6,.cls-7,.cls-8{stroke:#fff;stroke-linecap:round;stroke-miterlimit:10;}.cls-4{stroke-width:1.95px;}.cls-5{stroke-width:1.93px;}.cls-6{stroke-width:2.21px;}.cls-7{stroke-width:1.93px;}.cls-8{stroke-width:1.92px;}.cls-10,.cls-11,.cls-12{stroke:#333;}.cls-10{stroke-linejoin:round;stroke-width:4.37px;}.cls-11,.cls-12{stroke-linejoin:bevel;}.cls-11{stroke-width:1.11px;}.cls-12{stroke-width:1.06px;}.cls-13{fill:#f9c71a;}.cls-14{fill:#da9f27;}</style></defs><title>modal-session-finished</title><g id="Ebene_2" data-name="Ebene 2"><g id="final-design"><ellipse class="cls-1" cx="62.58" cy="79.59" rx="29.17" ry="17.21" transform="translate(-38.62 82.42) rotate(-53.42)"/><path class="cls-2" d="M45.39,75.37s0,0,0,0Z"/><path class="cls-2" d="M22,67.1l0,0-.36.19Z"/><path class="cls-2" d="M20.62,62.91l0,0C20.56,62.91,20.47,63,20.62,62.91Z"/><path class="cls-2" d="M31.33,72.84s.06,0,.1,0A.26.26,0,0,1,31.33,72.84Z"/><path class="cls-2" d="M49.68,75.69h0l0,.1Z"/><path class="cls-2" d="M49.52,75.92a.3.3,0,0,1,.14-.22c.06-.22,0-.25-.08-.18C49.47,75.74,49.58,75.74,49.52,75.92Z"/><path class="cls-2" d="M55.48,81.12l-.1,0Z"/><path class="cls-2" d="M35.8,61.7l.05,0S35.82,61.67,35.8,61.7Z"/><path class="cls-2" d="M55,79.73l-.34.19Z"/><path class="cls-2" d="M21.61,67.26l-.14.06Z"/><path class="cls-2" d="M19.37,59.11a2,2,0,0,0,.27-.1v0Z"/><path class="cls-2" d="M26.14,42.55l-.14,0,.23.16A.22.22,0,0,0,26.14,42.55Z"/><path class="cls-2" d="M20,53.67a.66.66,0,0,0-.14,0c-.12.09-.12.32-.07.61l.47,0Z"/><path class="cls-2" d="M31.09,49.61l-1,.21a1.63,1.63,0,0,1,.17-1.28,1.29,1.29,0,0,0,0-1.23l.19.1c.12,0-.33-.21-.46-.48s.12-.67,1.59-1l.09,0c0-.06-.18-.12.1-.13l-.64,0c-.18-.22-.57-.5-.56-.72a1.7,1.7,0,0,1,.45.09l0-.53.63.09c-.26-.27-1.49-.71-.66-.8-.89-.22-.42-.41-.86-.55l.44.08c0-.25,0-.82-.43-1,.08-.18-2.12,0-3.13-.07.39-.3-.06-.15-.38-.19l.2.11c-.31.16-.84-.06-1,0l.15,0-.07,0a.6.6,0,0,1,.21.09c.12,0,.2.09.14.15l-.05,0c0,.13-.11.28-.18.34l-.45-.16c.78.48-1.76.82-1.88,1.12-.66.1,0,.66-.43.92-.3.52-.75.1-1.22.29s.56.06.56.21l-.75.29c0-.27-.31-.2-.5-.19-.18.35-1.16.82-.24,1.12-.54.45-.92.39-1,.62.19,0,.37-.18.56-.15-.45.15.08.12.19,0,.33.35-1.95,1.51-.92,1.71l-.19,0a7.24,7.24,0,0,1,1.93.37l-.36.12.31.25a.8.8,0,0,1-.56,0c.34.4-.11.89-.23,1.35.71-.15,1.43-.28,2.14-.4-.51.32-1.53,1-.83,1.07l-.7.23c-1.34.81.61.51.21.82l-.76.44v-.39a7.82,7.82,0,0,1-1.09.95h0a.14.14,0,0,1,.11-.05l0,.05c.39,0,.68.2.68.48s.54.63-.17,1.4h.81l-.36.56-.62.12c-.09-.47-.46-1.33-.55-2l-.29,0c.05.37.37.75.34,1a1.35,1.35,0,0,1-1.17.41l.66.13a3.86,3.86,0,0,1,0,2.73l.27-.2c.26.2.51.4,0,.63a3.77,3.77,0,0,1-.44,2.57l.73-.18c0,.18-.89.88.1.54l.45.21c.05.24.49.19.22.63h0a.36.36,0,0,0-.05.09l.05,0c-.05.62.59-.3.49.41-.37.42.94-.26.92.07l-.79.77c-.27.77.67.31,1.11,1a2.31,2.31,0,0,1-1.6,1.41c1-.24.63-.21,1.28-.08a1.31,1.31,0,0,1-.75.41c-.15.63.45,0,.61.29a12.83,12.83,0,0,1,1.81-.94l.12-.23c.53,0,.88.16.82.69l-.31.23.4.19-.36.33c.16.12.32.24.5.35l0-.15c.14.07.58.28.57.64l-.2.19c-.1,1.15,1.18.79,1.89,1.27l-.44.35c-.11.63.6-.6.7-.16l-.4.55c.8-.51.22.4.22.81l.43-.78.24.4c.22.51-.39,1.1-.72,1.44l.67-.39-.37.7c.7-.63.13.27.77.08-.12.27-.3.36-.24.54.41-.19.8-.39,1.19-.6l-.62.22.62-1c.79-.55.44.4.86.26l-.34.21c.57,0,.37.41.53.77,0-.23,0-.57.27-.63s-.1.4,0,.58c.36-.68.83-.92,1-.46a1.14,1.14,0,0,1-.13.25c.12-.08.23-.24.29,0l-.39.76.55-.66c.08.28.54-.22.32.31l-.15.13c.4.21.82.45,1.22.62l-.18.66c.39-.86.62.54.88-.6.1.7,1-.21.61,1,.83.28,1.49-.88,2.33-.11.21,1.17,1.16.9,1.73,1.08,1.16-.37,1.87-.75,2.9-1,.51,1.59,1.5-.45,2,.47l.2-.6c.31,1,1-.14,1.37.88.15-.26.23-.34.26-.35a1.32,1.32,0,0,1,0-.55c.11.29.42,0,.29.77l0,.07c-.13.78.45-.3.49.4l.06-.85a2.13,2.13,0,0,1,.22.18l-.09.15c.67-.81,1-.54,1.31-.23s.48.63,1.21,0c-.45.81.34-.4,0,.55-.3,1.25.45-.1.78-.32a1.47,1.47,0,0,1,.09-.17,2.85,2.85,0,0,1,.23.26c-.76,1,.69-.82,0,0a1.45,1.45,0,0,0,.92,1c.41.25.9.46,1.09,1l.2-.26c.13.21.66.18.39.69s.92-.2,1-.16c.6-.17-.16.69-.17.58.26.1,1.35-.37,1.16.22-.41.36,0,.39.29.48s.65.16.14.48l.09,0c-.49.84,1,.51.58,1.38l-.16.06c1.25-.25,2.53-.46,3.83-.61q1.75-1,3.48-2.1c.8-.85,1.59-1.73,2.35-2.65-.37-.49-.82-1-1.24-1.45s-.85-.94-1.34-1.39a20.55,20.55,0,0,0-1-3.33,21.31,21.31,0,0,0-7.14-4.77l-.92.59a2.58,2.58,0,0,0-2.28-1.48,11.52,11.52,0,0,1-1.35-.23,2.38,2.38,0,0,1-1.16-.65l-.18.77c-.44,0-.32-.5-.41-.66a32.86,32.86,0,0,0-5.54,0,7.08,7.08,0,0,1-4-.67c-.06-.28-.26-.36-.45-.44a.53.53,0,0,1-.33-.48c-.81.83-1.4.62-1.84.36l0-.08-.26,0a1.67,1.67,0,0,1,.08-.2c-.54.55-.59-.3-.67-.66l.06-.06a24.34,24.34,0,0,1-2.29-1.6,4.32,4.32,0,0,1-1.48-3.22,1.35,1.35,0,0,0,.2-.93,4.4,4.4,0,0,0-.34-.78A3.84,3.84,0,0,1,31,53.6a1.36,1.36,0,0,1,.25-1c.36-.14.4-.8.3-1.47A3.87,3.87,0,0,0,31.09,49.61Z"/><path class="cls-2" d="M31,45.3h0C31.35,45.43,31.24,45.37,31,45.3Z"/><polygon class="cls-2" points="20.85 50.97 20.86 50.94 20.39 51.04 20.85 50.97"/><path class="cls-2" d="M21.33,45.22c-.16.23-.09.26.05.26A.22.22,0,0,0,21.33,45.22Z"/><path class="cls-2" d="M31,43.75c.06-.07-.13-.12-.36-.16v.17C30.71,43.74,30.89,43.77,31,43.75Z"/><path class="cls-2" d="M26.68,42.33l-.23-.14C26.48,42.28,26.58,42.31,26.68,42.33Z"/><circle class="cls-1" cx="200.56" cy="163.46" r="141.62"/><path class="cls-3" d="M112.71,78.21s6.46,10.85-6.85,29.74c-14.53,20.62-25.39,18.52-25.39,18.52L45.53,103.12s15.78-2.48,27.05-20.48,5.2-27.77,5.2-27.77Z"/><path class="cls-4" d="M166.59,199.73c-4.24-4.54-11.52-5.91-18.24-2.87-8.49,3.84-12.93,13.28-9.73,21.07s12.89,10.81,21.38,6.62"/><path class="cls-4" d="M154.8,226.76a12.85,12.85,0,0,0,6,13c6.73,4,16.09,1.44,20.84-5.69,3.89-5.83,3.49-12.88-.48-17.34"/><path class="cls-5" d="M270.42,123.84a11.66,11.66,0,0,0,13.11,2.41c5.25-2.59,7-9,3.92-14.36s-9.69-7.69-15-5.28"/><path class="cls-5" d="M279.74,106.44a12.29,12.29,0,0,0-5.39-10.5c-5.41-3.82-12.7-3.06-16.33,1.79-3.06,4.11-2.53,9.81,1,13.88"/><polygon class="cls-6" points="175.9 221.87 203.71 183.43 275.24 121.7 272.12 109.17 263.83 108.26 228.23 142.05 159.1 204.79 160.57 224.03 175.9 221.87"/><path class="cls-7" d="M267.57,184.18A12.22,12.22,0,0,1,281.11,178a13.85,13.85,0,0,1,10.27,15.6,12.37,12.37,0,0,1-14.74,10.52"/><path class="cls-7" d="M280.91,204.69a13.28,13.28,0,0,1-2.47,12.58,11.73,11.73,0,0,1-17.34.75,13.35,13.35,0,0,1-2.49-15.49"/><path class="cls-8" d="M148,131.84a16.14,16.14,0,0,1-16.35,4.77c-7.66-2.1-11.56-9.26-8.7-15.89s11.12-10,18.51-7.81"/><path class="cls-8" d="M132,113.53c-1.17-4.4.42-9.2,4.59-12.45,6.07-4.72,15.35-4.4,20.84.63a11.4,11.4,0,0,1,1.87,15.2"/><polygon class="cls-6" points="263.52 207.01 233.39 178.81 141.28 128.45 142.49 115.73 152.52 112.07 201.55 143.11 274.21 186.85 276.91 204.82 263.52 207.01"/><path class="cls-9" d="M209.81,102c-75.72,4.79-62.35,57.24-59.24,66.83a8.57,8.57,0,0,0,1.32,2.5l12,15.67a8.66,8.66,0,0,1,1.64,3.7l1.75,9.6a8.77,8.77,0,0,0,2.37,4.58l.55.56A9.9,9.9,0,0,0,184,205.3c3.53-3.4,8.06-5.71,12.22-1.52a10.24,10.24,0,0,1,3.08,8.08,9.75,9.75,0,0,0,1.21,5.29l1.59,2.92a8.8,8.8,0,0,0,9.39,4.44L226,221.89l12.83-1.62a9.31,9.31,0,0,0,7.61-6.53h0a9.67,9.67,0,0,0-.06-6,17.19,17.19,0,0,1,1.25-14.32c1.59-2.86,5-2.57,8.25-1.44a8,8,0,0,0,10.29-4.82l.69-1.86a9,9,0,0,0,.47-4.27l-.32-2.42a8.7,8.7,0,0,1,.42-4.09l5.81-16.16a7.74,7.74,0,0,0,.45-2C274.36,147.84,276.18,97.84,209.81,102Z"/><path class="cls-1" d="M210,105.59a112.61,112.61,0,0,0-24.93,4.18l-3,.94c-1,.31-1.93.73-2.9,1.09-2,.68-3.77,1.65-5.64,2.51a49.16,49.16,0,0,0-9.92,6.85,36.46,36.46,0,0,0-11.33,20.37,46.61,46.61,0,0,0-.74,12.05,62,62,0,0,0,1.94,12.1c.14.49.27,1,.42,1.46l.2.66a3.69,3.69,0,0,0,.17.42,5.62,5.62,0,0,0,.44.79l.93,1.23,3.94,5.21,3.94,5.22,2,2.6,1,1.31.26.34.34.47q.31.48.6,1a12,12,0,0,1,.88,2.13c.1.37.19.74.26,1.12,0,.17.07.39.09.54l0,.41c.13,1.08.2,2.17.26,3.27s.1,2.2.15,3.29l.07,1.65.09,1.52a5.34,5.34,0,0,0,.76,2.37,5.71,5.71,0,0,0,.81,1,8.94,8.94,0,0,0,1,1,5.54,5.54,0,0,0,4.86.85,10.67,10.67,0,0,0,4-2.27,4.61,4.61,0,0,0,.4-.37l.2-.18.34-.32c.45-.44.94-.87,1.44-1.28a16.89,16.89,0,0,1,3.51-2.24,11,11,0,0,1,4.74-1.07,9.9,9.9,0,0,1,5,1.43,14.13,14.13,0,0,1,3.42,3,13.57,13.57,0,0,1,2.29,3.81,14,14,0,0,1,1,4.4c0,.37,0,.75,0,1.12l0,.8a5,5,0,0,0,.07.94,6.23,6.23,0,0,0,.65,1.87l1.54,2.79c.15.29.21.35.29.49s.18.25.26.38a5.34,5.34,0,0,0,.6.66,4.63,4.63,0,0,0,1.51.94,5.31,5.31,0,0,0,1.79.33,5.83,5.83,0,0,0,1-.09l1.62-.28c4.32-.77,8.66-1.45,13-2.16l6.54-.71c1.09-.13,2.19-.25,3.28-.34.55,0,1.1-.08,1.65-.09l.82,0,.73,0a6.19,6.19,0,0,0,4.26-1.47,6.11,6.11,0,0,0,2.11-4.57,5.55,5.55,0,0,0-.53-2.49,25.15,25.15,0,0,1-1.27-3.43,17.45,17.45,0,0,1-.66-7.63,17.11,17.11,0,0,1,1.88-5.52,8.79,8.79,0,0,1,.66-1.1,7.83,7.83,0,0,1,6.24-3.26,14,14,0,0,1,4.36.52c.32.09.65.18,1,.28l.46.15.25.07a2.46,2.46,0,0,0,.45.11,3.47,3.47,0,0,0,.45.06,4.56,4.56,0,0,0,1.77-.2,4.34,4.34,0,0,0,2.57-2.3,3.93,3.93,0,0,1,.18-.43l.28-.77.28-.77.12-.35.08-.23a5.12,5.12,0,0,0,.19-1.87c0-.23-.11-.85-.18-1.38l-.23-1.72a12.56,12.56,0,0,1,.35-4.64l.17-.56.17-.49.27-.77.54-1.54,1.1-3.08L268,161.5l1.11-3.07.53-1.47a4.55,4.55,0,0,0,.19-.83l0-.64.05-.75c0-.51.05-1,.06-1.52,0-1,0-2,0-3.07a55.69,55.69,0,0,0-1.63-12.09c-2-7.84-5.86-15.14-11.79-20.44a39.93,39.93,0,0,0-10-6.61,57.92,57.92,0,0,0-11.6-3.88A94.82,94.82,0,0,0,210,105.59Zm-.45-7.11a101.63,101.63,0,0,1,27,1.59,66.13,66.13,0,0,1,13.16,4.35,48,48,0,0,1,11.79,7.73,43.85,43.85,0,0,1,8.92,11,51.32,51.32,0,0,1,5.26,13A63.49,63.49,0,0,1,277.6,150q0,1.74,0,3.48c0,.58,0,1.16-.07,1.74l-.06.88c0,.29,0,.55-.09,1a11.4,11.4,0,0,1-.53,2.35l-.57,1.61-1.1,3.07-4.34,12a4.91,4.91,0,0,0-.17,1.84l.19,1.52c.07.55.15,1,.21,1.86a12.48,12.48,0,0,1-.55,4.58c0,.19-.12.37-.18.55l-.16.41-.29.77-.29.76-.46,1.07A11.69,11.69,0,0,1,257.45,196a8.76,8.76,0,0,1-1.16-.18,8.65,8.65,0,0,1-1.14-.29l-1.46-.46a7.27,7.27,0,0,0-2.09-.32,1.82,1.82,0,0,0-.55.08c-.11,0-.14.05-.18.1s0,.06-.09.08,0,0-.17.3-.41.78-.59,1.19a21.21,21.21,0,0,0-1,2.43,16.3,16.3,0,0,0-1,5.35,11.87,11.87,0,0,0,.34,2.9,13.85,13.85,0,0,1,.42,3.93,14.47,14.47,0,0,1-2.42,7.44,11.66,11.66,0,0,1-6.83,4.9l-.89.21-.79.17c-.53.12-1.07.21-1.6.31-1.06.19-2.13.33-3.21.49l-6.41.92c-4.26.81-8.49,1.7-12.75,2.48l-1.59.3a12.75,12.75,0,0,1-10.94-3,14.69,14.69,0,0,1-1.62-1.73c-.22-.32-.47-.64-.66-1s-.43-.72-.53-.91l-1.58-3a13.8,13.8,0,0,1-1.4-4.31,12.8,12.8,0,0,1-.15-2.32l.05-.83c0-.17,0-.34,0-.51a6.16,6.16,0,0,0-.39-2,6.82,6.82,0,0,0-1-1.79,7,7,0,0,0-1.42-1.38,2.36,2.36,0,0,0-1.2-.44,3.58,3.58,0,0,0-1.6.33,9.62,9.62,0,0,0-2,1.21,11.55,11.55,0,0,0-1,.86l-.67.58a9.52,9.52,0,0,1-.86.68,11.44,11.44,0,0,1-8.17,2,14.87,14.87,0,0,1-7.29-3.24c-.49-.44-1-.9-1.35-1.26a12.26,12.26,0,0,1-1.3-1.45,12.85,12.85,0,0,1-1.91-3.56l-.52-1.69-.52-1.57c-.34-1-.71-2.08-1-3.13s-.65-2.1-.91-3.16l-.1-.39-.08-.26a3.61,3.61,0,0,0-.17-.46,5.75,5.75,0,0,0-.41-.87l-.26-.4-.14-.19-.24-.31-1-1.29-2-2.57-4-5.16-4-5.16-1.06-1.37a11.78,11.78,0,0,1-1.2-2,10.4,10.4,0,0,1-.45-1.09l-.29-.9c-.19-.56-.34-1.11-.51-1.67A64.33,64.33,0,0,1,144,154a54.72,54.72,0,0,1,.89-14,45.34,45.34,0,0,1,4.84-13.35,43.37,43.37,0,0,1,8.94-11.07,56.31,56.31,0,0,1,11.58-7.86c2.1-1,4.17-2,6.33-2.76,1.07-.4,2.13-.85,3.21-1.2l3.26-1A119.87,119.87,0,0,1,209.58,98.48Z"/><polygon class="cls-10" points="219.09 183.87 211.96 200.04 220.76 196.26 229.16 197.16 219.09 183.87"/><path class="cls-11" d="M236.34,152.33c0-.08-.11-.15-.13-.21s.67,0,.71,0a.53.53,0,0,1,.21-.09c1.48-.3,2.82.07,4.29-.23l.05-.26,3.69,0,.39,0h0l0,0h.06l.08,0,1.25.58,2.49,1.15c0-.11,0-.19.21-.12.91.39,2.11,1.07,3.38,1.73l.57.24a.32.32,0,0,0,.28-.06l.41.21.2.11.09,0h0l.1.09a3.85,3.85,0,0,1,.55.09,1.9,1.9,0,0,1,.09.42c0,.08,0,.18,0,.28l-.13,1c-.17,1.42-.36,2.87-.54,4.35s-.38,3-.57,4.51c-.09.77-.19,1.54-.29,2.32,0,.2,0,.4-.08.59l0,.3a.46.46,0,0,0,0,.1v.09l-.05.69v.27l-.46.35-.25.19-.14.09-.22.13c-.59.33-1.19.65-1.78.95-2,.9-4.65,1.78-6.65,2.55.23.3-.13.76-.84,1.35h-1c-.35,0-.71,0-1,0-.57.05-.88.19-.62.55-1.47-.47-3.68-1.19-3.85-1a1.62,1.62,0,0,1-.65.46c-.4.1-.93.68-1.85.6-.28-.17-.6-.39-1-.65l-.58-.43-.07-.06-.05,0-.1-.06-.21-.14a27.75,27.75,0,0,1-2.38-1.58,45.28,45.28,0,0,0-3.63-3c-.81-.49,1.11,1.88.3,1.39.86.93,2.08,1.4,3,2.31.44.45,1.31,1,1.75,1.47l2.15,2.22c1.72.53,3.33.5,5,1l5.38,1.64,2.78-1.15,1.47-.62,2.93-1.23,2.92-1.23,4.55-1.89c.48-2.35.95-4.71,1.43-7.09.07-.78.34-2.45.73-4.66l.66-3.65c.06-.33.12-.67.19-1,.12-.62.24-1.25.37-1.89.25-1.3-2.07-2.48-1.8-3.83-3-1.48-3.59-3.18-6.72-4.72l-3.27-1.62c-1.41-.7-2.78-1.39-4.11-2l-3.77.37-2.46.23-3.72.32-.6.07-2.35.22-2.68.27A8.65,8.65,0,0,0,229,149.5l-.17.8-.1.52c-.06.35-.12.69-.19,1-.24,1.37-2.78,5.25-2.9,6.4-.09,1.42-.15,2.87-.21,4.33.3-.6.58-1.15.84-1.62a17,17,0,0,0-.63,3.39c-.29,3.13.55,1.55,1.42.58.45-.75.61.49,1.17-.73l-.55,2.35c.23.18.51-2.94.79-2.17-.3.88-.37,1.94-.59,2.88.42-.22.85-3.22,1.16-3,0,.53-1,2.51-.67,2.82.08.06.3-.88.41-1.35-.51,2.95-.45,4.67.59,2.15-.21.92-.68,2.17-.83,3.17h0c.12-.48.39-1.3.49-1.75-.13.55-.25,1.11-.38,1.66a2.72,2.72,0,0,0,.24-.24,11.72,11.72,0,0,0,.37-1.23c-.08.36-.17.73-.25,1.1a7.45,7.45,0,0,0,.6-.83,27.58,27.58,0,0,0,1.4-3.06c.61-2.39,3.51-7.38,4.08-9.74l.84-3.51.2-.87,0-.22h0l0,0h.13Z"/><path class="cls-11" d="M257.32,160.52c1,6.46-6.37,15.66-13.3,16.66s-17.19-1.65-18.1-8.4,8.74-17.34,15.63-18.14S256.29,154.13,257.32,160.52Z"/><path class="cls-11" d="M199.27,150.21c-.05.17.59.26-.48.46-.42.06-.82.12-1.22.16l-.59.07h-.33c-.41,0-2.43-1.2-2.83-1.2a11.35,11.35,0,0,0-2.5.17l-.11.27-4.33.11c-.55.07.53,1.36,0,1.43l-2.62.34-1.93,1.17-1.06.67-2.12,1.34c.11,0,.19.1,0,.27-1,.66-2.41,1.41-3.88,2.25l-.62.42a.36.36,0,0,0-.12.31l-1.69,1-1.61.91-3.28,2.1,2.15,4.32.52,1.06.26.52.13.26,0,.07,0,0,0,.08.63,1.17,2.61,4.78q1.32,2.43,2.69,4.92l1.37,2.53.35.64.18.32.1.21.13.24.95,1.87.19.32,2,.22.93.11.11,0h.09l.17,0,.33,0c.9.08,1.78.17,2.63.3,2.63.45,5.87,1.34,8.38,1.91,0-.27.35-.41.91-.5a3.23,3.23,0,0,1,.49,0l.54,0,1.06-.06a9.9,9.9,0,0,0,1.37-1.43c.27-.38.32-.65-.08-.7,1.56-.87,3.88-2.17,3.87-2.47s.22-.49.43-.91c.09-.2.3-.47.3-.61l.12-.48,0-.36v-.16s0,0,0,0l0-.05,0-.12.09-.23c.23-.62,1.16-.79,1.53-1.59.84-1.6,2.88-3.54,3.06-4.15.3-1-1.69,1.71-1.4.73-.7,1.11-1.71,2-2.41,3.06-.35.56-1.32.58-1.67,1.14l-.26.42-.11.18h0v0l-.86.49c-.65.37-1.46.6-2.11,1l-2,1.12-.38.22h0l-.25-.06-2-.41-4-.84-4-.84-2-.42h-.05l0,0h0l-.13-.28-.32-.72-1.29-2.86c-.48-.83-1.42-2.74-2.65-5.29l-2-4.24c-.18-.39-.36-.78-.55-1.17l-.07-.15,0-.08v0h0l0,0,0-.06-.17-.3.36-.26,3-1.83c1.89-1.15,2.1-3.52,3.85-4.58l6.24-.74,2.81-.32,1.16-.12.51,0,.12,0h.09l1.71,1.19h.24l.16.29.57,1.1c.21.4.42.81.63,1.2.84,1.59,1.22,2.4,2,3.63s0,1,1,2.3c-.18-.74,1.48.2,1.36-.41.69,1.47-.43,1.31,0,1.79,1.9,2.92,1.48.93,1.49-.58-.16-1,.49-.89.1-2.37l1.15,2.45c.3,0-1.59-2.93-.85-2.46.36,1,1,1.95,1.48,2.92.17-.51-1.51-3.42-1.11-3.44.33.48.88,3,1.39,2.93a6.31,6.31,0,0,0-.6-1.47c1.59,2.92,2.79,4.37,1.9,1.4.45,1,.93,2.39,1.48,3.36h0c-.23-.51-.56-1.42-.78-1.88l.81,1.72c0-.12,0-.25,0-.39a12.56,12.56,0,0,0-.53-1.35l.54,1.15q0-.54-.09-1.17a35.7,35.7,0,0,0-1-3.7c-1.22-2.7.14-2.27-1.1-4.95-.63-1.34-1.25-2.68-1.87-4l-.48-1-.75-1.58c-.64-1.31-1.27-2.61-1.9-3.92Z"/><path class="cls-12" d="M209,170c.82,6.87-7.29,14-14.31,15s-18.61-10.24-19.25-17.29,10.78-10,17.73-10.77S208.2,163.21,209,170Z"/><path class="cls-13" d="M18.78,58.06a22.77,22.77,0,0,1-11-5.37A23.43,23.43,0,0,1,0,35.51,32.41,32.41,0,0,1,7,13.84C11.5,8,17.4,3.66,23.92.21c.33-.18.67-.38,1,0a2.36,2.36,0,0,1-.26,1.31c-.85,2.67-2.94,5.63-3,8.43-.05,3.39.11,6.87,2.32,9.59a9.26,9.26,0,0,0,6.58,3.28c-.25-1-3.22-3.75-3.61-4.55-1-2-.8-3.8-.93-6.1a5,5,0,0,1,1.27-4c1.15,4.41,4.44,6.6,7.6,8.93,1.69,1.25,3.44,2.46,5,3.83,4.28,3.7,6.9,8.2,7,14.07C47,43,43.73,49.13,37.52,53.89a27,27,0,0,1-8.44,3.54A28.62,28.62,0,0,1,18.78,58.06Z"/><path class="cls-14" d="M25.37,51a12.59,12.59,0,0,1-6.75-.27,12.93,12.93,0,0,1-7.69-7A17.89,17.89,0,0,1,9.65,31.3a28.1,28.1,0,0,1,5.54-10.62c.13-.16.26-.33.5-.2a1.23,1.23,0,0,1,.16.72c.17,1.54-.23,3.49.37,4.92.72,1.71,1.57,3.44,3.28,4.32a5.11,5.11,0,0,0,4.05.2c-.33-.42-2.45-1.18-2.83-1.49a7.8,7.8,0,0,1-1.81-2.88A2.71,2.71,0,0,1,18.67,24c1.56,2,3.7,2.35,5.81,2.83,1.13.25,2.28.48,3.38.82a10,10,0,0,1,6.62,5.57,12.27,12.27,0,0,1-.57,11.57,14.67,14.67,0,0,1-3.48,3.65A15.58,15.58,0,0,1,25.37,51Z"/><path class="cls-3" d="M268.65,48.17c24.17,14.46,36.75,34.59,33.81,39.5s-17.95-10.83-42.11-25.28S212,40.24,214.94,35.32,244.48,33.72,268.65,48.17Z"/></g></g></svg>