<?xml version="1.0" encoding="utf-8"?>
<!-- Generator: Adobe Illustrator 23.0.3, SVG Export Plug-In . SVG Version: 6.00 Build 0)  -->
<svg version="1.1" id="Ebene_1" xmlns="http://www.w3.org/2000/svg" xmlns:xlink="http://www.w3.org/1999/xlink" x="0px" y="0px"
	 viewBox="0 0 335.9 357.6" style="enable-background:new 0 0 335.9 357.6;" xml:space="preserve">
<style type="text/css">
	.st0{fill:none;}
	.st1{fill:#DFBF90;}
	.st2{fill:#7F5342;}
	.st3{fill:#3F2A21;}
	.st4{clip-path:url(#SVGID_2_);}
	.st5{fill:#00C140;}
	.st6{clip-path:url(#SVGID_4_);}
	.st7{opacity:0.6;fill:#FFFFFF;enable-background:new    ;}
	.st8{fill:#3F8C2A;}
	.st9{fill:#FFFFFF;}
	.st10{fill:#32A4DD;}
	.st11{fill:#AA2000;}
	.st12{fill:#F7B531;}
	.st13{fill:#AC7B1E;}
	.st14{fill:#333333;}
	.st15{clip-path:url(#SVGID_6_);}
	.st16{fill:none;stroke:#F7B531;stroke-width:21.91;stroke-miterlimit:10;}
	.st17{fill:#FFFFFF;stroke:#FFFFFF;stroke-width:1.18;stroke-linecap:round;stroke-miterlimit:10;}
	.st18{fill:#FFFFFF;stroke:#FFFFFF;stroke-width:1.15;stroke-linecap:round;stroke-miterlimit:10;}
</style>
<symbol  id="paper-burn" viewBox="-167.9 -169.5 335.9 338.9">
	<path class="st0" d="M163.8-17.2c-1-6.9-0.4-13.9-3.3-20.5c-0.6-1.4-1.1-2.9-1.5-4.4c-2-8.6-4.9-16.9-10.7-23.9
		c-1.9-2.3-3.7-4.7-5.4-7.2c-1.5-2.4-3.2-5-4.7-7.5c-0.9-1.5-1-7.8-3.4-10.9l-8.4-7.2c-3.5-4.6-10.7-7.1-15.1-10.8
		c-8.1-6.8-16.1-13.7-25.2-19.1c-3.8-2.3-7.1-5.4-11.5-6.8c-0.2-0.1-0.5-0.2-0.7-0.2c-0.8,0.2-1.6-0.3-1.8-1.1c0-0.1,0-0.3,0-0.4
		c-0.2-0.1-0.5-0.2-0.7-0.2c-0.8,0.2-1.6-0.3-1.8-1.1c0-0.1,0-0.3,0-0.4c-8.2-4.5-16.4-9-24.9-13c-1.5-0.8-3.1-1.4-4.8-1.6
		c-4.2-0.5-8.4-1.3-12.5-2.4c-11.1-2.7-22-2.3-33.1,0.5c-5.2,1.3-10,3.8-15.4,4.8c-1.9-0.8-3.3,0.5-4.8,1.2
		c-14.9,6.9-29.5,14.5-44.2,21.9c-11.7,5.9-23.6,11.3-35.3,17.1c-2.6,1.3-5.4,2.3-7.3,4.7c-0.2,0.1-0.5,0.2-0.8,0.2
		c-3.4-0.1-5.4,2.7-8.3,3.7c-5.1,1.8-7.7,6-9.8,10.6c-0.1,0.2-0.1,0.4-0.2,0.6c-3.1,0.4-3,2.9-3.5,5l0.7-0.1l-0.7,0.1
		c-0.1,0.6-0.2,1.3-0.9,1.6c0,0.3,0,0.5,0,0.8c0-0.3,0-0.5,0-0.8c-3.5,1.2-6,4.2-6.6,7.8c-1.5,8-2.8,16.1-3.6,24.2
		c-0.8,8.7-1.3,17.4-2.1,26.1c-0.4,5.1-0.1,10.3-0.2,15.5c0,1.4-0.1,2.8,1.3,3.7l0,0l0.6,1.6l1.6,0.2l-1.6-0.2h-0.3
		c-2.5,0.3-2.3,2.7-2.3,3.9c-0.3,8.2-0.6,16.5-0.1,24.8c0.2,3.2,0.4,6.3,0.4,9.8c-3.9,0.7-1.5,5-4,6.3c0.6,2.4,3.5,2.3,4.1,4.8
		c-2.2,1.7-1.7,4.2-0.9,6.2c1.3,3,2.1,6.1,4,8.9c3.8,5.8,8.7,11.1,8.7,18.5c1.7,1,3-0.6,4.7,0.2c2.7,1.4,3.6,3.6,4.5,6.2
		c1.1,3.4,0.8,7.6,4.1,9.6c1.5,0.7,2.3-0.8,3.3,0.3c0,1.1-0.9,1.6-1.8,2c-1.1,0.3-1.6,1.5-1.3,2.5c0,0.1,0.1,0.3,0.2,0.4
		c2.2,1.3,4.6-1.5,6.9,0c1.6,4.1,5,6.4,8.8,7.9c-0.7,1.8-3.7,1.3-2.9,4c2.3,0.9,4.9,0.3,7.4,2.2c5.9,4.8,12.4,8.8,18.7,13.1
		c1.2,0.8,2.2,2,3.7,0.8l0,0c0.6-0.1,1.1,0.2,1.3,0.7c1.1,0.1,2.1,0.3,3.1,0.7l-7-0.9c0,0,6.5,7.6,7.4,8.4
		c0.4,0.4,26.3,16.9,55.5,17.5c30.4,0.6,61.5-3.9,64.4-4.9c0.4-0.1,0.8-0.2,1.2-0.3c13.6-5,27.4-9.2,39.8-17c4.6-3,9.9-5.1,14-8.6
		c5.5-4.6,10.7-9.6,16-14.4c10.2-9.2,17.8-20.6,25.5-31.8c5.5-7.9,9.1-17.1,13.6-25.7c0.3-0.5,0.5-1,0.6-1.6c2.5-11.4,8.1-22,8.3-34
		c0.1-5.5,1.6-11,1.6-16.6C164.7-6.4,164.4-11.9,163.8-17.2z"/>
	<path class="st1" d="M162.7-17.1c-1-0.6-1.1-0.5-0.9,0c0.3,0.8,0.6,1.5,0.8,2.3C162.6-15.5,162.7-16.3,162.7-17.1z"/>
	<path class="st1" d="M162.6-14.7l-0.1,1.7C162.7-13.5,162.7-14.1,162.6-14.7z"/>
	<path class="st1" d="M161.7,0.9c-0.3-0.9-0.4-1.8-0.5-2.7c0-1,0-1.9,0-2.8c0-1.8,0-3.4-1.1-4.5c-0.6,2-0.8,4-0.5,6.1
		C159.8-1,160.5,0.4,161.7,0.9z"/>
	<polygon class="st1" points="163.1,-4.4 162,-4.9 163.8,-1.7 	"/>
	<polygon class="st1" points="164.2,-6.7 163.8,-6.3 165,-1.2 	"/>
	<path class="st1" d="M159.4,13.1c0-1.3,0-2.6,0.1-3.9c2-3.2,1.8,2.6,3.2,0.4c0.3-2.3-0.5-2.8-1.1-3.4s-1.2-1.4-0.7-4
		c-0.8,0.1-1,2.2-1.4,4.3s-0.9,4.1-2,3.4C156.1,15,158.8,10.3,159.4,13.1z"/>
	<path class="st1" d="M15.4,161.8c-0.2-0.1-0.4-0.1-0.5-0.2C15.1,161.8,15.3,162,15.4,161.8z"/>
	<path class="st1" d="M-48.4,160.3c-0.8-0.5-1.6-0.9-2.4-1.2c0.2,0.4,0.5,0.7,0.8,0.9C-49.5,160.1-48.9,160.2-48.4,160.3z"/>
	<path class="st1" d="M53.4,150.6c0.8,0,1.6-0.1,2.4-0.2C55,150.2,54.2,150.3,53.4,150.6z"/>
	<path class="st1" d="M-142.8-46.3c0.2,0.2,0.4,0.3,0.7,0.4l0.1-0.1l-0.6-0.7L-142.8-46.3z"/>
	<path class="st1" d="M-98.3,134.9c-0.8-0.5-1.6-0.9-2.4-1.3C-100,134.1-99.2,134.6-98.3,134.9z"/>
	<path class="st1" d="M74.1,142.5c-0.3,0.1-0.6,0.2-0.9,0.4c0.4-0.1,0.8-0.2,1.2-0.3L74.1,142.5L74.1,142.5z"/>
	<path class="st1" d="M-27.3,167.5c-0.8-0.3-1.6-0.4-2.5-0.6C-28.9,167.3-28.1,167.4-27.3,167.5z"/>
	<path class="st1" d="M140.8,63.6c-0.6,0.7-0.9,1.5-1,2.4C140.5,65.5,140.9,64.5,140.8,63.6z"/>
	<path class="st1" d="M129.9,81.3c0,0,0-0.1,0.1-0.1C129.6,81.2,129.7,81.3,129.9,81.3z"/>
	<path class="st1" d="M121.7,92c0-0.1,0.1-0.1,0.1-0.2C121.6,91.8,121.5,91.8,121.7,92z"/>
	<path class="st1" d="M139.8,66c-1.6,1.1-4.5,0-2.7,3.5l0.6-0.1c-1.3,0.7-1.2,3-2,4.3c0.3,0.1,0.7,0.1,1,0c0.5-0.6,1.1-1.4,2.1-2.6
		C140.3,69.8,139.6,67.9,139.8,66z"/>
	<path class="st1" d="M15.6,161.1C15.8,161.7,17.3,161.3,15.6,161.1z"/>
	<path class="st1" d="M34.2,156.7c-0.6,0-1.2,0.1-1.9,0.1C33,156.9,33.6,156.9,34.2,156.7z"/>
	<path class="st1" d="M102.1,129.3c-0.1,0-0.3,0.1-0.4,0.1C101.7,129.8,102,129.5,102.1,129.3z"/>
	<path class="st1" d="M30.6,157c0.6-0.1,1.1-0.1,1.7-0.2C31.8,156.8,31.2,156.8,30.6,157z"/>
	<path class="st1" d="M82.1,139.1c-0.1,0-0.2,0-0.3,0.1C81.9,139.2,82.1,139.2,82.1,139.1z"/>
	<path class="st1" d="M72.6-120.7c-1-0.3-0.9-1.2-1.2-1.7c-0.5,0.4-0.5,0.7-0.5,0.8c0,0.1,0.1,0.2,0.2,0.2c0.1,0.1,0.2,0.1,0.4,0.2
		c0.3,0.2,0.6,0.4,0.7,0.5c0,0.2-0.2,0.2-1,0.4c0.7,0.3,1.5,0.6,2.3,0.8c-0.1-0.9-0.1-1.7-0.1-2.5c-1-0.2-0.8,0.2-0.6,0.5
		C72.8-121.2,73.3-120.7,72.6-120.7z"/>
	<path class="st1" d="M-136.7-62.9l-0.3,0.6c1-0.3,1.2,0.1,2.1-2c-1.1-2.1-3.7,0.5-4.7-3.1c0,0.9-0.2,1.7-0.5,2.5
		C-138.6-66.1-137.6-64.5-136.7-62.9z"/>
	<path class="st1" d="M-140.1-64.9c0,0-0.1,0-0.1,0.1c-0.2,0.1-0.4,0.3-0.6,0.4c-0.1,0.5-0.2,0.9-0.4,1.3
		C-140.7-63.6-140.3-64.2-140.1-64.9z"/>
	<path class="st1" d="M37.6-140.4L37.6-140.4c0,0,0,0-0.1-0.1l-0.4-0.1l-0.8-0.2c0.3,0.2,0.6,0.3,1,0.4l0.3,0.1c0,0,0,0,0.1,0
		C37.6-140.3,37.6-140.3,37.6-140.4z"/>
	<path class="st1" d="M-80.1,115.6c0.7,0.2,1.4,0.5,2,0.6C-78.7,115.8-79.4,115.6-80.1,115.6z"/>
	<path class="st1" d="M-141.8-30.4c-0.2,0.5-0.4,1.1-0.4,1.6c0,0.4,0,0.6,0,1.1L-141.8-30.4z"/>
	<path class="st1" d="M-103.3-126.7c0,2.6,0.7-0.6,3.5-0.4l1.4-2.1C-100.1-128.6-101.7-127.7-103.3-126.7z"/>
	<path class="st1" d="M73.4-119.3c0-0.1,0.1-0.1,0.1-0.2h-0.2L73.4-119.3z"/>
	<path class="st1" d="M-44.9-156.2c0.4-0.1,0.8-0.1,1.1-0.2C-44.1-156.4-44.5-156.3-44.9-156.2z"/>
	<path class="st1" d="M-142.8-52.3l-0.8,8.4l0.8-2.4C-143.9-47.6-141.5-51-142.8-52.3z"/>
	<path class="st1" d="M-140-106.3c-0.7,0.1-1.3,0.1-1.9,0.2c-1.4,3.2-2.4,5.8-3.4,8.1l-0.6,1.3v0.2c-0.4,1.1-0.6,2.3-0.8,3.5
		l13.1-12.9c-1.2,0.2-2.4,0.5-3.6,0.8c-0.3,0.1-0.6,0.2-1,0.4s-0.8,0.3-1.1,0.5s-0.7,0.4-1.1,0.6c-0.3,0.2-0.8,0.4-1.1,0.7
		c-1.5,1-2.9,2.2-4.1,3.6c-1,1.2-1.9,2.5-2.5,3.9c-0.8,1.6-1.3,3.3-1.7,5l-0.2,1v0.1l0,0h0.1l0.4,0.1l0.8,0.2l1.5,0.3
		c1,0.2,2,0.5,3,0.8l11.1,17.8l0.7-0.1l-3.6-30.9l-0.8,0.1l-11.2,1l-2.3,11.4l-0.1,0.6l0,0l0,0l3.6,0.7l3.2,0.6l2.9,0.6l1,0.2
		l0.9,0.2c0.3,0.1,0.7,0.2,1,0.2c0.3,0.1,0.4,0.1,0.6,0.2l0.4,0.1c0.8,0.3,0.5,0.4,0.3-0.1l-3.7,1.9c-0.1,0-0.2,0-0.4,0l20.2,1.5
		c0-1.2,0-2.5-0.1-3.7l-2-19.4l-18,6.2c-2.8,1-5.4,2.5-7.5,4.6c-1.9,1.8-3.4,4.1-4.2,6.6c-1.8,1.8-3.2,3.9-4.2,6.2
		c-0.2,0.5-0.4,0.9-0.5,1.3c-0.1,0.2-0.1,0.4-0.2,0.6c-0.1,0.2-0.1,0.4-0.1,0.5c-0.1,0.3-0.2,0.7-0.2,1c-0.1,1.1,0.2,2.2,0.7,3.1
		c0.9,1.8,1.8,3.5-1.1,8l0.8-0.2c-0.5,2.5-0.9,5-1.3,7.6c-0.2,1.3-0.4,2.6-0.6,3.9l-0.3,2l-0.2,1.9c-0.6,4.9-1.2,9.9-1.8,14.8
		c-0.3,2.5-0.6,4.9-0.9,7.4l-0.2,1.9l-0.2,2.2c-0.1,1.5-0.2,3-0.3,4.4c-0.1,2.8-0.1,5.3-0.2,7.6c0,1.1-0.1,2.3-0.1,3.4v1v0.6v0.5
		v0.3c0,0.1,0,0.1,0.1,0.1v0.2h0.1h-0.2c-0.1,0-0.1,0-0.2,0.1v0.1l-0.1,0.3l-0.1,0.2l-0.1,0.3l-0.2,1c-0.2,1.3-0.3,2.6-0.3,3.9
		l-0.1,1.8c-0.1,2.4-0.1,4.9-0.1,7.3c0,5,0.3,9.9,0.9,14.9h-1v2.6v2.2v2.1v0.4c0,0.1,0,0.1-0.1,0.1c-0.1,0-0.1,0-0.2,0.1
		c0,0.1-0.1,0.1-0.1,0.1l0,0l0,0l0,0l0.1-0.2l0.1-0.2l0.1-0.1l0,0l0,0c20.9,16.3,5.8,4.5,10.5,8.2l0,0c0.1,0,0-0.1-0.1-0.1
		c0-0.1-0.1-0.1-0.1-0.2l-13.7,6c0.2,0.8,0.5,1.6,0.8,2.3c0.3,0.8,0.7,1.6,1.1,2.3c0.4,0.7,0.9,1.4,1.4,2.1c0.5,0.6,0.9,1.1,1.5,1.7
		c1.1,1.1,2.4,2.1,3.7,3h0.1l0,0l0,0l0.6-0.9l0.1-0.2c0.7-1,1.4-2,2.1-3l1.2-1.3c0.3-0.5,0.8-1.1,0.9-1.1c0.2-0.4,0.5-0.7,0.8-1
		l0.4-0.5l0.2-0.2l0.1-0.1c0.1-0.2,0.3-0.3,0.4-0.5s0.4-0.3,0.4-0.4c0.8-0.7,0.8-0.5,0.2-0.4l-6.1-13.2c-0.6,0.5-1.2,1-1.8,1.6
		c-0.6,0.6-1.2,1.3-1.8,2c-1.2,1.5-2.1,3.1-2.8,4.9c-1.2,3.1-1.6,6.4-1.2,9.6c0.2,2.1,0.8,4.1,1.6,6.1l0.5,1.1l0.3,0.8
		c0.4,1.1,1,2.8,1.9,4.7c0.4,1,0.9,2,1.6,3.2c0.3,0.6,0.6,1.1,1,1.7l0.5,0.7l0.4,0.6c2,2.9,3.5,5,4.5,6.6l0.3,0.5l0.3,0.5l0.2,0.4
		c0,0,0,0,0.1,0.1l0.1,0.4l0.1,0.8l0.1,0.4c0,0.2,0,0.3,0,0.5v1.2l0.1,2.4l0.1,5c2.3,1.1,3.7,2,5.8,2.9l2.3,1l1.4,0.6l0.8,0.4
		c0.3,0.1,0.5,0.4,1.1,0l0.8-0.4l0.4-0.2l0.1,0l0,0c-0.8,1.3,6.8-11.4,3.6-6l0,0v-0.1c0.1-0.2,0.2-0.3,0.3-0.5
		c0.1-0.1,0.2-0.2,0.2-0.3c0-0.1,0.1-0.1,0.1-0.2c0.1-0.1,0,0.1-0.9,0.7c-0.3,0.2-0.5,0.3-0.8,0.5c-0.4,0.2-0.8,0.4-1.2,0.6
		c-0.6,0.3-1.1,0.5-1.7,0.8c-0.4,0.2-0.8,0.4-1.2,0.5l-1.3,0.5l-0.2,0.1l0,0l0,0l0.1,0.1l0.2,0.5c0,0,0,0,0,0.1l0.1,0.3l0.1,0.5
		c0.2,0.7,0.4,1.9,0.8,3.5c0.3,1,0.6,1.9,0.9,2.9c0.2,0.5,0.5,1.2,0.8,1.7c0.3,0.6,0.5,0.9,0.7,1.4l0.1,0.1l0,0l0,0l0,0l0.1,0.1
		c0.1,0,0.1,0,0.2,0c0.1,0,0.1,0.2,0,0.2c0,0-0.1,0.1-0.1,0.1v0v0.2v0.2v0.3l0.1,0.4c0.1,0.5,0.2,1.1,0.3,1.5c0.1,0.4,0.3,1,0.4,1.3
		s0.3,0.7,0.4,1.1l2,4.7l4.6,2.6c0.9,0.5,1.8,1,2.8,1.3c1,0.4,2,0.6,3.1,0.8c1,0.2,1.9,0.3,2.9,0.3c0.8,0,1.6,0,2.4-0.1
		c1.6-0.2,3.1-0.5,4.6-1h0.1h0.1l-0.3-1l-0.1-0.4c-0.3-1.1-0.6-2.1-0.9-3.2l-0.4-1.8l-0.2-0.8l-0.1-0.4v-0.1
		c-0.1-0.4-0.2-0.8-0.3-1.3l-0.1-0.6c0-0.2-0.1-0.5-0.1-0.6c-0.1-0.4-0.1-0.8-0.2-1.3c0-1.2,0.2-1.1-0.2-0.5l-12.5,2.9
		c0.8,2,1.8,4,3,5.8c0.3,0.5,0.6,0.9,1,1.3l0.5,0.6l0.1,0.1l0.1,0.1c0.1,0.1,0.3,0.2,0.4,0.2h0.1v0c0,0-0.1,0.1-0.1,0.1
		c0,0-0.1,0-0.1,0.1c0,0,0,0,0,0.1l0,0l0,0l0.1,0.4c0.1,0.6,0.2,1.2,0.4,1.8l1.9,7.4l7.5,2.7c1,0.4,2.1,0.7,3.2,0.9
		c1,0.2,1.5,0.3,1.4,0.3l0.2,0c0.1,0,0.2,0.1,0.3,0.2l0.1,0.1l0.6,0.5l1.4,1.1l2.9,2.1c2.2,1,3,0.5,3.7,0.1c1-0.7,2.2-0.9,3.3-0.4
		c1.3,1,4.4,2.9,3.7,3.9c-2.9-1.1-2.1,0.7-3.2,0.5c1.5,1,2.9,2,4.2,3.1l0.5,0.4c0.1,0.1,0.3,0.2,0.4,0.3v0.1l0.1,0.1l0.5,0.4
		c0.3,0.2,0.5,0.4,0.9,0.6c1.1,0.7,2.2,1.3,3.5,1.8c4.1,1.6,8.6,1.5,12.7-0.2c0.7-0.3,1.5-0.7,2.2-1.1c0.5-0.3,1.1-0.7,1.6-1.1
		l-14.4,2.1l-8.7-8.8l14.4-3.3c-0.1-0.4-0.1-0.7,0-1.1c-0.2,0.2-0.5,0.4-0.8,0.5l1.2,7.8c0,0.4-0.1,0.7-0.2,1
		c-0.3,1.1-0.7,2.3-1.1,3.3l6.8-26.6l-0.7,0.1l0.6,0.3l-6.7,26.1c0.5-1.1,0.8-2.2,1.1-3.4c0.1-0.3,0.1-0.7,0.2-1l-1.2-7.8h0.1h-0.1
		l1.2,7.8c0,0.3-0.1,0.6-0.2,0.9c-0.1,0.3-0.2,0.7-0.4,1.3l-0.3,1l-0.2,0.5l0,0l6.2-23.8c-1.1-0.2-2.2-0.5-3-0.6
		c0.8-0.7-1.3-2.7,0.1-2.9c-1.3,0.4-2.6,0.6-4,0.7l-38.2,3l25.5,20.5c1.6,1.2,2.7,2.8,3.1,4.7c0.3,0.9,0.7,1.7,1.2,2.5l0.2,0.4
		c0.1,0.2,0.2,0.3,0.4,0.5c0.4,0.4,0.8,0.9,1.2,1.3c1,1.1,2.2,2,3.5,2.7c0.8-0.1,1.5-0.1,2.3,0c0.5,0.1,1,0.1,1.5,0.2h1.2
		c0.8,0,1.7,0.1,2.7,0.2s2,0.2,3,0.4c4.1,0.6,8.8,1.3,12.5,1.5l3.2,2.2c-2.3-0.9-2.5-0.4-2.9,0.1s-0.8,1-3.7-0.4
		c4.5,3,9.6,3.4,14.2,5.3c-0.7-1.1-0.1-2.1,1.9-1.8c1.1,0.5,2,1.2,2.8,2.1c0.9,0.9,2,1.6,3.2,1.9c-1.2,0.1-2.4,0.1-3.7,0.1
		c2,1.9,4.4,0.7,6.6,1c0.4,1.6,5.7,2.7,4.5,4.1c2-0.4,4-0.6,6-0.5c0.9,0,1.7,0.1,2.7,0.1c1.2,0,2.3-0.2,3.5-0.4
		c-5.4-1.8,1.5-1.8,0.9-3c-2,0-4.1,0.2-6.1,0.1c2.1,0.5,3,0.6,3.1,0.7s-0.5,0.2-1.3,0.2c-1.7,0.1-4.4,0.2-4.3,1.4
		c-2-0.8-0.4-1.6,0.7-2.3s1.9-1.2-1.5-1.4c2-0.1,3.6,0,5,0s2.6,0,3.9,0h1.9c0.6,0,1.2-0.1,1.9-0.2c1.6-0.2,3.2-0.6,4.8-1
		c-4.6,0.4,0.9-1.5-1.6-2.3c5.8-0.1,1.4,0.8,3.2,2.4c3.2-0.1,4.4,1.2,7.2-0.6c5.2,0.6-0.7,1.8,1.9,2.7c-0.9,0.8-4.5,0.5-7.7,0.4
		s-6,0.4-5.3,3c-1.6,0.2-3.1,0.5-4.6,1c-2,0.5-4.1,0.7-6.1,0.6c1.9,0.5,4.3,1.2,6.7,1.7c2.2,0.5,4.5,0.5,6.7,0l0.2-3
		c3.2-0.1,3.9-2.1,6.2-1.9c-1.2,0.9,1,2.1,3.6,1.8c-0.8-0.4-1.8-0.3-1.5-0.8c1.8-0.1,3.6-0.6,5.2-1.5c1.8-0.9,3.8-1.5,5.8-1.8
		c-4.7-0.5-5.7-1.4-10-2.5c1.1-2.1,3-0.4,5.6-0.8c-0.4,0.3-0.9,0.4-0.1,0.8l2.6-1.1c5.8,0.6-0.6,3,4.3,3.8c3.4,1.5,4.4-1.3,7-0.5
		c-0.2-0.2-0.4-0.4-0.5-0.5c0.4,0,0.8,0,1.3,0c0,0,0-0.1,0-0.1c3-0.5,6.3-0.7,7-2.3c0.4,0.7,2.6-0.5,3.6-1.1
		c1.6-0.8,5.4-3.1,8.3-0.9c-0.1,0-0.1,0-0.2,0c3.8-0.2,7,0.1,6.2,1l2.5-0.2l1.4-0.1l0.4,0l0.6-0.1l1.1-0.2l-1.9,0.4
		c0.8-0.1,1.7-0.2,2.5-0.4c0.6-0.2,0.9-0.2,1.1-0.3c0.1,0.8,0,1.5-0.3,2.2c0.4-0.2,0.8-0.3,1.2-0.6l0.7-0.4c0.4-0.3,0.8-0.5,1.1-0.7
		c0.5-0.4,1-0.8,1.5-1.4c0.8-1.2,1.7-2.4,2.6-3.6c4.1-0.2,10.4-3.5,12.6-5.2c0.7-0.2,1.4-0.5,2.1-0.9l-2.5,0.1
		c4.1-1.6,3.2-2.4,5.9-3.5c-0.6,0.1-0.8,0,0.9-0.4l1.6-0.6c-0.1,0.2-0.7,0.5-1.3,0.7l0.8,0.4c1.6,0.2,3.2-0.5,4.3-1.7
		c1-1.3,2.4-2.3,3.9-2.9c-0.3,0.3-0.7,0.6-1.1,0.8c1.3-0.2,2.7-0.3,4-0.3c1.3-0.1,2.4-0.5,2.3-1.4c0.5,0,0.8-0.7,1.1-1.4l1.4-0.4
		c-0.4,0.2-0.9,0.3-1.4,0.4c0.4-0.9,0.9-2,1.2-1.7c1.5-0.7,3.2-1.5,4.8-2.3c1.2-0.5,2.3-1.2,3.1-2.2c0.4,0,0.9,0.1,1.3,0.1
		c1.8-1.4,2.1-1.1,2-0.7c0.5-0.2,1-0.4,1.5-0.6c0.4-0.2,0.8-0.4,1.1-0.5c0.7-0.4,1.3-0.8,1.9-1.3c1-0.9,2-1.9,2.8-3
		c1.7-2.1,3.4-4.3,6.9-5.8c0.1-2-2.6-0.4-3.2-0.8c0.1-1.6,2.5-5,3.5-7c1.9-0.4,5-2.1,7.6-3.5s4.9-2.3,5.4-0.8
		c4.3-4.7-2.6,0.4-1.2-2.7l0.5-0.5c-1.4,1.3-3.2,2-5.1,2.2c-1.4-0.7,1.8-5,3.2-6l0.9,2.3c3-4.9-0.3-6,0.1-10c3.3-3,3.3,0.2,5.4,0.6
		c0.8-1.4,1.5-2.7,2.3-4.1l1.3,0.9c1.4-2.7,0.5-4.1,3.4-7.2c-0.4,3.3,4.7-4.2,4.1,0.3c1.7-1.6-0.4-4,2-3.8c-0.3-1.2-0.7-0.8-1.3-0.1
		c-0.3,0.4-0.6,0.8-0.9,1.2c-0.2,0.4-0.5,0.7-0.9,0.9c-1.3-0.3-0.8-1.5,0.1-3c1-1.5,1.9-3.1,2.6-4.8c1.2,0.4,0.4,2.4,2.8-0.1
		c-0.5-1.7,0.2-3.6,1.7-4.4c-1.4-0.7,1.4-3.5,2.3-5.1c-1.2,1.7-3.6,3.9-4.2,2.1c0.1-1.7,0.5-3.1,2.2-6.3l-1.6,2.2
		c-0.7-3.9,3.8-4,5.1-8.2c0,2.1-0.5,3.1-0.1,5c0.2-1.7,0.5-3.4,0.9-5c0.1-0.7,0.2-1.4,0.3-2.2s0-1.6,0-2.5c1.1-1,2.1-1.9,3.2-2.9
		c-1-0.8,1.3-3.9-0.2-4.3c2.4-4,0.7,4.1,1.8,4.8c2.6-5-1.2-5.1,2.8-9.6l0.9,2.2c0.7-1.7,1-5.6,1.8-5.6c-0.5-0.1-0.6,0.8-0.9,2
		c-1.4-1-1.3-3.3-1.3-5.3s-0.3-3.8-2-3.8c-0.2,0.8-0.5,1.6-0.8,2.4c0.1-1.8-0.1-3.5-0.4-5.3c-0.4-1.4-0.2-2.9,0.4-4.3
		c0.6-1,1.2-0.6,1.6,0.2s0.8,2.3,1.1,3c0.4-1.8-0.5-2.7-1.3-3.6c-1.2-1-1.7-2.5-1.4-4c-0.7,2.4-1.8,2-2.6,0.4c0,0.3-0.1,0.8-0.1,1.2
		c0,0.1,0,0.2,0,0.3v0.3c0,0.2,0,0.4-0.1,0.5l-0.3,2.1c-0.1,1.3-0.1,2.3,0.6,2l0.5-0.8c0.8,0.3,1,1.6,1.3,2.4
		c-0.6,3.2-1.8,1.2-2.5,1.7c-0.8,2.5-0.1,2.9,0.8,3.1s1.8,0.5,1,3l-0.8,0.5c0.1,2.6-1,6.4,0.7,7.7c-2.8,1.5-1,5.9-2.9,7.9
		c-2.4-0.4-1.7-2.6-0.5-5s2.7-5.2,1.9-7c-1.8,2.3-1.7-2.2-2.4-3.6c-0.2,2.9-0.4,5.8-0.7,8.8c-0.8,0.4-3.9,2.3-2.7,4.3l0.3-0.6
		c-0.2,1.1,0,2.3,0.5,3.3c0.2,0.3,0.3,0.7,0.3,1.1c0,0.5-0.1,1-0.4,1.4c-0.5,0.2-1-0.7-1.3-1c-0.3,0.5-0.4,1-0.3,1.6
		c0.1,0.4,0.3,0.7,0.4,1.1c0.1,0.3,0.1,0.7,0,1c-1.6,2.3-1.1-2.1-2.6-0.3c0.2,3.7-2.6,4.4-3.7,6.9c1.5,0.1,1.1,2.9,0.9,5.2
		s-0.1,4.1,2.3,1.9c-0.5,2.3-0.9,4.5-1.5,6.8c-1.1,0.6-1.4-0.9-1.7-2.4s-0.8-3.1-2.3-2.8c0.8-1.5,1.6-3,2.4-4.6
		c-1.7-0.4-2.4,2.3-3.4,5.2s-2.3,6-4.8,6.2c-1.6,2.2-0.9,1.9-5.3,5.4l3,0.9c-2.1,1.9-4,1.7-4.5,1.5c-0.7,1.3-1.6,2.6-2.6,3.7
		c-0.2-0.7-0.1-1.5,0.3-2.1c-2.5,0.7-2.4,1.5-2.1,2.6c0,1.3-1.1,2.6-2.1,3.9v-1.9c-0.4,1-0.9,2.1-0.6,2.6c-0.4,0.5-0.7,1.1-1,1.7
		c1.7,0.1,3.4-0.3,4.8-1.3c-2.4,2.2-4.2,4.2-6.1,6.1c-1.9,1.9-4.2,3.4-6.7,4.4c-0.5-0.7,0.2-3-0.3-2.6c-2,1.5-3,4.4-2,5.2
		c-0.3,0.4-0.6,0.7-1,1.1c-1-0.3-2.1-0.2-3,0.5c-0.6,0.1-1.2,0.3-1.7,0.7c0.9,2.4-3.8,5-3.9,6.6c1.2-0.8,2.3-1.7,3.3-2.8
		c-0.6,2.6-0.8,5.3-2.9,5.5c2-3.8-4.9,1.1-0.8-3.5c-5.2,0.6-0.2,3.1-4.3,5.3c-1,0.3-2,0.7-3,1c-0.8-1.6,3-3.7,2-3.7l-1.3,1.4
		c0.3-1.1,2-2.8,4-4.8c2-1.9,3.8-4.2,5.1-6.6c-2.6,2-5.1,3.9-7.7,5.7c-0.9,1.2-1.9,2.3-3,3.4c-0.5,0.5-1.1,1.1-1.6,1.6
		c-0.4,0.4-0.8,0.7-1.2,1c-2.4,1.7-4.9,3.2-7.5,4.6c-0.8,0.5-1.5,0.9-2.3,1.4s-1.7,1.1-2.2,1.5c-1.1,0.8-2.3,1.6-3.4,2.4
		c-2.2,1.5-4.3,3.2-6.2,5.1c0.1-0.1,0.2-0.1,0.4-0.2c-0.1,0.4,0,0.8,0.1,1.2l-0.6-0.2l-1.2,2c-2.7-0.6-6.6,0.6-10.4,0.7
		c2.5,0.2,2.5,0.2,3.1,1.3c0.2,1.8,0.1,2.6-3.3,3.2c-0.4-1.1,1.5-1.8-1.2-1.9c1.4,0.1,0.6,1.3-0.7,2c-2.1-0.1-5.1,0.8-5.6-0.3
		c0.6-0.4,1.4-0.6,2.2-0.5c0.7-0.6-3.8,0.2-1.6-1.7l-3.1,1.5c-2.3-0.3,0.7-2-0.2-2.3c-1.2,0.6-2.4,1.4-3.4,2.2
		c-0.5,0.4-1,0.8-1.4,1.2l-0.3,0.3c0,0-0.1,0.1-0.1,0.1s0,0,0,0.1l0.8,2.2c0.7,2.1,0.9,2.9,1.1,3.6c0.1,0.4,0.2,0.8,0.2,1.2l0.2,1.9
		l-0.8-2.2c-0.5-1.5-1-3-1.5-4.5l-0.3-1.1l-0.1-0.5l0,0l0,0c0,0,0,0.1,0.1,0.2v0.1l-0.1,0l-0.1,0.1l-0.3,0.2l-0.6,0.4l-0.7,0.4
		c-1,0.6-2.1,1.1-3.2,1.5c0.1-0.9,0-1.7-0.1-2.6c-3.9-0.3-8,4-12.5,4.7c0.6-0.9,2.3-0.7,3.6-1.3c-13.8,0.5-25.3,1.2-38.1-1.2
		l-3.3,2.8c-1.1-0.6-2.2-1.3-3.3-1.9c-0.8-0.1-1.7-0.2-2.5-0.3l-2.2-0.3c-1.4-0.2-2.8-0.3-4.2-0.5l-8.2-1
		c-5.7-0.7-11.3-1.9-16.8-3.4c-3.6-1.2-1.4-2.7-2.8-4c-2.8-1.3-5.9-2.2-9-2.6c-1.3-0.2-2.6-0.4-4.1-0.8c-0.8-0.2-1.5-0.4-2.2-0.7
		c-0.5-0.1-1-0.3-1.4-0.5c0.7-0.2,1.3-0.6,1.8-1.2c0.5-0.6,0.7-1.1,0.3-1.5c-0.3,0.2-0.7,0.4-1.1,0.6c-0.3,0.2-1-0.3-1.5-1.2
		l1.4,0.3c-0.4-2.2-2.4-3-4.7-6.2l-10.3,19l0.7,0.2c2.1,0.3,4.3,0.4,6.4,0.4l70.6-0.7l-65-20.8c-2.1-0.7-4.4-1-6.6-1l9.2,6.6
		c-0.5-1.1-1.1-2.1-1.8-2.9c-1-1.2-2.3-2.2-3.7-2.9c-2.2-1.1-4.8-1.5-7.2-1l11.2,6.5l-6-6l-5.9,6.6c0.2,0.2,0.4,0.5,0.5,0.8
		c0.2,0.3,0.3,0.6,0.4,1c0,0,0,0.1,0,0.1l0,0c0-0.2,0.1-0.4,0.2-0.6l0.2-0.4c0.1-0.2,0.2-0.3,0.2-0.5c0.1-0.2,0.3-0.5,0.4-0.7l0.6-1
		l0.4-0.6l0.2-0.3l0.1-0.1l0.2-0.3l0.9-1.3c0.3-0.4,0.8-1,0.6-0.8c0,0-0.1,0-0.2,0s-0.5-0.2-0.9-0.4l-0.5-0.2l-0.3-0.1l-0.7-0.2
		c-1.8-0.5-3.6-0.9-5.5-1.1c-5.5-4,2.3-2,1.6-3.2c3.5,3.6,3.1,1.5,4.6,1.3c-2.7-0.9-5.5-2.2-5.5-4.6c-3-1.9-4.2-2.8-7.6-3.6
		c1.7,0.4,2.3,2.1,0.5,2c-0.5-0.5-0.9-1-1.5-1.4l-2.3-2c-0.9-0.7-1.7-1.4-2.6-2s-1.7-1.1-2.4-1.5c-1.4-0.8-2.2-1.4-1.8-2.1
		c-1.1-0.2-2.2-0.4-3.3-0.5l-0.4,0h0c0,0,0,0,0,0v0.2c-0.1,0.6-0.2,1.2-0.4,1.8l-0.3,1.2c-0.1,0.3-0.2,0.6-0.3,1
		c-0.1,0.4-0.2,0.8-0.4,1.2l9.3,2.8l3,0.2l0.7,0.1l0.1-0.2l0.2-0.4c0.2-0.5,0.5-1.1,0.7-1.5c0.2-0.6,0.6-1.1,0.9-1.6
		c0.3-0.4,0.6-0.7,0.8-1.1l0.3-0.5c0.1-0.2,0.2-0.4,0.3-0.6l0.3-1.1c-3.3-1.4-6.9-3-10.3-4.7l-1.3-0.6l-0.6-0.3l-0.6-0.2l-0.6-0.2
		c-0.2-0.1-0.1,0-0.1,0s0,0,0,0l-0.2,0.1l0,0l0.2-0.1h0.1l2.2-1.4l-6.8-4.4c-0.6-0.4-1.3-0.8-2-1.1c-0.7-0.3-1.5-0.6-2.2-0.8
		c-1.4-0.4-2.9-0.5-4.4-0.5c-1.6,0.1-3.2,0.4-4.8,0.9l-0.4,0.1h-0.1l0,0v0.2l0.1,0.4l0.4,1.5l0.2,0.6l0.1,0.2l0.2,0.9
		c0.2,0.6,0.3,1.2,0.4,1.8l0.1,0.5c0,0.1,0,0.2,0.1,0.3l0.1,0.4c0.1,0.3,0.1,0.6,0.1,0.9c0.2,1.8-0.2,1.8,0.1,1.4l2.5,0.7
		c-0.4,0.2-0.7,0.3-1.1,0.4l-0.5,0.1h-0.2l9.5-1.3h0.1l1.2-0.2l0.6-0.1h0.3h0.2l0,0v-0.2V96c0-0.3,0.1-0.5,0.1-0.8
		c0-0.6,0.2-1.2,0.5-1.7c0.3-0.5,0.4-1,0.5-1.5c0.1-0.5,0.1-0.9,0.1-1.4c0-0.3-0.1-0.6-0.2-0.9c-0.2-0.1-0.2,0-0.4,0
		c-0.4-0.2-0.7-0.4-1-0.7l0,0l-0.9-0.8l-0.9-0.9l-0.9-0.9l-0.4-0.5l-0.2-0.2c-0.1-0.1-0.1-0.2-0.3-0.1l-1,0.5l-0.5,0.2l-0.1,0.1
		h-0.1l-4.1,2l0,0l0.2-0.1c0.3-0.1,0.5-0.3,0.8-0.4l1-0.4c0.4-0.2,0.8-0.3,1.2-0.5l0.6-0.2l0.4-0.1l0,0c0,0,0,0,0-0.1
		c-0.1-0.3-0.2-0.9-0.4-1.9l-0.2-0.8l-0.2-0.9c-0.2-0.7-0.4-1.5-0.6-2.2c-0.4-1.3-0.9-2.6-1.5-3.8c-0.8-1.8-2-3.5-3.3-5
		c-1.6-1.3-2.3-1.4-2.2-1.3c0.4,0.5,0.8,1,1.3,1.5c1.3,1.5,2.5,3.3,0.9,2c-1.4-1.4-3-2.6-4.7-3.6l-0.7-0.5c-0.1,0-0.1-0.1-0.1-0.1
		c-0.1-0.1-0.1-0.2-0.1-0.2c-0.1-0.2-0.1-0.3-0.3-0.3c-0.3,0.1-0.7,0.3-1,0.4c0.5-0.4,1-0.8,1.5-1.2c-0.3,0.1-0.6,0.1-0.9,0.1
		c-0.1-0.2-0.3-0.4-0.4-0.5c-0.3-0.2-0.5-0.4-0.8-0.6c-0.6-0.3-1.1-0.8-1.4-1.4c-1.4-1.8-3-3.4-4.6-5c1.8-0.1-1.6-4.6,1.9-1.2
		c-1.8-2.2,2-8.8,0.3-8.9c-1.6,1.7-2.9,3.6-4.2,5.6c-0.3,0.1-0.9-0.6-1.3-1.2s-0.6-0.9-0.8-0.8c0.3-0.9,0.5-1.9,0.7-2.8
		c0.2-0.9,0.1-1.9-0.1-2.8c0.6-0.7,1.2,0,1.7,0.9s0.8,1.8,0.9,2.2c1.2-0.6,1.3-1.4,1.3-2.5c-0.1-0.5,0-1,0.2-1.5
		c0.2-0.4,0.6-0.4,1.4,0c-0.2-0.6-0.6-1.1-1-1.5c-0.2-0.1-0.4,0.1-0.5,0.4c-0.1,0.3-0.2,0.5-0.4,0.7c-0.2,0.1-0.5,0-1-0.6l-0.3-1.2
		l-0.2-0.6l-0.1-0.3l-2.5,1.1c-1.6,0.6-3.2,1.1-4.8,1.4c1.2-0.2,2.4-0.6,3.6-1l1-0.4l0.5-0.2l0.3-0.1l0,0l1.6-0.7l0,0v0.1
		c0.1,0.3,0.1,0.7,0.2,1c-0.1-0.2-0.3-0.4-0.4-0.6l-0.2-0.3l0,0l0,0l-1.2,0.5l-0.2,0.1l-0.3,0.1c-0.9,0.4-1.7,0.7-2.4,0.9
		c-1.1,0.4-2.3,0.6-3.5,0.7c-0.6,0.1-1.2,0-1.8-0.2c-0.2-0.1,0.1-0.1,0.8,0.9l13.8,18.3l-5-25c-0.2-0.8-0.4-1.7-0.6-2.4
		c-0.3-0.9-0.7-1.8-1.2-2.7c-0.6-0.7-1.3-1.3-2-1.9c-0.3-0.2-0.6-0.4-0.9-0.6c-0.3-0.2-0.3-0.2-0.5-0.3l-0.4-0.2
		c-0.7-0.4-1.4-0.7-2.2-0.7h-0.3l-0.1,0.2l-2.2,3.1c-0.2,0.3-0.4,0.5-0.6,0.8l-0.3,0.4l-0.2,0.2c-0.2,0.3-0.4,0.5-0.6,0.7
		c-0.2,0.1-0.2,0.2-0.2,0.2l-0.2,0.2l-0.3,0.2l-0.2,0.1l0,0h0.1c0.1,0,0.1-0.1,0.2-0.1l1.6,10.4c0.8-0.4,1.6-0.8,2.3-1.3
		c0.8-0.6,1.6-1.4,2.2-2.3c-0.1-0.4-0.2-0.7-0.3-1.1c0-0.2-0.1-0.4-0.1-0.6c0-0.2,0.1-0.1,0.1-0.2c0.2-0.2,0.4-0.5,0.6-0.8l0.1-0.2
		c0.1-0.1,0.2-0.1,0.3-0.1l0.7-0.2c0.2-0.3,0.3-0.7,0.3-1c0.2-0.7,0.4-1.4,0.7-2.1c0.2,1,0.4,2,0.6,3c0.4-1.2,0.7-2.4,1-3.4
		c0.1-0.5,0.3-0.9,0.4-1.3v-0.1l-0.1-0.2l-0.2-0.3c-0.1-0.2-0.3-0.5-0.1-0.5c0.2-0.2,0.4-0.4,0.7-0.5l0.3-0.2c0.1,0,0.1-0.1,0.2-0.1
		l0.2-0.2c0.6-0.6,1.2-1.3,1.9-2c-0.1,1.1-0.6,2.2-1.5,2.9l-0.4,0.3l-0.2,0.2l0,0c0,0,0,0.1,0.1,0.1l0.1,0.2
		c0.2,0.2,0.4,0.5,0.6,0.7c0.1,0.1,0.2,0.2,0.2,0.3c0.1,0.1,0.1,0.2,0.2,0.3l0.1-0.4c0-0.1-0.2-0.3-0.2-0.4l-0.3-0.4l-0.1-0.2
		c0-0.1,0.1-0.1,0.1-0.1l0.4-0.4c0.1-0.1,0.2-0.2,0.4-0.3l0.2-0.1l0.1-0.1l0.2-0.2l0.6-0.7l1.2-1.3c-0.5-0.1-0.5-0.6-0.6-1.1
		c-0.5-0.6-0.9-0.9-1.2-0.1c-0.5,0.4-0.9,0.8-1.3,1.2c0.1-0.5,0.2-0.9,0.2-1.4c-0.5-1.2-1.1-2.2-1.5-3.3c-0.1-0.3-0.2-0.5-0.3-0.8
		s-0.2-0.4-0.3-0.6c-0.2-0.4-0.4-0.8-0.6-1.3c-0.4-1.1-0.7-2.1-0.8-3.3c-0.2-1.4-0.4-2.9-0.3-4.3c1-1.7,1.5-0.8,2,0.3
		c0.5,1.1,1,2.5,2,1.8c0.2-2.9-0.7-5.8-2.5-8.1c-1.4-2-2.9-3.7-2.7-6c0.4-1.9,0.4-4,0-5.9c-0.1-0.4-0.2-0.7-0.3-1.1
		c0-0.2-0.1-0.4-0.1-0.6l-0.1-0.3c0-0.1,0-0.3-0.1-0.4c0-0.2-0.1-0.3-0.1-0.5c0,0,0-0.1-0.1-0.1l0,0h-0.2l-0.5-0.1l-0.7-0.1
		l-0.4-0.1h-0.1l0,0l1.8,0.4h-0.1l-0.2-0.1l-0.8-0.2l-3.2-1c0-0.2,0.1-0.3,0.1-0.5c0.1-0.3,0.3-0.6,0.5-0.9
		c-0.2,0.3-0.1,0.4,0.1,0.1c0.3-0.3,0.6-0.5,1-0.6l0.9,0.1l-0.8-0.1l0,0c0-0.3,0-0.6,0-0.8l0.1,0.8l0.7,0.1l0,0l-0.6-0.1l0,0
		c-0.1-1.1,0-1.9,0.1-1.5c0,0,0,0-0.1-0.2l0,0C-145.8-7-146-7.5-146-8c0-0.2,0-0.5,0-0.8V-9h0.2l0.7-0.1l5.6-0.6l0.7-0.1h0.1
		l-3.3,0.2h0.1h0.4h0.9l1.8-0.1c-0.1-0.5-0.2-1-0.2-1.5c-0.2-2.5-0.5-5-0.9-7.5l-1.6,0.7c-0.3-1.6-0.7-3.5-0.9-5.4
		c-0.1-0.9-0.1-1.9-0.1-2.8c0-0.9,0.1-1.9,0.3-2.8c-0.1-5.3-1.7-4.2-3.1-8.5c1.6-2.1,3.4-1.7,5.1-0.8c-0.9,1.3-0.6,3.8-1.3,6
		c0.2,1.6,0.6,3.3,1,4.9l0.3,1.2c0.1,0.4,0.2,0.8,0.3,1.1l0.6,2c1,2.8,1.4,5.8,1.2,8.8c2,1.5,1.9,0.3,1.4-1.6
		c-0.5-1.9-1.2-4.4-0.5-5.8c0.2,0.1,0.3,0.3,0.4,0.5c0-0.2,0-0.5,0.1-0.7c0.4,2,1.1,5.8,3.1,6.5c-0.2-1.4-0.9-2.6-2-3.5
		c-0.7-0.8-1.2-1.7-0.3-3.8c-0.2-0.7-0.2-1.4,0-2.1c0.1-0.3,0.2-0.7,0.4-1.1c0.2-0.4,0.4-0.7,0.6-1.1c0.8-1.2,1.5-2.4,2-3.7
		c-1.3-2.6-4.5-2.9-3.4-8.9l2,2.8c0.6-6.8-3-3.5-2.4-9.8c-0.4,2.2-2-2.3-2.4,1.8c-1-2.2-0.9-6.8,0.1-10c-0.2-0.9-0.7-0.3-1.5-0.5
		c-2,3.5,0.9,6-1.5,8.9l2.1,2.9c-1.1,3.4-3.1,3.6-3.9,1.4c0,1,0.3,1.9-0.2,2.6c-3.7,0.3,1.6-4.1-1.3-5.6l0.1,2.5
		c-2.4,0.9-1.6-6-1.2-9.2c1.4-3.5,2.3-6.8,4-6.8c0,1.6,0.1,3.2,0.2,4.9c1.6-2.3-0.1-6.2,0.4-9c0.3-0.2,0.5-0.4,0.6-0.7
		c-0.1,0.1-0.3,0.2-0.5,0.2c0.1-0.6,0.5-1.1,0.9-1.5c0.5-2.4,0.1-6.2,1-8.3h-1.5l0.8,0.5c-0.5,2.2-1.9,5.1-2.7,3.2
		c-0.1-2.6,0.7-4.1,1.6-5c0.4-0.4,1-0.7,1.5-1c0.4-0.2,0.9-0.4,1.4-0.6c0.5,0.3,0.8,0.8,0.7,1.4c0,0.7-0.2,1.3-0.4,1.9
		c-0.5,1.4-1.1,2.9-0.9,4.2c1.3-0.6,1.5-1.8,1.8-3.6c0.1-0.9,0.3-1.8,0.5-2.9l0.1-0.4l0.1-0.2c0.1-0.1,0.1-0.3,0.2-0.4
		c0.2-0.3,0.4-0.5,0.7-0.7c0.3,0.3,0.6,0.7,0.7,1.1c0,0.1,0,0.3,0,0.4l-0.1,0.3l-0.1,0.5c-0.3,1.4-0.6,2.6,0.5,3.4
		c0.3-0.9,0.4-1.7,0.5-2.6c0-0.4,0-0.7,0-1.1c0-0.1,0-0.2,0-0.2v-0.1c0-0.1-0.1-0.1-0.1-0.2c-0.2-0.5-0.2-1.2,0.3-1.3
		c0.3,0.3,0.6,0.6,0.8,1c0.3,0.4,0.8,0.7,1.3,0.8c0.1,0,0.2,0,0.4,0c0.2,0.1-0.2-0.1-0.3-0.1s-0.3-0.2-0.4-0.2
		c0.2,0.1,0.5,0.3,0.7,0.4l0.3,0.1l0.2,0.1l0.4,0.1l0.4,0.1h-0.2c-0.2,0-0.4-0.1-0.3-0.1l0.3,0.1l0.4,0.1h0.2h0.1l0,0l2.2,0.4l0,0
		v0.2l0.1-0.2l-2.4-0.4l-0.2-0.1l-0.5-0.1c-0.3-0.1-0.7-0.3-1-0.4c-0.3-0.2-0.7-0.4-1-0.6c-0.2-0.2-0.4-0.3-0.6-0.6
		c0.1,0.2,0.3,0.3,0.5,0.4l0,0c-0.2-0.1-0.3-0.2-0.4-0.4c-0.1-0.1-0.1-0.1,0,0c0.2,0.3,0.3,0.7,0.4,1l0,0l-7.3-9.1l0,0l7.4,9.3
		c0-0.2-0.1-0.4-0.2-0.6l-0.1-0.2l-0.1-0.1l-0.1-0.1c0,0,0,0,0.1,0.2c0.1,0.1,0.1,0.2,0.1,0.3c0.1,0.2,0.1,0.3,0.2,0.5l-7.4-9.1
		c-0.1,0-0.2,0-0.3,0l19.2,1.5c0-1.2-0.1-2.3-0.2-3.5l-8.4,14.6c1.8-0.9,3.4-2.1,4.8-3.6c1.3-1.4,2.4-3.1,3.1-4.9
		c-0.3,0.3-0.6,0.7-0.8,1.1c-0.5,0.8-1.1,1.6-1.8,2.3c-0.9,1-1.8,1.8-2.9,2.5c-0.5,0.3-1,0.6-1.5,0.9c-0.4,0.2-0.9,0.4-1.4,0.6
		l7.7-13.4c-0.2,1.4-0.5,2-1,0.1l-7.1,12.4l7.1-12.4c0,0,0,0-0.1,0l-7,12.3l0,0l0,0l0.1-0.1l0.4-0.2c1.7-0.8,3.1-1.9,4.3-3.3
		c1-1.2,1.7-2.5,2.2-4c0.2-0.7,0.4-1.5,0.5-2.2c0-0.1,0-0.3,0-0.4l0,0l0,0l-1.1-0.2c-1.7-0.3-3.3-0.6-5-1l-4.2,10.5
		c0.2-0.2,0.4-0.4,0.6-0.6l-2.6-22.4c-0.2,0.2-0.4,0.4-0.7,0.7l11.6,13.3c-0.1-0.9-0.4-1.7-1-2.4c-0.1-0.1-0.2-0.2-0.3-0.2l-0.2-0.1
		l0,0h-0.1l-0.6-0.2l-0.7-0.2c-0.4-0.1-0.8-0.2-1.2-0.4l-0.3-0.1l-0.2-0.1l-0.4-0.1l-0.4-0.2l-0.2-0.1l-0.1-0.1
		c-0.2-0.1-0.3-0.2-0.5-0.2c-0.2-0.1-0.4-0.2-0.5-0.3c-0.1,0-0.1-0.1-0.2-0.2l0,0c0.1,0.1,0.1,0.1,0.1,0.2c0.4,0.8,0.6,1.6,0.7,2.5
		l2.7-5.1l0,0l4.3,2.5c0.3-0.3,0.6-0.5,1-0.6c0-1.2,0.2-2.4,0.6-3.6c0.3-0.9,0.7-1.8,1.2-2.6c0.2-0.4,0.5-0.7,0.8-1
		c0.2-0.1,0.3-0.3,0.5-0.4c0.3-0.3,0.6-0.5,0.9-0.6c1.6-0.9,2.9-2.1,3.9-3.7c-0.3,0.5-0.5,1-0.6,1.6c0.1,0.4,0.4,0.5,0.9,0.5
		c0.5,0,0.9,0.1,1.4,0.1c0.2,0,0.3,0.1,0.4,0.2c0,0,0.1,0,0.1,0.1v-0.1c-0.1-0.3-0.3-0.7-0.3-0.8c0.1,0.2,0.2,0.5,0.3,0.8l0.2,0.4
		c0,0.1,0,0.1,0.1,0.2l0,0c0,0,0,0.1,0,0.2s-0.1,0.3-0.2,0.5c-0.2,0.5-0.3,0.9-0.2,1.4c0,0.9,0.4,1.7,1.1,2.3
		c0.2-0.2,0.5-0.4,0.6-0.7c0.1-0.2,0.2-0.3,0.2-0.5c0-0.1,0-0.2,0-0.2s-0.1-0.2-0.1-0.2l-0.1-0.1c0,0.1-0.2-0.4-0.3-0.6
		s-0.3-0.6-0.4-0.8c-0.2-0.5-0.5-1-0.5-1.2l-0.1-0.3c0,0.1,0.1,0.1,0.1,0.2c0,0.1,0,0.1,0.1,0.2c0,0.1,0.1,0.2,0.1,0.3
		c0.2,0.3,0.1,0.1,0,0.1s0,0,0,0l-0.1-0.3c0-0.1-0.1-0.2-0.1-0.2c-0.1-0.2-0.2-0.5-0.3-0.7l-0.2-0.6c0-0.1-0.1-0.2-0.1-0.4
		c0-0.1-0.1-0.4-0.1-0.5c0-0.1,0-0.2-0.1-0.3v-0.1c0,0,0-0.1,0,0c0,0,0,0.1,0,0.1l-0.4,3.5l1.8-0.5c1-0.3,1.9-0.7,2.8-1.1l4.3-2
		l-0.7-0.8c0,0-0.1-0.1,0.5,0.2c0.2,0.1,0.5,0.3,0.6,0.5c0.1,0.2,0.2,0.5,0.4,0.8c0.1,0.1,0.1,0.3,0.2,0.4l0.1,0.1l0,0v-0.1
		l-0.2-0.3l-0.2-0.3c0,0,0,0,0.1,0.2s0.4,0.5,0.5,0.7s0.5,0.7,0.4,0.5c0,0,0,0,0-0.1s0-0.2,0-0.4c0-0.3-0.1-0.7-0.1-1
		c-0.1-0.3-0.1-0.7,0.1-1c0.2-0.3,0.7-0.6,2.1-1.1c-0.2,0.4-0.6,0.7,0,0.9c0.7-0.2,1.4-0.5,2-0.8c0.5-0.3,1.1-0.7,1.5-1.2
		c0.7-0.6,1.2-1.4,1.4-2.4c3.9,1.5,7.1-3.8,8-0.9c5.5-3.6-1.6-1-0.9-2.5c1.8-2.3,6.8-3.5,8.3-3.8c-1.4,0.8-2.4,2.1-4,2.4l2.2,1.3
		c8-2.2,2.5-6.5,10.4-8.2c-3.2,2.7-0.5,2-1.7,4.2c0.9-1,6.7-3.2,2.6-3c2.2-0.9,4.4-1.6,6.7-2.1c2-1.9,4.3-3.7,5-5.6
		c2.9-1.2,6.1-1.8,9.3-1.8c7-5.2,15.2-6.5,22.6-11.8l-0.6,0.2c6.4-2.6-4-1.2,2.6-4.2c0.1,0.9,0.6,1.2,1.3,1.1c1-0.1,1.9-0.3,2.8-0.6
		c0.4-0.2,0.9-0.3,1.3-0.5c0.2-0.1,0.5-0.2,0.7-0.2h0.1l0,0l0,0l-0.1-0.1l-0.3-0.6l-0.4-0.8c-0.2-0.5-0.5-1.1-0.7-1.6
		c-0.2-0.4-0.3-0.6-0.4-0.9c-0.3-0.7-0.5-1.4-0.7-2.1c-0.1-0.3-0.1-0.6-0.1-0.9c0,0,0,0,0,0.1c0,0,0,0.1,0,0.2l-0.1,0.2
		c0,0.1-0.1,0.2-0.1,0.3l-4,8.4l7.3-0.9c2.4-0.3,4.8-0.9,7.1-1.9c2-0.8,3.6-1.6,5.1-2.3c1.3-0.7,2.6-1.2,4-1.6
		c1.6-0.4,3.2-0.6,4.8-0.5c0,0.5-0.3,1.2-1.6,1.6c5.4-0.3,9.4-1.1,14.1-0.9l-0.2,0.3c3.2,1,6.4,1.6,9.7,1.9l3.2,0.4
		c1.1,0.1,2.3,0.2,3.5,0.4s2.4,0.2,3.6,0.3l1.9,0.1l1,0.1h0.5h0.2h0.1c0.2,0,0.3,0,0.5-0.1c-0.3,0.3-0.5,1.2-0.7,1.5
		c0.2,0.2,0.4,0.4,0.6,0.5c0.4,0.3,0.8,0.5,1.2,0.7c0.6,0.3,1.3,0.6,1.9,0.9c2.6,1.1,5.1,1.9,7.1,1.6c3.7,4.8,3.6,1,8.7,6.5
		c0.1,0.6-0.8,0-1.3-0.1c2,1.7,4.2,3.2,6.5,4.4l-7.7-11.4c0,0.4,0.1,0.9,0.2,1.3c0.1,0.5,0.2,1,0.4,1.6c0.4,1.4,1,2.8,1.8,4
		c2.1,3.5,5.5,6.1,9.4,7.2c2.1,0.6,4.3,0.7,6.5,0.4l-2.4-11c0,0,0-0.1,0-0.1l-13.1-1.8c0.3,1.8,0.8,3.5,1.6,5.2
		c0.3,0.6,0.6,1.1,0.9,1.6c0.4,0.6,0.8,1.1,1.2,1.7c0.9,1.1,2,2.1,3.3,2.9c2,1.3,4.3,2.2,6.7,2.4c1.4,0.2,2.8,0.1,4.2-0.1l-2.3-10.2
		l0,0l-2.5,9.7c0.5-0.7,1.6-1.1,3.2-0.7c1,0.3,2,0.8,2.9,1.4c0.6,0.4,1.3,0.8,2,1.3l1.3,0.9l0.6,0.4l0.5,0.3
		c-0.4,0.8-0.8,1.1-1.4,1.1c-0.2,0-0.4-0.1-0.6-0.1c-0.2-0.1-0.4-0.2-0.6-0.3c-0.4-0.2-0.9-0.4-1.3-0.7c-1.7-1-2.9-1.8-3.8-0.8
		c1,0.2,2,0.6,2.9,1c0.6,0.3,1.2,0.6,1.7,1c0.3,0.2,0.6,0.5,1,0.7c0.2,0.2,0.4,0.4,0.6,0.6c-0.9,0.2-1.1,0.4-1.2,0.6
		c-0.1,0.2-0.2,0.4-1.2,0.5c0.1,0.2,0.3,0.3,0.5,0.4c0.1,0.1,0.3,0.2,0.4,0.2c0.3,0.1,0.7,0.2,1,0.2c0.8,0.1,1.7,0.2,2.5,0.1
		c1.1-0.1,2.2-0.1,3.4,0c0.5-0.5,0.2-1.2-1.2-2c1.4-0.4,3.1,0.8,5,2.3c1.8,1.6,3.7,3.1,5.7,4.4c-1-0.9-4.1-4.1-1.8-4.4
		c4.1,4.1,7.7,2.8,11.8,4.4c3.2,4.8-5-0.4-5.7,2.2c0.1,1.3,0.6,4.2-1.8,3.4c1.6,1.6,3.5,2.9,5.5,3.8l0.4,0.2l0.2,0.1l0.3,0.2
		l1.1,0.6c0.7,0.4,1.4,0.7,2.1,1c1.4,0.6,2.5,1,3.7,1.6l-0.5,0.5c1.8,0.9,3.7,1.7,5.6,2.2l2.9,0.9l1.5,1.6c1.4,0.9,2.7,2.1,3.7,3.5
		l-1.6-2.4c0.8,0.5,1.6,1,2.3,1.6c0.5,0.3,1,0.6,1.5,0.8c0.2,0.1,0.4,0.1,0.6,0.1c0.2,0,0.4,0,0.6-0.1c-0.4,0.4-0.5,1.1-0.6,1.6
		c-0.1,0.5-0.5,0.9-1,1.1c1.1-0.6,2.4-0.3,3.1,0.8c0,0,0,0,0,0c0.4,0.6,0.6,0.6,1.2,3c0.3,0.9,0.6,1.8,1,2.7
		c0.4,0.8,0.9,1.5,1.5,2.2c0.4,0.5,0.8,0.9,1.2,1.3c0.3,0.3,0.6,0.5,1,0.8c0.6,0.4,1.2,0.7,1.9,0.8c0.1,1.9-1.9,1.6-2.8,1.6
		c-0.4-0.8-0.7-1.4-1-2l-0.1-0.2l-0.1-0.3l-0.3-0.6c-0.2-0.3-0.4-0.7-0.5-1c-0.8-1.6-1.7-3.2-2.7-4.7c0.2,1.1,0.5,2.1,0.8,2.9
		s0.6,1.6,0.8,2.3c0.3,0.7,0.5,1.4,0.6,2.1c0,0.4-0.2,0.6-0.5,0.6c1.1,0.5,2.1,1.2,3,2c0.5,0.4,1,0.9,1.6,1.3l0.8,0.7l0.9,0.8
		c2.3,2.1,4.5,3.5,6,3.5c0.2,0.7,0.4,1.3,0.5,1.9c0.1,0.3,0.2,0.5,0.2,0.8c0,0.2,0,0.4,0,0.7c0,0.8-0.5,1.6-1.3,1.7
		c1.4,1.4,2.2,1.8,2.8,1.6s0.9-1,1.2-1.7s0.5-1.5,1.1-1.5s1.4,0.7,2.7,3c0.3,2.5-0.8,1.8-1.6,1.2s-1.4-1-0.3,1.9l-0.8-0.9
		c-1.1,3-0.1,3.3,1.6,3.5s4,0.4,4.8,3.1c-2.3,1.5-3-2.9-3.6,1.2c1.1,1.9,2.4,3.6,4,5.1c0.8,0.8,1.4,1.7,1.9,2.7
		c0.6,1.2,1.1,2.4,1.5,3.7c-0.5-0.1-0.9-0.3-1.4-0.4c0.4,0.8,0.8,1.7,1.1,2.6c0.3,1,0.5,2,0.7,3c0.4,2.1,0.5,4.5,0.7,6.1
		c-0.5,0.2-0.5-0.3-0.7-0.9c-0.2,3,0.1,3.8,0.4,4.2s0.4,0.8-0.2,3.7l1.5,1.4c0.5-3,1.5-8.1-0.3-11c0.9,1.5,1.6,0.2,2.4-1.4
		s1.4-3.4,2.7-2.8l-1-0.5c0.3-1.2,0.4-2.5,0.4-3.7c0-0.7,0-1.3-0.1-2c0-0.3-0.1-0.7-0.1-1l-0.1-0.8c-0.1-1.1-0.2-2.2-0.2-3.2
		c-0.1-1.3-0.2-2.7-0.3-4c-0.7-5.9-2.3-11.6-4.8-17c-1.4-1.2-2.7-2.5-3.9-4c-0.3-0.3-0.5-0.7-0.8-1l-0.7-1c-0.4-0.6-0.8-1.2-1.1-1.8
		c-0.7-1.2-1.4-2.4-2.1-3.6c-0.8-1.4-1.8-2.6-3-3.8c-1.2,0.3-1.7,0.2-2-0.3s-0.6-1.4-1-2.4c-0.1-0.3-0.3-0.6-0.5-0.9
		s-0.3-0.8-0.4-1.3c0.4,1.1,1,0.9,1.5,0.4c0.3-0.3,0.5-0.6,0.6-1c0.1-0.2,0.2-0.4,0.2-0.5c0.1-0.2,0.1-0.4,0.1-0.6
		c-0.6-0.8-1.1-1.6-1.4-2.5c-0.4-0.9-0.9-1.8-1.3-2.8c0.1-1,0-2-0.3-3c-0.1-0.4-0.2-0.7-0.3-1.1c-0.1-0.4-0.3-0.8-0.5-1.1
		c-0.5-0.7-1-1.4-1.5-2.1s-1.3-1.4-1.9-2c-0.4-0.5-0.9-0.9-1.4-1.3c-0.8-0.7-1.7-1.1-2.8-1.3c-2.2-3.2,1.3-0.2,2.4-0.1
		c-0.1-2-2.6-1.3-3.3-2.3l1.3,1.4c-0.1-0.2-0.2-0.4-0.2-0.7c0,0,0.3-0.1,0.8,0.2l-1.4-1.5c0,0,0,0,0.1,0h-0.1l1.4,1.4
		c-1.3-1.7-2.8-3.2-4.5-4.6c-1.3-1.1-2.5-2.1-3.6-2.9l-3.2-2.4c-1-0.7-2-1.5-2.9-2.2c-0.4,0.5-0.9,0.8-1.5,0.8
		c-0.2,0-0.5-0.1-0.7-0.2c-0.1-0.1-0.2-0.1-0.3-0.2l-0.2-0.1l-0.2-0.2c-1.4-1.1-2.8-2.6-4.2-3.1c1.3-0.2-1.9-3.1-3-4.7l-4.1-0.4
		c-3.8-0.6-2.8-4-7.1-5.7l0.5,1.1c-1.6-0.6-3.8-2.4-6.1-4.5l-1.6-1.6c-0.3-0.2-0.5-0.5-0.8-0.8l-0.4-0.6c-0.6-0.8-1.1-1.6-1.5-2.5
		c-3-1.3-6.9-3.4-11.4-4.5l1.1,0.4c-0.8-0.3-1.5-0.5-2.3-0.7l-2.9-0.7l0.6,5.5c0.1,0.6,0.1,1.1,0,1.7c0,0.1-0.1,0.3-0.1,0.4v0.1l0,0
		c0.1-0.1,0.3-0.2,0.5-0.3c0.5-0.2,0.9-0.3,1.4-0.3l14.6-1.5l-14.5-5.7c-0.7-0.3-1.5-0.5-2.2-0.7l-2.9-0.7l0.6,5.3
		c0.1,0.5,0.1,1.1,0,1.6c0,0.2-0.1,0.4-0.2,0.6c0.1-0.1,0.3-0.2,0.5-0.3c0.5-0.2,0.9-0.3,1.4-0.3l11.6-1.2L73.5-146
		c-5.1-2.7-10-5.6-14.7-8.9l-7.1-4.7l-1.8-1.2l-1-0.6l-0.6-0.3l-0.8-0.4c-2.1-1.1-4.3-1.9-6.7-2.3l-0.5-0.1l-0.3-0.1l-0.5-0.1
		l-1.1-0.3l-2.3-0.6l-4.9-1.5l-0.7-0.2l-0.7-0.2l-1.7-0.4c-1.2-0.3-2.4-0.5-3.6-0.7c-2.5-0.4-5-0.6-7.6-0.7
		c-2.3,0.8,1.6,1.6-0.3,2.9c-3.4,0.2-4.2,0.1-7.3,0.2c2.8,0.7,2.3-0.2,2,0.6c1.6-0.3,3.2-0.6,4.8-0.8c0.2,0.2-0.3,0.3,0.1,0.8
		c1.8-0.4,3.7-0.5,5.6-0.2c-1.3,0.3-2.5,0.7-3.6,1.3c-1.4,0.6-2.9,0.7-4.3,0.2c0.3-0.3,0.8-0.4,1.9-0.5c-3.3-0.3-3.4,0.8-5.9,0.3
		c-3-0.4-2.2,0.3-2.7-0.6c-3.1-0.2-6.3-0.2-9.4,0c-1,0.8-2.1,1.5-3.3,1.9c-0.6,0.2-1.1,0.4-1.7,0.5c-0.6,0.1-1.2,0.2-1.8,0.3
		c-2.3,0.3-4.2,0.3-4.9,0.4c0.1-1.1,1.5-1.8,3.2-2.5l1.3-0.5c0.4-0.2,0.9-0.4,1.3-0.6c0.7-0.3,1.4-0.8,1.9-1.4l-1.9-0.3
		c-0.3,0-0.6-0.1-1-0.1l-1.1-0.1l0.2,1.6c-1.8,0.4-3.4,0.8-5,1.2l0.2-0.4c-0.3,0.8-0.6,1.6-1.8,1.4c-0.2-0.2-0.8-0.4-0.4-0.7
		l-2.3,1.8c0.4-1-0.1-1-0.8-0.9s-1.4,0.1-1.5-0.9c-0.8,0.1-1.4,0.2-1.9,0.3l7.6,0.8c-4.3-1.7-9.1-1.6-13.3,0.3
		c-0.8,0.4-1.6,0.8-2.3,1.2c-0.2,0.2-0.2,0.2-0.2,0.2v0.1l-2.5,1.7c-0.9,0.5-1.7,1.1-2.6,1.5c-2.2,1.1-4.5,1.9-6.9,2.2
		c1.7,0.2-1.2,4-3.8,4.9c-1.6,0.3-2.2,0.1-1.6-1l-2.8,2.5c-5.4-0.7-8.4,3-14.7,5.1l-0.1-0.9c-1.8,2.3-4.3,4.1-7,5.2l-0.2-1.8
		c-4.5,0.9-1.4,4.7-6.3,5.9c0.8,1.6,4,1.1,5.2,2.5c-1.9-1.2-6.7,0.9-5,1.5c-4.1,2.8-3.1,1.4-3.6,1.2l-2.1,2.2
		c-3.2,1.4-2.1-1.7-1.4-3.2c-2,3.1-5.8,3.4-9.2,4.7l1-1.4l-4.4,1.8c-2.2,2.7-6.1,4.7-10,5.7l1.4-3.4c-3.1,0.1-0.9,1.4-1.4,2.1
		l-0.6,0.5l-0.5,0.4c-0.3,0.2-0.6,0.4-1,0.6c-0.7,0.3-1.5,0.6-2.3,0.7c-2.1,0.3-4.1,0.9-6,1.7c-1.3,1.4-2.5,2.9-3.6,4.4l10.1,5.8
		c0-0.1,0-0.1,0-0.1l0.8-11c-2.5,0-5,0.3-7.5,1.1c-1.7,0.6-3.4,1.2-5,2c-0.7,0.4-1.5,0.7-2.2,0.8c-0.1,0-0.1,0-0.2-0.1l0,0l0.4,0.8
		l0.5,0.8c0.3,0.5,0.6,1,0.8,1.5l0.4,0.8l0.3,0.5c0.2,0.3,0.3,0.6,0.5,0.9c0.3,0.8,0.4,1,0.6,1.4l0.1,0.3v0.1l0,0l0,0l-2.8-7.9l0,0
		h-0.1l-0.6,0.2l-1.1,0.3c-0.7,0.2-1.5,0.6-2.2,0.9c-1.4,0.7-2.8,1.5-4,2.4C-137.2-111.2-139-108.9-140-106.3z M99.7,129.6l-0.8,0.1
		C100.1,128.4,100.6,127.5,99.7,129.6z M63.2,147.5c4.2-2.6,3.2-1,3.7-0.5c-4.7,1.1-6.9,2.7-11.1,3.4c0.6,0.2,1.1,0.6,1.5,1.1
		c-1.6,0.4-3.3,0.5-4.3-0.5c0.6-1.5,3.7-2.2,6.4-2.6S64.4,147.8,63.2,147.5z M125.6,86c0.1,0.3,0.1,0.5,0.1,0.8l0,0L125.6,86z
		 M112.6,104.4c-0.6-0.1-1.3,0-1.8,0.3C111.6,104.8,112.2,105,112.6,104.4L112.6,104.4z M74.8,128.7c-1.3-0.4-3.2,0.9-4.6,1.8
		C71.8,130,73.3,129.4,74.8,128.7L74.8,128.7z M-138.9,58.2c1.1,0.9,3.5,2.6,2.7,0.1c-1.4-0.5-1.4-3.1-2.9-3c0-0.1,0-0.1,0-0.2
		c0,0.3,0,0.7,0,1c0,0.3,0,0.6,0,0.9C-139.1,57.5-139.1,57.9-138.9,58.2z M-146.1-66.2c0.9,0.4,1.8,1.6,2.7,1.1
		c0,0.1-0.1,0.3-0.1,0.4c0.4-0.3,0.7-0.5,0.9-0.2c0.4-0.9,0.7-2,0.6-3C-145.1-68.9-145.2-71.4-146.1-66.2L-146.1-66.2z"/>
	<path class="st1" d="M-136.9-19.7c-0.1-0.5,0-0.9-0.1-1.2C-137-20.5-137-20.1-136.9-19.7z"/>
	<path class="st1" d="M-142-67.8c-0.2-0.1-0.7,1.1-1.3,2.7C-142.9-65.4-142.5-66.1-142-67.8z"/>
	<path class="st1" d="M166.4,21.7c0,0.5,0.1,1,0.1,1.5c0.5-0.9,1-1.9,1.4-2.9c0-1.7-0.5-3.4-1.5-4.8c-0.7-0.6-1.4-1.2-2.2-1.7
		c0.6,1.8,0.8,3.7,0.6,5.7c-0.1,1.9-0.5,3.9-0.9,6.6c0.4-0.7,0.9-1.4,1.3-2.2S166.1,22.5,166.4,21.7z"/>
	<path class="st1" d="M155.5,22.1c-0.5,0.3-1.8,1.1-2,1.6l0.8,0.8C154.7,23.8,155.1,23,155.5,22.1z"/>
	<path class="st1" d="M132.7,67.8c0.9-0.9,1.8-1.9,2.7-2.9c-0.1-0.8-1-0.3-1.8,0.4S132.2,67.1,132.7,67.8z"/>
	<path class="st1" d="M156.3,59v-2.5c-1.7,1.4-2.8,4-1.9,4.9C155.1,58.7,155.3,61.1,156.3,59z"/>
	<path class="st1" d="M126.3,76.8c0.8,2.2-3.1,3-2.1,4.7C124.4,80.4,127.8,78.1,126.3,76.8z"/>
	<path class="st1" d="M143.2,84.8c1.1-0.1,1.7-0.8,2.2-1.8c0.5-1.2,1.2-2.3,2-3.3c-0.4,0.6-0.8,1.1-1.4,1.5l-1.5,1.3
		C143.6,83.3,142.9,84,143.2,84.8z"/>
	<path class="st1" d="M117.1,97.8c-0.9-1.1,0.3-2.3,1.8-3.6c0.1,0.8,0,1.6-0.3,2.3c1.3-3.2,1.6-3.2,2.7-5.6c-2.4,1.5-5.4,4-6.4,2.5
		C114.7,95.7,114.5,98.7,117.1,97.8z"/>
	<path class="st1" d="M139.5,90.4c1.8-1.6,3.6-2,5.1-4.4c-1.1-0.1-2.7-0.2-4.4,2.6l-0.7-1.9C136.9,88.5,142.1,87,139.5,90.4z"/>
	<path class="st1" d="M106,103.5l1.5-0.4c0.8-1.4,1.7-2.7,2.8-4c0.9-1,1.4-2.3,1.4-3.7c-1.2,1.3-2.3,2.7-3.3,4.2
		c-0.2,0.4-0.5,0.7-0.7,1s-0.5,0.7-0.7,1.1C106.5,102.2,106.2,102.8,106,103.5z"/>
	<path class="st1" d="M130.2,97.9l1.5,1.8c2.3-2.4-0.7-0.3-0.4-1.5c0.8-0.5,1.9-1.5,1.9-2.4C131.2,98.9,131.7,94.8,130.2,97.9z"/>
	<path class="st1" d="M125,107.8c-0.8,1.3-1.6,2.6-2.4,3.8c1.4-0.2,2.8-0.5,4.2-0.8C129.8,106.5,125.9,109.8,125,107.8z"/>
	<path class="st1" d="M120.1,110.6h-0.6c-0.9,2.3-1.6,4.5-2.4,6.7c0.9-1.7,1.4-2.6,1.8-3.4C119.4,112.8,119.8,111.7,120.1,110.6z"/>
	<path class="st1" d="M50.4,136.5c-0.3,1.1,3.5,1.1,1.6,0.6C52.4,136.1,47.5,136.5,50.4,136.5z"/>
	<path class="st1" d="M70.6,148.2c-2,0-7,3.5-9.2,4.9c1.4-0.8,3.9-1.7,6-2.6S71.1,148.7,70.6,148.2z"/>
	<path class="st1" d="M60.5,153.8l0.9-0.6C61.1,153.3,60.8,153.5,60.5,153.8z"/>
	<path class="st1" d="M-51.7,163.7c-0.3-0.1-0.6-0.1-0.9,0H-51.7z"/>
	<path class="st1" d="M-48.8,163.9c1.1,0.5,2.3,0.7,3.6,0.8c1,0.2,2,0,2.9-0.5c-1.5-0.1-3-0.2-4.5-0.4s-3.1-0.2-4.9-0.2
		C-50.4,164-48.9,165.1-48.8,163.9z"/>
	<path class="st1" d="M-73.7,153.7c1.5,0.1,3.1,1.2,3.1,0.1C-71.2,153.1-74.3,152.7-73.7,153.7z"/>
	<path class="st1" d="M-135.6,39.5c-0.2-0.8-0.5-1.6-0.9-2.3c-0.3-0.7-0.7-1.4-1.2-2c-0.4-0.6-0.8-1.2-1.2-1.7
		c-0.4-0.4-0.7-0.8-1.1-1.2l-0.5-0.5l-0.4-0.3c-0.3-0.2-0.6-0.4-0.8-0.6c-0.3-0.2-0.6-0.4-0.9-0.5c-0.5-0.2-0.6,0-0.8,0.1
		c-0.2,0.2-0.3,0.5-0.4,0.8c0.4,0.3,1.6,1,2.3,1.5l1,0.7l0.7,0.4c0.5,0.3,1,0.7,1.5,1.1c0.5,0.5,0.9,1,1.2,1.5
		C-136.5,37.5-136,38.5-135.6,39.5z"/>
	<path class="st1" d="M-149.9,38.9L-149.9,38.9l2.5,12.2c0.6-0.1,1.2-0.2,1.8-0.4c0.8-0.4,1.6-0.9,2.3-1.5c0.4-0.3,0.8-0.6,1.1-0.9
		l0.5-0.5l0.3-0.3v-0.2l-0.3-1.6c0,0,0-0.1,0-0.1l0,0l0.1-0.1l0.2-0.1l0.4-0.2l-0.5,0.2l-0.2,0.1h0v0.1V46l0.1,0.9l0.1,0.4v0.1
		c0,0-0.1,0.1-0.1,0.1l-0.3,0.3c-0.8,0.8-1.7,1.4-2.7,2c-0.9,0.5-1.8,0.9-2.8,1.2L-149.9,38.9L-149.9,38.9z"/>
	<path class="st1" d="M-134.6,24.8c0.3,0.3,0.6,0.6,0.7,1C-134.2,24.8-134.4,24-134.6,24.8z"/>
	<path class="st1" d="M-133.9,26.3c0-0.2-0.1-0.3-0.1-0.5C-133.9,26-133.9,26.1-133.9,26.3z"/>
	<path class="st1" d="M-134.2,27.5l0.8,0.2c-0.1-0.4-0.3-0.9-0.4-1.3C-133.7,26.7-133.9,27.2-134.2,27.5z"/>
	<path class="st1" d="M-134.6,20.1c-0.7,0.9-1.3,1.9-2,2.9c0.6,1.7,0.8,0.6,1.2-0.3c0.4-0.9,0.9-1.7,2.1-0.4
		C-133.7,21.6-134.1,20.9-134.6,20.1z"/>
	<path class="st1" d="M-135.2,10.2c0.7-2.8-2.5-7,0.1-8.6c-0.1-0.5-0.1-1-0.2-1.3c0-0.2-0.1-0.4-0.1-0.5c-0.1-0.2-0.1-0.4-0.1-0.6
		V-1v-0.1c0-0.1-0.1-0.1-0.1-0.1h-0.1h-0.1h-1c-2.3-0.1-4.4-0.2-4.7-0.2c-2.4-0.3-1.1-0.1,0,0l1.3,0.1h-0.3h-0.3h-0.2
		c-0.4,0-1-0.1-1.8-0.2c-0.5,0-1.4-0.2-1.9-0.3l-0.2-0.1h-0.1l0,0l5.5,1.3h-0.1l-1-0.3l-4.4-1.2l-1.2-0.3l-0.5-0.1l0,0v-0.1
		c0-0.1,0-0.2,0.1-0.2c0.1-0.7,0.5-1.5,1.1-1.7l0,0l0,0c-0.3,0.1-0.6,0.3-0.8,0.6c-0.2,0.4-0.4,0.7-0.5,1.1l-0.1,0.3l5.4,1.6
		l0.7,0.2l0.3,0.1h0.2h0.1l-4.8-1.2l0.2,0.1l0.4,0.1l0.9,0.1l1,0.1c0.5,0.1,1,0.1,1.4,0.1l0.8,0.1h0.4h0.1h0.1
		c0.1,0.2,0.3,0.4,0.3,0.6c0,0.1,0.1,0.3,0.2,0.4c0.1,0.1,0.1,0.2,0.2,0.3c0.3,0.3,0.5,0.6,0.8,0.9c1.2,1,2.3,2,1.5,5.8
		C-135.3,2.7-135.8,9-135.2,10.2z"/>
	<path class="st1" d="M-139.5,11.5c1.3,0.5,1.4-3.1,0.6-4.3C-139.1,8.3-140.9,10-139.5,11.5z"/>
	<path class="st1" d="M-145.4-4.8L-145.4-4.8c0.1,0,0.2,0,0.3,0.1h-0.1L-145.4-4.8l0.3,0.1L-145.4-4.8L-145.4-4.8z"/>
	<path class="st1" d="M-134.8-10.7l0.4,0.7c0,0.1,0.1,0.2,0.2,0.2c0,0,0.1,0,0.1,0h-2.9h-1.2l-2.1,0.1c-0.4,0-0.9,0-1.3,0.1h-0.3
		h-0.1l8.4-0.6h-0.1l-0.8,0.1l-3.4,0.3l-6.8,0.6v0.6c0-0.1,0-0.3,0-0.5l0,0h0.1h0.4l0.8-0.1l3.1-0.3l6.4-0.6h0.4l-8.5,0.6h0.1h0.2
		h0.3h0.7l1.7-0.1c0.8,0,1.7,0,2.5,0h3c0,0,0,0-0.1-0.1s-0.1-0.4-0.1-0.6C-134-11.3-134.2-11.8-134.8-10.7z"/>
	<path class="st1" d="M-132.9-23.4c0.1-0.4,0.1-0.8-0.1-1.2c-0.2-0.4-0.5-0.8-0.9-0.9c-0.4-0.1-0.8,0-0.9,0.4
		c-0.1,0.1-0.1,0.3-0.2,0.4c0,0.1-0.1,0.3-0.1,0.4c-0.1,0.4-0.1,0.8,0,1.2l0.2-0.9C-134.3-23.7-133-25.6-132.9-23.4z"/>
	<path class="st1" d="M-135.7-54.1c-0.2,1.5,0,3.3,0.8,3.1c-0.1-1.4-0.2-2.8-0.2-4.2L-135.7-54.1z"/>
	<path class="st1" d="M-144-54.4c-2.2,1.2-0.2,4.1-1.1,6.9C-144.5-49.7-144.1-52-144-54.4z"/>
	<path class="st1" d="M-132.2-58.5c0.7,1.2-0.1,2.9-0.3,3.9C-131.3-54.9-131.3-57.8-132.2-58.5z"/>
	<path class="st1" d="M-131.9-65.1c1.1-1.2,1.1,0.5,1.8-0.4c1.4-2.7,1.9-5.8,1-7.7c-1,0.6-3.6,1.2-4.3-0.2c-0.2,4.9,3.2,7.8-0.1,9.6
		c1,1.5,2,2.9,3,4.4C-129.4-63-132.6-62.6-131.9-65.1z"/>
	<path class="st1" d="M-140.1-56.6l1.5-2.4c-1.2,0.3-1.2-1.6-1.4-3C-142.6-61.7-140.1-58.1-140.1-56.6z"/>
	<path class="st1" d="M-125.9-85.5l-1.3-0.4l-0.7-0.2c-0.4-0.1-0.9-0.3-1.4-0.5c-0.5-0.2-1-0.4-1.5-0.6c-0.4-0.2-0.7-0.4-1-0.6
		c0.5,0.8,0.8,1.8,0.8,2.7l2.7-5.1l0,0l6,3.3l0.2-0.4l-0.2,0.4l-5.9-3.2l0,0l-2.7,5.1c0-0.5-0.1-0.9-0.3-1.4
		c-0.3-1.2-0.8-1.6-0.5-1.3c0.4,0.3,0.8,0.5,1.2,0.7l0.7,0.3l0.4,0.1l0.2,0.1l0.3,0.1c0.4,0.1,0.8,0.3,1.2,0.4L-125.9-85.5z"/>
	<path class="st1" d="M-131.2-86.7l0.1,0.2c0,0.2,0.1,0.4,0.2,0.7c0.1,0.2,0.1,0.5,0.1,0.8l2.7-5.1l0,0l7.5,4l0.2-2.4l-0.7,2.2
		l-7-3.8l0,0l-2.7,5.1C-130.9-85.6-131-86.2-131.2-86.7z"/>
	<polygon class="st1" points="-118.7,-88.5 -119,-88.3 -119.5,-85.9 	"/>
	<path class="st1" d="M-114.4-90.8c-0.9,0-1.7,0-2.7,0c-0.6,0.3-0.4,0.2-0.4,0.2c0,0-0.1,0-0.1,0c-0.1,0-0.2-0.1-0.2-0.1
		c-0.1,0-0.2,0.1,0.3,0.7c-0.1-0.2-0.1-0.3,0-0.3c0,0,0.1,0,0.1,0.1h0.1l0,0h0.2l0.4-0.1c0.5-0.1,1-0.3,1.4-0.3
		C-115.1-90.7-114.8-90.8-114.4-90.8z"/>
	<path class="st1" d="M-93.1-133.2c-0.6,1.1,0.2,1.4,1.1,1.8l0.6-2.4C-91.8-133.6-92.5-133-93.1-133.2z"/>
	<path class="st1" d="M-85.6-133.4l2.7-3.7c-4.4,1.8-4.3,3.6-7.8,5.7c1.9-0.2,3.4-2.6,5.7-3L-85.6-133.4z"/>
	<path class="st1" d="M-7-165.8c0,0.7,0.2,1,0,1.3c-0.2,0.2-0.4,0.4-0.6,0.5c-0.3,0.2-1,0.5-1.8,1c0.6-0.3,1.2-0.5,1.7-0.8
		s1.1-0.4,1.6-0.6c1.1-0.3,2.2-0.6,3.2-0.9c2.2-0.5,4.6-0.8,7.3-1.2c-1-0.8,3-2.7,0.9-2.1c-2.1,0.6-4.1,1-6,1.6l0.7-1.1
		C-4.4-168.3-2.4-166-7-165.8z"/>
	<path class="st1" d="M155.2-39.6c-0.8-0.4-1.2,0.5-1.5,1.5c1,1.8,1.3,1.1,1.3,0.3S155.1-39.9,155.2-39.6z"/>
	<path class="st2" d="M36.5,150.9c0,0-21.5,7-22.8,7.7S-6.9,162-7.6,162s-6.8,0.6-11.6-0.1s-32.7-4.8-33.4-4.8s-7.1-7.9-7.1-7.9
		s-7.6,2.4-8.6,1.4s-19-10.8-19.9-11.6s-7.6-8.5-7.6-8.5l69.3,9.1L36.5,150.9z"/>
	<path class="st2" d="M-130.4,92.5c-4.6-1.2-8-6.5-7.5-11.6c0.7-1.2,2.1-1.5,3.1-2.2c0.2,1,0.6,2,1.9,1.8c2.1-0.3,3.1,1,4.2,2.8
		c2.1-2,4.1-1.9,6-0.3c-0.8,3-2.2,5.5-5.8,5.8c0.4,0.6,0.5,1,0.6,1c4.7-0.1,7.3,4,11.2,5.5c0.1,0.1,0.1,0.5,0.1,0.8l0,0
		c-1.1,0.3-2.7-0.7-3.4,1.4c3.4,0.3,5.2,2.6,6.6,5c3.3,5.5,8.4,9.1,13.6,12.7c8.6,6,17.3,11.7,24.7,19.2c2.3,2.4,4.7,5.1,8.1,6.3
		c8.8,3.1,17.3,7,26.6,8.7c10.9,2,21.6,4.9,32.9,4.2c3-0.2,6.1,0,9.1,0c2,0,4.1,0.3,6.1-0.1c8.8-2.2,17.6-4.5,26.3-6.9
		c7.9-2.2,15.6-4.9,23.6-6.8c-0.1,0.5-0.3,1.1-0.9,1.4c-5.1,2.1-10.3,4-15.4,6.3c-2.9,1.3-6,2.3-8.5,4.3h-1.7
		c-1.1-1-1.5-0.2-1.8,0.8c-2.4,0.6-4.7,1.2-7.1,1.6c-1.8,0.4-3.7,0.9-5.5-0.1c-1.9-0.8-2.1,0.5-2.3,1.9L13,156
		c0-0.6-0.1-1.2-0.8-1.3s-0.9,0.5-1.1,1.1l-1.3-0.1c-2-0.2-4.1-1.5-5.7,0.9c-3.1-0.7-6.1,0.7-9.2,0.5c-1.1-0.4-1.9-0.1-2.2,1
		c-2.5,0.3-5.1,0.4-7.7,0.1c-1.6-1-3.6-1-5.3,0l-2.4-0.2c-0.3-0.9-0.7-1.7-1.8-0.8l-1.7-0.1c-0.2-1.1-1-1.4-2.1-1.2l-13.7-2.7
		c-0.1-0.7,0-1.5-1-1.5c-0.7,0-0.8,0.6-0.8,1.2l-1.5-0.1c-0.2-0.8,0-1.7-1.1-2.1c-4.1-1.5-8.2-3-12.2-4.7c-7.8-3.4-15.9-6-23.2-10.5
		c-3.1-1.9-5.9-4.6-9.9-4.9c-0.2-0.6-0.8-0.9-1.3-0.7c-2.4-3.6-6.1-6-9.3-8.7c-2.7-2.3-5.2-4.8-8.1-6.9c-2.8-2-2.2-5.7-4-8.5
		c-4.4-1.3-6.4-7.1-11.9-6.6c-1.5-1.3-2.4-3.1-2.5-5c0.3-0.7,1.3-1.2,0.7-2.2c-0.6-0.5-1.4-0.4-1.9,0.1
		C-130.2,92.3-130.3,92.4-130.4,92.5z"/>
	<path class="st2" d="M132.6,66.9c3.5-3.1,4.9-7.5,6.7-11.5c2.7-6,5.1-12.2,7.6-18.3c0.4-0.9,0.8-1.8,2-2
		c-1.8,6.6-2.9,13.4-6.3,19.6c-3.6,6.6-7,13.3-10.5,20c-1,1.9-1.8,4.1-4.2,5c0-2.8,2.7-4.7,2.7-7.6
		C131.8,70.6,132.5,68.7,132.6,66.9z"/>
	<path class="st2" d="M82.9,126.9c0.7-3.2,3.8-4.5,5.7-6.5c2.9-3,6.6-5.4,9.9-8c0.6-0.4,1.3-0.7,2-0.6c0.1,1.5-1.1,2.2-2,3.1
		c-3,2.9-6,5.7-8.9,8.6C87.7,125.3,85.4,126.5,82.9,126.9z"/>
	<path class="st2" d="M76,130.4c1.4-2.3,3.7-2.9,6.1-3.3C80.9,129.7,78.5,130,76,130.4z"/>
	<path class="st2" d="M70.6,133.6c0.9-2.6,3.2-2.8,5.4-3.2C75.1,132.9,72.7,133.1,70.6,133.6z"/>
	<path class="st2" d="M66.2,136.2c0-1.2,0.6-1.8,1.9-1.5C68,135.8,67.4,136.3,66.2,136.2z"/>
	<path class="st2" d="M-116.5,96.1l0.1,0.1L-116.5,96.1L-116.5,96.1z"/>
	<path class="st2" d="M-125.7,53.2l0.1,0.1L-125.7,53.2L-125.7,53.2z"/>
	<path class="st2" d="M-159.8-4.7l-0.6-1.7l3.9-2.3c0.9-0.2,2.1,0.4,2.3-1.1c-0.6-0.9-1.5-0.6-2.3-0.8c-2-1.4-2.1-3.3-1.6-5.2
		c0.7-0.9,2-0.5,2.5-1.5c0.9-0.2,2.1,0.4,2.3-1.1c-0.6-0.8-1.5-0.6-2.3-0.7c-0.6-0.7-0.6-1.8,0-2.6c0.8-0.2,0.9-0.9,1-1.5
		c0.8-0.7,2.2-0.7,2.1-2.3c-2.2-0.9-2.3,0.6-2.4,2c-0.2,0-0.5,0.1-0.7,0.1c-1.1-0.1-2.2,0.3-3.2-0.5c-0.3-0.9-0.5-1.9-0.3-2.8
		c1.2,0,1.8-0.6,1.7-1.8c1-0.3,1.9-1,2.6-1.8c0.1-0.8,0.1-1.5,0-2.3c-1.7-4.6-0.4-8.9,1-13.2c1.4-4.3,1.1-9-0.9-13.1
		c-1.2-2.3-1-5.1,0.3-7.3c1.4-2.3,2.9-4.5,4.4-6.7c0.6-0.2,1.5,0.4,2.1-0.8l-2.1-0.1l-0.9-0.8v-4.3c0.4-2.1,2-3.9,1.7-6.2
		c0.7-0.3,0.8-1,0.9-1.7c1.9-0.2,3.8-0.4,5.5-1.4c0.6-0.1,1.3-0.1,1.4-0.7c0.2-1-0.7-1-1.4-1.1c0-0.3-0.1-0.5-0.1-0.8l0.1-1.8
		c5.7-3.1,10.7-7,15.8-10.9c1.6-0.8,3.3,1.8,5.1,0.1c-1.1-1.3-3.1-1-3.4-2.7c1.1,0,2.3,0.2,3.4-0.3c3.1-1.8,6.6-2.6,10-3.8
		s6.6-2.8,10.3-2.5c1.5,1.9,1.9,0,2.6-0.7c2,0.3,3.5-1.1,5.2-1.7c0.5,3-1.2,5.3-2.4,7.3c-2,0.7-2.5-1.3-4.2-1.1
		c-1.2,2.7-4.4,2.7-6.3,4.5c-0.8,1.7,0.6,3.9-2,5.3c-2.8-0.8-4.2-5.2-8.4-3.9l-1.1,2.9c1.1,2.6,3.8,2.5,5.5,3.7
		c1,2.3-1.2,4.4,0.2,6.5c-4.8,3.9-8.5,8.7-14.5,10.2c0.1,2,2.8,1.7,2.9,3.8c-4.9,2.7-8.8,7.3-14.7,8.9c0.4,1.8-0.5,3.5,0.6,5
		c7.9,0.5,7.9,0.5,10.3-6.1c1.7-1,3.3-2.1,5-3.2c1.3-0.9,2.5-2.6,4.5-2c-0.1,0.7-0.5,1.4-1.1,1.7c-3.9,2.2-7.2,5.5-9.3,9.5
		c-0.9,1.6-1.8,3.9-4.1,4.6c-3-3.6-4-3.6-9.3-0.2c1.4,7.4,1.2,7.9-4.5,11.3c-0.1,0.8-0.3,1.7,0.7,2.3c1.6,0.3,3.2-1.5,4.3-0.7
		c2,1.2,1.6,4.2,4.4,3.5c0.6,2.7,3,2.9,5,3.9c1.7,0.8,4.1,0.5,4.5,3.1c-1.4,0.2-2.5-0.6-3.8-0.8c-3.3-0.6-4.7,0.9-4.6,4.8
		c1.5,0.3,3,1,4,2.2c-6.1,3-3.7,8.9-4.5,12.3c-2.1,4.6-7.7,2.9-8.7,7.1c0.9,1.3,2.7,0.2,3.1,1.9c-0.3,1.1-1.9,1.8-1.3,3.4
		c1.2,1.4,3.3,1.6,4.8,3.1c-1.3,2.8-0.2,6-1.6,8.7c1.4,2.2,3.4,3.9,5.6,5.3c1.6,3.6-1.9,6.3-1.3,9c0.6,1.5,2.5,0.8,2.1,2.7
		c-2.6,0-4.9,1.9-7.8,0.5c-1.1-0.5-2.4,0.1-3,1.9c3.2,0.3,6.3,0.4,8.8,1.9c1.4,0.9,1.4-2.2,3.4-0.4c-0.5,4.6-2.4,9.5-1.1,14.5
		c-1.5,0-1.9-1.2-3.1-0.9c-0.9,0.8-2.5,1.1-3,2.6c1.1,1.4,2.9,2,3,3.8c2.7,0.6,5.5,0.2,7.8-1.2c1.4-0.7,2.9-1.2,4.4-1.6
		c0.5-0.1,0.8,0.1,0.9,0.7c-0.2,1.2-2,0.5-2.3,2.3v3.6l0,0c-2.7-0.6-4.2,1.1-5.6,3l2.7,1.7c-3.1,0.8-5.3,2.1-4.8,5.8
		c3.5,1.4,3.5,5.6,5.7,8c1.7,0,1.7-1.9,3.1-1.9c0.7,0.8,1.9,1.3,2,2.3c-0.3,1.1-1.8,0.4-2,2.1c-0.1,0.5,1.9,0.7,0.8,2.3
		c-3.1,1.7-6.9,1.6-10.6,1.5c-0.8-1.6-2.3-2.7-4.1-3c-1.5-0.3-3.1-0.4-4.7-0.5v-1.7c1.2-0.5,0.9-1.6,0.8-2.5l0.1-1.8
		c1.3-0.3,3.3,0.9,3.4-1.6c-0.6-1.1,2.6-2.9-0.7-3.5c-1.3-3.2-3.3-1.6-5.2-0.8h-1.8c-1.3-1.2-0.9-2.5-0.5-3.8c0.8-0.9,2.1-0.2,3-1.3
		c-0.3-1.9-0.9-3.7-3.1-4.4c-3.3-1-4.2-3.6-4.4-6.6c-0.1-1.1,0.3-2.4-0.8-3.2c-4.2-3-3.7-7.6-4.4-11.8c-0.3-1.6-1.1-3.2,1.4-4.4
		c-4.2-3.3-3.9-7.6-3.8-11.9c0.2-5.9-0.1-11.9,0.8-17.8c0.1-0.8,1.6-0.5,1.2-1.7L-159.8-4.7z"/>
	<path class="st3" d="M-97.5-86.5l-14.6,9.1c-1.8-0.3-2.7,0.6-2.9,2.3c-0.1,0.2-0.3,0.3-0.5,0.3c-1.3-0.3-2.1,2.2-2.1,3.6
		c-0.1,0.1-0.3,0.2-0.5,0.2c-2.1-0.7-3,0.6-4.3,1.5c-1.7,1.1-1.8,2.7-3.4,3.6c-2.5,6.6-4.4,6.8-12.1,4c-1.2-1.5-0.3-3.3-0.6-5
		c6-1.6,9.8-6.2,14.7-8.9c-0.1-2.1-2.8-1.8-2.9-3.8c6-1.5,9.8-6.3,14.5-10.2c-1.4-2.1,0.8-4.2-0.2-6.5c-1.7-1.3-4.4-1.2-5.5-3.8
		l1-2.9c4.1-1.3,5.6,3.1,8.4,3.9c2.6-1.4,1.2-3.7,2-5.3c1.9-1.8,5.2-1.8,6.3-4.5c1.6-0.2,2.2,1.8,4.2,1.1c1.2-2,2.9-4.3,2.4-7.3
		l2.5-1c5.3-1.5,10.2-3.8,14.8-5.6c1.6-1.3,0.6-2.9,1.7-4.2c2.6-0.6,5.5,0.1,8.2-0.3c1.2-1.3-0.8-2.6,0.7-4c3.1,0.3,5.4-1.1,7.4-4.1
		c2-2.9,5.8-3.7,8.9-5.1c9.2-4,18.6-7.8,27.8-11.7c2.6-1.3,5.4-2,8.3-2.1c0.3,1.4-0.4,2.1-1.5,2.7c-3.8,2.2-7,5.3-11.4,6.4
		c0.1,2.9,2.8,2.3,4.5,4c-4.4,1.5-8.1-1-12.1-0.7c-1.5,2.1,1.7,4.4-0.1,6.9c-2.6-0.4-5.4-1.6-7.8,0.7c-0.9,1.5,1.1,2.7,0,4.4
		c-3.3,1.1-6.2-3.2-10.3-0.7c-1.2,1-1.4,3.1-1.6,5.5c-1.6,0.6-2.5,2.1-4,2.9c-2.9-0.2-5.4-1.5-8.2-2.6c-1.5,2.5-0.7,4,1.8,5.1
		c-1.1,1.6-4.2,1.6-3.4,4.4l0,0c-2.8,0.3-5.2-1.5-7.9-1.8c-3.8,2.5-7,5.6-11.1,7.2c-0.1,2.5-0.1,2.5,1.3,3.9s1.4,3.3-0.7,3.9
		c-2.4,0.8-3.7,2.5-5,4.4c-1.7,2.2-3.6,4.1-6.9,3.4c-0.8-0.2-1.6,0.1-2.1,0.8c-0.3,1.6-0.3,3.2,0.1,4.8L-97.5-86.5z"/>
	<path class="st3" d="M-130.7-59.4c0.9,3-1.2,5.2-2.1,7.6c-1.3,2.7-1.9,5.7-2,8.7c0,0.8,0,1.6-0.9,2c-3.2,0.8-2.7-2.6-5-4
		c-1.3-0.9-3.1,1.2-4.9,0.8c-1.2-0.7-0.9-1.7-0.8-2.6c6.5-3.9,6.7-4.5,5.1-12.8C-135.3-63.5-134.1-63.5-130.7-59.4z"/>
	<path class="st3" d="M106.7,105c-1.1-7.2,2.8-12.4,7.5-17.1c2.8-2.7,5.1-5.7,7.7-8.5c1.6-1.6,2.6-3.8,2.7-6.1
		c1.9-0.8,3.9-1.2,5.9-1.4c0,2.9-2.7,4.8-2.7,7.6c-5.5,7-10.9,14.1-16.5,21.1C110,102.2,108.4,103.7,106.7,105z"/>
	<path class="st3" d="M151.7,18.1c-1.1-4.3-1.6-8.8-4.6-12.5c-0.8-1-1.7-1.9-2.7-2.8c0.3-1.8,2.3-2.5,2.8-3.9c1.1-0.9,2,0.8,2.9-0.2
		c0.4-0.8,0.3-1.5-0.5-1.9c-1.6-0.7-3.9,0.6-5.1-1.7c0.5-3.7,3.4-4.4,6.4-4.8c0.7-2.2,0.3-4.2,0.4-6.2c0-1.1,0.2-2,1.5-2.2
		c0.5,6.2,1.5,12.3,0.9,18.5C153.2,6.4,152.4,12.3,151.7,18.1z"/>
	<path class="st3" d="M151.4-28c-2.2-0.2-3-1.9-4.2-3.4c0.1-2.2,0.5-4.5-0.3-6.6c-1.3-2.1-5-2.1-4.9-5.2c0.8-1.8,3-1.6,3.7-3.1
		c0.7,0.2,1.4,0.4,1.6,1.2L151.4-28z"/>
	<path class="st3" d="M-67.4-113.9c-0.3,1.3,0.5,2.4,0.6,4c-4.1,0-7.7,2-11.5,3.2l-2.6,2.2l-0.1,7.5c-0.5,0.4-0.4,0.7,0.2,0.9
		c0.2,1.8-1.1,2.6-2.4,3.2c-4.7,2.2-9.2,4.7-14.1,6.3l-2.2-0.7c-0.4-1.6-0.4-3.2-0.1-4.8c0.5-0.6,1.3-0.9,2.1-0.8
		c3.3,0.7,5.3-1.2,6.9-3.4c1.4-1.8,2.6-3.6,5-4.4c2-0.7,2.2-2.5,0.7-3.9s-1.4-1.4-1.3-3.9c4.2-1.6,7.3-4.8,11.1-7.2
		C-72.7-115.3-70.3-113.5-67.4-113.9z"/>
	<path class="st2" d="M-122.7,72.1c-0.3,1.1-1.8,0.4-2,2.1c-0.1,0.5,1.9,0.7,0.8,2.3c-3.1,1.7-6.9,1.6-10.6,1.5l-0.2,0.7
		c0.2,1,0.6,2,1.9,1.8c2.1-0.3,3.2,1,4.2,2.8c2.1-2,4.1-1.9,6-0.3c-0.8,3-2.2,5.5-5.8,5.8c0.3,0.6,0.5,1,0.6,1
		c4.7-0.1,7.3,4,11.2,5.5c0.1,0.1,0.1,0.5,0.1,0.8c-1.1,0.3-2.6-0.7-3.4,1.4c3.4,0.3,5.2,2.6,6.7,5c3.3,5.5,8.4,9.1,13.6,12.7
		c8.6,6,17.3,11.7,24.7,19.2c2.3,2.4,4.7,5.1,8.1,6.3c8.8,3.1,17.3,7,26.6,8.7c10.9,2,21.6,4.9,32.9,4.2c3-0.2,6.1,0,9.1,0
		c2,0,4.1,0.3,6.1-0.1c8.8-2.1,17.5-4.4,26.2-6.8c7.9-2.2,15.6-4.9,23.6-6.8c3.2-0.5,5.7-2.4,8.6-3.6c0-1.2,0.6-1.8,1.9-1.5
		c0.5-1.1,1.6-0.8,2.5-1c0.9-2.6,3.2-2.8,5.4-3.2l0,0c1.4-2.3,3.7-2.9,6.1-3.3l0.8-0.1c0.7-3.2,3.8-4.5,5.8-6.5c2.9-3,6.6-5.4,9.9-8
		c0.6-0.4,1.3-0.7,2-0.6c0.3-0.6,0.5-1.2,0.8-1.8c-2.5,0.5-4.4-1.2-6.6-1.8c-4.3,1.9-4.7,6.6-7.2,9.7c-4.1,1.1-8,3.1-12.5,1
		c-0.8,2.7-1.5,5-2.1,7.1c-1.5,1.6-3.5,0.5-5.2,1.2c-2.6,1.6-2.6,5-4.4,7.3c-2-0.6-3.2-2.3-5.4-2.5c-1.5,0.5-2.1,3.6-5.1,2
		c-0.9-0.7,0.1-2.2-0.9-3.4c-0.3-0.2-0.6-0.3-1-0.4c-5-0.2-9.1,1.2-12.3,5.4c-2.4,3.2-5.6,5.7-10.1,5.5c-1.3,0-2.6,0.4-3.7,1.1
		c-2.4,1.1-4.8,2.1-7,3.4c-2.6,1.8-6,1.7-8.5,0c-3.1-2.2-7.1-2.8-10.7-1.5c-1,0.3-2,0.3-3,0.2c-3.6-0.3-6.6,0.1-8.4,3.7
		c-1.1,2.2-4.1,0.9-5.4,3.2c-1.7-2.3-0.3-4.6-1.4-6.8c-2.7,2.2-6.3,0.7-9.3,2.8c-1.6,1.2-4.1-0.6-6.1-1.2c-3.6-1-7-2.7-11.2-2
		c-0.4-3.2-5.7-4.8-2.3-8.8c-2.7-1.7-2.3,1-3.4,1.6c-1.7,0.3-3.4,0.3-5-0.1c-2.6-4.1-9.8-7-15.6-5.9c0.4-2.2,0.4-4.4-1.9-5.6
		c-3.8,0.6-3.8,0.6-4.5-3.2c-0.3-1.5-0.8-3-1.2-4.6c-0.8-1.3-3.3-1.4-3.2-3.6l0,0c0.1-1.3-0.5-1.9-1.8-1.6c-0.3,0-0.5,0-0.8-0.1
		c-3.8-1.8-5-5.5-5.8-8.9c-1.5-6.9-5.7-11.1-11.9-13.8c-0.7-0.3-1.3-0.7-1.9-1c-2.3-5-9.1-12.3-6-11.8c-0.7-1.7-2.3-2.6-3.7-3.5
		L-122.7,72.1z M-125.5,53.3L-125.5,53.3z"/>
	<path class="st2" d="M69.4-129.6c1.6-0.7,3,0.9,4.6,0.5c3.5,0.6,5.6,3.3,8.1,5.3c6.6,5,13.1,10.1,19.5,15.3
		c5.4,4.3,15.4,13.5,15.4,13.5v0.1l1.8,1.6l1.7,1.7l1.3,1.2l1.3,2.3c0,0.3,0,0.5,0,0.8c-1.2,0.2-2.3-0.2-3.2-1
		c-4.9-5-10.6-9.2-15.7-14c-6.1-5.6-12.8-10.6-20-14.8c-4.8-2.9-9.8-5.5-13.5-9.9C70.1-127.7,69.6-128.6,69.4-129.6z"/>
	<path class="st3" d="M101.3,110c-2.5,0.5-4.4-1.2-6.6-1.8c-4.3,1.9-4.7,6.6-7.2,9.7c-4.1,1.1-8,3.1-12.5,1c-0.8,2.7-1.5,5-2.1,7.1
		c-1.5,1.6-3.5,0.5-5.2,1.2c-2.6,1.6-2.6,5-4.4,7.3c-2-0.6-3.2-2.3-5.4-2.5c-1.5,0.5-2.1,3.6-5.1,2c-0.9-0.7,0.1-2.2-0.9-3.4
		c-0.3-0.2-0.6-0.3-1-0.4c-5-0.2-9.1,1.2-12.3,5.4c-2.4,3.2-5.6,5.7-10.1,5.5c-1.3,0-2.6,0.4-3.7,1.1c-2.4,1.1-4.8,2.1-7,3.4
		c-2.6,1.8-6,1.7-8.5,0c-3.1-2.2-7.1-2.8-10.7-1.5c-1,0.3-2,0.3-3,0.2c-3.6-0.3-6.6,0.1-8.4,3.7c-1.1,2.2-4.1,0.9-5.4,3.2
		c-1.7-2.3-0.3-4.6-1.4-6.8c-2.7,2.2-6.3,0.7-9.3,2.8c-1.6,1.2-4.1-0.6-6.1-1.2c-3.6-1-7-2.7-11.2-2c-0.4-3.2-5.7-4.8-2.3-8.8
		c-2.7-1.7-2.3,1-3.4,1.6c-1.7,0.3-3.4,0.3-5-0.1c-2.6-4.1-9.8-7-15.6-5.9c0.4-2.2,0.4-4.4-1.9-5.6c-3.8,0.6-3.8,0.6-4.5-3.2
		c-0.3-1.5-0.8-3-1.2-4.6c-0.8-1.3-3.3-1.4-3.2-3.6c3.7-0.6,6.8,1.2,9.8,2.7c13.2,6.5,26.2,13.2,40.3,17.8c6.4,2.2,13,3.6,19.7,4
		c3.9,0.2,7.7,0.6,11.6,1.3c3,0.7,6,0.6,8.9-0.1c3.2-0.9,6.5-1.1,9.7-1.9c7.2-1.7,14.7-2.5,21.4-6.3c11.3-6.4,23.1-12,33.7-19.8
		c5.7-4.2,12.1-7.4,17.2-12.5c11.3-11,22.9-21.8,33.7-33.2c1.5-1.6,3.4-3,4.2-5.3c0.5-1.7,2.1-2.9,3.9-3c0.2,2.1,1.7,3.5,2.7,5.4
		c-0.2,1.4-1.4,2.7-0.7,4.3c-0.1,1.9-0.8,3.7-2,5.1c-2,0.2-4,0.6-5.9,1.4c-0.1,2.3-1.1,4.4-2.7,6.1c-2.6,2.8-5,5.9-7.7,8.5
		c-4.8,4.6-8.6,9.9-7.5,17.1C105.1,106.9,103.3,108.6,101.3,110z"/>
	<path class="st3" d="M132.4,53c2,1,4,1.6,5.7-0.1c0.6-1.6-1-2.1-1.1-3.1c1.6-5.9,5.6-10.4,8.9-15.3c0.7-1.1,1.4-2.1,3-1.9
		c0.2,0.8,0.2,1.7,0,2.5c-1.2,0.2-1.6,1.1-2,2c-2.5,6.1-4.9,12.3-7.6,18.3c-1.8,4-3.2,8.4-6.7,11.5c-0.7-1.6,0.5-2.9,0.7-4.3
		c-1-1.9-2.5-3.3-2.7-5.4C130.6,55.5,130.2,53.7,132.4,53z"/>
	<path class="st3" d="M144.3,2.8c0.3-1.8,2.3-2.5,2.8-3.9c1.1-0.9,2,0.8,2.9-0.2c0.4-0.8,0.3-1.5-0.5-1.9c-1.6-0.7-3.9,0.6-5.1-1.7
		c0.5-3.7,3.4-4.4,6.4-4.8c0.7-2.2,0.3-4.2,0.4-6.2c0-1.1,0.2-2,1.5-2.2c0-0.5,0-1,0-1.5c-0.8,0-1.6-0.3-2.2-0.8
		c-0.5-1.7,0.7-4.8-3.1-5.1l3.8-1.2c0-0.5,0-1,0-1.6c-2.2-0.2-3-1.9-4.2-3.4c0.1-2.2,0.5-4.4-0.3-6.6c-1.3-2.1-5-2.1-4.9-5.2
		c0.8-1.8,3-1.6,3.7-3.1c-1.4-5-3.1-9.8-4.9-14.7c-0.9-2.4-1.6-4.9-4.3-6c-2.1-1-3.7-2.6-5.5-4.1c-2.4-3.3-5.5-6-9.1-7.9
		c0.7-0.5,1.2-1.3,1.4-2.2c2.9-0.3,2.4-2.4,2.4-4.3l-0.8-0.7l-1.7-1.1c-1.2,0.2-2.3-0.2-3.2-1c-4.9-5-10.6-9.2-15.7-14
		c-6.1-5.6-12.8-10.6-20-14.8c-4.8-2.9-9.8-5.5-13.5-9.9c-0.8-0.7-1.3-1.5-1.5-2.5c-0.5-0.2-1.2-0.4-1.5-0.8
		c-3.1-4.4-8-6.7-12.1-9.9c-3.9-4-9-5.9-14.2-7.5l-4-1.3c-0.3-0.5-0.5-1.1-0.9-1.4c-5-3.1-10.9-4.7-16.8-4.3h-3.1
		c-1.3-1.1-2.9-1.1-4.5-1.1c-1.7,0.1-3.4,0-5.1-0.4c-3.3-1.1-6.9-0.8-9.9,0.9c-3.6,0.6-7.1,1.5-10.6,2.5c0.3,1.4-0.4,2.1-1.5,2.7
		c-3.8,2.2-7,5.3-11.4,6.4c0.1,2.9,2.8,2.3,4.5,4c-4.4,1.5-8.1-1-12.1-0.7c-1.5,2.1,1.7,4.4-0.1,6.9c-2.6-0.4-5.4-1.5-7.8,0.7
		c-0.9,1.5,1.1,2.7,0,4.3c-3.3,1.1-6.2-3.2-10.3-0.6c-1.2,1-1.4,3.1-1.6,5.5c-1.6,0.6-2.5,2.1-4,2.9c-2.9-0.2-5.4-1.5-8.2-2.6
		c-1.5,2.5-0.7,4,1.8,5.1c-1.1,1.6-4.2,1.6-3.4,4.4l0,0c-0.3,1.3,0.5,2.4,0.6,4c-4.1,0-7.7,2-11.5,3.2c0,0.3,0,0.5,0.1,0.8
		c0.1,0.1,0.2,0.2,0.3,0.2c6.9-1.6,13.6-3.8,20.7-4.3c3.7-0.3,7.4-0.8,11.1-1.4c7.5-1.2,17.3,2.8,24.3-0.3c3.4-1.5,2.5-3.4,4-5.2
		c1.5-1.8,1.1-4.4,2.6-5.9c2.4-2.5,6.8-3.7,8.5-6.3c6.2,0.8,12.5,0.8,18.7,0.2c2.8-0.2,5.7,0,8.6-0.8c5-1.3,10.1-2.3,15.1-3.6
		c6.2-1.6,12.4-2.6,17.9,2c0.4,0.2,0.8,0.4,1.2,0.5c2,0.8,3.4,1.8,3.6,4.3c0.2,1.6,1.1,3,2.4,3.9c6.1,4.4,11.1,10.3,18.2,13.7
		l-0.1,7.8c4.3,3.5,8.3,7.2,12,11.3c2.5,2.8,4.8,5.9,8.3,7.4c5.5,2.2,10.6,5.2,16.5,6.4c4.1,2.2,8.4,4.1,12.8,5.7
		c-0.5,6-0.5,11.9-0.1,17.9c-1.3,5.9,0.8,10.6,5,14.7c-0.7,1.8-0.1,3.9,1.5,5c1.3,3,2.1,6.2,2.4,9.5c0.5,1.1,0,2.1-0.2,3.1
		c-1.5,0.7-3.5,0.4-4.9,1.7c-0.4,1.5-0.3,3.1,0.5,4.5c2.1,3.5,2,7.3,1.9,11.1c-0.1,0.9,0,1.7,0.3,2.5c0.8,1.7,0.6,3.7-0.5,5.3
		c-0.8,1.4-1.3,3.1-0.2,4.4c1.5,1.8,2.1,4.2,3.8,5.6s1.8,4.1,4.5,4.1c1.3,1,2,2.2,1.3,3.7c-1.5,2.8-2.1,6.1-5,8.2
		c-2.4,1.9-4.6,4-6.5,6.3c-3.1,3.4-6.9,6.6-8.5,11.1s-3.6,8.9-4.4,13.7c-0.1,1-0.7,1.9-1.4,2.5c-6.2,5.1-12.9,9.8-19.8,14
		c-1.7,1-3.3,2.6-5.5,3c-4.2,0.7-6.4,3.6-8.1,6.9c-4.2,7.7-10.1,13.9-16.8,19.5c-2,1.7-4.5,2.6-6.7,3.8c-11,6.1-21.6,12.8-34.1,16
		c-10.1,2.6-20.3,5-30.5,7.5c-1.6,0.3-3.2,0.2-4.7-0.2c-6.5-1.8-13-3.8-19.5-5.7c-10.4-2.9-20.6-6.6-30.8-10.1
		c-5.8-1.9-10.6-5.6-15.9-8.6c-2.8-1.5-5-4.2-7.8-6c-2-2.3-3.2-4.9-2.7-8.1c0.6-3.6-1.4-5.7-4.5-7.3c-5.9-3.2-11.7-6.6-17.5-9.9
		c-0.8,0.1-1.2-0.2-1.2-1c-1.3-0.6-4.2-3.8-4.2-3.8c-2.2-1.5-4.1-3.2-5.9-5.2c-2.2,2.6,7.9,16.8,12.5,18.6c0.7,0.3,1.3,0.7,1.9,1
		c6.3,2.7,10.4,6.9,11.9,13.8c0.7,3.4,2,7.1,5.8,8.9c0.3,0,0.5,0.1,0.8,0.1c1.3-0.2,1.9,0.3,1.8,1.6l0,0c3.7-0.6,6.8,1.2,9.8,2.7
		c6.3,3.1,5.7,10.9,12.9,10.9c9.6-0.1,18.3,8.5,25.6,10.9c6.5,2.1,14.7-0.3,21.5,0c3.9,0.2,7.7,0.6,11.6,1.3c3,0.7,6,0.6,8.9-0.1
		c3.2-0.9,6.5-1.1,9.7-1.9c7.2-1.7,14.7-2.5,21.4-6.3c11.3-6.4,23.1-12,33.7-19.8c5.7-4.2,12.1-7.4,17.2-12.5
		c11.3-11.1,22.9-21.8,33.7-33.3c1.5-1.6,3.4-3,4.2-5.3c0.5-1.7,2.1-2.9,3.9-3c0.1-1.6-0.3-3.5,1.8-4.3c2,1,4,1.6,5.7-0.1
		c0.6-1.6-1-2.1-1.1-3.1c1.6-5.9,5.6-10.4,8.9-15.3c0.7-1.1,1.4-2.1,3-1.9c0.6-1.9,0.8-3.9,1.4-5.7c0.9-2.9,0.1-5.9,1.4-8.7
		c-1.1-4.3-1.6-8.8-4.6-12.5C146.2,4.6,145.3,3.7,144.3,2.8z"/>
	<path class="st3" d="M-116.1,72.2c-0.6-1.4-2.8-5.7-2.5-7.5c0.1-1.3,0.4-2.5,0.7-3.8c1.6-5.2,4.8-6.5,10.3-10.6
		c4.4-3.3,3.7-7.4,1-12.2c-4.7-8.6-11.8-15.4-18.4-22.4c-4.2-4.4-8.7-8.3-8.2-15.1c0-0.9-0.2-1.7-0.5-2.5c-2-4.8-0.4-9.1,2.1-13.2
		c1.9-3,3.8-6.1,5.5-9.1c2.5-4.4,2.2-6-1.2-9.8c-1.4,0.2-2.5-0.6-3.8-0.8c-3.3-0.6-4.7,0.9-4.6,4.8c1.5,0.3,3,1,4,2.2
		c-6.1,3-3.7,8.9-4.5,12.3c-2.1,4.6-7.7,2.9-8.7,7.1c0.9,1.3,2.7,0.2,3.1,1.9c-0.3,1.1-1.9,1.8-1.3,3.4c1.2,1.4,3.3,1.6,4.8,3.1
		c-1.3,2.8-0.2,6-1.7,8.7c1.4,2.2,3.4,3.9,5.6,5.3c1.6,3.6-1.9,6.3-1.3,9c0.6,1.5,2.5,0.8,2.1,2.7c-2.6,0-4.9,1.9-7.8,0.5
		c-1.1-0.5-2.5,0.1-3,1.9c3.2,0.3,6.3,0.4,8.8,1.9c1.4,0.9,1.4-2.2,3.4-0.4c-0.5,4.6-2.4,9.5-1.1,14.5c-1.5,0-1.9-1.2-3.1-0.9
		c-0.9,0.8-2.4,1.1-3,2.6c1.1,1.4,2.9,2,3,3.8c2.7,0.6,5.5,0.2,7.8-1.2c1.4-0.7,2.9-1.2,4.4-1.6c0.5-0.1,0.8,0.1,0.9,0.7
		c-0.2,1.2-2,0.5-2.3,2.3v3.5c-2.7-0.6-4.2,1.1-5.6,3.1l2.7,1.7c-3.1,0.8-5.3,2.1-4.8,5.8c3.5,1.4,3.5,5.6,5.7,8
		c1.7,0,1.7-1.9,3.1-1.9c0,0,0.9,3.4,4.1,3.8S-116.1,72.2-116.1,72.2z"/>
	<path class="st3" d="M152.8-19.5c-0.8,0-1.6-0.3-2.2-0.8c-0.5-1.7,0.7-4.8-3.1-5.1l3.8-1.2C152.6-24.4,153.1-21.9,152.8-19.5z"/>
</symbol>
<title>modal-intro</title>
<g>
	<g>
		<g id="final-design">
			<circle cx="167.4" cy="177.8" r="148.1"/>
			<g>
				<defs>
					<circle id="SVGID_1_" cx="167.4" cy="177.8" r="148.1"/>
				</defs>
				<clipPath id="SVGID_2_">
					<use xlink:href="#SVGID_1_"  style="overflow:visible;"/>
				</clipPath>
				<g class="st4">
					<path class="st5" d="M220.9,185c-7.1,11.1-7.6,30.1-18.9,29l0,0c22.1,17,33.7,56.7,17.2,107.6c-30.1,10.7-86.8,10.7-129.8-17.6
						c-32.4-20.2-56.4-51.4-67.8-87.9c7.7-9.9,43.6-31.6,57.4-29.4c34.6-25.5,14.5-78.8,74.8-92.7c51.2-11.8,82.5,8.5,103.7,59.7
						C266.3,175.1,231.9,167.9,220.9,185z"/>
					<g>
						<defs>
							<path id="SVGID_3_" d="M220.9,185c-7.1,11.1-7.6,30.1-18.9,29l0,0c22.1,17,33.7,56.7,17.2,107.6
								c-30.1,10.7-86.8,10.7-129.8-17.6c-32.4-20.2-56.4-51.4-67.8-87.9c7.7-9.9,43.6-31.6,57.4-29.4
								c34.6-25.5,14.5-78.8,74.8-92.7c51.2-11.8,82.5,8.5,103.7,59.7C266.3,175.1,231.9,167.9,220.9,185z"/>
						</defs>
						<clipPath id="SVGID_4_">
							<use xlink:href="#SVGID_3_"  style="overflow:visible;"/>
						</clipPath>
						<g class="st6">
							<path class="st7" d="M135.4,289.4c-8.5,43.4,3.2,90.3,48.8,104.9c44.4,14.2,32-35.9,43.7-78.6s-3.1-98.4-36.8-98.6
								C160.9,216.9,145.1,240.2,135.4,289.4z"/>
							<path class="st8" d="M82.4,187c-39.7-7-104.5,64.9-104.5,64.9s67.4,69.6,105.3,68.7c1.2,10.8,3.7,19.7,7.7,20.3
								c7.8,1.2,18.2-29.3,20.7-45.9c0.3-2.2,0.6-4.5,0.6-6.7c11.6,4.2,13.7-39,12.1-55.6C122.5,214,109.9,191.8,82.4,187z"/>
						</g>
					</g>
					<path class="st5" d="M112.4,136.6c-22.3,2-43.6,21.4-43.1,23.5c0,0,6.5,0.8,10.3,3.9s3.7,8.8,3.7,8.8l33.1-16.6L112.4,136.6z"
						/>
					<path class="st5" d="M112.4,157c-21.2-4.7-43.6,11.6-43.2,15.5c0,0,5.9,1.7,8.9,5.1s2.2,8.6,2.2,8.6"/>
					<path class="st9" d="M170.3,128.4c9,0.4,15.8,11,15.2,22.4s-8.1,19.2-17.1,18.8s-16.1-8.9-15.5-20.3S161.3,128,170.3,128.4z"/>
					<circle class="st10" cx="171.6" cy="148.2" r="7.7"/>
					<circle class="st9" cx="177.7" cy="142.5" r="4.8"/>
					<path d="M194,132.2c-1.1,0.8-2.2,1.5-3.4,2.1c-1.1,0.6-2.3,1-3.5,1.3c-2.5,0.5-5.1,0.6-7.6,0.2c-4.2-0.6-8.2-2.1-11.7-4.4
						c-0.4-0.3-0.8-0.6-1.2-0.8s-0.9-0.7-1.4-1c-0.9-0.7-1.7-1.4-2.6-2.2s-1.6-1.6-2.3-2.4c-0.7-0.8-1.4-1.7-2-2.6
						c-1.3-1.9-2.3-3.9-3.1-6c-0.9-2.3-1.4-4.7-1.6-7.2l0.8-0.8c1.4,1.3,2.9,2.6,4.4,3.8s3,2.4,4.6,3.6s3.1,2.2,4.8,3.3s3.2,2,5,3
						c3.4,1.9,6.8,3.9,10.2,5.5c1.7,0.9,3.4,1.6,5.3,2.1c1.8,0.5,3.8,0.9,5.6,1.5L194,132.2z"/>
					<path class="st5" d="M188.1,173.8c-1.6,0-8.9-8.1-22.3-9.2c-9.5-0.8-19.8,4.2-19.8,4.2"/>
					<path class="st11" d="M239.7,216.3c-1.1,2.4-7.8,3.9-14.8,0.2s-11.7-10.9-10.6-13.3s7.5,0.9,14.5,4.5
						C235.9,211.4,240.9,213.9,239.7,216.3z"/>
					<path class="st12" d="M184.2,189c4.1-5.1,16.5-8.1,16.4-27.3c-0.1-17.8,11-27.2,28.7-31.1c11.2-2.5,26.1,2.7,34.5,8.9
						c13.9,10.3,27.1,26.6,24.4,63.1c-0.2,2.5-2.1,3.8-4.2,2.7c-7.2-3.5-9.9-15-25.9-12.1c-8.5,1.6-23.2,11.2-36.5,4.8
						c-3,9.4,1.6,17,7.8,22.4c5,4.1,10.5,7.6,16.4,10.3c1.1,0.6,1.5,1.9,0.9,2.9c-0.3,0.5-0.7,0.9-1.3,1.1c-17,3.8-34.5,1.6-47-6.8
						C175.6,212.6,179.5,194.7,184.2,189z"/>
					
						<ellipse transform="matrix(0.7537 -0.6572 0.6572 0.7537 -45.643 180.6086)" class="st13" cx="218.1" cy="151.2" rx="7.3" ry="3.6"/>
					<path class="st8" d="M129.6,167.7c2.2-0.4,4.4-0.4,6.5-0.1c2.1,0.2,4.1,0.7,6.1,1.3c2,0.6,3.9,1.4,5.8,2.4c2,1,3.7,2.3,5.3,3.8
						c-2.2,0.4-4.4,0.4-6.5,0.2c-2.1-0.2-4.1-0.7-6.1-1.3c-2-0.6-3.9-1.4-5.8-2.4C133,170.5,131.2,169.2,129.6,167.7z"/>
					<path class="st8" d="M139.9,182.2c-0.7-1.8-1.2-3.8-1.3-5.7c-0.1-1.8,0-3.7,0.2-5.5c0.2-1.8,0.7-3.6,1.3-5.4
						c0.7-1.9,1.6-3.6,2.8-5.1c0.7,1.8,1.2,3.8,1.3,5.7c0.2,3.7-0.3,7.4-1.6,10.9C142.1,179,141.1,180.7,139.9,182.2z"/>
				</g>
			</g>
			
				<use xlink:href="#paper-burn"  width="335.9" height="338.9" x="-167.9" y="-169.5" transform="matrix(1 0 0 1 167.93 188.1)" style="overflow:visible;"/>
			<path class="st14" d="M215.8,0c-7,21.2-21,30.3-35.2,31.8c-18,1.9-34.9-8.7-41.2-25.6c-28.1,12.2-58.6,35.1-70.2,45.3
				c-4.4,4.1-6,10.3-4.2,16c5.1,16,21.3,45.1,53.1,46.9c0,0,32.9-18.3,55.2-19.6c22.5-1.3,51.3,12,51.3,12
				c45.3-5.4,63.2-48.2,59.8-55C284.4,51.8,266.3,18.6,215.8,0z"/>
			<g>
				<defs>
					<path id="SVGID_5_" d="M215.8,0c-7,21.2-21,30.3-35.2,31.8c-18,1.9-34.9-8.7-41.2-25.6c-28.1,12.2-58.6,35.1-70.2,45.3
						c-4.4,4.1-6,10.3-4.2,16c5.1,16,21.3,45.1,53.1,46.9c0,0,32.9-18.3,55.2-19.6c22.5-1.3,51.3,12,51.3,12
						c45.3-5.4,63.2-48.2,59.8-55C284.4,51.8,266.3,18.6,215.8,0z"/>
				</defs>
				<clipPath id="SVGID_6_">
					<use xlink:href="#SVGID_5_"  style="overflow:visible;"/>
				</clipPath>
				<g class="st15">
					<path class="st16" d="M291.5,56.7c0,0-25.2-38.1-75.7-56.7c-7,21.2-21,30.3-35.2,31.8c-18,1.9-34.9-8.7-41.2-25.6
						c-28.1,12.2-78.1,50.9-89.7,61.2"/>
					<path class="st17" d="M170.9,73.2c-0.8-1.7-2.7-2.6-4.5-2.3c-2.4,0.5-3.9,2.9-3.4,5.3c0.3,2.4,2.5,4,4.8,3.7c0.1,0,0.1,0,0.2,0
						"/>
					<path class="st17" d="M166.5,80c-0.4,1.4-0.1,3,0.9,4.1c1.3,1.6,3.7,1.8,5.3,0.5c0.1-0.1,0.2-0.2,0.3-0.2
						c1.3-1.3,1.6-3.3,0.8-5"/>
					<path class="st17" d="M196.2,64.9c0.8,1.6,2.6,2.4,4.3,2c2.2-0.6,3.5-2.9,3-5.1c-0.4-2.2-2.4-3.6-4.6-3.3c-0.1,0-0.1,0-0.2,0"
						/>
					<path class="st17" d="M201.4,59.1c0.5-1.5,0.2-3.2-0.8-4.5c-1.4-1.8-3.9-2.1-5.7-0.8c-0.1,0.1-0.2,0.2-0.3,0.2
						c-1.5,1.4-1.9,3.5-1.1,5.4"/>
					<polygon class="st17" points="170.8,80.3 178.3,74.9 198.1,64 198.3,59.6 196,58.2 187.3,64.8 168.7,74.5 168.6,79.3 					"/>
					<path class="st18" d="M190.6,78.7c-1.1,1.4-1.1,3.3-0.1,4.7c1.2,1.8,3.7,2.3,5.6,1.2c1.8-1.2,2.3-3.6,1.1-5.4
						c0,0,0-0.1-0.1-0.1"/>
					<path class="st18" d="M197.9,80.2c1.3-0.1,2.5-0.9,3-2.1c0.8-1.9-0.1-4.1-2-4.9c-1.5-0.7-3.3-0.3-4.3,1"/>
					<path class="st18" d="M175.2,58.3c0.9-1.3,0.9-3.1-0.1-4.4c-1.2-1.7-3.6-2.1-5.3-0.9c-1.6,1.2-2,3.5-0.7,5.2c0,0,0,0,0,0.1"/>
					<path class="st18" d="M168.5,55.8c-1.4,0.1-2.7,0.9-3.3,2.2c-0.9,2,0,4.4,2,5.3c1.6,0.8,3.5,0.4,4.8-0.9"/>
					<polygon class="st18" points="196.3,76.4 190.3,70.4 173.7,57 170.1,58.2 169.9,60.8 178.6,66 192.6,80.2 196.4,78.7 					"/>
				</g>
			</g>
		</g>
	</g>
</g>
</svg>
