<svg xmlns="http://www.w3.org/2000/svg" width="378" height="379.836" viewBox="0 0 378 379.836">
  <g id="bg-pattern" transform="translate(1.5 1.5)" opacity="0.11" style="mix-blend-mode: overlay;isolation: isolate">
    <g id="Gruppe_1169" data-name="Gruppe 1169" style="mix-blend-mode: multiply;isolation: isolate">
      <path id="Pfad_2929" data-name="Pfad 2929" d="M-1052.342,2521.917l11.808-7.956a1.546,1.546,0,0,1,1.687-.025,1.543,1.543,0,0,1,.717,1.529l-2.013,14.094-20.018,31.935a7.2,7.2,0,0,1-9.92,2.277,7.2,7.2,0,0,1-2.275-9.914Z" transform="translate(1179.804 -2400.052)" fill="none" stroke="#044d70" stroke-linecap="round" stroke-linejoin="round" stroke-width="3"/>
      <line id="Linie_241" data-name="Linie 241" x2="12.199" y2="7.642" transform="translate(127.619 121.786)" fill="none" stroke="#044d70" stroke-linecap="round" stroke-linejoin="round" stroke-width="3"/>
      <line id="Linie_242" data-name="Linie 242" x1="12.194" y1="7.639" transform="translate(108.923 151.615)" fill="none" stroke="#044d70" stroke-linecap="round" stroke-linejoin="round" stroke-width="3"/>
      <line id="Linie_243" data-name="Linie 243" x1="18.49" y2="29.498" transform="translate(115.112 125.738)" fill="none" stroke="#044d70" stroke-linecap="round" stroke-linejoin="round" stroke-width="3"/>
      <line id="Linie_244" data-name="Linie 244" x2="5.768" y2="3.612" transform="translate(135.432 116.495)" fill="none" stroke="#044d70" stroke-linecap="round" stroke-linejoin="round" stroke-width="3"/>
      <path id="Pfad_2930" data-name="Pfad 2930" d="M-1165.125,2505.9a1.441,1.441,0,0,0-1.085,1.724l3.843,16.838a1.44,1.44,0,0,0,1.717,1.083l64.548-14.722a1.437,1.437,0,0,0,1.084-1.724l-3.84-16.834a1.434,1.434,0,0,0-1.723-1.084Z" transform="translate(1178.525 -2400.397)" fill="none" stroke="#044d70" stroke-linecap="round" stroke-linejoin="round" stroke-width="3"/>
      <line id="Linie_245" data-name="Linie 245" x2="1.917" y2="8.419" transform="translate(69.555 92.636)" fill="none" stroke="#044d70" stroke-linecap="round" stroke-linejoin="round" stroke-width="3"/>
      <line id="Linie_246" data-name="Linie 246" x2="1.918" y2="8.422" transform="translate(58.32 95.225)" fill="none" stroke="#044d70" stroke-linecap="round" stroke-linejoin="round" stroke-width="3"/>
      <line id="Linie_247" data-name="Linie 247" x2="1.922" y2="8.415" transform="translate(47.081 97.823)" fill="none" stroke="#044d70" stroke-linecap="round" stroke-linejoin="round" stroke-width="3"/>
      <line id="Linie_248" data-name="Linie 248" x2="1.92" y2="8.42" transform="translate(35.848 100.413)" fill="none" stroke="#044d70" stroke-linecap="round" stroke-linejoin="round" stroke-width="3"/>
      <line id="Linie_249" data-name="Linie 249" x2="1.925" y2="8.427" transform="translate(24.611 102.997)" fill="none" stroke="#044d70" stroke-linecap="round" stroke-linejoin="round" stroke-width="3"/>
      <path id="Pfad_2931" data-name="Pfad 2931" d="M-1019.566,2497.021a1.435,1.435,0,0,0,1.568.311,1.437,1.437,0,0,0,.888-1.329v-66.2a1.437,1.437,0,0,0-1.442-1.439h-66.226a1.436,1.436,0,0,0-1.441,1.439,1.451,1.451,0,0,0,.608,1.177Zm-9.058-57.146v25.3l-25.309-25.3Z" transform="translate(1179.774 -2401.485)" fill="none" stroke="#044d70" stroke-linecap="round" stroke-linejoin="round" stroke-width="3"/>
      <line id="Linie_250" data-name="Linie 250" y1="4.923" x2="4.93" transform="translate(149.288 80.205)" fill="none" stroke="#044d70" stroke-linecap="round" stroke-linejoin="round" stroke-width="3"/>
      <line id="Linie_251" data-name="Linie 251" y1="4.921" x2="4.926" transform="translate(142.014 72.931)" fill="none" stroke="#044d70" stroke-linecap="round" stroke-linejoin="round" stroke-width="3"/>
      <line id="Linie_252" data-name="Linie 252" y1="4.924" x2="4.933" transform="translate(134.645 64.839)" fill="none" stroke="#044d70" stroke-linecap="round" stroke-linejoin="round" stroke-width="3"/>
      <line id="Linie_253" data-name="Linie 253" y1="4.929" x2="4.929" transform="translate(127.286 57.558)" fill="none" stroke="#044d70" stroke-linecap="round" stroke-linejoin="round" stroke-width="3"/>
      <line id="Linie_254" data-name="Linie 254" y1="4.924" x2="4.926" transform="translate(119.921 50.274)" fill="none" stroke="#044d70" stroke-linecap="round" stroke-linejoin="round" stroke-width="3"/>
      <line id="Linie_255" data-name="Linie 255" y1="4.924" x2="4.93" transform="translate(112.554 42.995)" fill="none" stroke="#044d70" stroke-linecap="round" stroke-linejoin="round" stroke-width="3"/>
      <line id="Linie_256" data-name="Linie 256" y1="4.925" x2="4.927" transform="translate(105.193 35.71)" fill="none" stroke="#044d70" stroke-linecap="round" stroke-linejoin="round" stroke-width="3"/>
      <path id="Pfad_2932" data-name="Pfad 2932" d="M-1143.951,2446.137a9.376,9.376,0,0,1,6.2-11.728,9.378,9.378,0,0,1,11.721,6.2c1.526,4.949-1.347,11-5.353,14.48l1.049,3.392" transform="translate(1178.525 -2401.485)" fill="none" stroke="#044d70" stroke-linecap="round" stroke-linejoin="round" stroke-width="3"/>
      <path id="Pfad_2933" data-name="Pfad 2933" d="M-1128.97,2465.3a.468.468,0,0,0,.437-.827.468.468,0,0,0-.437.827Z" transform="translate(1178.525 -2401.485)" fill="none" stroke="#044d70" stroke-linecap="round" stroke-linejoin="round" stroke-width="3"/>
      <line id="Linie_257" data-name="Linie 257" x2="13.834" y2="5.307" transform="translate(74.892 132.732)" fill="none" stroke="#044d70" stroke-linecap="round" stroke-linejoin="round" stroke-width="3"/>
      <line id="Linie_258" data-name="Linie 258" y1="13.833" x2="5.305" transform="translate(79.184 128.455)" fill="none" stroke="#044d70" stroke-linecap="round" stroke-linejoin="round" stroke-width="3"/>
      <line id="Linie_259" data-name="Linie 259" y1="6.172" x2="6.171" transform="translate(17.347 76.085)" fill="none" stroke="#044d70" stroke-linecap="round" stroke-linejoin="round" stroke-width="3"/>
      <line id="Linie_260" data-name="Linie 260" x1="6.171" y1="6.173" transform="translate(17.346 76.085)" fill="none" stroke="#044d70" stroke-linecap="round" stroke-linejoin="round" stroke-width="3"/>
      <line id="Linie_261" data-name="Linie 261" x1="6.172" y1="6.173" transform="translate(102.033 79.206)" fill="none" stroke="#044d70" stroke-linecap="round" stroke-linejoin="round" stroke-width="3"/>
      <line id="Linie_262" data-name="Linie 262" x1="8.051" y2="3.371" transform="translate(140.947 157.583)" fill="none" stroke="#044d70" stroke-linecap="round" stroke-linejoin="round" stroke-width="3"/>
      <line id="Linie_263" data-name="Linie 263" x1="8.051" y2="3.371" transform="translate(108.584 8.643)" fill="none" stroke="#044d70" stroke-linecap="round" stroke-linejoin="round" stroke-width="3"/>
      <path id="Pfad_2934" data-name="Pfad 2934" d="M-1154.413,2418.161a5.555,5.555,0,0,1-5.556,5.553,5.555,5.555,0,0,1-5.556-5.553,5.556,5.556,0,0,1,5.556-5.558A5.557,5.557,0,0,1-1154.413,2418.161Z" transform="translate(1178.525 -2401.485)" fill="none" stroke="#044d70" stroke-linecap="round" stroke-linejoin="round" stroke-width="3"/>
      <path id="Pfad_2935" data-name="Pfad 2935" d="M-1118.588,2571.34a3.087,3.087,0,0,1-3.087,3.087,3.087,3.087,0,0,1-3.086-3.087,3.087,3.087,0,0,1,3.086-3.086A3.087,3.087,0,0,1-1118.588,2571.34Z" transform="translate(1178.525 -2399.618)" fill="none" stroke="#044d70" stroke-linecap="round" stroke-linejoin="round" stroke-width="3"/>
      <path id="Pfad_2936" data-name="Pfad 2936" d="M-1007.235,2404.571a3.086,3.086,0,0,1-3.086,3.086,3.088,3.088,0,0,1-3.087-3.086,3.088,3.088,0,0,1,3.087-3.086A3.086,3.086,0,0,1-1007.235,2404.571Z" transform="translate(1180.374 -2401.485)" fill="none" stroke="#044d70" stroke-linecap="round" stroke-linejoin="round" stroke-width="3"/>
      <line id="Linie_264" data-name="Linie 264" y1="6.623" x2="2.758" transform="translate(160.478 128.129)" fill="none" stroke="#044d70" stroke-linecap="round" stroke-linejoin="round" stroke-width="3"/>
      <line id="Linie_265" data-name="Linie 265" y1="4.914" x2="2.046" transform="translate(166.164 132.22)" fill="none" stroke="#044d70" stroke-linecap="round" stroke-linejoin="round" stroke-width="3"/>
      <path id="Pfad_2937" data-name="Pfad 2937" d="M-1019.822,2524.455s2.566-1.456,4.739-.548,2.153,3.417,4.174,4.26a4.877,4.877,0,0,0,4.52-.642" transform="translate(1180.338 -2400.123)" fill="none" stroke="#044d70" stroke-linecap="round" stroke-linejoin="round" stroke-width="3"/>
      <line id="Linie_266" data-name="Linie 266" x1="2.438" y1="6.747" transform="translate(5.379 160.134)" fill="none" stroke="#044d70" stroke-linecap="round" stroke-linejoin="round" stroke-width="3"/>
      <line id="Linie_267" data-name="Linie 267" x1="1.809" y1="5.009" transform="translate(11.741 159.789)" fill="none" stroke="#044d70" stroke-linecap="round" stroke-linejoin="round" stroke-width="3"/>
      <path id="Pfad_2938" data-name="Pfad 2938" d="M-1177.715,2558.957s.907-2.8,3.124-3.6,3.895,1.064,5.956.322a4.87,4.87,0,0,0,2.9-3.525" transform="translate(1178.525 -2399.795)" fill="none" stroke="#044d70" stroke-linecap="round" stroke-linejoin="round" stroke-width="3"/>
      <path id="Pfad_2939" data-name="Pfad 2939" d="M-1142.136,2713.04l6.529,9.692a1.266,1.266,0,0,1,.021,1.383,1.268,1.268,0,0,1-1.255.589l-11.567-1.653-26.208-16.427a5.913,5.913,0,0,1-1.868-8.14,5.907,5.907,0,0,1,8.137-1.867Z" transform="translate(1178.525 -2397.388)" fill="none" stroke="#044d70" stroke-linecap="round" stroke-linejoin="round" stroke-width="3"/>
      <line id="Linie_268" data-name="Linie 268" x1="6.272" y2="10.011" transform="translate(30.117 315.652)" fill="none" stroke="#044d70" stroke-linecap="round" stroke-linejoin="round" stroke-width="3"/>
      <line id="Linie_269" data-name="Linie 269" y1="10.008" x2="6.269" transform="translate(5.912 299.738)" fill="none" stroke="#044d70" stroke-linecap="round" stroke-linejoin="round" stroke-width="3"/>
      <line id="Linie_270" data-name="Linie 270" x1="24.208" y1="15.175" transform="translate(9.046 305.486)" fill="none" stroke="#044d70" stroke-linecap="round" stroke-linejoin="round" stroke-width="3"/>
      <line id="Linie_271" data-name="Linie 271" x1="2.966" y2="4.733" transform="translate(37.705 322.014)" fill="none" stroke="#044d70" stroke-linecap="round" stroke-linejoin="round" stroke-width="3"/>
      <path id="Pfad_2940" data-name="Pfad 2940" d="M-1109.994,2603.876a1.444,1.444,0,0,0-1.725-1.085l-16.838,3.844a1.44,1.44,0,0,0-1.083,1.717l14.723,64.548a1.437,1.437,0,0,0,1.723,1.084l16.834-3.84a1.434,1.434,0,0,0,1.084-1.724Z" transform="translate(1178.525 -2398.744)" fill="none" stroke="#044d70" stroke-linecap="round" stroke-linejoin="round" stroke-width="3"/>
      <line id="Linie_272" data-name="Linie 272" x1="8.419" y2="1.917" transform="translate(73.742 261.408)" fill="none" stroke="#044d70" stroke-linecap="round" stroke-linejoin="round" stroke-width="3"/>
      <line id="Linie_273" data-name="Linie 273" x1="8.422" y2="1.918" transform="translate(71.149 250.048)" fill="none" stroke="#044d70" stroke-linecap="round" stroke-linejoin="round" stroke-width="3"/>
      <line id="Linie_274" data-name="Linie 274" x1="8.416" y2="1.922" transform="translate(68.558 238.686)" fill="none" stroke="#044d70" stroke-linecap="round" stroke-linejoin="round" stroke-width="3"/>
      <line id="Linie_275" data-name="Linie 275" x1="8.42" y2="1.92" transform="translate(65.964 227.328)" fill="none" stroke="#044d70" stroke-linecap="round" stroke-linejoin="round" stroke-width="3"/>
      <line id="Linie_276" data-name="Linie 276" x1="8.426" y2="1.925" transform="translate(62.666 215.966)" fill="none" stroke="#044d70" stroke-linecap="round" stroke-linejoin="round" stroke-width="3"/>
      <path id="Pfad_2941" data-name="Pfad 2941" d="M-1055.239,2636.322a9.378,9.378,0,0,1,13.268,0,9.379,9.379,0,0,1,0,13.26c-3.662,3.662-10.352,3.951-15.3,2.037l-2.508,2.513" transform="translate(1179.909 -2398.78)" fill="none" stroke="#044d70" stroke-linecap="round" stroke-linejoin="round" stroke-width="3"/>
      <path id="Pfad_2942" data-name="Pfad 2942" d="M-1065.178,2658.525a.468.468,0,0,0,.935,0,.468.468,0,0,0-.935,0Z" transform="translate(1179.776 -2398.653)" fill="none" stroke="#044d70" stroke-linecap="round" stroke-linejoin="round" stroke-width="3"/>
      <line id="Linie_277" data-name="Linie 277" x1="5.307" y2="13.834" transform="translate(36.37 277.177)" fill="none" stroke="#044d70" stroke-linecap="round" stroke-linejoin="round" stroke-width="3"/>
      <line id="Linie_278" data-name="Linie 278" x2="13.832" y2="5.305" transform="translate(32.108 281.416)" fill="none" stroke="#044d70" stroke-linecap="round" stroke-linejoin="round" stroke-width="3"/>
      <line id="Linie_279" data-name="Linie 279" x2="6.172" y2="6.171" transform="translate(92.553 219.779)" fill="none" stroke="#044d70" stroke-linecap="round" stroke-linejoin="round" stroke-width="3"/>
      <line id="Linie_280" data-name="Linie 280" y1="6.171" x2="6.173" transform="translate(92.553 219.778)" fill="none" stroke="#044d70" stroke-linecap="round" stroke-linejoin="round" stroke-width="3"/>
      <line id="Linie_281" data-name="Linie 281" y1="6.172" x2="6.174" transform="translate(58.422 295.163)" fill="none" stroke="#044d70" stroke-linecap="round" stroke-linejoin="round" stroke-width="3"/>
      <line id="Linie_282" data-name="Linie 282" x1="3.372" y1="8.051" transform="translate(5.716 346.476)" fill="none" stroke="#044d70" stroke-linecap="round" stroke-linejoin="round" stroke-width="3"/>
      <line id="Linie_283" data-name="Linie 283" x1="3.37" y1="8.051" transform="translate(162.717 260.238)" fill="none" stroke="#044d70" stroke-linecap="round" stroke-linejoin="round" stroke-width="3"/>
      <path id="Pfad_2943" data-name="Pfad 2943" d="M-1042.27,2614.588a5.555,5.555,0,0,1-5.554-5.555,5.555,5.555,0,0,1,5.554-5.556,5.557,5.557,0,0,1,5.558,5.556A5.557,5.557,0,0,1-1042.27,2614.588Z" transform="translate(1180.009 -2399.193)" fill="none" stroke="#044d70" stroke-linecap="round" stroke-linejoin="round" stroke-width="3"/>
      <path id="Pfad_2944" data-name="Pfad 2944" d="M-1175.438,2661.42a3.087,3.087,0,0,1-3.087-3.087,3.087,3.087,0,0,1,3.087-3.086,3.086,3.086,0,0,1,3.086,3.086A3.086,3.086,0,0,1-1175.438,2661.42Z" transform="translate(1178.525 -2398.644)" fill="none" stroke="#044d70" stroke-linecap="round" stroke-linejoin="round" stroke-width="3"/>
      <path id="Pfad_2945" data-name="Pfad 2945" d="M-1008.667,2772.774a3.087,3.087,0,0,1-3.087-3.086,3.089,3.089,0,0,1,3.087-3.087,3.088,3.088,0,0,1,3.086,3.087A3.086,3.086,0,0,1-1008.667,2772.774Z" transform="translate(1180.392 -2397.388)" fill="none" stroke="#044d70" stroke-linecap="round" stroke-linejoin="round" stroke-width="3"/>
      <line id="Linie_284" data-name="Linie 284" x2="6.623" y2="2.758" transform="translate(39.611 362.814)" fill="none" stroke="#044d70" stroke-linecap="round" stroke-linejoin="round" stroke-width="3"/>
      <line id="Linie_285" data-name="Linie 285" x2="4.915" y2="2.046" transform="translate(37.267 368.44)" fill="none" stroke="#044d70" stroke-linecap="round" stroke-linejoin="round" stroke-width="3"/>
      <path id="Pfad_2946" data-name="Pfad 2946" d="M-1128.552,2760.187s1.455,2.565.549,4.738-3.417,2.153-4.261,4.175a4.873,4.873,0,0,0,.643,4.519" transform="translate(1178.525 -2397.388)" fill="none" stroke="#044d70" stroke-linecap="round" stroke-linejoin="round" stroke-width="3"/>
      <line id="Linie_286" data-name="Linie 286" y1="2.438" x2="6.747" transform="translate(7.838 207.654)" fill="none" stroke="#044d70" stroke-linecap="round" stroke-linejoin="round" stroke-width="3"/>
      <line id="Linie_287" data-name="Linie 287" y1="1.81" x2="5.009" transform="translate(9.909 214.081)" fill="none" stroke="#044d70" stroke-linecap="round" stroke-linejoin="round" stroke-width="3"/>
      <path id="Pfad_2947" data-name="Pfad 2947" d="M-1163.055,2602.293s2.806.908,3.605,3.124-1.065,3.9-.323,5.956a4.875,4.875,0,0,0,3.527,2.9" transform="translate(1178.525 -2399.201)" fill="none" stroke="#044d70" stroke-linecap="round" stroke-linejoin="round" stroke-width="3"/>
      <path id="Pfad_2948" data-name="Pfad 2948" d="M-1095.067,2704.335a35,35,0,0,0,0,49.5,35,35,0,0,0,49.5,0,35,35,0,0,0,0-49.5A35,35,0,0,0-1095.067,2704.335Z" transform="translate(1179.519 -2397.388)" fill="none" stroke="#044d70" stroke-linecap="round" stroke-linejoin="round" stroke-width="3"/>
      <path id="Pfad_2949" data-name="Pfad 2949" d="M-1091.532,2707.871a30,30,0,0,0,0,42.426,30,30,0,0,0,42.427,0,30,30,0,0,0,0-42.427A30,30,0,0,0-1091.532,2707.871Z" transform="translate(1179.552 -2397.388)" fill="none" stroke="#044d70" stroke-linecap="round" stroke-linejoin="round" stroke-width="3"/>
      <path id="Pfad_2950" data-name="Pfad 2950" d="M-1066.474,2721.336l13.477-9.574.013-.013-.006.009.007-.008-.012.015-9.623,14.417,10.267,2.9h.009l0,0h0l-10.67,3.57,10.026,13.753.01.011,0,0,0,0-.009-.01-13.515-9.7" transform="translate(1179.807 -2397.388)" fill="none" stroke="#044d70" stroke-linecap="round" stroke-linejoin="round" stroke-width="3"/>
      <path id="Pfad_2951" data-name="Pfad 2951" d="M-1074.163,2736.741l-13.476,9.666-.013.013,0,0,0,0,.013-.014,9.623-14.686-10.264-2.633h-.01l0,0h.005l10.533-3.434-9.892-13.886-.01-.01,0,.006,0-.008.01.011,13.479,9.565" transform="translate(1179.558 -2397.388)" fill="none" stroke="#044d70" stroke-linecap="round" stroke-linejoin="round" stroke-width="3"/>
      <path id="Pfad_2952" data-name="Pfad 2952" d="M-1070.321,2703.084l4.157,19.72a7.376,7.376,0,0,1,3.234,6.109,7.383,7.383,0,0,1-3.23,6.109l-4.157,20.063-4.159-20.062a7.384,7.384,0,0,1-3.231-6.111,7.371,7.371,0,0,1,3.233-6.108Z" transform="translate(1179.681 -2397.388)" fill="none" stroke="#044d70" stroke-linecap="round" stroke-linejoin="round" stroke-width="3"/>
      <path id="Pfad_2953" data-name="Pfad 2953" d="M-1070.318,2731.587a2.5,2.5,0,0,0,2.5-2.5,2.5,2.5,0,0,0-2.5-2.5,2.5,2.5,0,0,0-2.5,2.5A2.5,2.5,0,0,0-1070.318,2731.587Z" transform="translate(1179.705 -2397.388)" fill="none" stroke="#044d70" stroke-linecap="round" stroke-linejoin="round" stroke-width="3"/>
      <path id="Pfad_2954" data-name="Pfad 2954" d="M-1048.532,2701.64l4.951-4.95c1.562-1.562,2.679-.147,4.241,1.416s2.977,2.679,1.415,4.242l-4.949,4.948" transform="translate(1180.001 -2398.141)" fill="none" stroke="#044d70" stroke-linecap="round" stroke-linejoin="round" stroke-width="3"/>
      <path id="Pfad_2955" data-name="Pfad 2955" d="M-1045.281,2698.39a11.5,11.5,0,0,1,2.331-13.017,11.555,11.555,0,0,1,16.342,0,11.555,11.555,0,0,1,0,16.342,11.493,11.493,0,0,1-13.015,2.331" transform="translate(1180.077 -2398.192)" fill="none" stroke="#044d70" stroke-linecap="round" stroke-linejoin="round" stroke-width="3"/>
      <line id="Linie_288" data-name="Linie 288" x1="5.308" y2="13.834" transform="translate(166.149 226.592)" fill="none" stroke="#044d70" stroke-linecap="round" stroke-linejoin="round" stroke-width="3"/>
      <line id="Linie_289" data-name="Linie 289" x2="13.832" y2="5.305" transform="translate(161.882 230.844)" fill="none" stroke="#044d70" stroke-linecap="round" stroke-linejoin="round" stroke-width="3"/>
      <path id="Pfad_2956" data-name="Pfad 2956" d="M-860.248,2450.274l-7.956-11.809a1.537,1.537,0,0,1-.024-1.685,1.541,1.541,0,0,1,1.528-.717l14.094,2.012,31.936,20.018a7.205,7.205,0,0,1,2.276,9.921,7.2,7.2,0,0,1-9.914,2.274Z" transform="translate(1182.609 -2401.485)" fill="none" stroke="#044d70" stroke-linecap="round" stroke-linejoin="round" stroke-width="3"/>
      <line id="Linie_290" data-name="Linie 290" y1="12.199" x2="7.642" transform="translate(322.361 36.589)" fill="none" stroke="#044d70" stroke-linecap="round" stroke-linejoin="round" stroke-width="3"/>
      <line id="Linie_291" data-name="Linie 291" x1="7.64" y2="12.194" transform="translate(351.858 55.081)" fill="none" stroke="#044d70" stroke-linecap="round" stroke-linejoin="round" stroke-width="3"/>
      <line id="Linie_292" data-name="Linie 292" x2="29.498" y2="18.49" transform="translate(326.181 42.688)" fill="none" stroke="#044d70" stroke-linecap="round" stroke-linejoin="round" stroke-width="3"/>
      <line id="Linie_293" data-name="Linie 293" y1="5.767" x2="3.613" transform="translate(317.143 35.271)" fill="none" stroke="#044d70" stroke-linecap="round" stroke-linejoin="round" stroke-width="3"/>
      <path id="Pfad_2957" data-name="Pfad 2957" d="M-874.266,2553.05a1.44,1.44,0,0,0,1.724,1.086l16.838-3.843a1.44,1.44,0,0,0,1.083-1.718l-14.723-64.547a1.434,1.434,0,0,0-1.723-1.084l-16.834,3.839a1.435,1.435,0,0,0-1.084,1.724Z" transform="translate(1182.609 -2400.376)" fill="none" stroke="#044d70" stroke-linecap="round" stroke-linejoin="round" stroke-width="3"/>
      <line id="Linie_294" data-name="Linie 294" y1="1.917" x2="8.419" transform="translate(294.734 94.527)" fill="none" stroke="#044d70" stroke-linecap="round" stroke-linejoin="round" stroke-width="3"/>
      <line id="Linie_295" data-name="Linie 295" y1="1.919" x2="8.421" transform="translate(297.323 105.886)" fill="none" stroke="#044d70" stroke-linecap="round" stroke-linejoin="round" stroke-width="3"/>
      <line id="Linie_296" data-name="Linie 296" y1="1.922" x2="8.416" transform="translate(299.921 117.245)" fill="none" stroke="#044d70" stroke-linecap="round" stroke-linejoin="round" stroke-width="3"/>
      <line id="Linie_297" data-name="Linie 297" y1="1.92" x2="8.42" transform="translate(303.224 128.606)" fill="none" stroke="#044d70" stroke-linecap="round" stroke-linejoin="round" stroke-width="3"/>
      <line id="Linie_298" data-name="Linie 298" y1="1.924" x2="8.427" transform="translate(305.78 139.963)" fill="none" stroke="#044d70" stroke-linecap="round" stroke-linejoin="round" stroke-width="3"/>
      <path id="Pfad_2958" data-name="Pfad 2958" d="M-914.007,2441.939a9.377,9.377,0,0,1-13.268.041,9.38,9.38,0,0,1-.039-13.26c3.652-3.675,10.34-3.984,15.3-2.086l2.5-2.521" transform="translate(1181.421 -2401.485)" fill="none" stroke="#044d70" stroke-linecap="round" stroke-linejoin="round" stroke-width="3"/>
      <path id="Pfad_2959" data-name="Pfad 2959" d="M-904.137,2419.7a.468.468,0,0,0-.935,0,.468.468,0,0,0,.935,0Z" transform="translate(1181.544 -2401.485)" fill="none" stroke="#044d70" stroke-linecap="round" stroke-linejoin="round" stroke-width="3"/>
      <line id="Linie_299" data-name="Linie 299" y1="13.833" x2="5.308" transform="translate(333.195 88.089)" fill="none" stroke="#044d70" stroke-linecap="round" stroke-linejoin="round" stroke-width="3"/>
      <line id="Linie_300" data-name="Linie 300" x1="13.833" y1="5.304" transform="translate(328.932 92.38)" fill="none" stroke="#044d70" stroke-linecap="round" stroke-linejoin="round" stroke-width="3"/>
      <line id="Linie_301" data-name="Linie 301" x1="6.172" y1="6.172" transform="translate(261.98 141.008)" fill="none" stroke="#044d70" stroke-linecap="round" stroke-linejoin="round" stroke-width="3"/>
      <line id="Linie_302" data-name="Linie 302" x1="6.172" y2="6.171" transform="translate(261.98 141.009)" fill="none" stroke="#044d70" stroke-linecap="round" stroke-linejoin="round" stroke-width="3"/>
      <line id="Linie_303" data-name="Linie 303" x1="6.174" y2="6.171" transform="translate(286.348 54.89)" fill="none" stroke="#044d70" stroke-linecap="round" stroke-linejoin="round" stroke-width="3"/>
      <line id="Linie_304" data-name="Linie 304" x2="3.371" y2="8.05" transform="translate(365.785 24.542)" fill="none" stroke="#044d70" stroke-linecap="round" stroke-linejoin="round" stroke-width="3"/>
      <line id="Linie_305" data-name="Linie 305" x2="3.37" y2="8.054" transform="translate(208.783 38.531)" fill="none" stroke="#044d70" stroke-linecap="round" stroke-linejoin="round" stroke-width="3"/>
      <path id="Pfad_2960" data-name="Pfad 2960" d="M-953,2541.338a5.556,5.556,0,0,1,5.554,5.556A5.555,5.555,0,0,1-953,2552.45a5.557,5.557,0,0,1-5.557-5.556A5.558,5.558,0,0,1-953,2541.338Z" transform="translate(1181.022 -2399.898)" fill="none" stroke="#044d70" stroke-linecap="round" stroke-linejoin="round" stroke-width="3"/>
      <path id="Pfad_2961" data-name="Pfad 2961" d="M-810.824,2516.521a3.086,3.086,0,0,1,3.087,3.086,3.088,3.088,0,0,1-3.087,3.087,3.087,3.087,0,0,1-3.086-3.086A3.086,3.086,0,0,1-810.824,2516.521Z" transform="translate(1182.609 -2400.197)" fill="none" stroke="#044d70" stroke-linecap="round" stroke-linejoin="round" stroke-width="3"/>
      <path id="Pfad_2962" data-name="Pfad 2962" d="M-977.594,2405.166a3.087,3.087,0,0,1,3.086,3.087,3.088,3.088,0,0,1-3.087,3.086,3.087,3.087,0,0,1-3.085-3.086A3.087,3.087,0,0,1-977.594,2405.166Z" transform="translate(1180.74 -2401.485)" fill="none" stroke="#044d70" stroke-linecap="round" stroke-linejoin="round" stroke-width="3"/>
      <line id="Linie_306" data-name="Linie 306" x1="6.623" y1="2.758" transform="translate(328.638 13.497)" fill="none" stroke="#044d70" stroke-linecap="round" stroke-linejoin="round" stroke-width="3"/>
      <line id="Linie_307" data-name="Linie 307" x1="4.915" y1="2.046" transform="translate(332.69 8.582)" fill="none" stroke="#044d70" stroke-linecap="round" stroke-linejoin="round" stroke-width="3"/>
      <path id="Pfad_2963" data-name="Pfad 2963" d="M-857.71,2417.753s-1.455-2.564-.549-4.737,3.417-2.154,4.261-4.175a4.877,4.877,0,0,0-.642-4.52" transform="translate(1182.609 -2401.485)" fill="none" stroke="#044d70" stroke-linecap="round" stroke-linejoin="round" stroke-width="3"/>
      <line id="Linie_308" data-name="Linie 308" x1="6.747" y2="2.438" transform="translate(360.287 169.008)" fill="none" stroke="#044d70" stroke-linecap="round" stroke-linejoin="round" stroke-width="3"/>
      <line id="Linie_309" data-name="Linie 309" x1="5.009" y2="1.809" transform="translate(359.954 163.208)" fill="none" stroke="#044d70" stroke-linecap="round" stroke-linejoin="round" stroke-width="3"/>
      <path id="Pfad_2964" data-name="Pfad 2964" d="M-823.207,2575.648s-2.806-.908-3.605-3.124,1.065-3.9.323-5.956a4.877,4.877,0,0,0-3.526-2.9" transform="translate(1182.609 -2399.64)" fill="none" stroke="#044d70" stroke-linecap="round" stroke-linejoin="round" stroke-width="3"/>
      <line id="Linie_310" data-name="Linie 310" y1="8.514" transform="translate(237.866 102.466)" fill="none" stroke="#044d70" stroke-linecap="round" stroke-linejoin="round" stroke-width="3"/>
      <line id="Linie_311" data-name="Linie 311" y1="4.392" x2="4.39" transform="translate(237.866 98.031)" fill="none" stroke="#044d70" stroke-linecap="round" stroke-linejoin="round" stroke-width="3"/>
      <line id="Linie_312" data-name="Linie 312" x1="4.391" y1="4.39" transform="translate(233.457 98.015)" fill="none" stroke="#044d70" stroke-linecap="round" stroke-linejoin="round" stroke-width="3"/>
      <line id="Linie_313" data-name="Linie 313" y1="3.654" transform="translate(237.877 70.883)" fill="none" stroke="#044d70" stroke-linecap="round" stroke-linejoin="round" stroke-width="3"/>
      <line id="Linie_314" data-name="Linie 314" x2="2.58" y2="2.585" transform="translate(253.131 111.326)" fill="none" stroke="#044d70" stroke-linecap="round" stroke-linejoin="round" stroke-width="3"/>
      <line id="Linie_315" data-name="Linie 315" y1="2.585" x2="2.577" transform="translate(253.105 78.144)" fill="none" stroke="#044d70" stroke-linecap="round" stroke-linejoin="round" stroke-width="3"/>
      <line id="Linie_316" data-name="Linie 316" y1="0.001" x2="3.65" transform="translate(259.491 96.29)" fill="none" stroke="#044d70" stroke-linecap="round" stroke-linejoin="round" stroke-width="3"/>
      <line id="Linie_317" data-name="Linie 317" x1="2.58" y2="2.585" transform="translate(220.053 111.326)" fill="none" stroke="#044d70" stroke-linecap="round" stroke-linejoin="round" stroke-width="3"/>
      <line id="Linie_318" data-name="Linie 318" x1="2.576" y1="2.585" transform="translate(220.082 78.144)" fill="none" stroke="#044d70" stroke-linecap="round" stroke-linejoin="round" stroke-width="3"/>
      <line id="Linie_319" data-name="Linie 319" x1="3.649" y1="0.001" transform="translate(212.625 96.29)" fill="none" stroke="#044d70" stroke-linecap="round" stroke-linejoin="round" stroke-width="3"/>
      <line id="Linie_320" data-name="Linie 320" x1="9.133" transform="translate(233.324 111.049)" fill="none" stroke="#044d70" stroke-linecap="round" stroke-linejoin="round" stroke-width="3"/>
      <line id="Linie_321" data-name="Linie 321" x1="9.133" transform="translate(233.324 115.192)" fill="none" stroke="#044d70" stroke-linecap="round" stroke-linejoin="round" stroke-width="3"/>
      <line id="Linie_322" data-name="Linie 322" x1="9.031" transform="translate(233.375 119.457)" fill="none" stroke="#044d70" stroke-linecap="round" stroke-linejoin="round" stroke-width="3"/>
      <path id="Pfad_2965" data-name="Pfad 2965" d="M-947.8,2518.912a4.414,4.414,0,0,0,4.567,4.584,4.414,4.414,0,0,0,4.567-4.584l0-6.337c0-3.828,7.934-6.476,7.934-16.295a12.574,12.574,0,0,0-12.5-12.544,12.729,12.729,0,0,0-12.5,12.544c0,9.794,7.933,12.665,7.933,16.295Z" transform="translate(1181.155 -2400.471)" fill="none" stroke="#044d70" stroke-linecap="round" stroke-linejoin="round" stroke-width="3"/>
      <path id="Pfad_2966" data-name="Pfad 2966" d="M-946.919,2488.979a8.917,8.917,0,0,0-3.927,3.878" transform="translate(1181.059 -2400.512)" fill="none" stroke="#044d70" stroke-linecap="round" stroke-linejoin="round" stroke-width="3"/>
      <line id="Linie_323" data-name="Linie 323" x1="14.102" y2="14.103" transform="translate(266.918 175.091)" fill="none" stroke="#044d70" stroke-linecap="round" stroke-linejoin="round" stroke-width="3"/>
      <path id="Pfad_2967" data-name="Pfad 2967" d="M-901.882,2585.151a2.5,2.5,0,0,1,2.5,2.5,2.5,2.5,0,0,1-2.5,2.5,2.5,2.5,0,0,1-2.5-2.5A2.5,2.5,0,0,1-901.882,2585.151Z" transform="translate(1181.585 -2399.435)" fill="none" stroke="#044d70" stroke-linecap="round" stroke-linejoin="round" stroke-width="3"/>
      <path id="Pfad_2968" data-name="Pfad 2968" d="M-912.888,2573.143a2.5,2.5,0,0,1,2.5,2.5,2.5,2.5,0,0,1-2.5,2.5,2.5,2.5,0,0,1-2.5-2.5A2.5,2.5,0,0,1-912.888,2573.143Z" transform="translate(1181.462 -2399.569)" fill="none" stroke="#044d70" stroke-linecap="round" stroke-linejoin="round" stroke-width="3"/>
      <path id="Pfad_2969" data-name="Pfad 2969" d="M-928.041,2725.51l7.956,11.809a1.542,1.542,0,0,1,.024,1.686,1.541,1.541,0,0,1-1.528.717l-14.094-2.013-31.936-20.018a7.2,7.2,0,0,1-2.276-9.92,7.2,7.2,0,0,1,9.914-2.275Z" transform="translate(1181.176 -2397.388)" fill="none" stroke="#044d70" stroke-linecap="round" stroke-linejoin="round" stroke-width="3"/>
      <line id="Linie_324" data-name="Linie 324" x1="7.642" y2="12.199" transform="translate(245.572 328.122)" fill="none" stroke="#044d70" stroke-linecap="round" stroke-linejoin="round" stroke-width="3"/>
      <line id="Linie_325" data-name="Linie 325" y1="12.194" x2="7.64" transform="translate(215.745 309.636)" fill="none" stroke="#044d70" stroke-linecap="round" stroke-linejoin="round" stroke-width="3"/>
      <line id="Linie_326" data-name="Linie 326" x1="29.498" y1="18.49" transform="translate(219.763 315.733)" fill="none" stroke="#044d70" stroke-linecap="round" stroke-linejoin="round" stroke-width="3"/>
      <line id="Linie_327" data-name="Linie 327" x1="3.612" y2="5.767" transform="translate(254.892 335.873)" fill="none" stroke="#044d70" stroke-linecap="round" stroke-linejoin="round" stroke-width="3"/>
      <path id="Pfad_2970" data-name="Pfad 2970" d="M-840.173,2718.76a1.44,1.44,0,0,0-.275-2.018L-854.2,2706.3a1.441,1.441,0,0,0-2.012.273l-40.04,52.725a1.437,1.437,0,0,0,.276,2.018l13.751,10.442a1.433,1.433,0,0,0,2.017-.276Z" transform="translate(1182.609 -2397.388)" fill="none" stroke="#044d70" stroke-linecap="round" stroke-linejoin="round" stroke-width="3"/>
      <line id="Linie_328" data-name="Linie 328" x1="6.874" y1="5.224" transform="translate(299.972 362.019)" fill="none" stroke="#044d70" stroke-linecap="round" stroke-linejoin="round" stroke-width="3"/>
      <line id="Linie_329" data-name="Linie 329" x1="6.878" y1="5.226" transform="translate(307.696 352.841)" fill="none" stroke="#044d70" stroke-linecap="round" stroke-linejoin="round" stroke-width="3"/>
      <line id="Linie_330" data-name="Linie 330" x1="6.877" y1="5.219" transform="translate(314.665 343.664)" fill="none" stroke="#044d70" stroke-linecap="round" stroke-linejoin="round" stroke-width="3"/>
      <line id="Linie_331" data-name="Linie 331" x1="6.877" y1="5.223" transform="translate(321.633 334.484)" fill="none" stroke="#044d70" stroke-linecap="round" stroke-linejoin="round" stroke-width="3"/>
      <line id="Linie_332" data-name="Linie 332" x1="6.886" y1="5.226" transform="translate(328.6 325.309)" fill="none" stroke="#044d70" stroke-linecap="round" stroke-linejoin="round" stroke-width="3"/>
      <path id="Pfad_2971" data-name="Pfad 2971" d="M-857.266,2634.165a9.378,9.378,0,0,1,13.268,0,9.38,9.38,0,0,1,0,13.261c-3.662,3.662-10.352,3.95-15.3,2.037l-2.509,2.513" transform="translate(1182.609 -2398.805)" fill="none" stroke="#044d70" stroke-linecap="round" stroke-linejoin="round" stroke-width="3"/>
      <path id="Pfad_2972" data-name="Pfad 2972" d="M-867.205,2656.369a.468.468,0,0,0,.935,0,.468.468,0,0,0-.935,0Z" transform="translate(1182.609 -2398.677)" fill="none" stroke="#044d70" stroke-linecap="round" stroke-linejoin="round" stroke-width="3"/>
      <line id="Linie_333" data-name="Linie 333" x1="5.308" y2="13.834" transform="translate(236.96 274.996)" fill="none" stroke="#044d70" stroke-linecap="round" stroke-linejoin="round" stroke-width="3"/>
      <line id="Linie_334" data-name="Linie 334" x2="13.832" y2="5.305" transform="translate(232.712 279.236)" fill="none" stroke="#044d70" stroke-linecap="round" stroke-linejoin="round" stroke-width="3"/>
      <line id="Linie_335" data-name="Linie 335" x2="6.172" y2="6.171" transform="translate(292.743 217.598)" fill="none" stroke="#044d70" stroke-linecap="round" stroke-linejoin="round" stroke-width="3"/>
      <line id="Linie_336" data-name="Linie 336" y1="6.171" x2="6.173" transform="translate(292.742 217.597)" fill="none" stroke="#044d70" stroke-linecap="round" stroke-linejoin="round" stroke-width="3"/>
      <line id="Linie_337" data-name="Linie 337" y1="6.172" x2="6.174" transform="translate(289.62 302.089)" fill="none" stroke="#044d70" stroke-linecap="round" stroke-linejoin="round" stroke-width="3"/>
      <line id="Linie_338" data-name="Linie 338" x1="3.371" y1="8.051" transform="translate(205.952 344.319)" fill="none" stroke="#044d70" stroke-linecap="round" stroke-linejoin="round" stroke-width="3"/>
      <line id="Linie_339" data-name="Linie 339" x1="3.37" y1="8.052" transform="translate(362.986 309.315)" fill="none" stroke="#044d70" stroke-linecap="round" stroke-linejoin="round" stroke-width="3"/>
      <path id="Pfad_2973" data-name="Pfad 2973" d="M-824.284,2623.439a5.555,5.555,0,0,1-5.554-5.556,5.554,5.554,0,0,1,5.554-5.555,5.556,5.556,0,0,1,5.557,5.555A5.557,5.557,0,0,1-824.284,2623.439Z" transform="translate(1182.609 -2399.092)" fill="none" stroke="#044d70" stroke-linecap="round" stroke-linejoin="round" stroke-width="3"/>
      <path id="Pfad_2974" data-name="Pfad 2974" d="M-977.465,2659.264a3.087,3.087,0,0,1-3.087-3.087,3.087,3.087,0,0,1,3.087-3.086,3.086,3.086,0,0,1,3.086,3.086A3.087,3.087,0,0,1-977.465,2659.264Z" transform="translate(1180.742 -2398.668)" fill="none" stroke="#044d70" stroke-linecap="round" stroke-linejoin="round" stroke-width="3"/>
      <path id="Pfad_2975" data-name="Pfad 2975" d="M-810.7,2770.618a3.087,3.087,0,0,1-3.087-3.086,3.088,3.088,0,0,1,3.087-3.087,3.087,3.087,0,0,1,3.086,3.087A3.086,3.086,0,0,1-810.7,2770.618Z" transform="translate(1182.609 -2397.388)" fill="none" stroke="#044d70" stroke-linecap="round" stroke-linejoin="round" stroke-width="3"/>
      <line id="Linie_340" data-name="Linie 340" x2="6.623" y2="2.758" transform="translate(240.247 360.657)" fill="none" stroke="#044d70" stroke-linecap="round" stroke-linejoin="round" stroke-width="3"/>
      <line id="Linie_341" data-name="Linie 341" x2="4.915" y2="2.046" transform="translate(237.864 366.283)" fill="none" stroke="#044d70" stroke-linecap="round" stroke-linejoin="round" stroke-width="3"/>
      <path id="Pfad_2976" data-name="Pfad 2976" d="M-930.579,2758.031s1.455,2.565.548,4.738-3.417,2.153-4.26,4.175a4.875,4.875,0,0,0,.642,4.519" transform="translate(1181.246 -2397.388)" fill="none" stroke="#044d70" stroke-linecap="round" stroke-linejoin="round" stroke-width="3"/>
      <line id="Linie_342" data-name="Linie 342" y1="2.438" x2="6.747" transform="translate(225.321 213.568)" fill="none" stroke="#044d70" stroke-linecap="round" stroke-linejoin="round" stroke-width="3"/>
      <line id="Linie_343" data-name="Linie 343" y1="1.809" x2="5.009" transform="translate(227.403 219.995)" fill="none" stroke="#044d70" stroke-linecap="round" stroke-linejoin="round" stroke-width="3"/>
      <path id="Pfad_2977" data-name="Pfad 2977" d="M-948.071,2608.143s2.806.906,3.6,3.124-1.065,3.9-.323,5.956a4.872,4.872,0,0,0,3.526,2.9" transform="translate(1181.11 -2399.134)" fill="none" stroke="#044d70" stroke-linecap="round" stroke-linejoin="round" stroke-width="3"/>
      <path id="Pfad_2978" data-name="Pfad 2978" d="M-934.427,2644.331c-1.848-10.134,4.092-16.457,11.868-17.875s15.8,2.934,17.55,12.508c2.106,11.543-10.216,27.693-10.216,27.693S-932.27,2656.155-934.427,2644.331Z" transform="translate(1181.445 -2398.709)" fill="none" stroke="#044d70" stroke-linecap="round" stroke-linejoin="round" stroke-width="3"/>
      <path id="Pfad_2979" data-name="Pfad 2979" d="M-925.95,2642.566a6.3,6.3,0,0,0,7.324,5.062,6.3,6.3,0,0,0,5.064-7.323,6.3,6.3,0,0,0-7.324-5.062A6.3,6.3,0,0,0-925.95,2642.566Z" transform="translate(1181.403 -2398.823)" fill="none" stroke="#044d70" stroke-linecap="round" stroke-linejoin="round" stroke-width="3"/>
    </g>
  </g>
</svg>
