<svg id="Ebene_1" data-name="Ebene 1" xmlns="http://www.w3.org/2000/svg" viewBox="0 0 70 96"><defs><style>.cls-1{fill:#036d99;}.cls-2{fill:none;stroke:#fff;stroke-linecap:round;stroke-linejoin:round;stroke-width:5px;}</style></defs><title>icon</title><path class="cls-1" d="M34.7,3.63c-15.52,0-31.23,11-31.23,32,0,9.48,4.69,21.54,13.94,35.85A201.94,201.94,0,0,0,31,90a5.18,5.18,0,0,0,3.73,2h0a5.2,5.2,0,0,0,3.73-1.94A185.44,185.44,0,0,0,51.88,71.78C61,57.56,65.69,45.37,65.69,35.68,65.69,16.84,53,3.63,34.7,3.63Z"/><polygon class="cls-2" points="34.5 56.44 34.5 56.44 34.5 56.44 34.5 56.44 34.5 56.44"/><path class="cls-2" d="M25,30.61a9.48,9.48,0,1,1,18.95,0C44,35.84,39.41,40.82,34.5,43v3.59"/></svg>