<?xml version="1.0" encoding="utf-8"?>
<!-- Generator: Adobe Illustrator 16.0.0, SVG Export Plug-In . SVG Version: 6.00 Build 0)  -->
<!DOCTYPE svg PUBLIC "-//W3C//DTD SVG 1.1//EN" "http://www.w3.org/Graphics/SVG/1.1/DTD/svg11.dtd">
<svg version="1.1" id="Ebene_1" xmlns="http://www.w3.org/2000/svg" xmlns:xlink="http://www.w3.org/1999/xlink" x="0px" y="0px"
	 width="48px" height="48px" viewBox="0 0 48 48" style="enable-background:new 0 0 48 48;" xml:space="preserve">
<style type="text/css">
<![CDATA[
	.st0{fill:none;stroke:#F3B100;stroke-width:10;stroke-linecap:round;stroke-miterlimit:10;}
	.st1{display:inline;fill:none;stroke:#FFFFFF;stroke-width:6;stroke-linecap:round;stroke-miterlimit:10;}
	.st2{display:inline;fill:none;stroke:#036D99;stroke-width:8;stroke-linecap:round;stroke-miterlimit:10;}
	.st3{fill:none;stroke:#FFFFFF;stroke-width:4;stroke-linecap:round;stroke-linejoin:round;stroke-miterlimit:10;}
	.st4{fill:none;stroke:#FFFFFF;stroke-width:5;stroke-linecap:round;stroke-linejoin:round;stroke-miterlimit:10;}
	.st5{fill:#FFFFFF;stroke:#FFFFFF;stroke-width:4;stroke-linecap:round;stroke-linejoin:round;stroke-miterlimit:10;}
	.st6{fill:#FFFFFF;stroke:#FFFFFF;stroke-width:6;stroke-linecap:round;stroke-linejoin:round;stroke-miterlimit:10;}
	.st7{display:inline;fill:none;stroke:#FFFFFF;stroke-width:4;stroke-linecap:round;stroke-linejoin:round;stroke-miterlimit:10;}
	.st8{display:inline;fill:none;stroke:#FFFFFF;stroke-width:6;stroke-linecap:round;stroke-linejoin:round;stroke-miterlimit:10;}
	.st9{display:none;fill:none;stroke:#FFFFFF;stroke-width:2;stroke-linecap:round;stroke-miterlimit:10;}
	
		.st10{display:inline;fill:#FFFFFF;stroke:#FFFFFF;stroke-width:4;stroke-linecap:round;stroke-linejoin:round;stroke-miterlimit:10;}
	.st11{fill:none;stroke:#FFFFFF;stroke-width:4;stroke-linecap:round;stroke-miterlimit:10;}
	.st12{fill:none;stroke:#FFFFFF;stroke-width:5;stroke-linecap:round;stroke-miterlimit:10;}
	.st13{fill:none;stroke:#FFFFFF;stroke-width:6;stroke-linecap:round;stroke-miterlimit:10;}
	.st14{fill:none;stroke:#036D99;stroke-width:8;stroke-linecap:round;stroke-miterlimit:10;}
	.st15{fill:none;stroke:#B2B2B2;stroke-width:4;stroke-linecap:round;stroke-miterlimit:10;stroke-dasharray:0,10;}
	.st16{opacity:0.5;}
	.st17{fill:#FFFFFF;}
	.st18{display:inline;}
	.st19{fill:none;stroke:#F35800;stroke-width:10;stroke-linecap:round;stroke-miterlimit:10;}
	.st20{fill:none;stroke:#FFFFFF;stroke-width:1.84;stroke-linecap:round;stroke-miterlimit:10;}
	.st21{display:none;}
	.st22{fill:none;stroke:#444444;stroke-width:4;stroke-linecap:round;stroke-linejoin:round;stroke-miterlimit:10;}
	.st23{fill:none;stroke:#444444;stroke-width:6;stroke-linecap:round;stroke-linejoin:round;stroke-miterlimit:10;}
	.st24{fill:#444444;stroke:#444444;stroke-width:4;stroke-linecap:round;stroke-linejoin:round;stroke-miterlimit:10;}
	.st25{fill:#FFFFFF;stroke:#444444;stroke-width:6;stroke-linecap:round;stroke-linejoin:round;stroke-miterlimit:10;}
]]>
</style>
<g id="XMLID_9_">
	<g>
		<g class="st21">
			<path class="st20" d="M382.6,25.8c0,10.6-8.6,19.2-19.2,19.2c-10.6,0-19.2-8.6-19.2-19.2c0-10.6,8.6-19.2,19.2-19.2
				C374,6.6,382.6,15.2,382.6,25.8z"/>
			<rect x="363.4" y="37.6" class="st1" width="0" height="0"/>
			<path class="st8" d="M356.6,19c0-3.8,3-6.8,6.8-6.8c3.8,0,6.8,3,6.8,6.8c0,3.8-3.3,7.3-6.8,8.9v1.5"/>
		</g>
		<g class="st21">
			<line class="st7" x1="363.4" y1="28.6" x2="363.4" y2="24.5"/>
			<line class="st7" x1="363.4" y1="24.5" x2="360.2" y2="21.3"/>
			<line class="st7" x1="363.4" y1="24.5" x2="366.6" y2="21.3"/>
		</g>
		<g class="st21">
			<g class="st18">
				<line class="st3" x1="363.4" y1="13.4" x2="363.4" y2="11.3"/>
				<line class="st3" x1="354.9" y1="33.9" x2="353.5" y2="35.3"/>
				<line class="st3" x1="354.9" y1="16.8" x2="353.5" y2="15.4"/>
				<line class="st3" x1="351.4" y1="25.5" x2="349.3" y2="25.5"/>
			</g>
			<line class="st7" x1="371.9" y1="33.9" x2="373.3" y2="35.3"/>
			<line class="st7" x1="371.9" y1="16.8" x2="373.3" y2="15.4"/>
			<line class="st7" x1="375.4" y1="25.5" x2="377.5" y2="25.5"/>
		</g>
		<g class="st21">
			<path class="st10" d="M368.1,24.9c0-2.6-2.1-4.7-4.7-4.7c-2.6,0-4.7,2.1-4.7,4.7c0,5.1,3.5,5.7,3.5,7.3v2c0,0.7-0.1,1.3,0.4,1.6
				c0.1,0.4,1.7,0.4,1.7,0c0.4-0.4,0.4-0.9,0.4-1.6v-2C364.6,30.7,368.1,29.9,368.1,24.9z"/>
			<rect x="363.4" y="37.1" class="st10" width="0" height="0"/>
		</g>
		<g class="st16">
			<g>
				<line class="st22" x1="363.4" y1="13.4" x2="363.4" y2="11.3"/>
			</g>
			<g>
				<line class="st22" x1="353.5" y1="19.1" x2="351.7" y2="18"/>
			</g>
			<g>
				<line class="st22" x1="353.5" y1="30.5" x2="351.7" y2="31.5"/>
			</g>
			<g>
				<line class="st22" x1="373.3" y1="19.1" x2="375.1" y2="18"/>
			</g>
			<g>
				<line class="st22" x1="373.3" y1="30.5" x2="375.1" y2="31.5"/>
			</g>
			<path class="st24" d="M368.2,24.9c0,3.3-2.9,7.6-4.7,7.6s-4.7-4-4.7-7.6c0-2.6,2.1-4.7,4.7-4.7C366.1,20.2,368.2,22.3,368.2,24.9
				z"/>
			<line class="st25" x1="363.4" y1="28.1" x2="363.4" y2="36.5"/>
		</g>
	</g>
</g>
<g id="XMLID_5_">
	<g>
		<g id="detail-info_10_">
			<g class="st21">
				<path class="st20" d="M328.6,25.8c0,10.6-8.6,19.2-19.2,19.2c-10.6,0-19.2-8.6-19.2-19.2c0-10.6,8.6-19.2,19.2-19.2
					C320,6.6,328.6,15.2,328.6,25.8z"/>
				<rect x="309.4" y="37.6" class="st1" width="0" height="0"/>
				<path class="st8" d="M302.6,19c0-3.8,3-6.8,6.8-6.8c3.8,0,6.8,3,6.8,6.8c0,3.8-3.3,7.3-6.8,8.9v1.5"/>
			</g>
			<g class="st21">
				<line class="st7" x1="309.4" y1="28.6" x2="309.4" y2="24.5"/>
				<line class="st7" x1="309.4" y1="24.5" x2="306.2" y2="21.3"/>
				<line class="st7" x1="309.4" y1="24.5" x2="312.6" y2="21.3"/>
			</g>
			<g class="st21">
				<g class="st18">
					<line class="st3" x1="309.4" y1="13.4" x2="309.4" y2="11.3"/>
					<line class="st3" x1="300.9" y1="33.9" x2="299.5" y2="35.3"/>
					<line class="st3" x1="300.9" y1="16.8" x2="299.5" y2="15.4"/>
					<line class="st3" x1="297.4" y1="25.5" x2="295.3" y2="25.5"/>
				</g>
				<line class="st7" x1="317.9" y1="33.9" x2="319.3" y2="35.3"/>
				<line class="st7" x1="317.9" y1="16.8" x2="319.3" y2="15.4"/>
				<line class="st7" x1="321.4" y1="25.5" x2="323.5" y2="25.5"/>
			</g>
			<g class="st21">
				<path class="st10" d="M314.1,24.9c0-2.6-2.1-4.7-4.7-4.7c-2.6,0-4.7,2.1-4.7,4.7c0,5.1,3.5,5.7,3.5,7.3v2c0,0.7-0.1,1.3,0.4,1.6
					c0.1,0.4,1.7,0.4,1.7,0c0.4-0.4,0.4-0.9,0.4-1.6v-2C310.6,30.7,314.1,29.9,314.1,24.9z"/>
				<rect x="309.4" y="37.1" class="st10" width="0" height="0"/>
			</g>
			<g class="st16">
				<g>
					<line class="st3" x1="309.4" y1="13.4" x2="309.4" y2="11.3"/>
				</g>
				<g>
					<line class="st3" x1="299.5" y1="19.1" x2="297.7" y2="18"/>
				</g>
				<g>
					<line class="st3" x1="299.5" y1="30.5" x2="297.7" y2="31.5"/>
				</g>
				<g>
					<line class="st3" x1="319.3" y1="19.1" x2="321.1" y2="18"/>
				</g>
				<g>
					<line class="st3" x1="319.3" y1="30.5" x2="321.1" y2="31.5"/>
				</g>
				<path class="st5" d="M314.2,24.9c0,3.3-2.9,7.6-4.7,7.6s-4.7-4-4.7-7.6c0-2.6,2.1-4.7,4.7-4.7C312.1,20.2,314.2,22.3,314.2,24.9
					z"/>
				<line class="st6" x1="309.4" y1="28.1" x2="309.4" y2="36.5"/>
			</g>
		</g>
	</g>
</g>
<g id="XMLID_4_">
	<g>
		<g id="detail-info_9_">
			<g class="st21">
				<path class="st20" d="M275.6,25.8c0,10.6-8.6,19.2-19.2,19.2c-10.6,0-19.2-8.6-19.2-19.2c0-10.6,8.6-19.2,19.2-19.2
					C267,6.6,275.6,15.2,275.6,25.8z"/>
				<rect x="256.4" y="37.6" class="st1" width="0" height="0"/>
				<path class="st8" d="M249.6,19c0-3.8,3-6.8,6.8-6.8c3.8,0,6.8,3,6.8,6.8c0,3.8-3.3,7.3-6.8,8.9v1.5"/>
			</g>
			<g class="st21">
				<line class="st7" x1="256.4" y1="28.6" x2="256.4" y2="24.5"/>
				<line class="st7" x1="256.4" y1="24.5" x2="253.2" y2="21.3"/>
				<line class="st7" x1="256.4" y1="24.5" x2="259.6" y2="21.3"/>
			</g>
			<g class="st21">
				<g class="st18">
					<line class="st3" x1="256.4" y1="13.4" x2="256.4" y2="11.3"/>
					<line class="st3" x1="247.9" y1="33.9" x2="246.5" y2="35.3"/>
					<line class="st3" x1="247.9" y1="16.8" x2="246.5" y2="15.4"/>
					<line class="st3" x1="244.4" y1="25.5" x2="242.3" y2="25.5"/>
				</g>
				<line class="st7" x1="264.9" y1="33.9" x2="266.3" y2="35.3"/>
				<line class="st7" x1="264.9" y1="16.8" x2="266.3" y2="15.4"/>
				<line class="st7" x1="268.4" y1="25.5" x2="270.5" y2="25.5"/>
			</g>
			<g class="st21">
				<path class="st10" d="M261.1,24.9c0-2.6-2.1-4.7-4.7-4.7c-2.6,0-4.7,2.1-4.7,4.7c0,5.1,3.5,5.7,3.5,7.3v2c0,0.7-0.1,1.3,0.4,1.6
					c0.1,0.4,1.7,0.4,1.7,0c0.4-0.4,0.4-0.9,0.4-1.6v-2C257.6,30.7,261.1,29.9,261.1,24.9z"/>
				<rect x="256.4" y="37.1" class="st10" width="0" height="0"/>
			</g>
			<g>
				<g>
					<line class="st3" x1="256.4" y1="13.4" x2="256.4" y2="11.3"/>
				</g>
				<g>
					<line class="st3" x1="246.5" y1="19.1" x2="244.7" y2="18"/>
				</g>
				<g>
					<line class="st3" x1="246.5" y1="30.5" x2="244.7" y2="31.5"/>
				</g>
				<g>
					<line class="st3" x1="266.3" y1="19.1" x2="268.1" y2="18"/>
				</g>
				<g>
					<line class="st3" x1="266.3" y1="30.5" x2="268.1" y2="31.5"/>
				</g>
				<path class="st5" d="M261.2,24.9c0,3.3-2.9,7.6-4.7,7.6s-4.7-4-4.7-7.6c0-2.6,2.1-4.7,4.7-4.7C259.1,20.2,261.2,22.3,261.2,24.9
					z"/>
				<line class="st6" x1="256.4" y1="28.1" x2="256.4" y2="36.5"/>
			</g>
		</g>
	</g>
</g>
<g>
	<g>
		<line class="st12" x1="109.5" y1="92.8" x2="109.5" y2="122.7"/>
		<line class="st12" x1="94.6" y1="107.8" x2="124.5" y2="107.8"/>
	</g>
</g>
<g>
	<g>
		<line class="st12" x1="180.7" y1="107.8" x2="224.4" y2="107.8"/>
	</g>
</g>
<g id="XMLID_32_">
	<g>
		<line class="st12" x1="385.5" y1="90.1" x2="385.5" y2="111.5"/>
		<line class="st12" x1="375.9" y1="124.2" x2="395.2" y2="124.2"/>
		<polyline class="st12" points="394.4,104.2 385.5,111.5 376.7,104.2 		"/>
	</g>
</g>
<g id="XMLID_7_">
	<polygon class="st4" points="284.3,90.6 315.2,107.7 284.3,124.7 	"/>
</g>
<g>
	<circle class="st15" cx="7" cy="-166" r="135"/>
	<g>
		<g>
			<line class="st19" x1="44.4" y1="-204.6" x2="-32.7" y2="-127.4"/>
			<line class="st19" x1="-32.7" y1="-204.6" x2="44.4" y2="-127.4"/>
		</g>
	</g>
</g>
<g>
	<circle class="st15" cx="310" cy="-166" r="135"/>
	<g>
		<g>
			<line class="st14" x1="311.4" y1="-137.8" x2="311.4" y2="-160.8"/>
			<line class="st14" x1="311.5" y1="-160.8" x2="298.4" y2="-174"/>
			<line class="st14" x1="311.4" y1="-160.8" x2="324.6" y2="-174"/>
		</g>
		<g class="st21">
			<g class="st18">
				<line class="st14" x1="311.4" y1="-246.1" x2="311.4" y2="-257"/>
				<line class="st14" x1="266.2" y1="-137" x2="258.5" y2="-129.3"/>
				<line class="st14" x1="266.3" y1="-227.7" x2="258.6" y2="-235.5"/>
				<line class="st14" x1="247.4" y1="-181.6" x2="236.4" y2="-181.6"/>
			</g>
			<line class="st2" x1="356.6" y1="-137" x2="364.4" y2="-129.3"/>
			<line class="st2" x1="356.5" y1="-227.7" x2="364.3" y2="-235.5"/>
			<line class="st2" x1="375.5" y1="-181.6" x2="386.4" y2="-181.6"/>
		</g>
		<line class="st14" x1="297.7" y1="-137.8" x2="325.1" y2="-137.8"/>
		<line class="st14" x1="297.7" y1="-125.5" x2="325.1" y2="-125.5"/>
		<line class="st14" x1="297.9" y1="-112.9" x2="325" y2="-112.9"/>
		<path class="st14" d="M325.1-115c0,7.6-5.3,13.7-13.7,13.7c-8.4,0-13.7-6.2-13.7-13.7l0-19c0-11.5-23.8-19.4-23.8-48.9
			c0-20.5,16.8-37.6,37.5-37.6c20.7,0,37.5,17.8,37.5,37.6c0,29.4-23.8,38-23.8,48.9V-115z"/>
		<path class="st14" d="M321.2-203.6c5.1,2.5,9.2,6.6,11.8,11.6"/>
	</g>
</g>
<g>
	<g>
		<path class="st15" d="M759-166.2c0,14.6-14,26.7-18.3,39.9c-4.4,13.6-0.4,31.7-8.6,43c-8.3,11.5-26.8,13.2-38.3,21.5
			c-11.3,8.2-18.6,25.3-32.2,29.8c-13.1,4.3-29-5.1-43.6-5.1c-14.6,0-30.4,9.4-43.6,5.1c-13.6-4.4-20.9-21.5-32.2-29.8
			c-11.4-8.3-29.9-10-38.3-21.5c-8.2-11.3-4.2-29.4-8.6-43c-4.3-13.1-18.3-25.3-18.3-39.9s14-26.7,18.3-39.9
			c4.4-13.6,0.4-31.7,8.6-43c8.3-11.5,26.8-13.2,38.3-21.5c11.3-8.2,18.6-25.3,32.2-29.8c13.1-4.3,29,5.1,43.6,5.1
			c14.6,0,30.4-9.4,43.6-5.1c13.6,4.4,20.9,21.5,32.2,29.8c11.5,8.3,29.9,10,38.3,21.5c8.2,11.3,4.2,29.4,8.6,43
			C745-192.9,759-180.7,759-166.2z"/>
	</g>
	<g>
		<line class="st0" x1="668.9" y1="-194.7" x2="602.2" y2="-128"/>
		<line class="st0" x1="568.9" y1="-161.4" x2="602.2" y2="-128"/>
	</g>
</g>
<g>
	<line class="st13" x1="405.5" y1="36.4" x2="427.9" y2="14"/>
	<line class="st13" x1="427.9" y1="36.4" x2="405.5" y2="14"/>
</g>
<g>
	<line class="st12" x1="212.6" y1="25.4" x2="191.7" y2="25.4"/>
</g>
<g>
	<line class="st12" x1="92.8" y1="13.5" x2="92.8" y2="26.8"/>
	<line class="st12" x1="86.8" y1="34.7" x2="98.8" y2="34.7"/>
	<polyline class="st12" points="98.3,22.3 92.8,26.8 87.3,22.3 	"/>
</g>
<g>
	<line class="st12" x1="540.9" y1="35" x2="540.9" y2="15.6"/>
	<g id="XMLID_1_">
		<polygon class="st4" points="520.9,17.4 535.1,25.3 520.9,33.1 		"/>
	</g>
</g>
<g>
	<g>
		<path class="st9" d="M167.2,24.8c0,11-9,20-20,20c-11,0-20-9-20-20s9-20,20-20C158.3,4.8,167.2,13.7,167.2,24.8z"/>
		<line class="st12" x1="142.2" y1="35.2" x2="152.2" y2="35.2"/>
		<polyline class="st12" points="142.7,23.9 147.2,23.9 147.2,35.2 		"/>
	</g>
	<circle class="st17" cx="147.2" cy="15.2" r="2.9"/>
</g>
<polyline class="st23" points="486,21.3 474,33.3 462,21.3 "/>
<g>
	<path class="st12" d="M588.4,30.5c2.2,5.2,7.3,8.9,13.3,8.9c6.6,0,12.1-4.4,13.9-10.4"/>
	<polyline class="st12" points="609.2,29.7 616.2,26.7 619.1,33.6 	"/>
	<path class="st12" d="M614.7,18.5c-2.4-4.7-7.3-8-12.9-8c-6.6,0-12.1,4.4-13.9,10.4"/>
	<polyline class="st12" points="594.3,20.1 587.4,23 584.4,16.1 	"/>
</g>
<g>
	<g>
		<path class="st4" d="M644.6,12.2c7.8,3.3,13.1-7,20.9-3.7c0.9,5.1,1.8,10.2,2.7,15.2c-7.8-3.3-13.1,7-20.9,3.7"/>
		<line class="st4" x1="644.2" y1="9.8" x2="649.4" y2="41.9"/>
	</g>
	<rect x="658.5" y="38.6" class="st12" width="0" height="0"/>
	<rect x="666.1" y="36.1" class="st11" width="0" height="0"/>
</g>
<g>
	<circle class="st12" cx="707.5" cy="25.2" r="12.7"/>
	<line class="st12" x1="707.5" y1="7.2" x2="707.5" y2="17.8"/>
	<line class="st12" x1="725.5" y1="25.2" x2="714.9" y2="25.2"/>
	<line class="st12" x1="707.5" y1="43.3" x2="707.5" y2="32.7"/>
	<line class="st12" x1="689.5" y1="25.2" x2="700.1" y2="25.2"/>
</g>
<g>
	<path class="st4" d="M776,25.1c0,0-8.1,11.4-18,11.4s-18-11.4-18-11.4s8.1-11.4,18-11.4S776,25.1,776,25.1z"/>
	<circle class="st4" cx="758" cy="25.1" r="8.5"/>
	<path class="st4" d="M759.3,22.1c0.9,0,1.7,0.8,1.7,1.7"/>
</g>
<g>
	<path class="st4" d="M806.4,42.3l0-16.2c-4.9,0-8.9-4-8.9-8.9c0-4.9,4-8.9,8.9-8.9"/>
	<line class="st4" x1="806.4" y1="32.2" x2="800.7" y2="32.2"/>
	<line class="st4" x1="806.4" y1="38.5" x2="802.3" y2="38.5"/>
	<line class="st12" x1="814.2" y1="8.7" x2="814.2" y2="25.6"/>
	<line class="st12" x1="805.8" y1="17.2" x2="822.7" y2="17.2"/>
</g>
<g id="settings">
	<g id="Ebene_1_Kopie_1_">
		<path class="st4" d="M41.1,20.3c-1.1-0.4-2-1.2-2.5-2.3l0,0c-0.5-1.1-0.4-2.3,0.1-3.4l1.3-2.8L36.2,8l-2.8,1.3
			c-1.1,0.5-2.3,0.5-3.4,0.1l0,0C29,8.9,28.1,8,27.7,6.9l-1-2.9h-5.4l-1,2.9c-0.4,1.1-1.2,2-2.3,2.5l0,0c-1.1,0.5-2.3,0.4-3.4-0.1
			L11.8,8L8,11.8l1.3,2.8c0.5,1.1,0.5,2.3,0.1,3.4v0C8.9,19,8,19.9,6.9,20.3l-2.9,1v5.4l2.9,1c1.1,0.4,2,1.2,2.5,2.3v0
			c0.5,1.1,0.4,2.3-0.1,3.4L8,36.2l3.8,3.8l2.8-1.3c1.1-0.5,2.3-0.5,3.4-0.1v0c1.1,0.4,1.9,1.3,2.3,2.4l1,2.9h5.4l1-2.9
			c0.4-1.1,1.3-2,2.3-2.5l0,0c1.1-0.4,2.3-0.4,3.4,0.1l2.8,1.3l3.8-3.8l-1.3-2.8c-0.5-1.1-0.5-2.3-0.1-3.4v0
			c0.5-1.1,1.3-1.9,2.5-2.3l2.9-1v-5.4L41.1,20.3z M24,30c-3.3,0-6-2.7-6-6c0-3.3,2.7-6,6-6s6,2.7,6,6C30,27.3,27.3,30,24,30z"/>
	</g>
</g>
</svg>
