<svg id="Ebene_1" data-name="Ebene 1" xmlns="http://www.w3.org/2000/svg" viewBox="0 0 70 96"><defs><style>.cls-1{fill:#036d99;}.cls-2{fill:none;stroke:#fff;stroke-linecap:round;stroke-linejoin:round;stroke-width:5px;}</style></defs><title>icon</title><path class="cls-1" d="M32.84,3.78c-15.46,0-31.12,11-31.12,31.88,0,9.45,4.67,21.47,13.89,35.73A209.51,209.51,0,0,0,29.12,90a5.26,5.26,0,0,0,3.71,2h0a5.29,5.29,0,0,0,3.72-2A188.7,188.7,0,0,0,50,71.73c9.13-14.17,13.76-26.34,13.76-36C63.72,17,51,3.78,32.84,3.78Z"/><path class="cls-2" d="M44.63,33.54A11.45,11.45,0,1,1,33.19,22.09,11.45,11.45,0,0,1,44.63,33.54Z"/><line class="cls-2" x1="33.19" y1="44.99" x2="33.19" y2="67.68"/><line class="cls-2" x1="33.19" y1="53.79" x2="25.03" y2="53.79"/><line class="cls-2" x1="33.19" y1="62.95" x2="27.32" y2="62.95"/></svg>