<svg xmlns="http://www.w3.org/2000/svg" width="23.5" height="22.2" viewBox="0 0 23.5 22.2">
  <g id="Icon_ion-reload-sharp" data-name="Icon ion-reload-sharp" transform="translate(-1.875 -5)">
    <path id="Pfad_3737" data-name="Pfad 3737" d="M21.491,8.7,20.4,7.471A9.993,9.993,0,0,0,13.256,4.5a9.746,9.746,0,0,0-9.881,9.6,9.746,9.746,0,0,0,9.881,9.6,9.873,9.873,0,0,0,9.319-6.4" transform="translate(0 2)" fill="none" stroke="#fff" stroke-linecap="square" stroke-miterlimit="10" stroke-width="3"/>
    <path id="Pfad_3738" data-name="Pfad 3738" d="M31.406,4.782v9.5a.251.251,0,0,1-.251.251h-9.5a.251.251,0,0,1-.177-.428l9.5-9.5a.251.251,0,0,1,.428.177Z" transform="translate(-6.031 1)" fill="#fff"/>
  </g>
</svg>
