<svg xmlns="http://www.w3.org/2000/svg" width="12.998" height="12.998" viewBox="0 0 12.998 12.998">
  <g id="Ebene_1_Kopie" data-name="Ebene 1 Kopie" transform="translate(0.5 0.5)">
    <path id="Pfad_295" data-name="Pfad 295" d="M132.964,236.234a1.251,1.251,0,0,1-.736-.7h0a1.254,1.254,0,0,1,.026-1.016l.4-.836-1.143-1.143-.836.4a1.252,1.252,0,0,1-1.016.026h0a1.249,1.249,0,0,1-.7-.736l-.311-.873H127.03l-.31.873a1.248,1.248,0,0,1-.7.736h0a1.252,1.252,0,0,1-1.016-.026l-.837-.4-1.142,1.143.4.836a1.253,1.253,0,0,1,.026,1.017h0a1.249,1.249,0,0,1-.736.7l-.874.311v1.616l.874.31a1.251,1.251,0,0,1,.736.7h0a1.251,1.251,0,0,1-.026,1.017l-.4.836,1.142,1.143.837-.4a1.253,1.253,0,0,1,1.017-.026h0a1.248,1.248,0,0,1,.7.736l.31.873h1.616l.309-.868a1.263,1.263,0,0,1,.705-.743h0a1.238,1.238,0,0,1,1.007.025l.842.4,1.143-1.143-.4-.837a1.253,1.253,0,0,1-.026-1.016h0a1.253,1.253,0,0,1,.737-.7l.872-.31v-1.616Zm-5.126,3.618a2.5,2.5,0,1,1,2.5-2.5A2.5,2.5,0,0,1,127.838,239.853Z" transform="translate(-121.839 -231.354)" fill="#fff" stroke="#fff" stroke-linecap="round" stroke-linejoin="round" stroke-width="1"/>
  </g>
</svg>
