<svg id="Ebene_1" data-name="Ebene 1" xmlns="http://www.w3.org/2000/svg" viewBox="0 0 26 26"><defs><style>.cls-1{fill:#f35800;}.cls-2{fill:#fff;}.cls-3{fill:none;stroke: #f35800;stroke-linecap:round;stroke-linejoin:round;}</style></defs><g id="Gruppe_1433" data-name="Gruppe 1433"><g id="Komponente_25_47-2" data-name="Komponente 25 47-2"><path id="Pfad_220-2" data-name="Pfad 220-2" class="cls-1" d="M0,13A13,13,0,1,0,13,0,13,13,0,0,0,0,13Z"/></g><g id="marker-task-personal"><path id="Pfad_326" data-name="Pfad 326" class="cls-2" d="M13.01813,5.00922a5.70689,5.70689,0,0,0-5.83057,5.58056c-.00293.12915-.00122.25855.00464.38745,0,1.76905.875,4.02,2.6001,6.689a33.75612,33.75612,0,0,0,2.52905,3.41894.92029.92029,0,0,0,.69995.3191h0a.92288.92288,0,0,0,.69995-.31592,32.41187,32.41187,0,0,0,2.509-3.387c1.71-2.65405,2.5769-4.916,2.5769-6.72412a5.62268,5.62268,0,0,0-5.2644-5.96Q13.28058,5.0008,13.01813,5.00922Z"/><path id="Pfad_327" data-name="Pfad 327" class="cls-3" d="M15.19208,10.61736a2.11108,2.11108,0,0,1-4.22216-.00073v-.00024a2.11,2.11,0,0,1,2.10986-2.11011H13.08a2.11106,2.11106,0,0,1,2.11206,2.10986Z"/></g></g></svg>
