<svg id="Gruppe_3326" data-name="Gruppe 3326" xmlns="http://www.w3.org/2000/svg" width="17.641" height="14.601" viewBox="0 0 17.641 14.601">
  <path id="Icon_ion-language-sharp" data-name="Icon ion-language-sharp" d="M11.481,13.837A15.325,15.325,0,0,1,9.734,12.2,19.844,19.844,0,0,0,12.47,6.683h2.087V4.99H9.25V3.375H7.558V4.99H2.25V6.683h8.433A18.361,18.361,0,0,1,8.614,10.85a16.983,16.983,0,0,1-1.82-2.932l-.274-.544-1.462.846.264.533a18.867,18.867,0,0,0,2.1,3.33c.035.047.071.092.107.137a15.091,15.091,0,0,1-3.448,3.057l-.6.405.885,1.385.742-.441a16.426,16.426,0,0,0,3.538-3.107,15.746,15.746,0,0,0,1.7,1.6l.477.33Z" transform="translate(-2.25 -3.375)" fill="#444"/>
  <g id="Komponente_34_30" data-name="Komponente 34 – 30" transform="translate(9.538 4.5)">
    <line id="Linie_46" data-name="Linie 46" x2="6.519" transform="translate(0 9.301)" fill="none" stroke="#444" stroke-miterlimit="10" stroke-width="1.6"/>
    <g id="Gruppe_147" data-name="Gruppe 147" transform="translate(0.272)">
      <line id="Linie_45" data-name="Linie 45" y2="6.866" transform="translate(2.988)" fill="none" stroke="#444" stroke-miterlimit="10" stroke-width="1.6"/>
      <path id="Pfad_127" data-name="Pfad 127" d="M692.53,1001.437l-2.988,3.038-2.988-3.038" transform="translate(-686.554 -997.608)" fill="none" stroke="#444" stroke-miterlimit="10" stroke-width="1.6"/>
    </g>
  </g>
</svg>
