<svg xmlns="http://www.w3.org/2000/svg" width="71.502" height="70" viewBox="0 0 71.502 70">
  <g id="Gruppe_3704" data-name="Gruppe 3704" transform="translate(-189.518 2.809)">
    <path id="Pfad_4012" data-name="Pfad 4012" d="M66.729,30.133,63.7,26.259a6.679,6.679,0,0,1-1.18-3.541l.152-4.9a6.236,6.236,0,0,0-4.253-6.054l-4.692-1.3A6.056,6.056,0,0,1,50.7,8.309L48.069,4.194A6.053,6.053,0,0,0,43.06,1.5a6.8,6.8,0,0,0-2.029.317l-4.54,2.043a4.709,4.709,0,0,1-1.786.333,4.26,4.26,0,0,1-1.815-.319l-4.54-1.71a5.736,5.736,0,0,0-1.923-.333,5.826,5.826,0,0,0-5.009,2.7L18.755,8.612a6.134,6.134,0,0,1-3.027,2.15l-4.692,1.285A5.9,5.9,0,0,0,6.768,18.1L6.9,21.2V23.05a7.051,7.051,0,0,1-1.18,3.541L4.286,28.407,2.772,30.253A5.875,5.875,0,0,0,1.5,34.037a6.373,6.373,0,0,0,1.2,3.844l3.027,3.86A6.775,6.775,0,0,1,6.9,45.3l-.211,4.934a6.249,6.249,0,0,0,4.253,6.054l4.691,1.287a6.049,6.049,0,0,1,3.027,2.148l2.664,4.087A6.053,6.053,0,0,0,26.336,66.5a6.4,6.4,0,0,0,2.028-.333l4.54-2.043a4.689,4.689,0,0,1,1.8-.363,4.008,4.008,0,0,1,1.817.333l4.54,1.71a6.045,6.045,0,0,0,1.922.317,5.813,5.813,0,0,0,5.009-2.678l2.664-4.087a5.952,5.952,0,0,1,3.027-2.15l4.692-1.285a5.917,5.917,0,0,0,4.267-6.054l-.136-3.027V44.964a7.017,7.017,0,0,1,1.18-3.541L65.2,39.607l1.513-1.846A5.874,5.874,0,0,0,68,33.962,6.319,6.319,0,0,0,66.729,30.133Z" transform="translate(190.519 -1.809)" fill="none" stroke="#036d99" stroke-miterlimit="10" stroke-width="4"/>
    <path id="Pfad_4013" data-name="Pfad 4013" d="M32.858,10.456a21.758,21.758,0,1,1-21.58,21.758A21.67,21.67,0,0,1,32.858,10.456Z" transform="translate(192.411 -0.077)" fill="none" stroke="#036d99" stroke-miterlimit="10" stroke-width="4"/>
    <path id="Pfad_4014" data-name="Pfad 4014" d="M30.724,36.3l-5.471,3.652a.692.692,0,0,1-1.05-.764l1.782-6.332a.692.692,0,0,0-.238-.732l-5.164-4.075a.692.692,0,0,1,.4-1.235l6.573-.261a.694.694,0,0,0,.622-.452l2.28-6.171a.693.693,0,0,1,1.3,0L34.038,26.1a.7.7,0,0,0,.623.452l6.572.261a.692.692,0,0,1,.4,1.235l-5.163,4.075a.692.692,0,0,0-.239.732l1.783,6.332a.693.693,0,0,1-1.052.764L31.493,36.3A.693.693,0,0,0,30.724,36.3Z" transform="translate(194.16 1.671)" fill="none" stroke="#036d99" stroke-miterlimit="10" stroke-width="4"/>
  </g>
</svg>
