<svg xmlns="http://www.w3.org/2000/svg" width="77.683" height="77.683" viewBox="0 0 77.683 77.683">
  <g id="Gruppe_668" data-name="Gruppe 668" transform="translate(2 2)">
    <path id="Pfad_309" data-name="Pfad 309" d="M2906.031,308.657a31.413,31.413,0,1,0,44.425,0A31.413,31.413,0,0,0,2906.031,308.657Z" transform="translate(-2896.83 -288.6)" fill="none" stroke="#036d99" stroke-linecap="round" stroke-linejoin="round" stroke-width="4"/>
    <path id="Pfad_310" data-name="Pfad 310" d="M2909.259,311.885a25.365,25.365,0,1,0,35.871,0A25.363,25.363,0,0,0,2909.259,311.885Z" transform="translate(-2895.781 -287.551)" fill="none" stroke="#036d99" stroke-linecap="round" stroke-linejoin="round" stroke-width="4"/>
    <path id="Pfad_311" data-name="Pfad 311" d="M2935.663,323.823l9.421-6.693.009-.01,0,.006,0-.005-.008.01-6.727,10.078,7.176,2.029h.006l0,0h0l-7.459,2.5,7.009,9.614.007.008,0,0,0,0-.006-.007-9.448-6.779" transform="translate(-2901.562 -286.969)" fill="none" stroke="#036d99" stroke-linecap="round" stroke-linejoin="round" stroke-width="4"/>
    <path id="Pfad_312" data-name="Pfad 312" d="M2923.732,334.592l-9.42,6.757-.009.009,0,0,0,0,.009-.01,6.727-10.266-7.175-1.841h0l7.364-2.4-6.915-9.707-.006-.007,0,0,0-.005.007.008,9.422,6.686" transform="translate(-2895.007 -286.969)" fill="none" stroke="#036d99" stroke-linecap="round" stroke-linejoin="round" stroke-width="4"/>
    <path id="Pfad_313" data-name="Pfad 313" d="M2929.511,308.456l2.853,13.535a5.072,5.072,0,0,1,0,8.387l-2.852,13.771-2.855-13.77a5.073,5.073,0,0,1,0-8.388Z" transform="translate(-2898.099 -284.032)" fill="none" stroke="#036d99" stroke-linecap="round" stroke-linejoin="round" stroke-width="4"/>
    <path id="Pfad_315" data-name="Pfad 315" d="M2953.617,306.435l4.443-4.443c1.4-1.4,2.405-.132,3.807,1.271s2.672,2.4,1.27,3.806l-4.443,4.442" transform="translate(-2902.649 -288.797)" fill="none" stroke="#036d99" stroke-linecap="round" stroke-linejoin="round" stroke-width="4"/>
    <path id="Pfad_316" data-name="Pfad 316" d="M2956.758,302.08a10.371,10.371,0,1,1,5.077,5.077" transform="translate(-2902.872 -287.36)" fill="none" stroke="#036d99" stroke-linecap="round" stroke-linejoin="round" stroke-width="4"/>
  </g>
</svg>
